<svg xmlns="http://www.w3.org/2000/svg" viewBox="0 0 1267.58 1858.23"><defs><style>.cls-1{fill:none;stroke:#fff;stroke-miterlimit:10;stroke-width:1.84px;}</style></defs><g id="Ebene_2" data-name="Ebene 2"><g id="Ebene_2-2" data-name="Ebene 2"><path class="cls-1" d="M841.41,1028.22s17.83,28.49-1.66,51C839.75,1079.27,819.31,1061.59,841.41,1028.22Z"/><path class="cls-1" d="M814.84,1023.38s18.37,32.12-.77,57C814.07,1080.35,793.27,1060.26,814.84,1023.38Z"/><path class="cls-1" d="M881.67,1460.89s-3.07,102.91,89.4,303.95c0,0,72.37,88.44-46.24,92.47H46.36S122.75,1600,146.88,1298.45c0,0,60.3,36.19,325.65-132.67,0,0,120.62-64.32,233.19-36.18,0,0,100.51,12.06,120.61,168.85C826.33,1298.45,829.4,1436.75,881.67,1460.89Z"/><line class="cls-1" x1="315.74" y1="1255.95" x2="315.74" y2="1857.31"/><line class="cls-1" x1="621.29" y1="1123.42" x2="621.29" y2="1857.31"/><line class="cls-1" x1="554.28" y1="1135.11" x2="554.28" y2="1857.31"/><line class="cls-1" x1="476.56" y1="1161.44" x2="476.56" y2="1857.31"/><line class="cls-1" x1="398.16" y1="1213.45" x2="398.16" y2="1857.31"/><line class="cls-1" x1="231.31" y1="1288.24" x2="231.31" y2="1857.31"/><line class="cls-1" x1="146.88" y1="1298.45" x2="146.88" y2="1857.31"/><line class="cls-1" x1="689.64" y1="1128.52" x2="689.64" y2="1857.31"/><line class="cls-1" x1="763.35" y1="1158.14" x2="763.35" y2="1857.31"/><line class="cls-1" x1="826.32" y1="1288.24" x2="826.32" y2="1857.31"/><line class="cls-1" x1="898.7" y1="1577.87" x2="898.7" y2="1857.31"/><path class="cls-1" d="M1029,1245.79s-8-70.29-323.25-116.19c0,0,104.53,20.1,120.61,168.85H959S948.56,1306.1,1029,1245.79Z"/><path class="cls-1" d="M826.33,1298.45s-4,197,144.74,197l-12.06-197Z"/><path class="cls-1" d="M729.84,1397s-108.55,473.61-623.17,404.67c0,0,285.46-246.32,454.31-523.49C561,1278.13,646.71,1390.38,729.84,1397Z"/><path class="cls-1" d="M770.05,1689.54s7.42,50.71-40.21,79"/><path class="cls-1" d="M799.53,1689.54s-33.09,14.73-49.37-16.09"/><path class="cls-1" d="M270.19,1613.07s10.42-17.13-15.43-24.31"/><path class="cls-1" d="M282.88,1547.84s10.78-14.16-14.9-23.72"/><path class="cls-1" d="M633.87,149.18s-65.91,40.15-108.8-8.92c0,0-2.68,89,54.4,91.77C579.47,232,628.75,230.65,633.87,149.18Z"/><path class="cls-1" d="M504.68,91.15S569,51.28,570,102.54c0,0,6,7-21.11,7,0,0-22.11,8.22,12.06,9.64,0,0,26.35,22.82-9,23.24,0,0-35.18,4.31,2,11.34,0,0,25.13,25.13,0,24.12,0,0-28.15,8.05-4,14.08,0,0,9,46.23,30.15,28.14,0,0,19.1-12.06,0-22.11,0,0-14.07-21.11,19.1-11.06,0,0,19.09-7,0-18.09,0,0-26.14-4.88-16.08-18.52,0,0,16-6.46,24.57,0,0,0,20.55-7.61,0-14.65,0,0-20.56-7.86-15.53-16.49,0,0,7-6.45,19.1,0,0,0,16.08-4.62,1-18.69,0,0-8.38-20.77,31.5-8.37,0,0,31.57,105.09-7.8,142.05,0,0-25.71,31.16-59.65,23.12C576.27,257.33,503.67,257.67,504.68,91.15Z"/><path class="cls-1" d="M928.45,760.05S775.68,572.43,775.68,194.51c0,0,5.36-72.37-93.81-80.41,0,0-24.13-18.76-40.21-21.44,0,0,32.1,160.82-68.38,158.13,0,0-67.74,0-58.64-158.13L488,60.49,440.64,92.66,390.86,1.52,210.13,182.45s-72.36,138,69.69,229.16c0,0,2.68,72.37-18.76,91.14,0,0-23.86,99.17,75.18,222.46,0,0,82.95,99.17,85.64,115.25,0,0,112.57-139.37,112.57-321.63,0,0,72.37-80.42,64.33-117.94,0,0,190.63,158.14-38.7,455.65L502.28,937s-83.08,10.72-91.12,115.26c0,0-59.27,155.45-317.77,155.45,0,0-119.42,53.6,0,75,0,0,52.42,40.2,12.21,88.45,0,0-99.16-21.44-104.53,34.85,0,0-.3,42.87,92.32,42.87,0,0,41.39,8.59,0,17.71,0,0-44.07,1.06-44.07,49.3,0,0,17.92,34.85,74.63,26.82L73.44,1599s-32.16,48.48-2.68,79.18c0,0,34.84,28,120.61-95.27,0,0-13.4,88.8,34.85,98,0,0,62.31,27.28,69.69-180.71,0,0-10.73-150.5,53.6-201.43,0,0,99.17-37.52,243.91-120.6,0,0,40.2-10.73,13.4-59,0,0,77.73,85.77,139.37,13.4,0,0,53.61-18.75-17.42-198.34,0,0-9.38-83.09,28.15,13.4,0,0,18.24,192.76,117.93,50.93,0,0,56.24,112,32.12,176.32,0,0,96.5,14.65,56.65,52.84,0,0-56.64,58.3,0,158.82,0,0-78,270.4,161.17,230.68,0,0,156.8-25.65,140.71-146.26,0,0-15.73-271.38-158.8-257.3,0,0,8-58.31-6-94.49C1100.66,1119.21,933.14,827.06,928.45,760.05Z"/><path class="cls-1" d="M96.07,1207.66s34.69,34.84,0,75c0,0-60.77-7.27-51.75-35.13C44.32,1247.58,56.39,1223.07,96.07,1207.66Z"/><path class="cls-1" d="M1020.93,1479.8c0,4.43,18,8,40.2,8s40.21-3.61,40.21-8-18-8-40.21-8S1020.93,1475.36,1020.93,1479.8Z"/><path class="cls-1" d="M1166,1479.8c0,4.43,17.94,8,40.06,8s40-3.61,40-8-17.93-8-40-8S1166,1475.36,1166,1479.8Z"/><path class="cls-1" d="M1163.65,1444.87s14.47,134.68-29,136.7c0,0-37.38-4.28-33.36-128.92"/><path class="cls-1" d="M1.07,1406c4.6-36.06,58-38.59,58-38.59s35,48.14-12.67,75.86C46.36,1443.28-2.11,1431,1.07,1406Z"/><path class="cls-1" d="M49.32,1515.89c-3.75-48.44,57.35-52.23,57.35-52.23S152.93,1507,116,1543.3C116,1543.3,51.16,1539.68,49.32,1515.89Z"/><path class="cls-1" d="M70.76,1678.17c-41.71-30.52,12.66-87.32,12.66-87.32s67.45.16,54.2,60.26C137.62,1651.11,91.53,1693.36,70.76,1678.17Z"/><path class="cls-1" d="M282.88,1613.07s-44.91-47.74-90.46-9.44c0,0-12.35,80.48,45.24,78.47C237.66,1682.1,276.56,1677.73,282.88,1613.07Z"/><path class="cls-1" d="M601.46,400.89s-115.92-74.38-186.88,2.68c0,0-75.12,67.68-132.08,8"/><path class="cls-1" d="M295,379.08l-1-.27.35-1c.15-.45,15.71-45,56.93-45a67.67,67.67,0,0,1,17.87,2.55l.79.22-.06.82c0,.46-3.69,46.12-50.43,46.12h0A97.59,97.59,0,0,1,295,379.08Zm56.24-44.25c-36.32,0-52.08,36-54.65,42.59a95,95,0,0,0,22.81,3.1h0c42,0,47.7-37.2,48.36-43.43A65.13,65.13,0,0,0,351.25,334.83Z"/><path class="cls-1" d="M368.85,336.34s-4.08,59.88-73.58,41.77C295.27,378.11,314.49,321.37,368.85,336.34Z"/><path class="cls-1" d="M250.53,268.55c-14.62-15.92-12.66-41.18-12.57-42.25l.08-.92H239c23.35,0,40,6.05,49.48,18,12.25,15.39,8,34.73,7.79,35.54l-.15.65-.66.12a79.68,79.68,0,0,1-13.48,1.24C268.62,280.89,258.05,276.74,250.53,268.55Zm36.33-24c-9-11.24-24.75-17-47-17.18-.21,4.69-.41,26.18,12.1,39.79,9.3,10.12,23.62,13.72,42.39,10.59C295,274.31,297.29,257.67,286.86,244.58Z"/><path class="cls-1" d="M295.24,278.66s12-52.27-56.28-52.27C239,226.39,233.59,289.38,295.24,278.66Z"/><path class="cls-1" d="M319.14,359.69a12.93,12.93,0,1,0,12.92-12.93A12.93,12.93,0,0,0,319.14,359.69Z"/><path class="cls-1" d="M325,359.69a7,7,0,1,0,7-7A7,7,0,0,0,325,359.69Z"/><path class="cls-1" d="M254.53,253.14a12.93,12.93,0,1,0,12.92-12.93A12.93,12.93,0,0,0,254.53,253.14Z"/><path class="cls-1" d="M260.43,253.14a7,7,0,1,0,7-7A7,7,0,0,0,260.43,253.14Z"/><path class="cls-1" d="M383.36,113.11a7,7,0,1,0,7-7A7,7,0,0,0,383.36,113.11Z"/><path class="cls-1" d="M365.94,98.5a7,7,0,1,0,7-7A7,7,0,0,0,365.94,98.5Z"/><path class="cls-1" d="M412.5,120.13s.67-44.28-52.94-43.25"/><path class="cls-1" d="M349.39,94.62S353.53,143,403,129"/><path class="cls-1" d="M437.84,763.87l3.31-2.28c-88.06-128.36,39.43-240.12,40.73-241.24C540.4,477.6,556.1,403.54,556.26,402.8l-4-.81c-.15.73-15.56,73.3-72.92,115.22C477.94,518.44,347.75,632.57,437.84,763.87Z"/><path class="cls-1" d="M441.21,721.55,445,720.1c-10.9-28.17-12.17-50.67-3.77-66.9a40,40,0,0,1,23.3-19.85c57-26.72,42.9-85,42.75-85.54l-3.89,1c.57,2.26,13.4,55.63-40.2,80.78-.32,0-16.45,4.25-25.53,21.77C428.66,668.65,429.87,692.26,441.21,721.55Z"/><path class="cls-1" d="M384.34,689.77l3.38-2.16c-23.17-36.29-30.75-68-22.53-94.25,9.65-30.82,38.26-43.08,38.54-43.2,64.28-37.57,88.57-99.68,88.81-100.3l-3.76-1.44c-.23.61-24.06,61.44-86.83,98.15-1,.4-30.39,13-40.6,45.59C352.76,619.6,360.49,652.44,384.34,689.77Z"/><path class="cls-1" d="M303.32,619.37l2.94-2.74c-43.06-46.45-19.78-77.5-19.54-77.8,34.83-40.26,34.17-74.9,34.12-76.35l-4,.12c0,.34.59,34.61-33.21,73.68C283.28,536.69,258,570.43,303.32,619.37Z"/><path class="cls-1" d="M371.86,722.11l3.08-2.57c-38.45-46.08-55.77-88.16-51.46-125.09,4.07-34.94,26.88-52.4,27.11-52.57,34.87-16.1,48.23-76.36,48.78-78.92l-3.92-.84c-.14.6-13.51,60.85-46.91,76.32-1.35,1-24.72,18.78-29,55.43C315,632,332.63,675.11,371.86,722.11Z"/><path class="cls-1" d="M419.23,501.82C474,471.64,472.4,403,472.38,402.33l-4,.13c0,.67,1.54,66.87-51.06,95.85Z"/><path class="cls-1" d="M325.79,523.37c40.61-16.36,44.91-71.74,45.07-74.09l-4-.28c0,.55-4.3,55.22-42.56,70.64Z"/><path class="cls-1" d="M427.25,664c4.59-67.93,74.35-125.34,75.06-125.91l-2.54-3.12c-.71.58-71.82,59.07-76.53,128.76Z"/><path class="cls-1" d="M383.65,554C388.24,486,458,428.62,458.7,428.05l-2.53-3.12c-.71.58-71.82,59.07-76.54,128.76Z"/><path class="cls-1" d="M389.66,755.29c21.91-66.08-6.94-142-7.23-142.76l-3.28,1.27c.29.75,28.67,75.52,7.17,140.38Z"/><path class="cls-1" d="M426.67,799c50.92-51.57,52.82-134.17,52.83-135l-4-.06c0,.82-1.91,81.82-51.67,132.23Z"/><path class="cls-1" d="M1172.7,1320s-44.23-18.31-104.53,0Z"/><path class="cls-1" d="M1173.33,1321.61s-45.48,21.83-105.79,0Z"/><path class="cls-1" d="M254.76,1656.49s-20.5-24.29-45.29-5.38C209.47,1651.11,226,1682.74,254.76,1656.49Z"/><path class="cls-1" d="M106.67,1659.57s-3.82-31.55-34.92-29.33C71.75,1630.24,68.26,1665.77,106.67,1659.57Z"/><path class="cls-1" d="M84.22,1530s16.14-27.39-9.91-44.53C74.31,1485.45,49.94,1511.56,84.22,1530Z"/><path class="cls-1" d="M77.44,1271.31s23.34-21.57,3.34-45.49C80.78,1225.82,49.92,1243.79,77.44,1271.31Z"/><line class="cls-1" x1="874.85" y1="998.6" x2="973.57" y2="879.57"/><path class="cls-1" d="M971.07,1208.67s30.76-26.13,74,16.41c0,0,11.73-20.59,64.33-11.38"/><line class="cls-1" x1="1108.57" y1="1161.44" x2="904.64" y2="1079.27"/><polygon class="cls-1" points="661.49 1314.54 299.65 1278.13 487.27 1660.31 661.49 1314.54"/><polygon class="cls-1" points="370.62 1422.69 282.88 1507.72 299.65 1278.13 370.62 1422.69"/><path class="cls-1" d="M806.23,1465s-116.59,22.4-124.64-86.17c0,0-160.81,225.16-76.38-32.16,0,0-265.35-88.44,0-100.5,0,0-120.62-205,44.22-60.31,0,0-19.23-199.85,103-33.59C752.39,1152.3,838.39,1285.83,806.23,1465Z"/><line class="cls-1" x1="705.72" y1="1278.13" x2="673.56" y2="1213.45"/><line class="cls-1" x1="661.49" y1="1278.13" x2="621.29" y2="1278.13"/><line class="cls-1" x1="729.84" y1="1213.45" x2="729.84" y2="1169.8"/><line class="cls-1" x1="689.64" y1="1350.73" x2="633.35" y2="1350.73"/><path class="cls-1" d="M736.92,1128.43s109.51,294.66-87.49,656.5c0,0,153.73,82.83,193-120.61C842.41,1664.32,909.8,1269.15,736.92,1128.43Z"/><path class="cls-1" d="M439.49,1563s-38.92-3.32-21.23,97.34c0,0,34.17,128.65-74.38,40.19,0,0-125.35-61,72.9-183.8Z"/><path class="cls-1" d="M423.67,1530.75s-455.29,261.91-24.05-52.45Z"/><path class="cls-1" d="M399.62,1478.3s-320.47,212.83-29-55.61Z"/></g></g></svg>