<?xml version="1.0" standalone="no"?>
<!DOCTYPE svg PUBLIC "-//W3C//DTD SVG 1.1//EN" "http://www.w3.org/Graphics/SVG/1.1/DTD/svg11.dtd" >
<svg xmlns="http://www.w3.org/2000/svg" xmlns:xlink="http://www.w3.org/1999/xlink" version="1.1">
<metadata>
Created by FontForge 20170731 at Tue May 21 20:05:22 2019
 By Aleksey,,,
Copyright (c) 2017 by Baptiste Bernazeau. All rights reserved.
</metadata>
<defs>
<font id="Genesis-Regular" horiz-adv-x="600" >
  <font-face 
    font-family="Genesis"
    font-weight="400"
    font-stretch="normal"
    units-per-em="1000"
    panose-1="0 0 5 0 0 0 0 0 0 0"
    ascent="800"
    descent="-200"
    x-height="507"
    cap-height="707"
    bbox="-1567.89 -263.909 1539 1017"
    underline-thickness="50"
    underline-position="-175"
    unicode-range="U+000D-00E6"
  />
<missing-glyph horiz-adv-x="146" 
 />
    <glyph glyph-name=".notdef" horiz-adv-x="146" 
 />
    <glyph glyph-name=".null" horiz-adv-x="0" 
 />
    <glyph glyph-name="nonmarkingreturn" unicode="&#xd;" horiz-adv-x="146" 
 />
    <glyph glyph-name="space" unicode=" " horiz-adv-x="405" 
 />
    <glyph glyph-name="quotesingle" unicode="'" horiz-adv-x="179" 
d="M85 696.5q22 17.5 29 17.5t16 -15.5t9 -37.5q0 -40 -25.5 -87t-65.5 -79l-2 -1q-2 0 -4 3.5t0 5.5q45 42 45 98q0 27 -12 47t-12 22q0 9 22 26.5z" />
    <glyph glyph-name="zero" unicode="0" 
d="M410 475.5q58 -34.5 90 -94t32 -132.5q0 -74 -32.5 -134t-90.5 -94.5t-132 -34.5t-132.5 34.5t-91.5 95t-33 133.5t32.5 132.5t91 94t133.5 34.5t133 -34.5zM83 156q13 -43 36 -72q11 -13 22 -13q21 0 45 42l172 294q18 32 18 45q0 14 -17 23q-31 17 -82 17
q-62 0 -109 -32t-72.5 -87.5t-25.5 -123.5q0 -50 13 -93zM384.5 36q46.5 32 72 88t25.5 125q0 51 -12.5 94t-36.5 71q-9 12 -21 12q-20 0 -44 -40l-173 -296q-18 -31 -18 -46q0 -13 15 -21q33 -19 85 -19q61 0 107.5 32z" />
    <glyph glyph-name="one" unicode="1" horiz-adv-x="716" 
d="M684 -3q1 -4 -5 -4t-32 2q-72 5 -195 5h-187q-122 0 -195 -5q-26 -2 -32 -2q-5 0 -5 4t5 7q11 6 20.5 17.5t26 45t42.5 98.5l14 35q11 28 11 44t-11 46l-29 83q-31 88 -75 123q-4 3 -5 7t5 4t32 -2q73 -5 195 -5h187q123 0 195 5q26 2 32 2q5 0 5 -4t-5 -7
q-16 -8 -34 -37.5t-55 -123.5l-14 -35q-11 -28 -11 -44t11 -46l29 -83q31 -88 75 -123q4 -3 5 -7zM343 368q0 50 -3 73t-14 33t-36 10h-33q-51 0 -77 -2.5t-38 -10t-12 -23.5q0 -13 12 -47l16 -43q16 -43 32.5 -69.5t16.5 -29.5t-13.5 -19t-29 -40.5t-29.5 -64.5l-14 -38
q-12 -30 -12 -47q0 -16 15 -23t46.5 -9t103.5 -2h17q25 0 35.5 12t13.5 43.5t3 106.5v190zM536 18.5q26 2.5 38 10t12 23.5q0 13 -12 47l-16 43q-16 43 -32.5 69.5t-16.5 29.5t13.5 19t29 40.5t29.5 64.5l14 38q12 30 12 47q0 16 -15 23t-46.5 9t-103.5 2q-26 0 -37.5 -10.5
t-14 -32.5t-2.5 -73v-189q0 -78 3 -109t13.5 -42.5t36.5 -11.5h18q51 0 77 2.5z" />
    <glyph glyph-name="two" unicode="2" 
d="M478.5 147q4.5 -1 3.5 -6l-24 -141q-1 -5 -5 -5q-2 0 -8.5 2t-27.5 3h-352v4q5 3 23 15t36 29l41 37q108 97 156 145.5t68 86t20 80.5q0 46 -33 70.5t-85 24.5q-62 0 -110.5 -38.5t-77.5 -106.5q-2 -4 -7 -3t-3 6l30 124q1 4 5 4t11 -2.5t16 -2.5q10 0 34 11
q26 12 50.5 19t58.5 7q67 0 115 -28t48 -86q0 -66 -63 -141t-193 -170l-67 -49h202q52 0 85.5 25t47.5 83q1 4 5.5 3z" />
    <glyph glyph-name="three" unicode="3" 
 />
    <glyph glyph-name="four" unicode="4" 
 />
    <glyph glyph-name="five" unicode="5" 
 />
    <glyph glyph-name="six" unicode="6" 
 />
    <glyph glyph-name="seven" unicode="7" 
 />
    <glyph glyph-name="eight" unicode="8" 
 />
    <glyph glyph-name="nine" unicode="9" 
 />
    <glyph glyph-name="A" unicode="A" horiz-adv-x="982" 
d="M880 605q1 6 1 10q0 40 -26 54.5t-78 16.5h-165q-18 0 -25.5 -4.5t-7.5 -15.5t9.5 -33t22.5 -49l189 -396q48 -101 73 -137t46 -47q4 -2 4 -6.5t-4 -4.5q-6 0 -30 2q-62 5 -163 5h-438q-100 0 -163 -5q-24 -2 -30 -2q-4 0 -4 4.5t4 6.5q19 11 44 47.5t74 139.5l191 397
q25 53 25 74q0 15 -10 19.5t-30 4.5h-137q-67 0 -109 -18t-77 -75q-3 -4 -6 -4q-7 0 -4 8l42 105q3 8 5.5 11.5t5.5 3.5q2 0 6 -4.5t19 -8.5t50 -4h644q60 0 75 8.5t17 8.5q4 0 2 -7l-31 -118q-2 -5 -6 -5q-6 0 -6 6t1 12zM692 16q62 0 85 6.5t23 31.5q0 17 -12 47.5
t-40 91.5l-209 443q-13 26 -23 38t-25 12t-23.5 -11t-22.5 -39l-211 -442q-28 -59 -40 -90.5t-12 -49.5q0 -25 23 -31.5t85 -6.5h402z" />
    <glyph glyph-name="B" unicode="B" horiz-adv-x="958" 
d="M61 705q25 0 79 -2q39 -3 78 -3h383q90 0 152 -32t62 -111q0 -54 -36 -101t-82 -78q85 -14 143.5 -57.5t58.5 -120.5q0 -94 -67.5 -147t-186.5 -53h-339q-107 0 -218 -6l-25 -1q-5 0 -5 5.5t5 5.5q20 0 33 16t20.5 69t7.5 158v270q0 71 -7.5 109.5t-21 52.5t-34.5 14
q-5 0 -5 6t5 6zM283 385h316q85 0 123 44t38 109q0 83 -49 114.5t-139 31.5h-345q-24 0 -35.5 -8t-17.5 -40t-6 -102l1 -142q44 -6 114 -7zM172 78q3 -42 13.5 -52t41.5 -10h406q60 0 107.5 21t75 60t27.5 91q0 102 -68 141.5t-185 39.5l-176 1q-43 0 -205 -3l-40 -1v-128
q0 -118 3 -160z" />
    <glyph glyph-name="C" unicode="C" horiz-adv-x="1058" 
d="M505 81q-26 -43 -26 -56q0 -10 12 -13t44 -3q157 0 247.5 18t135.5 53.5t70 95.5q2 5 6 5q2 0 4 -2t1 -6l-33 -123l-24 -9q-48 -18 -89.5 -29t-119 -19t-198.5 -8q-156 0 -262 47t-157.5 127.5t-51.5 182.5q0 109 51 193t154.5 131.5t254.5 47.5q122 0 230.5 -14.5
t223.5 -43.5q4 -1 6.5 -3t2.5 -5q0 -2 -2.5 -4t-6.5 -1l-36 3q-30 2 -40 2q-31 0 -47.5 -10.5t-35.5 -41.5zM404 28q43 0 78 57l288 484q29 51 29 72q0 12 -7.5 18.5t-23.5 11.5q-44 13 -94.5 19t-151.5 6q-135 0 -227 -46.5t-137 -122t-45 -163.5q0 -77 29 -146t91 -119.5
t157 -69.5q5 -1 14 -1z" />
    <glyph glyph-name="D" unicode="D" horiz-adv-x="1003" 
d="M480 700q230 0 344.5 -85.5t114.5 -249.5q0 -105 -46.5 -187t-141.5 -130t-236 -48h-211q-107 0 -218 -6l-25 -1q-5 0 -5 5.5t5 5.5q20 0 33 16t20.5 69t7.5 158v206q0 105 -7.5 158t-20.5 69t-33 16q-5 0 -5 5.5t5 5.5l25 -1q111 -6 218 -6h176zM183.5 674
q-10.5 -10 -13.5 -52t-3 -160v-224q0 -118 3 -160t13.5 -52t41.5 -10h264q131 0 220 44t132.5 122.5t43.5 182.5q0 159 -105.5 239t-333.5 80h-221q-31 0 -41.5 -10z" />
    <glyph glyph-name="E" unicode="E" horiz-adv-x="1020" 
d="M797 395q-10 -27 -10 -45t10 -45l52 -142q27 -74 51.5 -110t58.5 -55q5 -2 5.5 -7t-5.5 -4q-38 7 -85 10t-164 3h-468q-86 -1 -158 -6l-23 -1q-5 0 -5 5.5t5 5.5q20 0 33 16t20.5 69t7.5 158v206q0 105 -7.5 158t-20.5 69t-33 16q-5 0 -5 5.5t5 5.5l24 -1q111 -6 216 -6
h409q96 0 142.5 3t71.5 6t35 4h1q4 0 4 -4q0 -5 -5 -7q-28 -10 -42 -22.5t-28.5 -43t-40.5 -101.5zM207 684q-22 -1 -30 -15t-10.5 -56t-2.5 -151q0 -53 3.5 -71t16 -23t49.5 -5h441q52 0 82 24.5t55 93.5q7 19 8 22q24 64 32.5 91.5t8.5 45.5q0 21 -15 30t-45.5 11.5
t-98.5 2.5h-494zM181.5 340q-12.5 -7 -15 -28.5t-2.5 -92.5q0 -103 3 -140.5t14 -50t41 -12.5h451q63 0 94.5 3t46 13.5t14.5 31.5q0 17 -7 42t-24 72l-14 41q-23 68 -52.5 97t-75.5 31h-423q-38 0 -50.5 -7z" />
    <glyph glyph-name="F" unicode="F" horiz-adv-x="1022" 
d="M377 347q-47 0 -66 -5.5t-19 -28.5q0 -15 11 -45l46 -124q27 -65 56.5 -95t56.5 -36t70 -6q5 0 5 -7t-5 -7q-19 0 -40 1t-39 2q-69 4 -85 3q-80 -3 -169 -3q-5 0 -7.5 3t-2.5 6q0 4 2.5 7t6.5 3l26 -2q30 -2 47 -2q30 0 42 5.5t12 24.5q0 16 -9 47t-31 95l-153 406
q-32 85 -75 113q-4 3 -4 6q0 2 2.5 3.5t5.5 0.5q40 -7 74 -9.5t135 -2.5h445q96 0 142.5 3t71.5 6t35 4h1q4 0 4 -4q0 -5 -5 -7q-28 -10 -42 -22.5t-28.5 -43t-40.5 -101.5l-51 -140q-2 -6 -4.5 -12.5t-5.5 -15.5q-24 -58 -49 -148q-1 -7 -7 -7q-3 0 -5 2.5t-1 6.5
q18 52 18 73q0 22 -14.5 33.5t-47.5 15.5t-94 4h-215zM270 684q-57 0 -78 -7t-21 -30q0 -13 5.5 -32t18.5 -54l46 -124q13 -35 24.5 -50.5t28.5 -19.5t52 -4h31h302q52 0 82 24.5t55 93.5q7 19 8 22q24 64 32.5 91.5t8.5 45.5q0 21 -15 30t-45.5 11.5t-98.5 2.5h-436z" />
    <glyph glyph-name="G" unicode="G" horiz-adv-x="1041" 
d="M822 466q-15 -45 -15 -67q0 -20 11.5 -28t36.5 -8h113q6 0 6 -4t-6 -6q-22 -3 -30 -14.5t-8 -31.5v-154q-1 -31 3.5 -46t13.5 -24q2 -2 2 -5q0 -2 -2 -3.5t-4 -2.5l-27 -12q-50 -23 -93 -38t-112.5 -26t-165.5 -11q-156 0 -264.5 47t-162.5 128t-54 182q0 109 50 193
t153 131.5t254 47.5q122 0 231 -14.5t225 -43.5q7 -1 7 -6q0 -2 -2.5 -4t-6.5 -1q-28 2 -36 2q-33 0 -49.5 -13.5t-29.5 -54.5zM117 394q0 -15 10.5 -21t37 -8t89.5 -2h70h362q30 0 47.5 5t31.5 21t26 51l31 88q27 74 27 100q0 16 -9 24t-30 13q-124 31 -291 31
q-126 0 -212.5 -40.5t-132 -105.5t-56.5 -141q-1 -6 -1 -15zM885 283q0 30 -11.5 42t-57.5 17t-159 5h-328h-60q-69 0 -97.5 -2t-40 -10.5t-11.5 -27.5q0 -13 1 -20q8 -69 53 -132t139.5 -104.5t241.5 -41.5q184 0 298 51q19 8 25.5 22t6.5 37v164z" />
    <glyph glyph-name="H" unicode="H" horiz-adv-x="1095" 
d="M898.5 -1.5q6.5 40.5 8.5 84.5q1 25 -4 34t-19 9q-9 0 -23 -3l-559 -101q-24 -4 -48.5 -9t-50.5 -9q-82 -16 -138 -25h-2q-8 0 -8 5t9 6q38 6 52.5 23t19 64.5t4.5 168.5v212q0 103 -7 154t-20 66t-35 15q-5 0 -5 5.5t5 5.5l30 -1q28 -3 65 -3q20 0 70 2l42 2q7 0 7 -5
q0 -2 -2 -4t-5 -2q-42 0 -61.5 -11t-24.5 -24.5t-8 -39.5q-2 -12 -2 -28q0 -12 3 -16t11 -4q3 0 19 2l572 103q24 4 48.5 9t50.5 9q82 16 138 25h2q8 0 8 -5q0 -4 -9 -6q-38 -6 -52.5 -23t-19 -64.5t-4.5 -168.5v-268q0 -79 -4 -119t-18.5 -73.5t-48.5 -81.5q-5 -7 -9 -6.5
t-2 6.5q18 49 24.5 89.5zM219 555q-19 -3 -26 -8.5t-9.5 -22.5t-2.5 -61q0 -55 2.5 -74t11 -24t32.5 -5h644q23 0 31 7t10.5 37t2.5 112q0 65 -3 95t-14 43t-35 13q-20 0 -52 -6zM867 140q25 4 34 10t11.5 22.5t2.5 61.5q0 58 -2.5 78.5t-10 26t-30.5 5.5h-647
q-23 0 -31 -7.5t-10.5 -38t-2.5 -117.5q0 -64 3.5 -94.5t15.5 -43.5t37 -13q21 0 52 6z" />
    <glyph glyph-name="I" unicode="I" horiz-adv-x="995" 
d="M288 0q-122 0 -195 -5q-26 -2 -32 -2q-5 0 -5 4t5 7q18 10 37 40t52 121l51 140q11 30 11 45q0 17 -11 45l-52 142q-26 72 -47 108t-41 51q-4 3 -5 7t5 4t32 -2q72 -5 195 -5h419q123 0 195 5q26 2 32 2q5 0 5 -4t-5 -7q-18 -10 -37 -40t-52 -121l-51 -140
q-10 -27 -10 -45t10 -45l52 -142q26 -72 47 -108t41 -51q4 -3 5 -7t-5 -4t-32 2q-72 5 -195 5h-419zM250.5 393.5q16.5 -26.5 16.5 -29.5t-13.5 -19t-29 -40.5t-29.5 -64.5l-8 -21q-27 -73 -37 -105t-10 -52q0 -22 15 -31.5t45 -12t97 -2.5h127q26 0 36 16.5t13 66.5t3 179
v170q0 113 -3 159t-13.5 61.5t-36.5 15.5h-98h-40q-54 0 -79.5 -2t-38 -10t-12.5 -25q0 -14 7.5 -36.5t24.5 -65.5l31 -82q16 -43 32.5 -69.5zM744.5 306.5q-16.5 26.5 -16.5 29.5t13.5 19t29 40.5t29.5 64.5l8 21q27 73 37 105t10 52q0 22 -15 31.5t-45 12t-97 2.5h-123
q-27 0 -38 -16t-13.5 -60t-2.5 -160v-169q0 -132 3 -181.5t13 -65.5t37 -16h96h64q59 0 80 6.5t21 31.5q0 17 -8.5 44.5t-29.5 82.5l-20 56q-16 43 -32.5 69.5z" />
    <glyph glyph-name="J" unicode="J" horiz-adv-x="994" 
d="M644 520q95 16 131 26t45 24t9 49q0 33 -10.5 45.5t-44.5 16t-125 3.5h-375q-45 0 -76 -6t-58.5 -25.5t-51.5 -59.5q-3 -4 -6 -4q-7 0 -4 8l42 105q3 8 5.5 11.5t5.5 3.5q2 0 6 -4.5t19 -8.5t50 -4h648q17 -1 58 2q18 2 24 2q5 0 5 -5.5t-5 -5.5q-25 0 -39 -28.5
t-20 -106.5h2l-2 -3q-3 -48 -3 -118l1 -320q0 -86 -14.5 -134t-53.5 -104q-5 -7 -9 -6.5t-2 6.5q19 49 26 93t7 106q0 18 -4 26t-14 8q-8 0 -23 -6q-173 -66 -322 -99t-264 -38h-14q-23 0 -23 4t12 6.5t33 4.5q9 1 20 2.5t25 3.5q30 3 30 24q0 12 -14 38q-32 56 -60 131.5
t-46 150.5q-13 52 -25.5 68.5t-36.5 16.5q-14 0 -35 -3h-3q-4 0 -7 2t-3 4q0 3 8 5q235 35 581 93zM245 197.5q21 -66.5 58 -127.5q19 -33 36.5 -48t44.5 -15q5 0 19 2q73 11 193.5 49t206.5 76q14 6 20 19t6 42v263q0 26 -2.5 38.5t-13.5 19t-34 6.5q-34 0 -133 -17
l-362 -60q-33 -5 -49 -10t-22.5 -14t-6.5 -27q0 -14 5 -46q13 -84 34 -150.5z" />
    <glyph glyph-name="K" unicode="K" horiz-adv-x="1034" 
d="M445 454q22 -22 38 -32t32 -10q24 0 54.5 24t100.5 91l19 18l23 22q85 81 85 105q0 9 -9.5 12.5t-28.5 3.5q-10 0 -10 7q0 9 9 9l32 -1l84 -3q30 0 57.5 2t33.5 2t6 -5q0 -6 -8 -7q-65 -9 -110.5 -33t-104.5 -83l-28 -28q-95 -95 -125 -130t-30 -59q0 -13 7.5 -25
t23.5 -28l212 -209q49 -49 92 -70.5t70 -23.5q8 0 8 -7q0 -6 -7 -6q-22 0 -94 4q-96 6 -170 6h-468q-87 -1 -157 -6l-23 -1q-5 0 -5 5.5t5 5.5q20 0 33 16t20.5 69t7.5 158v305q0 80 -1.5 117t-7 57t-18.5 35q-1 1 -1 4t2.5 4.5t6.5 -0.5l25 -19q44 -33 72.5 -56t60.5 -55z
M161 251q0 -126 4 -170t16.5 -54.5t51.5 -10.5h494q53 0 70 1.5t17 7.5q0 5 -20 25l-593 590q-18 18 -27 18q-13 0 -13 -41v-366z" />
    <glyph glyph-name="L" unicode="L" horiz-adv-x="1016" 
d="M963.5 -9q0.5 -5 -5.5 -4q-38 7 -85 10t-164 3h-468q-87 -1 -157 -6l-23 -1q-5 0 -5 5.5t5 5.5q20 0 33 16t20.5 69t7.5 158v346q0 53 -17.5 75t-43.5 22q-5 0 -5 6t5 6t24.5 -1t57.5 -1l79 1q10 1 21 1q5 0 5 -6t-5 -6q-25 0 -42 -9t-27.5 -37.5t-10.5 -83.5v-322
q0 -117 2.5 -156t13.5 -52.5t42 -13.5q35 0 85.5 26t124.5 78l234 164q78 54 78 95q0 55 16 103q2 5 6.5 4t2.5 -6q-3 -15 -3 -33q0 -59 31 -142l52 -142q27 -74 51.5 -110t58.5 -55q5 -2 5.5 -7zM766.5 19q31.5 3 46 13.5t14.5 31.5q0 17 -7 42t-24 72l-14 41l-20 59
q-7 20 -26 20q-25 0 -83 -42l-196 -138q-74 -52 -74 -76q0 -26 97 -26h192q63 0 94.5 3z" />
    <glyph glyph-name="M" unicode="M" horiz-adv-x="1186" 
d="M201.5 722q15.5 -18 27 -33.5t14.5 -19.5q18 -24 36.5 -33.5t48.5 -9.5q28 0 57 4l449 55q107 12 170 22l38 5h1q6 0 6 -5t-7 -6q-13 -3 -28 -16q-14 -13 -14 -42q0 -22 4 -47l53 -384q11 -84 24.5 -128.5t24 -58.5t24.5 -22q5 -3 3 -6t-6 -2q-30 5 -94 5h-45h-777h-48
q-74 0 -104 -5h-1q-4 0 -5 2.5t3 5.5q17 9 30.5 25t30.5 68.5t31 152.5l36 265q1 7 5.5 43.5t4.5 70.5q0 53 -13 79q-9 19 -25 41q-1 1 -1 3q0 4 3 5t7 -1q21 -15 36.5 -33zM342 610q-17 -2 -24.5 -7t-7.5 -13t12 -34l192 -403l15 -31q33 -69 45 -88.5t25 -19.5
q18 0 36.5 28t45.5 86l233 486q21 44 21 54q0 9 -15 9q-14 0 -39 -3zM294 512q-29 60 -42 83t-21 23t-13.5 -24t-13.5 -85l-33 -242q-20 -145 -20 -191q0 -28 5.5 -41t17 -17t33.5 -4h275q16 0 23.5 4.5t7.5 15.5q0 13 -10.5 38t-37.5 82l-10 21zM978 14q19 0 28.5 3.5
t14.5 14.5t5 35q0 33 -16 156l-39 282q-9 63 -14 85.5t-13 22.5t-21 -22t-42 -82l-168 -349q-44 -94 -44 -122q0 -15 9 -19.5t27 -4.5h273z" />
    <glyph glyph-name="N" unicode="N" horiz-adv-x="1036" 
d="M904.5 -7.5q-34.5 21.5 -98.5 73.5q-20 16 -30.5 21.5t-23.5 5.5q-10 0 -37 -5l-437 -78q-69 -13 -180 -36l-33 -7h-3q-6 0 -6 5t8 6q30 5 46 26t23 68t7 132v280q0 78 -7.5 122.5t-22.5 67.5t-42 37q-5 2 -3.5 5t7.5 2q28 -5 63 -26t93 -71q19 -17 30 -23.5t24 -6.5
q6 0 30 4l446 80q69 13 180 36l33 7h3q7 0 7 -4t-9 -7q-28 -6 -44.5 -28.5t-24 -69.5t-7.5 -128v-280q0 -78 7.5 -122.5t22.5 -67.5t42 -37q5 -2 3.5 -5t-7.5 -2q-25 4 -59.5 25.5zM371 587q-38 -7 -50 -11t-12 -11q0 -6 11.5 -18t40.5 -38l467 -410q14 -12 24 -20t15 -8
q6 0 7 10.5t1 42.5v392q0 64 -3.5 92.5t-16 41.5t-40.5 13q-22 0 -79 -10zM209 583q-14 13 -24.5 21t-15.5 8q-6 0 -7 -10t-1 -41v-392q0 -63 3.5 -91.5t16.5 -41.5t42 -13q28 0 88 11l332 59q48 9 65 14t17 14q0 8 -11 19t-39 36z" />
    <glyph glyph-name="O" unicode="O" horiz-adv-x="855" 
d="M110 532.5q46 83.5 129 132.5t189 49q105 0 187.5 -48.5t129 -132.5t46.5 -184t-46.5 -183.5t-129 -132t-187.5 -48.5t-188 48.5t-129.5 132t-46.5 183.5t46 183.5zM268 62.5q80 -54.5 172 -54.5q69 0 138 33q86 42 131 116.5t45 163.5q0 84 -39 165q-46 95 -126.5 150.5
t-173.5 55.5q-70 0 -139 -34q-86 -42 -131 -115.5t-45 -162.5q0 -84 41 -168q47 -95 127 -149.5z" />
    <glyph glyph-name="P" unicode="P" horiz-adv-x="867" 
d="M298 0q10 0 10 7q0 3 -2.5 5t-6.5 2l-26 -1q-30 -2 -47 -2q-31 0 -41.5 12.5t-14 62.5t-3.5 187q0 20 22 30t58 10h306q119 0 186.5 53.5t67.5 148.5q0 74 -39 114.5t-108.5 55.5t-175.5 15h-180q-107 0 -218 6l-25 1q-5 0 -5 -5.5t5 -5.5q20 0 33 -16t20.5 -69t7.5 -158
v-206q0 -105 -7.5 -158t-20.5 -69t-33 -16q-5 0 -5 -5.5t5 -5.5l26 2q60 5 102 5h109zM264 330q-56 0 -76.5 5.5t-20.5 25.5v101q0 118 3 160t13.5 52t41.5 10h265q123 0 192 -39.5t69 -141.5q0 -52 -27.5 -91t-75 -60.5t-107.5 -21.5h-277z" />
    <glyph glyph-name="Q" unicode="Q" horiz-adv-x="920" 
d="M771 158q-5 -9 -18 -30q-2 -3 -7 -11.5t-5 -15.5t5.5 -16t20.5 -24q17 -18 36 -30.5t58 -26.5q5 -1 5 -5q0 -2 -2 -4t-6 -1q-27 7 -54 7l-14 -1q-43 -4 -57 -7h-1q-4 0 -5 3.5t4 5.5q15 6 15 13q0 9 -21 30q-8 8 -14.5 13t-11.5 5t-12.5 -4t-15.5 -9t-15 -10
q-33 -22 -83 -38.5t-114 -16.5q-105 0 -188 48.5t-129.5 132t-46.5 183.5q0 103 53 195l16 25q2 3 8 13.5t6 18.5q0 7 -6 16t-20 24q-16 18 -34.5 29.5t-57.5 25.5q-5 1 -5 5q0 6 8 4q40 -5 69 -5q35 0 55 4h3q5 0 6 -3t-5 -6q-7 -3 -11.5 -6t-4.5 -7q0 -6 19 -25l8.5 -8.5
t10.5 -9t7 -2.5q6 0 23 11q3 2 20 13q40 25 90.5 39t105.5 14q106 0 188.5 -49t128.5 -132.5t46 -183.5q0 -99 -51 -191zM258.5 633.5q-13.5 -9.5 -13.5 -19.5q0 -8 7.5 -18t23.5 -26l398 -408q13 -14 24 -23.5t18 -9.5q8 0 15.5 11t23.5 40q33 66 33 140q0 80 -40 168
q-44 95 -124.5 150.5t-174.5 55.5q-75 0 -142 -34q-35 -17 -48.5 -26.5zM298 61q82 -55 176 -55q65 0 138 33q39 19 53.5 30t14.5 21q0 6 -6.5 14.5t-13.5 15.5l-12 12l-398 408q-7 7 -18 18.5t-17.5 16t-11.5 4.5q-8 0 -16 -12t-23 -45q-33 -74 -33 -149q0 -82 39 -163
q46 -94 128 -149z" />
    <glyph glyph-name="R" unicode="R" horiz-adv-x="1035" 
d="M119.5 29.5q23.5 20.5 39.5 80.5l84 311q12 46 17 69.5t5 44.5q0 24 -8 43.5t-27 37.5q-33 31 -66.5 48t-100.5 32q-5 0 -5 5.5t5 5.5l24 -1q108 -6 215 -6h359q107 0 179.5 -40.5t72.5 -133.5q0 -89 -61 -144.5t-203 -55.5q-26 0 -37.5 -2.5t-11.5 -8.5q0 -9 20 -28
l192 -190q49 -49 92 -70.5t70 -23.5q8 0 8 -7q0 -6 -7 -6q-22 0 -94 4q-96 6 -170 6h-468q-87 -1 -157 -6l-23 -1q-7 0 -7 6q0 7 7 7q33 3 56.5 23.5zM275 684q-38 0 -38 -11q0 -9 21 -28l239 -237q29 -29 49 -42t36.5 -17t42.5 -4q86 0 137.5 15t75.5 50.5t24 97.5
q0 176 -232 176h-355zM368 477q-40 40 -59 40q-14 0 -24 -20.5t-23 -70.5l-77 -287q-14 -51 -14 -76q0 -27 15 -37t51 -10h494q53 0 70 1.5t17 7.5q0 5 -20 25z" />
    <glyph glyph-name="S" unicode="S" horiz-adv-x="975" 
d="M181 676.5q92 37.5 263 37.5q116 0 219.5 -16.5t232.5 -48.5q7 -1 7 -5t-9 -6q-19 -3 -36.5 -17.5t-38.5 -50.5l-99 -182q-12 -21 -12 -31t11 -17t39 -16q157 -52 157 -150q0 -119 -114.5 -157.5t-283.5 -38.5q-122 0 -230.5 14.5t-224.5 43.5q-7 1 -7 5q0 5 9 6
q46 7 80 67l93 164l20 36q13 23 22 40t9 25t-7 12.5t-27 11.5q-79 27 -122 63t-43 85q0 88 92 125.5zM226 457q99 -41 250 -70l38 -7q49 -10 85.5 -16.5t53.5 -6.5q19 0 28 6.5t19 24.5l69 128q19 33 27.5 54t8.5 35q0 19 -17.5 31t-59.5 25q-122 36 -284 36
q-168 0 -242.5 -34t-74.5 -105q0 -60 99 -101zM453 350q-40 8 -70.5 13.5t-45.5 5.5q-18 0 -27.5 -6.5t-19.5 -24.5l-95 -171q-20 -35 -29.5 -56t-9.5 -35q0 -18 17 -29t57 -21q132 -31 290 -31q141 0 249.5 34.5t108.5 128.5q0 53 -41.5 84.5t-103.5 48.5t-177 39z" />
    <glyph glyph-name="T" unicode="T" horiz-adv-x="1036" 
d="M785 686q-31 0 -46.5 -7.5t-33.5 -26.5l-114 -122q-29 -31 -44 -65.5t-15 -89.5v-191q0 -80 3 -112t14.5 -44.5t39.5 -13.5q82 0 132 18t85 76q1 4 6 4q3 0 5 -2.5t0 -6.5l-42 -105q-3 -8 -5.5 -11.5t-5.5 -3.5q-2 0 -6 4.5t-19 8.5t-50 4h-371q-60 0 -75 -8.5t-17 -8.5
q-4 0 -2 7l31 118q2 5 6 5q3 0 5 -2t1 -5q-2 -16 -2 -21q0 -40 26 -54.5t78 -16.5h48q34 0 47.5 11t18 44.5t4.5 114.5v192q0 57 -12 86t-46 63l-119 120q-26 27 -41 34t-43 7h-42q-33 0 -58.5 -19.5t-58.5 -74.5q-1 -4 -6 -4q-3 0 -5 2.5t0 6.5l42 105q3 8 5.5 11.5
t5.5 3.5q2 0 6 -4.5t19 -8.5t50 -4h701q60 0 75 8.5t17 8.5q4 0 2 -7l-31 -118q-2 -5 -6 -5q-2 0 -4.5 2t-1.5 5q2 16 2 21q0 40 -26 54.5t-78 16.5h-49zM443 686q-56 0 -75 -2t-19 -11q0 -6 17 -25l107 -110q28 -30 49 -30q13 0 27 9t34 30l89 94q17 17 17 28t-21.5 14
t-73.5 3h-151z" />
    <glyph glyph-name="U" unicode="U" horiz-adv-x="987" 
d="M867 288q0 -157 -92.5 -228.5t-286.5 -71.5q-351 0 -351 311v218q0 74 -6 110.5t-21.5 53.5t-48.5 26q-7 3 -7 6t4 4.5t9 0.5q136 -35 232 -58l428 -102q60 -15 78 -15q21 0 27 15.5t6 58.5q0 45 -22.5 60.5t-69.5 15.5q-3 0 -5 2t-2 4q0 5 7 5l42 -2q48 -2 69 -2
q28 0 49 3l23 1q5 0 5 -5.5t-5 -5.5q-22 0 -34.5 -14.5t-20 -62.5t-7.5 -146v-182zM763.5 77q82.5 66 82.5 221v94q0 60 -6 84t-27.5 36t-78.5 26l-367 87q-98 24 -130 24q-24 0 -36 -11t-15.5 -35.5t-3.5 -72.5v-225q0 -148 83 -221t250 -73q166 0 248.5 66z" />
    <glyph glyph-name="V" unicode="V" horiz-adv-x="983" 
d="M102 95q-1 -6 -1 -10q0 -40 26 -54.5t78 -16.5h165q18 0 25.5 4.5t7.5 15.5t-9.5 33t-22.5 49l-189 396q-48 101 -73 137t-46 47q-4 2 -4 6.5t4 4.5q6 0 30 -2q63 -5 163 -5h438q100 0 163 5q24 2 30 2q4 0 4 -4.5t-4 -6.5q-19 -11 -44 -47.5t-74 -139.5l-191 -397
q-25 -53 -25 -74q0 -15 10 -19.5t30 -4.5h137q67 0 109 18t77 75q3 4 6 4q7 0 4 -8l-42 -105q-3 -8 -5.5 -11.5t-5.5 -3.5q-2 0 -6 4.5t-19 8.5t-50 4h-644q-60 0 -75 -8.5t-17 -8.5q-4 0 -2 7l31 118q2 5 6 5q6 0 6 -6t-1 -12zM205 677.5q-23 -6.5 -23 -31.5
q0 -17 12 -47.5t40 -91.5l191 -402q23 -50 35.5 -70.5t26.5 -20.5q26 0 69 91l192 401q28 59 40 90.5t12 49.5q0 25 -23 31.5t-85 6.5h-402q-62 0 -85 -6.5z" />
    <glyph glyph-name="W" unicode="W" horiz-adv-x="1382" 
d="M1256 705q24 2 30 2q4 0 4 -4.5t-4 -6.5q-19 -11 -44 -47.5t-74 -139.5l-191 -397q-25 -53 -25 -74q0 -15 10 -19.5t30 -4.5h137q67 0 109 18t77 75q3 4 6 4q7 0 4 -8l-42 -105q-3 -8 -5.5 -11.5t-5.5 -3.5q-2 0 -6 4.5t-19 8.5t-50 4h-1043q-60 0 -75 -8.5t-17 -8.5
q-4 0 -2 7l31 118q2 5 6 5q3 0 5 -2t1 -5q-2 -16 -2 -21q0 -40 26 -54.5t78 -16.5h165q18 0 25.5 4.5t7.5 15.5t-9.5 33t-22.5 49l-189 396q-48 101 -73 137t-46 47q-4 2 -4 6.5t4 4.5q6 0 30 -2q63 -5 163 -5h837q101 0 163 5zM520 38q16 24 36 67l72 150q15 30 21 48t6 31
q0 11 -4.5 23t-10.5 26l-118 253q-13 29 -31.5 38.5t-56.5 9.5h-144q-62 0 -85 -6.5t-23 -31.5q0 -17 12 -47.5t40 -91.5l191 -402q42 -91 62 -91q17 0 33 24zM595 684q-18 0 -25.5 -3.5t-7.5 -13.5t7 -25l98 -210q13 -28 23 -28t24 29l97 202q9 20 9 30q0 11 -8.5 15
t-25.5 4h-191zM915 684q-28 0 -49.5 -11t-35.5 -41l-90 -185q-16 -34 -23 -53t-7 -33q0 -16 13 -45l101 -211q42 -91 63 -91q17 0 32 23t36 68l192 401q28 59 40 90.5t12 49.5q0 25 -23 31.5t-85 6.5h-176zM769 14q18 0 25.5 4.5t7.5 15.5t-9.5 33t-22.5 49l-75 157
q-10 22 -19 22t-23 -29l-75 -154q-25 -53 -25 -74q0 -15 10 -19.5t30 -4.5h176z" />
    <glyph glyph-name="X" unicode="X" horiz-adv-x="937" 
d="M399 331.5q6 9.5 6 21.5t-7.5 23.5t-22.5 26.5l-139 141q-109 112 -176 152q-4 2 -4 6.5t4 4.5q5 0 29 -2q65 -5 162 -5h388q97 0 162 5q24 2 29 2q4 0 4 -4.5t-4 -6.5q-3 -2 -23.5 -13.5t-59 -46t-86.5 -86.5l-133 -142q-22 -24 -22 -40q0 -18 37 -53l148 -150
q126 -127 188 -161q4 -2 4 -6.5t-4 -4.5q-6 0 -32 2q-70 5 -171 5h-412q-101 0 -171 -5q-26 -2 -32 -2q-4 0 -4 4.5t4 6.5q31 17 68.5 46.5t110.5 108.5l141 151q12 12 18 21.5zM282 684q-60 0 -82 -2.5t-22 -12.5q0 -9 13.5 -24t51.5 -52l34 -33l142 -144q15 -15 25 -21.5
t20 -6.5q12 0 24.5 8.5t31.5 28.5l124 129q14 14 34 36q37 38 50 53t13 24q0 11 -22 14t-82 3h-355zM229 124q-42 -44 -57.5 -62t-15.5 -28q0 -12 23 -15t87 -3h376q64 0 87.5 3t23.5 14q0 9 -13 23.5t-53 54.5l-39 38l-149 153q-28 30 -49 30q-13 0 -27 -9t-34 -30
l-130 -138z" />
    <glyph glyph-name="Y" unicode="Y" horiz-adv-x="931" 
d="M174 0q-60 0 -75 -8.5t-17 -8.5q-4 0 -2 7l31 118q2 5 6 5q3 0 5 -2t1 -5q-2 -16 -2 -21q0 -41 26.5 -56t77.5 -15h148q34 0 47.5 11t18 44.5t4.5 114.5v52q0 57 -12 86t-46 63l-148 150q-138 139 -178 161q-4 2 -4 6.5t4 4.5q6 0 30 -2q63 -5 163 -5h412q100 0 163 5
q24 2 30 2q4 0 4 -4.5t-4 -6.5q-23 -13 -58.5 -43.5t-110.5 -111.5l-141 -151q-29 -31 -44 -65.5t-15 -89.5v-51q0 -83 3.5 -115t16.5 -43.5t46 -11.5h91q82 0 132 18t85 76q1 4 6 4q3 0 4.5 -3t0.5 -6l-42 -105q-3 -8 -5.5 -11.5t-5.5 -3.5q-2 0 -6 4.5t-19 8.5t-50 4h-571
zM200.5 681.5q-20.5 -2.5 -20.5 -12.5q0 -8 12.5 -23t43.5 -47l197 -201q15 -16 26 -23t22 -7q12 0 25 9t33 30l130 138q50 52 71.5 78.5t21.5 39.5q0 14 -21.5 17.5t-78.5 3.5h-386q-55 0 -75.5 -2.5z" />
    <glyph glyph-name="Z" unicode="Z" horiz-adv-x="995" 
d="M192 0q-72 0 -127 -21q-2 -1 -6 -1q-6 0 -6 4t6 6q17 9 49 33t47 38l191 178q19 17 19 34q0 13 -8 31t-27 49l-97 158q-37 60 -70 120q-21 37 -29.5 49.5t-18.5 17.5q-4 2 -4 6.5t4 4.5q6 0 30 -2q63 -5 163 -5h494q47 0 72 3t42 9q2 1 6 1q6 0 6 -4t-6 -6
q-30 -15 -79 -62l-138 -131q-14 -13 -20 -21.5t-6 -20.5q0 -13 8 -32t26 -53l105 -192q65 -118 83.5 -148.5t34.5 -38.5q4 -2 4 -6.5t-4 -4.5q-6 0 -30 2q-62 5 -163 5h-551zM795 667q0 17 -51 17h-434q-62 0 -89 -9t-27 -36q0 -19 14.5 -51t45.5 -82l78 -126
q31 -51 43.5 -67t24.5 -16q10 0 23 13l346 321q26 24 26 36zM690 391q-30 55 -48 55q-6 0 -13 -4.5t-14 -11.5l-384 -361q-15 -14 -22 -22.5t-7 -15.5q0 -15 48 -15h491q61 0 86 8t25 34q0 20 -13 52t-42 84z" />
    <glyph glyph-name="a" unicode="a" horiz-adv-x="650" 
d="M147 225q0 25 -28 70l-26 40q-19 31 -38 45t-19 17q0 2 9 8.5t13 8.5q62 39 129.5 67.5t122.5 28.5q111 0 155.5 -53t44.5 -151v-159v-63q0 -23 2 -29.5t10 -6.5q14 0 35 21t40 51q2 3 5 3q5 0 9.5 -5t2.5 -9q-20 -33 -107 -100q-30 -24 -41 -31t-16 -4q-2 2 7.5 25
t9.5 79v14q0 22 -13 22q-9 0 -26 -10q-81 -46 -150.5 -71t-153.5 -46l-48 -13q-2 -1 -6 -1q-9 0 -4 9q21 38 45.5 110t31.5 105q4 20 4 28zM214.5 467.5q-44.5 -14.5 -73 -41.5t-28.5 -63q0 -27 17 -55q19 -33 34.5 -45.5t32.5 -12.5q6 0 18 2q14 2 68 13q82 16 114 21
t47 11t19 14.5t4 25.5q0 68 -42 106.5t-119 38.5q-47 0 -91.5 -14.5zM280 51.5q73 27.5 130 68t57 79.5v59q0 9 -5.5 13t-19.5 4q-15 0 -25 -2q-92 -15 -180 -34q-18 -4 -29 -12t-23 -31.5t-26 -73.5q-16 -54 -16 -75q0 -14 6.5 -18.5t22.5 -4.5q35 0 108 27.5z" />
    <glyph glyph-name="b" unicode="b" horiz-adv-x="606" 
d="M73.5 44.5q6.5 16.5 8 30t1.5 43.5v619q0 26 -3 42.5t-3 21.5q0 4 2 5t7 1q4 0 22 -4q45 -12 105 -16l44 -2q86 -6 146 -6l34 1q10 1 30 1q8 0 8 -4q0 -3 -18 -27.5t-30 -58.5l-125 -369q-15 -43 -15 -58q0 -13 9.5 -16.5t34.5 -3.5q39 -1 159 -12l68 -7q11 -2 11 -7
q0 -1 -4 -9q-20 -33 -52.5 -110.5t-33.5 -99.5q0 -6 -1 -9.5t-5 -3.5t-19 3.5t-35 7.5q-88 17 -144 30q-14 3 -33 7.5t-46 9.5q-23 5 -38 5q-24 0 -45 -12t-46 -42q-6 -9 -14 -9q-5 0 -5 5q0 3 3 9q16 28 22.5 44.5zM134 253q8 -8 35 -8q9 0 47 2q24 1 34.5 5.5t16.5 17
t18 47.5q4 14 7 21l105 312q13 38 13 61q0 15 -9 31q-5 11 -42 16.5t-147 12.5q-9 1 -23 1q-39 0 -51 -14t-12 -52v-420q0 -25 8 -33zM126 102q0 -27 50 -37l95 -21q119 -27 141 -27q11 0 20.5 9t22 34t31.5 75q11 30 11 44t-9 22t-26 12q-30 7 -84 12t-105 5l-30 -1
q-52 -2 -76 -6t-32.5 -12.5t-8.5 -26.5v-82z" />
    <glyph glyph-name="c" unicode="c" horiz-adv-x="595" 
d="M555 145q0 4 -2.5 4t-6.5 -4q-6 -6 -37 -42.5t-75 -58t-96 -21.5q-8 0 -12 2.5t-4 8.5q0 13 19 55l125 281q22 50 38 67t41 21q10 2 10 7t-8 7q-73 20 -126 29t-107 9q-76 0 -137 -37.5t-95.5 -99.5t-34.5 -133q0 -75 32 -132.5t88 -89t128 -31.5q91 0 156 47t100 101
q4 5 4 10zM418 478q43 -17 43 -57q0 -18 -10 -41l-144 -324q-14 -29 -41 -29q-9 0 -20 3q-42 10 -77.5 41t-56 79.5t-20.5 105.5q0 66 29 120.5t79.5 86t111.5 31.5q63 1 106 -16z" />
    <glyph glyph-name="d" unicode="d" horiz-adv-x="664" 
d="M94 112.5q32 89.5 34 115.5q1 11 3 14t17 4.5t40 4.5q81 12 111 18q13 3 19 8.5t6 15.5q0 9 -5 26.5t-10.5 32.5t-8.5 24l-86 252q-29 85 -55 117t-26 34t11 2q38 -2 60 -2q60 0 146 6l44 2q58 3 105 16q20 4 22 4q5 0 7 -1t2 -5q0 -5 -3 -21.5t-3 -42.5v-590v-63
q0 -23 2 -29.5t10 -6.5q14 0 35 21t40 51q2 3 5 3q5 0 9.5 -5t2.5 -9q-20 -33 -107 -100q-30 -24 -41 -31t-16 -4q-2 2 7.5 25t9.5 79v14q0 22 -14 22q-8 0 -26 -9q-80 -44 -156.5 -68.5t-170.5 -46.5q-54 -13 -65 -16q-2 -1 -6 -1q-9 0 -4 9q23 41 55 130.5zM196 736
q0 -7 5.5 -24t11.5 -33t9 -25l90 -258q17 -48 27 -71t19.5 -31.5t22.5 -8.5l9 1q44 6 62.5 12.5t23.5 18t5 38.5v351q0 38 -12 52t-51 14q-14 0 -23 -1q-112 -8 -149 -12.5t-46 -11.5q-4 -3 -4 -11zM481 258q0 8 -6 12.5t-23 4.5q-6 0 -42 -4q-69 -9 -180 -30q-6 -2 -20 -4
q-18 -4 -28 -10.5t-21 -29.5t-29 -75q-19 -56 -19 -75q0 -15 7.5 -19t24.5 -4q43 0 125.5 24t146.5 63.5t64 87.5v59z" />
    <glyph glyph-name="e" unicode="e" horiz-adv-x="569" 
d="M372 268q-21 27 -21 41q0 12 14.5 16.5t43.5 4.5q36 0 49.5 2t17 8.5t3.5 24.5q0 39 -20.5 72t-61 53t-96.5 20q-69 0 -127.5 -38t-92.5 -103.5t-34 -142.5q0 -70 33 -124.5t88 -84.5t119 -30q130 0 244 131q3 5 3 7q0 5 -4.5 6.5t-9.5 -1.5q-16 -8 -23 -8t-13.5 5.5
t-16.5 19.5zM374.5 473.5q28.5 -15.5 41.5 -37.5t13 -42q0 -23 -15.5 -32t-59.5 -11q-124 -7 -200 -7q-18 0 -26 3t-8 10q0 4 3.5 11t4.5 10q28 53 73 82t101 29q44 0 72.5 -15.5zM107 313.5q13 16.5 43 16.5h55q50 0 71 -3.5t35 -15.5t40 -46l82 -107q15 -19 22.5 -32.5
t7.5 -24.5q0 -13 -12 -25q-24 -23 -67 -36.5t-83 -13.5q-57 0 -104.5 28t-75 78.5t-27.5 113.5q0 51 13 67.5z" />
    <glyph glyph-name="f" unicode="f" horiz-adv-x="485" 
d="M515 769l-2 -9l-30 -81l-210 -583q-7 -21 -7 -31q0 -31 47 -35q45 -4 72 -4q23 0 43 5q3 1 7 1t4 -2t-5 -7q-32 -25 -92 -25h-81q-20 0 -35 -3t-21 -4h-5q3 4 12.5 19t22 41t23.5 56l161 444q34 94 34 142q0 33 -15 51q-12 16 -41 22.5t-76 6.5q-76 0 -112.5 -44
t-36.5 -143v-630q0 -81 -18.5 -132t-52.5 -85q-4 -4 -6 -2.5t0 5.5q14 23 21 43.5t11 58t4 102.5v29q0 14 -6 19.5t-19 5.5h-65q-6 0 -6 4t6 5l26 5q30 6 43.5 15.5t17 25t3.5 47.5v484q0 204 177 204q24 0 94 -8l45 -5t61 -4q7 0 7 -4z" />
    <glyph glyph-name="g" unicode="g" horiz-adv-x="721" 
d="M52 53q17 6 28 18q11 13 14.5 37t3.5 98v100q0 111 52 157.5t172 46.5q40 0 107 -5q115 -5 138 -5h40q31 0 42.5 5t13.5 5q3 0 3 -3t-4 -10q-12 -23 -66 -31q-16 -2 -21 -9t-13 -34l-10 -33q-30 -98 -46 -154q-10 -35 -10 -46q0 -12 9 -21.5t32 -21.5q28 -16 28 -18
t-6 -2q-7 0 -13 1q-58 8 -146 41q-57 21 -155 68l-55 26q-20 11 -33 11q-22 0 -23 -28l-1 -25q-3 -42 -3 -71q0 -35 5 -55.5t17 -32.5q15 -15 73.5 -20.5t151.5 -5.5q118 0 182.5 -7.5t94 -28t29.5 -59.5q0 -48 -54 -87.5t-138 -62.5t-169 -23q-77 0 -138 5.5t-145 18.5
q-12 1 -12 7q0 4 12 6q39 2 59 17t36 55q7 18 22 62q7 25 11 34q4 11 4 19q0 11 -8 17t-25 10q-42 9 -72 13q-18 2 -25 4.5t-6 6.5q0 4 17 10zM153.5 313q13.5 -15 57.5 -37q156 -78 209 -78q15 0 26 9t19 34q6 18 27 89l22 77q10 35 10 45t-5 15t-17 9q-28 8 -73 12t-90 4
q-199 0 -199 -139q0 -25 13.5 -40zM151 -154q0 -14 7.5 -22.5t25.5 -14.5q57 -20 138 -20q77 0 152.5 17t124.5 49.5t49 74.5q0 44 -67.5 57.5t-197.5 13.5q-81 0 -137 4q-21 2 -35 -7.5t-23 -33.5q-18 -46 -31 -87q-6 -20 -6 -31z" />
    <glyph glyph-name="h" unicode="h" horiz-adv-x="672" 
d="M42 12q38 0 60 19t22 72v634q0 26 -3 42.5t-3 21.5q0 4 2 5t7 1q2 0 22 -4q47 -13 105 -16l44 -2q86 -6 146 -6l34 1q10 1 30 1q8 0 8 -4q0 -3 -18 -27.5t-30 -58.5l-47 -137q-2 -6 -5.5 -17t-3.5 -16q0 -6 4.5 -9.5t16.5 -5.5q58 -13 88 -63t29 -129l-1 -118v-7
q0 -73 7 -110t23.5 -54.5t50.5 -25.5q7 -1 7 -7q0 -3 -2.5 -4.5t-6.5 -0.5q-127 38 -236 68l-199 54q-3 1 -9 1q-10 0 -15 -8.5t-5 -27.5q0 -36 18 -49t65 -13q10 0 10 -5t-2 -6t-7 -1h-206q-7 0 -7 6t7 6zM277 474.5q43 26.5 93 33.5q13 2 19 8.5t15 31.5l34 102
q13 38 13 61q0 15 -9 31q-5 10 -41 15.5t-148 13.5q-9 1 -23 1q-39 0 -51 -14t-12 -52v-310q67 52 110 78.5zM173 142q9 -10 34 -17l225 -61q32 -9 44 -9q13 0 20 10t10 35.5t3 75.5v132q0 84 -33.5 123.5t-100.5 39.5q-54 0 -102.5 -23t-78.5 -67.5t-30 -106.5v-101
q0 -21 9 -31z" />
    <glyph glyph-name="i" unicode="i" horiz-adv-x="269" 
d="M44 504q17 0 29 -1l63 -1q31 0 52 1t28 1q5 0 5 -6t-5 -6q-23 0 -42 -23.5t-19 -86.5v-275q0 -54 19 -76t52 -22q5 0 5 -6t-5 -6l-46 1q-28 2 -46 2l-62 -1q-10 -1 -28 -1q-5 0 -5 6t5 6q31 0 51 26t20 104v255q0 54 -19 75.5t-52 21.5q-5 0 -5 6t5 6z" />
    <glyph glyph-name="j" unicode="j" horiz-adv-x="292" 
d="M40 504q37 0 56 -1l56 -1l79 1q10 1 21 1q5 0 5 -6t-5 -6q-38 0 -59.5 -25.5t-21.5 -104.5v-406q0 -81 -18 -132t-52 -85q-4 -4 -6 -2.5t0 5.5q14 23 21 43.5t11 58t4 102.5v449q0 56 -22 76.5t-69 20.5q-5 0 -5 6t5 6z" />
    <glyph glyph-name="k" unicode="k" horiz-adv-x="654" 
d="M619 499q0 -6 -8 -7q-43 -6 -69 -16.5t-50.5 -32.5t-72.5 -74l-14 -15q-55 -60 -73 -83.5t-18 -39.5q0 -9 5.5 -18.5t18.5 -24.5l77 -91q44 -52 86 -72t73 -22q8 0 8 -7q0 -6 -7 -6q-22 0 -94 4q-96 6 -170 6h-91q-87 -1 -157 -6l-23 -1q-5 0 -5 5.5t5 5.5q20 0 33 16
t20.5 69t7.5 158v428q0 33 -8 47t-37 14q-21 0 -52 -7h-3q-7 0 -7 4q0 5 7 6q56 14 85.5 26t54.5 31q2 2 6 2t3 -8q-9 -40 -9 -126v-152q0 -44 2.5 -65.5t10 -36.5t26.5 -38l43 -53q21 -25 33.5 -35.5t25.5 -10.5q16 0 34 16t61 63l14 15q68 76 68 104q0 13 -13 17t-38 4
q-11 0 -11 6t10 6l30 -1q84 -3 85 -3q30 0 57.5 2t33.5 2t6 -5zM167 330q-9 11 -15 11q-11 0 -11 -30v-60q0 -125 4 -169.5t17 -55t52 -10.5h120q57 0 71 1t14 7q0 3 -5 10t-13 16z" />
    <glyph glyph-name="l" unicode="l" horiz-adv-x="262" 
d="M40 784q17 0 29 -1l63 -1q31 0 52 1t28 1q5 0 5 -6t-5 -6q-23 0 -42 -23.5t-19 -86.5v-555q0 -54 19 -76t52 -22q5 0 5 -6t-5 -6l-46 1q-28 2 -46 2l-62 -1q-10 -1 -28 -1q-5 0 -5 6t5 6q31 0 51 26t20 104v535q0 54 -19 75.5t-52 21.5q-5 0 -5 6t5 6z" />
    <glyph glyph-name="m" unicode="m" horiz-adv-x="1047" 
d="M1012 -8q0 -3 -2.5 -4.5t-6.5 -0.5q-127 38 -236 68l-199 54q-3 1 -9 1q-12 0 -16 -10q6 -50 22.5 -71t54.5 -30q7 -1 7 -7q0 -3 -2.5 -4.5t-6.5 -0.5q-127 38 -236 68l-199 54q-3 1 -9 1q-10 0 -15 -8.5t-5 -27.5q0 -36 18 -49t65 -13q10 0 10 -5t-2 -6t-7 -1h-176
q-7 0 -7 6t7 6q9 0 21 7.5t21.5 28t9.5 55.5v278q0 33 -6.5 47t-26.5 14q-13 0 -34 -6l-4 -1q-5 0 -5 4q0 6 6 7q38 14 62.5 26.5t47.5 29.5q2 2 6 2t3 -8q-7 -32 -9 -102q53 41 83.5 62.5t69.5 37.5t79 16q57 0 93.5 -32.5t51.5 -89.5q56 44 89 66.5t72 39t79 16.5
q76 0 115.5 -52.5t38.5 -143.5l-1 -118v-7q0 -73 7 -110t23.5 -54.5t50.5 -25.5q7 -1 7 -7zM499 308q0 84 -33.5 124t-100.5 40q-54 0 -102.5 -23t-78.5 -67.5t-30 -106.5v-102q0 -21 9 -31t34 -17l225 -61q32 -9 44 -9q13 0 20 10t10 35.5t3 75.5v132zM884 308
q0 84 -33.5 124t-100.5 40q-50 0 -96.5 -21.5t-77.5 -62t-36 -94.5l-1 -98v-7v-21q1 -19 10.5 -28t32.5 -15l225 -61q32 -9 44 -9q13 0 20 10t10 35.5t3 75.5v132z" />
    <glyph glyph-name="n" unicode="n" horiz-adv-x="662" 
d="M627 -8q0 -3 -2.5 -4.5t-6.5 -0.5q-127 38 -236 68l-199 54q-3 1 -9 1q-10 0 -15 -8.5t-5 -27.5q0 -36 18 -49t65 -13q10 0 10 -5t-2 -6t-7 -1h-176q-7 0 -7 6t7 6q9 0 21 7.5t21.5 28t9.5 55.5v278q0 33 -6.5 47t-26.5 14q-13 0 -34 -6l-4 -1q-5 0 -5 4q0 6 6 7
q38 14 62.5 26.5t47.5 29.5q2 2 6 2t3 -8q-7 -32 -9 -102q53 41 83.5 62.5t69.5 37.5t79 16q76 0 115.5 -52.5t38.5 -143.5l-1 -118v-7q0 -73 7 -110t23.5 -54.5t50.5 -25.5q7 -1 7 -7zM499 308q0 165 -134 165q-54 0 -102.5 -23t-78.5 -67.5t-30 -106.5v-103q0 -21 9 -31
t34 -17l225 -61q32 -9 44 -9q13 0 20 10t10 35.5t3 75.5v132z" />
    <glyph glyph-name="o" unicode="o" horiz-adv-x="587" 
d="M79 381q32 60 88.5 94.5t126.5 34.5q71 0 126.5 -34.5t87 -94t31.5 -132.5t-32 -133.5t-88 -95t-125 -34.5t-125.5 35t-89 95t-32.5 133q0 72 32 132zM122.5 125q25.5 -56 70.5 -88.5t101 -32.5t100.5 32.5t69.5 88.5t25 124t-24.5 123.5t-69 87.5t-101.5 32t-102 -32
t-70 -87.5t-25 -123.5t25.5 -124z" />
    <glyph glyph-name="p" unicode="p" horiz-adv-x="662" 
d="M149 531q30 24 41 31t16 4q2 -2 -7.5 -25t-9.5 -79v-14q0 -22 13 -22q9 0 27 9q103 52 198.5 80.5t188.5 48.5h3q6 0 6 -4q0 -3 -7 -7q-10 -5 -28 -10q-16 -5 -28 -10q-11 -4 -18 -11t-7 -16q0 -6 4 -13q50 -81 50 -159q0 -65 -33.5 -121t-92.5 -100q-25 -20 -25 -45
q0 -7 1 -11l43 -208q6 -27 17.5 -45t23 -30t11.5 -14t-10 -1q-141 19 -210 25q-44 4 -80 4q-39 0 -61 -4.5t-26 -4.5q-5 0 -7 1t-2 5q0 5 3 21.5t3 42.5v544v63q0 23 -2 29.5t-10 6.5q-10 0 -23 -7t-36 -22l-28 -18q-1 -1 -3 -1q-5 0 -8 8.5t2 10.5q56 26 111 68zM194.5 69
q5.5 -4 19.5 -4q15 0 25 2q66 11 114 21q98 20 146 82t48 145q0 75 -36 145q-11 23 -20.5 32.5t-28.5 9.5q-13 0 -28 -4q-42 -10 -98.5 -32t-101.5 -56t-45 -74v-254q0 -9 5.5 -13zM195 -163q6 -14 23.5 -20.5t56.5 -10.5l76 -7q50 -5 60 -5q18 0 29 8q5 4 7 9t2 16t-5 59
l-17 143q-3 25 -12.5 34.5t-33.5 9.5q-17 0 -49.5 -5t-72.5 -12q-33 -6 -47.5 -13t-18.5 -19.5t-4 -38.5v-105q0 -29 6 -43z" />
    <glyph glyph-name="q" unicode="q" horiz-adv-x="599" 
d="M73 -6q16 5 28 10q11 4 18 11.5t7 15.5q0 6 -4 13q-51 81 -51 161q0 63 29 116t76 89q43 33 103.5 49t138.5 27q42 6 55 12t24 29l15 33q6 11 12 11q4 0 4 -7q0 -5 -1 -9q-7 -23 -8.5 -51t-1.5 -75v-617q0 -26 3 -42.5t3 -21.5t-5 -5q-4 0 -22 6q-45 20 -109 25l-45 4
q-31 3 -99 8.5t-112 8.5q-11 0 -11 3q0 2 12.5 14.5t24 29.5t18.5 43l21 76q5 16 5 29q0 14 -14 14q-11 0 -32 -6q-57 -16 -108 -25h-3q-6 0 -6 4q0 3 7 7q10 5 28 10zM168 45q10 -10 31 -10q14 0 30 4q42 10 98.5 32t101.5 56t45 74v245q0 14 -6 20t-21 6q-5 0 -23 -2
q-66 -10 -114 -21q-99 -22 -147 -84.5t-48 -145.5q0 -72 32 -139q11 -25 21 -35zM246 -196q35 -5 145 -14q11 -1 29 -1q35 0 44.5 12.5t9.5 48.5v239q0 22 -13 22q-9 0 -27 -9q-82 -40 -158 -67q-28 -10 -40.5 -23.5t-18.5 -41.5l-12 -61q-1 -6 -2 -12.5t-3 -12.5
q-7 -39 -7 -46q0 -12 8 -20q10 -9 45 -14z" />
    <glyph glyph-name="r" unicode="r" horiz-adv-x="549" 
d="M514 496q0 -2 -7 -9q-4 -4 -20.5 -17.5t-46.5 -47.5t-72 -90l-40 -53q-17 -23 -17 -31q0 -14 35 -17q44 -4 70 -4q18 0 29.5 2t15.5 3q3 1 7 1q5 0 5.5 -2.5t-4.5 -6.5q-29 -25 -88 -25h-81q-20 0 -34 -3t-21 -4h-5q-5 0 -5 2t5 7q13 14 36 40.5t43 53.5q20 26 29 39
q35 45 51.5 71.5t16.5 44.5q0 21 -18.5 28t-52.5 7q-52 0 -94.5 -25t-67.5 -63t-28 -76l1 -205q0 -47 8 -67.5t30.5 -27.5t72.5 -7q11 0 11 -6t-3 -7t-9 -1h-222q-6 0 -6 6t6 6q29 0 50 19.5t21 71.5v278q0 33 -6.5 47t-26.5 14q-13 0 -34 -6l-4 -1q-5 0 -5 4q0 6 6 7
q38 14 62.5 26.5t47.5 29.5q2 2 6 2t3 -8q-7 -32 -9 -100q56 58 104 86t118 28q18 0 41 -2t34 -3q34 -4 52 -5q10 -1 10 -4z" />
    <glyph glyph-name="s" unicode="s" horiz-adv-x="575" 
d="M212 -10.5q-32 3.5 -74 10.5q-60 10 -93 10q-8 0 -8 3t5 7q21 17 42 42t50 74l14 23q28 48 36.5 64.5t8.5 27.5t-9 18t-31 17q-36 15 -61 41t-25 62q0 53 49.5 86.5t149.5 33.5q69 0 151 -12q58 -8 106 -11q9 -1 9 -4t-7 -9q-18 -15 -32.5 -33.5t-51.5 -76.5l-16 -25
q-36 -59 -36 -79q0 -12 8.5 -18.5t28.5 -13.5q47 -17 73.5 -44t26.5 -62q0 -49 -24 -78.5t-76 -43t-139 -13.5q-43 0 -75 3.5zM328 261q18 0 33.5 15t39.5 56l25 42q15 25 15 46q0 39 -48 56t-116 17q-90 0 -131 -26t-41 -69q0 -41 46.5 -70t148.5 -62q18 -5 28 -5zM250 248
q-17 0 -30 -13.5t-38 -54.5l-24 -39q-27 -44 -27 -73q0 -33 37 -49t119 -16q110 0 154 27t44 81q0 26 -19.5 46.5t-62.5 40t-120 43.5q-25 7 -33 7z" />
    <glyph glyph-name="t" unicode="t" horiz-adv-x="644" 
d="M162.5 318q22.5 53 56.5 100q9 12 15 23t6 17q0 11 -24 14q-50 5 -99.5 12.5t-76.5 14.5q-5 2 -5 5q0 2 2 4t6 1q60 -6 143.5 -7.5t202.5 -1.5h90q50 0 71 12.5t32 27.5q2 3 5.5 2.5t2.5 -5.5l-37 -270q1 6 -10 -69t-11 -96q0 -22 6 -32.5t21 -10.5q11 0 29 6l4 1
q5 0 5 -5q0 -4 -4 -7q-48 -32 -107.5 -50t-118.5 -18q-103 0 -165 54.5t-62 151.5q0 73 22.5 126zM362 471q-47 0 -87.5 -31t-65 -88.5t-24.5 -133.5q0 -108 57.5 -158t143.5 -50q54 0 80 18.5t36.5 55t21.5 120.5l9 60q4 27 5 36q12 77 12 105q0 30 -10 44.5t-35 17.5
q-39 4 -143 4z" />
    <glyph glyph-name="u" unicode="u" horiz-adv-x="709" 
d="M661 122q5 0 8.5 -4.5t1.5 -8.5q-11 -20 -39 -44.5t-68 -55.5q-30 -24 -41 -31t-16 -4q-2 2 7.5 25t9.5 79v23q-49 -38 -80.5 -60t-70 -38t-78.5 -16q-76 0 -115.5 52.5t-38.5 143.5l1 118v80q0 33 -8.5 46.5t-37.5 13.5q-20 0 -51 -6h-3q-7 0 -7 4q0 5 7 6
q61 17 89.5 28t50.5 29q2 2 6 2t3 -8q-8 -40 -9 -99l228 52q95 22 159.5 39t72.5 19l4 1q9 0 9 -6q0 -5 -7 -6q-33 -10 -50 -27t-24 -54t-7 -109v-217q0 -30 1.5 -38t10.5 -8q14 0 36 22.5t41 53.5q2 3 5 3zM418.5 47q48.5 23 78.5 67.5t30 106.5v98q0 49 -3.5 73t-15 35
t-35.5 11q-19 0 -53.5 -7t-77.5 -17l-160 -36v-8v-181q0 -165 134 -165q54 0 102.5 23z" />
    <glyph glyph-name="v" unicode="v" horiz-adv-x="668" 
d="M427 500q100 0 163 5q24 2 30 2q4 0 4 -4.5t-4 -6.5q-19 -9 -43.5 -46t-74.5 -141l-95 -197q-25 -53 -25 -74q0 -15 10 -19.5t30 -4.5q70 0 118 18t76 75q3 4 6 4q7 0 4 -8l-42 -105q-3 -8 -5.5 -11.5t-5.5 -3.5q-2 0 -6 4.5t-19 8.5t-50 4h-358q-60 0 -75 -8.5t-17 -8.5
q-4 0 -2 7l31 118q2 5 6 5q3 0 5 -2t1 -5q-2 -16 -2 -21q0 -40 26 -54.5t78 -16.5h68q18 0 25.5 4.5t7.5 15.5t-9.5 33t-22.5 49l-94 196q-48 101 -73 137t-46 47q-4 2 -4 6.5t4 4.5q6 0 30 -2q63 -5 163 -5h187zM189 477.5q-23 -6.5 -23 -31.5q0 -17 12 -47.5t40 -91.5
l96 -202l13 -29q7 -16 12.5 -26t9.5 -10t9.5 10.5t12.5 26.5l14 28l96 201q27 57 39.5 89.5t12.5 50.5q0 25 -23 31.5t-85 6.5h-151q-62 0 -85 -6.5z" />
    <glyph glyph-name="w" unicode="w" horiz-adv-x="906" 
d="M77 108q2 5 6 5q3 0 5 -2t1 -5q-2 -16 -2 -21q0 -40 26 -54.5t78 -16.5h68q18 0 25.5 4.5t7.5 15.5t-9.5 33t-22.5 49l-94 196q-48 101 -73 137t-46 47q-4 2 -4 6.5t4 4.5q6 0 30 -2q63 -5 163 -5h425q101 0 163 5q24 2 30 2q4 0 4 -4.5t-4 -6.5q-19 -9 -43.5 -46
t-74.5 -141l-95 -197q-25 -53 -25 -74q0 -15 10 -19.5t30 -4.5q70 0 118 18t76 75q3 4 6 4q7 0 4 -8l-42 -105q-3 -8 -5.5 -11.5t-5.5 -3.5q-2 0 -6 4.5t-19 8.5t-50 4h-596q-60 0 -75 -8.5t-17 -8.5q-4 0 -2 7zM469 294q6 0 12 12q24 50 49 112q8 21 8 32q0 18 -17 26
t-57 8q-34 0 -49.5 -8t-15.5 -24q0 -11 6 -26q27 -68 51 -119q6 -13 13 -13zM314 105l13 -29q7 -16 12.5 -26t9.5 -10t9.5 10.5t12.5 26.5l14 28l47 99q8 15 8 25t-8 25l-90 187q-10 20 -20 29t-27 11.5t-54 2.5q-43 0 -60.5 -6t-17.5 -26q0 -17 12.5 -49t42.5 -96zM482 260
q0 -7 8 -25l62 -130q11 -25 16 -33q6 -14 11 -23t8 -9q4 0 9.5 9.5t11.5 24.5l15 31l96 201q29 62 41.5 93.5t12.5 49.5q0 22 -20.5 28.5t-73.5 6.5q-56 0 -79.5 -10t-35.5 -35l-74 -154q-8 -18 -8 -25zM382 38q0 -15 10 -19.5t30 -4.5h75q18 0 25.5 4.5t7.5 15.5t-9.5 33
t-22.5 49l-22 45q-8 18 -13 25.5t-9 7.5t-10 -9t-13 -24l-24 -49q-25 -53 -25 -74z" />
    <glyph glyph-name="x" unicode="x" horiz-adv-x="675" 
d="M287 251q0 14 -19 33l-100 101q-89 92 -125 112q-5 3 -5 6q0 4 7 4q6 0 43 -2.5t94 -2.5h278q55 0 92 2.5t44 2.5q4 0 6.5 -1t2.5 -3q0 -3 -7 -6q-20 -12 -45.5 -33t-74.5 -74l-98 -106q-11 -16 -11 -24q0 -6 5.5 -13t11 -13t8.5 -9l106 -107q103 -103 133 -118
q7 -3 7 -6q0 -2 -2.5 -3.5t-6.5 -0.5q-68 5 -145 5h-295q-80 0 -145 -5q-8 0 -8 4q0 3 6 6q41 22 127 114l101 108q15 17 15 29zM204 485q-44 0 -56.5 -1t-12.5 -7t12.5 -19.5t31.5 -31.5l25 -25l101 -103q9 -8 16.5 -13.5t13.5 -5.5q7 0 15 5.5t22 19.5l88 93l28 29
q4 5 17 19t18 20.5t5 10.5q0 7 -13 8t-57 1h-254zM163 77q-19 -20 -32 -34.5t-13 -20.5q0 -7 14 -8.5t61 -1.5h269h35q21 0 30 1.5t9 7.5q0 7 -20.5 28.5t-52.5 53.5l-107 109q-20 20 -32 20q-8 0 -17 -6t-23 -20l-93 -99z" />
    <glyph glyph-name="y" unicode="y" horiz-adv-x="636" 
d="M144 -199q-60 0 -75 -8.5t-17 -8.5q-4 0 -2 7l31 118q2 5 6 5q3 0 5 -2t1 -5q-1 -7 -1 -20q0 -41 26 -56.5t77 -15.5h40q34 0 47.5 11t18 44.5t4.5 114.5v52q0 48 -7.5 71.5t-28.5 59.5q-2 3 -11 18l-85 150q-36 63 -62 96.5t-39.5 44t-32.5 20.5q-4 2 -3.5 6.5t4.5 4.5
q7 0 31 -2q55 -5 131 -5h233q84 0 134 5q20 2 28 2q4 0 4.5 -4.5t-3.5 -6.5q-3 -2 -20 -9.5t-44 -44t-61 -101.5l-78 -151q-3 -6 -17 -32t-21 -56t-7 -67v-51q0 -83 3.5 -115t16.5 -43.5t46 -11.5h21q50 0 94 18t73 76q1 4 6 4q3 0 5 -2.5t0 -6.5l-42 -105q-3 -8 -5.5 -11.5
t-5.5 -3.5q-2 0 -6 4.5t-19 8.5t-50 4h-343zM173.5 481q-12.5 -4 -12.5 -15q0 -13 17 -44l125 -223q9 -17 12 -23q8 -15 14.5 -25t11.5 -10t11.5 10t16 29t13.5 28l71 138l26 48q14 27 23.5 46.5t9.5 28.5q0 12 -14 14t-64 2h-219q-29 0 -41.5 -4z" />
    <glyph glyph-name="z" unicode="z" horiz-adv-x="575" 
d="M83 502q3 8 5.5 11.5t5.5 3.5q2 0 6 -4.5t19 -8.5t50 -4h366q5 0 5 -3t-5 -5q-21 -11 -45 -33t-44 -49l-127 -173q-12 -15 -12 -22q0 -8 16 -8l13 1l179 16h1q5 0 5 -3t-5 -5q-21 -11 -45.5 -33t-43.5 -49l-204 -276q-19 -25 -19 -32q0 -6 8.5 -8t31.5 -2h57
q71 0 117.5 17t74.5 74q3 4 6 4q7 0 4 -8l-42 -105q-3 -8 -5.5 -11.5t-5.5 -3.5q-2 0 -6 4.5t-19 8.5t-50 4h-266q-4 0 -4 3t4 5q41 21 89 82l47 60q13 18 13 23q0 7 -14 7q-9 0 -15 -1l-176 -18h-1q-4 0 -4 3t4 5q22 11 46 33t43 49l275 391l14 21t6 13q0 5 -7.5 6.5
t-28.5 1.5h-157q-71 0 -117.5 -17t-74.5 -74q-3 -4 -6 -4q-7 0 -4 8zM149 -8q0 -7 13 -7q5 0 35 4l66 9q19 3 29 17l110 149q2 4 10.5 15.5t8.5 15.5t-9 4l-30 -2l-75 -7q-19 -1 -30 -17l-113 -154q-15 -21 -15 -27z" />
    <glyph glyph-name="ae" unicode="&#xe6;" horiz-adv-x="977" 
d="M189 481.5q69 28.5 131 28.5q123 0 172 -63q10 -12 18 -12q6 0 16 7q87 68 183 68q56 0 96.5 -20t61 -53t20.5 -72q0 -18 -3.5 -24.5t-17 -8.5t-49.5 -2q-29 0 -43.5 -4.5t-14.5 -16.5q0 -14 21 -41l95 -121q10 -14 16.5 -19.5t13.5 -5.5t23 8l6 2q6 0 7.5 -4t-2.5 -10
q-45 -56 -107 -93.5t-137 -37.5q-65 0 -121.5 33t-94.5 97q-16 -3 -32 -12q-82 -46 -155.5 -71t-158.5 -45q-15 -4 -29.5 -7.5t-27.5 -7.5q-2 -1 -6 -1q-9 0 -4 9q21 38 45.5 110t31.5 105q4 20 4 28q0 25 -28 70l-26 40q-19 31 -38 45t-19 17q0 2 9 8.5t13 8.5
q62 39 131 67.5zM524 374q0 -30 78 -30q19 0 92 4l68 3q44 2 59.5 11t15.5 32q0 20 -13 42t-41.5 37.5t-72.5 15.5q-48 0 -91 -17t-68 -47q-27 -32 -27 -51zM165.5 262q15.5 -12 33.5 -12q10 0 16 1q40 6 83 15l119 21q32 5 47 10.5t19 14t4 25.5q0 69 -43.5 107t-127.5 38
q-51 0 -97.5 -14.5t-76 -41.5t-29.5 -63q0 -27 17 -55q20 -34 35.5 -46zM554 109.5q24 -41.5 65 -62.5t90 -21q41 0 84 13.5t66 36.5q12 12 12 25q0 11 -7.5 24.5t-22.5 32.5l-82 107q-26 34 -40 46t-35 15.5t-71 3.5q-40 0 -56.5 -5.5t-21.5 -20t-5 -50.5v-45
q0 -58 24 -99.5zM143 47q0 -14 6.5 -18.5t22.5 -4.5q40 0 117.5 27.5t137.5 68t60 79.5v59q0 9 -5.5 13t-19.5 4q-15 0 -25 -2q-100 -14 -177 -31l-23 -4q-18 -4 -29 -11.5t-23 -31t-26 -73.5q-16 -54 -16 -75z" />
    <glyph glyph-name="NULL" horiz-adv-x="0" 
 />
    <glyph glyph-name="_0000" horiz-adv-x="833" 
d="M-1372 399q-1 4 1 6l234 201h-192q-4 0 -5.5 3.5t1.5 5.5l196 170h-212l-148 -408h459q2 0 3 -3t-1 -4l-197 -172h195q2 0 3 -2.5t-1 -5.5l-281 -240q-19 -17 -43 -17h-49q-4 0 -5.5 3.5t1.5 5.5l276 239h-192q-4 0 -5.5 3t1.5 5l196 170h-212l-148 -408q-3 -8 -10 -13
t-15 -5h-38q-4 0 -6.5 3t-0.5 6l151 417h-144q-4 0 -6.5 3t-0.5 7l153 423q5 11 17 11h359q2 0 3 -2.5t-1 -4.5l-197 -171h195q2 0 3 -3.5t-1 -4.5l-239 -206q-21 -16 -42 -16h-51q-3 0 -4 4zM-511 624h206l-266 -229h-88l244 211h-206l206 179h-212l-147 -408h469
l-206 -179h206l-308 -265h-88l286 247h-206l206 179h-212l-154 -426h-67l154 426h-154l161 444h382zM289 354h9q52 0 83.5 -40t31.5 -125q0 -74 -14 -115t-43 -57.5t-78 -16.5h-215v700h215q50 0 78.5 -14.5t42.5 -53.5t14 -113q0 -157 -115 -157h-9v-8zM755.5 314
q31.5 -40 31.5 -125q0 -74 -14 -115t-43 -57.5t-78 -16.5h-215v700h215q50 0 78.5 -14.5t42.5 -53.5t14 -113q0 -157 -115 -157h-9v-8h9q52 0 83.5 -40zM204 662v-284h23q26 0 35.5 30t9.5 111q0 82 -9.5 112.5t-35.5 30.5h-23zM578 662v-284h23q26 0 35.5 30t9.5 111
q0 82 -9.5 112.5t-35.5 30.5h-23zM262.5 71.5q9.5 34.5 9.5 117.5q0 82 -9.5 115.5t-35.5 33.5h-23v-301h23q26 0 35.5 34.5zM636.5 71.5q9.5 34.5 9.5 117.5q0 82 -9.5 115.5t-35.5 33.5h-23v-301h23q26 0 35.5 34.5z" />
    <glyph glyph-name="FTS" horiz-adv-x="1559" 
d="M20 769q0 2 2.5 3.5t5.5 0.5q7 -1 30.5 -4.5t66 -5.5t112.5 -2h245q111 0 154 3t95 10h1q4 0 4 -4q0 -5 -5 -7q-28 -9 -41.5 -21t-27.5 -41.5t-42 -104.5q-20 -52 -29 -84t-9 -51q0 -30 22.5 -38.5t79.5 -8.5q51 0 71 5t24.5 18t4.5 47v192q0 57 -12 86t-46 63l-119 120
q-26 27 -41 34t-43 7h-42q-35 0 -62 -19.5t-55 -74.5q-1 -4 -6 -4q-3 0 -5 2.5t0 6.5l42 105q3 8 5.5 11.5t5.5 3.5q2 0 6 -4.5t19 -8.5t50 -4h701q60 0 75 8.5t17 8.5q4 0 2 -7l-31 -118q-2 -5 -6 -5q-2 0 -4.5 2t-1.5 5q1 7 1 20q0 41 -26 56.5t-77 15.5h-49
q-31 0 -46.5 -7.5t-33.5 -26.5l-114 -122q-29 -31 -44 -65.5t-15 -89.5v-191q0 -35 4 -47.5t20 -16.5t60 -5h48q51 0 75.5 5t41.5 22t37 56q32 63 32 82q0 10 -5.5 17t-16.5 14q-103 64 -175 112q-54 35 -66 41q-6 3 -6 6t3.5 4t8.5 -1q17 -6 42.5 -9t77.5 -3h324
q100 0 163 5q24 2 30 2q4 0 4 -4.5t-4 -6.5t-13.5 -2.5t-35 -36t-81.5 -126.5q-14 -24 -20.5 -38t-6.5 -23q0 -16 21 -31q67 -47 107.5 -99t40.5 -125q0 -119 -80.5 -178t-233.5 -59q-73 0 -168 14.5t-201 43.5q-7 1 -7 5q0 5 9 6q22 4 43 21.5t50 67.5q36 62 51.5 95.5
t15.5 54.5q0 24 -22 35t-67.5 14.5t-134.5 3.5h-280q-96 0 -144.5 -4.5t-70 -18t-21.5 -41.5q0 -17 6.5 -40t20.5 -61q30 -73 54 -107.5t55 -47t85 -12.5q5 0 5 -7t-5 -7q-19 0 -40 1t-39 2q-69 4 -85 3q-80 -3 -169 -3q-5 0 -7.5 3t-2.5 6q0 4 2.5 7t6.5 3l26 -2
q30 -2 47 -2q30 0 42.5 6t12.5 26q0 18 -9.5 50.5t-31.5 89.5l-153 406q-30 81 -75 113q-4 3 -4 6zM770 838q29 -30 49 -30q13 0 27 9t34 30l89 94q17 17 17 28t-21.5 14t-73.5 3h-151q-56 0 -75 -2t-19 -11q0 -6 17 -25zM208 498q15 -41 28.5 -57.5t34.5 -20.5t71 -4h104
q40 0 62.5 10t38.5 36t36 80q7 19 8 22q24 64 32.5 91.5t8.5 45.5q0 21 -15 30t-45.5 11.5t-98.5 2.5h-236q-57 0 -78 -7t-21 -30q0 -13 5.5 -32t18.5 -54zM1167.5 631q47.5 -28 140.5 -78q16 -8 24 -8q12 0 21.5 12t29.5 45q30 52 42 76t12 38q0 18 -22.5 23.5t-82.5 5.5
h-236q-70 0 -70 -15q0 -9 20 -22q74 -49 121.5 -77zM960 170q-8 -19 -8 -33q0 -17 16 -28t55 -24q92 -29 219 -29q78 0 137 25.5t91 72.5t32 110q0 57 -27 101.5t-84 87.5t-159 97q-26 13 -39 13q-12 0 -22 -9t-22 -30l-160 -296q-21 -39 -29 -58z" />
    </font>
</defs>
</svg>
