<?xml version="1.0" standalone="no"?>
<!DOCTYPE svg PUBLIC "-//W3C//DTD SVG 1.1//EN" "http://www.w3.org/Graphics/SVG/1.1/DTD/svg11.dtd" >
<svg xmlns="http://www.w3.org/2000/svg" xmlns:xlink="http://www.w3.org/1999/xlink" version="1.1">
<metadata>
Created by FontForge 20190801 at Wed Aug 31 06:58:35 2016
 By Jimmy Wärting
Copyright (c) 2013 by Lucas Sharp. All rights reserved.
</metadata>
<defs>
<font id="Ogg-Roman" horiz-adv-x="558" >
  <font-face 
    font-family="Ogg"
    font-weight="400"
    font-stretch="normal"
    units-per-em="1000"
    panose-1="0 0 0 0 0 0 0 0 0 0"
    ascent="800"
    descent="-200"
    x-height="499.998"
    cap-height="693.002"
    bbox="-170.118 -351.999 1350 1024"
    underline-thickness="50"
    underline-position="-150"
    unicode-range="U+000D-FA48"
  />
<missing-glyph horiz-adv-x="850" 
d="M80 690h690v-690h-690v690zM756 14v662h-662v-662h662zM435 345l239 -239l-10 -10l-239 239l-239 -239l-10 10l239 239l-239 239l10 10l239 -239l239 239l10 -10z" />
    <glyph glyph-name="f_b" unicode="fb" horiz-adv-x="905" 
d="M380 687c0 2.66699 -3.66992 6.16602 -11.0029 10.499s-16.833 8.33301 -28.5 12s-25 6.83398 -40 9.50098s-29.833 4 -44.5 4c-34.667 0 -61 -17.833 -79 -53.5s-27 -93.167 -27 -172.5h99c14.667 0 24.167 0.166992 28.5 0.5s6.5 -0.166992 6.5 -1.5
c0 -3.33301 -5.16699 -10.166 -15.5 -20.499s-20.833 -21.166 -31.5 -32.499c-14.667 0 -28.667 0.166992 -42 0.5s-28.333 0.5 -45 0.5v-202c0 -42 0.333008 -86 1 -132c0 -24.667 0.666992 -43.834 2 -57.501s4.33301 -23.667 9 -30s11.5 -10.166 20.5 -11.499
s20.833 -2 35.5 -2c4 0 6 -1.5 6 -4.5s-2 -4.5 -6 -4.5c-7.33301 0 -16.166 0.166992 -26.499 0.5s-20.5 0.5 -30.5 0.5s-19.167 0.166992 -27.5 0.5s-14.5 0.5 -18.5 0.5s-10 -0.166992 -18 -0.5s-16.833 -0.5 -26.5 -0.5s-19.5 -0.166992 -29.5 -0.5
s-18.667 -0.5 -26 -0.5c-4 0 -6 1.5 -6 4.5s2 4.5 6 4.5c14.667 0 26.167 1.16699 34.5 3.5s14.5 7 18.5 14s6.33301 17.167 7 30.5s1 31 1 53c-0.666992 61.333 -1 116.333 -1 165v163v7h-41c-9.33301 0 -14 1.66699 -14 5l35 47h25c5.33301 30.667 14.5 60 27.5 88
s28.333 53.333 46 76s37.334 42.5 59.001 59.5s44.167 30.167 67.5 39.5c21.333 8.66699 42.666 13 63.999 13c10.667 0 21.334 -2 32.001 -6s17.667 -6 21 -6c9.33301 4 18.5 11 27.5 21s15.833 19 20.5 27c1.33301 1.33301 3.33301 1.83301 6 1.5s4 -1.83301 4 -4.5v-404
c23.333 34 52.833 60.5 88.5 79.5s72.834 28.5 111.501 28.5c28.667 0 55.667 -5.83301 81 -17.5s47.666 -27.834 66.999 -48.501s34.666 -45.334 45.999 -74.001s17 -60.334 17 -95.001c0 -41.333 -8.16699 -79.333 -24.5 -114s-37.833 -64.667 -64.5 -90
s-57.167 -45.166 -91.5 -59.499s-69.5 -21.5 -105.5 -21.5c-35.333 0 -65.666 6.5 -90.999 19.5s-45.666 26.5 -60.999 40.5c-16 -22 -26.5 -36 -31.5 -42s-8.83301 -9 -11.5 -9c-3.33301 0 -5 3 -5 9v679zM621.997 11.999c54 0 95.834 19.333 125.501 58s44.5 95 44.5 169
c0 29.333 -3.83301 58.166 -11.5 86.499s-19.334 53.833 -35.001 76.5s-35.167 40.834 -58.5 54.501s-50.333 20.5 -81 20.5c-28 0 -55.833 -7.66699 -83.5 -23s-50.167 -36.333 -67.5 -63v-285c8.66699 -10 19 -20.5 31 -31.5s25 -21.167 39 -30.5s29.167 -17 45.5 -23
s33.5 -9 51.5 -9z" />
    <glyph glyph-name="f_h" unicode="fh" horiz-adv-x="868" 
d="M455 9l60.9922 -0.00488281c4 0 6 -1.5 6 -4.5s-2 -4.5 -6 -4.5c-2 0 -7.16699 0.166992 -15.5 0.5s-17.666 0.5 -27.999 0.5s-20.166 0.166992 -29.499 0.5s-16 0.5 -20 0.5c-5.33301 0 -12.166 -0.166992 -20.499 -0.5s-17.5 -0.5 -27.5 -0.5
s-19.833 -0.166992 -29.5 -0.5s-18.167 -0.5 -25.5 -0.5c-4 0 -6 1.5 -6 4.5s2 4.5 6 4.5c14 0 25 0.666992 33 2s14 5.5 18 12.5s6.5 18 7.5 33s1.5 35.833 1.5 62.5v568c0 2.66699 -3.66699 6.16699 -11 10.5s-16.833 8.33301 -28.5 12s-25 6.83398 -40 9.50098
s-29.833 4 -44.5 4c-34.667 0 -61 -17.833 -79 -53.5s-27 -93.167 -27 -172.5h99c14.667 0 24.167 0.166992 28.5 0.5s6.5 -0.166992 6.5 -1.5c0 -3.33301 -5.16699 -10.166 -15.5 -20.499s-20.833 -21.166 -31.5 -32.499c-14.667 0 -28.667 0.166992 -42 0.5
s-28.333 0.5 -45 0.5v-202c0 -42 0.333008 -86 1 -132c0 -24.667 0.666992 -43.834 2 -57.501s4.33301 -23.667 9 -30s11.5 -10.166 20.5 -11.499s20.833 -2 35.5 -2c4 0 6 -1.5 6 -4.5s-2 -4.5 -6 -4.5c-7.33301 0 -16.166 0.166992 -26.499 0.5s-20.5 0.5 -30.5 0.5
s-19.167 0.166992 -27.5 0.5s-14.5 0.5 -18.5 0.5s-10 -0.166992 -18 -0.5s-16.833 -0.5 -26.5 -0.5s-19.5 -0.166992 -29.5 -0.5s-18.667 -0.5 -26 -0.5c-4 0 -6 1.5 -6 4.5s2 4.5 6 4.5c14.667 0 26.167 1.16699 34.5 3.5s14.5 7 18.5 14s6.33301 17.167 7 30.5s1 31 1 53
c-0.666992 61.333 -1 116.333 -1 165v163v7h-41c-9.33301 0 -14 1.66699 -14 5l35 47h25c5.33301 30.667 14.5 60 27.5 88s28.333 53.333 46 76s37.334 42.5 59.001 59.5s44.167 30.167 67.5 39.5c21.333 8.66699 42.666 13 63.999 13c10.667 0 21.334 -2 32.001 -6
s17.667 -6 21 -6c9.33301 4 18.5 11 27.5 21s15.833 19 20.5 27c1.33301 1.33301 3.33301 1.83301 6 1.5s4 -1.83301 4 -4.5v-403c25.333 34 52.666 60.333 81.999 79s63 28 101 28c22.667 0 43.834 -3.16699 63.501 -9.5s36.834 -17.333 51.501 -33
s26.334 -36.5 35.001 -62.5s13 -58.667 13 -98v-257c0 -19.333 4.16699 -31.166 12.5 -35.499s21.166 -6.16602 38.499 -5.49902c4 0 6 -1.5 6 -4.5s-2 -4.5 -6 -4.5c-2 0 -7.16699 0.166992 -15.5 0.5s-17.5 0.5 -27.5 0.5s-19.667 0.166992 -29 0.5s-16 0.5 -20 0.5
s-9.33301 -0.166992 -16 -0.5s-14.167 -0.5 -22.5 -0.5s-16.833 -0.166992 -25.5 -0.5s-16.667 -0.5 -24 -0.5c-4 0 -6 1.5 -6 4.5s2 4.5 6 4.5c11.333 0 20.5 0.666992 27.5 2s12.333 5.5 16 12.5s6.16699 17.667 7.5 32s2 34.833 2 61.5v200
c0 30.667 -3.33301 56.5 -10 77.5s-15.667 37.833 -27 50.5s-24.166 21.667 -38.499 27s-29.166 8 -44.499 8c-31.333 0 -58.333 -7 -81 -21s-45.667 -36.667 -69 -68v-382z" />
    <glyph glyph-name="f_j" unicode="fj" horiz-adv-x="533" 
d="M249 497c14.667 0 24.1699 0.163086 28.5029 0.496094s6.5 -0.166992 6.5 -1.5c0 -3.33301 -5.16699 -10.166 -15.5 -20.499s-20.833 -21.166 -31.5 -32.499c-14.667 0 -28.667 0.166992 -42 0.5s-28.333 0.5 -45 0.5v-202c0 -42 0.333008 -86 1 -132
c0 -24.667 0.666992 -43.834 2 -57.501s4.33301 -23.667 9 -30s11.5 -10.166 20.5 -11.499s20.833 -2 35.5 -2c4 0 6 -1.5 6 -4.5s-2 -4.5 -6 -4.5c-7.33301 0 -16.166 0.166992 -26.499 0.5s-20.5 0.5 -30.5 0.5s-19.167 0.166992 -27.5 0.5s-14.5 0.5 -18.5 0.5
s-10 -0.166992 -18 -0.5s-16.833 -0.5 -26.5 -0.5s-19.5 -0.166992 -29.5 -0.5s-18.667 -0.5 -26 -0.5c-4 0 -6 1.5 -6 4.5s2 4.5 6 4.5c14.667 0 26.167 1.16699 34.5 3.5s14.5 7 18.5 14s6.33301 17.167 7 30.5s1 31 1 53c-0.666992 60 -1 113.667 -1 161v164v10h-41
c-9.33301 0 -14 1.66699 -14 5l35 47h27c8.66699 36.667 23.667 70.5 45 101.5s45.666 57.667 72.999 80s56.5 39.666 87.5 51.999s60.167 18.5 87.5 18.5c12.667 0 25.167 -0.666992 37.5 -2s23.166 -3.16602 32.499 -5.49902s17 -5.16602 23 -8.49902
s9 -6.66602 9 -9.99902c0 -4 -1.33301 -9 -4 -15s-6.33398 -11.667 -11.001 -17s-10.334 -9.83301 -17.001 -13.5s-14 -5.5 -22 -5.5c-16.667 0 -37.334 3.16699 -62.001 9.5s-52 9.5 -82 9.5c-17.333 0 -33.666 -2.66699 -48.999 -8s-29 -15.333 -41 -30
s-21.5 -34.5 -28.5 -59.5s-10.5 -57.167 -10.5 -96.5h99zM459.003 48.9961c-0.666992 -21.333 -3.66211 -41.665 -8.99512 -60.998s-12.666 -38 -21.999 -56s-20.333 -36 -33 -54s-26.667 -36.333 -42 -55c-19.333 -24 -38 -44 -56 -60s-35 -24 -51 -24
c-5.33301 0 -11.333 0.666992 -18 2c-14.667 3.33301 -22 9.33301 -22 18s4 18.667 12 30s17.667 18.666 29 21.999c4 1.33301 9.33301 2 16 2c10 0 19.667 -0.166992 29 -0.5s15.666 -0.5 18.999 -0.5c5.33301 0 11.166 1.16699 17.499 3.5s11.166 5.16602 14.499 8.49902
c2.66699 3.33301 6.33398 7.83301 11.001 13.5s9.16699 15.334 13.5 29.001s8.16602 32.667 11.499 57s5 57.166 5 98.499v355c0 18.667 -1.16699 33.334 -3.5 44.001s-6 18.167 -11 22.5s-11.667 6.33301 -20 6s-18.833 -1.83301 -31.5 -4.5
c-4 -1.33301 -6.5 -0.666016 -7.5 2.00098s0.5 4.66699 4.5 6c25.333 5.33301 47.666 12.833 66.999 22.5s38.666 21.167 57.999 34.5c1.33301 1.33301 4.66602 1.16602 9.99902 -0.500977s8 -3.83398 8 -6.50098z" />
    <glyph glyph-name="f_k" unicode="fk" horiz-adv-x="862" 
d="M776 0c-6.66699 0 -13.167 0.665039 -19.5 1.99805s-12.5 4 -18.5 8c-12.667 8 -26.5 22.333 -41.5 43s-33.833 50.667 -56.5 90l-82 137l-103 -105v-166h61c4 0 6 -1.5 6 -4.5s-2 -4.5 -6 -4.5c-2 0 -7.16699 0.166992 -15.5 0.5s-17.666 0.5 -27.999 0.5
s-20.166 0.166992 -29.499 0.5s-16 0.5 -20 0.5c-5.33301 0 -12.166 -0.166992 -20.499 -0.5s-17.5 -0.5 -27.5 -0.5s-19.833 -0.166992 -29.5 -0.5s-18.167 -0.5 -25.5 -0.5c-4 0 -6 1.5 -6 4.5s2 4.5 6 4.5c14 0 25 0.666992 33 2s14 5.5 18 12.5s6.5 18 7.5 33
s1.5 35.833 1.5 62.5v568c0 2.66699 -3.66699 6.16699 -11 10.5s-16.833 8.33301 -28.5 12s-25 6.83398 -40 9.50098s-29.833 4 -44.5 4c-34.667 0 -61 -17.833 -79 -53.5s-27 -93.167 -27 -172.5h99c14.667 0 24.167 0.166992 28.5 0.5s6.5 -0.166992 6.5 -1.5
c0 -3.33301 -5.16699 -10.166 -15.5 -20.499s-20.833 -21.166 -31.5 -32.499c-14.667 0 -28.667 0.166992 -42 0.5s-28.333 0.5 -45 0.5v-202c0 -42 0.333008 -86 1 -132c0 -24.667 0.666992 -43.834 2 -57.501s4.33301 -23.667 9 -30s11.5 -10.166 20.5 -11.499
s20.833 -2 35.5 -2c4 0 6 -1.5 6 -4.5s-2 -4.5 -6 -4.5c-7.33301 0 -16.166 0.166992 -26.499 0.5s-20.5 0.5 -30.5 0.5s-19.167 0.166992 -27.5 0.5s-14.5 0.5 -18.5 0.5s-10 -0.166992 -18 -0.5s-16.833 -0.5 -26.5 -0.5s-19.5 -0.166992 -29.5 -0.5
s-18.667 -0.5 -26 -0.5c-4 0 -6 1.5 -6 4.5s2 4.5 6 4.5c14.667 0 26.167 1.16699 34.5 3.5s14.5 7 18.5 14s6.33301 17.167 7 30.5s1 31 1 53c-0.666992 61.333 -1 116.333 -1 165v163v7h-41c-9.33301 0 -14 1.66699 -14 5l35 47h25c5.33301 30.667 14.5 60 27.5 88
s28.333 53.333 46 76s37.334 42.5 59.001 59.5s44.167 30.167 67.5 39.5c21.333 8.66699 42.666 13 63.999 13c10.667 0 21.334 -2 32.001 -6s17.667 -6 21 -6c9.33301 4 18.5 11 27.5 21s15.833 19 20.5 27c1.33301 1.33301 3.33301 1.83301 6 1.5s4 -1.83301 4 -4.5v-619
l157 162c22 22.667 38.333 42.667 49 60s16.667 32 18 44s-1.66699 21.167 -9 27.5s-18.333 9.5 -33 9.5c-3.33301 0 -5 1.5 -5 4.5s1.66699 4.5 5 4.5c6.66699 0 15 -0.166992 25 -0.5s20 -0.5 30 -0.5s19.167 -0.166992 27.5 -0.5s14.166 -0.5 17.499 -0.5
s10.666 0.166992 21.999 0.5s23.166 0.5 35.499 0.5s23.5 0.166992 33.5 0.5s16 0.5 18 0.5c3.33301 0 5 -1.5 5 -4.5s-1.66699 -4.5 -5 -4.5c-32 0 -65.833 -12 -101.5 -36s-77.5 -61 -125.5 -111l-13 -13l97 -154c20 -32 38.167 -58.833 54.5 -80.5
s31.166 -38.834 44.499 -51.501s25.5 -21.667 36.5 -27s21.5 -8 31.5 -8c4 0 6.16699 -1.5 6.5 -4.5s-1.83398 -4.5 -6.50098 -4.5h-94z" />
    <glyph glyph-name="fi" unicode="fi" horiz-adv-x="536" 
d="M249 497c14.667 0 24.1699 0.163086 28.5029 0.496094s6.5 -0.166992 6.5 -1.5c0 -3.33301 -5.16699 -10.166 -15.5 -20.499s-20.833 -21.166 -31.5 -32.499c-14.667 0 -28.667 0.166992 -42 0.5s-28.333 0.5 -45 0.5v-202c0 -42 0.333008 -86 1 -132
c0 -24.667 0.666992 -43.834 2 -57.501s4.33301 -23.667 9 -30s11.5 -10.166 20.5 -11.499s20.833 -2 35.5 -2c4 0 6 -1.5 6 -4.5s-2 -4.5 -6 -4.5c-7.33301 0 -16.166 0.166992 -26.499 0.5s-20.5 0.5 -30.5 0.5s-19.167 0.166992 -27.5 0.5s-14.5 0.5 -18.5 0.5
s-10 -0.166992 -18 -0.5s-16.833 -0.5 -26.5 -0.5s-19.5 -0.166992 -29.5 -0.5s-18.667 -0.5 -26 -0.5c-4 0 -6 1.5 -6 4.5s2 4.5 6 4.5c14.667 0 26.167 1.16699 34.5 3.5s14.5 7 18.5 14s6.33301 17.167 7 30.5s1 31 1 53c-0.666992 60 -1 113.667 -1 161v164v10h-41
c-9.33301 0 -14 1.66699 -14 5l35 47h27c8.66699 36.667 23.667 70.5 45 101.5s45.666 57.667 72.999 80s56.5 39.666 87.5 51.999s60.167 18.5 87.5 18.5c12.667 0 25.167 -0.666992 37.5 -2s23.166 -3.16602 32.499 -5.49902s17 -5.16602 23 -8.49902
s9 -6.66602 9 -9.99902c0 -4 -1.33301 -9 -4 -15s-6.33398 -11.667 -11.001 -17s-10.334 -9.83301 -17.001 -13.5s-14 -5.5 -22 -5.5c-16.667 0 -37.334 3.16699 -62.001 9.5s-52 9.5 -82 9.5c-17.333 0 -33.666 -2.66699 -48.999 -8s-29 -15.333 -41 -30
s-21.5 -34.5 -28.5 -59.5s-10.5 -57.167 -10.5 -96.5h99zM382.003 376.996c0 18.667 -0.999023 33.334 -2.99902 44.001s-5.5 18.167 -10.5 22.5s-11.5 6.33301 -19.5 6s-18.333 -1.83301 -31 -4.5c-4 -1.33301 -6.5 -0.666016 -7.5 2.00098s0.5 4.66699 4.5 6
c25.333 5.33301 47.666 12.833 66.999 22.5s38.666 21.167 57.999 34.5c1.33301 1.33301 4.66602 1.16602 9.99902 -0.500977s8 -3.83398 8 -6.50098v-393c0 -21.333 0.5 -38.666 1.5 -51.999s3.66699 -23.666 8 -30.999s10.666 -12.166 18.999 -14.499
s19.833 -3.5 34.5 -3.5c4 0 6 -1.5 6 -4.5s-2 -4.5 -6 -4.5c-7.33301 0 -15.833 0.166992 -25.5 0.5s-19.334 0.5 -29.001 0.5s-18.5 0.166992 -26.5 0.5s-14 0.5 -18 0.5s-10.167 -0.166992 -18.5 -0.5s-17.666 -0.5 -27.999 -0.5s-20.666 -0.166992 -30.999 -0.5
s-19.166 -0.5 -26.499 -0.5c-4 0 -6 1.5 -6 4.5s2 4.5 6 4.5c14.667 0 26.334 1.16699 35.001 3.5s15.167 7.16602 19.5 14.499s7 17.666 8 30.999s1.5 30.666 1.5 51.999v267z" />
    <glyph glyph-name="fl" unicode="fl" horiz-adv-x="527" 
d="M249 497c14.667 0 24.165 0.161133 28.498 0.494141s6.5 -0.166992 6.5 -1.5c0 -3.33301 -5.16699 -10.166 -15.5 -20.499s-20.833 -21.166 -31.5 -32.499c-14.667 0 -28.667 0.166992 -42 0.5s-28.333 0.5 -45 0.5v-202c0 -42 0.333008 -86 1 -132
c0 -24.667 0.666992 -43.834 2 -57.501s4.33301 -23.667 9 -30s11.5 -10.166 20.5 -11.499s20.833 -2 35.5 -2c4 0 6 -1.5 6 -4.5s-2 -4.5 -6 -4.5c-7.33301 0 -16.166 0.166992 -26.499 0.5s-20.5 0.5 -30.5 0.5s-19.167 0.166992 -27.5 0.5s-14.5 0.5 -18.5 0.5
s-10 -0.166992 -18 -0.5s-16.833 -0.5 -26.5 -0.5s-19.5 -0.166992 -29.5 -0.5s-18.667 -0.5 -26 -0.5c-4 0 -6 1.5 -6 4.5s2 4.5 6 4.5c14.667 0 26.167 1.16699 34.5 3.5s14.5 7 18.5 14s6.33301 17.167 7 30.5s1 31 1 53c-0.666992 61.333 -1 116.333 -1 165v163v7h-41
c-9.33301 0 -14 1.66699 -14 5l35 47h25c5.33301 30.667 14.5 60 27.5 88s28.333 53.333 46 76s37.334 42.5 59.001 59.5s44.167 30.167 67.5 39.5c21.333 8.66699 42.666 13 63.999 13c10.667 0 21.334 -2 32.001 -6s17.667 -6 21 -6c9.33301 4 18.5 11 27.5 21
s15.833 19 20.5 27c1.33301 1.33301 3.33301 1.83301 6 1.5s4 -1.83301 4 -4.5v-687c0 -21.333 0.5 -39.166 1.5 -53.499s3.66699 -25.666 8 -33.999s10.666 -14.166 18.999 -17.499s19.833 -5 34.5 -5c4 0 6 -1.5 6 -4.5s-2 -4.5 -6 -4.5c-14.667 0 -31.5 0.333008 -50.5 1
s-33.833 1 -44.5 1c-5.33301 0 -12.166 -0.166992 -20.499 -0.5s-17.5 -0.5 -27.5 -0.5s-19.833 -0.166992 -29.5 -0.5s-18.167 -0.5 -25.5 -0.5c-4 0 -6 1.5 -6 4.5s2 4.5 6 4.5c14 0 25 0.666992 33 2s14 5.5 18 12.5s6.5 18 7.5 33s1.5 35.833 1.5 62.5v568
c0 2.66699 -3.66699 6.16699 -11 10.5s-16.833 8.33301 -28.5 12s-25 6.83398 -40 9.50098s-29.833 4 -44.5 4c-34.667 0 -61 -17.833 -79 -53.5s-27 -93.167 -27 -172.5h99z" />
    <glyph glyph-name="g_g" unicode="gg" horiz-adv-x="985" 
d="M465 484c-7.33301 0 -18.3271 1.00098 -32.9941 3.00098s-31 4 -49 6s-36.833 4 -56.5 6s-38.5 3 -56.5 3v-2c52 -7.33301 92 -26.333 120 -57s42 -68.667 42 -114c0 -26.667 -5.33301 -50.5 -16 -71.5s-25.334 -39 -44.001 -54s-41 -26.5 -67 -34.5s-54 -12 -84 -12h-18
c-15.333 -1.33301 -30 -3.16602 -44 -5.49902s-26.5 -5.83301 -37.5 -10.5s-19.833 -10.167 -26.5 -16.5s-10 -13.5 -10 -21.5c0 -19.333 11.167 -31.333 33.5 -36s55.5 -7 99.5 -7h89c28 0 52 -3.16699 72 -9.5s36.667 -14.833 50 -25.5s23.166 -23 29.499 -37
s9.5 -28.333 9.5 -43c0 -30.667 -9.33301 -60.667 -28 -90s-42.834 -55.5 -72.501 -78.5s-63.167 -41.5 -100.5 -55.5s-74.333 -21 -111 -21c-30 0 -55.5 3 -76.5 9s-38 14.5 -51 25.5s-22.333 24 -28 39s-8.5 31.5 -8.5 49.5c0 19.333 5 37.833 15 55.5s22.833 34 38.5 49
s33.5 28.333 53.5 40s40 21.167 60 28.5c-40 1.33301 -71.167 6.83301 -93.5 16.5s-33.5 26.834 -33.5 51.501c0 10.667 3.66699 21.334 11 32.001s17.333 20.167 30 28.5s27.667 15.666 45 21.999s36 11.166 56 14.499c-42.667 7.33301 -76.834 24.833 -102.501 52.5
s-38.5 65.5 -38.5 113.5c0 25.333 5.33301 49 16 71s25.5 41.167 44.5 57.5s41.167 29.166 66.5 38.499s52.666 14 81.999 14c24.667 0 49.834 2 75.501 6s49.667 8.33301 72 13s41.666 9 57.999 13s27.5 6 33.5 6c5.33301 0 11.5 -1 18.5 -3s10.5 -6 10.5 -12
c0 -4 -1 -8.83301 -3 -14.5s-5 -10.834 -9 -15.501s-8.83301 -8.66699 -14.5 -12s-11.834 -5 -18.501 -5zM948.006 484.001c-7.33301 0 -18.3291 1.00488 -32.9961 3.00488s-31 4 -49 6s-36.833 4 -56.5 6s-38.5 3 -56.5 3v-2c52 -7.33301 92 -26.333 120 -57
s42 -68.667 42 -114c0 -26.667 -5.33301 -50.5 -16 -71.5s-25.334 -39 -44.001 -54s-41 -26.5 -67 -34.5s-54 -12 -84 -12h-18c-15.333 -1.33301 -30 -3.16602 -44 -5.49902s-26.5 -5.83301 -37.5 -10.5s-19.833 -10.167 -26.5 -16.5s-10 -13.5 -10 -21.5
c0 -19.333 11.167 -31.333 33.5 -36s55.5 -7 99.5 -7h106c32.667 0 60.334 -3.33301 83.001 -10s40.667 -15.334 54 -26.001s23 -22.834 29 -36.501s9 -27.5 9 -41.5c0 -33.333 -9.83301 -65 -29.5 -95s-44.834 -56.167 -75.501 -78.5s-64.667 -39.833 -102 -52.5
s-73.666 -19 -108.999 -19c-48.667 -0.666992 -86.334 10 -113.001 32s-40 52.333 -40 91c0 19.333 5 37.833 15 55.5s23 34 39 49s34 28.167 54 39.5s40 20.666 60 27.999h-5c-24 0 -45.833 1 -65.5 3s-36.5 5.66699 -50.5 11s-25 12.333 -33 21s-12 19.667 -12 33
c0 10.667 3.66699 21.334 11 32.001s17.333 20.167 30 28.5s27.667 15.666 45 21.999s36 11.166 56 14.499c-42.667 7.33301 -76.834 24.833 -102.501 52.5s-38.5 65.5 -38.5 113.5c0 25.333 5.33301 49 16 71s25.5 41.167 44.5 57.5s41.167 29.166 66.5 38.499
s52.666 14 81.999 14c24.667 0 49.834 2 75.501 6s49.667 8.33301 72 13s41.666 9 57.999 13s27.5 6 33.5 6c5.33301 0 11.5 -1 18.5 -3s10.5 -6 10.5 -12c0 -4 -1 -8.83301 -3 -14.5s-5 -10.834 -9 -15.501s-8.83301 -8.66699 -14.5 -12s-11.834 -5 -18.501 -5z
M220.01 -244.994c34.667 0 65.5 4 92.5 12s49.833 18.667 68.5 32s33 29 43 47s15 36.667 15 56c0 32 -13.167 55.667 -39.5 71s-68.833 23 -127.5 23h-91c-43.333 -13.333 -78.333 -32 -105 -56s-40 -50 -40 -78c0 -36 16 -62.833 48 -80.5s76 -26.5 132 -26.5h4z
M730.01 -243.994c30 0 58.499 3.5 85.499 10.5s50.667 16.833 71 29.5s36.5 28 48.5 46s18 38.333 18 61c0 32 -14 55.5 -42 70.5s-76.333 22.5 -145 22.5h-63c-44 -12.667 -79.333 -31 -106 -55s-40 -50 -40 -78c0 -36 14.833 -62.833 44.5 -80.5
s70.834 -26.5 123.501 -26.5h5zM232.009 167.006c40.667 0 71.8311 13.832 93.498 41.499s32.5 67.834 32.5 120.501c0 21.333 -2.66699 42.166 -8 62.499s-13.166 38.333 -23.499 54s-23 28.334 -38 38.001s-32.5 14.5 -52.5 14.5c-85.333 0 -128 -53.333 -128 -160
c0 -24 2.5 -46.5 7.5 -67.5s12.667 -39.167 23 -54.5s23.333 -27.333 39 -36s33.834 -13 54.501 -13zM715.006 167.005c40.667 0 71.8311 13.832 93.498 41.499s32.5 67.834 32.5 120.501c0 21.333 -2.66699 42.166 -8 62.499s-13.166 38.333 -23.499 54
s-23 28.334 -38 38.001s-32.5 14.5 -52.5 14.5c-85.333 0 -128 -53.333 -128 -160c0 -24 2.5 -46.5 7.5 -67.5s12.667 -39.167 23 -54.5s23.333 -27.333 39 -36s33.834 -13 54.501 -13z" />
    <glyph glyph-name=".notdef" horiz-adv-x="850" 
d="M80 690h690v-690h-690v690zM756 14v662h-662v-662h662zM435 345l239 -239l-10 -10l-239 239l-239 -239l-10 10l239 239l-239 239l10 10l239 -239l239 239l10 -10z" />
    <glyph glyph-name="NULL" horiz-adv-x="0" 
 />
    <glyph glyph-name="NULL" horiz-adv-x="0" 
 />
    <glyph glyph-name="nonmarkingreturn" unicode="&#xd;" horiz-adv-x="309" 
 />
    <glyph glyph-name="space" unicode=" " horiz-adv-x="309" 
 />
    <glyph glyph-name="exclam" unicode="!" horiz-adv-x="252" 
d="M68 54c0 15.333 5.5 28.833 16.5 40.5s24.833 17.5 41.5 17.5c15.333 0 28.833 -5.83301 40.5 -17.5s17.5 -25.167 17.5 -40.5c0 -16.667 -5.83301 -30.5 -17.5 -41.5s-25.167 -16.5 -40.5 -16.5c-16.667 0 -30.5 5.5 -41.5 16.5s-16.5 24.833 -16.5 41.5zM94 613
c0 5.33301 2.33398 12.3301 7.00098 20.9971s10 17.167 16 25.5s12 15.5 18 21.5s10.333 9 13 9c7.33301 0 13.166 -3 17.499 -9s6.5 -14.667 6.5 -26v-4c0 -25.333 -2.16699 -57.166 -6.5 -95.499s-9 -79.666 -14 -123.999s-9.66699 -89.666 -14 -135.999
s-6.5 -90.5 -6.5 -132.5c0 -2.66699 -1 -4 -3 -4s-3 1.33301 -3 4c0 42 -1.66699 85 -5 129s-6.83301 86.167 -10.5 126.5s-7.16699 77 -10.5 110s-5 59.5 -5 79.5v5z" />
    <glyph glyph-name="quotedbl" unicode="&#x22;" horiz-adv-x="281" 
d="M82 709c7.33301 0 14 -2.83301 20 -8.5s9 -12.5 9 -20.5c0 -4.66699 -1.33301 -15.834 -4 -33.501s-5.5 -38.667 -8.5 -63s-5.83301 -50.666 -8.5 -78.999s-4 -55.5 -4 -81.5c0 -4.66699 -1.66699 -7 -5 -7s-5 2.33301 -5 7c0 26 -1.16699 53.167 -3.5 81.5
s-4.83301 54.666 -7.5 78.999s-5.16699 45.333 -7.5 63s-3.5 28.834 -3.5 33.501c0 8 2.83301 14.833 8.5 20.5s12.167 8.5 19.5 8.5zM198 709c7.33301 0 14 -2.83301 20 -8.5s9 -12.5 9 -20.5c0 -4.66699 -1.33301 -15.834 -4 -33.501s-5.5 -38.667 -8.5 -63
s-5.83301 -50.666 -8.5 -78.999s-4 -55.5 -4 -81.5c0 -4.66699 -1.66699 -7 -5 -7s-5 2.33301 -5 7c0 26 -1.16699 53.167 -3.5 81.5s-4.83301 54.666 -7.5 78.999s-5.16699 45.333 -7.5 63s-3.5 28.834 -3.5 33.501c0 8 2.83301 14.833 8.5 20.5s12.167 8.5 19.5 8.5z" />
    <glyph glyph-name="numbersign" unicode="#" horiz-adv-x="809" 
d="M537 227c40 0.666992 75.6641 1.33105 106.997 1.99805s63.333 1.66699 96 3c4.66699 -6 7.16699 -10.167 7.5 -12.5s-0.166992 -7.16602 -1.5 -14.499c-36 2.66699 -70 5 -102 7s-67.667 3.66699 -107 5v-42c0 -13.333 0.166992 -27.833 0.5 -43.5
s0.833008 -32.834 1.5 -51.501s1.33398 -40.667 2.00098 -66l-12.5 -10c-1.66699 -1.33301 -5.83398 -1.33301 -12.501 0c0.666992 26.667 1.5 50 2.5 70s2 38 3 54s1.83301 31.167 2.5 45.5s1.33398 29.166 2.00098 44.499c-17.333 0.666992 -36 1 -56 1h-65
c-26.667 0 -50.667 -0.166992 -72 -0.5s-41 -0.5 -59 -0.5v-42.5c0 -13.667 0.166992 -28.167 0.5 -43.5s0.833008 -32.5 1.5 -51.5s1.33398 -41.167 2.00098 -66.5l-12.5 -10c-1.66699 -1.33301 -5.83398 -1.33301 -12.501 0c0.666992 26.667 1.5 49.834 2.5 69.501
s2 37.667 3 54s1.83301 31.5 2.5 45.5s1.33398 28.667 2.00098 44c-16.667 0 -32.667 -0.333008 -48 -1s-30.666 -1.16699 -45.999 -1.5s-31.166 -0.833008 -47.499 -1.5s-34.166 -1.33398 -53.499 -2.00098l-10 12.5c-1.33301 1.66699 -1.33301 5.83398 0 12.501
c20 -1.33301 38.667 -2.5 56 -3.5s34.166 -1.83301 50.499 -2.5s32.5 -1.33398 48.5 -2.00098s32.667 -1 50 -1c0.666992 16.667 1.16699 34.667 1.5 54s0.5 42.333 0.5 69v71.5c0 20.333 -0.333008 39.166 -1 56.499c-17.333 0 -33.5 -0.333008 -48.5 -1
s-30.167 -1.16699 -45.5 -1.5s-31.333 -0.833008 -48 -1.5s-34.667 -1.33398 -54 -2.00098l-10 12.5c-1.33301 1.66699 -1.33301 5.83398 0 12.501c40.667 -2.66699 76.334 -4.66699 107.001 -6s63.667 -2.33301 99 -3l-3 193c6 4.66699 10.167 7.16699 12.5 7.5
s7.16602 -0.166992 14.499 -1.5c-1.33301 -23.333 -2.66602 -43.833 -3.99902 -61.5s-2.5 -34.167 -3.5 -49.5s-1.83301 -30 -2.5 -44s-1.33398 -28.667 -2.00098 -44c18 -0.666992 37.333 -1 58 -1h70h123l-3 194c6 4.66699 10.167 7.16699 12.5 7.5
s7.16602 -0.166992 14.499 -1.5c-1.33301 -23.333 -2.66602 -43.833 -3.99902 -61.5s-2.5 -34.167 -3.5 -49.5s-1.83301 -30.166 -2.5 -44.499s-1.33398 -29.166 -2.00098 -44.499c39.333 0.666992 74.5 1.33398 105.5 2.00098s62.833 1.66699 95.5 3
c4.66699 -6 7.16699 -10.167 7.5 -12.5s-0.166992 -7.16602 -1.5 -14.499c-36 2.66699 -69.833 5 -101.5 7s-67.167 3.66699 -106.5 5c-0.666992 -16.667 -1 -35.167 -1 -55.5v-70.5v-124zM404.997 478.997c-26.667 0 -50.501 -0.166016 -71.501 -0.499023
s-40.5 -0.5 -58.5 -0.5c-0.666992 -17.333 -1 -36 -1 -56v-71v-124h252c0.666992 16.667 1.16699 34.667 1.5 54s0.5 42.333 0.5 69v71.5c0 20.333 -0.333008 39.166 -1 56.499c-17.333 0.666992 -36.166 1 -56.499 1h-65.5z" />
    <glyph glyph-name="dollar" unicode="$" horiz-adv-x="561" 
d="M53 513c0 29.333 5.66992 55.6641 17.0029 78.9971s26.833 43.166 46.5 59.499s42.667 28.833 69 37.5s54.833 13.334 85.5 14.001c-0.666992 13.333 -1 26.333 -1 39v39c6 4.66699 9.66699 7.16699 11 7.5s5.66602 -0.166992 12.999 -1.5
c-1.33301 -14.667 -2.16602 -29 -2.49902 -43s-0.833008 -27.667 -1.5 -41c22.667 0 42.834 -0.833008 60.501 -2.5s34 -3.83398 49 -6.50098s29 -5.5 42 -8.5s26.5 -5.83301 40.5 -8.5c3.33301 -1.33301 5.83301 -2.5 7.5 -3.5s2.83398 -3.5 3.50098 -7.5
c0.666992 -5.33301 0.666992 -16.166 0 -32.499s-1.5 -35 -2.5 -56s-1.83301 -42.167 -2.5 -63.5s-1 -39 -1 -53c0 -6 -1.66699 -9 -5 -9s-5 3 -5 9c0 70.667 -14.667 125.667 -44 165s-77 61.666 -143 66.999c-1.33301 -48.667 -2.5 -97 -3.5 -145s-1.5 -98.667 -1.5 -152
c26.667 -12 53.5 -24.333 80.5 -37s51.167 -27.167 72.5 -43.5s38.833 -35.166 52.5 -56.499s20.5 -47 20.5 -77c0 -28.667 -5.16699 -55.334 -15.5 -80.001s-25.166 -46.167 -44.499 -64.5s-42.833 -32.666 -70.5 -42.999s-58.834 -15.5 -93.501 -15.5h-1
c0 -13.333 0.166992 -27.166 0.5 -41.499s0.833008 -28.833 1.5 -43.5c-2.66699 -4.66699 -5.66699 -7.83398 -9 -9.50098s-8.33301 -1.83398 -15 -0.500977l3 95c-24 0.666992 -44.667 1.83398 -62 3.50098s-33.166 3.83398 -47.499 6.50098s-28 5.66699 -41 9
s-27.167 7 -42.5 11c-4.66699 1.33301 -7.83398 2.66602 -9.50098 3.99902s-2.83398 4.33301 -3.50098 9c-0.666992 6 -0.833984 17.833 -0.500977 35.5s1 37.667 2 60s2 45 3 68s1.5 43.167 1.5 60.5c0 5.33301 1.66699 8 5 8s5 -2.66699 5 -8
c0 -36 3.66699 -69.167 11 -99.5s18.666 -56.666 33.999 -78.999s35.166 -40.166 59.499 -53.499s53.166 -21.333 86.499 -24c1.33301 58.667 2.5 115.334 3.5 170.001s1.5 109 1.5 163c-26.667 12 -53 23.833 -79 35.5s-49.5 24.834 -70.5 39.501s-38 31.167 -51 49.5
s-19.5 40.166 -19.5 65.499zM295.003 -11.002c24.667 0 46.833 3.66699 66.5 11s36 17.5 49 30.5s23 28.5 30 46.5s10.5 37.333 10.5 58c0 24 -4.5 45 -13.5 63s-21.333 34.167 -37 48.5s-33.5 27.333 -53.5 39s-41 22.5 -63 32.5v-165.5
c0 -52.333 0.666992 -106.833 2 -163.5h9zM116.002 559.998c0 -20 4.16602 -37.6699 12.499 -53.0029s19.833 -29.166 34.5 -41.499s31.334 -23.666 50.001 -33.999s38.667 -20.166 60 -29.499c0 52.667 -0.166992 103 -0.5 151s-0.833008 95 -1.5 141h-2
c-50 0 -88 -12.833 -114 -38.5s-39 -57.5 -39 -95.5z" />
    <glyph glyph-name="percent" unicode="%" horiz-adv-x="777" 
d="M384 340c-22 -26.667 -44.6709 -54.334 -68.0039 -83.001s-46.666 -57.667 -69.999 -87s-46.5 -58.5 -69.5 -87.5s-45.167 -56.833 -66.5 -83.5c-7.33301 -1.33301 -14.666 -2.33301 -21.999 -3s-13.666 0.333008 -18.999 3c50 55.333 101.5 113 154.5 173
s102.5 116.667 148.5 170c22 26.667 45.833 55.834 71.5 87.501s51.167 63.167 76.5 94.5s49.666 61.5 72.999 90.5s44 54.833 62 77.5c13.333 2.66699 25 2 35 -2c-22 -24 -46.167 -50.667 -72.5 -80s-53.166 -59.5 -80.499 -90.5s-54.166 -62 -80.499 -93
s-50.5 -59.833 -72.5 -86.5zM472.996 297c4.66699 3.33301 11.5049 7.49609 20.5049 12.4961s19 9.83301 30 14.5s22.167 8.66699 33.5 12s21.666 5 30.999 5c50 0 86.833 -12.833 110.5 -38.5s35.5 -65.5 35.5 -119.5c0 -17.333 -2.5 -33.5 -7.5 -48.5
s-11.167 -28.5 -18.5 -40.5s-15.333 -22.333 -24 -31s-17 -15.667 -25 -21c-4.66699 -3.33301 -11.334 -7.66602 -20.001 -12.999s-18.334 -10.666 -29.001 -15.999s-21.834 -10 -33.501 -14s-22.834 -6 -33.501 -6c-45.333 0 -80.5 12.167 -105.5 36.5
s-37.5 63.5 -37.5 117.5c0 18 2.33301 34.833 7 50.5s10.5 29.834 17.5 42.501s14.833 23.834 23.5 33.501s17 17.5 25 23.5zM478.001 289.996c-3.33301 -4.66699 -6.16895 -10 -8.50195 -16s-4.33301 -13.5 -6 -22.5s-3 -20 -4 -33s-1.5 -28.833 -1.5 -47.5
c0 -48.667 10.667 -84.167 32 -106.5s50.333 -33.5 87 -33.5c17.333 0 32.833 1.83301 46.5 5.5s23.5 7.16699 29.5 10.5c6 6.66699 11 19 15 37s6 45.667 6 83c0 48 -8.83301 83.167 -26.5 105.5s-47.5 33.5 -89.5 33.5c-17.333 0 -32.666 -1.33301 -45.999 -4
s-24.666 -6.66699 -33.999 -12zM112.998 654.996c4.66699 3.33301 11.5049 7.49609 20.5049 12.4961s19 9.83301 30 14.5s22.167 8.66699 33.5 12s21.666 5 30.999 5c50 0 86.833 -12.833 110.5 -38.5s35.5 -65.5 35.5 -119.5c0 -17.333 -2.5 -33.5 -7.5 -48.5
s-11.167 -28.5 -18.5 -40.5s-15.333 -22.333 -24 -31s-17 -15.667 -25 -21c-4.66699 -3.33301 -11.334 -7.66602 -20.001 -12.999s-18.334 -10.666 -29.001 -15.999s-21.834 -10 -33.501 -14s-22.834 -6 -33.501 -6c-45.333 0 -80.5 12.167 -105.5 36.5
s-37.5 63.5 -37.5 117.5c0 18 2.33301 34.833 7 50.5s10.5 29.834 17.5 42.501s14.833 23.834 23.5 33.501s17 17.5 25 23.5zM118.003 647.992c-3.33301 -4.66699 -6.16895 -10 -8.50195 -16s-4.33301 -13.5 -6 -22.5s-3 -20 -4 -33s-1.5 -28.833 -1.5 -47.5
c0 -48.667 10.667 -84.167 32 -106.5s50.333 -33.5 87 -33.5c17.333 0 32.833 1.83301 46.5 5.5s23.5 7.16699 29.5 10.5c6 6.66699 11 19 15 37s6 45.667 6 83c0 48 -8.83301 83.167 -26.5 105.5s-47.5 33.5 -89.5 33.5c-17.333 0 -32.666 -1.33301 -45.999 -4
s-24.666 -6.66699 -33.999 -12z" />
    <glyph glyph-name="ampersand" unicode="&#x26;" horiz-adv-x="839" 
d="M598 -2c-18 0 -43.3379 11.3281 -76.0049 33.9951s-72 57 -118 103c-6 -11.333 -16 -24.833 -30 -40.5s-30 -31 -48 -46s-37.333 -27.667 -58 -38s-40.667 -15.5 -60 -15.5c-17.333 0 -34.666 4.66699 -51.999 14s-32.833 21.333 -46.5 36s-24.834 31.167 -33.501 49.5
s-13 36.5 -13 54.5c0 18.667 5 37.5 15 56.5s23.167 36.667 39.5 53s34.666 30 54.999 41s40.833 17.833 61.5 20.5l3 -2c-30 37.333 -54.833 72 -74.5 104s-29.5 58.333 -29.5 79c0 30 4.83301 56.833 14.5 80.5s22.834 43.834 39.501 60.501s36.334 29.5 59.001 38.5
s47.334 13.833 74.001 14.5c12.667 0 27.834 -1.16699 45.501 -3.5s35.167 -5.5 52.5 -9.5s32.833 -8.33301 46.5 -13s22.834 -8.66699 27.501 -12c-2 -17.333 -3.66699 -35.666 -5 -54.999c-1.33301 -16.667 -2.5 -35.167 -3.5 -55.5s-1.5 -40.833 -1.5 -61.5
c0 -8 -1.83301 -12 -5.5 -12s-5.5 4 -5.5 12c-2 28 -6.5 54.333 -13.5 79s-16.667 46 -29 64s-27.5 32.333 -45.5 43s-39.333 16 -64 16c-42 0 -74.333 -10.667 -97 -32s-34 -51 -34 -89c0 -19.333 5.33301 -40.5 16 -63.5s25 -47 43 -72s38.667 -51 62 -78
s47.333 -54.167 72 -81.5c71.333 -79.333 132 -138.166 182 -176.499s87.667 -57.5 113 -57.5c9.33301 0 17.166 4.5 23.499 13.5s11.5 20.667 15.5 35s6.83301 30.5 8.5 48.5s2.5 36 2.5 54c0 32 -3 61.5 -9 88.5s-13.667 47.167 -23 60.5l-112 1
c-27.333 0 -49.333 -0.166992 -66 -0.5s-30.667 -1.16602 -42 -2.49902c-6.66699 -1.33301 -8 0.333984 -4 5.00098c4.66699 5.33301 9.33398 11.333 14.001 18s9.33398 13 14.001 19s8.83398 11 12.501 15s6.5 6 8.5 6h138c18 0 36 0.666992 54 2s30 2.66602 36 3.99902
c3.33301 0.666992 5.83301 0.666992 7.5 0s0.5 -2.66699 -3.5 -6c-11.333 -9.33301 -20 -19.5 -26 -30.5s-13 -20.833 -21 -29.5c11.333 -8.66699 22.5 -18 33.5 -28s20.667 -21.333 29 -34s15.166 -26.667 20.499 -42s8 -32.666 8 -51.999
c0 -20 -6.33301 -40.833 -19 -62.5s-28.667 -41.5 -48 -59.5s-40.5 -32.833 -63.5 -44.5s-45.167 -17.5 -66.5 -17.5zM312.995 230.995c-12.667 13.333 -25.002 26.999 -37.002 40.999s-23.667 28 -35 42c-41.333 -10.667 -70.833 -24.167 -88.5 -40.5
s-27.5 -41.5 -29.5 -75.5c0.666992 -20.667 6 -40.167 16 -58.5s22 -34.333 36 -48s29 -24.5 45 -32.5s30.333 -12 43 -12c26.667 0 51.5 8.83301 74.5 26.5s42.5 40.5 58.5 68.5c-13.333 13.333 -26.666 27.333 -39.999 42s-27.666 30.334 -42.999 47.001z" />
    <glyph glyph-name="quotesingle" unicode="'" horiz-adv-x="164" 
d="M82 709c7.33301 0 14 -2.83301 20 -8.5s9 -12.5 9 -20.5c0 -4.66699 -1.33301 -15.834 -4 -33.501s-5.5 -38.667 -8.5 -63s-5.83301 -50.666 -8.5 -78.999s-4 -55.5 -4 -81.5c0 -4.66699 -1.66699 -7 -5 -7s-5 2.33301 -5 7c0 26 -1.16699 53.167 -3.5 81.5
s-4.83301 54.666 -7.5 78.999s-5.16699 45.333 -7.5 63s-3.5 28.834 -3.5 33.501c0 8 2.83301 14.833 8.5 20.5s12.167 8.5 19.5 8.5z" />
    <glyph glyph-name="parenleft" unicode="(" horiz-adv-x="400" 
d="M102 262c0 52.667 6.3291 104.836 18.9961 156.503s30.5 100.667 53.5 147s50.5 88.666 82.5 126.999s67 70.5 105 96.5c4.66699 3.33301 8.5 3.5 11.5 0.5s2.5 -6.16699 -1.5 -9.5c-36.667 -26 -69.667 -58 -99 -96s-54.333 -79.833 -75 -125.5
s-36.667 -93.834 -48 -144.501s-17 -101.334 -17 -152.001c0 -51.333 5.33301 -102.5 16 -153.5s26 -99.667 46 -146s44.333 -88.833 73 -127.5s61.334 -71 98.001 -97c4.66699 -3.33301 5.33398 -6.33301 2.00098 -9s-7 -2.66699 -11 0c-38 26 -72.667 58.5 -104 97.5
s-58.166 82 -80.499 129s-39.666 96.667 -51.999 149s-18.5 104.833 -18.5 157.5z" />
    <glyph glyph-name="parenright" unicode=")" horiz-adv-x="400" 
d="M298 262c0 -52.667 -6.1709 -105.169 -18.5039 -157.502s-29.666 -102 -51.999 -149s-49.166 -90 -80.499 -129s-66 -71.5 -104 -97.5c-4 -2.66699 -7.66699 -2.66699 -11 0s-2.66602 5.66699 2.00098 9c36.667 26 69.334 58.333 98.001 97s53 81.167 73 127.5
s35.333 95 46 146s16 102.167 16 153.5c0 50.667 -5.66699 101.334 -17 152.001s-27.333 98.834 -48 144.501s-45.667 87.5 -75 125.5s-62.333 70 -99 96c-4 3.33301 -4.5 6.5 -1.5 9.5s6.83301 2.83301 11.5 -0.5c38 -26 72.833 -58.167 104.5 -96.5
s59 -80.666 82 -126.999s41 -95.333 54 -147s19.5 -103.834 19.5 -156.501z" />
    <glyph glyph-name="asterisk" unicode="*" horiz-adv-x="351" 
d="M145 430c0 0.666992 1.33301 5.33301 4 14s5.5 18.667 8.5 30s5.83301 23.333 8.5 36s4.33398 23.334 5.00098 32.001c-7.33301 -4.66699 -15.833 -11.167 -25.5 -19.5s-18.667 -16.833 -27 -25.5s-15.666 -16.167 -21.999 -22.5l-10.5 -10.5
c-12 -7.33301 -23 -10 -33 -8s-16.667 5 -20 9c-2 4.66699 -1.33301 11.834 2 21.501s11.333 18.167 24 25.5c0.666992 0.666992 5.33398 2 14.001 4s18.834 4.5 30.501 7.5s23.334 6.5 35.001 10.5s21.5 8 29.5 12c-8 4 -17.833 8 -29.5 12s-23.334 7.5 -35.001 10.5
s-21.834 5.5 -30.501 7.5s-13.334 3.33301 -14.001 4c-12.667 7.33301 -20.667 15.833 -24 25.5s-4 16.5 -2 20.5c3.33301 4.66699 10 8 20 10s21 -0.666992 33 -8l10.5 -10.5c6.33301 -6.33301 13.666 -13.833 21.999 -22.5s17.333 -17.334 27 -26.001
s18.167 -15.334 25.5 -20.001c-0.666992 8.66699 -2.33398 19.334 -5.00098 32.001s-5.5 24.834 -8.5 36.501s-5.83301 21.667 -8.5 30s-4 13.166 -4 14.499c0 14 3.33301 25 10 33s12.667 12 18 12s11.333 -4 18 -12s10 -19 10 -33c0 -1.33301 -1.33301 -6.33301 -4 -15
s-5.5 -18.667 -8.5 -30s-6 -23.333 -9 -36s-4.5 -23.334 -4.5 -32.001c7.33301 4.66699 15.666 11.334 24.999 20.001s18.333 17.334 27 26.001l22.5 22.5l10.5 10.5c12 7.33301 23 10 33 8s16.667 -5.33301 20 -10c2 -4 1.33301 -10.833 -2 -20.5
s-11.333 -18.167 -24 -25.5c-0.666992 -0.666992 -5.33398 -2 -14.001 -4s-18.667 -4.5 -30 -7.5s-23.166 -6.5 -35.499 -10.5s-22.5 -8 -30.5 -12c8 -4 18.167 -8 30.5 -12s24.166 -7.5 35.499 -10.5s21.333 -5.5 30 -7.5s13.334 -3.33301 14.001 -4
c12.667 -7.33301 20.667 -15.833 24 -25.5s4 -16.834 2 -21.501c-3.33301 -4 -10 -7 -20 -9s-21 0.666992 -33 8c-0.666992 0 -4.16699 3.33301 -10.5 10s-13.833 14.167 -22.5 22.5s-17.667 16.833 -27 25.5s-17.666 15.334 -24.999 20.001
c0 -8.66699 1.5 -19.334 4.5 -32.001s6 -24.667 9 -36s5.83301 -21.333 8.5 -30s4 -13.334 4 -14.001c0 -14 -3.33301 -25 -10 -33s-12.667 -12 -18 -12s-11.333 4 -18 12s-10 19 -10 33z" />
    <glyph glyph-name="plus" unicode="+" 
d="M268 416c2.66699 3.33301 6.83203 4.99805 12.499 4.99805s9.5 -1.66699 11.5 -5c-1.33301 -13.333 -2.33301 -25.833 -3 -37.5s-1.33398 -23.667 -2.00098 -36s-1.16699 -25.833 -1.5 -40.5s-0.5 -31.667 -0.5 -51c18.667 0 35.5 0.166992 50.5 0.5
s28.833 0.833008 41.5 1.5s24.667 1.33398 36 2.00098s23 1.33398 35 2.00098c3.33301 -2.66699 5 -6.83398 5 -12.501s-1.66699 -9.5 -5 -11.5c-13.333 0.666992 -25.833 1.5 -37.5 2.5s-23.667 1.83301 -36 2.5s-25.666 1.16699 -39.999 1.5s-30.833 0.5 -49.5 0.5
c0 -19.333 0.166992 -36.333 0.5 -51s0.833008 -28.167 1.5 -40.5s1.33398 -24.333 2.00098 -36s1.66699 -23.834 3 -36.501c-2 -3.33301 -5.83301 -5 -11.5 -5s-9.83398 1.66699 -12.501 5c1.33301 24 2.16602 47.833 2.49902 71.5s0.5 54.5 0.5 92.5
c-19.333 0 -36.166 -0.166992 -50.499 -0.5s-27.666 -0.833008 -39.999 -1.5s-24.333 -1.5 -36 -2.5s-23.834 -1.83301 -36.501 -2.5c-3.33301 2 -5 5.83301 -5 11.5s1.66699 9.83398 5 12.501c23.333 -1.33301 46.833 -2.66602 70.5 -3.99902s54.5 -2 92.5 -2v51.5
c0 15 -0.166992 29 -0.5 42s-0.666016 25.167 -0.999023 36.5s-0.833008 23 -1.5 35z" />
    <glyph glyph-name="comma" unicode="," horiz-adv-x="269" 
d="M116 -123c-2.66699 -1.33301 -4.66602 -1.50293 -5.99902 -0.50293s-0.333008 2.5 3 4.5c14 8 27.667 20.833 41 38.5s20 41.5 20 71.5c0 12 -2 23 -6 33c-8.66699 -16 -23 -24 -43 -24c-14.667 0 -27 5 -37 15s-15 22.333 -15 37c0 15.333 5.16699 28.833 15.5 40.5
s25.166 17.5 44.499 17.5c22 0 39.333 -9 52 -27s19 -43 19 -75c0 -15.333 -3.33301 -30.166 -10 -44.499s-14.667 -27.166 -24 -38.499s-19 -21.166 -29 -29.499s-18.333 -14.5 -25 -18.5z" />
    <glyph glyph-name="hyphen" unicode="-" horiz-adv-x="538" 
d="M272 251c41.333 0 78.665 0.666992 111.998 2s62 2.66602 86 3.99902c4.66699 -2.66699 6.83398 -6.83398 6.50098 -12.501s-2.16602 -9.5 -5.49902 -11.5c-28 2 -58 3.66699 -90 5s-68.333 2 -109 2s-77.667 -0.666992 -111 -2s-63.333 -3 -90 -5
c-4 2 -5.83301 5.83301 -5.5 11.5s1.83301 9.83398 4.5 12.501c25.333 -1.33301 55.333 -2.66602 90 -3.99902s72 -2 112 -2z" />
    <glyph glyph-name="period" unicode="." horiz-adv-x="252" 
d="M68 54c0 15.333 5.5 28.833 16.5 40.5s24.833 17.5 41.5 17.5c15.333 0 28.833 -5.83301 40.5 -17.5s17.5 -25.167 17.5 -40.5c0 -16.667 -5.83301 -30.5 -17.5 -41.5s-25.167 -16.5 -40.5 -16.5c-16.667 0 -30.5 5.5 -41.5 16.5s-16.5 24.833 -16.5 41.5z" />
    <glyph glyph-name="slash" unicode="/" horiz-adv-x="356" 
d="M188 247c-16.667 -40 -33.833 -81.8311 -51.5 -125.498s-35.5 -87.834 -53.5 -132.501s-35.667 -89 -53 -133s-34 -86.333 -50 -127c-8.66699 -2.66699 -14 -4.16699 -16 -4.5s-6 1.5 -12 5.5c18.667 41.333 37.667 84.166 57 128.499s38.5 88.666 57.5 132.999
s37.5 88.5 55.5 132.5s35.667 86.333 53 127c16 40.667 33.667 84.667 53 132s38.5 94.833 57.5 142.5s37.333 93.834 55 138.501s33.167 84 46.5 118c8 2 13 2.66699 15 2s6.33301 -2.66699 13 -6c-17.333 -36 -35.833 -76.333 -55.5 -121s-39.5 -90.667 -59.5 -138
s-39.667 -94.5 -59 -141.5s-37 -90.5 -53 -130.5z" />
    <glyph glyph-name="zero" unicode="0" horiz-adv-x="706" 
d="M344 -10c-93.333 0 -164.837 28.333 -214.504 85s-74.5 145.334 -74.5 266.001c0 38.667 3.33301 73.334 10 104.001s15.834 58 27.501 82s25.334 45 41.001 63s32.167 33.667 49.5 47c9.33301 6.66699 21.333 14 36 22s30.334 15.167 47.001 21.5
s33.667 11.666 51 15.999s33.666 6.5 48.999 6.5c50.667 0 94.334 -7.66699 131.001 -23s66.5 -37.833 89.5 -67.5s40 -66.167 51 -109.5s16.5 -93.333 16.5 -150c0 -36.667 -4.33301 -71.167 -13 -103.5s-19.667 -61.5 -33 -87.5s-28.166 -48.833 -44.499 -68.5
s-32.5 -34.834 -48.5 -45.501c-9.33301 -6.66699 -20.333 -13.5 -33 -20.5s-26.5 -13.167 -41.5 -18.5s-30.667 -9.83301 -47 -13.5s-32.833 -5.5 -49.5 -5.5zM380.996 29c24 0 48.332 2.33105 72.999 6.99805s43.667 10.334 57 17.001c28.667 30 47.667 69.5 57 118.5
s14 107.5 14 175.5c0 102.667 -19.667 181.5 -59 236.5s-101.333 82.5 -186 82.5c-28 0 -55 -2.83301 -81 -8.5s-48.667 -13.834 -68 -24.501c-19.333 -21.333 -34.166 -54.166 -44.499 -98.499s-15.5 -105.833 -15.5 -184.5c0 -49.333 5 -93.666 15 -132.999
s25.5 -73 46.5 -101s47.333 -49.5 79 -64.5s69.167 -22.5 112.5 -22.5z" />
    <glyph glyph-name="one" unicode="1" horiz-adv-x="257" 
d="M30 9c14.667 0 26.1641 2.33789 34.4971 7.00488s14.5 12.834 18.5 24.501s6.5 27.167 7.5 46.5s1.5 44 1.5 74v395c0 14.667 -0.666992 26.667 -2 36s-4.66602 16.166 -9.99902 20.499s-13 6.16602 -23 5.49902s-23.333 -4 -40 -10c-4 -1.33301 -6.66699 -0.333008 -8 3
s0 5.66602 4 6.99902c33.333 11.333 60.833 24.833 82.5 40.5s39.167 28.834 52.5 39.501c1.33301 1.33301 4.66602 1.16602 9.99902 -0.500977s8 -3.83398 8 -6.50098v-530c0 -29.333 0.5 -53.833 1.5 -73.5s3.66699 -35.334 8 -47.001s10.833 -19.834 19.5 -24.501
s20.667 -7 36 -7h17c3.33301 0 5 -1.5 5 -4.5s-1.66699 -4.5 -5 -4.5c-7.33301 0 -16.666 0.166992 -27.999 0.5s-22.666 0.833008 -33.999 1.5s-21.666 1.16699 -30.999 1.5s-16 0.5 -20 0.5s-11 -0.166992 -21 -0.5s-21.167 -0.833008 -33.5 -1.5
s-24.5 -1.16699 -36.5 -1.5s-21.667 -0.5 -29 -0.5c-3.33301 0 -5 1.5 -5 4.5s1.66699 4.5 5 4.5h15v0z" />
    <glyph glyph-name="two" unicode="2" horiz-adv-x="602" 
d="M219 -1c-16.667 0 -34.4941 -0.173828 -53.4941 -0.506836s-37 -0.666016 -54 -0.999023s-31.667 -0.666016 -44 -0.999023s-19.833 -0.5 -22.5 -0.5c-0.666992 6 -1 11.667 -1 17c0 4.66699 0.166992 9 0.5 13s1.16602 6.66699 2.49902 8c24 20 45.833 38.5 65.5 55.5
s38.167 33.167 55.5 48.5s33.833 30 49.5 44s31.167 28 46.5 42c33.333 30.667 62.166 59 86.499 85s44.333 51.333 60 76s27.334 49.334 35.001 74.001s11.5 51 11.5 79c0 47.333 -12.667 86 -38 116s-65 45 -119 45c-38 0 -70.5 -5 -97.5 -15s-48.833 -27.167 -65.5 -51.5
s-28.834 -56.833 -36.501 -97.5s-11.5 -91.667 -11.5 -153c0 -4.66699 -1.5 -7 -4.5 -7s-4.5 2.33301 -4.5 7c0 28 -1 56 -3 84s-4.33301 53.5 -7 76.5s-5 43 -7 60s-3 28.5 -3 34.5c0 4.66699 0.5 9.33398 1.5 14.001s4.16699 7.33398 9.5 8.00098
c19.333 6 38.5 11.833 57.5 17.5s38.333 10.834 58 15.501s40.167 8.5 61.5 11.5s44 4.5 68 4.5c70 0 124.833 -14.667 164.5 -44s59.5 -70.666 59.5 -123.999c0 -24.667 -7.16699 -49.334 -21.5 -74.001s-33.833 -50 -58.5 -76s-53.334 -53.333 -86.001 -82
s-67.334 -59 -104.001 -91c-26.667 -23.333 -53.667 -47.833 -81 -73.5s-55.333 -52.834 -84 -81.501h67h82.5c28.333 0 56.166 0.166992 83.499 0.5s50.666 0.833008 69.999 1.5c40 0.666992 71.5 10 94.5 28s37.833 49.667 44.5 95l10 68
c0.666992 3.33301 2.83398 4.83301 6.50098 4.5s5.16699 -2.16602 4.5 -5.49902l-10 -69c-3.33301 -21.333 -6.5 -42.666 -9.5 -63.999s-5.83301 -40.5 -8.5 -57.5s-5.16699 -31.167 -7.5 -42.5s-4.16602 -18 -5.49902 -20c-1.33301 -1.33301 -5 -2.33301 -11 -3
s-17 -1 -33 -1c-6.66699 0 -21.834 0.166992 -45.501 0.5s-49.834 0.5 -78.501 0.5s-56.167 0.166992 -82.5 0.5s-45.5 0.5 -57.5 0.5z" />
    <glyph glyph-name="three" unicode="3" horiz-adv-x="565" 
d="M75 2c-7.33301 1.33301 -10.6699 3.33398 -10.0029 6.00098s3.33398 3.66699 8.00098 3c22 -3.33301 43 -5.83301 63 -7.5s38.667 -2.5 56 -2.5c46 0 84.833 5.33301 116.5 16s57.334 25.5 77.001 44.5s33.834 41.667 42.501 68s13 55.166 13 86.499
c0 20.667 -3.83301 40 -11.5 58s-17.834 33.833 -30.501 47.5s-27.334 24.334 -44.001 32.001s-34 11.5 -52 11.5c-16 0 -31.167 -4 -45.5 -12s-27.5 -17 -39.5 -27s-22.667 -19 -32 -27s-17 -12 -23 -12s-10 2 -12 6s-3 8.5 -3 13.5s0.666992 9.5 2 13.5s2 6.33301 2 7
c36.667 12 70.167 26 100.5 42s56.5 34 78.5 54s39 41.333 51 64s18 46.334 18 71.001c0 40 -11 73.333 -33 100s-58 40 -108 40c-26 0 -50.333 -5 -73 -15s-42.334 -25.5 -59.001 -46.5s-29.667 -47.833 -39 -80.5s-14 -72 -14 -118c0 -4.66699 -1.5 -7 -4.5 -7
s-4.5 2.33301 -4.5 7c0 59.333 -1.33301 105.833 -4 139.5s-4 54.167 -4 61.5c0 4.66699 0.5 9.33398 1.5 14.001s4.16699 7.33398 9.5 8.00098c42 14.667 82.667 26.334 122 35.001s73 13 101 13c28.667 0 54.667 -3.33301 78 -10s43.5 -15.834 60.5 -27.501
s30.167 -25.834 39.5 -42.501s14 -35 14 -55c0 -19.333 -6 -38 -18 -56s-28.167 -35.5 -48.5 -52.5s-44 -34 -71 -51s-55.167 -33.833 -84.5 -50.5c15.333 5.33301 30 9.66602 44 12.999s27.667 5 41 5c26 0 49.833 -4.16699 71.5 -12.5s40.334 -20 56.001 -35
s27.834 -33.333 36.501 -55s13 -45.834 13 -72.501c0 -28.667 -5.16699 -56.334 -15.5 -83.001s-26.166 -50.334 -47.499 -71.001s-49 -37.167 -83 -49.5s-74.333 -18.5 -121 -18.5c-12.667 0 -27 0.333008 -43 1s-32.167 1.83398 -48.5 3.50098s-32.333 3.5 -48 5.5
s-29.5 4.33301 -41.5 7z" />
    <glyph glyph-name="four" unicode="4" horiz-adv-x="603" 
d="M440 274c38 0.666992 68.5 10.1631 91.5 28.4961s37.5 47.166 43.5 86.499l6 38c0.666992 3.33301 2.66699 4.83301 6 4.5s4.66602 -2.16602 3.99902 -5.49902l-6 -39c-3.33301 -19.333 -6.5 -38.5 -9.5 -57.5s-5.66699 -36 -8 -51s-4.5 -27.333 -6.5 -37
s-3.33301 -15.167 -4 -16.5c-1.33301 -1.33301 -7.16602 -2.5 -17.499 -3.5s-23.5 -1.5 -39.5 -1.5h-138v-89c0 -29.333 0.5 -52 1.5 -68s4.5 -27.833 10.5 -35.5s15.667 -12.334 29 -14.001s32.333 -2.83398 57 -3.50098c3.33301 0 5 -1.5 5 -4.5s-1.66699 -4.5 -5 -4.5
c-7.33301 0 -17.5 0.166992 -30.5 0.5s-26.333 0.5 -40 0.5s-26.167 0.166992 -37.5 0.5s-19 0.5 -23 0.5s-12.667 -0.166992 -26 -0.5s-28 -0.5 -44 -0.5s-31.5 -0.166992 -46.5 -0.5s-26.167 -0.5 -33.5 -0.5c-3.33301 0 -5 1.5 -5 4.5s1.66699 4.5 5 4.5
c27.333 0.666992 48.666 1.83398 63.999 3.50098s26.833 6.33398 34.5 14.001s12.334 19.5 14.001 35.5s2.5 38.667 2.5 68v89h-214c-16 0 -35 -1 -57 -3c-10 -1.33301 -14.167 1.33398 -12.5 8.00098s12.167 22 31.5 46c32 38.667 59.5 73.334 82.5 104.001
s45 61.167 66 91.5s42.5 62.833 64.5 97.5s48 75.667 78 123c4 6.66699 7.83301 11.834 11.5 15.501s8.83398 6.16699 15.501 7.5c18.667 5.33301 31.667 5.83301 39 1.5s8 -12.833 2 -25.5c-6.66699 -13.333 -14.834 -26.666 -24.501 -39.999s-14.5 -30.333 -14.5 -51v-321
h78zM294 273.996l-0.000976562 285.999c-20 -24.667 -38.833 -47.5 -56.5 -68.5s-35.5 -42.5 -53.5 -64.5s-37.167 -45.167 -57.5 -69.5s-43.166 -52.166 -68.499 -83.499h236z" />
    <glyph glyph-name="five" unicode="5" horiz-adv-x="559" 
d="M509 206c0 -30.667 -5.50195 -59.499 -16.502 -86.499s-27.5 -50.5 -49.5 -70.5s-49.333 -35.667 -82 -47s-70.667 -17 -114 -17c-10 0 -21.667 0.333008 -35 1s-27.166 1.83398 -41.499 3.50098s-28.666 3.5 -42.999 5.5s-27.5 4.33301 -39.5 7
c-7.33301 1.33301 -10.666 3.33301 -9.99902 6s3.33398 3.66699 8.00098 3c22 -3.33301 44.333 -5.83301 67 -7.5s42.667 -2.5 60 -2.5c38.667 0 71.834 5.83301 99.501 17.5s50 27.167 67 46.5s29.5 41.5 37.5 66.5s12 50.833 12 77.5c0 23.333 -4.33301 45.666 -13 66.999
s-20.834 40 -36.501 56s-34.667 28.667 -57 38s-47.5 14 -75.5 14c-17.333 0 -33.5 -2 -48.5 -6s-29.5 -9.66699 -43.5 -17s-27.667 -16 -41 -26s-27.333 -21 -42 -33c-2.66699 -1.33301 -5.83398 -1 -9.50098 1s-5.5 4.66699 -5.5 8l3 328c0 2 3.5 5.83301 10.5 11.5
s14.667 11.5 23 17.5s16.333 11.333 24 16s12.5 7 14.5 7c4.66699 0 13.667 -0.166992 27 -0.5s28.166 -0.5 44.499 -0.5s32.833 -0.166992 49.5 -0.5s30.667 -0.5 42 -0.5h156c16 0 27.167 -0.333008 33.5 -1s9.5 -1.66699 9.5 -3c0 -4 -0.833008 -11.667 -2.5 -23
s-3.5 -24.333 -5.5 -39s-4.16699 -30.167 -6.5 -46.5s-3.83301 -31.833 -4.5 -46.5l-5 -71c0 -3.33301 -1.5 -5.16602 -4.5 -5.49902s-4.5 1.16699 -4.5 4.5l5 72c1.33301 20 0.666016 36.667 -2.00098 50s-8.16699 23.666 -16.5 30.999s-20.5 12.666 -36.5 15.999
s-36.333 5 -61 5h-222l-18 -292c24 19.333 50.833 36.333 80.5 51s60.834 22 93.501 22c36.667 0 69 -5.16699 97 -15.5s51.5 -24.833 70.5 -43.5s33.333 -40.5 43 -65.5s14.5 -52.5 14.5 -82.5z" />
    <glyph glyph-name="six" unicode="6" horiz-adv-x="571" 
d="M40 268c0 34 7.16992 71.667 21.5029 113s35.5 82 63.5 122s63 77.333 105 112s90.667 62.334 146 83.001c3.33301 1.33301 5.66602 1 6.99902 -1s0.333008 -3.66699 -3 -5c-50 -20 -91.667 -46.333 -125 -79s-59.833 -68.167 -79.5 -106.5s-33.667 -77.333 -42 -117
s-12.5 -76.167 -12.5 -109.5c0 -36.667 5.5 -71.334 16.5 -104.001s25.333 -61.167 43 -85.5s37.667 -43.666 60 -57.999s45.166 -21.5 68.499 -21.5c18.667 0 36.334 1.66699 53.001 5s31.667 9 45 17c8.66699 12.667 16 25 22 37s11 24.5 15 37.5s6.83301 27 8.5 42
s2.5 31.833 2.5 50.5c0 32 -5.33301 59.833 -16 83.5s-24.334 43.334 -41.001 59.001s-35.667 27.334 -57 35.001s-42.333 11.5 -63 11.5c-8 0 -17 -1.16699 -27 -3.5s-20.5 -5.5 -31.5 -9.5s-21.667 -8.83301 -32 -14.5s-19.5 -12.167 -27.5 -19.5
c-3.33301 -1.33301 -5.33301 -1.33301 -6 0s-0.333984 2.66602 0.999023 3.99902c10 10 21.833 19.667 35.5 29s27.834 17.833 42.501 25.5s29.334 13.667 44.001 18s28 6.5 40 6.5c28.667 0 55.834 -4 81.501 -12s48.167 -20.5 67.5 -37.5s34.666 -38.5 45.999 -64.5
s17 -57.333 17 -94c0 -22 -2.83301 -41.833 -8.5 -59.5s-12.834 -33.667 -21.501 -48s-17.667 -26.833 -27 -37.5s-17.333 -19.334 -24 -26.001c-32 -18 -63 -32.333 -93 -43s-55.333 -16 -76 -16c-30 0 -59.167 5.66699 -87.5 17s-53.833 28.666 -76.5 51.999
s-40.834 52.5 -54.501 87.5s-20.5 76.5 -20.5 124.5z" />
    <glyph glyph-name="seven" unicode="7" horiz-adv-x="542" 
d="M224 1c-3.33301 0 -10.835 -0.166992 -22.502 -0.5s-24.334 -0.5 -38.001 -0.5s-27 -0.166992 -40 -0.5s-22.5 -0.5 -28.5 -0.5c-4 0 -5.83301 1.5 -5.5 4.5s2.5 4.5 6.5 4.5h28c11.333 0 22.833 3.16699 34.5 9.5s24 17 37 32s26.833 35.333 41.5 61
s31 57.834 49 96.501l70 153c24.667 54.667 45.667 101.167 63 139.5s33 74.833 47 109.5h-273c-27.333 0 -49.333 -1 -66 -3s-29.667 -6.33301 -39 -13s-15.833 -16.5 -19.5 -29.5s-6.16699 -30.5 -7.5 -52.5l-6 -100c0 -5.33301 -1.83301 -7.83301 -5.5 -7.5
s-5.16699 3.16602 -4.5 8.49902l7 99c0.666992 14 1.33398 30 2.00098 48s1.33398 35.5 2.00098 52.5s1.16699 32 1.5 45s0.5 21.5 0.5 25.5c0 1.33301 3 2.33301 9 3s16.667 1 32 1h134h33c14.667 0 31 0.166992 49 0.5s36.833 0.5 56.5 0.5s37.834 0.166992 54.501 0.5
s31 0.5 43 0.5h23c1.33301 0 2.66602 -3.5 3.99902 -10.5s2.33301 -14.667 3 -23s1 -16.333 1 -24s-0.333008 -12.167 -1 -13.5c-15.333 -28.667 -34.5 -64.834 -57.5 -108.501s-48.167 -94.5 -75.5 -152.5l-70 -154c-22.667 -50.667 -34 -96.667 -34 -138
c0 -19.333 5.83301 -33.666 17.5 -42.999s27.5 -14 47.5 -14c8 0 14.667 0.5 20 1.5s9 1.5 11 1.5c4 0 6 -2 6 -6c0 -1.33301 -0.666992 -2.5 -2 -3.5s-4.66602 -1.5 -9.99902 -1.5c-4 0 -12.333 0.166992 -25 0.5s-26 0.5 -40 0.5s-27 0.166992 -39 0.5s-20 0.5 -24 0.5z
" />
    <glyph glyph-name="eight" unicode="8" horiz-adv-x="574" 
d="M82 527c0 34 7.33105 61.999 21.998 83.999s34.667 40.667 60 56c6.66699 3.33301 15.5 7.5 26.5 12.5s22.833 9.66699 35.5 14s25.334 8 38.001 11s24 4.5 34 4.5c30.667 0 57.334 -4 80.001 -12s41.5 -18.667 56.5 -32s26.167 -28.833 33.5 -46.5s11 -36.5 11 -56.5
s-4.83301 -38.667 -14.5 -56s-21.5 -33.5 -35.5 -48.5s-29.167 -28.833 -45.5 -41.5s-31.5 -24 -45.5 -34c21.333 -12 42 -24.333 62 -37s37.833 -26.167 53.5 -40.5s28.167 -30 37.5 -47s14 -35.833 14 -56.5c0 -37.333 -7.83301 -68.666 -23.5 -93.999
s-39.167 -47.666 -70.5 -66.999c-5.33301 -2.66699 -14 -6.83398 -26 -12.501s-25.333 -11.167 -40 -16.5s-29.667 -10.166 -45 -14.499s-29 -6.5 -41 -6.5c-37.333 0 -69.5 5 -96.5 15s-49.333 23.333 -67 40s-30.667 35.334 -39 56.001s-12.5 41.667 -12.5 63
c0 23.333 5.33301 45.333 16 66s24 39.667 40 57s33.333 32.666 52 45.999s36 24.666 52 33.999c-16.667 10 -32.5 20.333 -47.5 31s-28 22.334 -39 35.001s-19.667 26.667 -26 42s-9.5 32.666 -9.5 51.999zM303.998 26.999c18.667 0 37.3311 1.5 55.998 4.5
s34.667 7.16699 48 12.5c8.66699 10 15.667 18.667 21 26s9.5 14.666 12.5 21.999s5 14.833 6 22.5s1.5 16.5 1.5 26.5c0 29.333 -7.5 54.5 -22.5 75.5s-34.167 39.833 -57.5 56.5s-49 32 -77 46s-55.333 28.667 -82 44c-28 -18 -51.167 -41.167 -69.5 -69.5
s-27.5 -61.166 -27.5 -98.499c0 -24.667 4.33301 -47.167 13 -67.5s21.334 -38 38.001 -53s36.834 -26.667 60.501 -35s50.167 -12.5 79.5 -12.5zM409.995 551.999c0 41.333 -12.333 72.834 -37 94.501s-62.667 32.5 -114 32.5c-7.33301 0 -15.5 -0.333008 -24.5 -1
s-17.833 -1.83398 -26.5 -3.50098s-16.667 -3.5 -24 -5.5s-13 -4 -17 -6c-11.333 -17.333 -19.333 -32.833 -24 -46.5s-7 -30.5 -7 -50.5s5.83301 -38.333 17.5 -55s26.667 -32.167 45 -46.5s39.333 -28 63 -41s47.5 -26.167 71.5 -39.5c23.333 22.667 42 47.167 56 73.5
s21 57.833 21 94.5z" />
    <glyph glyph-name="nine" unicode="9" horiz-adv-x="578" 
d="M529 414c0 -30 -6.66797 -65.3301 -20.001 -105.997s-34 -81.5 -62 -122.5s-63.333 -79.833 -106 -116.5s-93.334 -66 -152.001 -88c-3.33301 -1.33301 -5.66602 -1 -6.99902 1s-0.333008 3.66699 3 5c54 21.333 97.667 49.5 131 84.5s59.333 72.5 78 112.5
s31.5 80.167 38.5 120.5s10.833 76.166 11.5 107.499c0.666992 36.667 -3.66602 71 -12.999 103s-22.333 60 -39 84s-36.5 42.833 -59.5 56.5s-48.5 20.5 -76.5 20.5c-18.667 0 -35.834 -1.66699 -51.501 -5s-30.167 -9 -43.5 -17c-8.66699 -12.667 -16.334 -25 -23.001 -37
s-12.167 -24.5 -16.5 -37.5s-7.66602 -27 -9.99902 -42s-3.5 -31.833 -3.5 -50.5c0 -32 4.83301 -59.833 14.5 -83.5s22.334 -43.334 38.001 -59.001s33.5 -27.5 53.5 -35.5s40.667 -12 62 -12c18.667 0 39 4.16699 61 12.5s41 19.833 57 34.5
c3.33301 1.33301 5.33301 1.33301 6 0s0.333984 -2.66602 -0.999023 -3.99902c-10 -10 -21.667 -19.833 -35 -29.5s-27.5 -18.334 -42.5 -26.001s-30 -13.834 -45 -18.501s-28.833 -7 -41.5 -7c-28.667 0 -55.167 4 -79.5 12s-45.5 20.5 -63.5 37.5s-32 38.5 -42 64.5
s-15 57.333 -15 94c0 22 2.83301 42 8.5 60s12.667 34.333 21 49s17 27.334 26 38.001s17.167 19.667 24.5 27c32 18 63.333 32.333 94 43s56.334 16 77.001 16c32 0 62.667 -6 92 -18s55.166 -29.833 77.499 -53.5s40.166 -53.334 53.499 -89.001s20 -77.5 20 -125.5z" />
    <glyph glyph-name="colon" unicode=":" horiz-adv-x="252" 
d="M68 54c0 15.333 5.5 28.833 16.5 40.5s24.833 17.5 41.5 17.5c15.333 0 28.833 -5.83301 40.5 -17.5s17.5 -25.167 17.5 -40.5c0 -16.667 -5.83301 -30.5 -17.5 -41.5s-25.167 -16.5 -40.5 -16.5c-16.667 0 -30.5 5.5 -41.5 16.5s-16.5 24.833 -16.5 41.5zM68 360
c0 15.333 5.5 28.833 16.5 40.5s24.833 17.5 41.5 17.5c15.333 0 28.833 -5.83301 40.5 -17.5s17.5 -25.167 17.5 -40.5c0 -16.667 -5.83301 -30.5 -17.5 -41.5s-25.167 -16.5 -40.5 -16.5c-16.667 0 -30.5 5.5 -41.5 16.5s-16.5 24.833 -16.5 41.5z" />
    <glyph glyph-name="semicolon" unicode=";" horiz-adv-x="269" 
d="M116 -123c-2.66699 -1.33301 -4.66602 -1.50293 -5.99902 -0.50293s-0.333008 2.5 3 4.5c14 8 27.667 20.833 41 38.5s20 41.5 20 71.5c0 12 -2 23 -6 33c-8.66699 -16 -23 -24 -43 -24c-14.667 0 -27 5 -37 15s-15 22.333 -15 37c0 15.333 5.16699 28.833 15.5 40.5
s25.166 17.5 44.499 17.5c22 0 39.333 -9 52 -27s19 -43 19 -75c0 -15.333 -3.33301 -30.166 -10 -44.499s-14.667 -27.166 -24 -38.499s-19 -21.166 -29 -29.499s-18.333 -14.5 -25 -18.5zM68.001 359.997c0 15.333 5.5 28.833 16.5 40.5s24.833 17.5 41.5 17.5
c15.333 0 28.833 -5.83301 40.5 -17.5s17.5 -25.167 17.5 -40.5c0 -16.667 -5.83301 -30.5 -17.5 -41.5s-25.167 -16.5 -40.5 -16.5c-16.667 0 -30.5 5.5 -41.5 16.5s-16.5 24.833 -16.5 41.5z" />
    <glyph glyph-name="less" unicode="&#x3c;" 
d="M278 181c18 -8 33.665 -14.6699 46.998 -20.0029s25.5 -10.333 36.5 -15s21.833 -8.83398 32.5 -12.501s22 -7.5 34 -11.5c1.33301 -4 1.33301 -8 0 -12s-3.66602 -6.66699 -6.99902 -8c-10.667 5.33301 -21.167 10.5 -31.5 15.5s-21.333 10 -33 15
s-24.334 10.5 -38.001 16.5s-29.5 13 -47.5 21l-148 67c-1.33301 0 -2 2 -2 6s0.666992 6 2 6c14 6 26.333 11.5 37 16.5s21.334 9.83301 32.001 14.5s22.334 10 35.001 16s28 13 46 21s33.5 14.833 46.5 20.5s25 11.167 36 16.5s21.167 10.333 30.5 15s19.333 10 30 16
c7.33301 -4.66699 10 -11.334 8 -20.001c-12 -4 -23 -8 -33 -12s-20.333 -8.16699 -31 -12.5s-22.5 -9.33301 -35.5 -15s-28.5 -12.5 -46.5 -20.5c-16.667 -7.33301 -31 -13.666 -43 -18.999s-23 -10.333 -33 -15s-19.667 -9.16699 -29 -13.5
s-19.666 -9.16602 -30.999 -14.499c11.333 -5.33301 21.666 -10.166 30.999 -14.499s19 -8.66602 29 -12.999s21 -9.16602 33 -14.499s26.333 -12 43 -20z" />
    <glyph glyph-name="equal" unicode="=" 
d="M280 317c-20.667 0 -38.335 0.167969 -53.002 0.500977s-28.167 0.5 -40.5 0.5s-24.666 -0.166992 -36.999 -0.5s-26.166 -0.833008 -41.499 -1.5c-3.33301 2.66699 -5.33301 6.16699 -6 10.5s-0.333984 8.16602 0.999023 11.499c16 -2 30.333 -3.33301 43 -4
s25.5 -1.33398 38.5 -2.00098s26.833 -1 41.5 -1h53h54.5c15.667 0 30.167 0.166992 43.5 0.5s25.833 0.833008 37.5 1.5s23.5 1.33398 35.5 2.00098c5.33301 -6.66699 6.33301 -14.667 3 -24c-13.333 2 -26.166 3.5 -38.499 4.5s-25 1.66699 -38 2s-27.333 0.333008 -43 0
s-33.5 -0.5 -53.5 -0.5zM279.999 162.001c-20.667 0 -38.335 0.167969 -53.002 0.500977s-28.167 0.5 -40.5 0.5s-24.666 -0.166992 -36.999 -0.5s-26.166 -0.833008 -41.499 -1.5c-3.33301 1.33301 -5.5 4.33301 -6.5 9s-0.5 9 1.5 13c16 -2 30.333 -3.33301 43 -4
s25.5 -1.33398 38.5 -2.00098s26.833 -1 41.5 -1h53h54.5c15.667 0 30.167 0.166992 43.5 0.5s25.833 0.833008 37.5 1.5s23.5 1.33398 35.5 2.00098c3.33301 -2.66699 5.16602 -6.33398 5.49902 -11.001s-0.5 -9 -2.5 -13c-13.333 2 -26.166 3.5 -38.499 4.5
s-25 1.66699 -38 2s-27.333 0.333008 -43 0s-33.5 -0.5 -53.5 -0.5z" />
    <glyph glyph-name="greater" unicode="&#x3e;" 
d="M284 307c-18 8 -33.4971 14.6699 -46.4971 20.0029s-24.833 10.333 -35.5 15s-21 8.83398 -31 12.501s-21 7.5 -33 11.5c-1.33301 4 -1.33301 8 0 12s3.66602 6.66699 6.99902 8c10.667 -5.33301 20.834 -10.5 30.501 -15.5s20.167 -10 31.5 -15
s23.666 -10.5 36.999 -16.5s29 -13 47 -21l148 -67c1.33301 0 2 -2 2 -6s-0.666992 -6 -2 -6c-14 -6 -26.333 -11.5 -37 -16.5s-21.334 -9.83301 -32.001 -14.5s-22.334 -10 -35.001 -16s-28 -13 -46 -21s-33.667 -15 -47 -21s-25.666 -11.667 -36.999 -17
s-21.833 -10.5 -31.5 -15.5s-19.834 -10.5 -30.501 -16.5c-7.33301 4.66699 -10 11.334 -8 20.001c12 4 23.167 8 33.5 12s21 8.5 32 13.5s23.167 10.333 36.5 16s29 12.5 47 20.5c16.667 7.33301 31 13.666 43 18.999s23 10.166 33 14.499s19.5 8.66602 28.5 12.999
s19.167 9.16602 30.5 14.499c-11.333 5.33301 -21.5 10.166 -30.5 14.499s-18.5 8.83301 -28.5 13.5s-21 9.66699 -33 15s-26.333 12 -43 20z" />
    <glyph glyph-name="question" unicode="?" horiz-adv-x="395" 
d="M120 54c0 15.333 5.66797 28.833 17.001 40.5s25.333 17.5 42 17.5c15.333 0 28.666 -5.83301 39.999 -17.5s17 -25.167 17 -40.5c0 -16.667 -5.83301 -30.5 -17.5 -41.5s-25.167 -16.5 -40.5 -16.5c-16.667 0 -30.5 5.5 -41.5 16.5s-16.5 24.833 -16.5 41.5z
M131.001 341c0 2.66699 0.334961 4.83398 1.00195 6.50098s3 3.16699 7 4.5c52 25.333 90.333 50.5 115 75.5s36.667 55.833 36 92.5c-0.666992 37.333 -18 66.666 -52 87.999s-84.667 32 -152 32c-4 0 -6 2 -6 6c0 2.66699 1.5 9.16699 4.5 19.5s6.33301 21.833 10 34.5
s7.16699 25.334 10.5 38.001s6 23 8 31c1.33301 2.66699 2.66602 3.83398 3.99902 3.50098s2 -1.83301 2 -4.5c-2.66699 -15.333 -5 -28 -7 -38s-2.66699 -16.333 -2 -19s2.66699 -4 6 -4h12c34.667 0 65 -4.16699 91 -12.5s47.667 -19.5 65 -33.5s30.333 -29.667 39 -47
s13 -35 13 -53c0 -20.667 -4.16699 -40.834 -12.5 -60.501s-19.333 -37.667 -33 -54s-28.834 -31 -45.501 -44s-33 -23.5 -49 -31.5c0 -5.33301 0.5 -15.333 1.5 -30s2.16699 -30.167 3.5 -46.5s2.5 -31.166 3.5 -44.499s1.16699 -21.333 0.5 -24
c0 -1.33301 -3.83301 -4.5 -11.5 -9.5s-16 -10 -25 -15s-17.333 -9.33301 -25 -13s-11.5 -4.83398 -11.5 -3.50098s-0.166992 8.66602 -0.5 21.999s-0.5 28.5 -0.5 45.5v50.5v38z" />
    <glyph glyph-name="at" unicode="@" horiz-adv-x="977" 
d="M793 -85c-17.333 -17.333 -37.3311 -34.0088 -59.998 -50.0088s-47.334 -30.333 -74.001 -43s-55.167 -22.834 -85.5 -30.501s-61.5 -11.5 -93.5 -11.5c-59.333 0 -115 8.5 -167 25.5s-97.333 42 -136 75s-69.167 73.833 -91.5 122.5s-33.5 104.334 -33.5 167.001
c0 50 7.16699 97 21.5 141s33.833 84.333 58.5 121s53.5 69.334 86.5 98.001s68.333 53 106 73s76.334 35.167 116.001 45.5s78.834 15.5 117.501 15.5c45.333 0 85.833 -5.16699 121.5 -15.5s67.167 -24 94.5 -41s50.666 -36.5 69.999 -58.5s35.166 -44.667 47.499 -68
s21.5 -46.666 27.5 -69.999s9 -44.666 9 -63.999c0 -48 -8.33301 -93.167 -25 -135.5s-39.5 -79 -68.5 -110s-62.667 -55.5 -101 -73.5s-79.5 -27 -123.5 -27c-2.66699 0 -7.16699 0.666992 -13.5 2s-12.833 3 -19.5 5s-12.834 4 -18.501 6s-9.16699 3.66699 -10.5 5
c-8.66699 9.33301 -15.167 21.333 -19.5 36s-6.83301 26.334 -7.5 35.001c-0.666992 10.667 1.16602 23.167 5.49902 37.5s10 29.333 17 45s14.667 31.334 23 47.001s16.5 30.167 24.5 43.5c-17.333 -20.667 -36.5 -42.167 -57.5 -64.5s-42.167 -44.166 -63.5 -65.499
s-42.666 -42 -63.999 -62s-41 -37.667 -59 -53c-2 -2 -5 -3.16699 -9 -3.5s-8.16699 -0.5 -12.5 -0.5s-8.5 0.333008 -12.5 1s-6.33301 1.66699 -7 3c-10.667 8 -18.834 19.667 -24.501 35s-9 33 -10 53s0.5 41 4.5 63s10.333 43.667 19 65c14 34 33 64.833 57 92.5
s49.333 51 76 70s53.167 33.667 79.5 44s49.166 15.5 68.499 15.5c10.667 0 19.834 -0.833008 27.501 -2.5s15.5 -4.83398 23.5 -9.50098s16.5 -11.5 25.5 -20.5s20.167 -20.5 33.5 -34.5c2.66699 2.66699 6.66699 6.5 12 11.5s10.833 10.333 16.5 16
s11.334 11.5 17.001 17.5s10.5 11.333 14.5 16c4 3.33301 7 4.33301 9 3c0.666992 -0.666992 1.33398 -2 2.00098 -4c-9.33301 -11.333 -20 -26.5 -32 -45.5s-24.5 -39.667 -37.5 -62s-25.5 -45.666 -37.5 -69.999s-22.833 -48 -32.5 -71s-17.167 -44 -22.5 -63
s-7.66602 -34.5 -6.99902 -46.5c0 -3.33301 1.83301 -8.66602 5.5 -15.999s8.16699 -14.833 13.5 -22.5s10.833 -14.667 16.5 -21s10.5 -10.166 14.5 -11.499c34 0 67 7.5 99 22.5s60.5 36.333 85.5 64s45.167 60.834 60.5 99.501s23 81.667 23 129
c0 19.333 -2.83301 40.5 -8.5 63.5s-14.667 46 -27 69s-28 45.5 -47 67.5s-41.833 41.333 -68.5 58s-57.334 30.167 -92.001 40.5s-73.667 15.5 -117 15.5c-56 0 -112 -11 -168 -33s-106.5 -53 -151.5 -93s-81.667 -87.833 -110 -143.5s-42.5 -116.834 -42.5 -183.501
c0 -67.333 11 -125.666 33 -174.999s52 -90.333 90 -123s82.667 -57 134 -73s106.666 -24 165.999 -24c27.333 0 55 3.5 83 10.5s55 16.167 81 27.5s50 23.833 72 37.5s41 27.167 57 40.5zM360.002 59.9912c6.66699 2 16.334 7.83203 29.001 17.499s27 21.834 43 36.501
s33.167 31.5 51.5 50.5s36.833 38.833 55.5 59.5s36.667 41.5 54 62.5s33 41.167 47 60.5c-14.667 16.667 -27 30.5 -37 41.5s-19 19.833 -27 26.5s-15.667 11.167 -23 13.5s-15 3.5 -23 3.5c-15.333 0 -31.333 -4.83301 -48 -14.5s-32.834 -23 -48.501 -40
s-30.167 -36.833 -43.5 -59.5s-24 -47 -32 -73c-13.333 -42.667 -19.333 -80.667 -18 -114s8 -57 20 -71z" />
    <glyph glyph-name="A" unicode="A" horiz-adv-x="711" 
d="M348 245c-12 0 -26.6719 0.167969 -44.0049 0.500977s-34.833 0.666016 -52.5 0.999023s-34 0.666016 -49 0.999023s-26.167 0.5 -33.5 0.5l-17 -42c-4 -10.667 -8.16699 -22.334 -12.5 -35.001s-8.33301 -25.667 -12 -39s-6.5 -26.5 -8.5 -39.5s-3 -24.833 -3 -35.5
c0 -32.667 18.667 -49 56 -49c4 0 9.16699 0.5 15.5 1.5s10.5 1.5 12.5 1.5c4.66699 0 7 -1.66699 7 -5c0 -1.33301 -0.666992 -2.66602 -2 -3.99902s-4.66602 -2 -9.99902 -2c-4.66699 0 -12.334 0.166992 -23.001 0.5s-22 0.5 -34 0.5s-23.5 0.166992 -34.5 0.5
s-18.5 0.5 -22.5 0.5c-3.33301 0 -8.33301 -0.166992 -15 -0.5s-14 -0.5 -22 -0.5s-16.167 -0.166992 -24.5 -0.5s-15.5 -0.5 -21.5 -0.5c-4 0 -6 1.66699 -6 5c0 2.66699 2 4 6 4h4c26.667 0 50.667 20 72 60c12.667 21.333 24.834 45 36.501 71s21.5 49.667 29.5 71
l193 482c0.666992 2 3 3 7 3h10c5.33301 0 8.66602 -1 9.99902 -3l182 -434c24.667 -58.667 44.834 -104.667 60.501 -138s29 -58.333 40 -75s21 -27 30 -31s19.5 -6 31.5 -6h8c4.66699 0 7 -1.33301 7 -4c0 -3.33301 -2 -5 -6 -5c-7.33301 0 -16 0.166992 -26 0.5l-30 1
c-10 0.333008 -19 0.666016 -27 0.999023s-14 0.5 -18 0.5s-11.167 -0.166992 -21.5 -0.5s-21.666 -0.666016 -33.999 -0.999023s-24.5 -0.666016 -36.5 -0.999023s-21.667 -0.5 -29 -0.5c-4 0 -6.5 1.5 -7.5 4.5s0.5 4.5 4.5 4.5h21c10.667 0 18.834 2 24.501 6
s7.33398 14 5.00098 30s-9.16602 40 -20.499 72s-29 75.667 -53 131zM310.995 608.001l-139 -351l170 1h118v1z" />
    <glyph glyph-name="B" unicode="B" horiz-adv-x="605" 
d="M19 0c-4 0 -6 1.5 -6 4.5s2 4.5 6 4.5h18c12 0 21.667 1.5 29 4.5s12.833 12.5 16.5 28.5s6 40.833 7 74.5s1.5 81.167 1.5 142.5v175c0 61.333 -0.5 108.833 -1.5 142.5s-3.33301 58.5 -7 74.5s-9.16699 25.5 -16.5 28.5s-17 4.5 -29 4.5h-18c-4 0 -6 1.5 -6 4.5
s2 4.5 6 4.5c6.66699 0 15.667 -0.166992 27 -0.5s22.5 -0.666016 33.5 -0.999023s21.167 -0.666016 30.5 -0.999023s16 -0.5 20 -0.5c3.33301 0 13 0.166992 29 0.5s33.5 0.666016 52.5 0.999023s36.667 0.666016 53 0.999023s26.833 0.5 31.5 0.5
c42 0 79.333 -2.66699 112 -8s60.167 -14.333 82.5 -27s39.333 -29.5 51 -50.5s17.5 -46.833 17.5 -77.5c0 -25.333 -5 -47.5 -15 -66.5s-24 -35.167 -42 -48.5s-39.5 -24.166 -64.5 -32.499s-52.5 -14.5 -82.5 -18.5c32 -2.66699 61.833 -8.16699 89.5 -16.5
s51.667 -19.833 72 -34.5s36.333 -32.334 48 -53.001s17.5 -44.334 17.5 -71.001c0 -59.333 -20.5 -105.666 -61.5 -138.999s-107.167 -50 -198.5 -50h-20c-10 0 -21.667 0.166992 -35 0.5s-27.5 0.666016 -42.5 0.999023s-29.167 0.666016 -42.5 0.999023
s-24.833 0.5 -34.5 0.5h-17.5c-4 0 -10.667 -0.166992 -20 -0.5s-19.5 -0.666016 -30.5 -0.999023s-22.167 -0.666016 -33.5 -0.999023s-20.333 -0.5 -27 -0.5zM307 9c66.667 0 115 14.832 145 44.499s45 74.834 45 135.501c0 55.333 -15.333 97 -46 125s-82 42 -154 42
h-127v-97c0 -40.667 0.166992 -75.167 0.5 -103.5s1 -51.833 2 -70.5s2.66699 -33.167 5 -43.5s5.5 -17.833 9.5 -22.5s8.83301 -7.5 14.5 -8.5s12.5 -1.5 20.5 -1.5h85zM170 366.999l114 0.00195312c62 0 109.167 12.333 141.5 37s48.5 67 48.5 127c0 30 -4 54.667 -12 74
s-20.167 34.666 -36.5 45.999s-36.5 19.166 -60.5 23.499s-52 6.5 -84 6.5h-72c-8 0 -14.667 -0.333008 -20 -1s-9.33301 -3.33398 -12 -8.00098s-4.66699 -12 -6 -22s-2 -24.167 -2 -42.5s0.166992 -41.666 0.5 -69.999s0.5 -62.833 0.5 -103.5v-67z" />
    <glyph glyph-name="C" unicode="C" horiz-adv-x="756" 
d="M133 346c0 -51.333 6.32812 -98.1641 18.9951 -140.497s31.334 -78.833 56.001 -109.5s54.834 -54.334 90.501 -71.001s76.167 -25 121.5 -25c42 0 78.333 6.33301 109 19s56.667 30.667 78 54s38 51.5 50 84.5s20 69.5 24 109.5h8l-12 -233
c-27.333 -12 -63.166 -22.333 -107.499 -31s-93.5 -13 -147.5 -13s-104 9 -150 27s-86 42.833 -120 74.5s-60.667 69.167 -80 112.5s-29 90.666 -29 141.999c0 52 10.333 100 31 144s48.5 81.667 83.5 113s75.667 55.833 122 73.5s95.166 26.5 146.499 26.5
c20.667 0 42.834 -1.16699 66.501 -3.5s46.667 -5.5 69 -9.5s43.5 -8.66699 63.5 -14s36.667 -11 50 -17l12 -218h-9c-8 79.333 -32.333 141.166 -73 185.499s-99.667 66.5 -177 66.5c-45.333 0 -86.166 -8.5 -122.499 -25.5s-67.166 -40.667 -92.499 -71
s-45 -66.833 -59 -109.5s-21 -89.667 -21 -141z" />
    <glyph glyph-name="D" unicode="D" horiz-adv-x="733" 
d="M601 346c0 51.333 -6.99805 97.835 -20.998 139.502s-33.833 77.167 -59.5 106.5s-56.667 52 -93 68s-76.833 24 -121.5 24h-66c-17.333 0 -30.5 -1.5 -39.5 -4.5s-15.833 -12.5 -20.5 -28.5s-7.33398 -40.833 -8.00098 -74.5s-1 -81.167 -1 -142.5v-273
c0 -38.667 -0.833008 -70.667 -2.5 -96s-3.5 -42.333 -5.5 -51c6 0 15.167 -0.166992 27.5 -0.5s25.666 -0.833008 39.999 -1.5s29 -1.16699 44 -1.5s28.167 -0.5 39.5 -0.5c45.333 0 85.833 7.83301 121.5 23.5s65.667 38.167 90 67.5s43 64.666 56 105.999
s19.5 87.666 19.5 138.999zM690.002 346.002c0 -51.333 -9.66895 -98.165 -29.002 -140.498s-45.833 -78.833 -79.5 -109.5s-73.5 -54.334 -119.5 -71.001s-96 -25 -150 -25h-38.5c-17 0 -34.167 0.333008 -51.5 1c-20.667 0.666992 -42.334 1.33398 -65.001 2.00098
l-141 -3c-5.33301 0 -8 1.16699 -8 3.5s2.66699 3.5 8 3.5c14.667 0 26.334 1 35.001 3s15.667 7.33301 21 16s9.33301 22 12 40s5 42.667 7 74c1.33301 17.333 2.16602 38 2.49902 62s0.333008 48.333 0 73s-0.666016 47.667 -0.999023 69s-0.5 37.666 -0.5 48.999
s-0.166992 25.666 -0.5 42.999s-0.666016 35.333 -0.999023 54s-0.666016 37 -0.999023 55s-0.5 34 -0.5 48c0 22.667 -0.5 40.167 -1.5 52.5s-3.5 21.333 -7.5 27s-10.5 9 -19.5 10s-21.5 1.5 -37.5 1.5c-4 0 -6 1.5 -6 4.5s2 4.5 6 4.5c2 0 8.83301 -0.166992 20.5 -0.5
s24.334 -0.5 38.001 -0.5s26.667 -0.166992 39 -0.5s20.5 -0.5 24.5 -0.5s13.333 0.166992 28 0.5s30.834 0.5 48.501 0.5s34.667 0.166992 51 0.5s28.166 0.5 35.499 0.5c51.333 0 100.166 -8.33301 146.499 -25s87 -40.167 122 -70.5s62.667 -66.833 83 -109.5
s30.5 -90 30.5 -142z" />
    <glyph glyph-name="E" unicode="E" horiz-adv-x="622" 
d="M171 365l82.9951 -0.0078125c31.333 0 56.833 2.83301 76.5 8.5s35.167 13.5 46.5 23.5s19 22 23 36s6 29.667 6 47v21c0 4 1.66699 6 5 6s5 -2 5 -6c0 -7.33301 -0.333008 -18.166 -1 -32.499s-1.16699 -29 -1.5 -44s-0.833008 -28.667 -1.5 -41s-1 -20.5 -1 -24.5
c0 -3.33301 0.333008 -11.666 1 -24.999s1.16699 -27.666 1.5 -42.999s0.833008 -29.666 1.5 -42.999s1 -22 1 -26s-1.66699 -6 -5 -6s-5 2 -5 6v15c0 17.333 -2 33.166 -6 47.499s-11.667 26.5 -23 36.5s-26.833 17.833 -46.5 23.5s-45.167 8.5 -76.5 8.5h-83v-192
c0 -38.667 -0.833008 -70.667 -2.5 -96s-3.5 -42.333 -5.5 -51c7.33301 0 19.833 -0.166992 37.5 -0.5s36.5 -0.666016 56.5 -0.999023s38.833 -0.666016 56.5 -0.999023s30.5 -0.5 38.5 -0.5c28.667 0 55.334 5.66699 80.001 17s46.167 26.5 64.5 45.5
s33.166 40.667 44.499 65s18.666 49.166 21.999 74.499l6 53c0.666992 3.33301 2.83398 4.83301 6.50098 4.5s5.16699 -2.16602 4.5 -5.49902l-6 -54c-4.66699 -40.667 -8.5 -74 -11.5 -100s-5.66699 -46.667 -8 -62s-4.33301 -26.333 -6 -33s-3.5 -10.667 -5.5 -12
c-1.33301 -1.33301 -5.66602 -2.16602 -12.999 -2.49902s-17 -0.666016 -29 -0.999023s-25.833 -0.5 -41.5 -0.5h-49.5h-31h-38.5c-13.667 0 -27.667 0.166992 -42 0.5s-28.166 0.5 -41.499 0.5c-32 0.666992 -65.333 1.33398 -100 2.00098l-141 -3
c-5.33301 0 -8 1.16699 -8 3.5s2.66699 3.5 8 3.5c14.667 0 26.334 1 35.001 3s15.667 7.33301 21 16s9.33301 22 12 40s5 42.667 7 74c1.33301 17.333 2.33301 38 3 62s1 49.333 1 76v80.5v75.5c0 61.333 -0.666992 108.833 -2 142.5s-4.16602 58.5 -8.49902 74.5
s-10.333 25.5 -18 28.5s-17.5 4.5 -29.5 4.5h-18c-4 0 -6 1.5 -6 4.5s2 4.5 6 4.5c6.66699 0 15.667 -0.166992 27 -0.5s22.5 -0.666016 33.5 -0.999023s21.167 -0.666016 30.5 -0.999023s16 -0.5 20 -0.5h28c16.667 0 37.167 0.166992 61.5 0.5
s50.5 0.666016 78.5 0.999023s54.667 0.666016 80 0.999023s47.5 0.5 66.5 0.5h37.5c9.33301 0 18.666 -0.333008 27.999 -1s15.666 -1.66699 18.999 -3c2.66699 -1.33301 6.33398 -18.833 11.001 -52.5s10.667 -77.5 18 -131.5l4 -36c1.33301 -3.33301 0.333008 -5 -3 -5
s-5.66602 1.66699 -6.99902 5l-5 36c-9.33301 56.667 -32.5 100 -69.5 130s-84.167 45.333 -141.5 46h-127c-11.333 0 -19.666 -1.33301 -24.999 -4s-9 -11.834 -11 -27.501s-2.83301 -40.167 -2.5 -73.5s0.5 -80.666 0.5 -141.999v-69z" />
    <glyph glyph-name="F" unicode="F" horiz-adv-x="622" 
d="M134 3c-4 0 -10.332 -0.163086 -18.999 -0.496094s-18.334 -0.666016 -29.001 -0.999023l-32 -1c-10.667 -0.333008 -19.334 -0.5 -26.001 -0.5c-4 0 -6 1.5 -6 4.5s2 4.5 6 4.5h13c12 0 21.667 1.5 29 4.5s12.833 12.5 16.5 28.5s6 40.833 7 74.5s1.5 81.167 1.5 142.5
v175c0 61.333 -0.666992 108.833 -2 142.5s-4.16602 58.5 -8.49902 74.5s-10.333 25.5 -18 28.5s-17.5 4.5 -29.5 4.5h-18c-4 0 -6 1.5 -6 4.5s2 4.5 6 4.5c14 0 31.333 -0.166992 52 -0.5s49 -0.5 85 -0.5c62 0 113.5 0.166992 154.5 0.5s74.333 0.666016 100 0.999023
s45.167 0.666016 58.5 0.999023s23.666 0.5 30.999 0.5c10.667 0 20.834 -0.166992 30.501 -0.5s17.167 -1.16602 22.5 -2.49902c0.666992 -1.33301 1.5 -6.16602 2.5 -14.499s2.5 -21.5 4.5 -39.5s4.33301 -41.333 7 -70s6.66699 -63.334 12 -104.001l8 -66
c0.666992 -3.33301 -0.833008 -5.16602 -4.5 -5.49902s-5.83398 1.16699 -6.50098 4.5l-8 65c-4.66699 32.667 -12.5 62.667 -23.5 90s-25.167 50.5 -42.5 69.5s-37.5 33.667 -60.5 44s-48.5 15.5 -76.5 15.5h-156c-11.333 0 -19.666 -1.33301 -24.999 -4
s-9 -11.834 -11 -27.501s-2.83301 -40.167 -2.5 -73.5s0.5 -80.666 0.5 -141.999v-88h80c31.333 0 56.833 3.16699 76.5 9.5s35.167 15.166 46.5 26.499s19 25.166 23 41.499s6 34.166 6 53.499v14c0 4 1.66699 6 5 6s5 -2 5 -6c0 -7.33301 -0.333008 -18.666 -1 -33.999
s-1.16699 -31 -1.5 -47s-0.833008 -30.833 -1.5 -44.5s-1 -22.167 -1 -25.5c0 -4 0.333008 -13.333 1 -28s1.16699 -30.667 1.5 -48s0.833008 -33.333 1.5 -48s1 -24 1 -28s-1.66699 -6 -5 -6s-5 2 -5 6v16c0 19.333 -2 37 -6 53s-11.667 29.667 -23 41
s-26.833 20.166 -46.5 26.499s-45.167 9.5 -76.5 9.5h-80v-75c0 -61.333 0.5 -108.833 1.5 -142.5s3.33301 -58.5 7 -74.5s9 -25.5 16 -28.5s16.5 -4.5 28.5 -4.5h37c4 0 6 -1.5 6 -4.5s-2 -4.5 -6 -4.5c-7.33301 0 -17.333 0.166992 -30 0.5s-25.667 0.666016 -39 0.999023
s-25.5 0.666016 -36.5 0.999023s-18.167 0.5 -21.5 0.5z" />
    <glyph glyph-name="G" unicode="G" horiz-adv-x="770" 
d="M428 693c-46 0 -87.165 -8.33203 -123.498 -24.999s-67.166 -40.167 -92.499 -70.5s-44.833 -66.833 -58.5 -109.5s-20.5 -90 -20.5 -142c0 -51.333 6.33301 -98.166 19 -140.499s31.334 -78.833 56.001 -109.5s54.834 -54.334 90.501 -71.001s76.167 -25 121.5 -25
c43.333 0 80.666 5.33301 111.999 16s61 24 89 40c0.666992 1.33301 1.16699 3.66602 1.5 6.99902s0.666016 9.5 0.999023 18.5s0.5 21.833 0.5 38.5v66c0 25.333 -0.166992 49 -0.5 71s-0.833008 35.667 -1.5 41c-9.33301 2.66699 -20.666 4.5 -33.999 5.5
s-28 1.83301 -44 2.5c-11.333 0.666992 -25.5 1.16699 -42.5 1.5s-35.333 0.666016 -55 0.999023s-39.834 0.666016 -60.501 0.999023s-40.334 0.5 -59.001 0.5c-3.33301 0 -4.83301 1.16699 -4.5 3.5s2.16602 3.5 5.49902 3.5h67.5c27 0 56.5 0.333008 88.5 1
s65.833 1.83398 101.5 3.50098s71.834 3.83398 108.501 6.50098c4 0 6 -2.66699 6 -8c-0.666992 -48 -1 -98.667 -1 -152v-170c0 -4.66699 -2.66699 -5 -8 -1c-8 6.66699 -18.5 13.334 -31.5 20.001s-23.167 10 -30.5 10c-10 0 -22.167 -2 -36.5 -6
s-30.333 -8.16699 -48 -12.5s-36.834 -8.5 -57.501 -12.5s-42.334 -6 -65.001 -6c-54 0 -104 9 -150 27s-86 42.833 -120 74.5s-60.667 69.167 -80 112.5s-29 90.666 -29 141.999c0 52 10.333 100 31 144s48.5 81.667 83.5 113s75.667 55.833 122 73.5
s95.166 26.5 146.499 26.5c20.667 0 42.834 -1.16699 66.501 -3.5s46.667 -5.5 69 -9.5s43.5 -8.66699 63.5 -14s36.667 -11 50 -17l12 -213c0.666992 -4 -0.5 -6.33301 -3.5 -7s-4.83301 1.33301 -5.5 6c-16 165.333 -99.333 248 -250 248z" />
    <glyph glyph-name="H" unicode="H" horiz-adv-x="696" 
d="M91 434c0 61.333 -0.5 108.833 -1.5 142.5s-3.33301 58.5 -7 74.5s-9.16699 25.5 -16.5 28.5s-17 4.5 -29 4.5h-13c-4 0 -6 1.5 -6 4.5s2 4.5 6 4.5c6.66699 0 15.334 -0.166992 26.001 -0.5l32 -1c10.667 -0.333008 20.334 -0.666016 29.001 -0.999023s15 -0.5 19 -0.5
c3.33301 0 9.66602 0.166992 18.999 0.5s19.666 0.666016 30.999 0.999023s22.5 0.666016 33.5 0.999023s20.167 0.5 27.5 0.5c4 0 6 -1.5 6 -4.5s-2 -4.5 -6 -4.5h-20c-12 0 -21.667 -1.5 -29 -4.5s-12.833 -12.5 -16.5 -28.5s-6 -40.833 -7 -74.5
s-1.5 -81.167 -1.5 -142.5v-80l184 2l178 -3v81c0 61.333 -0.5 108.833 -1.5 142.5s-3.33301 58.5 -7 74.5s-9.16699 25.5 -16.5 28.5s-17 4.5 -29 4.5h-21c-4 0 -6 1.5 -6 4.5s2 4.5 6 4.5c7.33301 0 16.5 -0.166992 27.5 -0.5s22.167 -0.666016 33.5 -0.999023
s21.666 -0.666016 30.999 -0.999023s16 -0.5 20 -0.5s10.5 0.166992 19.5 0.5s18.833 0.666016 29.5 0.999023l32 1c10.667 0.333008 19.667 0.5 27 0.5c4 0 6 -1.5 6 -4.5s-2 -4.5 -6 -4.5h-16c-12 0 -21.5 -1.5 -28.5 -4.5s-12.333 -12.5 -16 -28.5s-6 -40.833 -7 -74.5
s-1.5 -81.167 -1.5 -142.5v-175c0 -61.333 0.5 -108.833 1.5 -142.5s3.33301 -58.5 7 -74.5s9 -25.5 16 -28.5s16.5 -4.5 28.5 -4.5h16c4 0 6 -1.5 6 -4.5s-2 -4.5 -6 -4.5c-7.33301 0 -16.333 0.166992 -27 0.5l-32 1c-10.667 0.333008 -20.5 0.666016 -29.5 0.999023
s-15.5 0.5 -19.5 0.5s-10.667 -0.166992 -20 -0.5s-19.666 -0.666016 -30.999 -0.999023s-22.5 -0.666016 -33.5 -0.999023s-20.167 -0.5 -27.5 -0.5c-4 0 -6 1.5 -6 4.5s2 4.5 6 4.5h21c12 0 21.667 1.5 29 4.5s12.833 12.5 16.5 28.5s6 40.833 7 74.5
s1.5 81.167 1.5 142.5v84l-177 -1c-36 0 -71 0.166992 -105 0.5s-60.667 0.833008 -80 1.5v-85c0 -61.333 0.5 -108.833 1.5 -142.5s3.33301 -58.5 7 -74.5s9.16699 -25.5 16.5 -28.5s17 -4.5 29 -4.5h20c4 0 6 -1.5 6 -4.5s-2 -4.5 -6 -4.5
c-7.33301 0 -16.5 0.166992 -27.5 0.5s-22.167 0.666016 -33.5 0.999023s-21.666 0.666016 -30.999 0.999023s-15.666 0.5 -18.999 0.5c-4 0 -10.333 -0.166992 -19 -0.5s-18.334 -0.666016 -29.001 -0.999023l-32 -1c-10.667 -0.333008 -19.334 -0.5 -26.001 -0.5
c-4 0 -6 1.5 -6 4.5s2 4.5 6 4.5h13c12 0 21.667 1.5 29 4.5s12.833 12.5 16.5 28.5s6 40.833 7 74.5s1.5 81.167 1.5 142.5v175z" />
    <glyph glyph-name="I" unicode="I" horiz-adv-x="281" 
d="M102 434c0 61.333 -0.5 108.835 -1.5 142.502s-3.33301 58.5 -7 74.5s-9.16699 25.5 -16.5 28.5s-17 4.5 -29 4.5h-21c-4 0 -6 1.5 -6 4.5s2 4.5 6 4.5c6.66699 0 15.834 -0.166992 27.501 -0.5l35 -1c11.667 -0.333008 22.334 -0.666016 32.001 -0.999023
s16.167 -0.5 19.5 -0.5c4 0 10.667 0.166992 20 0.5s19.833 0.666016 31.5 0.999023s23 0.666016 34 0.999023s20.167 0.5 27.5 0.5c4 0 6 -1.5 6 -4.5s-2 -4.5 -6 -4.5h-21c-12 0 -21.667 -1.5 -29 -4.5s-12.833 -12.5 -16.5 -28.5s-6 -40.833 -7 -74.5
s-1.5 -81.167 -1.5 -142.5v-175c0 -61.333 0.5 -108.833 1.5 -142.5s3.33301 -58.5 7 -74.5s9.16699 -25.5 16.5 -28.5s17 -4.5 29 -4.5h21c4 0 6 -1.5 6 -4.5s-2 -4.5 -6 -4.5c-7.33301 0 -16.5 0.166992 -27.5 0.5s-22.333 0.666016 -34 0.999023
s-22.167 0.666016 -31.5 0.999023s-16 0.5 -20 0.5c-3.33301 0 -9.83301 -0.166992 -19.5 -0.5s-20.334 -0.666016 -32.001 -0.999023l-35 -1c-11.667 -0.333008 -20.834 -0.5 -27.501 -0.5c-4 0 -6 1.5 -6 4.5s2 4.5 6 4.5h21c12 0 21.667 1.5 29 4.5
s12.833 12.5 16.5 28.5s6 40.833 7 74.5s1.5 81.167 1.5 142.5v175z" />
    <glyph glyph-name="J" unicode="J" horiz-adv-x="285" 
d="M188 319l0.00390625 -23.5c0 -9 0.166992 -18.5 0.5 -28.5s0.5 -19.833 0.5 -29.5v-24.5c0 -51.333 -3 -93.833 -9 -127.5s-15.5 -63.5 -28.5 -89.5s-29.833 -50.333 -50.5 -73s-45.667 -48.334 -75 -77.001c-5.33301 -5.33301 -12 -11.333 -20 -18
s-16.167 -13 -24.5 -19s-16.166 -11 -23.499 -15s-13 -6 -17 -6s-8 0.166992 -12 0.5s-7.66699 0.833008 -11 1.5c-8 2 -14.5 5 -19.5 9s-7.5 8.66699 -7.5 14c0 10.667 3 21.834 9 33.501s16 19.5 30 23.5c5.33301 1.33301 12 2 20 2c12.667 0 25 -0.166992 37 -0.5
s20.333 -0.5 25 -0.5c6.66699 0 14 1.33301 22 4s14 6.33398 18 11.001c10.667 11.333 19.667 24.833 27 40.5s13.333 37.167 18 64.5s8 62.5 10 105.5s3 97.167 3 162.5v175c0 62.667 -0.333008 111 -1 145s-2.83398 58.833 -6.50098 74.5s-9.16699 24.667 -16.5 27
s-17.333 3.5 -30 3.5h-26c-4 0 -6 1.5 -6 4.5s2 4.5 6 4.5c6.66699 0 16.167 -0.166992 28.5 -0.5l37 -1c12.333 -0.333008 23.666 -0.666016 33.999 -0.999023s17.166 -0.5 20.499 -0.5c4 0 10.833 0.166992 20.5 0.5s20.167 0.666016 31.5 0.999023l34 1
c11.333 0.333008 20.666 0.5 27.999 0.5c4 0 6 -1.5 6 -4.5s-2 -4.5 -6 -4.5h-20c-14 0 -24.667 -1.33301 -32 -4s-12.833 -11.834 -16.5 -27.501s-5.83398 -40.5 -6.50098 -74.5s-1 -82 -1 -144v-115z" />
    <glyph glyph-name="K" unicode="K" horiz-adv-x="668" 
d="M243 0c-2 0 -7.99707 0.168945 -17.9971 0.501953s-21 0.5 -33 0.5s-23.333 0.166992 -34 0.5s-18 0.5 -22 0.5s-11.667 -0.166992 -23 -0.5s-23.5 -0.5 -36.5 -0.5s-24.833 -0.166992 -35.5 -0.5s-17 -0.5 -19 -0.5c-4 0 -6 1.5 -6 4.5s2 4.5 6 4.5
c12.667 0 22.667 0.166992 30 0.5s12.666 0.833008 15.999 1.5c7.33301 7.33301 12.166 17.333 14.499 30s4.16602 32.667 5.49902 60c0.666992 14 1.16699 30 1.5 48s0.666016 36.333 0.999023 55s0.5 36.667 0.5 54v43v133c0 61.333 -0.5 108.833 -1.5 142.5
s-3.33301 58.5 -7 74.5s-9.16699 25.5 -16.5 28.5s-17 4.5 -29 4.5h-18c-4 0 -6 1.5 -6 4.5s2 4.5 6 4.5c6.66699 0 15.667 -0.166992 27 -0.5s22.833 -0.666016 34.5 -0.999023s22.167 -0.666016 31.5 -0.999023s16 -0.5 20 -0.5c3.33301 0 9.5 0.166992 18.5 0.5
s19 0.666016 30 0.999023s21.833 0.666016 32.5 0.999023s19.667 0.5 27 0.5c4 0 6 -1.5 6 -4.5s-2 -4.5 -6 -4.5h-18c-12 0 -21.667 -1.5 -29 -4.5s-13 -12.5 -17 -28.5s-6.5 -40.833 -7.5 -74.5s-1.5 -81.167 -1.5 -142.5v-140l180 194c39.333 42 68.5 77.667 87.5 107
s28.5 51 28.5 65c-1.33301 16.667 -14.333 25 -39 25c-4 0 -8.33301 -0.666992 -13 -2s-8 -2 -10 -2c-6 0 -9 2 -9 6s3.66699 6 11 6c4 0 11.333 -0.166992 22 -0.5s21.667 -0.5 33 -0.5s22.166 -0.166992 32.499 -0.5s17.5 -0.5 21.5 -0.5c3.33301 0 9.5 0.166992 18.5 0.5
s19 0.5 30 0.5s21.833 0.166992 32.5 0.5s19 0.5 25 0.5c3.33301 0 5 -1.5 5 -4.5s-1.66699 -4.5 -5 -4.5h-2c-17.333 0 -33.333 -2.83301 -48 -8.5s-31.167 -16 -49.5 -31s-40.333 -35.5 -66 -61.5s-57.834 -59.667 -96.501 -101l-96 -103c9.33301 6 19.833 11 31.5 15
s24.5 6 38.5 6c16.667 0 29 -1 37 -3s16.333 -5.33301 25 -10c15.333 -8 28.166 -17.833 38.499 -29.5s19.5 -25.334 27.5 -41.001s15.667 -33 23 -52s15.666 -39.5 24.999 -61.5c16 -40 29.833 -72.667 41.5 -98s22.834 -45.166 33.501 -59.499s21 -24 31 -29
s21.667 -7.5 35 -7.5h12c6.66699 0 9.83398 -1.5 9.50098 -4.5s-4.16602 -4.5 -11.499 -4.5h-34c-17.333 0 -31.833 -0.666992 -43.5 -2s-21.167 -2 -28.5 -2c-11.333 0 -20.666 1.66699 -27.999 5s-14.666 9.66602 -21.999 18.999c-9.33301 12 -19.5 30.167 -30.5 54.5
s-23.833 56.5 -38.5 96.5c-8 22 -16.333 45.333 -25 70s-18.5 47.167 -29.5 67.5s-23 37.333 -36 51s-27.5 20.5 -43.5 20.5c-9.33301 0 -18.5 -1.33301 -27.5 -4s-20.833 -10.334 -35.5 -23.001l-68 -73v-21c0 -61.333 0.5 -108.833 1.5 -142.5s3.33301 -58.5 7 -74.5
s9.16699 -25.5 16.5 -28.5s17 -4.5 29 -4.5h22c4 0 6 -1.5 6 -4.5s-2 -4.5 -6 -4.5z" />
    <glyph glyph-name="L" unicode="L" horiz-adv-x="609" 
d="M171 161c0 -38.667 -0.837891 -70.6689 -2.50488 -96.002s-3.5 -42.333 -5.5 -51c7.33301 0 20 -0.166992 38 -0.5s37 -0.666016 57 -0.999023s39 -0.666016 57 -0.999023s31 -0.5 39 -0.5c28.667 0 55 7.16699 79 21.5s45 32.666 63 54.999s32.5 47 43.5 74
s18.167 53.167 21.5 78.5l10 91c0.666992 3.33301 2.83398 4.83301 6.50098 4.5s5.16699 -2.16602 4.5 -5.49902l-10 -92c-4.66699 -42 -8.66699 -77.333 -12 -106s-6.16602 -52.167 -8.49902 -70.5s-4.5 -31.833 -6.5 -40.5s-4 -13.667 -6 -15
c-1.33301 -1.33301 -5.66602 -2.33301 -12.999 -3s-17 -1.16699 -29 -1.5s-25.833 -0.666016 -41.5 -0.999023s-32.167 -0.5 -49.5 -0.5h-31h-38c-13.333 0 -27 0.166992 -41 0.5s-27.667 0.5 -41 0.5c-32 0.666992 -64.667 1.33398 -98 2.00098l-141 -3
c-5.33301 0 -8 1.16699 -8 3.5s2.66699 3.5 8 3.5c14.667 0 26.334 1 35.001 3s15.667 7.33301 21 16s9.33301 22 12 40s5 42.667 7 74c1.33301 17.333 2.16602 38 2.49902 62s0.333008 48.333 0 73s-0.666016 47.667 -0.999023 69s-0.5 37.666 -0.5 48.999
s-0.166992 25.666 -0.5 42.999s-0.666016 35.333 -0.999023 54s-0.666016 37 -0.999023 55s-0.5 34 -0.5 48c0 22.667 -0.5 40.167 -1.5 52.5s-3.5 21.333 -7.5 27s-10.5 9 -19.5 10s-21.5 1.5 -37.5 1.5c-4 0 -6 1.5 -6 4.5s2 4.5 6 4.5c2 0 8.83301 -0.166992 20.5 -0.5
s24.334 -0.5 38.001 -0.5s26.667 -0.166992 39 -0.5s20.5 -0.5 24.5 -0.5s11.167 0.166992 21.5 0.5s21.833 0.5 34.5 0.5s25.167 0.166992 37.5 0.5s22.166 0.5 29.499 0.5c4 0 6 -1.5 6 -4.5s-2 -4.5 -6 -4.5h-28c-17.333 0 -30.5 -1.5 -39.5 -4.5
s-15.833 -12.5 -20.5 -28.5s-7.33398 -40.833 -8.00098 -74.5s-1 -81.167 -1 -142.5v-273z" />
    <glyph glyph-name="M" unicode="M" horiz-adv-x="855" 
d="M394 211c-2.66699 0 -5.33594 2.33496 -8.00293 7.00195l-275 401l-1 -360c0 -40.667 1.33301 -75.167 4 -103.5s6.5 -51.833 11.5 -70.5s11 -33.167 18 -43.5s14.5 -17.833 22.5 -22.5s16.167 -7.5 24.5 -8.5s16.5 -1.5 24.5 -1.5h14c3.33301 0 5 -1.5 5 -4.5
s-1.66699 -4.5 -5 -4.5h-31c-13.333 0 -26.833 0.333008 -40.5 1s-26.167 1.16699 -37.5 1.5s-19 0.5 -23 0.5c-7.33301 0 -19.166 -0.5 -35.499 -1.5s-31.5 -1.5 -45.5 -1.5c-3.33301 0 -5.16602 1.5 -5.49902 4.5s1.83398 4.5 6.50098 4.5h6c11.333 0 21.5 2 30.5 6
s16.667 14.167 23 30.5s11.333 41.166 15 74.499s5.5 79.666 5.5 138.999v94c0 34 0.166992 67.333 0.5 100s0.5 62.5 0.5 89.5v61.5c0 18.667 -4.33301 33 -13 43c-8.66699 9.33301 -18.5 18 -29.5 26s-22.833 12 -35.5 12h-5c-3.33301 0 -5 1.33301 -5 4s1.66699 4 5 4
c26 0 47 0.333008 63 1s28.5 1.5 37.5 2.5s15.333 1.83301 19 2.5s6.5 1 8.5 1c4.66699 0 8 -2 10 -6c3.33301 -6.66699 9 -16.167 17 -28.5s15.667 -23.5 23 -33.5l241 -355l203 316c22.667 36.667 39.167 63.667 49.5 81s20.166 26 29.499 26c4 0 11.333 -0.333008 22 -1
s22.334 -1.5 35.001 -2.5s24.667 -1.83301 36 -2.5s19 -1 23 -1s6 -1.5 6 -4.5s-2 -4.5 -6 -4.5h-15c-12 0 -21.667 -1.5 -29 -4.5s-12.833 -12.5 -16.5 -28.5s-6 -40.833 -7 -74.5s-1.5 -81.167 -1.5 -142.5v-175c0 -61.333 0.5 -108.833 1.5 -142.5s3.33301 -58.5 7 -74.5
s9.16699 -25.5 16.5 -28.5s17 -4.5 29 -4.5h15c4 0 6 -1.5 6 -4.5s-2 -4.5 -6 -4.5c-7.33301 0 -16.333 0.166992 -27 0.5l-32 1c-10.667 0.333008 -20.5 0.666016 -29.5 0.999023s-15.167 0.5 -18.5 0.5c-4 0 -10.667 -0.166992 -20 -0.5
s-19.666 -0.666016 -30.999 -0.999023l-34 -1c-11.333 -0.333008 -20.333 -0.5 -27 -0.5c-4 0 -6 1.5 -6 4.5s2 4.5 6 4.5h20c12 0 21.667 1.5 29 4.5s12.833 12.5 16.5 28.5s6 40.833 7 74.5s1.5 81.167 1.5 142.5v354c0 19.333 -2.83301 25.333 -8.5 18
s-15.834 -22 -30.501 -44l-236 -369c-2.66699 -4.66699 -5.66699 -7 -9 -7h-9z" />
    <glyph glyph-name="N" unicode="N" horiz-adv-x="716" 
d="M-1 685c-3.33301 0 -5.00293 1.33496 -5.00293 4.00195s1.66699 4 5 4c52 0 89 0.666992 111 2s34.667 2 38 2c4.66699 0 8 -2 10 -6c3.33301 -6.66699 8.66602 -14.834 15.999 -24.501s15 -19.167 23 -28.5l416 -517v313c0 61.333 -3.66699 108.833 -11 142.5
s-16.666 58.5 -27.999 74.5s-23.666 25.5 -36.999 28.5s-26 4.5 -38 4.5h-14c-4 0 -6 1.5 -6 4.5s2 4.5 6 4.5c7.33301 0 17.666 -0.166992 30.999 -0.5s27 -0.666016 41 -0.999023s26.833 -0.666016 38.5 -0.999023s19.5 -0.5 23.5 -0.5c7.33301 0 18.5 0.5 33.5 1.5
s29.833 1.5 44.5 1.5c4 0 6 -1.5 6 -4.5s-2 -4.5 -6 -4.5h-7c-12 0 -22.167 -1.5 -30.5 -4.5s-15 -12.5 -20 -28.5s-8.5 -40.833 -10.5 -74.5s-3 -81.167 -3 -142.5v-427c0 -6.66699 -2.66699 -10 -8 -10c-3.33301 0 -7.33301 2.33301 -12 7s-9 9.66699 -13 15l-482 601
l-1 -361c0 -61.333 3.16699 -108.833 9.5 -142.5s14.5 -58.5 24.5 -74.5s21.333 -25.5 34 -28.5s25 -4.5 37 -4.5h14c3.33301 0 5 -1.5 5 -4.5s-1.66699 -4.5 -5 -4.5h-31c-13.333 0 -26.833 0.333008 -40.5 1s-26.167 1.16699 -37.5 1.5s-19 0.5 -23 0.5
c-7.33301 0 -19.166 -0.5 -35.499 -1.5s-31.5 -1.5 -45.5 -1.5c-3.33301 0 -5.16602 1.5 -5.49902 4.5s1.83398 4.5 6.50098 4.5h6c11.333 0 21.5 2 30.5 6s16.667 14.167 23 30.5s11.333 41.166 15 74.499s5.5 79.666 5.5 138.999l1 359
c0 3.33301 -1.16699 7.83301 -3.5 13.5s-6.5 11.5 -12.5 17.5c-11.333 11.333 -23 20.166 -35 26.499s-26.667 9.5 -44 9.5h-4z" />
    <glyph glyph-name="O" unicode="O" horiz-adv-x="794" 
d="M43 346c0 52 9.66504 100.001 28.998 144.001s45.333 81.667 78 113s70.334 55.833 113.001 73.5s87.667 26.5 135 26.5c46.667 0 91.334 -9 134.001 -27s80.167 -42.833 112.5 -74.5s58 -69.334 77 -113.001s28.5 -91.167 28.5 -142.5s-9.83301 -98.666 -29.5 -141.999
s-46 -80.833 -79 -112.5s-71.167 -56.5 -114.5 -74.5s-88.333 -27 -135 -27c-47.333 0 -92 9 -134 27s-79 42.833 -111 74.5s-57.333 69.167 -76 112.5s-28 90.666 -28 141.999zM132.998 346.001c0 -51.333 5.66406 -98.166 16.9971 -140.499s27.833 -78.833 49.5 -109.5
s48.334 -54.334 80.001 -71.001s67.834 -25 108.501 -25s77.834 8.33301 111.501 25s62.5 40.334 86.5 71.001s42.5 67.167 55.5 109.5s19.5 89.166 19.5 140.499s-5.83301 98.333 -17.5 141s-28.667 79.167 -51 109.5s-49.5 54 -81.5 71s-68.333 25.5 -109 25.5
c-41.333 0 -78.5 -8.5 -111.5 -25.5s-61.167 -40.667 -84.5 -71s-41.333 -66.833 -54 -109.5s-19 -89.667 -19 -141z" />
    <glyph glyph-name="P" unicode="P" horiz-adv-x="613" 
d="M144 2c-4 0 -12.165 -0.167969 -24.498 -0.500977s-25.333 -0.5 -39 -0.5s-26.334 -0.166992 -38.001 -0.5s-18.5 -0.5 -20.5 -0.5c-4 0 -6 1.5 -6 4.5s2 4.5 6 4.5c24 0 39.5 0.5 46.5 1.5s6.83301 1.16699 -0.5 0.5c7.33301 7.33301 12.166 17.333 14.499 30
s4.16602 32.667 5.49902 60c0.666992 14 1.16699 30 1.5 48s0.666016 36.333 0.999023 55s0.5 36.667 0.5 54v43v133c0 61.333 -0.5 108.833 -1.5 142.5s-3.33301 58.5 -7 74.5s-9.16699 25.5 -16.5 28.5s-17 4.5 -29 4.5h-18c-4 0 -6 1.5 -6 4.5s2 4.5 6 4.5
c6.66699 0 15.667 -0.166992 27 -0.5s22.5 -0.666016 33.5 -0.999023s21.167 -0.666016 30.5 -0.999023s16 -0.5 20 -0.5c3.33301 0 13.666 0.166992 30.999 0.5s36.333 0.666016 57 0.999023s39.834 0.666016 57.501 0.999023s28.834 0.5 33.501 0.5
c40.667 0 77.167 -4.16699 109.5 -12.5s60 -20.666 83 -36.999s40.667 -36.5 53 -60.5s18.5 -51.333 18.5 -82s-6.33301 -58.667 -19 -84s-30.334 -47 -53.001 -65s-49.834 -32 -81.501 -42s-66.5 -15 -104.5 -15c-25.333 0.666992 -50.166 1 -74.499 1h-73.5v-36
c0 -61.333 0.833008 -108.833 2.5 -142.5s4.33398 -58.5 8.00098 -74.5s8.5 -25.667 14.5 -29s13.333 -5 22 -5h51c4 0 6 -1.5 6 -4.5s-2 -4.5 -6 -4.5c-7.33301 0 -17 0.166992 -29 0.5s-24.167 0.5 -36.5 0.5s-23.666 0.166992 -33.999 0.5s-17.5 0.5 -21.5 0.5z
M167.002 305.999l125.998 -0.000976562c62.667 0 110.667 17.5 144 52.5s50 82.833 50 143.5c0 120.667 -64.333 181 -193 181h-88c-9.33301 0 -16.666 -1 -21.999 -3s-9.16602 -7.66699 -11.499 -17s-3.83301 -24.166 -4.5 -44.499s-1 -48.833 -1 -85.5v-227z" />
    <glyph glyph-name="Q" unicode="Q" horiz-adv-x="794" 
d="M43 351c0 51.333 9.66309 98.6699 28.9961 142.003s45.333 80.5 78 111.5s70.334 55.167 113.001 72.5s87.334 26 134.001 26s91.334 -8.83301 134.001 -26.5s80.167 -42.167 112.5 -73.5s58 -68.5 77 -111.5s28.5 -89.833 28.5 -140.5
c0 -47.333 -8.5 -91.166 -25.5 -131.499s-40 -75.666 -69 -105.999s-62.667 -55.333 -101 -75s-78.833 -31.834 -121.5 -36.501c0 -26 1.16699 -49.5 3.5 -70.5s7 -38.833 14 -53.5s16.833 -25.834 29.5 -33.501s29.334 -11.5 50.001 -11.5c16 0 30.833 7.66699 44.5 23
s26.167 34.666 37.5 57.999c2 4 5.16699 5.16699 9.5 3.5s5.16602 -4.83398 2.49902 -9.50098c-8 -13.333 -17.167 -26.333 -27.5 -39s-21.833 -23.667 -34.5 -33s-26.5 -16.833 -41.5 -22.5s-30.5 -8.5 -46.5 -8.5c-43.333 0 -75 15.5 -95 46.5s-30 81.5 -30 151.5
c-42 5.33301 -81.667 17.666 -119 36.999s-69.666 44.333 -96.999 75s-49 66 -65 106s-24 83.333 -24 130zM132.996 351.004c0 -50.667 5.66504 -97 16.998 -139s27.833 -78.167 49.5 -108.5s48.334 -53.833 80.001 -70.5s67.834 -25 108.501 -25s77.667 8.33301 111 25
s62 40.167 86 70.5s42.5 66.5 55.5 108.5s19.5 88.333 19.5 139s-5.83301 97 -17.5 139s-28.667 78 -51 108s-49.5 53.333 -81.5 70s-68.333 25 -109 25s-77.5 -8.33301 -110.5 -25s-61.167 -40 -84.5 -70s-41.333 -66 -54 -108s-19 -88.333 -19 -139z" />
    <glyph glyph-name="R" unicode="R" horiz-adv-x="642" 
d="M132 2c-4 0 -11.498 -0.162109 -22.498 -0.495117s-22.667 -0.5 -35 -0.5s-23.666 -0.166992 -33.999 -0.5s-16.5 -0.5 -18.5 -0.5c-4 0 -6 1.5 -6 4.5s2 4.5 6 4.5c12.667 0 22.667 0.166992 30 0.5s12.666 0.833008 15.999 1.5
c7.33301 7.33301 12.166 17.333 14.499 30s4.16602 32.667 5.49902 60c0.666992 14 1.16699 30 1.5 48s0.666016 36.333 0.999023 55s0.5 36.667 0.5 54v43v133c0 61.333 -0.5 108.833 -1.5 142.5s-3.33301 58.5 -7 74.5s-9.16699 25.5 -16.5 28.5s-17 4.5 -29 4.5h-18
c-4 0 -6 1.5 -6 4.5s2 4.5 6 4.5c6.66699 0 15.667 -0.166992 27 -0.5s22.5 -0.666016 33.5 -0.999023s21.167 -0.666016 30.5 -0.999023s16 -0.5 20 -0.5c3.33301 0 10.833 0.166992 22.5 0.5s24.334 0.666016 38.001 0.999023s26.5 0.666016 38.5 0.999023s20 0.5 24 0.5
c86.667 0 151 -14 193 -42s63 -68.667 63 -122c0 -21.333 -6 -40.833 -18 -58.5s-28 -33.334 -48 -47.001s-42.833 -25.334 -68.5 -35.001s-51.834 -16.834 -78.501 -21.501c21.333 -0.666992 39.833 -3.33398 55.5 -8.00098s30.5 -13.167 44.5 -25.5s27.667 -29 41 -50
s28 -47.833 44 -80.5c20.667 -44 38 -78.833 52 -104.5s26.667 -45.167 38 -58.5s22.5 -21.833 33.5 -25.5s24.167 -5.5 39.5 -5.5h7c4.66699 0 7.16699 -1.5 7.5 -4.5s-2.16699 -4.5 -7.5 -4.5h-36c-17.333 0 -31.333 -0.666992 -42 -2s-19.667 -2 -27 -2
c-11.333 0 -20.666 1.66699 -27.999 5s-15 9.66602 -23 18.999c-10.667 12 -22.834 30.167 -36.501 54.5s-29.167 56.5 -46.5 96.5c-18.667 43.333 -35.167 77.5 -49.5 102.5s-28.666 43.833 -42.999 56.5s-30.333 20.667 -48 24s-38.834 5.33301 -63.501 6h-41v-101
c0 -61.333 0.5 -108.833 1.5 -142.5s3.33301 -58.5 7 -74.5s9.16699 -25.5 16.5 -28.5s17 -4.5 29 -4.5h20c4 0 6 -1.5 6 -4.5s-2 -4.5 -6 -4.5c-7.33301 0 -16.333 0.166992 -27 0.5s-21.5 0.5 -32.5 0.5s-21.167 0.166992 -30.5 0.5s-15.666 0.5 -18.999 0.5z
M167.002 370.005c9.33301 0.666992 20.832 1 34.499 1h49.5c19.333 0 39 3 59 9s38.167 15.333 54.5 28s29.666 29 39.999 49s15.5 44 15.5 72c0 52 -13.5 90.833 -40.5 116.5s-71.833 38.5 -134.5 38.5h-39c-9.33301 0 -16.666 -1 -21.999 -3
s-9.16602 -7.83301 -11.499 -17.5s-3.83301 -24.667 -4.5 -45s-1 -48.833 -1 -85.5v-163z" />
    <glyph glyph-name="S" unicode="S" horiz-adv-x="561" 
d="M277 703c50 0 91.666 -2.66504 124.999 -7.99805s64.333 -11.333 93 -18c3.33301 -1.33301 5.83301 -2.5 7.5 -3.5s2.83398 -3.5 3.50098 -7.5c0.666992 -5.33301 0.666992 -13.5 0 -24.5s-1.5 -26.167 -2.5 -45.5s-1.83301 -43.333 -2.5 -72s-1 -62.667 -1 -102
c0 -6.66699 -1.66699 -10 -5 -10s-5 3.33301 -5 10c0.666992 38.667 -1.33301 74.5 -6 107.5s-14.5 61.667 -29.5 86s-36.667 43.333 -65 57s-65.833 20.5 -112.5 20.5c-30.667 0 -56.834 -3.33301 -78.501 -10s-39.334 -16 -53.001 -28s-23.667 -26.167 -30 -42.5
s-9.5 -33.833 -9.5 -52.5c0 -24 5.83301 -44.833 17.5 -62.5s27.167 -33.5 46.5 -47.5s41.333 -26.667 66 -38s50 -22.333 76 -33s51.5 -21.834 76.5 -33.501s47.333 -25.167 67 -40.5s35.5 -33 47.5 -53s18 -43.333 18 -70c0 -28.667 -5.66699 -54.834 -17 -78.501
s-27 -43.834 -47 -60.501s-43.167 -29.667 -69.5 -39s-54.5 -14 -84.5 -14c-27.333 0 -51.333 0.666992 -72 2s-40 3.33301 -58 6s-35.167 5.83398 -51.5 9.50098s-33.5 7.83398 -51.5 12.501c-4.66699 1.33301 -7.5 2.5 -8.5 3.5s-1.5 3.16699 -1.5 6.5v52.5
c0 23.667 -0.166992 48.5 -0.5 74.5s-0.5 51 -0.5 75v54c0 7.33301 1.83301 11 5.5 11s5.5 -3.66699 5.5 -11c0 -46.667 4.33301 -87.834 13 -123.501s22.334 -65.5 41.001 -89.5s42.834 -42.167 72.501 -54.5s65.167 -18.5 106.5 -18.5c54.667 0 94.667 12.667 120 38
s38 57.666 38 96.999c0 24.667 -5.66699 45.834 -17 63.501s-26.5 33.5 -45.5 47.5s-40.667 26.5 -65 37.5s-49.166 21.833 -74.499 32.5c-26.667 10.667 -53 22 -79 34s-49.167 25.667 -69.5 41s-36.666 32.833 -48.999 52.5s-18.5 42.834 -18.5 69.501
c0 30 6.16699 56.667 18.5 80s29.166 43.166 50.499 59.499s46.166 28.833 74.499 37.5s58.5 13 90.5 13z" />
    <glyph glyph-name="T" unicode="T" horiz-adv-x="658" 
d="M368 259c0 -61.333 0.499023 -108.833 1.49902 -142.5s3.33301 -58.5 7 -74.5s9.16699 -25.5 16.5 -28.5s17 -4.5 29 -4.5h18c4 0 6 -1.5 6 -4.5s-2 -4.5 -6 -4.5c-7.33301 0 -16.5 0.166992 -27.5 0.5l-33 1c-11 0.333008 -21.167 0.666016 -30.5 0.999023
s-15.666 0.5 -18.999 0.5c-4 0 -10.667 -0.166992 -20 -0.5s-19.5 -0.666016 -30.5 -0.999023s-22.167 -0.666016 -33.5 -0.999023s-20.333 -0.5 -27 -0.5c-4 0 -6 1.5 -6 4.5s2 4.5 6 4.5h18c12 0 21.667 1.5 29 4.5s12.833 12.5 16.5 28.5s6 40.833 7 74.5
s1.5 81.167 1.5 142.5v435c-14 -0.666992 -28.333 -1 -43 -1h-39c-26.667 0 -49.334 -4.5 -68.001 -13.5s-34.334 -22.167 -47.001 -39.5s-23 -38.666 -31 -63.999s-14.333 -54.333 -19 -87l-8 -57c-1.33301 -3.33301 -3.66602 -5 -6.99902 -5s-4.33301 1.66699 -3 5l8 57
c3.33301 26.667 5.5 52.334 6.5 77.001s1.66699 46.5 2 65.5s0.5 34.333 0.5 46s0.666992 17.834 2 18.501c3.33301 1.33301 15.833 2.83301 37.5 4.5s49.834 2.5 84.501 2.5c6 0 15.833 -0.166992 29.5 -0.5s28.5 -0.5 44.5 -0.5s31.833 -0.166992 47.5 -0.5
s29.167 -0.5 40.5 -0.5c10.667 0 20.5 0.166992 29.5 0.5s19 0.5 30 0.5s24.333 0.166992 40 0.5s36.167 0.5 61.5 0.5h1c34.667 0 62.834 -0.833008 84.501 -2.5s34.167 -3.16699 37.5 -4.5c1.33301 -0.666992 2 -6.83398 2 -18.501s0.166992 -27 0.5 -46
s1 -40.833 2 -65.5s3.5 -50.334 7.5 -77.001l7 -57c1.33301 -3.33301 0.5 -5 -2.5 -5s-5.16699 1.66699 -6.5 5l-9 57c-5.33301 32.667 -11.833 61.667 -19.5 87s-17.834 46.666 -30.501 63.999s-28.5 30.666 -47.5 39.999s-41.833 14 -68.5 14h-80v-435z" />
    <glyph glyph-name="U" unicode="U" horiz-adv-x="665" 
d="M567 434c0 61.333 -3.49902 108.833 -10.499 142.5s-16 58.5 -27 74.5s-23.167 25.5 -36.5 28.5s-26 4.5 -38 4.5h-9c-4 0 -6 1.5 -6 4.5s2 4.5 6 4.5c7.33301 0 17.333 -0.166992 30 -0.5s25.5 -0.666016 38.5 -0.999023s25 -0.666016 36 -0.999023s18.5 -0.5 22.5 -0.5
c7.33301 0 19 0.5 35 1.5s31 1.5 45 1.5c4 0 6 -1.5 6 -4.5s-2 -4.5 -6 -4.5h-7c-12 0 -22.167 -1.5 -30.5 -4.5s-15 -12.5 -20 -28.5s-8.66699 -40.833 -11 -74.5s-3.5 -81.167 -3.5 -142.5v-190c0 -33.333 -5.66699 -65.333 -17 -96s-27.833 -57.667 -49.5 -81
s-48.334 -42 -80.001 -56s-67.5 -21 -107.5 -21c-36 0 -68.833 6 -98.5 18s-54.834 29.167 -75.501 51.5s-36.667 49.666 -48 81.999s-17 69.166 -17 110.499v182c0 61.333 -0.5 108.833 -1.5 142.5s-3.33301 58.5 -7 74.5s-9 25.5 -16 28.5s-16.5 4.5 -28.5 4.5h-14
c-4 0 -6 1.5 -6 4.5s2 4.5 6 4.5c6.66699 0 15.334 -0.166992 26.001 -0.5l32 -1c10.667 -0.333008 20.334 -0.666016 29.001 -0.999023s15 -0.5 19 -0.5c3.33301 0 9.66602 0.166992 18.999 0.5s19.5 0.666016 30.5 0.999023l33 1c11 0.333008 20.167 0.5 27.5 0.5
c4 0 6 -1.5 6 -4.5s-2 -4.5 -6 -4.5h-18c-12 0 -21.667 -1.5 -29 -4.5s-12.833 -12.5 -16.5 -28.5s-6.16699 -40.833 -7.5 -74.5s-2 -81.167 -2 -142.5l-1 -155c0 -81.333 19.167 -144.5 57.5 -189.5s90.5 -67.5 156.5 -67.5c26.667 0 51.667 5.66699 75 17s43.5 27 60.5 47
s30.333 43.5 40 70.5s14.5 56.167 14.5 87.5v190z" />
    <glyph glyph-name="V" unicode="V" horiz-adv-x="692" 
d="M385 96c2 0 3.66602 1.66699 4.99902 5l148 386c4 10.667 8.16699 22.334 12.5 35.001s8.33301 25.667 12 39s6.5 26.333 8.5 39s3 24.667 3 36c0 14.667 -5 26.5 -15 35.5s-23.667 13.5 -41 13.5c-4 0 -9.16699 -0.666992 -15.5 -2s-10.5 -2 -12.5 -2
c-4.66699 0 -7 2 -7 6c0 1.33301 0.666992 2.66602 2 3.99902s4.66602 2 9.99902 2c4.66699 0 12.334 -0.166992 23.001 -0.5s22 -0.5 34 -0.5s23.5 -0.166992 34.5 -0.5s18.5 -0.5 22.5 -0.5c3.33301 0 8.33301 0.166992 15 0.5s14 0.5 22 0.5s16.167 0.166992 24.5 0.5
s15.5 0.5 21.5 0.5c4 0 5.5 -1.5 4.5 -4.5s-3.16699 -4.5 -6.5 -4.5h-2c-27.333 0 -51.333 -20 -72 -60c-12.667 -21.333 -24.834 -45 -36.501 -71s-21.834 -49.667 -30.501 -71l-184 -482c-1.33301 -2 -3.66602 -3 -6.99902 -3h-10c-4.66699 0 -7.33398 1 -8.00098 3
l-191 483c-21.333 48.667 -38.166 86.667 -50.499 114s-23.166 47.333 -32.499 60s-18.166 20.334 -26.499 23.001s-18.833 4 -31.5 4h-8c-4.66699 0 -7 1.33301 -7 4c0 3.33301 2 5 6 5c7.33301 0 15.833 -0.166992 25.5 -0.5l29 -1
c9.66699 -0.333008 18.5 -0.666016 26.5 -0.999023s14 -0.5 18 -0.5s11.167 0.166992 21.5 0.5s21.666 0.666016 33.999 0.999023s24.5 0.666016 36.5 0.999023s21.667 0.5 29 0.5c4 0 6.5 -1.5 7.5 -4.5s-0.5 -4.5 -4.5 -4.5h-21c-12.667 0 -22 -1.83301 -28 -5.5
s-8.16699 -12.5 -6.5 -26.5s7.83398 -34.833 18.501 -62.5s26.667 -65.5 48 -113.5l147 -375c1.33301 -3.33301 3 -5 5 -5z" />
    <glyph glyph-name="W" unicode="W" horiz-adv-x="982" 
d="M486 350l-78.001 183.002c-16 36.667 -29 65.334 -39 86.001s-18.833 35.667 -26.5 45s-15.5 15 -23.5 17s-18.333 3 -31 3h-8c-4.66699 0 -7 1.33301 -7 4c0 3.33301 2 5 6 5c7.33301 0 15.833 -0.166992 25.5 -0.5l29 -1
c9.66699 -0.333008 18.5 -0.666016 26.5 -0.999023s14 -0.5 18 -0.5s10.667 0.166992 20 0.5s19.5 0.666016 30.5 0.999023l33 1c11 0.333008 20.167 0.5 27.5 0.5c4 0 6 -1.5 6 -4.5s-2 -4.5 -6 -4.5h-8c-9.33301 0 -17.333 -1.5 -24 -4.5s-10 -9.83301 -10 -20.5
c0 -4 0.333008 -9 1 -15s2.33398 -14 5.00098 -24s6.66699 -22.833 12 -38.5s13 -35.5 23 -59.5l43 -100l41 100c9.33301 21.333 16.666 42.833 21.999 64.5s8 38.5 8 50.5c0 16 -3.16699 28 -9.5 36s-14.833 12 -25.5 12c-4 0 -8.5 -0.5 -13.5 -1.5s-8.5 -1.5 -10.5 -1.5
c-4 0 -6 1.66699 -6 5c0 1.33301 0.5 2.66602 1.5 3.99902s4.16699 2 9.5 2c4.66699 0 11.334 -0.166992 20.001 -0.5s17.667 -0.5 27 -0.5s18.333 -0.166992 27 -0.5s15 -0.5 19 -0.5c3.33301 0 9.33301 0.166992 18 0.5s18.334 0.5 29.001 0.5s21 0.166992 31 0.5
s18 0.5 24 0.5c4 0 5.83301 -1.5 5.5 -4.5s-2.16602 -4.5 -5.49902 -4.5h-26c-25.333 0 -48 -12.833 -68 -38.5s-41.667 -68.167 -65 -127.5l-47 -111l136 -316c1.33301 -3.33301 3 -5 5 -5c1.33301 0 2.66602 1.66699 3.99902 5l152 396c4 10.667 8 22.334 12 35.001
s7.83301 25.5 11.5 38.5s6.5 25.833 8.5 38.5s3 24.667 3 36c0 33.333 -17 50 -51 50c-4 0 -9.16699 -0.666992 -15.5 -2s-10.5 -2 -12.5 -2c-4.66699 0 -7 2 -7 6c0 1.33301 0.666992 2.66602 2 3.99902s4.66602 2 9.99902 2c4.66699 0 12.334 -0.166992 23.001 -0.5
s21.834 -0.5 33.501 -0.5s22.834 -0.166992 33.501 -0.5s18 -0.5 22 -0.5c3.33301 0 8.5 0.166992 15.5 0.5s14.5 0.5 22.5 0.5s16.333 0.166992 25 0.5s16 0.5 22 0.5c4 0 5.83301 -1.5 5.5 -4.5s-2.16602 -4.5 -5.49902 -4.5h-3c-24.667 0 -47.834 -16.167 -69.501 -48.5
s-45.834 -83.5 -72.501 -153.5l-187 -483c-1.33301 -2 -3.66602 -3 -6.99902 -3h-10c-3.33301 0 -5.16602 0.166992 -5.49902 0.5s-0.833008 1.16602 -1.5 2.49902l-144 335l-150 -334c-1.33301 -2 -3.33301 -3 -6 -3h-8c-4.66699 0 -7.33398 1 -8.00098 3l-184 485
c-18.667 48 -33.834 85.333 -45.501 112s-22.167 46.5 -31.5 59.5s-18.5 20.833 -27.5 23.5s-20.167 4 -33.5 4h-2c-4 0 -6 1.33301 -6 4c0 3.33301 1.66699 5 5 5c7.33301 0 15.5 -0.166992 24.5 -0.5l27 -1c9 -0.333008 17.167 -0.666016 24.5 -0.999023s13 -0.5 17 -0.5
s12.167 0.166992 24.5 0.5s25.833 0.666016 40.5 0.999023s29 0.666016 43 0.999023s24.667 0.5 32 0.5c4 0 6.16699 -1.5 6.5 -4.5s-1.5 -4.5 -5.5 -4.5h-26c-15.333 0 -26.333 -2.5 -33 -7.5s-10.334 -11.833 -11.001 -20.5c0 -10 5.66699 -32.5 17 -67.5
s30.333 -86.5 57 -154.5l129 -338c1.33301 -3.33301 3 -5 5 -5c1.33301 0 2.66602 1.66699 3.99902 5z" />
    <glyph glyph-name="X" unicode="X" horiz-adv-x="683" 
d="M367 399l68.9902 95.002c28.667 39.333 49.167 71.666 61.5 96.999s18.5 46.666 18.5 63.999c0 19.333 -14 29 -42 29c-4 0 -9.83301 -0.5 -17.5 -1.5s-12.167 -1.5 -13.5 -1.5c-4.66699 0 -6.33398 1.66699 -5.00098 5
c0.666992 1.33301 1.83398 2.66602 3.50098 3.99902s5.16699 2 10.5 2c4 0 12 -0.166992 24 -0.5s24.833 -0.5 38.5 -0.5s26.5 -0.166992 38.5 -0.5s20 -0.5 24 -0.5c3.33301 0 8.5 0.166992 15.5 0.5s14.5 0.5 22.5 0.5s16.167 0.166992 24.5 0.5s15.5 0.5 21.5 0.5
c4.66699 0 6.66699 -1.5 6 -4.5s-2.66699 -4.5 -6 -4.5h-2c-14 0 -29.667 -4.16699 -47 -12.5s-33.666 -21.833 -48.999 -40.5c-10 -10 -20.167 -21.167 -30.5 -33.5s-20.666 -24.833 -30.999 -37.5s-20.166 -25 -29.499 -37s-17.666 -23 -24.999 -33l-74 -100l114 -181
c30 -48.667 54.5 -86.334 73.5 -113.001s34.833 -46.5 47.5 -59.5s23.667 -20.833 33 -23.5s19.666 -4 30.999 -4h9c5.33301 0 8 -1.33301 8 -4c0 -3.33301 -2 -5 -6 -5c-8 0 -17.167 0.166992 -27.5 0.5s-20.5 0.666016 -30.5 0.999023s-19.167 0.666016 -27.5 0.999023
s-14.5 0.5 -18.5 0.5s-11.5 -0.166992 -22.5 -0.5s-23 -0.666016 -36 -0.999023s-25.833 -0.666016 -38.5 -0.999023s-22.667 -0.5 -30 -0.5c-4.66699 0 -7.66699 1.5 -9 4.5s0 4.5 4 4.5h22c13.333 0 22.833 1.83301 28.5 5.5s6.33398 12.5 2.00098 26.5
s-14.666 34.833 -30.999 62.5s-40.166 65.167 -71.499 112.5l-76 121l-97 -134c-10 -14 -19.667 -28.333 -29 -43s-17.333 -28.5 -24 -41.5s-12 -25 -16 -36s-6 -19.833 -6 -26.5c0 -13.333 4.5 -24.666 13.5 -33.999s20.167 -14 33.5 -14c8.66699 0 18 0.833008 28 2.5
s16 2.5 18 2.5c4.66699 0 6.33398 -2.33301 5.00098 -7c-0.666992 -1.33301 -2 -2.66602 -4 -3.99902s-5.66699 -2 -11 -2c-4.66699 0 -14.167 0.166992 -28.5 0.5s-29.666 0.5 -45.999 0.5s-31.666 0.166992 -45.999 0.5s-23.5 0.5 -27.5 0.5
c-3.33301 0 -8.5 -0.166992 -15.5 -0.5s-14.5 -0.5 -22.5 -0.5s-16.333 -0.166992 -25 -0.5s-16.334 -0.5 -23.001 -0.5c-4 0 -5.83301 1.5 -5.5 4.5s2.5 4.5 6.5 4.5h7c14.667 0 29.167 4.16699 43.5 12.5s29.5 20.833 45.5 37.5s33.333 37.5 52 62.5
s40.334 54.167 65.001 87.5l102 139l-84 135c-30.667 48.667 -55 86.5 -73 113.5s-33 47 -45 60s-22.667 20.833 -32 23.5s-20.666 4 -33.999 4h-8c-6 0 -9 1.33301 -9 4c0 3.33301 2.33301 5 7 5c7.33301 0 16.166 -0.166992 26.499 -0.5s20.5 -0.666016 30.5 -0.999023
s19.167 -0.666016 27.5 -0.999023s14.5 -0.5 18.5 -0.5s11.333 0.166992 22 0.5s22.5 0.666016 35.5 0.999023s25.833 0.666016 38.5 0.999023s23 0.5 31 0.5c4 0 6.66699 -1.5 8 -4.5s0 -4.5 -4 -4.5h-22c-10.667 0 -19.167 -1.33301 -25.5 -4
s-8.16602 -9.83398 -5.49902 -21.501s10.5 -29.667 23.5 -54s33.5 -58.166 61.5 -101.499z" />
    <glyph glyph-name="Y" unicode="Y" horiz-adv-x="615" 
d="M349 317l0.00195312 -57.998c0 -61.333 0.5 -108.833 1.5 -142.5s3.33301 -58.5 7 -74.5s9.16699 -25.5 16.5 -28.5s17 -4.5 29 -4.5h18c4 0 6 -1.5 6 -4.5s-2 -4.5 -6 -4.5c-7.33301 0 -16.333 0.166992 -27 0.5s-21.5 0.666016 -32.5 0.999023
s-21 0.666016 -30 0.999023s-15.5 0.5 -19.5 0.5c-3.33301 0 -9.66602 -0.166992 -18.999 -0.5s-19.5 -0.666016 -30.5 -0.999023s-22.167 -0.666016 -33.5 -0.999023s-20.333 -0.5 -27 -0.5c-4 0 -6 1.5 -6 4.5s2 4.5 6 4.5h18c12 0 21.667 1.5 29 4.5
s12.833 12.5 16.5 28.5s6 40.833 7 74.5s1.5 81.167 1.5 142.5v55l-108 195c-19.333 34.667 -35.833 63.334 -49.5 86.001s-26.167 40.5 -37.5 53.5s-22.166 22.167 -32.499 27.5s-21.833 8 -34.5 8h-8c-4.66699 0 -7 1.33301 -7 4c0 3.33301 2 5 6 5
c7.33301 0 15.833 -0.166992 25.5 -0.5l29 -1c9.66699 -0.333008 18.5 -0.666016 26.5 -0.999023s14 -0.5 18 -0.5s11.167 0.166992 21.5 0.5s21.666 0.666016 33.999 0.999023s24.5 0.666016 36.5 0.999023s21.667 0.5 29 0.5c4 0 6.5 -1.5 7.5 -4.5s-0.5 -4.5 -4.5 -4.5
h-21c-12.667 0 -21 -3 -25 -9s-4.16699 -16 -0.5 -30s11.167 -32.5 22.5 -55.5s26.333 -51.5 45 -85.5l95 -175l106 183c6 10 13.167 24.5 21.5 43.5s14.166 38.167 17.499 57.5s1.66602 36.166 -5.00098 50.499s-22 21.5 -46 21.5c-4 0 -9.16699 -0.666992 -15.5 -2
s-10.5 -2 -12.5 -2c-4.66699 0 -7 2 -7 6c0 1.33301 0.666992 2.66602 2 3.99902s4.66602 2 9.99902 2c4.66699 0 11.834 -0.166992 21.501 -0.5s20 -0.5 31 -0.5s21.5 -0.166992 31.5 -0.5s17 -0.5 21 -0.5c3.33301 0 9.66602 0.166992 18.999 0.5s19.666 0.5 30.999 0.5
s22.5 0.166992 33.5 0.5s19.5 0.5 25.5 0.5c4 0 5.5 -1.5 4.5 -4.5s-3.16699 -4.5 -6.5 -4.5h-2c-14 0 -29.5 -7.33301 -46.5 -22s-33.333 -31.834 -49 -51.501s-29.667 -39.167 -42 -58.5s-21.166 -33.666 -26.499 -42.999z" />
    <glyph glyph-name="Z" unicode="Z" horiz-adv-x="625" 
d="M73 399c-0.666992 -3.33301 -2.83789 -4.83789 -6.50488 -4.50488s-5.5 2.16602 -5.5 5.49902l11 105c4.66699 54 8.83398 97.833 12.501 131.5s6.83398 51.167 9.50098 52.5c3.33301 1.33301 9.83301 2.33301 19.5 3s19.167 1 28.5 1h36c18 0 38.667 -0.166992 62 -0.5
s48 -0.666016 74 -0.999023s50.167 -0.666016 72.5 -0.999023s41.166 -0.5 56.499 -0.5h27c4 0 9.66699 0.166992 17 0.5s15.333 0.666016 24 0.999023l26 1c8.66699 0.333008 16.667 0.5 24 0.5c4 0 7.66699 -0.333008 11 -1s3.33301 -3.66699 0 -9l-443 -669h26
c12 0 25.5 -0.166992 40.5 -0.5s30.667 -0.666016 47 -0.999023s31.833 -0.666016 46.5 -0.999023s27.834 -0.5 39.501 -0.5h25.5c28.667 0 55 5.66699 79 17s44.833 26.5 62.5 45.5s31.834 40.667 42.501 65s17.334 49.166 20.001 74.499l7 99
c0.666992 3.33301 2.66699 4.83301 6 4.5s4.66602 -2.16602 3.99902 -5.49902l-6 -100c-3.33301 -40.667 -6.16602 -74 -8.49902 -100s-4.33301 -46.667 -6 -62s-3.33398 -26.333 -5.00098 -33s-3.16699 -10.667 -4.5 -12s-5.66602 -2.16602 -12.999 -2.49902
s-17 -0.666016 -29 -0.999023s-25.833 -0.5 -41.5 -0.5h-49.5h-32h-40.5c-14.333 0 -29.5 0.166992 -45.5 0.5s-31.333 0.5 -46 0.5c-35.333 0.666992 -72.666 1.33398 -111.999 2.00098l-98 -6c-5.33301 0 -7.33301 1.66699 -6 5s3.33301 7 6 11l441 668h-185
c-58 -0.666992 -106 -16 -144 -46s-60.333 -73.333 -67 -130z" />
    <glyph glyph-name="bracketleft" unicode="[" horiz-adv-x="400" 
d="M114 246l-3 525c0 5.33301 2.33301 8 7 8c23.333 0 47.333 -0.166992 72 -0.5s49.667 -0.5 75 -0.5c23.333 0 46.166 0.166992 68.499 0.5s45.166 0.5 68.499 0.5c3.33301 0 5 -1.66699 5 -5s-1.66699 -5 -5 -5c-22.667 -0.666992 -46 -0.666992 -70 0s-47.333 1 -70 1
h-115c-4.66699 0 -7 -1 -7 -3l1 -521l-1 -512c0 -2 2.33301 -3 7 -3h115c22.667 0 46 0.333008 70 1s47.333 0.666992 70 0c3.33301 0 5 -1.66699 5 -5s-1.66699 -5 -5 -5c-23.333 0 -46.166 0.166992 -68.499 0.5s-45.166 0.5 -68.499 0.5
c-25.333 0 -50.333 -0.166992 -75 -0.5s-48.667 -0.5 -72 -0.5c-4.66699 0 -7 2.66699 -7 8z" />
    <glyph glyph-name="backslash" unicode="\" horiz-adv-x="356" 
d="M179 247c-16 40 -33.666 83.499 -52.999 130.499s-39 94.167 -59 141.5s-39.833 93.333 -59.5 138s-38.167 85 -55.5 121c6.66699 3.33301 11 5.33301 13 6s7 0 15 -2c13.333 -34 28.833 -73.333 46.5 -118s36 -90.834 55 -138.501s38.167 -95.167 57.5 -142.5
s37 -91.333 53 -132c16.667 -40.667 34.167 -83 52.5 -127s37 -88.167 56 -132.5l57 -133c19 -44.333 38.167 -87.166 57.5 -128.499c-6 -4 -10 -5.83301 -12 -5.5s-7.33301 1.83301 -16 4.5c-16 40.667 -32.667 83 -50 127s-35 88.333 -53 133
s-35.833 88.834 -53.5 132.501s-34.834 85.5 -51.501 125.5z" />
    <glyph glyph-name="bracketright" unicode="]" horiz-adv-x="400" 
d="M289 -270c0 -5.33301 -2.33301 -8 -7 -8c-23.333 0 -47.333 0.166992 -72 0.5s-49.667 0.5 -75 0.5c-23.333 0 -46.166 -0.166992 -68.499 -0.5s-45.166 -0.5 -68.499 -0.5c-3.33301 0 -5 1.66699 -5 5s1.66699 5 5 5c22.667 0.666992 46 0.666992 70 0s47.333 -1 70 -1
h115c4.66699 0 7 1 7 3l-1 512l1 521c0 2 -2.33301 3 -7 3h-115c-22.667 0 -46 -0.333008 -70 -1s-47.333 -0.666992 -70 0c-3.33301 0 -5 1.66699 -5 5s1.66699 5 5 5c23.333 0 46.166 -0.166992 68.499 -0.5s45.166 -0.5 68.499 -0.5c25.333 0 50.333 0.166992 75 0.5
s48.667 0.5 72 0.5c4.66699 0 7 -2.66699 7 -8l-3 -525z" />
    <glyph glyph-name="asciicircum" unicode="^" horiz-adv-x="809" 
d="M420 443c-2.66699 2.66699 -5 2.66406 -7 -0.00292969l-82 -122c-4 -5.33301 -8.33301 -9.83301 -13 -13.5s-11.667 -5.5 -21 -5.5c-6.66699 0 -11.667 1.5 -15 4.5s-5 6.16699 -5 9.5c0 2 0.833008 5 2.5 9s6.83398 10.667 15.501 20c6 6.66699 13.5 14.334 22.5 23.001
s18.667 17.667 29 27s21 19 32 29s22.167 19.333 33.5 28c2.66699 2.66699 5.66699 2.66699 9 0c24.667 -18.667 47.167 -36.167 67.5 -52.5s38.166 -31.166 53.499 -44.499c8 -7.33301 13.333 -13.166 16 -17.499s4 -8.16602 4 -11.499c0 -4 -2 -8.5 -6 -13.5
s-9.66699 -7.5 -17 -7.5c-8.66699 0 -15.667 2.16699 -21 6.5s-10 9.16602 -14 14.499c-9.33301 13.333 -21.833 30.833 -37.5 52.5s-31.167 43.167 -46.5 64.5z" />
    <glyph glyph-name="underscore" unicode="_" horiz-adv-x="678" 
d="M337 -20c20.667 0 43.9971 0.166992 69.9971 0.5s51.833 0.833008 77.5 1.5s49.667 1.33398 72 2.00098s39.5 1.33398 51.5 2.00098c3.33301 -2.66699 5 -6.83398 5 -12.501s-1.66699 -9.5 -5 -11.5c-13.333 0.666992 -31.166 1.5 -53.499 2.5
s-46.166 1.83301 -71.499 2.5s-50.833 1.16699 -76.5 1.5s-48.5 0.5 -68.5 0.5s-42.833 -0.166992 -68.5 -0.5s-51.167 -0.833008 -76.5 -1.5s-49.166 -1.5 -71.499 -2.5s-40.166 -1.83301 -53.499 -2.5c-3.33301 2 -5 5.83301 -5 11.5s1.66699 9.83398 5 12.501
c12 -0.666992 29.167 -1.33398 51.5 -2.00098s46.166 -1.33398 71.499 -2.00098s51 -1.16699 77 -1.5s49 -0.5 69 -0.5z" />
    <glyph glyph-name="grave" unicode="`" horiz-adv-x="809" 
d="M479 537c-12.667 13.333 -26.833 26.6689 -42.5 40.002s-30.834 25.5 -45.501 36.5s-27.5 20.5 -38.5 28.5s-18.167 13.667 -21.5 17c-3.33301 2.66699 -6.16602 5.5 -8.49902 8.5s-3.5 5.83301 -3.5 8.5c0 10.667 1 17 3 19
c1.33301 1.33301 3.66602 2.16602 6.99902 2.49902s7 0.5 11 0.5c4.66699 0 9.16699 -0.333008 13.5 -1s7.83301 -2.33398 10.5 -5.00098s8 -9.66699 16 -21s17.5 -24.5 28.5 -39.5s23 -30.5 36 -46.5s26.167 -30 39.5 -42c2 -2 3 -3.33301 3 -4
c0 -2.66699 -1.33301 -4 -4 -4c-1.33301 0 -2.66602 0.666992 -3.99902 2z" />
    <glyph glyph-name="a" unicode="a" horiz-adv-x="514" 
d="M156 -11c-40 0 -70.6719 11.0068 -92.0049 33.0068s-32 48.333 -32 79c0 16.667 4.33301 33.334 13 50.001s22.834 33.5 42.501 50.5s45.5 34.167 77.5 51.5s71 35 117 53l83 32c-1.33301 31.333 -4.16602 57.5 -8.49902 78.5s-10.833 37.667 -19.5 50
s-19.5 21.166 -32.5 26.499s-28.5 8 -46.5 8c-22 0 -40 -4.33301 -54 -13s-25.667 -18.834 -35 -30.501s-17 -23.834 -23 -36.501s-11.667 -23 -17 -31c-4.66699 -6.66699 -10 -11.334 -16 -14.001s-15.667 -4 -29 -4c-12 0 -21.667 2 -29 6s-11 9.66699 -11 17
c0 6 2.66699 13.333 8 22s14.333 17 27 25c10 6.66699 22.5 13.834 37.5 21.501s31.167 15 48.5 22s35.333 12.833 54 17.5s37 7 55 7c24.667 0 47.334 -3.33301 68.001 -10s38.5 -17.334 53.5 -32.001s26.667 -33.5 35 -56.5s12.5 -50.833 12.5 -83.5
c0 -16.667 -0.5 -35.667 -1.5 -57s-2 -42.333 -3 -63s-1.83301 -39.834 -2.5 -57.501s-1 -31.5 -1 -41.5c0 -28.667 2 -50 6 -64s11.333 -21 22 -21c4.66699 0 9.5 2 14.5 6s10 8.66699 15 14s9.66699 11.166 14 17.499s7.83301 12.166 10.5 17.499
c2.66699 4 6 4.66699 10 2s4.66699 -6 2 -10c-4 -6 -10.5 -13.5 -19.5 -22.5s-19.167 -17.833 -30.5 -26.5s-23 -16.167 -35 -22.5s-23 -9.5 -33 -9.5c-19.333 0 -33.666 6.16699 -42.999 18.5s-14 29.833 -14 52.5c0 13.333 0.333008 27.666 1 42.999s1.66699 28.333 3 39
c-6.66699 -11.333 -17.667 -25.833 -33 -43.5s-32.666 -34.667 -51.999 -51s-39.333 -30.333 -60 -42s-39.667 -17.5 -57 -17.5zM101.995 130.007c0 -13.333 3.16602 -26.002 9.49902 -38.002s14.5 -22.333 24.5 -31s21.167 -15.5 33.5 -20.5s24.5 -7.5 36.5 -7.5
c14 0 29.5 5.33301 46.5 16s33 23.334 48 38.001s28.167 29.5 39.5 44.5s18 26.5 20 34.5c0.666992 6.66699 1.83398 22 3.50098 46s2.5 56.667 2.5 98v21l-82 -35c-36.667 -15.333 -66.834 -29.166 -90.501 -41.499s-42.167 -24.666 -55.5 -36.999
s-22.666 -25.333 -27.999 -39s-8 -29.834 -8 -48.501z" />
    <glyph glyph-name="b" unicode="b" horiz-adv-x="592" 
d="M67 681c0 21.333 -1 37.3359 -3 48.0029s-5.5 17.834 -10.5 21.501s-11.5 4.83398 -19.5 3.50098s-18.333 -3 -31 -5c-4 -0.666992 -6 0.5 -6 3.5s2 4.83301 6 5.5c25.333 4.66699 47.5 12.667 66.5 24s37.167 21.666 54.5 30.999
c1.33301 1.33301 4.66602 1.16602 9.99902 -0.500977s8 -3.83398 8 -6.50098v-404c23.333 34 52.833 60.5 88.5 79.5s72.834 28.5 111.501 28.5c28.667 0 55.667 -5.83301 81 -17.5s47.666 -27.834 66.999 -48.501s34.666 -45.334 45.999 -74.001s17 -60.334 17 -95.001
c0 -41.333 -8.16699 -79.333 -24.5 -114s-37.833 -64.667 -64.5 -90s-57.167 -45.166 -91.5 -59.499s-69.5 -21.5 -105.5 -21.5c-35.333 0 -65.666 6.5 -90.999 19.5s-45.666 26.5 -60.999 40.5c-16 -22 -26.5 -36 -31.5 -42s-8.83301 -9 -11.5 -9c-3.33301 0 -5 3 -5 9v673
zM309 12.0029c54 0 95.834 19.333 125.501 58s44.5 95 44.5 169c0 29.333 -3.83301 58.166 -11.5 86.499s-19.334 53.833 -35.001 76.5s-35.167 40.834 -58.5 54.501s-50.333 20.5 -81 20.5c-28 0 -55.833 -7.66699 -83.5 -23s-50.167 -36.333 -67.5 -63v-285
c8.66699 -10 19 -20.5 31 -31.5s25 -21.167 39 -30.5s29.167 -17 45.5 -23s33.5 -9 51.5 -9z" />
    <glyph glyph-name="c" unicode="c" horiz-adv-x="542" 
d="M102 275c0 -33.333 5.66992 -63.833 17.0029 -91.5s27 -51.834 47 -72.501s44 -36.667 72 -48s59 -17 93 -17c47.333 0 87.666 11.333 120.999 34s62.666 57 87.999 103c2 4 4.33301 5.33301 7 4s3 -3.66602 1 -6.99902c-14 -26 -30.833 -50.667 -50.5 -74
s-41.334 -43.5 -65.001 -60.5s-48.667 -30.5 -75 -40.5s-53.166 -15 -80.499 -15c-35.333 0 -67.666 5.83301 -96.999 17.5s-54.666 28.167 -75.999 49.5s-37.833 46.666 -49.5 75.999s-17.5 61.666 -17.5 96.999c0 36 8 70.833 24 104.5s37.167 63.5 63.5 89.5
s56.666 46.833 90.999 62.5s69.833 23.5 106.5 23.5c24.667 0 47.167 -2.33301 67.5 -7s37.833 -10.5 52.5 -17.5s26.167 -15 34.5 -24s12.5 -17.833 12.5 -26.5s-4.16699 -17.667 -12.5 -27s-20.5 -14 -36.5 -14c-10.667 0 -20.334 4.83301 -29.001 14.5
s-18.667 20.5 -30 32.5s-25 22.833 -41 32.5s-36 14.5 -60 14.5c-24.667 0 -47.834 -4.66699 -69.501 -14s-40.5 -23.166 -56.5 -41.499s-28.667 -40.666 -38 -66.999s-14 -56.5 -14 -90.5z" />
    <glyph glyph-name="d" unicode="d" horiz-adv-x="599" 
d="M451 681c0 21.333 -1.16699 37.833 -3.5 49.5s-6 19.834 -11 24.501s-11.667 6.83398 -20 6.50098s-18.833 -1.5 -31.5 -3.5c-4 -0.666992 -6 0.5 -6 3.5s2 4.83301 6 5.5c25.333 4.66699 47.5 11.167 66.5 19.5s37.167 17.166 54.5 26.499
c1.33301 1.33301 5 1.16602 11 -0.500977s9 -3.83398 9 -6.50098v-687c0 -24.667 0.333008 -44.167 1 -58.5s2.66699 -25.333 6 -33s8.33301 -12.667 15 -15s16.334 -3.5 29.001 -3.5c4 0 6 -1.5 6 -4.5s-2 -4.5 -6 -4.5c-30.667 0 -54.334 -0.833008 -71.001 -2.5
s-33.334 -4.16699 -50.001 -7.5c-8 -2 -12 1 -12 9c0 3.33301 1 14.166 3 32.499s3.33301 41.833 4 70.5c-24 -35.333 -54.333 -62.833 -91 -82.5s-74.667 -29.5 -114 -29.5c-28.667 0 -55.667 5.83301 -81 17.5s-47.5 27.834 -66.5 48.501s-34.167 45.334 -45.5 74.001
s-17 60.334 -17 95.001c0 41.333 8.16699 79.333 24.5 114s38 64.667 65 90s57.667 45.166 92 59.499s69.5 21.5 105.5 21.5c26.667 0 50.834 -4.83301 72.501 -14.5s40.167 -20.5 55.5 -32.5v218zM281 488c-54 0 -96.6641 -18.667 -127.997 -56s-47 -93 -47 -167
c0 -29.333 4.16699 -58.333 12.5 -87s20.5 -54.5 36.5 -77.5s35.833 -41.667 59.5 -56s51.167 -21.5 82.5 -21.5c30.667 0 59.667 8.83301 87 26.5s49.666 40.5 66.999 68.5v271l-31.5 31.5c-11.667 11.667 -24.834 22.5 -39.501 32.5s-30.334 18.333 -47.001 25
s-34 10 -52 10z" />
    <glyph glyph-name="e" unicode="e" horiz-adv-x="516" 
d="M285 -10c-38 0 -72.5 6.00391 -103.5 18.0039s-57.5 28.667 -79.5 50s-38.833 46.666 -50.5 75.999s-17.5 61.333 -17.5 96c0 37.333 8 73 24 107s37 63.833 63 89.5s55.667 46 89 61s67.333 22.5 102 22.5c36 0 65.667 -4.83301 89 -14.5s41.5 -21.5 54.5 -35.5
s21.667 -28.833 26 -44.5s5.83301 -29.167 4.5 -40.5c-1.33301 -8.66699 -4.83301 -16 -10.5 -22s-16.167 -9 -31.5 -9h-342c-5.33301 -24.667 -8 -50.334 -8 -77.001c0 -30.667 6.33301 -59.334 19 -86.001s29.834 -49.834 51.501 -69.501s47.167 -35.167 76.5 -46.5
s61 -17 95 -17c30.667 0 58.334 4.5 83.001 13.5s47.167 22 67.5 39s38.666 37.333 54.999 61s31.5 50.5 45.5 80.5c2.66699 6 5.16699 8.5 7.5 7.5s2.16602 -4.16699 -0.500977 -9.5c-13.333 -30.667 -29.833 -61 -49.5 -91s-42.5 -56.667 -68.5 -80
s-54.833 -42.333 -86.5 -57s-66.5 -22 -104.5 -22zM350 356.004c7.33301 0 15.502 1.16699 24.502 3.5s14.167 4.16602 15.5 5.49902c6 6.66699 9 17.334 9 32.001c0 9.33301 -2.33301 19.333 -7 30s-11.834 20.5 -21.501 29.5s-21.667 16.5 -36 22.5s-31.166 9 -50.499 9
c-43.333 0 -80.833 -11.333 -112.5 -34s-54.167 -56.667 -67.5 -102c28 0 53.667 0.166992 77 0.5s44.666 0.833008 63.999 1.5s37.666 1.16699 54.999 1.5s34 0.5 50 0.5z" />
    <glyph glyph-name="f" unicode="f" horiz-adv-x="296" 
d="M259 500l28.5059 -0.00292969c4.33301 0 6.5 -0.666992 6.5 -2c0 -3.33301 -5.16699 -10.333 -15.5 -21s-20.833 -21.667 -31.5 -33c-14 0 -29.333 0.166992 -46 0.5s-33.667 0.5 -51 0.5v-202c0 -42 0.333008 -86.333 1 -133c0 -24.667 0.666992 -43.834 2 -57.501
s4.16602 -23.667 8.49902 -30s10.666 -10.166 18.999 -11.499s19.833 -2 34.5 -2c4 0 6 -1.5 6 -4.5s-2 -4.5 -6 -4.5c-7.33301 0 -16 0.166992 -26 0.5s-19.833 0.5 -29.5 0.5s-18.5 0.166992 -26.5 0.5s-14 0.5 -18 0.5s-9.83301 -0.166992 -17.5 -0.5
s-16.167 -0.5 -25.5 -0.5s-18.833 -0.166992 -28.5 -0.5s-18.167 -0.5 -25.5 -0.5c-4 0 -6 1.5 -6 4.5s2 4.5 6 4.5c14 0 25 1.16699 33 3.5s13.833 7 17.5 14s5.83398 17.167 6.50098 30.5s1 31 1 53c-0.666992 60 -1 113.667 -1 161v164v10h-41c-9.33301 0 -14 2 -14 6
l35 48h26c8 38.667 21.5 75 40.5 109s41.333 63.833 67 89.5s53 46 82 61s57.167 22.5 84.5 22.5c12.667 0 25.167 -0.666992 37.5 -2s23.166 -3.16602 32.499 -5.49902s17 -5.16602 23 -8.49902s9 -6.66602 9 -9.99902c0 -4 -1.33301 -9 -4 -15
s-6.33398 -11.667 -11.001 -17s-10.334 -9.83301 -17.001 -13.5s-14 -5.5 -22 -5.5c-16.667 0 -37.334 3.16699 -62.001 9.5s-52 9.5 -82 9.5c-34 0 -60.5 -17.667 -79.5 -53s-28.833 -92.333 -29.5 -171c15.333 0 31.166 0.166992 47.499 0.5s33.5 0.5 51.5 0.5h10z" />
    <glyph glyph-name="g" unicode="g" horiz-adv-x="502" 
d="M465 484c-7.33301 0 -18.3311 1.00293 -32.998 3.00293s-31 4 -49 6s-36.833 4 -56.5 6s-38.5 3 -56.5 3v-2c52 -7.33301 92 -26.333 120 -57s42 -68.667 42 -114c0 -26.667 -5.33301 -50.5 -16 -71.5s-25.334 -39 -44.001 -54s-41 -26.5 -67 -34.5s-54 -12 -84 -12h-18
c-15.333 -1.33301 -30 -3.16602 -44 -5.49902s-26.5 -5.83301 -37.5 -10.5s-19.833 -10.167 -26.5 -16.5s-10 -13.5 -10 -21.5c0 -19.333 11.167 -31.333 33.5 -36s55.5 -7 99.5 -7h134c28.667 0 52.834 -3 72.501 -9s35.834 -14 48.501 -24s21.834 -21.5 27.501 -34.5
s8.5 -26.5 8.5 -40.5c0 -21.333 -4.83301 -42.5 -14.5 -63.5s-23 -41 -40 -60s-36.833 -36.667 -59.5 -53s-46.834 -30.333 -72.501 -42s-52.167 -20.834 -79.5 -27.501s-54 -10 -80 -10s-49.333 3.16699 -70 9.5s-38 15.333 -52 27s-24.667 25.167 -32 40.5s-11 32 -11 50
c0 19.333 4.83301 37.833 14.5 55.5s22.5 34.167 38.5 49.5s34 28.833 54 40.5s40 21.167 60 28.5c-40 1.33301 -72.167 6.83301 -96.5 16.5s-36.5 26.5 -36.5 50.5c0 10.667 3.66699 21.334 11 32.001s17.333 20.167 30 28.5s27.667 15.666 45 21.999s36 11.166 56 14.499
c-42.667 7.33301 -76.834 24.833 -102.501 52.5s-38.5 65.5 -38.5 113.5c0 25.333 5.33301 49 16 71s25.5 41.167 44.5 57.5s41.167 29.166 66.5 38.499s52.666 14 81.999 14c24.667 0 49.834 2 75.501 6s49.667 8.33301 72 13s41.666 9 57.999 13s27.5 6 33.5 6
c5.33301 0 11.5 -1 18.5 -3s10.5 -6 10.5 -12c0 -4 -1 -8.83301 -3 -14.5s-5 -10.834 -9 -15.501s-8.83301 -8.66699 -14.5 -12s-11.834 -5 -18.501 -5zM227.002 -248.997c31.333 0 62.166 4 92.499 12s57.333 19 81 33s42.834 30.667 57.501 50s22 40.333 22 63
c0 32 -13 54.5 -39 67.5s-67.333 19.5 -124 19.5h-130c-43.333 -13.333 -78.333 -32 -105 -56s-40 -50 -40 -78c0 -36 15.833 -63.5 47.5 -82.5s76.167 -28.5 133.5 -28.5h4zM232.002 167.003c40.667 0 71.8311 13.832 93.498 41.499s32.5 67.834 32.5 120.501
c0 21.333 -2.66699 42.166 -8 62.499s-13.166 38.333 -23.499 54s-23 28.334 -38 38.001s-32.5 14.5 -52.5 14.5c-85.333 0 -128 -53.333 -128 -160c0 -24 2.5 -46.5 7.5 -67.5s12.667 -39.167 23 -54.5s23.333 -27.333 39 -36s33.834 -13 54.501 -13z" />
    <glyph glyph-name="h" unicode="h" 
d="M121 2c-4 0 -9.83691 -0.166992 -17.5039 -0.5s-16.167 -0.5 -25.5 -0.5s-18.666 -0.166992 -27.999 -0.5s-17.666 -0.5 -24.999 -0.5c-4 0 -6 1.5 -6 4.5s2 4.5 6 4.5c10.667 0 19 1.16699 25 3.5s10.5 7.33301 13.5 15s4.83301 18.667 5.5 33s1 33.833 1 58.5v562
c0 21.333 -1 37.833 -3 49.5s-5.5 20 -10.5 25s-11.5 7.33301 -19.5 7s-18.333 -1.5 -31 -3.5c-4 -0.666992 -6 0.5 -6 3.5s2 4.83301 6 5.5c25.333 4.66699 47.5 11 66.5 19s37.167 16.667 54.5 26c1.33301 1.33301 4.66602 1.16602 9.99902 -0.500977
s8 -3.83398 8 -6.50098v-403c25.333 34 52.666 60.333 81.999 79s63 28 101 28c22.667 0 43.834 -3.16699 63.501 -9.5s36.834 -17.333 51.501 -33s26.334 -36.5 35.001 -62.5s13 -58.667 13 -98v-257c0 -19.333 3.66699 -31.166 11 -35.499
s19.666 -6.16602 36.999 -5.49902c4 0 6 -1.5 6 -4.5s-2 -4.5 -6 -4.5c-2 0 -7 0.166992 -15 0.5s-16.833 0.5 -26.5 0.5s-19 0.166992 -28 0.5s-15.5 0.5 -19.5 0.5s-9.33301 -0.166992 -16 -0.5s-14.167 -0.5 -22.5 -0.5s-16.833 -0.166992 -25.5 -0.5
s-16.667 -0.5 -24 -0.5c-4 0 -6 1.5 -6 4.5s2 4.5 6 4.5c11.333 0 20.5 0.666992 27.5 2s12.333 5.5 16 12.5s6.16699 17.667 7.5 32s2 34.833 2 61.5v200c0 30.667 -3.33301 56.5 -10 77.5s-15.667 37.833 -27 50.5s-24.166 21.667 -38.499 27s-29.166 8 -44.499 8
c-31.333 0 -58.333 -7 -81 -21s-45.667 -36.667 -69 -68v-382h61c4 0 6 -1.5 6 -4.5s-2 -4.5 -6 -4.5c-2 0 -6.83301 0.166992 -14.5 0.5s-16 0.5 -25 0.5s-17.833 0.166992 -26.5 0.5s-15 0.5 -19 0.5z" />
    <glyph glyph-name="i" unicode="i" horiz-adv-x="226" 
d="M75 377c0 18.667 -0.999023 33.334 -2.99902 44.001s-5.5 18.167 -10.5 22.5s-11.5 6.33301 -19.5 6s-18.333 -1.83301 -31 -4.5c-4 -1.33301 -6.5 -0.666016 -7.5 2.00098s0.5 4.66699 4.5 6c25.333 5.33301 47.666 12.833 66.999 22.5s38.666 21.167 57.999 34.5
c1.33301 1.33301 4.66602 1.16602 9.99902 -0.500977s8 -3.83398 8 -6.50098v-393c0 -21.333 0.5 -38.666 1.5 -51.999s3.5 -23.666 7.5 -30.999s10 -12.166 18 -14.499s19 -3.5 33 -3.5c4 0 6 -1.5 6 -4.5s-2 -4.5 -6 -4.5c-7.33301 0 -15.666 0.166992 -24.999 0.5
s-18.666 0.5 -27.999 0.5s-17.833 0.166992 -25.5 0.5s-13.5 0.5 -17.5 0.5s-10 -0.166992 -18 -0.5s-17 -0.5 -27 -0.5s-20 -0.166992 -30 -0.5s-18.667 -0.5 -26 -0.5c-4 0 -6 1.5 -6 4.5s2 4.5 6 4.5c14 0 25.167 1.16699 33.5 3.5s14.5 7.16602 18.5 14.499
s6.5 17.666 7.5 30.999s1.5 30.666 1.5 51.999v267zM57.001 648c0 14.667 5 27.167 15 37.5s22.333 15.5 37 15.5s27.167 -5.16699 37.5 -15.5s15.5 -22.833 15.5 -37.5s-5.16699 -27 -15.5 -37s-22.833 -15 -37.5 -15s-27 5 -37 15s-15 22.333 -15 37z" />
    <glyph glyph-name="j" unicode="j" horiz-adv-x="223" 
d="M149 49c-0.666992 -21.333 -3.66211 -41.665 -8.99512 -60.998s-12.666 -38 -21.999 -56s-20.333 -36 -33 -54s-26.667 -36.333 -42 -55c-19.333 -24 -38 -44 -56 -60s-35 -24 -51 -24c-5.33301 0 -11.333 0.666992 -18 2c-14.667 3.33301 -22 9.33301 -22 18
s4 18.667 12 30s17.667 18.666 29 21.999c4 1.33301 9.33301 2 16 2c10 0 19.667 -0.166992 29 -0.5s15.666 -0.5 18.999 -0.5c5.33301 0 11.166 1.16699 17.499 3.5s11.166 5.16602 14.499 8.49902c2.66699 3.33301 6.33398 7.83301 11.001 13.5
s9.16699 15.334 13.5 29.001s8.16602 32.667 11.499 57s5 57.166 5 98.499v355c0 18.667 -1.16699 33.334 -3.5 44.001s-6 18.167 -11 22.5s-11.667 6.33301 -20 6s-18.833 -1.83301 -31.5 -4.5c-4 -1.33301 -6.5 -0.666016 -7.5 2.00098s0.5 4.66699 4.5 6
c25.333 5.33301 47.666 12.833 66.999 22.5s38.666 21.167 57.999 34.5c1.33301 1.33301 4.66602 1.16602 9.99902 -0.500977s8 -3.83398 8 -6.50098zM54.0049 648.001c0 14.667 5 27.167 15 37.5s22.333 15.5 37 15.5s27.167 -5.16699 37.5 -15.5s15.5 -22.833 15.5 -37.5
s-5.16699 -27 -15.5 -37s-22.833 -15 -37.5 -15s-27 5 -37 15s-15 22.333 -15 37z" />
    <glyph glyph-name="k" unicode="k" horiz-adv-x="552" 
d="M466 0c-6.66699 0 -13.1631 0.669922 -19.4961 2.00293s-12.5 4 -18.5 8c-12.667 8 -26.5 22.333 -41.5 43s-33.833 50.667 -56.5 90l-82 137l-103 -105v-166h61c4 0 6 -1.5 6 -4.5s-2 -4.5 -6 -4.5c-2 0 -6.83301 0.166992 -14.5 0.5s-16 0.5 -25 0.5
s-17.833 0.166992 -26.5 0.5s-15 0.5 -19 0.5s-9.83301 -0.166992 -17.5 -0.5s-16.167 -0.5 -25.5 -0.5s-18.666 -0.166992 -27.999 -0.5s-17.666 -0.5 -24.999 -0.5c-4 0 -6 1.5 -6 4.5s2 4.5 6 4.5c10.667 0 19 1.16699 25 3.5s10.5 7.33301 13.5 15
s4.83301 18.667 5.5 33s1 33.833 1 58.5v562c0 21.333 -1 37.833 -3 49.5s-5.5 20 -10.5 25s-11.5 7.33301 -19.5 7s-18.333 -1.5 -31 -3.5c-4 -0.666992 -6 0.5 -6 3.5s2 4.83301 6 5.5c25.333 4.66699 47.5 11 66.5 19s37.167 16.667 54.5 26
c1.33301 1.33301 4.66602 1.16602 9.99902 -0.500977s8 -3.83398 8 -6.50098v-619l157 162c22 22.667 38.333 42.667 49 60s16.667 32 18 44s-1.66699 21.167 -9 27.5s-18.333 9.5 -33 9.5c-3.33301 0 -5 1.5 -5 4.5s1.66699 4.5 5 4.5c6.66699 0 15 -0.166992 25 -0.5
s20 -0.5 30 -0.5s19.167 -0.166992 27.5 -0.5s14.166 -0.5 17.499 -0.5s10.666 0.166992 21.999 0.5s23.166 0.5 35.499 0.5s23.5 0.166992 33.5 0.5s16 0.5 18 0.5c3.33301 0 5 -1.5 5 -4.5s-1.66699 -4.5 -5 -4.5c-32 0 -65.833 -12 -101.5 -36s-77.5 -61 -125.5 -111
l-13 -13l97 -154c20 -32 38.167 -58.833 54.5 -80.5s31.166 -38.834 44.499 -51.501s25.5 -21.667 36.5 -27s21.5 -8 31.5 -8c4 0 6.16699 -1.5 6.5 -4.5s-1.83398 -4.5 -6.50098 -4.5h-94z" />
    <glyph glyph-name="l" unicode="l" horiz-adv-x="217" 
d="M121 2c-4 0 -9.83301 -0.165039 -17.5 -0.498047s-16.167 -0.5 -25.5 -0.5s-18.666 -0.166992 -27.999 -0.5s-17.666 -0.5 -24.999 -0.5c-4 0 -6 1.5 -6 4.5s2 4.5 6 4.5c10.667 0 19 1.16699 25 3.5s10.5 7.33301 13.5 15s4.83301 18.667 5.5 33s1 33.833 1 58.5v562
c0 21.333 -1 37.833 -3 49.5s-5.5 20 -10.5 25s-11.5 7.33301 -19.5 7s-18.333 -1.5 -31 -3.5c-4 -0.666992 -6 0.5 -6 3.5s2 4.83301 6 5.5c25.333 4.66699 47.5 11 66.5 19s37.167 16.667 54.5 26c1.33301 1.33301 4.66602 1.16602 9.99902 -0.500977
s8 -3.83398 8 -6.50098v-687c0 -26 0.5 -46.333 1.5 -61s3.5 -25.667 7.5 -33s9.83301 -11.833 17.5 -13.5s18.5 -2.5 32.5 -2.5c4 0 6 -1.5 6 -4.5s-2 -4.5 -6 -4.5c-14.667 -0 -30.334 0.333008 -47.001 1s-28.667 1 -36 1z" />
    <glyph glyph-name="m" unicode="m" horiz-adv-x="891" 
d="M26 0c-4 0 -5.99707 1.50098 -5.99707 4.50098s2 4.5 6 4.5c11.333 0 20.166 0.666992 26.499 2s11 5.5 14 12.5s4.83301 18 5.5 33s1 35.833 1 62.5v258c0 14.667 -4.83301 28.334 -14.5 41.001s-20.167 24.334 -31.5 35.001c-2.66699 2.66699 -2.66699 4.66699 0 6
c9.33301 3.33301 21.666 9 36.999 17s27.333 16.333 36 25c1.33301 1.33301 3.33301 1 6 -1c9.33301 -9.33301 18.166 -23 26.499 -41s12.833 -37.667 13.5 -59c24.667 34.667 50.834 61.667 78.501 81s60.834 29 99.501 29c14.667 0 29.667 -1.83301 45 -5.5
s29.833 -9.66699 43.5 -18s26 -19.833 37 -34.5s19.833 -33 26.5 -55c25.333 35.333 52 63 80 83s61.667 30 101 30c22 0 43 -3.16699 63 -9.5s37.667 -17.333 53 -33s27.666 -36.5 36.999 -62.5s14 -58.667 14 -98v-257c0 -9.33301 0.333008 -16.833 1 -22.5
s2.66699 -9.83398 6 -12.501s8.5 -4.33398 15.5 -5.00098s16.5 -1 28.5 -1c4 0 6 -1.5 6 -4.5s-2 -4.5 -6 -4.5c-2 0 -7.16699 0.166992 -15.5 0.5s-17.5 0.5 -27.5 0.5s-19.667 0.166992 -29 0.5s-16 0.5 -20 0.5s-10.167 -0.166992 -18.5 -0.5s-17.5 -0.5 -27.5 -0.5
s-20.167 -0.166992 -30.5 -0.5s-19.166 -0.5 -26.499 -0.5c-4 0 -6 1.5 -6 4.5s2 4.5 6 4.5c16.667 0 29.667 0.666992 39 2s16.333 5.5 21 12.5s7.33398 17.667 8.00098 32s1 34.833 1 61.5v200c0 30.667 -3.66699 56.5 -11 77.5s-16.833 37.833 -28.5 50.5
s-25 21.667 -40 27s-30.167 8 -45.5 8c-18.667 0 -34.834 -2.5 -48.501 -7.5s-26 -11.667 -37 -20s-21.167 -18.166 -30.5 -29.499s-18.666 -23.333 -27.999 -36v-337c0 -9.33301 0.833008 -16.833 2.5 -22.5s4.66699 -9.83398 9 -12.501s10.5 -4.33398 18.5 -5.00098
s18 -1 30 -1c4 0 6 -1.5 6 -4.5s-2 -4.5 -6 -4.5c-2 0 -7.33301 0.166992 -16 0.5s-18.334 0.5 -29.001 0.5s-20.834 0.166992 -30.501 0.5s-16.5 0.5 -20.5 0.5s-10 -0.166992 -18 -0.5s-16.833 -0.5 -26.5 -0.5s-19.5 -0.166992 -29.5 -0.5s-18.667 -0.5 -26 -0.5
c-4 0 -6 1.5 -6 4.5s2 4.5 6 4.5c15.333 0 27.166 0.666992 35.499 2s14.333 5.5 18 12.5s5.83398 17.667 6.50098 32s1 34.833 1 61.5v200c0 30.667 -3 56.5 -9 77.5s-14.333 37.833 -25 50.5s-22.834 21.667 -36.501 27s-28.167 8 -43.5 8
c-31.333 0 -57.5 -7.33301 -78.5 -22s-42.833 -37.667 -65.5 -69v-380h59c4 0 6 -1.5 6 -4.5s-2 -4.5 -6 -4.5c-2 0 -6.66699 0.166992 -14 0.5s-15.333 0.5 -24 0.5s-17.167 0.166992 -25.5 0.5s-14.5 0.5 -18.5 0.5s-10 -0.166992 -18 -0.5s-16.667 -0.5 -26 -0.5
s-18.833 -0.166992 -28.5 -0.5s-18.167 -0.5 -25.5 -0.5z" />
    <glyph glyph-name="n" unicode="n" horiz-adv-x="562" 
d="M495 98c0 -22 0.827148 -39.002 2.49414 -51.002s4.5 -20.833 8.5 -26.5s9 -9 15 -10s13.333 -1.5 22 -1.5c4 0 6 -1.5 6 -4.5s-2 -4.5 -6 -4.5c-2 0 -7 0.166992 -15 0.5s-16.833 0.5 -26.5 0.5s-19 0.166992 -28 0.5s-15.5 0.5 -19.5 0.5
s-9.16699 -0.166992 -15.5 -0.5s-13.5 -0.5 -21.5 -0.5s-16.167 -0.166992 -24.5 -0.5s-16.166 -0.5 -23.499 -0.5c-4 0 -6 1.5 -6 4.5s2 4.5 6 4.5c10 0 18.333 0.833008 25 2.5s12 5.66699 16 12s6.83301 15.833 8.5 28.5s2.5 30 2.5 52l-1 213
c0 30.667 -3.5 56.5 -10.5 77.5s-16.167 37.833 -27.5 50.5s-24.166 21.667 -38.499 27s-29.166 8 -44.499 8c-31.333 0 -58.5 -7.33301 -81.5 -22s-46.167 -37.667 -69.5 -69v-380h52c4 0 6 -1.5 6 -4.5s-2 -4.5 -6 -4.5c-2 0 -6.33301 0.166992 -13 0.5s-14 0.5 -22 0.5
s-15.833 0.166992 -23.5 0.5s-13.5 0.5 -17.5 0.5s-9.83301 -0.166992 -17.5 -0.5s-16.167 -0.5 -25.5 -0.5s-18.666 -0.166992 -27.999 -0.5s-17.666 -0.5 -24.999 -0.5c-4 0 -6 1.5 -6 4.5s2 4.5 6 4.5c10.667 0 19 1.16699 25 3.5s10.5 7.33301 13.5 15
s4.83301 18.667 5.5 33s1 33.833 1 58.5v258c0 14.667 -4.83301 28.334 -14.5 41.001s-20.167 24.334 -31.5 35.001c-2.66699 2.66699 -2.66699 4.66699 0 6c9.33301 3.33301 21.666 9 36.999 17s27.333 16.333 36 25c1.33301 1.33301 3.33301 1 6 -1
c9.33301 -9.33301 18.166 -23 26.499 -41s13.166 -37.333 14.499 -58c25.333 34 52.833 60.667 82.5 80s63.834 29 102.501 29c22.667 0 43.834 -3.16699 63.501 -9.5s36.834 -17.333 51.501 -33s26.334 -36.5 35.001 -62.5s13 -58.667 13 -98v-209z" />
    <glyph glyph-name="o" unicode="o" horiz-adv-x="581" 
d="M284 -10c-35.333 0 -68.166 5.99707 -98.499 17.9971s-56.5 28.833 -78.5 50.5s-39.333 47.834 -52 78.501s-19 65 -19 103c0 36 6.5 70.333 19.5 103s31.167 61.334 54.5 86.001s51.166 44.334 83.499 59.001s67.833 22 106.5 22c35.333 0 68 -6 98 -18s56 -29 78 -51
s39.167 -48.5 51.5 -79.5s18.5 -65.833 18.5 -104.5c0 -32 -6.5 -64 -19.5 -96s-31.167 -60.667 -54.5 -86s-51 -45.833 -83 -61.5s-67 -23.5 -105 -23.5zM301 0.99707c53.333 0 94.001 21.335 122.001 64.002s42 101.334 42 176.001c0 31.333 -4 62.5 -12 93.5
s-19.667 58.667 -35 83s-34 44.166 -56 59.499s-46.667 23 -74 23c-29.333 0 -54.666 -5.83301 -75.999 -17.5s-38.833 -28.167 -52.5 -49.5s-23.834 -46.833 -30.501 -76.5s-10 -62.834 -10 -99.501c0 -30.667 4 -61.334 12 -92.001s19.833 -58.167 35.5 -82.5
s34.667 -44 57 -59s48.166 -22.5 77.499 -22.5z" />
    <glyph glyph-name="p" unicode="p" horiz-adv-x="596" 
d="M148 405c23.333 32.667 52.6729 58.335 88.0059 77.002s72 28 110 28c28.667 0 55.667 -5.83301 81 -17.5s47.666 -27.834 66.999 -48.501s34.666 -45.334 45.999 -74.001s17 -60.334 17 -95.001c0 -41.333 -8.16699 -79.333 -24.5 -114s-37.833 -64.667 -64.5 -90
s-57.167 -45.166 -91.5 -59.499s-69.5 -21.5 -105.5 -21.5c-25.333 0 -48.5 3.66699 -69.5 11s-39.167 16 -54.5 26v-290h71c4 0 6 -1.5 6 -4.5s-2 -4.5 -6 -4.5c-2 0 -7.66699 0.166992 -17 0.5s-19.833 0.5 -31.5 0.5s-22.667 0.166992 -33 0.5s-17.5 0.5 -21.5 0.5
s-10.833 -0.166992 -20.5 -0.5s-20.334 -0.5 -32.001 -0.5s-23.167 -0.166992 -34.5 -0.5s-20.666 -0.5 -27.999 -0.5c-4 0 -6 1.5 -6 4.5s2 4.5 6 4.5c16.667 0 30 1 40 3s17.5 6.83301 22.5 14.5s8.16699 19.334 9.5 35.001s2 37.167 2 64.5v528
c0 21.333 -1.33301 37.333 -4 48s-6.83398 17.834 -12.501 21.501s-12.834 4.83398 -21.501 3.50098s-19.334 -3 -32.001 -5c-4 -0.666992 -6 0.5 -6 3.5s2 4.83301 6 5.5c12.667 1.33301 24.834 4.16602 36.501 8.49902s22.667 9.16602 33 14.499
s20.166 10.833 29.499 16.5s18.333 10.834 27 15.501c1.33301 1.33301 4.66602 1.16602 9.99902 -0.500977s8 -3.83398 8 -6.50098v-102zM147.007 104.001c9.33301 -9.33301 19.834 -19.5 31.501 -30.5s24.5 -21 38.5 -30s29 -16.5 45 -22.5s33 -9 51 -9
c54 0 95.833 19.333 125.5 58s44.5 95 44.5 169c0 29.333 -3.83301 58.166 -11.5 86.499s-19.334 53.833 -35.001 76.5s-35.167 40.834 -58.5 54.501s-50.333 20.5 -81 20.5c-28 0 -55.5 -7.5 -82.5 -22.5s-49.167 -35.5 -66.5 -61.5c0 -42 -0.166992 -86 -0.5 -132
s-0.5 -98.333 -0.5 -157z" />
    <glyph glyph-name="q" unicode="q" horiz-adv-x="589" 
d="M520 -128c0 -21.333 1.00488 -37.335 3.00488 -48.002s5.5 -17.667 10.5 -21s11.5 -4.33301 19.5 -3s18.333 3 31 5c4 0.666992 6 -0.5 6 -3.5s-2 -4.83301 -6 -5.5c-25.333 -4.66699 -47.333 -12.667 -66 -24s-36.667 -21.666 -54 -30.999
c-1.33301 -1.33301 -4.83301 -1.16602 -10.5 0.500977s-8.5 3.83398 -8.5 6.50098v347c-24 -33.333 -53.833 -59.166 -89.5 -77.499s-72.5 -27.5 -110.5 -27.5c-30.667 0 -58.834 5.66699 -84.501 17s-47.834 27.166 -66.501 47.499s-33.167 45 -43.5 74
s-15.5 61.167 -15.5 96.5c0 41.333 8.16699 79.333 24.5 114s37.666 64.667 63.999 90s56.666 45.166 90.999 59.499s69.5 21.5 105.5 21.5c34 0 63.667 -6.5 89 -19.5s45.666 -26.167 60.999 -39.5c16 22.667 26.667 37.167 32 43.5s9.33301 9.5 12 9.5
c4 0 6 -2.33301 6 -7v-625zM278.005 487.998c-54 0 -96.3311 -18.665 -126.998 -55.998s-46 -93 -46 -167c0 -28.667 4.33301 -57.334 13 -86.001s21.167 -54.5 37.5 -77.5s36.166 -41.833 59.499 -56.5s50 -22 80 -22c28 0 55.667 7.66699 83 23s49.666 36.333 66.999 63
v285c-9.33301 9.33301 -19.833 19.5 -31.5 30.5s-24.667 21.167 -39 30.5s-29.5 17.166 -45.5 23.499s-33 9.5 -51 9.5z" />
    <glyph glyph-name="r" unicode="r" horiz-adv-x="327" 
d="M215 493c17.333 11.333 36.334 17 57.001 17c12 0 22.5 -1.33301 31.5 -4s13.5 -7.33398 13.5 -14.001c0 -4 -1 -9 -3 -15s-5 -11.667 -9 -17s-9.16699 -10 -15.5 -14s-13.833 -6 -22.5 -6h-37c-18 0 -32.167 -1 -42.5 -3s-18.333 -6.33301 -24 -13
s-9.16699 -16.334 -10.5 -29.001s-2 -29.667 -2 -51v-335h61c4 0 6 -1.5 6 -4.5s-2 -4.5 -6 -4.5c-2 0 -7 0.166992 -15 0.5s-16.833 0.5 -26.5 0.5s-19 0.166992 -28 0.5s-15.5 0.5 -19.5 0.5s-10.167 -0.166992 -18.5 -0.5s-17.5 -0.5 -27.5 -0.5s-20 -0.166992 -30 -0.5
s-18.667 -0.5 -26 -0.5c-4 0 -6 1.5 -6 4.5s2 4.5 6 4.5c12 0 21.667 0.833008 29 2.5s13 6.16699 17 13.5s6.66699 18.333 8 33s2 35 2 61v258c0 14.667 -4.83301 28.334 -14.5 41.001s-20.167 24.334 -31.5 35.001c-2.66699 2.66699 -2.66699 4.66699 0 6
c9.33301 3.33301 21 9 35 17s25.333 16.333 34 25c1.33301 1.33301 3.33301 1 6 -1c8.66699 -8 17.5 -20.5 26.5 -37.5s14.5 -35.167 16.5 -54.5c6 22 15.167 39.333 27.5 52s25.166 23.667 38.499 33z" />
    <glyph glyph-name="s" unicode="s" horiz-adv-x="444" 
d="M39 361c0 26 5.66504 48.333 16.998 67s26 34 44 46s38 21 60 27s43.333 9 64 9s38.167 -0.5 52.5 -1.5s27.666 -2.16699 39.999 -3.5s24.166 -3.16602 35.499 -5.49902s24.333 -4.5 39 -6.5c4.66699 -0.666992 7 -3.33398 7 -8.00098c0 -8 -0.333008 -20 -1 -36
s-1.16699 -32.833 -1.5 -50.5s-0.833008 -34.667 -1.5 -51s-1 -28.833 -1 -37.5c0 -4 -1.33301 -6 -4 -6s-4 2 -4 6c0 60.667 -12 107.834 -36 141.501s-65.333 50.5 -124 50.5c-41.333 0 -74.666 -8 -99.999 -24s-38 -37 -38 -63c0 -17.333 4.5 -32 13.5 -44
s20.833 -22.667 35.5 -32s31.5 -17.666 50.5 -24.999s38.5 -14.333 58.5 -21c20.667 -7.33301 41.334 -15 62.001 -23s39 -17.667 55 -29s29 -24.833 39 -40.5s15 -34.5 15 -56.5s-4.66699 -42.5 -14 -61.5s-22 -35.333 -38 -49s-34.833 -24.334 -56.5 -32.001
s-45.167 -11.5 -70.5 -11.5c-26 0 -48.667 1.33301 -68 4s-36.666 6 -51.999 10s-28.833 8 -40.5 12s-22.5 7.33301 -32.5 10c-4.66699 0.666992 -7 5.33398 -7 14.001c0 4 0.333008 8.83301 1 14.5s1.33398 14.667 2.00098 27s1.33398 29.333 2.00098 51s1 50.167 1 85.5
c0 4.66699 1.33301 7 4 7s4 -2.33301 4 -7c0 -36 3 -67.5 9 -94.5s16.167 -49.833 30.5 -68.5s33.5 -32.667 57.5 -42s53.667 -14 89 -14c24 0 44.333 2.66699 61 8s30.167 12.5 40.5 21.5s17.666 19.5 21.999 31.5s6.5 25 6.5 39c0 17.333 -4.5 32.166 -13.5 44.499
s-20.833 23.166 -35.5 32.499s-31.667 17.5 -51 24.5s-39 13.833 -59 20.5c-21.333 6.66699 -42 14 -62 22s-38 17.5 -54 28.5s-28.833 23.667 -38.5 38s-14.5 31.5 -14.5 51.5z" />
    <glyph glyph-name="t" unicode="t" horiz-adv-x="326" 
d="M144 499l29.002 -0.00390625h37.5c13 0 25.667 0.166992 38 0.5s22.5 0.5 30.5 0.5c16.667 0.666992 26.667 0.833984 30 0.500977s5 -1.16602 5 -2.49902c0 -3.33301 -4.33301 -9.66602 -13 -18.999s-20.667 -21 -36 -35h-18c-10 0 -21.333 0.166992 -34 0.5
s-25.5 0.5 -38.5 0.5h-32.5v-314c0 -73.333 21.667 -110 65 -110c20 0 39.167 8.83301 57.5 26.5s33.166 43.5 44.499 77.5c1.33301 4 4.33301 5 9 3s6 -5 4 -9c-8 -16 -17.5 -31.833 -28.5 -47.5s-23.333 -29.5 -37 -41.5s-28.334 -21.667 -44.001 -29
s-32.167 -11 -49.5 -11c-34 0 -58.5 11 -73.5 33s-22.5 57 -22.5 105v317h-55c-0.666992 0 -1.16699 0.5 -1.5 1.5s0.166992 2.16699 1.5 3.5l128 147c2.66699 2.66699 4 2.33398 4 -0.999023v-97z" />
    <glyph glyph-name="u" unicode="u" horiz-adv-x="559" 
d="M67 377c0 21.333 -0.995117 37.6729 -2.99512 49.0059s-5.5 19.333 -10.5 24s-11.5 6.66699 -19.5 6s-18.333 -2 -31 -4c-4 -0.666992 -6 0.5 -6 3.5s2 4.83301 6 5.5c25.333 4.66699 47.666 11 66.999 19s37.666 16.667 54.999 26
c1.33301 1.33301 4.66602 1.16602 9.99902 -0.500977s8 -3.83398 8 -6.50098v-316c0 -31.333 3.33301 -57.333 10 -78s15.5 -37.334 26.5 -50.001s23.5 -21.667 37.5 -27s28.667 -8 44 -8c31.333 0 58.5 7.16699 81.5 21.5s46.5 37.5 70.5 69.5v266
c0 21.333 -1 37.666 -3 48.999s-5.5 19.333 -10.5 24s-11.5 6.66699 -19.5 6s-18.333 -2 -31 -4c-4 -0.666992 -6 0.5 -6 3.5s2 4.83301 6 5.5c25.333 4.66699 47.5 11 66.5 19s37.167 16.667 54.5 26c1.33301 1.33301 4.66602 1.16602 9.99902 -0.500977
s8 -3.83398 8 -6.50098v-380c0 -25.333 0.5 -45.333 1.5 -60s3.16699 -25.667 6.5 -33s8.66602 -12 15.999 -14s17 -3 29 -3c3.33301 0 5 -1.5 5 -4.5s-1.66699 -4.5 -5 -4.5c-31.333 0 -57.333 -1.33301 -78 -4s-38 -4.66699 -52 -6
c-4 -0.666992 -6.33301 -0.166992 -7 1.5s-1 4.16699 -1 7.5s1.5 13.833 4.5 31.5s4.83301 40.5 5.5 68.5c-25.333 -34 -53 -60.667 -83 -80s-64 -29 -102 -29c-22.667 0 -43.834 3.16699 -63.501 9.5s-36.667 17.333 -51 33s-25.666 36.5 -33.999 62.5
s-12.5 58.667 -12.5 98v184z" />
    <glyph glyph-name="v" unicode="v" horiz-adv-x="531" 
d="M278 -2c-0.666992 -1.33301 -1.99902 -2.00098 -3.99902 -2.00098h-16c-2 0 -3.33301 0.666992 -4 2l-160 367c-12 28 -22.667 50.5 -32 67.5s-18 29.833 -26 38.5s-16.167 14.167 -24.5 16.5s-17.833 3.5 -28.5 3.5c-3.33301 0 -5 1.5 -5 4.5s1.66699 4.5 5 4.5
c2 0 7.66699 -0.166992 17 -0.5s19.5 -0.5 30.5 -0.5s21.667 -0.166992 32 -0.5s17.166 -0.5 20.499 -0.5h18c8.66699 0 18.167 0.166992 28.5 0.5s20.666 0.5 30.999 0.5h24.5c4 0 6 -1.33301 6 -4s-2 -4 -6 -4c-14.667 0 -26 -1 -34 -3s-12.833 -6.5 -14.5 -13.5
s-0.5 -17 3.5 -30s10.667 -30.167 20 -51.5l139 -320l116 277c20 50 25.833 86 17.5 108s-28.5 32.667 -60.5 32c-4 0 -6 1.5 -6 4.5s2 4.5 6 4.5h23c8.66699 0 17.334 -0.166992 26.001 -0.5s16.667 -0.5 24 -0.5h16c3.33301 0 9.33301 0.166992 18 0.5s17.667 0.5 27 0.5
s17.833 0.166992 25.5 0.5s12.5 0.5 14.5 0.5c3.33301 0 5 -1.5 5 -4.5s-1.66699 -4.5 -5 -4.5c-23.333 0.666992 -44.5 -11.666 -63.5 -36.999s-38.5 -62 -58.5 -110z" />
    <glyph glyph-name="w" unicode="w" horiz-adv-x="829" 
d="M408 386l-163 -388c-0.666992 -1.33301 -1.66699 -2 -3 -2h-11c-2 0 -3.33301 0.666992 -4 2l-134 365c-10 28.667 -19 51.5 -27 68.5s-16 30 -24 39s-16.5 14.667 -25.5 17s-19.833 3.5 -32.5 3.5c-2.66699 0 -4 1.5 -4 4.5s1.33301 4.5 4 4.5
c1.33301 0 6.16602 -0.166992 14.499 -0.5s17.666 -0.5 27.999 -0.5s20 -0.166992 29 -0.5s15.167 -0.5 18.5 -0.5s10.166 0.166992 20.499 0.5s21.666 0.5 33.999 0.5s24.333 0.166992 36 0.5s20.5 0.5 26.5 0.5c3.33301 0 5 -1.5 5 -4.5s-1.66699 -4.5 -5 -4.5
c-14 0 -25 -0.666992 -33 -2s-13.333 -5.16602 -16 -11.499s-2.5 -16 0.5 -29s8.83301 -31.5 17.5 -55.5l111 -302l125 291c1.33301 5.33301 2 10.5 2 15.5s-0.333008 10.833 -1 17.5c-0.666992 5.33301 -1.66699 11.166 -3 17.499s-3.66602 12.5 -6.99902 18.5
c-6 12 -14 21.667 -24 29s-23.333 11 -40 11c-3.33301 0 -5.16602 1.5 -5.49902 4.5s1.16699 4.5 4.5 4.5c6 0 13.667 -0.166992 23 -0.5s18.833 -0.5 28.5 -0.5s18.334 -0.166992 26.001 -0.5s13.167 -0.5 16.5 -0.5s8.83301 0.166992 16.5 0.5s16.167 0.5 25.5 0.5
s18.5 0.166992 27.5 0.5s16.167 0.5 21.5 0.5c4 0 6.16699 -1.5 6.5 -4.5s-1.5 -4.5 -5.5 -4.5c-13.333 0 -24 -0.666992 -32 -2s-13 -5.16602 -15 -11.499s-1.16699 -16 2.5 -29s10.167 -31.5 19.5 -55.5l121 -308l107 266c10.667 26 16.334 47.833 17.001 65.5
s-2.16602 32 -8.49902 43s-15.333 19 -27 24s-24.834 7.5 -39.501 7.5c-3.33301 0 -5.16602 1.5 -5.49902 4.5s1.16699 4.5 4.5 4.5c6 0 14.167 -0.166992 24.5 -0.5s20.833 -0.5 31.5 -0.5s20.334 -0.166992 29.001 -0.5s14.667 -0.5 18 -0.5
c2.66699 0 8.66699 0.166992 18 0.5s19.166 0.5 29.499 0.5s19.666 0.166992 27.999 0.5s13.5 0.5 15.5 0.5c3.33301 0 5.16602 -1.5 5.49902 -4.5s-1.16699 -4.5 -4.5 -4.5c-14.667 0 -27.5 -2.5 -38.5 -7.5s-21.167 -13.333 -30.5 -25s-18.666 -26.834 -27.999 -45.501
s-19.333 -41.667 -30 -69l-139 -346c-0.666992 -1.33301 -2.66699 -2 -6 -2h-10c-2 0 -3.33301 0.666992 -4 2z" />
    <glyph glyph-name="x" unicode="x" horiz-adv-x="531" 
d="M393 137c20.667 -31.333 37.499 -55.666 50.499 -72.999s24 -30.166 33 -38.499s17.5 -13.166 25.5 -14.499s17.667 -2 29 -2c3.33301 0 5.33301 -1.5 6 -4.5s-0.666016 -4.5 -3.99902 -4.5c-2 0 -7.33301 0.166992 -16 0.5s-18.167 0.5 -28.5 0.5
s-20.166 0.166992 -29.499 0.5s-15.666 0.5 -18.999 0.5s-10.333 -0.166992 -21 -0.5s-22.167 -0.5 -34.5 -0.5s-24.5 -0.166992 -36.5 -0.5s-21 -0.5 -27 -0.5c-4 0 -6.33301 1.5 -7 4.5s1 4.5 5 4.5c14.667 0 26.5 0.666992 35.5 2s14.333 5.16602 16 11.499
s-0.833008 16 -7.5 29s-18 31.5 -34 55.5l-87 128l-67 -85c-32 -42 -48 -75 -48 -99c0 -14 4.5 -24.5 13.5 -31.5s21.5 -10.5 37.5 -10.5c4 0 6 -1.5 6 -4.5s-2 -4.5 -6 -4.5c-6 0 -13.833 0.166992 -23.5 0.5s-19.334 0.5 -29.001 0.5s-18.5 0.166992 -26.5 0.5
s-13.333 0.5 -16 0.5c-3.33301 0 -9 -0.166992 -17 -0.5s-16.167 -0.5 -24.5 -0.5s-16 -0.166992 -23 -0.5s-11.5 -0.5 -13.5 -0.5c-3.33301 0 -5 1.5 -5 4.5s1.66699 4.5 5 4.5c16.667 -0.666992 37.667 10.166 63 32.499s59 60.833 101 115.5l68 87l-80 119
c-20.667 31.333 -37.5 55.666 -50.5 72.999s-24.167 30.166 -33.5 38.499s-18.166 13.166 -26.499 14.499s-18.166 2 -29.499 2c-3.33301 0 -5.33301 1.5 -6 4.5s0.666016 4.5 3.99902 4.5c1.33301 0 6.5 -0.166992 15.5 -0.5s19 -0.5 30 -0.5s21.667 -0.166992 32 -0.5
s17.166 -0.5 20.499 -0.5s9.66602 0.166992 18.999 0.5s19.333 0.5 30 0.5s21.334 0.166992 32.001 0.5s19 0.5 25 0.5c4 0 6.33301 -1.5 7 -4.5s-1 -4.5 -5 -4.5c-14.667 0 -26 -0.666992 -34 -2s-12.167 -5.16602 -12.5 -11.499s3.16699 -16 10.5 -29s19 -31.5 35 -55.5
l70 -104l45 60c19.333 26 33.333 48 42 66s12.667 32.667 12 44c-0.666992 20.667 -18.667 31 -54 31c-3.33301 0 -5 1.5 -5 4.5s1.66699 4.5 5 4.5c6.66699 0 14.667 -0.166992 24 -0.5s18.5 -0.5 27.5 -0.5s17.167 -0.166992 24.5 -0.5s12.666 -0.5 15.999 -0.5
s9.5 0.166992 18.5 0.5s18.167 0.5 27.5 0.5s18 0.166992 26 0.5s13 0.5 15 0.5c3.33301 0 5 -1.5 5 -4.5s-1.66699 -4.5 -5 -4.5c-24 0.666992 -49.5 -11.666 -76.5 -36.999s-58.5 -62 -94.5 -110l-47 -62z" />
    <glyph glyph-name="y" unicode="y" horiz-adv-x="537" 
d="M117 -136c12.667 0 24.665 1.33301 35.998 4s22.333 8.16699 33 16.5s21.5 20.333 32.5 36s22.167 36.5 33.5 62.5l11 25l-159 352c-14 30.667 -25.667 54.667 -35 72s-18.166 30.5 -26.499 39.5s-16.666 14.5 -24.999 16.5s-18.5 3 -30.5 3c-3.33301 0 -5 1.5 -5 4.5
s1.66699 4.5 5 4.5c2 0 7.5 -0.166992 16.5 -0.5s19 -0.5 30 -0.5s21.5 -0.166992 31.5 -0.5s17 -0.5 21 -0.5c3.33301 0 9.5 0.166992 18.5 0.5s19 0.5 30 0.5s21.833 0.166992 32.5 0.5s19.334 0.5 26.001 0.5c4 0 6 -1.5 6 -4.5s-2 -4.5 -6 -4.5
c-14.667 0 -26.167 -1.16699 -34.5 -3.5s-13.5 -7 -15.5 -14s-0.833008 -17.167 3.5 -30.5s11.5 -31 21.5 -53l133 -295l112 252c21.333 48 27 84 17 108s-31 36 -63 36c-4 0 -6 1.5 -6 4.5s2 4.5 6 4.5c6.66699 0 14.834 -0.166992 24.501 -0.5s19 -0.5 28 -0.5
s17.333 -0.166992 25 -0.5s13.167 -0.5 16.5 -0.5c4 0 10.5 0.166992 19.5 0.5s18.333 0.5 28 0.5s18.667 0.166992 27 0.5s13.5 0.5 15.5 0.5c3.33301 0 5 -1.5 5 -4.5s-1.66699 -4.5 -5 -4.5c-23.333 0.666992 -45.333 -12.166 -66 -38.499s-41.667 -63.5 -63 -111.5
l-160 -360c-25.333 -58.667 -54.333 -102.167 -87 -130.5s-73.334 -42.5 -122.001 -42.5c-27.333 0 -48 4.16699 -62 12.5s-21 17.166 -21 26.499c0 4 1.33301 8.66699 4 14s6.5 10.333 11.5 15s10.833 8.66699 17.5 12s14 5 22 5c8.66699 0 16.667 -1.5 24 -4.5
s14.5 -6.33301 21.5 -10s14.167 -7 21.5 -10s15.666 -4.5 24.999 -4.5z" />
    <glyph glyph-name="z" unicode="z" horiz-adv-x="505" 
d="M51 245c0 -3.33301 -1.50293 -5.00098 -4.50293 -5.00098s-4.5 1.66699 -4.5 5l3 62c2.66699 58.667 4.83398 104.667 6.50098 138s3.16699 50.333 4.5 51c3.33301 1.33301 9.66602 2.33301 18.999 3s18.666 1 27.999 1h32c15.333 0 32.833 -0.166992 52.5 -0.5
s40.334 -0.5 62.001 -0.5s41.834 -0.166992 60.501 -0.5s34.5 -0.5 47.5 -0.5h23.5c4 0 9.5 0.166992 16.5 0.5s14.167 0.666016 21.5 0.999023s14.5 0.666016 21.5 0.999023s12.167 0.5 15.5 0.5c4.66699 0 6.83398 -2.16699 6.50098 -6.5s-2.5 -9.16602 -6.5 -14.499
l-348 -468c10.667 0 23.167 -0.166992 37.5 -0.5s28.5 -0.666016 42.5 -0.999023s26.833 -0.5 38.5 -0.5h27.5c64 0 112.167 17.333 144.5 52s50.833 81.667 55.5 141l5 69c0 3.33301 1.66699 4.83301 5 4.5s4.66602 -2.16602 3.99902 -5.49902l-5 -69
c-4 -40.667 -7 -73.667 -9 -99s-3.66699 -45.166 -5 -59.499s-2.5 -24.333 -3.5 -30s-1.83301 -8.83398 -2.5 -9.50098c-1.33301 -1.33301 -3.16602 -2.16602 -5.49902 -2.49902s-6.66602 -0.666016 -12.999 -0.999023s-15 -0.5 -26 -0.5h-42.5h-67
c-27.333 0 -53.666 0.333008 -78.999 1c-30 0 -61 0.333008 -93 1l-84 -2c-4 0 -7.83301 0.666992 -11.5 2s-4.83398 3.66602 -3.50098 6.99902l358 480h-130c-33.333 0 -61.833 -3.83301 -85.5 -11.5s-43.167 -19 -58.5 -34s-26.833 -33.833 -34.5 -56.5
s-12.167 -49.334 -13.5 -80.001z" />
    <glyph glyph-name="braceleft" unicode="{" horiz-adv-x="445" 
d="M238 374c0 -16 -2.50098 -30.6729 -7.50098 -44.0059s-11.667 -25.166 -20 -35.499s-18 -19.166 -29 -26.499s-22.167 -13.333 -33.5 -18c11.333 -4.66699 22.5 -10.667 33.5 -18s20.667 -16.166 29 -26.499s15 -22 20 -35s7.5 -27.5 7.5 -43.5
c0 -21.333 -3.5 -43 -10.5 -65s-14.5 -44.667 -22.5 -68s-15.5 -47.166 -22.5 -71.499s-10.5 -48.833 -10.5 -73.5c0 -18 2.83301 -34.667 8.5 -50s15.5 -28.833 29.5 -40.5s32.667 -20.667 56 -27s52.666 -9.5 87.999 -9.5c8 0 12.667 -3.16699 14 -9.5
s-3.66699 -9.5 -15 -9.5c-36 0 -66.833 4.33301 -92.5 13s-46.834 20.5 -63.501 35.5s-29 32.667 -37 53s-12 42.166 -12 65.499c0 26.667 3.66699 52 11 76s15.333 47 24 69s16.667 43.333 24 64s11 41 11 61c0 16 -2.66699 30.5 -8 43.5s-12.5 23.833 -21.5 32.5
s-19.333 15.334 -31 20.001s-23.5 7 -35.5 7c-5.33301 0 -8 2.33301 -8 7c0 3.33301 0.333008 5.5 1 6.5s3 1.5 7 1.5c12 0 23.833 2.33301 35.5 7s22 11.334 31 20.001s16.167 19.5 21.5 32.5s8 27.5 8 43.5c0 20 -3.66699 40.167 -11 60.5s-15.333 41.5 -24 63.5
s-16.667 45 -24 69s-11 49.667 -11 77c0 22.667 5.16699 44 15.5 64s25 37.5 44 52.5s41.667 26.833 68 35.5s55.5 13 87.5 13c10.667 0 15.334 -2.83301 14.001 -8.5s-5.66602 -8.5 -12.999 -8.5c-65.333 0 -113.666 -12.167 -144.999 -36.5s-47 -54.5 -47 -90.5
c0 -25.333 3.5 -50 10.5 -74s14.5 -47.667 22.5 -71s15.5 -46.166 22.5 -68.499s10.5 -43.833 10.5 -64.5z" />
    <glyph glyph-name="bar" unicode="|" horiz-adv-x="267" 
d="M142 247c0 -40 0.169922 -81.667 0.50293 -125s0.666016 -87 0.999023 -131s0.833008 -87.667 1.5 -131s1.66699 -85.333 3 -126c-6.66699 -5.33301 -11.5 -8.66602 -14.5 -9.99902s-7.83301 -1.33301 -14.5 0c2 42 3.5 85.167 4.5 129.5s2 88.833 3 133.5
s1.66699 89 2 133s0.5 86 0.5 126s-0.166992 83.667 -0.5 131s-0.833008 94.833 -1.5 142.5s-1.33398 93.5 -2.00098 137.5s-1.33398 83 -2.00098 117c6 4.66699 10.833 7.16699 14.5 7.5s9.16699 -0.166992 16.5 -1.5c-2 -36.667 -3.83301 -77.5 -5.5 -122.5
s-3 -91.333 -4 -139s-1.66699 -94.834 -2 -141.501s-0.5 -90 -0.5 -130z" />
    <glyph glyph-name="braceright" unicode="}" horiz-adv-x="445" 
d="M207 127c0 32 9.16504 58.1738 27.498 78.5068s39.166 35.166 62.499 44.499c-23.333 9.33301 -44.166 24.166 -62.499 44.499s-27.5 46.833 -27.5 79.5c0 20.667 3.5 42.167 10.5 64.5s14.5 45.166 22.5 68.499s15.5 47 22.5 71s10.5 48.667 10.5 74
c0 36 -15.667 66.167 -47 90.5s-79.666 36.5 -144.999 36.5c-7.33301 0 -11.666 2.83301 -12.999 8.5s3.33398 8.5 14.001 8.5c66.667 0 119.167 -15 157.5 -45s57.5 -70 57.5 -120c0 -27.333 -3.66699 -53 -11 -77s-15.333 -47 -24 -69s-16.667 -43.167 -24 -63.5
s-11 -40.5 -11 -60.5c0 -16 2.66699 -30.5 8 -43.5s12.5 -23.833 21.5 -32.5s19.333 -15.334 31 -20.001s23.5 -7 35.5 -7c4 0 6.33301 -0.5 7 -1.5s1 -3.16699 1 -6.5c0 -4.66699 -2.66699 -7 -8 -7c-12 0 -23.833 -2.33301 -35.5 -7s-22 -11.334 -31 -20.001
s-16.167 -19.5 -21.5 -32.5s-8 -27.5 -8 -43.5c0 -20 3.66699 -40.333 11 -61s15.333 -42 24 -64s16.667 -45 24 -69s11 -49.333 11 -76c0 -24 -4.16699 -46.333 -12.5 -67s-20.833 -38.334 -37.5 -53.001s-38 -26.167 -64 -34.5s-56.333 -12.5 -91 -12.5
c-11.333 0 -16.333 3.16699 -15 9.5s6 9.5 14 9.5c35.333 0 64.666 3.16699 87.999 9.5s42 15.333 56 27s23.833 25.167 29.5 40.5s8.5 32 8.5 50c0 24.667 -3.5 49.167 -10.5 73.5s-14.5 48.166 -22.5 71.499s-15.5 46 -22.5 68s-10.5 43.667 -10.5 65z" />
    <glyph glyph-name="asciitilde" unicode="~" horiz-adv-x="833" 
d="M264 322c26 33.333 45.498 57.165 58.498 71.498s25.5 21.5 37.5 21.5c10.667 0 22.834 -3 36.501 -9s27.334 -12.833 41.001 -20.5s26.834 -14.5 39.501 -20.5s23.667 -9 33 -9c4.66699 0 8.5 0.333008 11.5 1s6.5 2.66699 10.5 6s8.83301 8.83301 14.5 16.5
s13.167 18.167 22.5 31.5c3.33301 3.33301 6.16602 4.5 8.49902 3.5s1.83301 -3.83301 -1.5 -8.5c-21.333 -32 -40 -56.667 -56 -74s-32 -26 -48 -26c-10 0 -21.667 3.33301 -35 10s-26.666 13.834 -39.999 21.501s-26.333 14.834 -39 21.501s-24 10 -34 10
c-2.66699 0 -5.16699 -0.5 -7.5 -1.5s-5.33301 -3.33301 -9 -7s-8.33398 -8.83398 -14.001 -15.501s-13.167 -16 -22.5 -28c-4 -4.66699 -6.83301 -6.16699 -8.5 -4.5s-1.16699 4.83398 1.5 9.50098z" />
    <glyph glyph-name="nonbreakingspace" unicode="&#xa0;" horiz-adv-x="309" 
 />
    <glyph glyph-name="exclamdown" unicode="&#xa1;" horiz-adv-x="252" 
d="M184 458c0 -15.333 -5.5 -28.833 -16.5 -40.5s-24.833 -17.5 -41.5 -17.5c-15.333 0 -28.833 5.83301 -40.5 17.5s-17.5 25.167 -17.5 40.5c0 16.667 5.83301 30.5 17.5 41.5s25.167 16.5 40.5 16.5c16.667 0 30.5 -5.5 41.5 -16.5s16.5 -24.833 16.5 -41.5zM158 -101
c0 -5.33301 -2.33398 -12.3301 -7.00098 -20.9971s-10 -17.167 -16 -25.5s-12 -15.5 -18 -21.5s-10.333 -9 -13 -9c-7.33301 0 -13.166 3 -17.499 9s-6.5 14.667 -6.5 26v4c0 25.333 2.16699 57.166 6.5 95.499s9 79.666 14 123.999s9.66699 89.666 14 135.999
s6.5 90.5 6.5 132.5c0 2.66699 1 4 3 4s3 -1.33301 3 -4c0 -42 1.66699 -85 5 -129s6.83301 -86.167 10.5 -126.5s7.16699 -77 10.5 -110s5 -59.5 5 -79.5v-5z" />
    <glyph glyph-name="cent" unicode="&#xa2;" horiz-adv-x="523" 
d="M294 250c-0.666992 -35.333 -0.996094 -69.333 -0.996094 -102v-98c6 -0.666992 12.167 -1.16699 18.5 -1.5s12.833 -0.5 19.5 -0.5c47.333 0 87.666 11.167 120.999 33.5s62.666 56.5 87.999 102.5c2 4 4.33301 5.33301 7 4s3 -3.66602 1 -6.99902
c-13.333 -25.333 -29.166 -49 -47.499 -71s-38.5 -41.5 -60.5 -58.5s-45.5 -30.833 -70.5 -41.5s-50.5 -17 -76.5 -19c0.666992 -32 1.16699 -64.167 1.5 -96.5s1.16602 -66.166 2.49902 -101.499c-6.66699 -5.33301 -11.334 -8.66602 -14.001 -9.99902
s-7.33398 -1.33301 -14.001 0c1.33301 36 2.66602 71 3.99902 105l4 102c-35.333 0 -67.666 5.83301 -96.999 17.5s-54.666 28.167 -75.999 49.5s-37.833 46.666 -49.5 75.999s-17.5 61.666 -17.5 96.999c0 34 6.66699 66.5 20 97.5s31.166 58.833 53.499 83.5
s48.166 45.334 77.499 62.001s60.333 27.667 93 33c0 30 -0.166992 59.167 -0.5 87.5s-0.833008 57.166 -1.5 86.499c6 4.66699 10.333 7.16699 13 7.5s7.66699 -0.166992 15 -1.5c-1.33301 -30.667 -2.66602 -60.5 -3.99902 -89.5s-2.66602 -58.167 -3.99902 -87.5
c4 0 7.83301 0.166992 11.5 0.5s7.5 0.5 11.5 0.5c24.667 0 47.167 -2.33301 67.5 -7s37.833 -10.5 52.5 -17.5s26.167 -15 34.5 -24s12.5 -17.833 12.5 -26.5s-4.16699 -17.667 -12.5 -27s-20.5 -14 -36.5 -14c-10 0 -19.167 4.33301 -27.5 13s-17.5 18.5 -27.5 29.5
s-21.833 21.5 -35.5 31.5s-30.834 16.333 -51.501 19c-1.33301 -38 -2.33301 -76.333 -3 -115s-1 -79.334 -1 -122.001zM97.0039 267c0 -26.667 4.33496 -51.832 13.002 -75.499s21 -44.834 37 -63.501s35.167 -34.5 57.5 -47.5s47.166 -22.167 74.499 -27.5
c1.33301 34 2.33301 67.167 3 99.5s1 64.5 1 96.5v123.5c0 39 -0.333008 77.5 -1 115.5h-2c-24.667 0 -48.167 -4.66699 -70.5 -14s-41.833 -23.166 -58.5 -41.499s-29.834 -41.333 -39.501 -69s-14.5 -59.834 -14.5 -96.501z" />
    <glyph glyph-name="sterling" unicode="&#xa3;" horiz-adv-x="663" 
d="M246 244c41.333 0 80.6611 0.674805 117.994 2.00781s68.333 2.66602 93 3.99902c3.33301 -2.66699 5 -6.83398 5 -12.501s-1.66699 -9.5 -5 -11.5c-27.333 2 -59 3.66699 -95 5s-74.333 2 -115 2h-33c-12 -60.667 -25.167 -116 -39.5 -166s-29.833 -91.667 -46.5 -125
c22.667 -3.33301 47.834 -7.33301 75.501 -12s56.5 -9.16699 86.5 -13.5s60.167 -8 90.5 -11s59.166 -4.5 86.499 -4.5c18.667 0 34.5 5 47.5 15s22.5 19.667 28.5 29c10.667 15.333 20.5 33.666 29.5 54.999s16.167 43.666 21.5 66.999l10 44
c1.33301 3.33301 3.83301 4.83301 7.5 4.5s4.83398 -2.16602 3.50098 -5.49902l-10 -45c-10 -44 -18.833 -81.667 -26.5 -113s-13.5 -54.666 -17.5 -69.999c-1.33301 -4.66699 -4.16602 -10 -8.49902 -16s-9.66602 -11.833 -15.999 -17.5s-13.5 -10.334 -21.5 -14.001
s-16.667 -5.5 -26 -5.5c-27.333 0 -57.666 4.33301 -90.999 13s-66.666 18.667 -99.999 30s-65.333 23 -96 35s-56.667 21 -78 27c-16.667 -30.667 -33.334 -51 -50.001 -61c-12 -6.66699 -21.833 -10.667 -29.5 -12s-16.167 -2 -25.5 -2s-19.166 3.33301 -29.499 10
s-15.5 16.667 -15.5 30c0 16.667 6.66699 29.5 20 38.5s31.666 13.5 54.999 13.5c7.33301 0 17.166 -0.666992 29.499 -2s26.166 -3.33301 41.499 -6c4 12 7.5 28.167 10.5 48.5s5.83301 43.166 8.5 68.499s5.16699 52.666 7.5 81.999s4.5 59.333 6.5 90
c-25.333 -0.666992 -49.5 -1.5 -72.5 -2.5s-42.833 -2.16699 -59.5 -3.5c-3.33301 2 -5 5.16699 -5 9.5s1.66699 7.83301 5 10.5c15.333 -1.33301 34.833 -2 58.5 -2h74.5c2 28 4.16699 56.167 6.5 84.5s5.16602 55.166 8.49902 80.499
c4.66699 44 13.334 82.167 26.001 114.5s27.167 60 43.5 83s33.333 41.833 51 56.5s33.834 26.667 48.501 36c35.333 22 70 33 104 33c26.667 0 48.667 -6.66699 66 -20s26 -29.666 26 -48.999c0 -16 -4.16699 -28.167 -12.5 -36.5s-18.833 -12.5 -31.5 -12.5
c-16.667 0 -27.5 5.16699 -32.5 15.5s-8.5 21.166 -10.5 32.499c-2 10.667 -6.66699 21 -14 31s-20.666 15 -39.999 15c-7.33301 0 -16.166 -1.66699 -26.499 -5s-18.5 -7.33301 -24.5 -12c-10.667 -8.66699 -20.667 -19.334 -30 -32.001s-18.166 -29.167 -26.499 -49.5
s-15.833 -45.833 -22.5 -76.5s-13 -68.334 -19 -113.001c-4 -30.667 -8.33301 -60.667 -13 -90s-9.66699 -58 -15 -86h30v0z" />
    <glyph glyph-name="yen" unicode="&#xa5;" horiz-adv-x="615" 
d="M352 331c32 0.666992 61.333 1.83887 88 3.50586s50.334 3.5 71.001 5.5c3.33301 -3.33301 4.66602 -7.16602 3.99902 -11.499s-1.66699 -8.5 -3 -12.5c-22.667 3.33301 -47.667 5.33301 -75 6s-56.666 1 -87.999 1v-140c32 0.666992 61.5 1.66699 88.5 3
s50.833 3.66602 71.5 6.99902c3.33301 -2.66699 5.16602 -6.33398 5.49902 -11.001s-0.5 -9 -2.5 -13c-22.667 2 -47.5 3.33301 -74.5 4s-56.5 1.33398 -88.5 2.00098c0 -40.667 0.833008 -72.167 2.5 -94.5s4.5 -38.833 8.5 -49.5s9.5 -17 16.5 -19s15.833 -3 26.5 -3h18
c4 0 6 -1.5 6 -4.5s-2 -4.5 -6 -4.5c-7.33301 0 -16.333 0.166992 -27 0.5s-21.5 0.666016 -32.5 0.999023s-21 0.666016 -30 0.999023s-15.5 0.5 -19.5 0.5c-3.33301 0 -9.66602 -0.166992 -18.999 -0.5s-19.5 -0.666016 -30.5 -0.999023
s-22.167 -0.666016 -33.5 -0.999023s-20.333 -0.5 -27 -0.5c-4 0 -6 1.5 -6 4.5s2 4.5 6 4.5h18c10.667 0 19.334 1 26.001 3s12 8.33301 16 19s6.83301 27.167 8.5 49.5s2.83398 53.833 3.50098 94.5c-32 -0.666992 -60.167 -1.5 -84.5 -2.5s-49.166 -2.5 -74.499 -4.5
c-3.33301 1.33301 -5.16602 4.33301 -5.49902 9s0.5 9 2.5 13c27.333 -3.33301 53.333 -5.33301 78 -6s52.667 -1 84 -1v138l-1 2c-31.333 -0.666992 -59 -1.5 -83 -2.5s-49 -3.16699 -75 -6.5c-3.33301 2.66699 -5 6.16699 -5 10.5s0.666992 8.16602 2 11.499
c26 -2 51 -3.33301 75 -4s51 -1 81 -1l-102 178c-20 34.667 -36.833 63.167 -50.5 85.5s-26 40.166 -37 53.499s-21.667 22.666 -32 27.999s-21.833 8 -34.5 8h-8c-4.66699 0 -7 1.33301 -7 4c0 3.33301 2 5 6 5c7.33301 0 15.833 -0.166992 25.5 -0.5l29 -1
c9.66699 -0.333008 18.5 -0.666016 26.5 -0.999023s14 -0.5 18 -0.5s11.167 0.166992 21.5 0.5s21.666 0.666016 33.999 0.999023s24.5 0.666016 36.5 0.999023s21.667 0.5 29 0.5c4 0 6.5 -1.5 7.5 -4.5s-0.5 -4.5 -4.5 -4.5h-21c-12.667 0 -21.167 -3 -25.5 -9
s-4.83301 -16 -1.5 -30s10.833 -32.5 22.5 -55.5s27.167 -51.5 46.5 -85.5l96 -166l105 174c6 10 13.167 24.5 21.5 43.5s14.166 38.167 17.499 57.5s1.66602 36.166 -5.00098 50.499s-22 21.5 -46 21.5c-4 0 -9.16699 -0.666992 -15.5 -2s-10.5 -2 -12.5 -2
c-4.66699 0 -7 2 -7 6c0 1.33301 0.666992 2.66602 2 3.99902s4.66602 2 9.99902 2c4.66699 0 11.834 -0.166992 21.501 -0.5s20 -0.5 31 -0.5s21.5 -0.166992 31.5 -0.5s17 -0.5 21 -0.5c3.33301 0 9.66602 0.166992 18.999 0.5s19.666 0.5 30.999 0.5
s22.5 0.166992 33.5 0.5s19.5 0.5 25.5 0.5c4 0 6 -1.5 6 -4.5s-1.66699 -4.5 -5 -4.5h-7c-14 0 -28.167 -5.66699 -42.5 -17s-28.5 -25.833 -42.5 -43.5s-27.5 -36.667 -40.5 -57s-25.167 -39.5 -36.5 -57.5z" />
    <glyph glyph-name="brokenbar" unicode="&#xa6;" horiz-adv-x="267" 
d="M126 293c0 8.66699 0.168945 24.667 0.501953 48s0.666016 48 0.999023 74s0.666016 50.667 0.999023 74s0.5 39 0.5 47l-6 238c3.33301 6.66699 7.33301 10.167 12 10.5s9 -1.16699 13 -4.5c0 -8.66699 -0.333008 -24.667 -1 -48s-1.33398 -48.166 -2.00098 -74.499
s-1.33398 -51.166 -2.00098 -74.499s-1 -39 -1 -47c0 -8.66699 0.333008 -24.334 1 -47.001s1.33398 -46.667 2.00098 -72s1.33398 -49.333 2.00098 -72s1 -38 1 -46c-5.33301 -4.66699 -9.33301 -7.33398 -12 -8.00098s-6 0 -10 2zM122.002 -284
c0 8.66699 0.334961 24.665 1.00195 47.998s1.5 48 2.5 74s1.83301 50.667 2.5 74s1 39 1 47l-3 238c2 4.66699 5.33301 7.33398 10 8.00098s8.66699 0 12 -2c0 -8.66699 -0.333008 -24.667 -1 -48s-1.33398 -48.166 -2.00098 -74.499s-1.33398 -51.166 -2.00098 -74.499
s-1 -39 -1 -47c0 -8.66699 0.333008 -24.334 1 -47.001s1.16699 -46.667 1.5 -72s0.833008 -49.333 1.5 -72s1 -38 1 -46c-8.66699 -8 -17 -10 -25 -6z" />
    <glyph glyph-name="section" unicode="&#xa7;" horiz-adv-x="585" 
d="M528 86c0 -34 -9.66699 -62.668 -29 -86.001s-43 -44.666 -71 -63.999c-2.66699 -18 -8.83398 -34.833 -18.501 -50.5s-21.834 -29.334 -36.501 -41.001s-30.834 -20.834 -48.501 -27.501s-35.5 -10 -53.5 -10c-18.667 0 -36 2 -52 6s-30 9.33301 -42 16
s-21.333 14.5 -28 23.5s-10 18.167 -10 27.5c0 16 4.5 28.333 13.5 37s20.167 13 33.5 13c12 0 21.5 -2.5 28.5 -7.5s12.833 -11.5 17.5 -19.5s8.83398 -16.333 12.501 -25s8.16699 -17 13.5 -25s12.166 -14.5 20.499 -19.5s19.833 -7.5 34.5 -7.5
c12 0 22.5 2.16699 31.5 6.5s16.5 10 22.5 17s10.5 14.833 13.5 23.5s4.16699 17.334 3.5 26.001c0 24 -8 48.667 -24 74s-36 51.5 -60 78.5s-49.833 54.333 -77.5 82s-53.5 55.834 -77.5 84.501s-44 57.334 -60 86.001s-24 57.334 -24 86.001
c0 17.333 2.66699 33.166 8 47.499s12.666 27.666 21.999 39.999s20.333 24 33 35s26.334 21.5 41.001 31.5c4 16 10.667 31 20 45s20.666 26.167 33.999 36.5s28.333 18.333 45 24s34.334 8.5 53.001 8.5c18 0 34.5 -2 49.5 -6s28 -9.33301 39 -16s19.667 -14.167 26 -22.5
s9.5 -16.833 9.5 -25.5c0 -14.667 -4 -25.5 -12 -32.5s-17.667 -10.5 -29 -10.5c-16.667 0 -28.5 5 -35.5 15s-13.5 20.833 -19.5 32.5s-13.667 22.5 -23 32.5s-24.666 15 -45.999 15c-11.333 0 -21.333 -2.16699 -30 -6.5s-16 -10 -22 -17s-10.5 -14.833 -13.5 -23.5
s-4.16699 -17.334 -3.5 -26.001c0 -23.333 8 -48 24 -74s35.833 -52.5 59.5 -79.5s49.334 -54.333 77.001 -82s53.334 -55.5 77.001 -83.5s43.5 -55.667 59.5 -83s24 -53.666 24 -78.999zM162 513.999l-0.000976562 12.0029c0 4 0.666992 7.66699 2 11
c-36.667 -27.333 -55 -61 -55 -101c0 -26 7.83301 -52.667 23.5 -80s35.5 -54.833 59.5 -82.5s49.667 -55.334 77 -83.001s53 -55 77 -82s43.833 -53.667 59.5 -80s23.5 -51.833 23.5 -76.5c0 -4 -0.333008 -7 -1 -9c20.667 16 34.334 31.333 41.001 46s10 32 10 52
c0 23.333 -7.83301 48.166 -23.5 74.499s-35.167 53.166 -58.5 80.499s-48.833 54.833 -76.5 82.5s-53.167 55.167 -76.5 82.5s-42.833 53.833 -58.5 79.5s-23.5 50.167 -23.5 73.5z" />
    <glyph glyph-name="dieresis" unicode="&#xa8;" horiz-adv-x="809" 
d="M450 648c0 13.333 4.83301 25 14.5 35s21.167 15 34.5 15s25 -5 35 -15s15 -21.667 15 -35s-5 -24.833 -15 -34.5s-21.667 -14.5 -35 -14.5s-24.833 4.83301 -34.5 14.5s-14.5 21.167 -14.5 34.5zM252 648c0 13.333 4.83301 25 14.5 35s21.167 15 34.5 15s25 -5 35 -15
s15 -21.667 15 -35s-5 -24.833 -15 -34.5s-21.667 -14.5 -35 -14.5s-24.833 4.83301 -34.5 14.5s-14.5 21.167 -14.5 34.5z" />
    <glyph glyph-name="copyright" unicode="&#xa9;" horiz-adv-x="816" 
d="M407 1c46.667 0 90.5 8.33301 131.5 25s76.833 40 107.5 70s55 65.833 73 107.5s27 87.167 27 136.5s-9 95.166 -27 137.499s-42.333 79.166 -73 110.499s-66.334 56 -107.001 74s-83.334 27 -128.001 27c-46 0 -89.667 -8.5 -131 -25.5s-77.666 -40.5 -108.999 -70.5
s-56.166 -65.833 -74.499 -107.5s-27.5 -87.167 -27.5 -136.5s9.16699 -95.166 27.5 -137.499s43 -79.166 74 -110.499s66.833 -55.833 107.5 -73.5s83.667 -26.5 129 -26.5zM397 -16c-48.667 0 -94.165 8.83301 -136.498 26.5s-79.333 42.334 -111 74.001
s-56.667 69.334 -75 113.001s-27.5 91.5 -27.5 143.5c0 51.333 11.667 99.166 35 143.499s53 82.833 89 115.5s76 58.334 120 77.001s87 28 129 28c48.667 0 94.167 -8.83301 136.5 -26.5s79.166 -42.334 110.499 -74.001s56 -69.334 74 -113.001s27 -91.5 27 -143.5
c0 -51.333 -11.333 -99.166 -34 -143.499s-51.834 -82.833 -87.501 -115.5s-75.5 -58.334 -119.5 -77.001s-87.333 -28 -130 -28zM600.002 246c-7.33301 -8.66699 -16.834 -19.502 -28.501 -32.502s-25.834 -25.5 -42.501 -37.5s-35.5 -22.167 -56.5 -30.5
s-44.167 -12.166 -69.5 -11.499c-28.667 0 -55.167 4.83301 -79.5 14.5s-45.333 23.334 -63 41.001s-31.5 38.667 -41.5 63s-15 51.5 -15 81.5c0 32 6.33301 61.333 19 88s29.334 49.5 50.001 68.5s44.5 33.833 71.5 44.5s54.5 16 82.5 16c32 0 59.167 -2.5 81.5 -7.5
s41.5 -11.167 57.5 -18.5l9 -155c0 -2.66699 -1.33301 -4.16699 -4 -4.5s-4 0.833984 -4 3.50098c-2 22.667 -5.83301 44.5 -11.5 65.5s-14.167 39.5 -25.5 55.5s-25.5 28.667 -42.5 38s-37.5 14 -61.5 14c-50.667 0 -91.167 -14.5 -121.5 -43.5s-45.5 -75.833 -45.5 -140.5
c0 -26 4.33301 -50.5 13 -73.5s21 -43 37 -60s35.333 -30.5 58 -40.5s48 -15 76 -15c20.667 0 38.834 2.83301 54.501 8.5s29.5 12.667 41.5 21s22.333 17.333 31 27s16.667 18.5 24 26.5c1.33301 1.33301 3 1.16602 5 -0.500977s2.33301 -3.5 1 -5.5z" />
    <glyph glyph-name="ordfeminine" unicode="&#xaa;" horiz-adv-x="376" 
d="M121 397c-23.333 0 -41.166 6.33203 -53.499 18.999s-18.5 27.667 -18.5 45c0 19.333 10.667 38.5 32 57.5s58.666 39.167 111.999 60.5l49 19c-1.33301 36 -7 60.333 -17 73s-25 19 -45 19c-12.667 0 -22.667 -2.5 -30 -7.5s-13.166 -11 -17.499 -18
s-7.83301 -14.5 -10.5 -22.5s-5.66699 -15 -9 -21c-2.66699 -5.33301 -6.33398 -9 -11.001 -11s-11.667 -3 -21 -3c-17.333 0 -26 5.33301 -26 16c0 4 1.83301 9 5.5 15s9.83398 12 18.501 18c14 10 30.667 19.333 50 28s39.333 13 60 13c14 0 27.167 -1.5 39.5 -4.5
s23.333 -8.33301 33 -16s17.167 -17.667 22.5 -30s8 -27.833 8 -46.5c0 -10 -0.166992 -21 -0.5 -33l-1 -36c-0.333008 -12 -0.666016 -23 -0.999023 -33s-0.5 -17.667 -0.5 -23c0 -16.667 1.16699 -28.167 3.5 -34.5s6.83301 -9.5 13.5 -9.5
c5.33301 0 11.166 3.83301 17.499 11.5s11.166 14.167 14.499 19.5c1.33301 3.33301 4 4 8 2s4.33301 -4.66699 1 -8c-2.66699 -3.33301 -7 -8.16602 -13 -14.499s-12.667 -12.833 -20 -19.5s-15 -12.5 -23 -17.5s-15.333 -7.5 -22 -7.5c-22 0 -33 13.667 -33 41v24
c0 8.66699 0.333008 16 1 22c-4.66699 -6.66699 -11.834 -15 -21.501 -25s-20.167 -19.5 -31.5 -28.5s-22.666 -16.833 -33.999 -23.5s-21 -10 -29 -10zM100 485.999c0 -15.333 5.33105 -28.665 15.998 -39.998s23.334 -17 38.001 -17c7.33301 0 15.5 3 24.5 9
s17.833 13.167 26.5 21.5s16 16.666 22 24.999s9.66699 14.833 11 19.5c0.666992 3.33301 1.5 11.166 2.5 23.499s1.5 30.5 1.5 54.5v8l-47 -19c-21.333 -8.66699 -38.166 -16.5 -50.499 -23.5s-21.833 -13.667 -28.5 -20s-11 -12.833 -13 -19.5s-3 -14 -3 -22z" />
    <glyph glyph-name="guillemotleft" unicode="&#xab;" horiz-adv-x="662" 
d="M66 248c7.33301 -6.66699 17.832 -15.5 31.499 -26.5s28.667 -23 45 -36s33.166 -26.167 50.499 -39.5s33.666 -26 48.999 -38s28.666 -22.5 39.999 -31.5s19.333 -15.5 24 -19.5c5.33301 -5.33301 10 -10.5 14 -15.5s5.66699 -11.833 5 -20.5
c-1.33301 -8 -3.83301 -13.667 -7.5 -17s-8.16699 -5 -13.5 -5c-9.33301 0 -22 7.66699 -38 23c-12 10.667 -27.333 26.167 -46 46.5s-38.167 41.833 -58.5 64.5s-40 44.5 -59 65.5s-34.833 37.5 -47.5 49.5c-1.33301 1.33301 -2 3 -2 5s0.666992 3.66699 2 5
c12.667 12.667 29.167 29.834 49.5 51.501s41.5 44.167 63.5 67.5s43.167 45.333 63.5 66s36.833 36.667 49.5 48c17.333 15.333 29.333 23 36 23c5.33301 0 10.5 -1.83301 15.5 -5.5s7.5 -9.16699 7.5 -16.5c0 -8 -1.66699 -14.5 -5 -19.5s-8.66602 -10.833 -15.999 -17.5
c-4.66699 -4 -13.167 -10.5 -25.5 -19.5s-26.5 -19.667 -42.5 -32s-33.167 -25.333 -51.5 -39s-36.166 -27.167 -53.499 -40.5s-33.166 -26 -47.499 -38s-25.166 -21.667 -32.499 -29c-2.66699 -2.66699 -2.66699 -5.33398 0 -8.00098v-1zM279.999 248
c8 -6.66699 19.9961 -15.5029 35.9961 -26.5029s33.667 -22.833 53 -35.5s39.5 -25.667 60.5 -39s40.5 -26 58.5 -38s33.833 -22.5 47.5 -31.5s22.834 -15.5 27.501 -19.5c5.33301 -5.33301 10 -10.666 14 -15.999s6 -12.333 6 -21c0 -8 -1.83301 -13.667 -5.5 -17
s-8.16699 -5 -13.5 -5c-10 0 -23.667 7.66699 -41 23c-12.667 10.667 -30.667 26.334 -54 47.001s-47.666 42.334 -72.999 65.001s-49.666 44.5 -72.999 65.5s-41.666 37.167 -54.999 48.5c-1.33301 1.33301 -2 3 -2 5s0.666992 3.66699 2 5c14 12 32.667 28.833 56 50.5
s47.666 44.167 72.999 67.5s49.333 45.5 72 66.5s40.334 37.167 53.001 48.5c17.333 15.333 29.666 23 36.999 23c5.33301 0 10.5 -1.83301 15.5 -5.5s7.5 -9.16699 7.5 -16.5c0 -8 -1.5 -14.667 -4.5 -20s-8.16699 -11.333 -15.5 -18c-4.66699 -4 -13.667 -10.5 -27 -19.5
s-29.166 -19.667 -47.499 -32s-37.833 -25.5 -58.5 -39.5s-40.667 -27.5 -60 -40.5s-37 -25.333 -53 -37s-28 -21.167 -36 -28.5c-3.33301 -2 -3.33301 -4.66699 0 -8v-1z" />
    <glyph glyph-name="uni00AD" unicode="&#xad;" horiz-adv-x="538" 
d="M271 251c41.333 0 78.834 0.666992 112.501 2s62.5 2.66602 86.5 3.99902c4 -2.66699 6 -6.83398 6 -12.501s-1.66699 -9.5 -5 -11.5c-28 2 -58.167 3.66699 -90.5 5s-68.833 2 -109.5 2s-77.5 -0.666992 -110.5 -2s-62.833 -3 -89.5 -5c-4 2 -6 5.83301 -6 11.5
s1.66699 9.83398 5 12.501c25.333 -1.33301 55.166 -2.66602 89.499 -3.99902s71.5 -2 111.5 -2z" />
    <glyph glyph-name="registered" unicode="&#xae;" horiz-adv-x="804" 
d="M581 44c-30.667 -20.667 -62.832 -35.8408 -96.499 -45.5078s-66.834 -14.5 -99.501 -14.5c-48.667 0 -93.667 8.83301 -135 26.5s-77 42.334 -107 74.001s-53.5 69.334 -70.5 113.001s-25.5 91.5 -25.5 143.5c0 51.333 11 99.166 33 143.499s50.5 82.833 85.5 115.5
s74 58.334 117 77.001s85.5 28 127.5 28c48 0 93 -8.5 135 -25.5s78.667 -40.833 110 -71.5s56 -67.667 74 -111s27 -91 27 -143c0 -20.667 -3 -45 -9 -73s-15.167 -54.833 -27.5 -80.5s-28.166 -47.5 -47.499 -65.5s-42.333 -27 -69 -27c-16.667 0 -31.167 3 -43.5 9
s-23.333 14.667 -33 26s-18.667 25 -27 41s-16.833 34 -25.5 54c-11.333 26 -21.166 46.667 -29.499 62s-16.5 27 -24.5 35s-17 13.333 -27 16s-22.333 4 -37 4h-25v-61c0 -37.333 0.333008 -66.166 1 -86.499s2.16699 -35.166 4.5 -44.499s5.66602 -15 9.99902 -17
s10.166 -3 17.499 -3h12c2 0 3 -1.16699 3 -3.5s-1 -3.5 -3 -3.5h-16c-6.66699 0 -13.334 0.166992 -20.001 0.5s-12.834 0.5 -18.501 0.5h-11.5h-16.5c-9 0 -18.333 -0.166992 -28 -0.5s-18.667 -0.5 -27 -0.5h-13.5c-2.66699 0 -4 1.16699 -4 3.5s1.33301 3.5 4 3.5
c9.33301 0 16.5 0.166992 21.5 0.5s9.16699 1.5 12.5 3.5c4 2.66699 6.83301 7.83398 8.5 15.501s2.83398 19.834 3.50098 36.501c0.666992 8 1.16699 17.5 1.5 28.5s0.5 22.167 0.5 33.5v32.5v26.5v80c0 37.333 -0.333008 66.166 -1 86.499s-2 35.333 -4 45
s-5.16699 15.334 -9.5 17.001s-10.166 2.5 -17.499 2.5h-11c-2.66699 0 -4 1.33301 -4 4s1.33301 4 4 4c4 0 10 -0.166992 18 -0.5s16.167 -0.5 24.5 -0.5s16 -0.166992 23 -0.5s11.5 -0.5 13.5 -0.5s6.66699 0.166992 14 0.5s15.166 0.5 23.499 0.5s16.333 0.166992 24 0.5
s12.834 0.5 15.501 0.5c56.667 0 97.834 -7.83301 123.501 -23.5s38.5 -41.167 38.5 -76.5c0 -13.333 -3.5 -25.5 -10.5 -36.5s-16.5 -20.833 -28.5 -29.5s-26 -15.834 -42 -21.501s-33.333 -9.5 -52 -11.5c12 -0.666992 22.833 -2.66699 32.5 -6s19 -8.83301 28 -16.5
s18 -17.667 27 -30s18.5 -27.833 28.5 -46.5c8 -15.333 15.667 -30.666 23 -45.999s15.166 -29.5 23.499 -42.5s17.666 -23.5 27.999 -31.5s22.5 -12 36.5 -12c16 0 29.833 8 41.5 24s21.334 35.333 29.001 58s13.334 46.667 17.001 72s5.5 47 5.5 65
c0 49.333 -9 94.833 -27 136.5s-42.167 77.667 -72.5 108s-65.833 54 -106.5 71s-83.334 25.5 -128.001 25.5c-46 0 -89.167 -8.5 -129.5 -25.5s-75.5 -40.5 -105.5 -70.5s-53.667 -65.833 -71 -107.5s-26 -87.167 -26 -136.5s8.5 -95.166 25.5 -137.499
s40.333 -79.166 70 -110.499s64.167 -55.833 103.5 -73.5s81.666 -26.5 126.999 -26.5c34 0 66.333 3.5 97 10.5s59.334 19.167 86.001 36.5c2.66699 2 4.5 2.33301 5.5 1s0.166992 -3 -2.5 -5zM331.002 362.993c6 0.666992 13 1.00195 21 1.00195h30
c11.333 0 23 1.66699 35 5s23 8.66602 33 15.999s18.167 17 24.5 29s9.5 26.667 9.5 44c0 31.333 -8.16699 54.666 -24.5 69.999s-43.5 23 -81.5 23h-23c-6 0 -10.5 -0.5 -13.5 -1.5s-5.33301 -4.5 -7 -10.5s-2.66699 -15.167 -3 -27.5s-0.5 -29.5 -0.5 -51.5v-97z" />
    <glyph glyph-name="macron" unicode="&#xaf;" horiz-adv-x="809" 
d="M401 676l44.001 0.000976562c14 0 29.333 0.333008 46 1s26.667 1 30 1s5 -0.666992 5 -2c0 -3.33301 -4 -9.16602 -12 -17.499s-19.333 -19.5 -34 -33.5c-4 0 -13.667 0.166992 -29 0.5s-31.666 0.5 -48.999 0.5h-20.5c-5.66699 0 -11.334 -0.166992 -17.001 -0.5
s-11.5 -0.666016 -17.5 -0.999023s-13 -0.5 -21 -0.5c-16.667 -0.666992 -26.667 -0.833984 -30 -0.500977s-5 1.16602 -5 2.49902c0 3.33301 4 9.16602 12 17.499s19.333 19.5 34 33.5c4 0 11.167 -0.166992 21.5 -0.5s24.166 -0.5 41.499 -0.5h1z" />
    <glyph glyph-name="degree" unicode="&#xb0;" horiz-adv-x="376" 
d="M58 577c0 18 3.33301 34.833 10 50.5s16 29.5 28 41.5s25.833 21.333 41.5 28s32.5 10 50.5 10s34.833 -3.33301 50.5 -10s29.5 -16 41.5 -28s21.333 -25.833 28 -41.5s10 -32.5 10 -50.5s-3.33301 -34.833 -10 -50.5s-16 -29.5 -28 -41.5s-25.833 -21.333 -41.5 -28
s-32.5 -10 -50.5 -10s-34.833 3.33301 -50.5 10s-29.5 16 -41.5 28s-21.333 25.833 -28 41.5s-10 32.5 -10 50.5zM73 577c0 -16 3 -31 9 -45s14.333 -26.167 25 -36.5s22.834 -18.666 36.501 -24.999s28.5 -9.5 44.5 -9.5s30.833 3.16699 44.5 9.5
s25.834 14.666 36.501 24.999s19 22.5 25 36.5s9 29 9 45s-3 31 -9 45s-14.333 26.167 -25 36.5s-22.834 18.666 -36.501 24.999s-28.5 9.5 -44.5 9.5s-30.833 -3.16699 -44.5 -9.5s-25.834 -14.666 -36.501 -24.999s-19 -22.5 -25 -36.5s-9 -29 -9 -45z" />
    <glyph glyph-name="plusminus" unicode="&#xb1;" 
d="M268 526c2.66699 3.33301 6.83594 5.00195 12.5029 5.00195s9.5 -1.66699 11.5 -5c-1.33301 -13.333 -2.33301 -25.333 -3 -36s-1.33398 -21.667 -2.00098 -33s-1.16699 -23.833 -1.5 -37.5s-0.5 -29.834 -0.5 -48.501c18.667 0 35 0.166992 49 0.5
s26.667 0.833008 38 1.5s22.166 1.33398 32.499 2.00098s21.5 1.33398 33.5 2.00098c3.33301 -2.66699 5 -6.83398 5 -12.501s-1.66699 -9.5 -5 -11.5c-13.333 0.666992 -25.333 1.5 -36 2.5s-21.5 1.83301 -32.5 2.5s-23.167 1.16699 -36.5 1.5s-29.333 0.5 -48 0.5
c0 -19.333 0.166992 -35.666 0.5 -48.999s0.833008 -25.666 1.5 -36.999s1.33398 -22.333 2.00098 -33s1.66699 -22.334 3 -35.001c-2 -3.33301 -5.83301 -5 -11.5 -5s-9.83398 1.66699 -12.501 5c0.666992 12 1.16699 23.167 1.5 33.5s0.666016 21.166 0.999023 32.499
s0.5 24 0.5 38v50c-18.667 0 -34.667 -0.166992 -48 -0.5s-25.666 -0.833008 -36.999 -1.5s-22.333 -1.5 -33 -2.5s-22.334 -1.83301 -35.001 -2.5c-3.33301 2 -5 5.83301 -5 11.5s1.66699 9.83398 5 12.501c12 -0.666992 23.167 -1.33398 33.5 -2.00098
s21.166 -1.33398 32.499 -2.00098s24 -1.16699 38 -1.5s30.333 -0.5 49 -0.5v49.5c0 14.333 -0.166992 27.166 -0.5 38.499s-0.666016 22.333 -0.999023 33s-0.833008 22 -1.5 34zM277.002 126.002c20.667 0 38.167 0.166992 52.5 0.5s27.333 0.833008 39 1.5
s22.834 1.33398 33.501 2.00098s22 1.33398 34 2.00098c3.33301 -2.66699 5 -6.83398 5 -12.501s-1.66699 -9.5 -5 -11.5c-13.333 0.666992 -25.333 1.5 -36 2.5s-21.667 1.83301 -33 2.5s-24 1.16699 -38 1.5s-31 0.5 -51 0.5s-37 -0.166992 -51 -0.5
s-26.667 -0.833008 -38 -1.5s-22.333 -1.5 -33 -2.5s-22.667 -1.83301 -36 -2.5c-3.33301 2 -5 5.83301 -5 11.5s1.66699 9.83398 5 12.501c12 -0.666992 23.333 -1.33398 34 -2.00098s21.667 -1.33398 33 -2.00098s24.166 -1.16699 38.499 -1.5s31.5 -0.5 51.5 -0.5z" />
    <glyph glyph-name="twosuperior" unicode="&#xb2;" horiz-adv-x="371" 
d="M135 348h-26.9951c-10 0 -19.333 -0.166992 -28 -0.5s-16.334 -0.5 -23.001 -0.5h-12v8c0 5.33301 0.333008 8.33301 1 9c12 10 22.167 18.167 30.5 24.5s15.833 12.166 22.5 17.499s13.167 10.5 19.5 15.5s13.166 11.167 20.499 18.5c20 18.667 36.833 36 50.5 52
s24.667 31.167 33 45.5s14.333 28.5 18 42.5s5.5 29 5.5 45c0 23.333 -6.33301 40.666 -19 51.999s-29.667 17 -51 17c-16 0 -30.333 -5.33301 -43 -16s-23.334 -24.167 -32.001 -40.5s-15.334 -34.666 -20.001 -54.999s-7 -40.166 -7 -59.499c0 -2.66699 -1.5 -4 -4.5 -4
s-4.5 1.33301 -4.5 4c0 14 -0.833008 28.833 -2.5 44.5s-3.33398 30.334 -5.00098 44.001s-3.33398 25.5 -5.00098 35.5s-2.5 16.667 -2.5 20c0 2.66699 0.166992 5.16699 0.5 7.5s1.83301 3.5 4.5 3.5c19.333 6 39.5 11.667 60.5 17s41.833 8 62.5 8
c42 0 75.833 -7 101.5 -21s38.5 -37.333 38.5 -70c0 -16 -4.66699 -30.833 -14 -44.5s-21.833 -27.167 -37.5 -40.5s-33.834 -27.5 -54.501 -42.5s-42 -31.833 -64 -50.5c-7.33301 -6 -13.666 -11.167 -18.999 -15.5s-10.666 -8.83301 -15.999 -13.5h65
c25.333 0 47.333 0.333008 66 1c22.667 0 39 1.5 49 4.5s16.667 13.5 20 31.5l6 42c0.666992 5.33301 2.66699 8 6 8s4.33301 -2.66699 3 -8l-6 -43c-1.33301 -10.667 -2.83301 -21.334 -4.5 -32.001s-3.16699 -20.167 -4.5 -28.5s-2.5 -15.5 -3.5 -21.5
s-1.83301 -9.33301 -2.5 -10c-1.33301 -1.33301 -10 -2 -26 -2h-25c-13.333 0 -28 0.166992 -44 0.5s-31.333 0.5 -46 0.5h-31z" />
    <glyph glyph-name="threesuperior" unicode="&#xb3;" horiz-adv-x="350" 
d="M128 355c21.333 0 39.499 2.66406 54.499 7.99707s27.333 12.5 37 21.5s16.834 19.333 21.501 31s7 23.834 7 36.501c0 25.333 -6.33301 44 -19 56s-30.667 18 -54 18c-10 0 -18.667 -2 -26 -6s-13.833 -8.5 -19.5 -13.5s-10.5 -9.5 -14.5 -13.5s-7.33301 -6 -10 -6
c-3.33301 0 -5.33301 1.33301 -6 4s-1 5.5 -1 8.5s0.333008 5.83301 1 8.5l1 4c36.667 12 66.667 28.667 90 50s35 47 35 77c0 36 -20.333 54.667 -61 56c-18 0 -33.333 -4.5 -46 -13.5s-23.167 -20.5 -31.5 -34.5s-14.333 -29.667 -18 -47s-5.5 -34.666 -5.5 -51.999
c0 -2.66699 -1.5 -4.16699 -4.5 -4.5s-4.5 0.833984 -4.5 3.50098c0 28 -1.5 53.5 -4.5 76.5s-4.5 37.5 -4.5 43.5c0 2.66699 0.166992 5.16699 0.5 7.5s1.83301 3.5 4.5 3.5c19.333 6 38.5 11.833 57.5 17.5s42.167 8.5 69.5 8.5c37.333 0 65.833 -6 85.5 -18
s29.5 -28.667 29.5 -50c0 -14.667 -4 -27 -12 -37s-18.5 -18.833 -31.5 -26.5s-28 -15 -45 -22s-34.833 -14.833 -53.5 -23.5c10.667 3.33301 21 6 31 8s19 3 27 3c38 0 65 -7.83301 81 -23.5s24 -36.834 24 -63.501c0 -33.333 -12.167 -60 -36.5 -80
s-61.166 -30 -110.499 -30c-24 0 -46.5 2.33301 -67.5 7s-38.5 9.33398 -52.5 14.001c-4.66699 1.33301 -6.66699 3.5 -6 6.5s3.33398 3.83301 8.00098 2.5c11.333 -3.33301 23.666 -6.83301 36.999 -10.5s27.666 -5.5 42.999 -5.5z" />
    <glyph glyph-name="acute" unicode="&#xb4;" horiz-adv-x="809" 
d="M317 537c-1.33301 -1.33301 -2.66504 -2.00293 -3.99805 -2.00293c-2.66699 0 -4 1.33301 -4 4c0 0.666992 1 2 3 4c12.667 12 25.667 26 39 42s25.5 31.5 36.5 46.5s20.5 28.167 28.5 39.5s13.333 18.333 16 21s6.16699 4.33398 10.5 5.00098s8.83301 1 13.5 1
c4 0 7.66699 -0.166992 11 -0.5s5.66602 -1.16602 6.99902 -2.49902c2 -2 3 -8.33301 3 -19c0 -2.66699 -1.16699 -5.5 -3.5 -8.5s-5.16602 -5.83301 -8.49902 -8.5c-3.33301 -3.33301 -10.5 -9 -21.5 -17s-23.833 -17.5 -38.5 -28.5s-29.834 -23.167 -45.501 -36.5
s-29.834 -26.666 -42.501 -39.999z" />
    <glyph glyph-name="paragraph" unicode="&#xb6;" horiz-adv-x="644" 
d="M334 353h-81.0039c-61.333 0 -109.5 14.333 -144.5 43s-52.5 68 -52.5 118c0 49.333 15.667 88 47 116s80 42 146 42h20h40.5c15.667 0 32.334 -0.166992 50.001 -0.5s34.334 -0.5 50.001 -0.5h40h20.5c4 0 10.667 0.166992 20 0.5s19.5 0.5 30.5 0.5s22 0.166992 33 0.5
s20.167 0.5 27.5 0.5c4 0 6 -1.5 6 -4.5s-2 -4.5 -6 -4.5h-18c-12 0 -21.667 -1.5 -29 -4.5s-12.833 -12.5 -16.5 -28.5s-6 -40.833 -7 -74.5s-1.5 -81.167 -1.5 -142.5v-563c0 -5.33301 -1.83301 -8 -5.5 -8s-5.5 2.66699 -5.5 8v563
c0 61.333 -0.333008 108.666 -1 141.999s-2.16699 57.833 -4.5 73.5s-6.16602 24.834 -11.499 27.501s-12.666 4 -21.999 4h-113v-810c0 -5.33301 -2 -8 -6 -8s-6 2.66699 -6 8v502z" />
    <glyph glyph-name="periodcentered" unicode="&#xb7;" horiz-adv-x="252" 
d="M68 247c0 15.333 5.5 28.833 16.5 40.5s24.833 17.5 41.5 17.5c15.333 0 28.833 -5.83301 40.5 -17.5s17.5 -25.167 17.5 -40.5c0 -16.667 -5.83301 -30.5 -17.5 -41.5s-25.167 -16.5 -40.5 -16.5c-16.667 0 -30.5 5.5 -41.5 16.5s-16.5 24.833 -16.5 41.5z" />
    <glyph glyph-name="cedilla" unicode="&#xb8;" horiz-adv-x="809" 
d="M499 -163c0 -14 -2.99512 -28.998 -8.99512 -44.998s-14.5 -31 -25.5 -45s-23.833 -25.667 -38.5 -35s-31 -14 -49 -14c-22.667 0 -42.334 3.5 -59.001 10.5s-25 16.167 -25 27.5s3.5 21.166 10.5 29.499s16.167 12.5 27.5 12.5c8.66699 0 16.667 -2.33301 24 -7
s14.5 -9.83398 21.5 -15.501s14.5 -10.834 22.5 -15.501s17.667 -7 29 -7c13.333 0 24.333 5.83301 33 17.5s13 24.167 13 37.5c0 9.33301 -2.5 18.166 -7.5 26.499s-13.833 15.833 -26.5 22.5s-29.334 11.834 -50.001 15.501s-46.334 5.5 -77.001 5.5
c-7.33301 0 -8.66602 3.33301 -3.99902 10c6.66699 8.66699 14.5 19 23.5 31s18 24.167 27 36.5s17.667 24.166 26 35.499s15.166 21 20.499 29c2.66699 3.33301 5.16699 4.5 7.5 3.5s2.5 -2.83301 0.5 -5.5c-11.333 -15.333 -22 -30.666 -32 -45.999
s-19 -28.666 -27 -39.999c-2 -2 -2.16699 -3 -0.5 -3h5.5c24.667 0 45.667 -2.16699 63 -6.5s31.666 -10 42.999 -17s19.666 -14.833 24.999 -23.5s8 -17 8 -25z" />
    <glyph glyph-name="onesuperior" unicode="&#xb9;" horiz-adv-x="213" 
d="M52 358c14.667 0 23.499 5.49805 26.499 16.498s4.5 31.167 4.5 60.5v180c0 18.667 -2.66699 29 -8 31s-17.333 -0.666992 -36 -8c-2 -0.666992 -3.5 0 -4.5 2s-0.5 3.66699 1.5 5c16.667 6 33.167 14.5 49.5 25.5s30.833 21.833 43.5 32.5
c0.666992 0.666992 2.33398 0.833984 5.00098 0.500977s4 -1.16602 4 -2.49902v-266c0 -29.333 1.5 -49.5 4.5 -60.5s12.167 -16.5 27.5 -16.5h19c1.33301 0 2 -1.5 2 -4.5s-0.666992 -4.5 -2 -4.5h-17c-7.33301 0 -15 0.166992 -23 0.5s-15.5 0.5 -22.5 0.5h-15.5h-15.5
c-7 0 -14.5 -0.166992 -22.5 -0.5s-15.5 -0.5 -22.5 -0.5h-16.5c-1.33301 0 -2 1.5 -2 4.5s0.666992 4.5 2 4.5h18v0z" />
    <glyph glyph-name="ordmasculine" unicode="&#xba;" horiz-adv-x="376" 
d="M184 397c-41.333 0 -75.502 13.001 -102.502 39.001s-40.5 61 -40.5 105c0 20.667 3.66699 40.5 11 59.5s17.833 35.667 31.5 50s29.834 25.666 48.501 33.999s39 12.5 61 12.5c20 0 38.667 -3.5 56 -10.5s32.333 -16.833 45 -29.5s22.667 -28 30 -46s11 -38 11 -60
c0 -18.667 -3.83301 -37.167 -11.5 -55.5s-18.167 -34.833 -31.5 -49.5s-29.166 -26.5 -47.499 -35.5s-38.5 -13.5 -60.5 -13.5zM190.998 406.001c29.333 0 50.998 11.998 64.998 35.998s21 57.333 21 100c0 18 -1.66699 35.833 -5 53.5s-8.66602 33.334 -15.999 47.001
s-16.5 24.834 -27.5 33.501s-24.5 13 -40.5 13c-32 0 -54.667 -12.5 -68 -37.5s-20 -58.5 -20 -100.5c0 -18 1.66699 -35.667 5 -53s8.5 -32.833 15.5 -46.5s16.333 -24.667 28 -33s25.834 -12.5 42.501 -12.5z" />
    <glyph glyph-name="guillemotright" unicode="&#xbb;" horiz-adv-x="662" 
d="M585 264c-7.33301 6.66699 -17.833 15.501 -31.5 26.501s-28.667 23 -45 36s-33.166 26.167 -50.499 39.5s-33.666 26 -48.999 38s-28.833 22.5 -40.5 31.5s-19.5 15.5 -23.5 19.5c-5.33301 5.33301 -10 10.5 -14 15.5s-5.66699 11.833 -5 20.5
c1.33301 8 3.83301 13.667 7.5 17s8.16699 5 13.5 5c9.33301 0 22 -7.66699 38 -23c12 -10.667 27.333 -26.167 46 -46.5s38.167 -41.833 58.5 -64.5s40 -44.5 59 -65.5s34.833 -37.5 47.5 -49.5c1.33301 -1.33301 2 -3 2 -5s-0.666992 -3.66699 -2 -5
c-12.667 -12.667 -28.834 -29.834 -48.501 -51.501s-40 -44 -61 -67s-41.333 -45 -61 -66s-35.834 -36.833 -48.501 -47.5c-17.333 -15.333 -29.333 -23 -36 -23c-5.33301 0 -10.5 1.83301 -15.5 5.5s-7.5 9.16699 -7.5 16.5c0 8 1.66699 14.5 5 19.5
s8.66602 10.833 15.999 17.5c4.66699 4 13 10.5 25 19.5s25.667 19.5 41 31.5s32 25 50 39s35.333 27.667 52 41s31.834 25.666 45.501 36.999s24.5 21 32.5 29c2.66699 2.66699 2.66699 5.33398 0 8.00098v1zM371 264.001c-8 6.66699 -19.8359 15.5049 -35.5029 26.5049
s-33.167 22.833 -52.5 35.5s-39.166 25.667 -59.499 39s-39.5 26 -57.5 38s-33.667 22.5 -47 31.5s-22.333 15.5 -27 19.5c-5.33301 5.33301 -10 10.666 -14 15.999s-6 12.333 -6 21c0 8 1.83301 13.667 5.5 17s8.16699 5 13.5 5c10 0 23.667 -7.66699 41 -23
c12.667 -10.667 30.334 -26.334 53.001 -47.001s46.5 -42.334 71.5 -65.001s49 -44.5 72 -65.5s41.167 -37.167 54.5 -48.5c1.33301 -1.33301 2 -3 2 -5s-0.666992 -3.66699 -2 -5c-14 -12 -32.833 -28.833 -56.5 -50.5s-48.334 -44 -74.001 -67s-50 -45.167 -73 -66.5
s-40.833 -37.333 -53.5 -48c-17.333 -15.333 -29.666 -23 -36.999 -23c-5.33301 0 -10.5 1.83301 -15.5 5.5s-7.5 9.16699 -7.5 16.5c0 8 1.5 14.667 4.5 20s8.16699 11.333 15.5 18c4.66699 4 13.834 10.5 27.501 19.5s29.667 19.5 48 31.5s38 25 59 39
s41.333 27.667 61 41s37.5 25.666 53.5 36.999s28 20.666 36 27.999c3.33301 2 3.33301 4.66699 0 8v1z" />
    <glyph glyph-name="onequarter" unicode="&#xbc;" horiz-adv-x="636" 
d="M395 47c23.333 0 39.4941 2.66406 48.4941 7.99707s15.167 19 18.5 41l4 24c0.666992 3.33301 2.5 5 5.5 5s4.16699 -1.66699 3.5 -5l-3 -20c-1.33301 -10 -2.83301 -20.333 -4.5 -31s-3 -20.667 -4 -30s-2 -17.166 -3 -23.499s-1.83301 -9.83301 -2.5 -10.5
s-4.33398 -1.16699 -11.001 -1.5s-14 -0.5 -22 -0.5h-64v-21c0 -14.667 0.333008 -26.167 1 -34.5s2.83398 -14.833 6.50098 -19.5s9 -7.66699 16 -9s16.5 -2 28.5 -2c2.66699 0 4 -1.5 4 -4.5s-1.33301 -4.5 -4 -4.5h-18c-8 0 -16.167 0.166992 -24.5 0.5
s-16.166 0.5 -23.499 0.5h-14h-13.5c-7 0 -14.833 -0.166992 -23.5 -0.5s-17 -0.5 -25 -0.5h-18c-2.66699 0 -4 1.5 -4 4.5s1.33301 4.5 4 4.5c12.667 0 22.834 0.666992 30.501 2s13.334 4.33301 17.001 9s6 11.167 7 19.5s1.5 19.833 1.5 34.5v21h-112h-9.5
c-4.33301 0 -8.83301 -0.166992 -13.5 -0.5l-14 -1c-4.66699 -0.333008 -8.33398 -0.5 -11.001 -0.5c-7.33301 -0.666992 -8.33301 3 -3 11s15.333 21 30 39s27.834 34.167 39.501 48.5s23.5 28.833 35.5 43.5s24.333 30.5 37 47.5s27.334 37.167 44.001 60.5
c4 6 10 10 18 12c9.33301 2.66699 15.833 2.83398 19.5 0.500977s3.83398 -6.5 0.500977 -12.5c-3.33301 -7.33301 -5.66602 -14.166 -6.99902 -20.499s-2 -14.833 -2 -25.5v-158h34zM254.994 437.997c14.667 0 23.499 5.49805 26.499 16.498s4.5 31.167 4.5 60.5v180
c0 18.667 -2.66699 29 -8 31s-17.333 -0.666992 -36 -8c-2 -0.666992 -3.5 0 -4.5 2s-0.5 3.66699 1.5 5c16.667 6 33.167 14.5 49.5 25.5s30.833 21.833 43.5 32.5c0.666992 0.666992 2.33398 0.833984 5.00098 0.500977s4 -1.16602 4 -2.49902v-266
c0 -29.333 1.5 -49.5 4.5 -60.5s12.167 -16.5 27.5 -16.5h19c1.33301 0 2 -1.5 2 -4.5s-0.666992 -4.5 -2 -4.5h-17c-7.33301 0 -15 0.166992 -23 0.5s-15.5 0.5 -22.5 0.5h-15.5h-15.5c-7 0 -14.5 -0.166992 -22.5 -0.5s-15.5 -0.5 -22.5 -0.5h-16.5
c-1.33301 0 -2 1.5 -2 4.5s0.666992 4.5 2 4.5h18zM308.993 46.9951l0.000976562 143c-10.667 -12.667 -20.834 -24.5 -30.501 -35.5s-19.5 -22 -29.5 -33s-20.5 -22.5 -31.5 -34.5s-22.5 -25.333 -34.5 -40h126zM316.994 347.995c12.667 0 30.9941 0.166992 54.9941 0.5
s49.333 0.833008 76 1.5s52 1.33398 76 2.00098s42 1.33398 54 2.00098c3.33301 -2.66699 5 -6.83398 5 -12.501s-1.66699 -9.5 -5 -11.5c-13.333 0.666992 -32.166 1.5 -56.499 2.5s-49.666 1.83301 -75.999 2.5s-51.166 1.16699 -74.499 1.5s-41 0.5 -53 0.5
s-29.667 -0.166992 -53 -0.5s-48.166 -0.833008 -74.499 -1.5s-51.666 -1.5 -75.999 -2.5s-43.166 -1.83301 -56.499 -2.5c-3.33301 2 -5 5.83301 -5 11.5s1.66699 9.83398 5 12.501c12 -0.666992 30 -1.33398 54 -2.00098s49 -1.33398 75 -2.00098s51 -1.16699 75 -1.5
s42.333 -0.5 55 -0.5z" />
    <glyph glyph-name="onehalf" unicode="&#xbd;" horiz-adv-x="636" 
d="M263 -96h-26.9951c-10 0 -19.333 -0.166992 -28 -0.5s-16.334 -0.5 -23.001 -0.5h-12v8c0 5.33301 0.333008 8.33301 1 9c12 10 22.167 18.167 30.5 24.5s15.833 12.166 22.5 17.499s13.167 10.5 19.5 15.5s13.166 11.167 20.499 18.5c20 18.667 36.833 36 50.5 52
s24.667 31.167 33 45.5s14.333 28.5 18 42.5s5.5 29 5.5 45c0 23.333 -6.33301 40.666 -19 51.999s-29.667 17 -51 17c-16 0 -30.333 -5.33301 -43 -16s-23.334 -24.167 -32.001 -40.5s-15.334 -34.666 -20.001 -54.999s-7 -40.166 -7 -59.499c0 -2.66699 -1.5 -4 -4.5 -4
s-4.5 1.33301 -4.5 4c0 14 -0.833008 28.833 -2.5 44.5s-3.33398 30.334 -5.00098 44.001s-3.33398 25.5 -5.00098 35.5s-2.5 16.667 -2.5 20c0 2.66699 0.166992 5.16699 0.5 7.5s1.83301 3.5 4.5 3.5c19.333 6 39.5 11.667 60.5 17s41.833 8 62.5 8
c42 0 75.833 -7 101.5 -21s38.5 -37.333 38.5 -70c0 -16 -4.66699 -30.833 -14 -44.5s-21.833 -27.167 -37.5 -40.5s-33.834 -27.5 -54.501 -42.5s-42 -31.833 -64 -50.5c-7.33301 -6 -13.666 -11.167 -18.999 -15.5s-10.666 -8.83301 -15.999 -13.5h65
c25.333 0 47.333 0.333008 66 1c22.667 0 39 1.5 49 4.5s16.667 13.5 20 31.5l6 42c0.666992 5.33301 2.66699 8 6 8s4.33301 -2.66699 3 -8l-6 -43c-1.33301 -10.667 -2.83301 -21.334 -4.5 -32.001s-3.16699 -20.167 -4.5 -28.5s-2.5 -15.5 -3.5 -21.5
s-1.83301 -9.33301 -2.5 -10c-1.33301 -1.33301 -10 -2 -26 -2h-25c-13.333 0 -28 0.166992 -44 0.5s-31.333 0.5 -46 0.5h-31zM255.005 438c14.667 0 23.499 5.49805 26.499 16.498s4.5 31.167 4.5 60.5v180c0 18.667 -2.66699 29 -8 31s-17.333 -0.666992 -36 -8
c-2 -0.666992 -3.5 0 -4.5 2s-0.5 3.66699 1.5 5c16.667 6 33.167 14.5 49.5 25.5s30.833 21.833 43.5 32.5c0.666992 0.666992 2.33398 0.833984 5.00098 0.500977s4 -1.16602 4 -2.49902v-266c0 -29.333 1.5 -49.5 4.5 -60.5s12.167 -16.5 27.5 -16.5h19
c1.33301 0 2 -1.5 2 -4.5s-0.666992 -4.5 -2 -4.5h-17c-7.33301 0 -15 0.166992 -23 0.5s-15.5 0.5 -22.5 0.5h-15.5h-15.5c-7 0 -14.5 -0.166992 -22.5 -0.5s-15.5 -0.5 -22.5 -0.5h-16.5c-1.33301 0 -2 1.5 -2 4.5s0.666992 4.5 2 4.5h18zM317.004 347.998
c12.667 0 30.9941 0.166992 54.9941 0.5s49.333 0.833008 76 1.5s52 1.33398 76 2.00098s42 1.33398 54 2.00098c3.33301 -2.66699 5 -6.83398 5 -12.501s-1.66699 -9.5 -5 -11.5c-13.333 0.666992 -32.166 1.5 -56.499 2.5s-49.666 1.83301 -75.999 2.5
s-51.166 1.16699 -74.499 1.5s-41 0.5 -53 0.5s-29.667 -0.166992 -53 -0.5s-48.166 -0.833008 -74.499 -1.5s-51.666 -1.5 -75.999 -2.5s-43.166 -1.83301 -56.499 -2.5c-3.33301 2 -5 5.83301 -5 11.5s1.66699 9.83398 5 12.501c12 -0.666992 30 -1.33398 54 -2.00098
s49 -1.33398 75 -2.00098s51 -1.16699 75 -1.5s42.333 -0.5 55 -0.5z" />
    <glyph glyph-name="threequarters" unicode="&#xbe;" horiz-adv-x="636" 
d="M395 47c23.333 0 39.4941 2.66406 48.4941 7.99707s15.167 19 18.5 41l4 24c0.666992 3.33301 2.5 5 5.5 5s4.16699 -1.66699 3.5 -5l-3 -20c-1.33301 -10 -2.83301 -20.333 -4.5 -31s-3 -20.667 -4 -30s-2 -17.166 -3 -23.499s-1.83301 -9.83301 -2.5 -10.5
s-4.33398 -1.16699 -11.001 -1.5s-14 -0.5 -22 -0.5h-64v-21c0 -14.667 0.333008 -26.167 1 -34.5s2.83398 -14.833 6.50098 -19.5s9 -7.66699 16 -9s16.5 -2 28.5 -2c2.66699 0 4 -1.5 4 -4.5s-1.33301 -4.5 -4 -4.5h-18c-8 0 -16.167 0.166992 -24.5 0.5
s-16.166 0.5 -23.499 0.5h-14h-13.5c-7 0 -14.833 -0.166992 -23.5 -0.5s-17 -0.5 -25 -0.5h-18c-2.66699 0 -4 1.5 -4 4.5s1.33301 4.5 4 4.5c12.667 0 22.834 0.666992 30.501 2s13.334 4.33301 17.001 9s6 11.167 7 19.5s1.5 19.833 1.5 34.5v21h-112h-9.5
c-4.33301 0 -8.83301 -0.166992 -13.5 -0.5l-14 -1c-4.66699 -0.333008 -8.33398 -0.5 -11.001 -0.5c-7.33301 -0.666992 -8.33301 3 -3 11s15.333 21 30 39s27.834 34.167 39.501 48.5s23.5 28.833 35.5 43.5s24.333 30.5 37 47.5s27.334 37.167 44.001 60.5
c4 6 10 10 18 12c9.33301 2.66699 15.833 2.83398 19.5 0.500977s3.83398 -6.5 0.500977 -12.5c-3.33301 -7.33301 -5.66602 -14.166 -6.99902 -20.499s-2 -14.833 -2 -25.5v-158h34zM270.994 434.997c21.333 0 39.499 2.66406 54.499 7.99707s27.333 12.5 37 21.5
s16.834 19.333 21.501 31s7 23.834 7 36.501c0 25.333 -6.33301 44 -19 56s-30.667 18 -54 18c-10 0 -18.667 -2 -26 -6s-13.833 -8.5 -19.5 -13.5s-10.5 -9.5 -14.5 -13.5s-7.33301 -6 -10 -6c-3.33301 0 -5.33301 1.33301 -6 4s-1 5.5 -1 8.5s0.333008 5.83301 1 8.5l1 4
c36.667 12 66.667 28.667 90 50s35 47 35 77c0 36 -20.333 54.667 -61 56c-18 0 -33.333 -4.5 -46 -13.5s-23.167 -20.5 -31.5 -34.5s-14.333 -29.667 -18 -47s-5.5 -34.666 -5.5 -51.999c0 -2.66699 -1.5 -4.16699 -4.5 -4.5s-4.5 0.833984 -4.5 3.50098
c0 28 -1.5 53.5 -4.5 76.5s-4.5 37.5 -4.5 43.5c0 2.66699 0.166992 5.16699 0.5 7.5s1.83301 3.5 4.5 3.5c19.333 6 38.5 11.833 57.5 17.5s42.167 8.5 69.5 8.5c37.333 0 65.833 -6 85.5 -18s29.5 -28.667 29.5 -50c0 -14.667 -4 -27 -12 -37s-18.5 -18.833 -31.5 -26.5
s-28 -15 -45 -22s-34.833 -14.833 -53.5 -23.5c10.667 3.33301 21 6 31 8s19 3 27 3c38 0 65 -7.83301 81 -23.5s24 -36.834 24 -63.501c0 -33.333 -12.167 -60 -36.5 -80s-61.166 -30 -110.499 -30c-24 0 -46.5 2.33301 -67.5 7s-38.5 9.33398 -52.5 14.001
c-4.66699 1.33301 -6.66699 3.5 -6 6.5s3.33398 3.83301 8.00098 2.5c11.333 -3.33301 23.666 -6.83301 36.999 -10.5s27.666 -5.5 42.999 -5.5zM308.993 46.9941l0.000976562 143c-10.667 -12.667 -20.834 -24.5 -30.501 -35.5s-19.5 -22 -29.5 -33
s-20.5 -22.5 -31.5 -34.5s-22.5 -25.333 -34.5 -40h126zM316.994 347.994c12.667 0 30.9941 0.166992 54.9941 0.5s49.333 0.833008 76 1.5s52 1.33398 76 2.00098s42 1.33398 54 2.00098c3.33301 -2.66699 5 -6.83398 5 -12.501s-1.66699 -9.5 -5 -11.5
c-13.333 0.666992 -32.166 1.5 -56.499 2.5s-49.666 1.83301 -75.999 2.5s-51.166 1.16699 -74.499 1.5s-41 0.5 -53 0.5s-29.667 -0.166992 -53 -0.5s-48.166 -0.833008 -74.499 -1.5s-51.666 -1.5 -75.999 -2.5s-43.166 -1.83301 -56.499 -2.5
c-3.33301 2 -5 5.83301 -5 11.5s1.66699 9.83398 5 12.501c12 -0.666992 30 -1.33398 54 -2.00098s49 -1.33398 75 -2.00098s51 -1.16699 75 -1.5s42.333 -0.5 55 -0.5z" />
    <glyph glyph-name="questiondown" unicode="&#xbf;" horiz-adv-x="395" 
d="M272 458c0 -15.333 -5.66797 -28.833 -17.001 -40.5s-25.333 -17.5 -42 -17.5c-15.333 0 -28.666 5.83301 -39.999 17.5s-17 25.167 -17 40.5c0 16.667 5.83301 30.5 17.5 41.5s25.167 16.5 40.5 16.5c16.667 0 30.5 -5.5 41.5 -16.5s16.5 -24.833 16.5 -41.5z
M260.999 171c0 -2.66699 -0.334961 -4.83398 -1.00195 -6.50098s-3 -3.16699 -7 -4.5c-52 -25.333 -90.333 -50.5 -115 -75.5s-36.667 -55.833 -36 -92.5c0.666992 -37.333 18 -66.666 52 -87.999s84.667 -32 152 -32c4 0 6 -2 6 -6c0 -2.66699 -1.5 -9.16699 -4.5 -19.5
s-6.33301 -21.833 -10 -34.5s-7.16699 -25.334 -10.5 -38.001s-6 -23 -8 -31c-1.33301 -2.66699 -2.66602 -3.83398 -3.99902 -3.50098s-2 1.83301 -2 4.5c2.66699 15.333 5 28 7 38s2.66699 16.333 2 19s-2.66699 4 -6 4h-12c-34.667 0 -65 4.16699 -91 12.5
s-47.667 19.5 -65 33.5s-30.333 29.667 -39 47s-13 35 -13 53c0 20.667 4.16699 40.834 12.5 60.501s19.333 37.667 33 54s28.834 31 45.501 44s33 23.5 49 31.5c0 4.66699 -0.5 14.5 -1.5 29.5s-2.16699 30.667 -3.5 47s-2.5 31.166 -3.5 44.499s-1.16699 21.333 -0.5 24
c0 1.33301 3.83301 4.5 11.5 9.5s16 10 25 15s17.333 9.33301 25 13s11.5 4.83398 11.5 3.50098s0.166992 -8.66602 0.5 -21.999s0.5 -28.5 0.5 -45.5v-50.5v-38z" />
    <glyph glyph-name="Agrave" unicode="&#xc0;" horiz-adv-x="711" 
d="M348 245c-12 0 -26.6719 0.167969 -44.0049 0.500977s-34.833 0.666016 -52.5 0.999023s-34 0.666016 -49 0.999023s-26.167 0.5 -33.5 0.5l-17 -42c-4 -10.667 -8.16699 -22.334 -12.5 -35.001s-8.33301 -25.667 -12 -39s-6.5 -26.5 -8.5 -39.5s-3 -24.833 -3 -35.5
c0 -32.667 18.667 -49 56 -49c4 0 9.16699 0.5 15.5 1.5s10.5 1.5 12.5 1.5c4.66699 0 7 -1.66699 7 -5c0 -1.33301 -0.666992 -2.66602 -2 -3.99902s-4.66602 -2 -9.99902 -2c-4.66699 0 -12.334 0.166992 -23.001 0.5s-22 0.5 -34 0.5s-23.5 0.166992 -34.5 0.5
s-18.5 0.5 -22.5 0.5c-3.33301 0 -8.33301 -0.166992 -15 -0.5s-14 -0.5 -22 -0.5s-16.167 -0.166992 -24.5 -0.5s-15.5 -0.5 -21.5 -0.5c-4 0 -6 1.66699 -6 5c0 2.66699 2 4 6 4h4c26.667 0 50.667 20 72 60c12.667 21.333 24.834 45 36.501 71s21.5 49.667 29.5 71
l193 482c0.666992 2 3 3 7 3h10c5.33301 0 8.66602 -1 9.99902 -3l182 -434c24.667 -58.667 44.834 -104.667 60.501 -138s29 -58.333 40 -75s21 -27 30 -31s19.5 -6 31.5 -6h8c4.66699 0 7 -1.33301 7 -4c0 -3.33301 -2 -5 -6 -5c-7.33301 0 -16 0.166992 -26 0.5l-30 1
c-10 0.333008 -19 0.666016 -27 0.999023s-14 0.5 -18 0.5s-11.167 -0.166992 -21.5 -0.5s-21.666 -0.666016 -33.999 -0.999023s-24.5 -0.666016 -36.5 -0.999023s-21.667 -0.5 -29 -0.5c-4 0 -6.5 1.5 -7.5 4.5s0.5 4.5 4.5 4.5h21c10.667 0 18.834 2 24.501 6
s7.33398 14 5.00098 30s-9.16602 40 -20.499 72s-29 75.667 -53 131zM310.995 608.001l-139 -351l170 1h118v1zM346.995 768.001c-12.667 13.333 -26.833 26.6689 -42.5 40.002s-30.834 25.5 -45.501 36.5s-27.5 20.5 -38.5 28.5s-18.167 13.667 -21.5 17
c-3.33301 2.66699 -6.16602 5.5 -8.49902 8.5s-3.5 5.83301 -3.5 8.5c0 10.667 1 17 3 19c1.33301 1.33301 3.66602 2.16602 6.99902 2.49902s7 0.5 11 0.5c4.66699 0 9.16699 -0.333008 13.5 -1s7.83301 -2.33398 10.5 -5.00098s8 -9.66699 16 -21s17.5 -24.5 28.5 -39.5
s23 -30.5 36 -46.5s26.167 -30 39.5 -42c2 -2 3 -3.33301 3 -4c0 -2.66699 -1.33301 -4 -4 -4c-1.33301 0 -2.66602 0.666992 -3.99902 2z" />
    <glyph glyph-name="Aacute" unicode="&#xc1;" horiz-adv-x="711" 
d="M348 245c-12 0 -26.6719 0.167969 -44.0049 0.500977s-34.833 0.666016 -52.5 0.999023s-34 0.666016 -49 0.999023s-26.167 0.5 -33.5 0.5l-17 -42c-4 -10.667 -8.16699 -22.334 -12.5 -35.001s-8.33301 -25.667 -12 -39s-6.5 -26.5 -8.5 -39.5s-3 -24.833 -3 -35.5
c0 -32.667 18.667 -49 56 -49c4 0 9.16699 0.5 15.5 1.5s10.5 1.5 12.5 1.5c4.66699 0 7 -1.66699 7 -5c0 -1.33301 -0.666992 -2.66602 -2 -3.99902s-4.66602 -2 -9.99902 -2c-4.66699 0 -12.334 0.166992 -23.001 0.5s-22 0.5 -34 0.5s-23.5 0.166992 -34.5 0.5
s-18.5 0.5 -22.5 0.5c-3.33301 0 -8.33301 -0.166992 -15 -0.5s-14 -0.5 -22 -0.5s-16.167 -0.166992 -24.5 -0.5s-15.5 -0.5 -21.5 -0.5c-4 0 -6 1.66699 -6 5c0 2.66699 2 4 6 4h4c26.667 0 50.667 20 72 60c12.667 21.333 24.834 45 36.501 71s21.5 49.667 29.5 71
l193 482c0.666992 2 3 3 7 3h10c5.33301 0 8.66602 -1 9.99902 -3l182 -434c24.667 -58.667 44.834 -104.667 60.501 -138s29 -58.333 40 -75s21 -27 30 -31s19.5 -6 31.5 -6h8c4.66699 0 7 -1.33301 7 -4c0 -3.33301 -2 -5 -6 -5c-7.33301 0 -16 0.166992 -26 0.5l-30 1
c-10 0.333008 -19 0.666016 -27 0.999023s-14 0.5 -18 0.5s-11.167 -0.166992 -21.5 -0.5s-21.666 -0.666016 -33.999 -0.999023s-24.5 -0.666016 -36.5 -0.999023s-21.667 -0.5 -29 -0.5c-4 0 -6.5 1.5 -7.5 4.5s0.5 4.5 4.5 4.5h21c10.667 0 18.834 2 24.501 6
s7.33398 14 5.00098 30s-9.16602 40 -20.499 72s-29 75.667 -53 131zM310.995 608.001l-139 -351l170 1h118v1zM346.995 768.001c-1.33301 -1.33301 -2.66504 -2.00293 -3.99805 -2.00293c-2.66699 0 -4 1.33301 -4 4c0 0.666992 1 2 3 4c12.667 12 25.667 26 39 42
s25.5 31.5 36.5 46.5s20.5 28.167 28.5 39.5s13.333 18.333 16 21s6.16699 4.33398 10.5 5.00098s8.83301 1 13.5 1c4 0 7.66699 -0.166992 11 -0.5s5.66602 -1.16602 6.99902 -2.49902c2 -2 3 -8.33301 3 -19c0 -2.66699 -1.16699 -5.5 -3.5 -8.5
s-5.16602 -5.83301 -8.49902 -8.5c-3.33301 -3.33301 -10.5 -9 -21.5 -17s-23.833 -17.5 -38.5 -28.5s-29.834 -23.167 -45.501 -36.5s-29.834 -26.666 -42.501 -39.999z" />
    <glyph glyph-name="Acircumflex" unicode="&#xc2;" horiz-adv-x="711" 
d="M348 245c-12 0 -26.6719 0.167969 -44.0049 0.500977s-34.833 0.666016 -52.5 0.999023s-34 0.666016 -49 0.999023s-26.167 0.5 -33.5 0.5l-17 -42c-4 -10.667 -8.16699 -22.334 -12.5 -35.001s-8.33301 -25.667 -12 -39s-6.5 -26.5 -8.5 -39.5s-3 -24.833 -3 -35.5
c0 -32.667 18.667 -49 56 -49c4 0 9.16699 0.5 15.5 1.5s10.5 1.5 12.5 1.5c4.66699 0 7 -1.66699 7 -5c0 -1.33301 -0.666992 -2.66602 -2 -3.99902s-4.66602 -2 -9.99902 -2c-4.66699 0 -12.334 0.166992 -23.001 0.5s-22 0.5 -34 0.5s-23.5 0.166992 -34.5 0.5
s-18.5 0.5 -22.5 0.5c-3.33301 0 -8.33301 -0.166992 -15 -0.5s-14 -0.5 -22 -0.5s-16.167 -0.166992 -24.5 -0.5s-15.5 -0.5 -21.5 -0.5c-4 0 -6 1.66699 -6 5c0 2.66699 2 4 6 4h4c26.667 0 50.667 20 72 60c12.667 21.333 24.834 45 36.501 71s21.5 49.667 29.5 71
l193 482c0.666992 2 3 3 7 3h10c5.33301 0 8.66602 -1 9.99902 -3l182 -434c24.667 -58.667 44.834 -104.667 60.501 -138s29 -58.333 40 -75s21 -27 30 -31s19.5 -6 31.5 -6h8c4.66699 0 7 -1.33301 7 -4c0 -3.33301 -2 -5 -6 -5c-7.33301 0 -16 0.166992 -26 0.5l-30 1
c-10 0.333008 -19 0.666016 -27 0.999023s-14 0.5 -18 0.5s-11.167 -0.166992 -21.5 -0.5s-21.666 -0.666016 -33.999 -0.999023s-24.5 -0.666016 -36.5 -0.999023s-21.667 -0.5 -29 -0.5c-4 0 -6.5 1.5 -7.5 4.5s0.5 4.5 4.5 4.5h21c10.667 0 18.834 2 24.501 6
s7.33398 14 5.00098 30s-9.16602 40 -20.499 72s-29 75.667 -53 131zM310.995 608.001l-139 -351l170 1h118v1zM348.995 902.001c-2.66699 2.66699 -5 2.66406 -7 -0.00292969l-82 -122c-4 -5.33301 -8.33301 -9.83301 -13 -13.5s-11.667 -5.5 -21 -5.5
c-6.66699 0 -11.667 1.5 -15 4.5s-5 6.16699 -5 9.5c0 2 0.833008 5 2.5 9s6.83398 10.667 15.501 20c6 6.66699 13.5 14.334 22.5 23.001s18.667 17.667 29 27s21 19 32 29s22.167 19.333 33.5 28c2.66699 2.66699 5.66699 2.66699 9 0
c24.667 -18.667 47.167 -36.167 67.5 -52.5s38.166 -31.166 53.499 -44.499c8 -7.33301 13.333 -13.166 16 -17.499s4 -8.16602 4 -11.499c0 -4 -2 -8.5 -6 -13.5s-9.66699 -7.5 -17 -7.5c-8.66699 0 -15.667 2.16699 -21 6.5s-10 9.16602 -14 14.499
c-9.33301 13.333 -21.833 30.833 -37.5 52.5s-31.167 43.167 -46.5 64.5z" />
    <glyph glyph-name="Atilde" unicode="&#xc3;" horiz-adv-x="711" 
d="M348 245c-12 0 -26.6719 0.167969 -44.0049 0.500977s-34.833 0.666016 -52.5 0.999023s-34 0.666016 -49 0.999023s-26.167 0.5 -33.5 0.5l-17 -42c-4 -10.667 -8.16699 -22.334 -12.5 -35.001s-8.33301 -25.667 -12 -39s-6.5 -26.5 -8.5 -39.5s-3 -24.833 -3 -35.5
c0 -32.667 18.667 -49 56 -49c4 0 9.16699 0.5 15.5 1.5s10.5 1.5 12.5 1.5c4.66699 0 7 -1.66699 7 -5c0 -1.33301 -0.666992 -2.66602 -2 -3.99902s-4.66602 -2 -9.99902 -2c-4.66699 0 -12.334 0.166992 -23.001 0.5s-22 0.5 -34 0.5s-23.5 0.166992 -34.5 0.5
s-18.5 0.5 -22.5 0.5c-3.33301 0 -8.33301 -0.166992 -15 -0.5s-14 -0.5 -22 -0.5s-16.167 -0.166992 -24.5 -0.5s-15.5 -0.5 -21.5 -0.5c-4 0 -6 1.66699 -6 5c0 2.66699 2 4 6 4h4c26.667 0 50.667 20 72 60c12.667 21.333 24.834 45 36.501 71s21.5 49.667 29.5 71
l193 482c0.666992 2 3 3 7 3h10c5.33301 0 8.66602 -1 9.99902 -3l182 -434c24.667 -58.667 44.834 -104.667 60.501 -138s29 -58.333 40 -75s21 -27 30 -31s19.5 -6 31.5 -6h8c4.66699 0 7 -1.33301 7 -4c0 -3.33301 -2 -5 -6 -5c-7.33301 0 -16 0.166992 -26 0.5l-30 1
c-10 0.333008 -19 0.666016 -27 0.999023s-14 0.5 -18 0.5s-11.167 -0.166992 -21.5 -0.5s-21.666 -0.666016 -33.999 -0.999023s-24.5 -0.666016 -36.5 -0.999023s-21.667 -0.5 -29 -0.5c-4 0 -6.5 1.5 -7.5 4.5s0.5 4.5 4.5 4.5h21c10.667 0 18.834 2 24.501 6
s7.33398 14 5.00098 30s-9.16602 40 -20.499 72s-29 75.667 -53 131zM310.995 608.001l-139 -351l170 1h118v1zM192.995 792.001c26 33.333 45.498 57.165 58.498 71.498s25.5 21.5 37.5 21.5c10.667 0 22.834 -3 36.501 -9s27.334 -12.833 41.001 -20.5
s26.834 -14.5 39.501 -20.5s23.667 -9 33 -9c4.66699 0 8.5 0.333008 11.5 1s6.5 2.66699 10.5 6s8.83301 8.83301 14.5 16.5s13.167 18.167 22.5 31.5c3.33301 3.33301 6.16602 4.5 8.49902 3.5s1.83301 -3.83301 -1.5 -8.5c-21.333 -32 -40 -56.667 -56 -74
s-32 -26 -48 -26c-10 0 -21.667 3.33301 -35 10s-26.666 13.834 -39.999 21.501s-26.333 14.834 -39 21.501s-24 10 -34 10c-2.66699 0 -5.16699 -0.5 -7.5 -1.5s-5.33301 -3.33301 -9 -7s-8.33398 -8.83398 -14.001 -15.501s-13.167 -16 -22.5 -28
c-4 -4.66699 -6.83301 -6.16699 -8.5 -4.5s-1.16699 4.83398 1.5 9.50098z" />
    <glyph glyph-name="Adieresis" unicode="&#xc4;" horiz-adv-x="711" 
d="M348 245c-12 0 -26.6719 0.167969 -44.0049 0.500977s-34.833 0.666016 -52.5 0.999023s-34 0.666016 -49 0.999023s-26.167 0.5 -33.5 0.5l-17 -42c-4 -10.667 -8.16699 -22.334 -12.5 -35.001s-8.33301 -25.667 -12 -39s-6.5 -26.5 -8.5 -39.5s-3 -24.833 -3 -35.5
c0 -32.667 18.667 -49 56 -49c4 0 9.16699 0.5 15.5 1.5s10.5 1.5 12.5 1.5c4.66699 0 7 -1.66699 7 -5c0 -1.33301 -0.666992 -2.66602 -2 -3.99902s-4.66602 -2 -9.99902 -2c-4.66699 0 -12.334 0.166992 -23.001 0.5s-22 0.5 -34 0.5s-23.5 0.166992 -34.5 0.5
s-18.5 0.5 -22.5 0.5c-3.33301 0 -8.33301 -0.166992 -15 -0.5s-14 -0.5 -22 -0.5s-16.167 -0.166992 -24.5 -0.5s-15.5 -0.5 -21.5 -0.5c-4 0 -6 1.66699 -6 5c0 2.66699 2 4 6 4h4c26.667 0 50.667 20 72 60c12.667 21.333 24.834 45 36.501 71s21.5 49.667 29.5 71
l193 482c0.666992 2 3 3 7 3h10c5.33301 0 8.66602 -1 9.99902 -3l182 -434c24.667 -58.667 44.834 -104.667 60.501 -138s29 -58.333 40 -75s21 -27 30 -31s19.5 -6 31.5 -6h8c4.66699 0 7 -1.33301 7 -4c0 -3.33301 -2 -5 -6 -5c-7.33301 0 -16 0.166992 -26 0.5l-30 1
c-10 0.333008 -19 0.666016 -27 0.999023s-14 0.5 -18 0.5s-11.167 -0.166992 -21.5 -0.5s-21.666 -0.666016 -33.999 -0.999023s-24.5 -0.666016 -36.5 -0.999023s-21.667 -0.5 -29 -0.5c-4 0 -6.5 1.5 -7.5 4.5s0.5 4.5 4.5 4.5h21c10.667 0 18.834 2 24.501 6
s7.33398 14 5.00098 30s-9.16602 40 -20.499 72s-29 75.667 -53 131zM310.995 608.001l-139 -351l170 1h118v1zM198.995 825.001c0 13.333 4.83301 25 14.5 35s21.167 15 34.5 15s25 -5 35 -15s15 -21.667 15 -35s-5 -24.833 -15 -34.5s-21.667 -14.5 -35 -14.5
s-24.833 4.83301 -34.5 14.5s-14.5 21.167 -14.5 34.5zM396.995 825.001c0 13.333 4.83301 25 14.5 35s21.167 15 34.5 15s25 -5 35 -15s15 -21.667 15 -35s-5 -24.833 -15 -34.5s-21.667 -14.5 -35 -14.5s-24.833 4.83301 -34.5 14.5s-14.5 21.167 -14.5 34.5z" />
    <glyph glyph-name="Aring" unicode="&#xc5;" horiz-adv-x="711" 
d="M348 245c-12 0 -26.6738 0.168945 -44.0068 0.501953s-34.833 0.666016 -52.5 0.999023s-34 0.666016 -49 0.999023s-26.167 0.5 -33.5 0.5l-17 -42c-4 -10.667 -8.16699 -22.334 -12.5 -35.001s-8.33301 -25.667 -12 -39s-6.5 -26.5 -8.5 -39.5s-3 -24.833 -3 -35.5
c0 -32.667 18.667 -49 56 -49c4 0 9.16699 0.5 15.5 1.5s10.5 1.5 12.5 1.5c4.66699 0 7 -1.66699 7 -5c0 -1.33301 -0.666992 -2.66602 -2 -3.99902s-4.66602 -2 -9.99902 -2c-4.66699 0 -12.334 0.166992 -23.001 0.5s-22 0.5 -34 0.5s-23.5 0.166992 -34.5 0.5
s-18.5 0.5 -22.5 0.5c-3.33301 0 -8.33301 -0.166992 -15 -0.5s-14 -0.5 -22 -0.5s-16.167 -0.166992 -24.5 -0.5s-15.5 -0.5 -21.5 -0.5c-4 0 -6 1.66699 -6 5c0 2.66699 2 4 6 4h4c26.667 0 50.667 20 72 60c12.667 21.333 24.834 45 36.501 71s21.5 49.667 29.5 71
l191 478c-17.333 3.33301 -31.666 11.666 -42.999 24.999s-17 29.333 -17 48c0 20.667 7.16699 38.167 21.5 52.5s31.833 21.5 52.5 21.5s38.167 -7.16699 52.5 -21.5s21.5 -31.833 21.5 -52.5c0 -18 -5.5 -33.667 -16.5 -47s-24.833 -22 -41.5 -26l181 -430
c24.667 -58.667 44.834 -104.667 60.501 -138s29 -58.333 40 -75s21 -27 30 -31s19.5 -6 31.5 -6h8c4.66699 0 7 -1.33301 7 -4c0 -3.33301 -2 -5 -6 -5c-7.33301 0 -16 0.166992 -26 0.5l-30 1c-10 0.333008 -19 0.666016 -27 0.999023s-14 0.5 -18 0.5
s-11.167 -0.166992 -21.5 -0.5s-21.666 -0.666016 -33.999 -0.999023s-24.5 -0.666016 -36.5 -0.999023s-21.667 -0.5 -29 -0.5c-4 0 -6.5 1.5 -7.5 4.5s0.5 4.5 4.5 4.5h21c10.667 0 18.834 2 24.501 6s7.33398 14 5.00098 30s-9.16602 40 -20.499 72s-29 75.667 -53 131z
M310.993 608.002l-139 -351l170 1h118v1zM282.993 762.002c0 -17.333 6 -32 18 -44s26.667 -18 44 -18s32 6 44 18s18 26.667 18 44s-6 32 -18 44s-26.667 18 -44 18s-32 -6 -44 -18s-18 -26.667 -18 -44z" />
    <glyph glyph-name="AE" unicode="&#xc6;" horiz-adv-x="1007" 
d="M353 245c-12 0 -26 0.162109 -42 0.495117s-32.167 0.666016 -48.5 0.999023s-31.666 0.666016 -45.999 0.999023s-25.833 0.5 -34.5 0.5l-19 -42c-4.66699 -10.667 -9.5 -22.334 -14.5 -35.001s-9.66699 -25.667 -14 -39s-7.83301 -26.5 -10.5 -39.5
s-4.33398 -24.833 -5.00098 -35.5c-1.33301 -32.667 16 -49 52 -49c4 0 9.16699 0.5 15.5 1.5s10.5 1.5 12.5 1.5c4.66699 0 7 -1.66699 7 -5c-0.666992 -1.33301 -1.5 -2.66602 -2.5 -3.99902s-4.16699 -2 -9.5 -2c-4.66699 0 -12.334 0.166992 -23.001 0.5
s-22 0.5 -34 0.5s-23.5 0.166992 -34.5 0.5s-18.5 0.5 -22.5 0.5c-3.33301 0 -8.33301 -0.166992 -15 -0.5s-14 -0.5 -22 -0.5s-15.833 -0.166992 -23.5 -0.5s-14.5 -0.5 -20.5 -0.5c-5.33301 0 -7.33301 1.66699 -6 5c0 2.66699 2 4 6 4h4c24.667 0 49.334 20 74.001 60
c13.333 21.333 26.833 45.166 40.5 71.499s25.167 49.833 34.5 70.5l201 434c-6.66699 16.667 -14 27.334 -22 32.001s-21.333 7 -40 7c-4 0 -6 1.5 -6 4.5s2 4.5 6 4.5c7.33301 0 16.666 -0.166992 27.999 -0.5s22.666 -0.5 33.999 -0.5s21.833 -0.166992 31.5 -0.5
s16.5 -0.5 20.5 -0.5h241c20 0 42.5 0.166992 67.5 0.5s49.5 0.5 73.5 0.5s45.667 0.166992 65 0.5s33.666 0.5 42.999 0.5h8c0.666992 0 0.666992 -0.166992 0 -0.5s-1.33398 -0.833008 -2.00098 -1.5s-0.333984 -1.33398 0.999023 -2.00098
c2.66699 -1.33301 6.33398 -18.833 11.001 -52.5s10.667 -77.5 18 -131.5l4 -36c1.33301 -3.33301 0.333008 -5 -3 -5s-5.66602 1.66699 -6.99902 5l-5 36c-9.33301 56.667 -32.5 99.834 -69.5 129.501s-84.167 44.834 -141.5 45.501h-275c-4 0 -5.33301 -2 -4 -6l84 -292
h104c31.333 0 56.833 2.83301 76.5 8.5s35 13.5 46 23.5s18.5 22 22.5 36s6 29.667 6 47v21c0 4 1.66699 6 5 6s5 -2 5 -6c0 -7.33301 -0.333008 -18.166 -1 -32.499s-1.16699 -29 -1.5 -44s-0.833008 -28.667 -1.5 -41s-1 -20.5 -1 -24.5
c0 -3.33301 0.333008 -11.666 1 -24.999s1.16699 -27.666 1.5 -42.999s0.833008 -29.666 1.5 -42.999s1 -22 1 -26s-1.66699 -6 -5 -6s-5 2 -5 6v15c0 17.333 -2 33.166 -6 47.499s-11.667 26.5 -23 36.5s-26.833 17.833 -46.5 23.5s-45.167 8.5 -76.5 8.5h-99l32 -111
c16.667 -58.667 30.5 -104.5 41.5 -137.5s21 -57.667 30 -74s17.667 -26.5 26 -30.5s18.5 -6 30.5 -6h69c28.667 0 54.834 5.66699 78.501 17s44 26.5 61 45.5s30.667 40.667 41 65s17.166 49.166 20.499 74.499l6 53c0.666992 3.33301 2.83398 4.83301 6.50098 4.5
s5.16699 -2.16602 4.5 -5.49902l-6 -54c-4.66699 -40.667 -8.5 -74 -11.5 -100s-5.66699 -46.667 -8 -62s-4.33301 -26.333 -6 -33s-3.5 -10.667 -5.5 -12c-1.33301 -1.33301 -5.66602 -2.16602 -12.999 -2.49902s-17 -0.666016 -29 -0.999023s-25.833 -0.5 -41.5 -0.5
h-49.5h-109c-7.33301 0 -16 0.166992 -26 0.5l-30 1c-10 0.333008 -19 0.666016 -27 0.999023s-14 0.5 -18 0.5s-11.167 -0.166992 -21.5 -0.5s-21.833 -0.666016 -34.5 -0.999023s-25.167 -0.666016 -37.5 -0.999023s-22.166 -0.5 -29.499 -0.5c-4 0 -6 1.5 -6 4.5
s2 4.5 6 4.5h21c10.667 0 19.167 2.16699 25.5 6.5s9.5 14.5 9.5 30.5s-3.66699 39.833 -11 71.5s-19.333 75.167 -36 130.5zM361 619.995l-3 8l-172 -371l164 1h118v1z" />
    <glyph glyph-name="Ccedilla" unicode="&#xc7;" horiz-adv-x="756" 
d="M133 346c0 -51.333 6.33203 -98.1611 18.999 -140.494s31.334 -78.833 56.001 -109.5s54.834 -54.334 90.501 -71.001s76.167 -25 121.5 -25c42 0 78.333 6.33301 109 19s56.667 30.667 78 54s38 51.5 50 84.5s20 69.5 24 109.5h8l-12 -233
c-27.333 -12 -63.166 -22.333 -107.499 -31s-93.5 -13 -147.5 -13c-2 0 -4 0.166992 -6 0.5s-3.66699 0.5 -5 0.5l-41 -62c-2 -2 -2.16699 -3 -0.5 -3h5.5c24.667 0 45.667 -2.16699 63 -6.5s31.666 -10 42.999 -17s19.666 -14.833 24.999 -23.5s8 -17 8 -25
c0 -14 -3 -29 -9 -45s-14.5 -31 -25.5 -45s-23.833 -25.667 -38.5 -35s-31 -14 -49 -14c-22.667 0 -42.334 3.5 -59.001 10.5s-25 16.167 -25 27.5s3.5 21.166 10.5 29.499s16.167 12.5 27.5 12.5c8.66699 0 16.667 -2.33301 24 -7s14.5 -9.83398 21.5 -15.501
s14.5 -10.834 22.5 -15.501s17.667 -7 29 -7c13.333 0 24.333 5.83301 33 17.5s13 24.167 13 37.5c0 9.33301 -2.5 18.166 -7.5 26.499s-13.833 15.833 -26.5 22.5s-29.334 11.834 -50.001 15.501s-46.334 5.5 -77.001 5.5c-7.33301 0 -8.66602 3.33301 -3.99902 10
c10.667 14 23.5 30.833 38.5 50.5s28.5 38.167 40.5 55.5c-51.333 2 -99 12.333 -143 31s-82 43.667 -114 75s-57.167 68.166 -75.5 110.499s-27.5 88.5 -27.5 138.5c0 52 10.333 100 31 144s48.5 81.667 83.5 113s75.667 55.833 122 73.5s95.166 26.5 146.499 26.5
c20.667 0 42.834 -1.16699 66.501 -3.5s46.667 -5.5 69 -9.5s43.5 -8.66699 63.5 -14s36.667 -11 50 -17l12 -218h-9c-8 79.333 -32.333 141.166 -73 185.499s-99.667 66.5 -177 66.5c-45.333 0 -86.166 -8.5 -122.499 -25.5s-67.166 -40.667 -92.499 -71
s-45 -66.833 -59 -109.5s-21 -89.667 -21 -141z" />
    </font>
</defs>
</svg>
