<?xml version="1.0" standalone="no"?>
<!DOCTYPE svg PUBLIC "-//W3C//DTD SVG 1.1//EN" "http://www.w3.org/Graphics/SVG/1.1/DTD/svg11.dtd" >
<svg xmlns="http://www.w3.org/2000/svg" xmlns:xlink="http://www.w3.org/1999/xlink" version="1.1">
<metadata>
Created by FontForge 20190801 at Fri Feb  1 18:07:11 2019
 By Jimmy Wärting
Copyright (c) 2013 by Lucas Sharp. All rights reserved.
</metadata>
<defs>
<font id="OggLore-Italic" horiz-adv-x="809" >
  <font-face 
    font-family="Ogg Lore"
    font-weight="400"
    font-style="italic"
    font-stretch="normal"
    units-per-em="1000"
    panose-1="0 0 0 0 0 0 0 0 0 0"
    ascent="800"
    descent="-200"
    x-height="507.5"
    cap-height="829"
    bbox="-516.385 -408.4 1995.64 1135"
    underline-thickness="50"
    underline-position="-100"
    unicode-range="U+000D-FA4A"
  />
<missing-glyph horiz-adv-x="850" 
d="M80 690h690v-690h-690v690zM756 14v662h-662v-662h662zM435 345l239 -239l-10 -10l-239 239l-239 -239l-10 10l239 239l-239 239l10 10l239 -239l239 239l10 -10z" />
    <glyph glyph-name="f_f_b" unicode="ffb" horiz-adv-x="1240" 
d="M906 854q-33 0 -59 -9t-53 -37t-60 -78.5t-80 -132.5q-14 -23 -26 -46t-25 -46q73 1 120.5 4.5t52.5 2.5q4 -1 -1.5 -11t-15.5 -21.5t-21 -21t-18 -9.5q-2 0 -14.5 0.5t-32 1t-45 1.5t-52.5 2q-67 -126 -127 -243.5t-122 -227.5q-34 -62 -75 -105.5t-82 -71t-78.5 -40.5
t-64.5 -13q-44 0 -72 25t-28 60v4q-51 -47 -99.5 -68t-83.5 -21q-49 0 -75 22.5t-26 57.5q0 30 19.5 53.5t48.5 28.5q-2 -14 -0.5 -33t4.5 -33q6 -27 24 -51t45 -24q18 0 34 5t35.5 25t46 60.5t66.5 112.5q18 33 47 89.5t63.5 123t70.5 136t68 129.5h-63q-6 2 -6.5 4.5
t3.5 4.5l102 58q13 23 23.5 41t18.5 31q42 67 87.5 121.5t93.5 93t98.5 59.5t102.5 21q26 0 47 -3.5t41 -11.5q7 -2 5 -11t-9.5 -20t-18.5 -19.5t-21 -8.5q-13 0 -30.5 5t-37 11.5t-38.5 11.5t-35 5q-23 0 -42 -8.5t-41.5 -34.5t-53.5 -76t-77 -132q-14 -23 -26 -46t-25 -46
h219q15 29 28 51.5t23 37.5q42 67 91 123t103.5 96t113.5 62t122 22q44 0 71.5 -2.5t48.5 -7.5q7 -2 5 -12t-9.5 -21t-18.5 -20.5t-21 -9.5q-15 0 -35.5 4.5t-45 10.5t-51 10.5t-51.5 4.5zM1147 516q19 -3 35.5 -26.5t22.5 -47.5q6 -22 4 -47.5t-8 -51.5t-16 -51t-21 -44
q-19 -35 -43.5 -64t-51.5 -54t-55 -45t-54 -36q-47 -26 -85 -40t-69 -14q-32 0 -60.5 21t-54.5 56l-39 -64q-8 0 -20.5 -1.5t-23 1t-15 11.5t3.5 30q13 20 37.5 63.5t55.5 98t64.5 115t64 115t54.5 96.5t36 61q27 45 77 96.5t118.5 95.5t152 73t178.5 29q32 0 65 -1t51 -4
q12 -2 11.5 -13t-7.5 -24t-18 -23t-20 -10q-48 0 -113.5 8.5t-138.5 8.5q-36 0 -67 -6.5t-63 -30.5t-68.5 -71.5t-84.5 -129.5q-41 -68 -96 -167t-124 -223q65 64 129.5 122t111.5 98q16 14 36 29.5t40 29t38 22.5t30 9zM37 -17q-26 -45 -54 -81q1 -27 7.5 -50t17 -40.5
t25 -27.5t33.5 -10q18 0 35 5t38 25t49 60.5t68 112.5q18 33 47 89.5t63.5 123t70.5 136t68 129.5h-219q-67 -126 -127 -244t-122 -228zM873 36q20 0 40 3.5t43 15.5q15 13 31.5 27t32.5 32.5t32.5 43.5t31.5 60q32 70 39 124t1 80q-5 23 -12.5 31t-18.5 13q-11 0 -33.5 -12
t-51.5 -36q-35 -30 -75 -66t-78.5 -73t-72.5 -73t-56 -66q36 -59 72.5 -81.5t74.5 -22.5z" />
    <glyph glyph-name="f_f_h" unicode="ffh" horiz-adv-x="1221" 
d="M578 848q-23 0 -42 -8.5t-41.5 -34.5t-53.5 -76t-77 -132l-52 -93h219q16 29 29 52t23 38q42 67 91 123t103.5 96t113.5 62t122 22q44 0 71.5 -2.5t48.5 -7.5q7 -2 5 -12t-9.5 -21t-18.5 -20.5t-21 -9.5q-15 0 -35.5 4.5t-45 10.5t-51 10.5t-51.5 4.5q-33 0 -59 -9
t-53 -37t-60 -78.5t-80 -132.5l-51 -93q73 1 120.5 4.5t52.5 2.5q4 -1 -1.5 -11t-15.5 -21.5t-21 -21t-18 -9.5q-2 0 -14.5 0.5t-32.5 1t-45.5 1.5t-52.5 2q-66 -126 -126.5 -243.5t-121.5 -226.5q-34 -62 -75 -105.5t-82 -71t-78.5 -40.5t-64.5 -13q-44 0 -72 25t-28 60v4
q-51 -47 -99.5 -68t-83.5 -21q-49 0 -75 22.5t-26 57.5q0 30 19.5 53.5t48.5 28.5q-2 -14 -0.5 -33t4.5 -33q6 -27 24 -51t45 -24q18 0 34 5t35.5 25t46 60.5t66.5 112.5q18 33 47 89.5t63.5 122.5t70 135.5t67.5 129.5h-62q-6 2 -6.5 4.5t3.5 4.5l101 57q13 23 24 42t19 32
q42 67 87.5 121.5t93.5 93t98.5 59.5t102.5 21q26 0 47 -3.5t41 -11.5q7 -2 5 -11t-9.5 -20t-18.5 -19.5t-21 -8.5q-13 0 -30.5 5t-37 11.5t-38.5 11.5t-35 5zM286 454q-67 -126 -127 -243.5t-122 -227.5q-26 -45 -54 -81q1 -27 7.5 -50t17 -40.5t25 -27.5t33.5 -10
q18 0 35 5t38 25t49 60.5t68 112.5q18 33 47 89.5t63.5 122.5t70 135.5t67.5 129.5h-218zM1135 513q23 -5 34 -22t6.5 -48t-25 -78t-59.5 -113q-14 -24 -27.5 -47t-24.5 -44t-17.5 -39t-5.5 -32q1 -13 7.5 -24t21.5 -16q12 4 27.5 12.5t32.5 20t33.5 25t30.5 27.5l6 -7
q-28 -27 -69 -61.5t-89 -63.5q-8 -5 -24.5 -3.5t-20.5 4.5q-9 7 -16 17.5t-12 21.5t-7.5 21.5t-2.5 18.5q-1 15 8 37.5t23 47.5t30 50.5t29 48.5q31 54 47.5 89t21.5 57.5t1 35t-13 20.5q-23 -5 -63.5 -31.5t-88.5 -68t-98 -96.5t-92 -117q-26 -38 -48 -80t-38 -68
q-8 0 -21 -1.5t-23.5 1t-15 11.5t3.5 30q13 20 37 62.5t54.5 96.5t63.5 113t62.5 112t53.5 94.5t36 60.5q29 47 78.5 100.5t117 98.5t152 75t183.5 30q32 0 65 -1t51 -4q12 -2 11.5 -13t-7.5 -24t-18 -23t-20 -10q-48 0 -113.5 8.5t-138.5 8.5q-36 0 -67 -6.5t-63 -30.5
t-68.5 -71.5t-84.5 -129.5q-42 -69 -96.5 -168.5t-117.5 -213.5q45 55 98.5 107t105 93.5t95.5 68t68 30.5z" />
    <glyph glyph-name="f_f_j" unicode="ffj" horiz-adv-x="959" 
d="M578 848q-23 0 -42 -8.5t-41.5 -34.5t-53.5 -76t-77 -132q-14 -23 -26 -46t-25 -46h211q15 29 28 51.5t23 37.5q42 67 92.5 123t106 96t116 62t123.5 22q43 0 70.5 -2.5t48.5 -7.5q7 -2 5 -12t-9.5 -21t-18.5 -20.5t-21 -9.5q-15 0 -36.5 4t-47 8.5t-53 8.5t-52.5 4
q-33 0 -59 -8.5t-53.5 -35t-60.5 -76.5t-80 -132q-14 -23 -26 -46t-25 -46q72 1 104.5 5t38.5 2q4 -1 -1.5 -11t-15.5 -21.5t-21 -21t-18 -9.5q-4 0 -35 1.5t-79 3.5q-67 -126 -127 -243.5t-122 -227.5q-34 -62 -74 -105.5t-79.5 -71t-75.5 -40.5t-63 -13q-44 0 -72 25
t-28 60v4q-51 -47 -99.5 -68t-83.5 -21q-49 0 -75 22.5t-26 57.5q0 30 19.5 53.5t48.5 28.5q-2 -14 -0.5 -33t4.5 -33q6 -27 24 -51t45 -24q18 0 34 5t35.5 25t46 60.5t66.5 112.5q18 33 47 89.5t63.5 123t70.5 136t68 129.5h-64q-6 2 -6.5 4.5t3.5 4.5l104 59
q12 23 22.5 40.5t18.5 30.5q42 67 87.5 121.5t93.5 93t98.5 59.5t102.5 21q26 0 47 -3.5t41 -11.5q7 -2 5 -11t-9.5 -20t-18.5 -19.5t-21 -8.5q-13 0 -30.5 5t-37 11.5t-38.5 11.5t-35 5zM286 455q-67 -126 -127 -244t-122 -228q-26 -45 -54 -81q1 -27 7.5 -50t17 -40.5
t25 -27.5t33.5 -10q18 0 34 5t35.5 25t46 60.5t66.5 112.5q18 33 47 89.5t63.5 123t70.5 136t68 129.5h-211zM837 470q-12 -3 -29.5 -13t-36.5 -22.5t-36.5 -27t-30.5 -27.5l-7 6q13 14 35 32t46 36t48.5 34.5t43.5 28.5q9 5 19.5 4.5t17.5 -3.5q9 -4 14 -15.5t8 -26.5
t3 -31.5t-2 -31.5q0 -10 -11.5 -36t-31 -65t-46.5 -89t-60 -108q-40 -72 -75 -118t-67.5 -77t-64.5 -50.5t-67 -37.5q-54 -29 -100.5 -43.5t-91.5 -14.5q-19 0 -38.5 4t-27.5 13q-3 8 2.5 19.5t13.5 21.5t17.5 17t14.5 7q11 -1 39 -7t60.5 -10.5t64.5 -5t51 10.5
q28 15 53 42.5t50 65.5t51.5 86t56.5 104q19 35 41.5 77t42.5 81.5t34 71.5t16 47q2 19 -4.5 33.5t-15.5 17.5zM962 592q37 36 74.5 73.5t72 73.5t65 69.5t53.5 60.5q5 6 11.5 6t11 -3t5.5 -8.5t-5 -11.5q-26 -26 -59 -56.5t-70 -65t-76 -71t-76 -73.5z" />
    <glyph glyph-name="f_f_k" unicode="ffk" horiz-adv-x="1227" 
d="M578 848q-23 0 -42 -8.5t-41.5 -34.5t-53.5 -76t-77 -132l-52 -93h219q16 29 29 52t23 38q42 67 91 123t103.5 96t113.5 62t122 22q43 0 70.5 -3t48.5 -8q7 -2 5 -12t-9.5 -21t-18.5 -20.5t-21 -9.5q-15 0 -37 3.5t-47.5 8t-53.5 8.5t-53 4q-33 0 -57.5 -8t-50 -34.5
t-57 -76t-78.5 -131.5l-51 -93q73 1 120 4.5t52 2.5q4 -1 -1.5 -11t-15.5 -21.5t-21 -21t-18 -9.5q-2 0 -14.5 0.5t-32 1t-45 1.5t-52.5 2q-66 -126 -126.5 -243.5t-121.5 -226.5q-34 -62 -75 -105.5t-82 -71t-78.5 -40.5t-64.5 -13q-44 0 -72 25t-28 60v4
q-51 -47 -99.5 -68t-83.5 -21q-49 0 -75 22.5t-26 57.5q0 30 19.5 53.5t48.5 28.5q-2 -14 -0.5 -33t4.5 -33q6 -27 24 -51t45 -24q18 0 34 5t35.5 25t46 60.5t66.5 112.5q18 33 47 89.5t63.5 122.5t70 135.5t67.5 129.5h-63q-6 2 -6.5 4.5t3.5 4.5l103 58q13 23 23.5 41.5
t18.5 31.5q42 67 87.5 121.5t93.5 93t98.5 59.5t102.5 21q26 0 47 -3.5t41 -11.5q7 -2 5 -11t-9.5 -20t-18.5 -19.5t-21 -8.5q-13 0 -30.5 5t-37 11.5t-38.5 11.5t-35 5zM652 8q-8 0 -21 -1.5t-23.5 1t-15 11.5t3.5 30q13 20 37.5 63.5t55.5 98t64.5 115t64 115t54.5 96.5
t36 61q27 45 77 96.5t118.5 95.5t152 73t178.5 29q32 0 65 -1t51 -4q12 -2 11.5 -13t-7.5 -24t-18 -23t-20 -10q-48 0 -113.5 8.5t-138.5 8.5q-36 0 -67 -6.5t-63 -30.5t-68.5 -71.5t-84.5 -129.5q-31 -52 -76 -133.5t-96 -172.5q48 52 95 95t88 74t74.5 47.5t54.5 16.5
q15 -3 30.5 -16t27.5 -30.5t17.5 -36.5t1.5 -35q-3 -14 -10.5 -28t-18 -27.5t-23.5 -25t-26 -18.5q-18 -11 -39.5 -19t-50.5 -14t-67 -12t-89 -13q21 -3 43 -14t36 -31q8 -11 14 -29t11 -38t10.5 -40t13.5 -34q4 -7 14 -13.5t24 -6.5q12 4 28.5 14t34.5 23.5t35.5 29
t31.5 29.5l6 -7q-28 -27 -68 -62t-88 -64q-3 -2 -15 -3t-26 0.5t-27 5.5t-18 12q-12 18 -19 42t-12.5 48.5t-11.5 47t-17 37.5q-17 22 -38 32t-58 7q-33 -60 -65 -117.5t-61 -108.5zM286 454q-67 -126 -127 -243.5t-122 -227.5q-26 -45 -54 -81q1 -27 7.5 -50t17 -40.5
t25 -27.5t33.5 -10q18 0 35 5t38 25t49 60.5t68 112.5q18 33 47 89.5t63.5 122.5t70 135.5t67.5 129.5h-218zM1119 408q1 9 -2.5 22t-11 25t-17.5 21t-21 10q-23 -5 -59 -28.5t-75.5 -57.5t-78.5 -73t-67 -76l-5 -10q105 14 170.5 34t102 42.5t50 46t14.5 44.5z" />
    <glyph glyph-name="f_b" unicode="fb" horiz-adv-x="957" 
d="M864 516q19 -3 35.5 -26.5t22.5 -47.5q6 -22 4 -47.5t-8 -51.5t-16 -51t-21 -44q-19 -35 -43.5 -64t-51.5 -54t-55 -45t-54 -36q-47 -26 -85 -40t-69 -14q-32 0 -60.5 21t-54.5 56l-39 -64q-8 0 -20.5 -1.5t-23 1t-15 11.5t3.5 30q13 20 37.5 63.5t55.5 98t64.5 115
t64 115t54.5 96.5t36 61q27 45 77 96.5t118.5 95.5t152 73t178.5 29q32 0 65 -1t51 -4q12 -2 11.5 -13t-7.5 -24t-18 -23t-20 -10q-48 0 -113.5 8.5t-138.5 8.5q-36 0 -67 -6.5t-63 -30.5t-68.5 -71.5t-84.5 -129.5q-41 -68 -96 -167t-124 -223q65 64 129.5 122t111.5 98
q16 14 36 29.5t40 29t38 22.5t30 9zM-289 -85q-2 -14 -0.5 -33t4.5 -33q6 -27 24 -51t45 -24q18 0 34 5t35.5 25t46 60.5t66.5 112.5q18 33 47 88.5t62.5 121.5t69.5 135t68 129h-58q-6 2 -6.5 6t3.5 6l98 56q25 48 43 75q42 67 92.5 123t106 96t116 62t123.5 22
q43 0 70.5 -2.5t48.5 -7.5q7 -2 5 -12t-9.5 -21t-18.5 -20.5t-21 -9.5q-15 0 -37 3.5t-47.5 8t-53.5 8t-53 3.5q-33 0 -59 -8t-53 -34.5t-59.5 -76t-79.5 -131.5l-49 -89h10q24 0 49.5 1t47.5 2t37 2t18 0q4 -1 -1.5 -11t-15.5 -22t-21 -22t-18 -10h-13.5t-30.5 0.5t-43 1
t-50 0.5q-66 -125 -126 -241.5t-121 -225.5q-34 -62 -74 -105.5t-79.5 -71t-76 -40.5t-63.5 -13q-49 0 -75 22.5t-26 57.5q0 30 19.5 53.5t48.5 28.5zM590 36q20 0 40 3.5t43 15.5q15 13 31.5 27t32.5 32.5t32.5 43.5t31.5 60q32 70 39 124t1 80q-5 23 -12.5 31t-18.5 13
q-11 0 -33.5 -12t-51.5 -36q-35 -30 -75 -66t-78.5 -73t-72.5 -73t-56 -66q36 -59 72.5 -81.5t74.5 -22.5z" />
    <glyph glyph-name="f_h" unicode="fh" horiz-adv-x="938" 
d="M852 513q23 -5 34 -22t6.5 -48t-25 -78t-59.5 -113q-14 -24 -27.5 -47t-24.5 -44t-17.5 -39t-5.5 -32q1 -13 7.5 -24t21.5 -16q12 4 27.5 12.5t32.5 20t33.5 25t30.5 27.5l6 -7q-28 -27 -69 -61.5t-89 -63.5q-8 -5 -24.5 -3.5t-20.5 4.5q-9 7 -16 17.5t-12 21.5
t-7.5 21.5t-2.5 18.5q-1 15 8 37.5t23 47.5t30 50.5t29 48.5q31 54 47.5 89t21.5 57.5t1 35t-13 20.5q-23 -5 -63.5 -31.5t-88.5 -68t-98 -96.5t-92 -117q-26 -38 -48 -80t-38 -68q-8 0 -21 -1.5t-23.5 1t-15 11.5t3.5 30q13 20 37.5 63.5t55.5 98t64.5 115t64 115
t54.5 96.5t36 61q27 45 77 96.5t118.5 95.5t152 73t178.5 29q32 0 65 -1t51 -4q12 -2 11.5 -13t-7.5 -24t-18 -23t-20 -10q-48 0 -113.5 8.5t-138.5 8.5q-36 0 -67 -6.5t-63 -30.5t-68.5 -71.5t-84.5 -129.5q-42 -69 -96.5 -168.5t-117.5 -213.5q45 55 98.5 107t105 93.5
t95.5 68t68 30.5zM-289 -85q-2 -14 -0.5 -33t4.5 -33q6 -27 24 -51t45 -24q18 0 34 5t35.5 25t46 60.5t66.5 112.5q18 33 47 88.5t62.5 121.5t69.5 135t68 129h-61q-6 2 -6.5 6t3.5 6l102 59q13 23 23.5 41t18.5 31q42 67 92.5 123t106 96t116 62t123.5 22q43 0 70.5 -3
t48.5 -8q7 -2 5 -12t-9.5 -21t-18.5 -20.5t-21 -9.5q-15 0 -37 3.5t-47.5 8t-53.5 8.5t-53 4q-33 0 -59 -8t-53 -34.5t-59.5 -76t-79.5 -131.5l-49 -89h7q24 0 49.5 1t47.5 2t37 2t18 0q4 -1 -1.5 -11t-15.5 -22t-21 -22t-18 -10h-13.5t-30 0.5t-42 1t-48.5 0.5
q-66 -125 -126 -241.5t-121 -225.5q-34 -62 -74 -105.5t-79.5 -71t-76 -40.5t-63.5 -13q-49 0 -75 22.5t-26 57.5q0 30 19.5 53.5t48.5 28.5z" />
    <glyph glyph-name="f_j" unicode="fj" horiz-adv-x="677" 
d="M617 849q-33 0 -59 -8.5t-53.5 -35t-60.5 -76.5t-80 -132l-50 -90h8q24 0 46 1t40 2t29.5 2t14.5 0q4 -1 -1.5 -11t-15.5 -22t-21 -22t-18 -10q-4 0 -36 0.5t-77 1.5q-66 -125 -125.5 -241t-120.5 -225q-34 -62 -74 -105.5t-79.5 -71t-76 -40.5t-63.5 -13q-49 0 -75 22.5
t-26 57.5q0 30 19.5 53.5t48.5 28.5q-2 -14 -0.5 -33t4.5 -33q6 -27 24 -51t45 -24q18 0 34 5t35.5 25t46 60.5t66.5 112.5q18 33 47 88.5t62.5 121t69 134.5t67.5 129h-60q-6 2 -6.5 6t3.5 6l101 58q13 23 24 42t19 32q42 67 92.5 123t106 96t116 62t123.5 22
q43 0 70.5 -2.5t48.5 -7.5q7 -2 5 -12t-9.5 -21t-18.5 -20.5t-21 -9.5q-15 0 -36.5 4t-47 8.5t-53 8.5t-52.5 4zM555 470q-12 -3 -29.5 -13t-36.5 -22.5t-36.5 -27t-30.5 -27.5l-7 6q13 14 35 32t46 36t48.5 34.5t43.5 28.5q9 5 19.5 4.5t17.5 -3.5q9 -4 14 -15.5t8 -26.5
t3 -31.5t-2 -31.5q0 -10 -11.5 -36t-31 -65t-46.5 -89t-60 -108q-40 -72 -75 -118t-67.5 -77t-64.5 -50.5t-67 -37.5q-54 -29 -100.5 -43.5t-91.5 -14.5q-19 0 -38.5 4t-27.5 13q-3 8 2.5 19.5t13.5 21.5t17.5 17t14.5 7q11 -1 39 -7t60.5 -10.5t64.5 -5t51 10.5
q28 15 53 42.5t50 65.5t51.5 86t56.5 104q19 35 41.5 77t42.5 81.5t34 71.5t16 47q2 19 -4.5 33.5t-15.5 17.5zM680 592q37 36 74.5 73.5t72 73.5t65 69.5t53.5 60.5q5 6 11.5 6t11 -3t5.5 -8.5t-5 -11.5q-26 -26 -59 -56.5t-70 -65t-76 -71t-76 -73.5z" />
    <glyph glyph-name="f_k" unicode="fk" horiz-adv-x="945" 
d="M370 8q-8 0 -21 -1.5t-23.5 1t-15 11.5t3.5 30q13 20 37.5 63.5t55.5 98t64.5 115t64 115t54.5 96.5t36 61q27 45 77 96.5t118.5 95.5t152 73t178.5 29q32 0 65 -1t51 -4q12 -2 11.5 -13t-7.5 -24t-18 -23t-20 -10q-48 0 -113.5 8.5t-138.5 8.5q-36 0 -67 -6.5t-63 -30.5
t-68.5 -71.5t-84.5 -129.5q-31 -52 -76 -133.5t-96 -172.5q48 52 95 95t88 74t74.5 47.5t54.5 16.5q15 -3 30.5 -16t27.5 -30.5t17.5 -36.5t1.5 -35q-3 -14 -10.5 -28t-18 -27.5t-23.5 -25t-26 -18.5q-18 -11 -39.5 -19t-50.5 -14t-67 -12t-89 -13q21 -3 43 -14t36 -31
q8 -11 14 -29t11 -38t10.5 -40t13.5 -34q4 -7 14 -13.5t24 -6.5q12 4 28.5 14t34.5 23.5t35.5 29t31.5 29.5l6 -7q-28 -27 -68 -62t-88 -64q-3 -2 -15 -3t-26 0.5t-27 5.5t-18 12q-12 18 -19 42t-12.5 48.5t-11.5 47t-17 37.5q-17 22 -38 32t-58 7q-33 -60 -65 -117.5
t-61 -108.5zM-289 -85q-2 -14 -0.5 -33t4.5 -33q6 -27 24 -51t45 -24q18 0 34 5t35.5 25t46 60.5t66.5 112.5q18 33 47 88.5t62.5 121.5t69.5 135t68 129h-61q-6 2 -6.5 6t3.5 6l102 59q13 23 23.5 41t18.5 31q42 67 92.5 123t106 96t116 62t123.5 22q43 0 70.5 -3t48.5 -8
q7 -2 5 -12t-9.5 -21t-18.5 -20.5t-21 -9.5q-15 0 -37 3.5t-47.5 8t-53.5 8.5t-53 4q-33 0 -59 -8t-53 -34.5t-59.5 -76t-79.5 -131.5l-49 -89h7q24 0 49.5 1t47.5 2t37 2t18 0q4 -1 -1.5 -11t-15.5 -22t-21 -22t-18 -10h-13.5t-30 0.5t-42 1t-48.5 0.5
q-66 -125 -126 -241.5t-121 -225.5q-34 -62 -74 -105.5t-79.5 -71t-76 -40.5t-63.5 -13q-49 0 -75 22.5t-26 57.5q0 30 19.5 53.5t48.5 28.5zM837 408q1 9 -2.5 22t-11 25t-17.5 21t-21 10q-23 -5 -59 -28.5t-75.5 -57.5t-78.5 -73t-67 -76l-5 -10q105 14 170.5 34t102 42.5
t50 46t14.5 44.5z" />
    <glyph glyph-name="ff" unicode="ff" horiz-adv-x="681" 
d="M152 454q-6 2 -6.5 4.5t3.5 4.5l101 57q13 23 24 42t19 32q42 66 87 120.5t93 93t98.5 60t103.5 21.5q26 0 47 -3.5t41 -11.5q7 -2 5 -11t-9.5 -20t-18.5 -19.5t-21 -8.5q-13 0 -30.5 5t-37 11.5t-38.5 11.5t-35 5q-23 0 -42 -8.5t-41.5 -34.5t-53.5 -76t-77 -132
l-52 -93h211q16 29 29 52t23 38q42 67 92.5 123t106 96t116 62t123.5 22q42 0 86 -6t71 -17q7 -3 4 -12.5t-12 -19.5t-21 -18t-22 -8q-21 0 -43 6t-47.5 13.5t-55 13.5t-65.5 6q-33 0 -60.5 -9.5t-56.5 -37t-63.5 -78.5t-81.5 -133l-52 -93q38 0 70 1.5t56 3t38.5 2.5
t17.5 0q4 -1 -1.5 -11t-15.5 -21.5t-21 -21t-18 -9.5q-2 0 -15.5 0.5t-34.5 1.5t-47.5 2t-55.5 1q-66 -125 -126 -243t-122 -227q-34 -62 -74 -105.5t-79.5 -71t-75.5 -40.5t-63 -13q-44 0 -72 25t-28 60v4q-51 -47 -99.5 -68t-83.5 -21q-49 0 -75 22.5t-26 57.5
q0 30 19.5 53.5t48.5 28.5q-2 -14 -0.5 -33t4.5 -33q6 -27 24 -51t45 -24q18 0 34 5t35.5 25t46 60.5t66.5 112.5q18 33 47 89.5t63.5 122.5t70 135.5t67.5 129.5h-62zM66 -226q18 0 34 5t35.5 25t46 60.5t66.5 112.5q18 33 47 89.5t63.5 122.5t70 135.5t67.5 129.5h-210
q-67 -126 -127 -243.5t-122 -227.5q-26 -45 -54 -81q1 -27 7.5 -50t17 -40.5t25 -27.5t33.5 -10z" />
    <glyph glyph-name="ffi" unicode="ffi" horiz-adv-x="970" 
d="M578 848q-23 0 -42 -8.5t-41.5 -34.5t-53.5 -76t-77 -132l-52 -93h219q16 29 29 52t23 38q42 67 91 123t103.5 96t113.5 62t122 22q43 0 70.5 -2.5t48.5 -7.5q7 -2 5 -12t-9.5 -21t-18.5 -20.5t-21 -9.5q-15 0 -36.5 4t-47 8.5t-53 8.5t-52.5 4q-33 0 -58 -8.5t-51 -35
t-57.5 -76.5t-78.5 -132l-51 -93q69 1 103 4.5t39 1.5q4 -1 -1.5 -11t-15.5 -21.5t-21 -21t-18 -9.5q-4 0 -35.5 2t-78.5 4q-66 -126 -126.5 -243.5t-121.5 -226.5q-34 -62 -75 -105.5t-82 -71t-78.5 -40.5t-64.5 -13q-44 0 -72 25t-28 60v4q-51 -47 -99.5 -68t-83.5 -21
q-49 0 -75 22.5t-26 57.5q0 30 19.5 53.5t48.5 28.5q-2 -14 -0.5 -33t4.5 -33q6 -27 24 -51t45 -24q18 0 34 5t35.5 25t46 60.5t66.5 112.5q18 33 47 89.5t63.5 122.5t70 135.5t67.5 129.5h-63q-6 2 -6.5 4.5t3.5 4.5l103 58q13 23 23.5 41.5t18.5 31.5q42 67 87.5 121.5
t93.5 93t98.5 59.5t102.5 21q26 0 47 -3.5t41 -11.5q7 -2 5 -11t-9.5 -20t-18.5 -19.5t-21 -8.5q-13 0 -30.5 5t-37 11.5t-38.5 11.5t-35 5zM286 454q-67 -126 -127 -243.5t-122 -227.5q-26 -45 -54 -81q1 -27 7.5 -50t17 -40.5t25 -27.5t33.5 -10q18 0 35 5t38 25t49 60.5
t68 112.5q18 33 47 89.5t63.5 122.5t70 135.5t67.5 129.5h-218zM952 434q0 -15 -12 -38t-29.5 -49t-36 -52.5t-31.5 -47.5q-15 -24 -29.5 -47t-26.5 -44t-19 -39t-6 -32q1 -13 14.5 -22.5t28.5 -14.5q12 4 27 13t31 20.5t32 25.5t30 28l6 -7q-28 -27 -67.5 -61.5
t-87.5 -63.5q-4 -2 -12 -3t-17 -0.5t-16.5 1.5t-9.5 3q-19 14 -29.5 36.5t-11.5 37.5t8 37.5t22.5 47.5t30 51t30.5 49q40 65 64.5 102t31.5 62q4 14 -7.5 28t-22.5 16q-9 -3 -24.5 -12t-33 -21t-35 -25.5t-31.5 -25.5l-7 5q13 13 33.5 30t43.5 34t46 33t42 28q17 10 33 3
q9 -4 17.5 -14.5t15 -23.5t11 -26t4.5 -22zM957 592q37 36 74.5 73.5t72 73.5t65 69.5t53.5 60.5q5 6 11.5 6t11 -3t5.5 -8.5t-5 -11.5q-26 -26 -59 -56.5t-70 -65t-76 -71t-76 -73.5z" />
    <glyph glyph-name="ffl" unicode="ffl" horiz-adv-x="936" 
d="M150 455q-6 2 -6.5 4.5t3.5 4.5l105 59q12 23 22.5 40.5t18.5 30.5q42 66 87 120.5t93 93t98.5 60t103.5 21.5q26 0 47 -3.5t41 -11.5q7 -2 5 -11t-9.5 -20t-18.5 -19.5t-21 -8.5q-13 0 -30.5 5t-37 11.5t-38.5 11.5t-35 5q-23 0 -42 -8.5t-41.5 -34.5t-53.5 -76
t-77 -132q-14 -23 -26 -46t-25 -46h222q15 29 28 51.5t23 37.5q42 67 90.5 123t102.5 96t112.5 62t121.5 22q45 0 73.5 -3t49.5 -8q7 -2 5 -12t-9.5 -21t-18.5 -20.5t-21 -9.5q-15 0 -36 5t-45.5 11t-51 11t-51.5 5q-33 0 -59 -9.5t-53 -37t-59.5 -78.5t-79.5 -133
q-14 -23 -26 -46t-25 -46q71 1 117 4.5t51 2.5q4 -1 -1.5 -11t-15.5 -21.5t-21 -21t-18 -9.5q-2 0 -14 0.5t-31 1t-43 1.5t-51 2q-67 -126 -127 -243.5t-122 -227.5q-34 -60 -74.5 -103.5t-82 -71.5t-79.5 -41.5t-67 -13.5q-44 0 -72 25t-28 60v4q-51 -47 -99.5 -68
t-83.5 -21q-49 0 -75 22.5t-26 57.5q0 30 19.5 53.5t48.5 28.5q-2 -14 -0.5 -33t4.5 -33q6 -27 24 -51t45 -24q18 0 34 5t35.5 25t46 60.5t66.5 112.5q18 33 47 89.5t63.5 123t70.5 136t68 129.5h-65zM66 -226q22 0 39.5 5t38.5 25t48 60.5t67 112.5q18 33 47 89.5t63.5 123
t70.5 136t68 129.5h-222q-67 -126 -127 -244t-122 -228q-26 -45 -54 -81q1 -27 7.5 -50t17 -40.5t25 -27.5t33.5 -10zM925 604q27 45 76.5 95.5t116 93.5t149.5 71t178 28q32 0 65 -1t51 -4q12 -2 11.5 -13t-7.5 -24t-18 -23t-20 -10q-48 0 -113.5 8.5t-138.5 8.5
q-36 0 -67 -6.5t-63 -30.5t-68 -71.5t-84 -129.5q-53 -87 -102 -174t-97 -174q-27 -50 -45.5 -90t-16.5 -68q1 -13 9.5 -24t23.5 -16q12 4 27 12.5t31.5 20t32.5 25t30 27.5l6 -7q-28 -27 -67.5 -61.5t-87.5 -63.5q-4 -2 -11.5 -3t-15 -0.5t-14 1.5t-8.5 3q-9 7 -15 17.5
t-9.5 22t-5 22t-1.5 18.5q-1 15 5 36t16 44t22.5 48t25.5 48q28 51 58.5 104.5t58 101.5t49.5 84.5t33 53.5z" />
    <glyph glyph-name="fi" unicode="fi" horiz-adv-x="690" 
d="M617 849q-33 0 -59 -8.5t-53.5 -35t-60.5 -76.5t-80 -132l-49 -89h7q24 0 46 1t40 2t29.5 2t14.5 0q4 -1 -1.5 -11t-15.5 -22t-21 -22t-18 -10q-4 0 -35.5 0.5t-76.5 1.5q-66 -125 -126 -241.5t-121 -225.5q-34 -62 -74 -105.5t-79.5 -71t-76 -40.5t-63.5 -13
q-49 0 -75 22.5t-26 57.5q0 30 19.5 53.5t48.5 28.5q-2 -14 -0.5 -33t4.5 -33q6 -27 24 -51t45 -24q18 0 34 5t35.5 25t46 60.5t66.5 112.5q18 33 47 88.5t62.5 121.5t69.5 135t68 129h-61q-6 2 -6.5 6t3.5 6l102 59q13 23 23.5 41t18.5 31q42 67 92.5 123t106 96t116 62
t123.5 22q43 0 70.5 -2.5t48.5 -7.5q7 -2 5 -12t-9.5 -21t-18.5 -20.5t-21 -9.5q-15 0 -36.5 4t-47 8.5t-53 8.5t-52.5 4zM672 434q0 -15 -12 -38t-29.5 -49t-36 -52.5t-31.5 -47.5q-15 -24 -29.5 -47t-26.5 -44t-19 -39t-6 -32q1 -13 14.5 -22.5t28.5 -14.5q12 4 27 13
t31 20.5t32 25.5t30 28l6 -7q-28 -27 -67.5 -61.5t-87.5 -63.5q-4 -2 -12 -3t-17 -0.5t-16.5 1.5t-9.5 3q-19 14 -29.5 36.5t-11.5 37.5t8 37.5t22.5 47.5t30 51t30.5 49q40 65 64.5 102t31.5 62q4 14 -7.5 28t-22.5 16q-9 -3 -24.5 -12t-33 -21t-35 -25.5t-31.5 -25.5l-7 5
q13 13 33.5 30t43.5 34t46 33t42 28q17 10 33 3q9 -4 17.5 -14.5t15 -23.5t11 -26t4.5 -22zM675 592q37 36 74.5 73.5t72 73.5t65 69.5t53.5 60.5q5 6 11.5 6t11 -3t5.5 -8.5t-5 -11.5q-26 -26 -59 -56.5t-70 -65t-76 -71t-76 -73.5z" />
    <glyph glyph-name="fl" unicode="fl" horiz-adv-x="643" 
d="M293 594q42 67 92.5 123t106 96t116 62t123.5 22q43 0 65 -3.5t43 -7.5q7 -2 5 -12t-9.5 -21t-18.5 -20.5t-21 -9.5q-15 0 -35 3.5t-44 8t-50 8.5t-51 4q-33 0 -59 -8t-53 -34.5t-59.5 -76t-79.5 -131.5l-49 -89h7q24 0 49.5 1t47.5 2t37 2t18 0q4 -1 -1.5 -11t-15.5 -22
t-21 -22t-18 -10h-13.5t-30 0.5t-42 1t-48.5 0.5q-66 -125 -126 -241.5t-121 -225.5q-34 -62 -74 -105.5t-79.5 -71t-76 -40.5t-63.5 -13q-49 0 -75 22.5t-26 57.5q0 30 19.5 53.5t48.5 28.5q-2 -14 -0.5 -33t4.5 -33q6 -27 24 -51t45 -24q18 0 34 5t35.5 25t46 60.5
t66.5 112.5q18 33 47 88.5t62.5 121.5t69.5 135t68 129h-61q-6 2 -6.5 6t3.5 6l102 59q13 23 23.5 41t18.5 31zM632 604q27 45 76.5 95.5t116 93.5t149.5 71t178 28q32 0 65 -1t51 -4q12 -2 11.5 -13t-7.5 -24t-18 -23t-20 -10q-48 0 -113.5 8.5t-138.5 8.5q-36 0 -67 -6.5
t-63 -30.5t-68 -71.5t-84 -129.5q-53 -87 -102 -174t-97 -174q-27 -50 -45.5 -90t-16.5 -68q1 -13 9.5 -24t23.5 -16q12 4 27 12.5t31.5 20t32.5 25t30 27.5l6 -7q-28 -27 -67.5 -61.5t-87.5 -63.5q-4 -2 -11.5 -3t-15 -0.5t-14 1.5t-8.5 3q-9 7 -15 17.5t-9 22t-4.5 22
t-1.5 18.5q-1 15 4.5 36t15 44t21.5 48t25 48q28 51 58.5 104.5t58.5 101.5t50.5 84.5t33.5 53.5z" />
    <glyph glyph-name=".notdef" horiz-adv-x="850" 
d="M80 690h690v-690h-690v690zM756 14v662h-662v-662h662zM435 345l239 -239l-10 -10l-239 239l-239 -239l-10 10l239 239l-239 239l10 10l239 -239l239 239l10 -10z" />
    <glyph glyph-name="NULL" horiz-adv-x="0" 
 />
    <glyph glyph-name="NULL" horiz-adv-x="0" 
 />
    <glyph glyph-name="nonmarkingreturn" unicode="&#xd;" horiz-adv-x="290" 
 />
    <glyph glyph-name="space" unicode=" " horiz-adv-x="290" 
 />
    <glyph glyph-name="exclam" unicode="!" horiz-adv-x="305" 
d="M10 7q-4 6 -3 19t5.5 26.5t11.5 25.5t15 16q5 3 17.5 5t24.5 2t24 -3t14 -7q1 -12 -1 -25t-6.5 -25t-11 -22t-12.5 -14q-9 -6 -37 -6q-14 0 -25 1.5t-16 6.5zM403 857q4 8 17.5 9.5t27.5 -0.5t24.5 -7.5t7.5 -11.5q-12 -27 -27.5 -58t-33 -62t-34 -60t-29.5 -52
q-26 -45 -52.5 -89t-55 -94.5t-61 -111.5t-69.5 -140l-9 2q38 79 66.5 142t51 116t41.5 99.5t37 92.5q22 56 47 116.5t51 108.5z" />
    <glyph glyph-name="quotedbl" unicode="&#x22;" horiz-adv-x="289" 
d="M266 709q16 0 20 -11t-2 -23q-3 -7 -19.5 -33t-39 -62t-47 -78t-42.5 -81q-3 -7 -7 -6t-1 8q19 39 36 82.5t30.5 81t23 65t12.5 34.5q11 23 36 23zM392 710q16 0 20 -11t-2 -23q-3 -7 -19.5 -33t-39 -62t-47 -78t-42.5 -81q-3 -7 -7 -6t-1 8q19 39 36 82.5t30.5 81t23 65
t12.5 34.5q11 23 36 23z" />
    <glyph glyph-name="numbersign" unicode="#" 
d="M573 227q60 1 107 2t96 3q7 -9 7.5 -12.5t-1.5 -14.5q-54 4 -102 7t-107 5v-42t0.5 -43.5t1.5 -51.5t2 -66l-12.5 -10t-12.5 0q1 40 2.5 70t3 54t2.5 45.5t2 44.5q-26 1 -56 1h-65q-40 0 -72 -0.5t-59 -0.5v-42.5t0.5 -43.5t1.5 -51.5t2 -66.5l-12.5 -10t-12.5 0
q1 40 2.5 69.5t3 54t2.5 45.5t2 44q-25 0 -48 -1t-46 -1.5t-47.5 -1.5t-53.5 -2l-10 12.5t0 12.5q30 -2 56 -3.5t50.5 -2.5t48.5 -2t50 -1q1 25 1.5 54t0.5 69v71.5t-1 56.5q-26 0 -48.5 -1t-45.5 -1.5t-48 -1.5t-54 -2l-10 12.5t0 12.5q61 -4 107 -6t99 -3l-3 193
q9 7 12.5 7.5t14.5 -1.5q-2 -35 -4 -61.5t-3.5 -49.5t-2.5 -44t-2 -44q27 -1 58 -1h70h123l-3 194q9 7 12.5 7.5t14.5 -1.5q-2 -35 -4 -61.5t-3.5 -49.5t-2.5 -44.5t-2 -44.5q59 1 105.5 2t95.5 3q7 -9 7.5 -12.5t-1.5 -14.5q-54 4 -101.5 7t-106.5 5q-1 -25 -1 -55.5v-70.5
v-124zM441 479q-40 0 -71.5 -0.5t-58.5 -0.5q-1 -26 -1 -56v-71v-124h252q1 25 1.5 54t0.5 69v71.5t-1 56.5q-26 1 -56.5 1h-65.5z" />
    <glyph glyph-name="dollar" unicode="$" horiz-adv-x="701" 
d="M134 304q-12 -28 -20 -48.5t-12.5 -38t-6 -33.5t-1.5 -34q0 -23 10.5 -44t29 -38.5t43.5 -31t54 -22.5q39 79 78 158.5t71 147.5q-39 25 -76.5 50t-62.5 53t-33 60t12 71q32 66 102.5 97t158.5 31q16 0 32 -1.5t31 -3.5l55 120q11 4 15.5 1.5t12.5 -8.5
q-15 -27 -30.5 -56t-31.5 -60q63 -11 114 -35.5t86 -52.5l-120 -210l-7 4q15 26 23.5 46.5t13.5 38.5t6.5 35t1.5 38q1 42 -31 76.5t-92 49.5q-35 -67 -70 -137.5t-67 -139.5q39 -24 76.5 -50.5t62.5 -57.5t32.5 -67.5t-13.5 -81.5q-18 -39 -46.5 -65t-63.5 -42.5t-74 -23.5
t-79 -7q-19 0 -37 1.5t-36 3.5q-20 -42 -37 -82t-33 -75q-12 -4 -17.5 -2.5t-13.5 7.5l79 155q-74 13 -133.5 39.5t-87.5 54.5l125 212zM317 2q32 0 64 4t60.5 14.5t51 29t36.5 47.5q16 36 9.5 66t-28 56.5t-53.5 49.5t-68 46q-32 -69 -68 -148.5t-71 -157.5q31 -7 67 -7z
M481 673q-88 0 -138.5 -22.5t-73.5 -71.5q-14 -29 -6 -53.5t29.5 -47t53.5 -43.5t67 -42q31 68 63.5 138.5t63.5 136.5q-14 2 -28.5 3.5t-30.5 1.5z" />
    <glyph glyph-name="percent" unicode="%" horiz-adv-x="839" 
d="M443 340q-45 -40 -93.5 -83t-97 -87t-96 -88t-92.5 -84q-11 -2 -17 4t-13 10q100 83 202 166.5t196 163.5q46 40 100.5 89.5l109 99t104.5 95t88 79.5q12 2 15 -5.5t10 -10.5q-44 -36 -97.5 -80t-109 -90.5t-109.5 -92.5t-100 -86zM737 155q-11 -42 -41 -75.5t-70 -53.5
q-6 -3 -17.5 -8.5t-25 -11t-27 -9.5t-23.5 -4q-35 0 -58.5 13.5t-36 35.5t-15 50t5.5 57q11 44 42 77t69 53q20 11 46.5 22t52.5 11q31 0 54 -12t35.5 -33t15 -50t-6.5 -62zM559 22q20 0 35 1.5t31 7.5q23 24 36.5 53.5t23.5 64.5q17 66 -5.5 102t-70.5 36q-20 0 -37 -3.5
t-28 -8.5q-21 -21 -37 -50t-27 -70q-15 -58 6.5 -95.5t72.5 -37.5zM454 538q-11 -42 -41 -75.5t-70 -53.5q-6 -3 -17.5 -8.5t-25 -11t-27 -9.5t-23.5 -4q-35 0 -58.5 13.5t-36 35.5t-15 50t5.5 57q11 44 42 77t69 53q20 11 46.5 22t52.5 11q31 0 54 -12t35.5 -33t15 -50
t-6.5 -62zM276 405q20 0 35 1.5t31 7.5q23 24 36.5 53.5t23.5 64.5q17 66 -5.5 102t-70.5 36q-20 0 -37 -3.5t-28 -8.5q-21 -21 -37 -50t-27 -70q-15 -58 6.5 -95.5t72.5 -37.5z" />
    <glyph glyph-name="ampersand" unicode="&#x26;" horiz-adv-x="1092" 
d="M231 -38q-33 1 -63.5 17t-55.5 42t-43 58.5t-26 66.5t-4.5 66.5t20.5 58.5q18 26 46.5 52.5t66 51t82.5 45t96 35.5q-8 31 -12.5 58.5t-3.5 52.5q0 22 9.5 47t25.5 50.5t36.5 50t43.5 46.5q29 28 77 49.5t108 21.5q52 0 94 -21.5t62 -50.5q-37 -42 -71 -84t-65 -86l-7 4
q32 44 54 76t33 51q-20 29 -58 49.5t-95 20.5q-46 0 -83 -12.5t-63 -41.5q-42 -41 -44 -121q-2 -46 16.5 -107t50 -126t72 -128t83.5 -113t84.5 -80.5t74.5 -30.5q46 0 81 38t64 124q14 41 20 86t-8.5 83t-55.5 63t-120 25q-11 0 -25 -0.5t-27.5 -1.5t-25 -2.5t-17.5 -2.5
q-8 -2 -7 4.5t12 20.5q17 20 25 33.5t19 13.5q4 0 31 0.5t61.5 1t69 1.5t53.5 2q40 3 71 7.5t56.5 10.5t46.5 13t41 16q7 2 8 0t-6 -8q-5 -5 -26 -21.5t-45 -35.5t-44.5 -33.5t-24.5 -14.5h-23q-62 2 -108 7.5t-89 5.5q-5 0 -3.5 0t6.5 -1q65 -13 112.5 -43.5t75 -70
t34 -84.5t-9.5 -87q-14 -35 -45 -63t-71 -52t-84 -45t-83 -42q-23 3 -50 18.5t-55.5 41.5t-57.5 60t-56 73q-21 -35 -47.5 -68t-58.5 -61t-71 -49t-84 -31zM486 179q-42 61 -76.5 129t-54.5 131q-53 -8 -92.5 -24t-68.5 -36.5t-47.5 -42.5t-29.5 -41q-13 -24 -12.5 -54.5
t10.5 -61.5t28.5 -60.5t41.5 -52.5t49 -37t52 -14q31 0 59 13t52.5 35.5t46.5 52t42 63.5z" />
    <glyph glyph-name="quotesingle" unicode="'" horiz-adv-x="164" 
d="M266 709q16 0 20 -11t-2 -23q-3 -7 -19.5 -33t-39 -62t-47 -78t-42.5 -81q-3 -7 -7 -6t-1 8q19 39 36 82.5t30.5 81t23 65t12.5 34.5q11 23 36 23z" />
    <glyph glyph-name="parenleft" unicode="(" horiz-adv-x="400" 
d="M182 327q36 79 86.5 148.5t111 127.5t130 105t143.5 81q8 5 11.5 0.5t-5.5 -9.5q-150 -70 -263.5 -188t-185.5 -272q-35 -77 -56 -156.5t-25.5 -156t9.5 -146t50 -124.5q4 -5 -2 -9t-9 1q-37 55 -54.5 125.5t-16.5 149.5t20 161.5t56 161.5z" />
    <glyph glyph-name="parenright" unicode=")" horiz-adv-x="400" 
d="M200 191q-36 -79 -86.5 -148.5t-111 -127.5t-130 -105t-143.5 -81q-8 -5 -11.5 -0.5t5.5 9.5q150 70 263.5 188t185.5 272q35 76 56 156t25.5 156.5t-9.5 146t-50 124.5q-4 5 2 9t9 -1q37 -55 54.5 -125.5t16.5 -149.5t-20 -161.5t-56 -161.5z" />
    <glyph glyph-name="asterisk" unicode="*" horiz-adv-x="351" 
d="M163 453q0 1 9 11t21 23.5t24 29t18 27.5q-13 -2 -31 -7.5t-35.5 -11.5t-30 -10.5t-13.5 -4.5q-20 -2 -33 7t-15 17q2 8 12.5 18.5t31.5 12.5q2 0 15 -3t30.5 -6.5t36.5 -6.5t32 -2q-8 11 -21.5 24t-27.5 25t-24.5 20.5t-11.5 9.5q-12 18 -10 33t8 20q7 5 22 0.5
t26 -22.5q1 -1 5 -13.5t10 -29.5t13 -34.5t14 -29.5q5 12 9.5 30.5t8 36t6 30.5t3.5 15q8 20 22.5 25.5t21.5 3.5q6 -3 10.5 -18t-4.5 -34q-1 -2 -10 -12t-21 -23.5t-24 -28.5t-18 -27q13 1 31.5 6.5t36 11.5t30 11t13.5 5q20 2 33 -7.5t15 -17.5q-2 -7 -12.5 -17.5
t-31.5 -12.5q-2 0 -15 3t-30.5 6.5t-37 6t-32.5 1.5q7 -11 21.5 -24t28.5 -25t24.5 -20t11.5 -9q12 -18 10 -33.5t-9 -20.5q-6 -4 -21 0.5t-26 22.5q-1 1 -5.5 13.5t-10.5 29t-13 34.5t-14 29q-5 -12 -9.5 -30.5t-7.5 -36t-5.5 -30.5t-3.5 -14q-8 -20 -22.5 -25.5
t-21.5 -3.5q-6 3 -10.5 18t4.5 34z" />
    <glyph glyph-name="plus" unicode="+" horiz-adv-x="558" 
d="M263 416q4 5 12.5 5t11.5 -5q-2 -20 -3 -37.5t-2 -36t-1.5 -40.5t-0.5 -51q28 0 50.5 0.5t41.5 1.5t36 2t35 2q5 -4 5 -12.5t-5 -11.5q-20 1 -37.5 2.5t-36 2.5t-40 1.5t-49.5 0.5q0 -29 0.5 -51t1.5 -40.5t2 -36t3 -36.5q-3 -5 -11.5 -5t-12.5 5q2 36 2.5 71.5t0.5 92.5
q-29 0 -50.5 -0.5t-40 -1.5t-36 -2.5t-36.5 -2.5q-5 3 -5 11.5t5 12.5q35 -2 70.5 -4t92.5 -2v51.5t-0.5 42t-1 36.5t-1.5 35z" />
    <glyph glyph-name="comma" unicode="," horiz-adv-x="247" 
d="M89 33q-8 -11 -24 -22.5t-29 -11.5q-8 0 -14 2.5t-12 10.5q-3 6 -1.5 17t6 23t11 22.5t12.5 15.5q5 4 19.5 6.5t26.5 2.5t25 -3t18 -10q6 -8 4.5 -26t-9.5 -32q-12 -23 -31.5 -41.5t-41 -32t-43 -23.5t-38.5 -17q-2 -1 -3 0.5t1 2.5q32 16 68 47t57 69h-2z" />
    <glyph glyph-name="hyphen" unicode="-" horiz-adv-x="538" 
d="M273 251q62 0 113 2t88 4q5 -4 2 -12.5t-8 -11.5q-41 3 -90 5t-110 2t-110 -2t-90 -5q-5 3 -2 11.5t8 12.5q37 -2 88 -4t111 -2z" />
    <glyph glyph-name="period" unicode="." horiz-adv-x="247" 
d="M12 7q-4 6 -3 19t5.5 26.5t11.5 25.5t15 16q5 3 17.5 5t24.5 2t24 -3t14 -7q1 -12 -1 -25t-6.5 -25t-11 -22t-12.5 -14q-9 -6 -37 -6q-14 0 -25 1.5t-16 6.5z" />
    <glyph glyph-name="slash" unicode="/" horiz-adv-x="356" 
d="M219 313q-36 -54 -83 -124t-96 -144t-95.5 -145t-81.5 -126q-14 -1 -17.5 -1.5t-10.5 7.5q40 55 89.5 126t100 144.5t98.5 144t85 126.5q35 54 79 121.5t88 136t85 131.5t71 110q14 1 17 -0.5t11 -8.5q-36 -48 -80 -111t-90 -131t-90 -134.5t-80 -121.5z" />
    <glyph glyph-name="zero" unicode="0" horiz-adv-x="912" 
d="M520 706q15 7 39 13.5t49.5 12t50 9t39.5 3.5q20 0 40.5 -5t39 -14t33 -21.5t22.5 -27.5q18 -26 28.5 -65t9 -86t-17 -100t-47.5 -108q-37 -62 -83.5 -110.5t-93 -84.5t-88.5 -60t-69 -36q-14 -5 -37 -12t-48 -13t-49 -10.5t-39 -4.5q-20 0 -42.5 5t-43 13.5t-37 20.5
t-24.5 26q-17 24 -29 59t-13.5 78.5t11.5 94.5t46 107q37 62 86.5 114.5t99.5 93t95 68.5t72 40zM470 34q27 13 54.5 27.5t58 41.5t66.5 73.5t81 124.5q27 48 42 98.5t19 96.5t-3 85t-24 64q-23 35 -68 52.5t-93 17.5q-19 0 -40 -4t-37 -12q-27 -13 -58 -31t-65.5 -49.5
t-74 -82t-84.5 -128.5q-25 -45 -37.5 -91t-14.5 -88t6 -78t26 -61q10 -16 28.5 -28.5t41 -21.5t47 -14t47.5 -5q27 0 48 4t34 9z" />
    <glyph glyph-name="one" unicode="1" horiz-adv-x="381" 
d="M250 609q71 32 128.5 65t99.5 64q8 6 12 8t9 0q11 -4 4 -14q-4 -8 -20.5 -37t-41 -72.5t-54.5 -96.5t-61 -109t-61.5 -110t-56 -99.5t-43.5 -77.5t-24 -44q-24 -45 -11 -62.5t73 -17.5q4 0 4 -3t-5 -3q-10 0 -31 0.5t-44 1.5t-43 1.5t-28 0.5t-28 -0.5t-42.5 -1.5
t-42 -1.5t-26.5 -0.5q-4 0 -3 3t5 3q51 0 86.5 23.5t68.5 76.5q5 8 20 33.5t35.5 62t46 80.5t51 89.5t50 88.5t44 77.5l32.5 57.5t15 28q11 23 -4 23q-10 0 -32.5 -8.5t-76.5 -34.5q-6 -3 -8 0.5t3 5.5z" />
    <glyph glyph-name="two" unicode="2" horiz-adv-x="795" 
d="M311 0q-62 0 -123 -0.5t-111.5 -1.5t-83.5 -1.5t-37 -0.5t-6 7.5t3 9.5q156 79 283 147t222 128.5t155 113.5t81 102q18 42 15.5 79t-23 65t-58.5 44t-91 16q-45 0 -80 -12t-62 -36.5t-47.5 -63t-37.5 -91.5q-8 -24 -19.5 -38.5t-37.5 -14.5q-27 0 -31.5 15.5t9.5 47.5
q19 40 56 79t86 69.5t107.5 49t119.5 18.5q52 0 93.5 -16.5t67 -46t31.5 -70.5t-14 -91q-19 -44 -79 -89t-151 -96.5t-206 -114t-244 -142.5l168 1q99 0 162 8.5t105.5 26.5t71.5 46t60 67q4 5 7 3t-1 -7q-7 -10 -21 -32.5t-30.5 -49.5t-34 -54.5t-31.5 -47.5
q-8 -13 -14.5 -17.5t-14.5 -5.5q-9 -1 -34 -1.5t-56.5 -0.5t-65 -0.5t-58.5 -0.5z" />
    <glyph glyph-name="three" unicode="3" horiz-adv-x="733" 
d="M24 151q6 19 22 36.5t37.5 32t47 24t51.5 14.5q5 1 5 -1.5t-3 -3.5q-27 -5 -51.5 -21.5t-35.5 -51.5q-8 -41 7.5 -72t45 -53t68.5 -33t78 -11q36 0 70.5 10t65.5 27t55 41t39 51q25 48 27.5 98.5t-15 91.5t-54 67.5t-90.5 26.5q-28 0 -51 -9t-42 -19.5t-34 -19.5t-27 -9
q-20 0 -20 17q0 20 29 24q80 13 144 25.5t112 27.5t80 35.5t50 50.5q21 34 22.5 68.5t-12.5 62.5t-42.5 45t-67.5 17q-72 0 -115.5 -34.5t-65.5 -103.5q-8 -24 -17.5 -38t-32.5 -14t-30.5 15t5.5 38q22 40 59 68.5t79 46.5t85.5 26t79.5 7q45 0 81 -17.5t56.5 -46t22 -65.5
t-22.5 -77q-17 -27 -45.5 -43.5t-68 -28t-89 -21.5t-107.5 -23q18 2 38 4.5t34 2.5q47 0 83.5 -21.5t53.5 -58.5t12 -87t-41 -106q-21 -34 -65 -67.5t-97.5 -60.5t-110 -43.5t-102.5 -16.5q-43 0 -82 12t-66.5 35t-40 55.5t-1.5 73.5z" />
    <glyph glyph-name="four" unicode="4" horiz-adv-x="741" 
d="M275 4q-17 0 -40.5 -0.5t-47 -1.5t-42 -1.5t-25.5 -0.5q-5 0 -4.5 3t5.5 3q30 0 53 5.5t42.5 17t35.5 30t33 44.5q7 11 34.5 57.5t65.5 110.5q-59 0 -117.5 0.5t-106.5 0.5q-55 0 -107 1q-4 0 -5 5.5t3 7.5q67 44 153 103t174.5 122t171.5 123.5t144 107.5q8 7 14 8
t10 -1q9 -6 -1 -22q-4 -6 -16 -26t-29.5 -50.5t-39.5 -68.5t-46.5 -80.5t-50 -87.5t-49.5 -88h66q37 0 62.5 4.5t45 16t36.5 30t37 47.5q3 4 8 1t1 -7q-12 -14 -29 -36.5t-34 -45.5q-19 -26 -40 -55q-5 -6 -9.5 -8t-15.5 -2h-159q-37 -66 -63.5 -114t-34.5 -63
q-10 -20 -13.5 -36t3 -27.5t26 -18t55.5 -6.5q4 0 4 -3t-5 -3q-10 0 -29 0.5t-41 1.5t-44.5 1.5t-38.5 0.5zM600 643q3 5 4.5 11t-0.5 6q-3 0 -14.5 -7.5t-21.5 -15.5l-374 -265q-11 -8 -26.5 -19.5t-28.5 -23.5q13 -3 34 -3.5t47 -0.5h196q27 47 55 95t53 91t45 77.5
t31 54.5z" />
    <glyph glyph-name="five" unicode="5" horiz-adv-x="720" 
d="M180 -25q-42 0 -78.5 10.5t-61.5 31t-34.5 50.5t2.5 70q6 22 26 43t46.5 38.5t56.5 29.5t58 17q5 1 5.5 -2.5t-2.5 -4.5q-48 -8 -80.5 -27.5t-42.5 -65.5q-9 -31 2.5 -57.5t37 -46.5t62.5 -31.5t80 -11.5q84 0 150.5 33t115.5 117q26 49 28.5 98t-15.5 87.5t-55 62.5
t-89 24t-96.5 -20t-89.5 -53q-9 -7 -22 -17t-24 -10q-18 0 -18 18q0 8 8.5 15t22.5 7q15 0 26 7.5t25 29.5l196 303q5 7 12 7h324q25 0 43.5 4.5t32.5 13.5t25 23.5t22 35.5q3 5 6.5 3t0.5 -7q-11 -19 -23 -41t-23 -42q-13 -23 -26 -47q-5 -8 -9.5 -10t-15.5 -2
q-7 0 -35 0.5t-67.5 0.5t-85 1t-86.5 1t-72 0.5t-42 0.5q-7 0 -10 -5q-19 -28 -46 -69.5t-53.5 -81t-46.5 -71t-25 -40.5q-2 -4 2 -4q5 0 12 3.5l11 5.5q15 8 36.5 20t49 22.5t60.5 18t70 7.5q49 0 88 -23t59.5 -61.5t19 -88t-33.5 -102.5q-21 -35 -67.5 -73t-105 -70.5
t-122.5 -53.5t-119 -21z" />
    <glyph glyph-name="six" unicode="6" horiz-adv-x="810" 
d="M310 -20q-45 0 -85.5 19t-65.5 53q-14 20 -28.5 49.5t-18 70.5t9.5 95t54 123q56 93 141 160.5t184.5 113.5t205 71.5t202.5 34.5q12 1 12.5 -3t-10.5 -6q-97 -9 -189.5 -31t-176 -62.5t-156 -103t-127.5 -152.5q-3 -5 -8 -13t-10 -19q48 39 109 66q35 16 81.5 29.5
t97.5 13.5q48 0 84.5 -24t53.5 -56q7 -13 16 -37.5t11.5 -57t-5 -71t-34.5 -80.5q-30 -52 -77 -84t-109 -60q-15 -7 -34 -14t-40.5 -12.5t-44 -9t-43.5 -3.5zM211 296q-14 -30 -17.5 -60t0 -57t12.5 -50t21 -39q29 -42 71.5 -61t87.5 -19q32 0 49.5 4t31.5 10q19 8 37 19
t35.5 27.5t33.5 40.5t33 60q12 27 15 57t1 58.5t-9 52.5t-16 40q-18 26 -43.5 44t-57 26.5t-67 6.5t-72.5 -16q-19 -8 -38.5 -19t-38.5 -27.5t-36.5 -40.5t-32.5 -57z" />
    <glyph glyph-name="seven" unicode="7" horiz-adv-x="686" 
d="M159 -91q-28 0 -34 21.5t11 46.5q28 42 73 97t99.5 116t115.5 125.5t121.5 126.5t117 117.5t103.5 99.5h-346q-42 0 -73 -8t-55.5 -23t-43.5 -36t-37 -46q-2 -4 -6.5 -0.5t-1.5 7.5q12 15 32 43.5t40 57.5q23 33 49 71q2 3 6.5 3.5t15.5 0t32 -1t56 -0.5h408l3 -10
q-92 -86 -167 -157t-135.5 -133t-108.5 -117.5t-87 -110.5t-71 -112t-60 -122q-11 -26 -22 -41t-35 -15z" />
    <glyph glyph-name="eight" unicode="8" horiz-adv-x="724" 
d="M256 558q13 34 51 67.5t87.5 60.5t104 44t101.5 17q54 0 93 -15t61.5 -39.5t28.5 -55t-5 -61.5q-12 -28 -32.5 -50t-49.5 -41t-67 -37.5t-85 -38.5l-7 4q48 20 79 37.5t50.5 35t30.5 36t17 41.5q7 25 -1 51.5t-29.5 48t-57 35t-82.5 13.5q-88 0 -150.5 -35.5t-83.5 -92.5
q-12 -30 -0.5 -53t37 -43t61 -38t71.5 -37t69 -41.5t53 -50.5t23.5 -63.5t-18.5 -81.5q-13 -26 -49.5 -60.5t-86 -65t-107 -51.5t-111.5 -21q-60 0 -106 15t-74.5 41t-38.5 60.5t1 72.5q10 35 42 67t76 61t95.5 54.5t99.5 47.5q-26 15 -48 31t-35.5 35.5t-16.5 43t9 52.5z
M101 194q-7 -33 6.5 -64t42.5 -55t72.5 -38t96.5 -14q92 0 146.5 31.5t80.5 84.5q24 53 12.5 90.5t-42.5 65.5t-75 50.5t-85 45.5q-103 -40 -171.5 -87t-83.5 -110z" />
    <glyph glyph-name="nine" unicode="9" horiz-adv-x="818" 
d="M649 325q-18 -12 -34.5 -21.5t-31.5 -17.5q-14 -8 -37.5 -17.5t-52 -18t-59.5 -14.5t-61 -6q-47 0 -84 19t-60 49q-44 51 -43 119t42 136q30 51 77.5 88.5t101.5 63.5q13 6 35 13.5t47 14t49.5 10.5t44.5 4q21 0 44.5 -5.5t45 -15.5t39.5 -23.5t30 -29.5q15 -20 30 -51.5
t17 -77t-14.5 -105t-63.5 -135.5q-46 -73 -112.5 -132t-138 -100.5t-139 -64t-115.5 -22.5q-45 0 -77.5 11.5t-51.5 32t-24 47.5t5 58q12 37 44.5 56t70.5 28q3 1 3 -1t-2 -3q-13 -6 -26 -20t-19 -35q-9 -31 0.5 -56.5t31.5 -43.5t54.5 -28t71.5 -10q51 0 94 16.5t84 52
t83.5 91t92.5 132.5zM691 411q14 30 19 64t2 66.5t-13 61t-26 48.5q-15 19 -35 31t-43 19.5t-47.5 10.5t-48.5 3t-45.5 -4t-42.5 -12q-20 -11 -37 -21.5t-32 -24.5t-29.5 -34t-29.5 -48q-14 -27 -19 -58t-2 -62.5t14 -60.5t29 -52q24 -31 61.5 -49.5t91.5 -18.5q32 0 63.5 5
t56.5 18q16 9 30 16t27.5 19t27 31t28.5 52z" />
    <glyph glyph-name="colon" unicode=":" horiz-adv-x="247" 
d="M12 7q-4 6 -3 19t5.5 26.5t11.5 25.5t15 16q5 3 17.5 5t24.5 2t24 -3t14 -7q1 -12 -1 -25t-6.5 -25t-11 -22t-12.5 -14q-9 -6 -37 -6q-14 0 -25 1.5t-16 6.5zM129 412q-4 6 -3 19t5.5 26.5t11.5 25.5t15 16q5 3 17.5 5t24.5 2t24 -3t14 -7q1 -12 -1 -25t-6.5 -25t-11 -22
t-12.5 -14q-9 -6 -37 -6q-14 0 -25 1.5t-16 6.5z" />
    <glyph glyph-name="semicolon" unicode=";" horiz-adv-x="247" 
d="M129 412q-4 6 -3 19t5.5 26.5t11.5 25.5t15 16q5 3 17.5 5t24.5 2t24 -3t14 -7q1 -12 -1 -25t-6.5 -25t-11 -22t-12.5 -14q-9 -6 -37 -6q-14 0 -25 1.5t-16 6.5zM89 33q-8 -11 -24 -22.5t-29 -11.5q-8 0 -14 2.5t-12 10.5q-3 6 -1.5 17t6 23t11 22.5t12.5 15.5
q5 4 19.5 6.5t26.5 2.5t25 -3t18 -10q6 -8 4.5 -26t-9.5 -32q-12 -23 -31.5 -41.5t-41 -32t-43 -23.5t-38.5 -17q-2 -1 -3 0.5t1 2.5q32 16 68 47t57 69h-2z" />
    <glyph glyph-name="less" unicode="&#x3c;" horiz-adv-x="558" 
d="M273 181q27 -12 47 -20t36.5 -15t32.5 -12.5t34 -11.5q2 -6 0 -12t-7 -8q-16 8 -31.5 15.5t-33 15t-38 16.5t-47.5 21l-148 67q-2 0 -2 6t2 6q21 9 37 16.5t32 14.5t35 16t46 21t46.5 20.5t36 16.5t30.5 15t30 16q11 -7 8 -20q-18 -6 -33 -12t-31 -12.5t-35.5 -15
t-46.5 -20.5q-25 -11 -43 -19t-33 -15t-29 -13.5t-31 -14.5q17 -8 31 -14.5t29 -13t33 -14.5t43 -20z" />
    <glyph glyph-name="equal" unicode="=" horiz-adv-x="558" 
d="M275 317q-31 0 -53 0.5t-40.5 0.5t-37 -0.5t-41.5 -1.5q-5 4 -6 10.5t1 11.5q24 -3 43 -4t38.5 -2t41.5 -1h53h54.5t43.5 0.5t37.5 1.5t35.5 2q8 -10 3 -24q-20 3 -38.5 4.5t-38 2t-43 0t-53.5 -0.5zM275 162q-31 0 -53 0.5t-40.5 0.5t-37 -0.5t-41.5 -1.5q-5 2 -6.5 9
t1.5 13q24 -3 43 -4t38.5 -2t41.5 -1h53h54.5t43.5 0.5t37.5 1.5t35.5 2q5 -4 5.5 -11t-2.5 -13q-20 3 -38.5 4.5t-38 2t-43 0t-53.5 -0.5z" />
    <glyph glyph-name="greater" unicode="&#x3e;" horiz-adv-x="558" 
d="M279 307q-27 12 -46.5 20t-35.5 15t-31 12.5t-33 11.5q-2 6 0 12t7 8q16 -8 30.5 -15.5t31.5 -15t37 -16.5t47 -21l148 -67q2 0 2 -6t-2 -6q-21 -9 -37 -16.5t-32 -14.5t-35 -16t-46 -21t-47 -21t-37 -17t-31.5 -15.5t-30.5 -16.5q-11 7 -8 20q18 6 33.5 12t32 13.5
t36.5 16t47 20.5q25 11 43 19t33 14.5t28.5 13t30.5 14.5q-17 8 -30.5 14.5t-28.5 13.5t-33 15t-43 20z" />
    <glyph glyph-name="question" unicode="?" horiz-adv-x="599" 
d="M168 708q11 35 40 60.5t67.5 42.5t81.5 24.5t83 6.5q77 0 133 -18.5t88.5 -50.5t40 -74t-12.5 -88q-14 -32 -46.5 -58t-75.5 -48.5t-91.5 -42.5t-92.5 -41t-79.5 -43.5t-52.5 -49.5q-10 -16 -14.5 -30t-4.5 -31q1 -13 10.5 -26.5t24.5 -18.5q24 11 60 34.5t72 52.5l6 -7
q-34 -27 -75 -57.5t-92 -64.5q-4 -3 -12 -3.5t-17 -0.5t-16.5 1t-9.5 3q-9 7 -15.5 18t-11 22.5t-6.5 22t-2 18.5q-1 26 7 48t21 42q19 30 55.5 54t81 45.5t93 42t91.5 43t76 48.5t48 58q16 36 11 70.5t-28 62t-64.5 44.5t-99.5 17q-38 0 -71 -6t-59 -19t-43.5 -33
t-24.5 -47q-5 -26 -0.5 -49t17.5 -39.5t33.5 -26t46.5 -9.5q22 0 50 10t48 21l5 -6q-35 -18 -79 -37t-88 -19q-59 0 -90 37t-17 95zM136 -1q-14 0 -25 1.5t-16 6.5q-4 6 -3 19t5.5 26.5t11.5 25.5t15 16q5 3 17.5 5t24.5 2t24 -3t14 -7q1 -12 -1 -25t-6.5 -25t-11 -22
t-12.5 -14q-9 -6 -37 -6z" />
    <glyph glyph-name="at" unicode="@" horiz-adv-x="977" 
d="M791 -85q-26 -26 -60 -50t-74 -43t-85.5 -30.5t-93.5 -11.5q-89 0 -167 25.5t-136 75t-91.5 122.5t-33.5 167q0 75 21.5 141t58.5 121t86.5 98t106 73t116 45.5t117.5 15.5q68 0 121.5 -15.5t94.5 -41t70 -58.5t47.5 -68t27.5 -70t9 -64q0 -72 -25 -135.5t-68.5 -110
t-101 -73.5t-123.5 -27q-4 0 -13.5 2t-19.5 5t-18.5 6t-10.5 5q-13 14 -19.5 36t-7.5 35q-1 16 5.5 37.5t17 45t23 47t24.5 43.5q-26 -31 -57.5 -64.5t-63.5 -65.5t-64 -62t-59 -53q-3 -3 -9 -3.5t-12.5 -0.5t-12.5 1t-7 3q-16 12 -24.5 35t-10 53t4.5 63t19 65
q21 51 57 92.5t76 70t79.5 44t68.5 15.5q16 0 27.5 -2.5t23.5 -9.5t25.5 -20.5t33.5 -34.5q4 4 12 11.5t16.5 16t17 17.5t14.5 16q6 5 9 3q1 -1 2 -4q-14 -17 -32 -45.5t-37.5 -62t-37.5 -70t-32.5 -71t-22.5 -63t-7 -46.5q0 -5 5.5 -16t13.5 -22.5t16.5 -21t14.5 -11.5
q51 0 99 22.5t85.5 64t60.5 99.5t23 129q0 29 -8.5 63.5t-27 69t-47 67.5t-68.5 58t-92 40.5t-117 15.5q-84 0 -168 -33t-151.5 -93t-110 -143.5t-42.5 -183.5q0 -101 33 -175t90 -123t134 -73t166 -24q41 0 83 10.5t81 27.5t72 37.5t57 40.5zM358 60q10 3 29 17.5t43 36.5
t51.5 50.5t55.5 59.5t54 62.5t47 60.5q-22 25 -37 41.5t-27 26.5t-23 13.5t-23 3.5q-23 0 -48 -14.5t-48.5 -40t-43.5 -59.5t-32 -73q-20 -64 -18 -114t20 -71z" />
    <glyph glyph-name="A" unicode="A" horiz-adv-x="1349" 
d="M1118 783q-8 -39 -16.5 -87t-17.5 -99.5t-18.5 -104t-17.5 -100.5q57 -1 105 -1h83t69 -0.5t52 -1.5q7 0 2 -8t-16 -17t-24 -17.5t-22 -9.5q-21 -4 -39 -3.5t-49 0.5q-34 0 -77 1.5t-93 3.5l-19 -128q-8 -53 -4 -86t6 -44q3 -13 14.5 -20.5t25.5 -12.5q11 4 33 17.5
t46 31t46.5 35.5t35.5 32l6 -7q-14 -13 -37.5 -33.5t-50.5 -43t-55.5 -43.5t-50.5 -34q-4 -2 -11 -3t-14.5 -0.5t-13.5 1.5t-8 3q-18 14 -26 35t-9 35q-1 15 -2.5 27.5t-2 27.5t1 33t5.5 43t9.5 60t13.5 77q-64 3 -132 7t-137 8q-58 -71 -98.5 -120.5t-51.5 -60.5
q-66 -74 -111 -120t-80 -71.5t-66 -35t-68 -9.5q-62 0 -106 31t-68 75t-26 90.5t20 78.5q21 32 55 64.5t77.5 59t97 43t113.5 16.5q51 0 136.5 -0.5t187.5 -2.5l324 389q-39 0 -84 -1.5t-87 -5.5q-40 -5 -75.5 -10.5t-63.5 -10t-47.5 -8t-27.5 -3.5q-7 0 -0.5 9.5t18 21.5
t23 23.5t14.5 16.5q6 3 26 4.5t45 2.5t50.5 1h41.5h182q72 0 134 1t111 2.5t84 2.5t52 1q5 0 15 -0.5t17 -2.5q0 -5 -3 -13.5t-9 -17.5t-14 -17.5t-17 -14.5q-8 -2 -29.5 -1.5t-50 2.5t-61 5t-62.5 5.5t-55 4.5t-39 2h-15zM338 373q-42 0 -75 -8.5t-59 -26.5t-46 -45.5
t-36 -64.5q-17 -37 -13 -80.5t26.5 -81.5t62 -63.5t93.5 -25.5q14 0 26 0.5t25 6t29 17t39 33.5t54.5 56t75.5 85q23 25 62 73.5t91 109.5q-106 6 -199 10.5t-156 4.5zM738 395l249 -3q9 52 19.5 108t20.5 108t19 97t16 77z" />
    <glyph glyph-name="B" unicode="B" horiz-adv-x="1030" 
d="M857 438q39 23 67 56.5t38 72.5q8 37 0 77t-38 73.5t-85.5 55.5t-141.5 22q-165 0 -284 -73t-189 -241q-12 -29 -29.5 -43t-44.5 -14q-29 0 -33 16.5t14 45.5q45 70 115.5 134t154 111.5t174 74.5t176.5 25q88 0 146 -21.5t90 -56.5t39 -79t-8 -88q-8 -22 -24 -44
t-37 -42t-44 -36.5t-44 -28.5q34 -15 53 -44.5t25.5 -64.5t2 -71t-17.5 -64q-14 -29 -47.5 -63t-78 -63t-95 -48t-97.5 -19q-87 0 -146 1t-85 1q-72 1 -122.5 0.5t-83.5 -1.5t-51.5 -1.5t-26.5 -0.5q-47 0 -60 15q-1 9 3 20.5t11 23t16.5 21.5t18.5 16q9 3 28.5 -1.5
t44.5 -12t53.5 -16t56.5 -13t53.5 -3.5t44.5 12q22 18 41.5 52t39 80.5t40.5 102.5t47 119q26 66 56 124.5t62.5 106.5t66 82t66.5 51l7 -2q-18 -9 -40.5 -48.5t-47.5 -93.5t-50.5 -115.5t-47.5 -113.5l-2 -4q66 16 129 24.5t121 13.5zM362 49q19 -2 53 -3.5t77 -2t90.5 0.5
t92.5 5q48 4 80.5 11.5t55 21t38 34t27.5 50.5q13 30 14.5 65.5t-8 68t-31 58.5t-53.5 39q-19 3 -43.5 4t-50.5 0t-52 -3t-48 -5q-30 -71 -59 -130t-58.5 -103.5t-60 -73t-64.5 -37.5z" />
    <glyph glyph-name="C" unicode="C" horiz-adv-x="760" 
d="M702 111q-29 -35 -68 -71t-83.5 -65t-92 -47.5t-92.5 -18.5q-74 0 -131 26t-94.5 70t-56 103t-16.5 125t24.5 135t67.5 135q36 52 92.5 109.5t128.5 105.5t156.5 79t177.5 31q51 0 92.5 -10.5t72.5 -24t51 -27t27 -18.5q5 -4 -1 -12t-16.5 -15.5t-22.5 -13t-18 -5.5
q-17 0 -42 14.5t-60 31.5t-80 31.5t-100 14.5q-60 0 -115.5 -21t-105 -56.5t-91.5 -82.5t-75 -98q-40 -63 -60.5 -130t-22.5 -131t14 -120.5t50.5 -99t86.5 -67.5t122 -25q38 0 77.5 14t76 36t67.5 50t53 55q2 3 7 0.5t0 -7.5z" />
    <glyph glyph-name="D" unicode="D" horiz-adv-x="1138" 
d="M441 0q-72 1 -131.5 0.5t-103.5 -1.5t-71.5 -1.5t-35.5 -0.5q-47 0 -60 15q-1 9 3 20.5t11 23t16.5 21.5t18.5 16q9 3 30 -1.5t48 -11.5t58 -15t61 -11.5t56.5 -1.5t44.5 15q28 19 48 51t38.5 75.5t38 98.5t46.5 121q26 66 55.5 124t60.5 104.5t64 79.5t66 50l7 -2
q-18 -9 -40 -47.5t-46 -91.5t-49 -113.5t-47 -112.5q-62 -147 -124 -235t-131 -124q13 -1 51 -2t86.5 -0.5t101 2t94.5 4.5q63 4 111.5 16.5t86.5 36t67.5 60.5t55.5 91q28 60 37.5 123t-1 123t-40.5 113t-79.5 93t-119.5 63.5t-160 23.5q-82 0 -148 -14t-118 -46
t-92.5 -83.5t-71.5 -126.5q-7 -30 -27 -43t-47 -13q-29 0 -33 16.5t14 44.5q39 60 103 116t142 98.5t163 67t165 22.5q95 0 168.5 -25.5t126 -68.5t84 -98.5t43 -116.5t2.5 -122t-37 -115q-27 -49 -78 -100t-115 -92.5t-135 -68t-137 -26.5z" />
    <glyph glyph-name="E" unicode="E" horiz-adv-x="1066" 
d="M342 445q51 0 115 0.5t132 1.5q51 124 110 201t122 112q-55 14 -111 24t-106 10q-69 0 -127 -18t-106.5 -57t-89.5 -100t-77 -147q-7 -30 -27 -43t-46 -13q-30 0 -34 16.5t14 44.5q45 70 105 134t134.5 112t162.5 76.5t190 28.5q72 0 154.5 -15t176.5 -38
q49 -12 81.5 -20.5t52.5 -15t28.5 -11.5t10.5 -9q2 -5 -2 -12.5t-10 -15.5t-13 -14.5t-12 -7.5q-5 0 -23.5 4t-45.5 11t-60.5 16t-69.5 19q-29 8 -65.5 18t-75.5 20q-17 -12 -37 -44t-42 -74.5t-44 -92t-43 -97.5q73 1 135 2t97 1t67 -1.5t48 -5.5q6 -1 2.5 -10t-12 -20
t-19.5 -20.5t-20 -10.5q-21 -4 -41 -3.5t-52 2.5q-35 2 -93.5 9.5t-128.5 15.5q-58 -134 -122 -227t-127 -131q17 0 54.5 -0.5t82.5 -0.5t90.5 2t80.5 6q40 4 78.5 9t70 9t54 6.5t30.5 2.5q7 0 0 -9.5t-18 -21.5t-23 -24t-15 -17q-5 -3 -28 -4t-52 -2t-57.5 -1h-44.5h-182
q-72 0 -142.5 -1.5t-128 -3t-96 -2.5t-46.5 -1q-47 0 -60 15q-3 18 13.5 39t35.5 33q9 3 30.5 -1t49.5 -10t60 -12.5t63 -9t58.5 0.5t45.5 16q27 18 48 51.5t41 78.5t40.5 100.5t44.5 118.5q-60 7 -121 12.5t-117 7.5q-8 0 -10 1.5t0 3t6.5 2.5t7.5 1z" />
    <glyph glyph-name="F" unicode="F" horiz-adv-x="965" 
d="M140 416q-29 0 -33 16.5t14 44.5q45 70 105 134t134.5 112t162.5 76.5t189 28.5q72 0 155 -15t177 -38q49 -12 81.5 -20.5t52 -15t28 -11.5t10.5 -9q2 -5 -2 -12.5t-10 -15.5t-13 -14.5t-11 -7.5q-5 0 -23.5 4t-46 11t-61 16t-69.5 19q-31 8 -67.5 18.5t-78.5 21.5
q-22 -17 -43.5 -50.5t-43 -76t-42.5 -90t-42 -93.5q58 2 107.5 2.5t81.5 0.5q36 0 68 -1.5t48 -5.5q6 -1 2.5 -9t-12 -18t-19.5 -18.5t-20 -9.5q-21 -4 -41 -3.5t-52 2.5q-33 2 -79.5 7.5t-102.5 12.5l-2 -5q-66 -147 -135 -244.5t-141 -135.5q-66 -34 -127.5 -46.5
t-114.5 -12.5q-51 0 -74.5 4t-31.5 12q-2 8 2 18t11 19.5t15.5 17t16.5 12.5q10 2 31 -1.5t49.5 -9t60.5 -11.5t63 -8t58.5 1t45.5 16q28 19 52 56t47.5 86.5t48.5 109.5t54 126q0 1 2 5q-54 6 -111.5 11t-115.5 8q-9 0 -10.5 1.5t0.5 3t6 2.5t7 1q53 0 114 0.5t123 1.5
q51 112 107 192.5t131 121.5q-54 14 -109 23.5t-104 9.5q-69 0 -127 -18t-106.5 -57t-89.5 -100t-76 -147q-8 -30 -27.5 -43t-46.5 -13z" />
    <glyph glyph-name="G" unicode="G" horiz-adv-x="1016" 
d="M397 -2q-79 0 -136 25.5t-92.5 68.5t-51 99t-13 116.5t23.5 122.5t58 116q33 48 85.5 98t122.5 91t156.5 67t187.5 26q36 0 70.5 -2.5t71.5 -9t77 -17t87 -25.5q5 -2 5 -6q0 -6 -8 -15.5t-19 -18.5t-22 -15.5t-17 -6.5q-10 0 -29 6q-35 11 -73.5 24.5t-78.5 25t-81.5 19
t-81.5 7.5q-69 0 -127 -19t-105.5 -49.5t-83.5 -69t-61 -78.5q-36 -58 -56.5 -119.5t-23.5 -121t12 -113t50 -94t90 -64.5t132 -25q57 -1 115 16t111.5 56t100.5 102.5t83 155.5q-20 3 -54.5 7t-85.5 5q-48 0 -97.5 -4.5t-91.5 -10t-73 -10.5t-41 -5q-7 0 -2.5 9t14.5 20.5
t22.5 22t22.5 14.5q5 3 25 4t45.5 1h51h41.5q48 0 90.5 1t76 1.5t56 1.5t30.5 1q9 0 20.5 -7t21.5 -17t16 -21t5 -19q-36 -51 -75.5 -117.5t-75 -133.5t-65 -127t-46.5 -98q-6 -12 -22 -24.5t-37.5 -24t-46.5 -21.5t-48 -18.5t-42.5 -15.5t-30.5 -11q-8 -2 -9 2t6 7
q34 13 67.5 30.5t59.5 55.5q9 14 29.5 47t46 75t53 88t49.5 87q-45 -37 -95 -68t-100 -53t-99 -34.5t-91 -12.5z" />
    <glyph glyph-name="H" unicode="H" horiz-adv-x="1337" 
d="M78 247q21 31 58 65.5t85 63.5t104.5 47.5t117.5 18.5q51 0 129 -1t167 -2q23 40 44 76.5t38 67.5q26 48 41.5 86.5t13.5 64.5q0 13 -8.5 23.5t-22.5 15.5q-12 -4 -33.5 -17.5t-45.5 -31t-46.5 -36t-35.5 -31.5l-6 6q13 13 36.5 33.5t51 43t55.5 43.5t51 35q3 2 10 3
t14.5 0.5t14 -2t8.5 -2.5q9 -7 15.5 -17t11 -20.5t7 -21t2.5 -17.5q1 -15 -5 -34.5t-16 -42t-22.5 -46.5t-25.5 -46q-17 -29 -36.5 -63.5t-41.5 -70.5q89 -2 173.5 -3t151.5 -1q28 47 50 82.5t33 52.5q45 68 102 120t118.5 88t122.5 55.5t115 22.5q16 1 44 -1.5t60.5 -6.5
t67 -9.5t64 -11t50.5 -9.5t27 -6q11 -3 8 -12t-13 -18.5t-23.5 -17t-23.5 -7.5q-20 0 -63 9t-94 20.5t-101.5 20.5t-85.5 9t-70 -9t-72.5 -35.5t-78.5 -74.5t-88 -126q-21 -34 -41.5 -68t-40.5 -68q86 0 139.5 -0.5t70.5 -1.5q8 0 3 -8t-16.5 -17.5t-25.5 -18t-23 -9.5
q-10 -2 -24 -2.5t-35 -0.5h-51h-71q-20 -35 -39 -69.5t-38 -69.5q-26 -48 -41 -86t-13 -65q1 -12 9 -22.5t23 -15.5q11 4 32.5 17.5t45.5 31t46.5 35.5t36.5 32l6 -7q-14 -13 -37.5 -33.5t-50.5 -43t-55.5 -43.5t-50.5 -34q-4 -2 -11 -3t-14.5 -0.5t-14 1.5t-7.5 3
q-18 14 -27 37.5t-10 38.5t5 34.5t16 42t23 46t25 46.5q17 31 35.5 63t37.5 64q-68 2 -149.5 7.5t-166.5 11.5q-22 -37 -43.5 -72t-39.5 -64.5t-31.5 -51t-19.5 -30.5q-45 -68 -98.5 -118.5t-103 -83.5t-90 -49t-58.5 -16q-44 0 -84 15.5t-72.5 41t-55.5 59.5t-33 71.5
t-5 76t29 73.5zM383 417q-85 0 -144.5 -41t-92.5 -117q-22 -47 -16 -101.5t34 -101.5t74.5 -78.5t106.5 -31.5q21 0 43.5 7.5t50 31.5t62.5 69t81 121q27 45 63 104t71 121q-94 7 -180.5 12t-152.5 5z" />
    <glyph glyph-name="I" unicode="I" horiz-adv-x="732" 
d="M464 421q34 73 65.5 132.5t63.5 105.5t67 78.5t75 50.5q-24 2 -57 0.5t-69 -6t-72 -10t-66 -11t-51.5 -9t-28.5 -3.5t-3 8.5t14 20t22.5 22t22.5 14.5q6 3 26 4.5t45 1.5h50.5h42.5q47 0 105.5 1.5t111.5 3t91.5 3t46.5 1.5q48 0 59 -14q2 -10 -12 -25t-33 -27
q-14 -4 -48 3t-75 12.5t-81.5 4.5t-67.5 -20q-28 -19 -46 -51.5t-34.5 -77t-35.5 -100t-48 -121.5q-66 -147 -140.5 -242t-142.5 -131q10 -4 35.5 -2.5t60 6t74 10t76.5 11t67.5 9t48.5 2.5q10 0 8.5 -12t-11.5 -25.5t-27.5 -25t-41.5 -11.5l-139 3q-72 0 -139 -1.5t-120 -3
t-88 -2.5t-43 -1q-46 0 -59 15q0 5 4.5 12.5t12 15t16.5 13t16 7.5q9 3 27 0t41.5 -7t50.5 -8t55 -4q32 0 58 5t47 22q26 21 45.5 54t38.5 77.5t39.5 100t49.5 121.5z" />
    <glyph glyph-name="J" unicode="J" horiz-adv-x="394" 
d="M562 780q-38 5 -89 -1t-100.5 -15t-91 -17t-60.5 -8q-7 0 -2 9.5t15 22t23 24t23 14.5q6 3 13.5 5t24.5 3.5t46 2.5t77 1q46 0 80 1.5t60.5 3.5t48 3.5t41.5 1.5q6 0 1 -9t-15.5 -20.5t-23.5 -20.5t-21 -9q-73 0 -121.5 -38.5t-83.5 -103t-62 -147.5t-57 -173
q-36 -104 -63.5 -175.5t-54.5 -121.5t-57 -84.5t-71.5 -65t-98 -63t-135.5 -78.5q-20 -13 -24.5 -7t18.5 19q65 37 113 72.5t85 73.5t65 81.5t52.5 98.5t49 124t53.5 158q30 87 62 155t72 121.5t90.5 93t117.5 68.5z" />
    <glyph glyph-name="K" unicode="K" horiz-adv-x="1116" 
d="M766 471q10 -56 24 -111t29.5 -103t31.5 -86t30 -60q31 -51 68 -64q25 7 59.5 34t73.5 63l6 -4q-16 -15 -35.5 -33.5t-41 -37t-44.5 -36t-47 -30.5q-4 -2 -11 -3t-13.5 -0.5t-12.5 1.5t-8 3q-18 14 -34 35.5t-24 35.5q-15 24 -31 62t-30.5 84.5t-27 97.5t-20.5 101
q-62 -55 -118.5 -105.5t-98.5 -87.5q-39 -63 -83 -112t-92 -76q-63 -35 -122.5 -48t-108.5 -13q-52 0 -77.5 5.5t-31.5 11.5q0 4 2.5 12.5t8 18t13.5 19.5t18 16q8 1 28 -4t47.5 -12t59 -12.5t61.5 -5.5t57 4.5t46 17.5q22 16 41.5 44t40 68.5t43 94.5t49.5 122
q41 100 79.5 171t74.5 119t68.5 75.5t61.5 39.5q-38 5 -87.5 0t-97.5 -13.5t-88 -16t-58 -7.5q-7 0 -2.5 9.5t15 21.5t23.5 23.5t23 15.5q5 3 13 4.5t24.5 2.5t45.5 1h77q46 0 80.5 1.5t61 3.5t48 3.5t41.5 1.5q6 0 0.5 -8t-16 -17t-23.5 -17t-21 -8q-41 0 -68.5 -19
t-54 -63t-56.5 -117t-75 -181q-17 -40 -35 -78.5t-39 -73.5q33 32 75.5 71t88.5 81t93.5 84.5t92.5 81.5t84.5 72t69.5 56q90 68 173 95.5t161 27.5q14 0 20.5 -4t6.5 -9q0 -6 -5.5 -17t-13 -21t-16 -17.5t-14.5 -7.5q-32 0 -72 4t-78 4q-29 0 -66.5 -15t-74.5 -42
q-25 -18 -56.5 -44t-67 -56t-74.5 -64t-78 -69z" />
    <glyph glyph-name="L" unicode="L" horiz-adv-x="1008" 
d="M999 6q-18 -21 -36.5 -42.5t-32.5 -35.5q-28 -27 -53.5 -49.5t-52.5 -38.5t-57 -24.5t-67 -8.5q-36 0 -80.5 20t-93.5 50.5t-99.5 67t-99.5 69.5q-27 -43 -59.5 -82t-67.5 -68t-72.5 -46.5t-74.5 -17.5q-41 0 -72.5 18t-50 46.5t-23.5 63t9 67.5q10 25 36.5 51.5t62.5 48
t79 35.5t85 14q31 0 69 -15.5t81 -39.5q21 53 43 120t44.5 137.5t46.5 138t49 120.5q54 122 162.5 186t257.5 64q26 0 59 -4.5t63.5 -10.5t55 -12.5t33.5 -10.5q11 -5 7.5 -15.5t-14 -21.5t-23 -19.5t-18.5 -8.5q-21 0 -53 11.5t-69 26t-76.5 26t-76.5 11.5
q-35 0 -61.5 -7.5t-52 -31.5t-52 -70t-60.5 -122q-27 -60 -53.5 -123.5t-54 -128t-56 -127.5t-57.5 -121q-3 -7 -6.5 -13t-6.5 -12q51 -30 105.5 -65t108 -65t104.5 -50t95 -20q37 0 67.5 12.5t57 33t49 45.5t44.5 50zM117 116q-49 0 -84.5 -22t-53.5 -70q-10 -25 -2.5 -55
t27.5 -56.5t50.5 -44t66.5 -17.5q27 0 49.5 8.5t44 28.5t43.5 54.5t46 87.5q-54 37 -102.5 61.5t-84.5 24.5z" />
    <glyph glyph-name="M" unicode="M" horiz-adv-x="1654" 
d="M1665 792q11 8 16.5 5t-3.5 -13q-37 -47 -74 -114.5t-71 -143t-64 -151.5t-52 -138q-17 -48 -20 -86t-1 -65q1 -12 9 -22.5t23 -15.5q11 4 35.5 20.5t52.5 37.5t53.5 42t39.5 35l6 -6q-14 -13 -40.5 -37t-57.5 -50t-62.5 -50t-53.5 -37q-4 -2 -11 -3t-14.5 -0.5t-14 1.5
t-7.5 3q-18 14 -29 37.5t-12 38.5t1 34.5t6 41.5t10.5 46t14.5 47q16 46 36 96.5t39.5 95.5t36.5 80.5t28 52.5q12 22 24.5 42.5t26.5 40.5q-28 -27 -69.5 -67t-91 -87.5t-103 -100t-106 -104.5t-99.5 -100.5t-83 -87.5q-5 -6 -8.5 -19.5t-6 -28.5t-4 -29t-2.5 -22
q-1 -3 -10.5 -5t-20.5 -2.5t-21 1t-12 4.5q-5 5 0 35.5t10 82.5q5 54 11 119.5t11 136t7.5 142t1.5 137.5q-36 -47 -79 -102.5t-88 -113.5t-90 -114t-85.5 -104t-74 -84.5t-55.5 -53.5q-22 -18 -48 -34t-53.5 -29t-56 -20.5t-55.5 -7.5q-23 0 -54.5 3.5t-61.5 8t-52.5 10
t-25.5 10.5q-5 7 -2 17.5t10.5 21.5t16.5 19.5t17 10.5q16 1 41.5 -4.5t56.5 -13t65.5 -13.5t68.5 -7t65.5 6.5t56.5 27.5q27 21 61.5 57.5t74.5 84t84 102t88.5 112t88.5 114.5t85 109q-2 74 -9.5 136.5t-23.5 105.5q-5 11 -16.5 21.5t-25.5 15.5q-12 -4 -41.5 -23.5
t-62.5 -44t-64 -49t-47 -37.5l-4 6q16 13 48.5 40t70 56.5t74 56t62.5 40.5q4 2 11.5 3t15 0.5t13.5 -2t8 -2.5q15 -14 25.5 -41.5t19.5 -72.5q9 -47 13 -110t4.5 -133.5t-2 -144t-6.5 -142t-10 -128.5t-11 -102q68 72 156 158.5t180.5 176t183 175.5t164.5 158z" />
    <glyph glyph-name="N" unicode="N" horiz-adv-x="947" 
d="M673 57q-13 -21 -24.5 -41t-16.5 -25t-11.5 -4t-7.5 6l-47 382q-12 101 -22 174.5t-20 125.5l-254 -379q-68 -101 -124.5 -184.5t-116.5 -143t-131 -92t-167 -32.5q-30 0 -65.5 5.5t-66 13t-51.5 15t-24 10.5q-3 4 3.5 14.5t17.5 21.5t23.5 20.5t21.5 12.5q7 2 31.5 -6.5
t59.5 -20t79.5 -21t92.5 -9.5q49 0 93.5 24.5t91 74t100 125t121.5 176.5l263 390q-13 65 -28 98t-37 47q-15 9 -34 9t-41 -8q-12 -4 -42.5 -23.5t-65 -43.5t-66.5 -48.5t-48 -37.5l-6 7q16 13 50 40t74 56.5t78.5 56t64.5 40.5q7 4 21 7.5t29 5t29.5 0.5t24.5 -5
q21 -9 37 -40t30 -90t27 -148.5t27 -216.5l35 -302q73 120 147 237.5t144 217.5q63 91 114.5 148.5t97.5 90.5t90 45t92 12q30 0 66 -3.5t69 -8t58 -9t32 -6.5q4 -1 4 -4q0 -5 -8.5 -15t-19.5 -20.5t-22.5 -18.5t-18.5 -8h-6.5t-9.5 1q-17 2 -45.5 8t-63 12t-72 11t-71.5 5
q-30 0 -59.5 -13t-62 -43t-71 -78t-87.5 -118q-84 -119 -158 -239t-147 -241z" />
    <glyph glyph-name="O" unicode="O" horiz-adv-x="972" 
d="M466 36q57 -1 108 13.5t94.5 42.5t80.5 67t66 88q36 57 56.5 120t24 124t-11 116t-49 97t-89 66.5t-131.5 24.5q-117 0 -201.5 -56.5t-146.5 -158.5q-36 -58 -57 -120t-24.5 -122t11 -114.5t48.5 -96t89 -66t132 -25.5zM408 -2q-82 0 -140.5 25.5t-96 68.5t-53.5 98.5
t-13.5 116.5t23.5 122t59 115q37 56 93.5 108t121 91.5t132.5 63.5t128 24q84 0 144 -25.5t97.5 -68.5t54.5 -98.5t14.5 -116.5t-23.5 -122t-59 -115q-37 -56 -92.5 -108t-120.5 -91.5t-134.5 -63.5t-134.5 -24z" />
    <glyph glyph-name="P" unicode="P" horiz-adv-x="1004" 
d="M358 45q19 0 48 -0.5t64 0t73.5 2t74.5 5.5q81 8 129.5 20t64.5 12q7 0 0.5 -9.5t-18 -21.5l-23 -24t-14.5 -17q-6 -3 -23 -4t-38.5 -2t-44 -1h-38.5h-110q-72 0 -142.5 -1.5t-128.5 -3t-96.5 -2.5t-46.5 -1q-47 0 -59 15q-3 18 13.5 34t35.5 28q9 3 29.5 -0.5t47 -9
t57.5 -11.5t60.5 -8t56 1.5t44.5 16.5q28 19 49.5 51.5t42 76.5t41.5 100t48 122q25 64 54 120.5t59.5 102t62.5 79t65 51.5q-27 10 -59 15.5t-67 5.5q-78 0 -144 -12.5t-117.5 -40.5t-88 -72t-56.5 -107q-8 -30 -23.5 -43.5t-41.5 -13.5q-30 0 -29.5 16.5t19.5 45.5
q21 31 54 63.5t74 62.5t88 56.5t96.5 46t100 30t98.5 9.5q79 1 138.5 -16.5t101.5 -48t66.5 -69t33.5 -79.5t4 -80t-22 -70q-18 -34 -48.5 -60.5t-69 -44.5t-81 -28t-84.5 -10q-35 0 -69.5 8.5t-63.5 22.5q-56 -123 -115.5 -199.5t-132.5 -108.5zM802 342q47 0 86.5 23.5
t60.5 65.5q22 43 24 92t-16.5 95.5t-57 85t-95.5 60.5q-18 -13 -40 -51.5t-45 -89t-46.5 -107.5t-42.5 -107q32 -27 78.5 -47t93.5 -20z" />
    <glyph glyph-name="Q" unicode="Q" horiz-adv-x="1012" 
d="M547 136q5 4 8 1.5t-2 -6.5q-72 -58 -136 -90t-100 -32q-48 0 -91.5 18t-76.5 50.5t-54 78t-24.5 100t12.5 116.5t57 129q23 35 59 73.5t81 75.5t97 70.5t106.5 59t109.5 40.5t107 15q75 0 132 -23.5t95.5 -64t57.5 -94t18.5 -113t-21.5 -122.5t-63 -121
q-32 -46 -76.5 -91t-106.5 -92t-144.5 -97t-190.5 -107q19 4 45 4q53 0 118.5 -16.5t137.5 -41t147.5 -53.5t148 -53.5t139.5 -41t123 -16.5q63 0 111 17t87 43.5t70.5 57.5t61.5 60l7 -3q-12 -14 -27.5 -30.5t-32 -33t-32.5 -31.5t-28 -25q-31 -27 -59.5 -49.5t-58.5 -38.5
t-61.5 -25t-68.5 -9q-63 0 -137 18.5t-153 46.5t-158 61t-151.5 61t-134.5 46.5t-105 18.5q-51 0 -90.5 -15t-71.5 -30q-13 -6 -33 -17.5t-43.5 -25t-47 -28.5t-43.5 -27q-14 -9 -23.5 -6t-12 11t2.5 18.5t20 16.5t41 15.5t65.5 25t93 38t124.5 55.5q117 55 199.5 109.5
t139 105t92 95t58.5 80.5q31 47 46.5 102t14 110.5t-20.5 107t-56.5 91.5t-94 64t-133.5 24q-58 0 -117 -23t-112.5 -60t-98.5 -84t-74 -94q-57 -93 -65.5 -179.5t19.5 -153t86 -106t133 -39.5q18 0 40 8.5t44.5 21t42.5 26t32 22.5z" />
    <glyph glyph-name="R" unicode="R" horiz-adv-x="1001" 
d="M-63 -1q-2 5 1 14t9.5 18.5t14.5 18t16 13.5q10 3 36.5 -2.5t60.5 -13t71 -14t70 -6.5q22 0 38.5 5.5t30.5 15.5q28 19 48 53.5t39 82t39 105.5t47 124q27 65 58 123t66 106t74 84t83 58q-41 11 -86 11q-78 0 -137 -14.5t-103.5 -44t-78 -74.5t-60.5 -107
q-13 -29 -26 -43t-40 -14q-29 0 -28.5 16.5t19.5 45.5q32 46 87.5 95t123 88.5t141 64t141.5 22.5q94 1 155.5 -29t93.5 -76.5t34.5 -101.5t-22.5 -102q-17 -34 -46.5 -56.5t-64.5 -36.5t-74 -21.5t-76 -12.5q8 -73 27.5 -144t55.5 -138q29 -55 65 -71q25 7 61.5 33.5
t75.5 62.5l5 -8q-16 -15 -36.5 -33.5t-44 -37t-48.5 -36t-49 -30.5q-8 -5 -22.5 -3.5t-19.5 4.5q-18 14 -32.5 36t-30.5 53q-36 71 -56.5 152t-27.5 159q-1 11 3.5 14t17.5 3h16.5t22.5 -0.5t24 -0.5h21q51 0 92 20.5t70 76.5q19 40 19 82.5t-18 80.5t-53 68t-87 45
q-30 -17 -58 -58.5t-54.5 -95.5t-51 -113.5t-46.5 -111.5q-62 -147 -121.5 -237.5t-131.5 -128.5q-66 -35 -120 -47.5t-105 -12.5q-53 0 -82.5 8t-35.5 14z" />
    <glyph glyph-name="S" unicode="S" horiz-adv-x="761" 
d="M240 336q-22 -23 -46 -47.5t-45 -48.5t-35 -46t-15 -38q5 -11 27 -30t56 -38.5t77 -33.5t91 -14q43 0 85.5 9.5t79.5 27.5t66 44.5t45 60.5q21 47 12.5 81t-35.5 60t-67.5 46t-84.5 38.5t-86 37t-71.5 42.5t-41 54t4.5 72q10 24 34.5 49.5t58.5 49.5t74.5 45t82 37
t81.5 25t72 9q37 0 74.5 -7.5t70 -20.5t58 -31t37.5 -39q-47 -65 -95.5 -119t-90.5 -114l-6 4q33 47 64 86.5t67 90.5q-15 22 -38 42t-54 35t-69.5 23.5t-84.5 8.5q-44 0 -88 -11t-81.5 -30.5t-65.5 -46t-40 -58.5q-13 -33 1 -58t45 -46t73 -39t85.5 -37t83.5 -41t65.5 -50
t31.5 -64.5t-17 -85.5q-15 -33 -56.5 -73t-97 -74.5t-119.5 -57.5t-125 -23q-51 0 -92.5 11t-75 28.5t-60.5 39t-48 42.5q18 21 44.5 48.5t56 58t60.5 62t58 58.5z" />
    <glyph glyph-name="T" unicode="T" horiz-adv-x="758" 
d="M96 528q-29 0 -32 16t13 45q39 70 90 117.5t107.5 76t115 40.5t112.5 12q63 0 130 -5.5t137.5 -12t144 -12t148.5 -5.5q45 0 68 7t28 5q4 -1 -1.5 -9.5t-14.5 -19t-19 -20t-17 -12.5q-9 -5 -19 -9t-22 -7t-27.5 -4.5t-37.5 -1.5q-20 0 -48.5 3t-63.5 7.5t-74 10.5t-80 12
q-29 -21 -50 -52.5t-40.5 -75t-40 -99.5t-48.5 -126q-31 -73 -74.5 -146.5t-101.5 -132.5t-130.5 -96t-161.5 -37q-23 0 -51 3t-53.5 7t-44.5 9t-22 10q-5 7 -1.5 17.5t11 21.5t17 19.5t17.5 10.5q13 2 36 -4.5t53 -16t64 -17.5t68.5 -10.5t68 5t61.5 30.5q26 21 44.5 51
t36 71.5t36 94.5t45.5 119q60 142 123 226t130 120q-48 8 -96.5 15.5t-92.5 13.5t-81.5 10t-63.5 4q-40 0 -72.5 -13.5t-60 -40.5t-52 -69t-47.5 -99q-7 -18 -13 -29t-12.5 -17.5t-16 -8.5t-22.5 -2z" />
    <glyph glyph-name="U" unicode="U" horiz-adv-x="928" 
d="M836 424q-47 -77 -82.5 -134t-59 -100t-34.5 -74t-10 -54q1 -8 5 -17t9.5 -17t11.5 -14t12 -7q12 3 39 21.5t57.5 42t59.5 47t44 36.5l5 -7q-15 -13 -44 -38.5t-63.5 -54t-68.5 -54t-58 -38.5q-3 -2 -9.5 -2.5t-13.5 0t-12.5 1.5t-7.5 3q-16 13 -30.5 34t-17.5 50
q-2 34 11.5 71t41.5 86q-35 -39 -83 -83.5t-99.5 -82t-100.5 -62.5t-85 -25q-38 0 -70.5 17t-57 45.5t-39.5 66.5t-17 80t11 83.5t37.5 85t57.5 89t70 95.5q34 45 62.5 83t49.5 69.5t32 56.5t10 45q-2 15 -9 28t-18 27q-12 -3 -41 -21t-62.5 -41t-64 -46t-45.5 -36l-6 8
q14 12 45.5 37t68 52t72 51.5t59.5 37.5q4 2 10.5 2.5t13.5 -0.5t12.5 -2.5t7.5 -2.5q15 -13 22.5 -34.5t12.5 -50.5q3 -23 -10 -53t-37 -67.5t-57.5 -82t-70.5 -95.5q-35 -47 -64.5 -90t-50.5 -82t-32 -74t-9 -66q2 -29 12 -60t29.5 -57.5t48.5 -43.5t69 -17
q19 0 46.5 12.5t58.5 33t64 46.5t63.5 53t56.5 53t44 47q26 43 59.5 95.5t75.5 121.5q55 89 87.5 140.5t50 82.5t22 49.5t3.5 42.5q-2 15 -9 28t-19 27q-12 -3 -41 -21t-62 -40.5t-63.5 -45t-45.5 -35.5l-6 8q14 12 45.5 37t67.5 52t72 51.5t59 37.5q4 2 10.5 2.5t13.5 -0.5
t12.5 -2.5t7.5 -2.5q16 -13 23 -34.5t13 -50.5q1 -23 -5.5 -47t-26 -61.5t-55 -95.5t-91.5 -149z" />
    <glyph glyph-name="V" unicode="V" horiz-adv-x="608" 
d="M144 -84q-6 -8 -16.5 -6.5t-8.5 12.5q8 39 19 99t23 128.5t24 140.5t23 136.5t19.5 116t12.5 78.5q9 56 8.5 96t-8.5 55q-7 14 -16.5 18t-27.5 5q-31 1 -69.5 -5.5t-74.5 -14t-66 -13t-45 -3.5q-7 1 -4.5 9t9.5 17.5t15.5 19t14.5 12.5q5 3 24 4t45.5 1.5t56 0t56.5 -0.5
h104q72 0 139 1.5t122.5 3t95.5 3t57 1.5q5 0 15 -0.5t17 -2.5q0 -5 -3 -13.5t-9 -17.5t-14 -17.5t-17 -14.5q-12 -3 -48 0t-87 7.5t-111 9.5t-120 7q11 -15 14 -28q3 -14 5.5 -48.5t-6.5 -85.5q-4 -26 -11.5 -70t-16.5 -98t-19.5 -114.5t-21.5 -120.5t-21.5 -116
t-18.5 -101q112 131 198.5 231.5t153.5 178t117.5 136t91.5 105.5t75.5 86.5t69.5 79.5q29 33 55.5 66t48.5 62t40 53.5t31 41.5q5 4 12 2t13 -7.5t8 -12t-3 -11.5q-14 -11 -38 -34t-51 -51.5t-55 -59.5t-50 -56q-197 -226 -390 -447t-386 -454z" />
    <glyph glyph-name="W" unicode="W" horiz-adv-x="1025" 
d="M974 775q-16 -4 -74 -0.5t-152 9.5q-8 -54 -17 -122.5t-18 -143.5t-17.5 -152.5t-16.5 -148t-14.5 -130.5t-10.5 -101q86 119 154.5 214.5t124 173.5t99.5 140.5t81.5 116.5t70.5 102t65 96q48 71 83.5 127t55.5 90q7 13 16.5 14t16.5 -5t9 -16t-7 -20q-29 -32 -70 -83
t-88 -116q-83 -117 -164.5 -231l-163 -228t-163 -229.5t-164.5 -234.5q-3 -4 -10.5 -5.5t-16 -0.5t-14.5 4.5t-5 9.5q5 29 12.5 84t16.5 123.5t18.5 145.5t18.5 151.5t16 140t12 111.5q-133 -189 -264.5 -379.5t-259.5 -382.5q-3 -4 -9.5 -3.5t-13 3.5t-11.5 8t-4 10
q8 39 20.5 100t26.5 131t28.5 144t27.5 140t23 118.5t14 80.5q9 56 10.5 95.5t-6.5 54.5q-7 14 -16.5 18.5t-27.5 4.5q-31 1 -69.5 -5.5t-74.5 -13.5t-66 -12.5t-45 -3.5q-7 1 -4.5 9t9.5 17.5t15.5 19t14.5 12.5q5 3 24 4t45.5 1t56 -0.5t56.5 -0.5h465q145 0 236 5t126 5
q5 0 15 -0.5t17 -3.5q0 -5 -3 -13t-9 -17t-14 -17.5t-17 -14.5zM189 5q115 167 200.5 290t148.5 214t109 157t84 119q-87 5 -196.5 9.5t-240.5 5.5q15 -12 19 -29q3 -14 3.5 -49t-8.5 -86q-4 -26 -12 -70.5t-18 -99.5t-22 -117t-24 -123.5t-23 -118.5t-20 -102z" />
    <glyph glyph-name="X" unicode="X" horiz-adv-x="756" 
d="M466 4q-16 14 -28.5 27t-19.5 25q-14 27 -9.5 86.5t15.5 138.5l15 102l-251 -200q-78 -62 -135.5 -113t-89.5 -83q-12 -11 -22 -10t-15.5 8.5t-3.5 18t15 19.5q21 14 50 33t61.5 41.5t66.5 47.5t65 49l261 204q8 54 16.5 109t13.5 96q5 44 3 84.5t-15 59.5q-6 9 -17.5 17
t-24.5 13q-13 -4 -38 -17.5t-53 -31t-54.5 -36t-42.5 -32.5l-6 7q16 13 44 33.5t60.5 43t65 43.5t59.5 35q8 5 18 3.5t15 -4.5q14 -14 26 -25t17 -22q12 -20 17 -57t-4 -105q-5 -29 -12 -76t-15 -100q49 38 92 72t82.5 65.5t76 61.5t72.5 59q76 62 134 114t91 83
q12 12 22.5 11t15.5 -8.5t3.5 -18.5t-14.5 -20q-22 -14 -50 -33t-59.5 -41.5t-64 -46.5t-62.5 -48q-90 -68 -174.5 -133.5t-166.5 -131.5q-8 -58 -15 -112t-12 -87q-3 -22 -4.5 -43.5t-1.5 -40.5t2.5 -34.5t9.5 -24.5q13 -21 44 -31q12 4 36.5 17.5t52 31t53.5 35.5t41 32
l7 -7q-17 -13 -44.5 -33.5t-59.5 -43t-64.5 -43.5t-58.5 -34q-8 -5 -18.5 -3.5t-13.5 4.5z" />
    <glyph glyph-name="Y" unicode="Y" horiz-adv-x="599" 
d="M256 3q-46 0 -92.5 -0.5t-87.5 -1t-74 -1t-53 -0.5q-7 0 -2.5 8.5t14.5 19t22 19t20 8.5q64 0 109.5 9.5t80 29t61 49.5t52 71.5t53.5 95t65 119.5q-16 95 -39.5 176t-55.5 126q-11 15 -30 24t-33 14q-13 -4 -38 -17.5t-53 -31t-54.5 -36t-42.5 -31.5l-5 7q16 13 46 35
t64.5 46t69 47t61.5 37q8 4 18 3t15 -4q13 -8 29 -25t22 -28q23 -41 39.5 -86t28.5 -88.5t19 -84t10 -71.5q91 76 175 144.5t145 122.5q74 66 130 114t88 79q12 12 22.5 11.5t16 -7.5t3.5 -18t-14 -20q-21 -14 -49 -33.5t-59.5 -42t-64 -46.5t-63.5 -48q-38 -30 -80 -64
t-85.5 -70.5t-87.5 -75t-84 -77.5q-30 -55 -53 -97.5t-44.5 -75t-44 -57.5t-52 -46.5t-68 -41.5t-92.5 -42q40 0 91 3.5t100 8t89 8t59 3.5q8 0 5 -9.5t-11.5 -21.5t-20.5 -23t-22 -14q-6 -3 -15 -3.5t-27 -0.5t-48 1t-78 1z" />
    <glyph glyph-name="Z" unicode="Z" horiz-adv-x="892" 
d="M552 53q45 1 72.5 5.5t48 26t40.5 66t50 125.5q12 32 28.5 45.5t37.5 13.5q23 0 27.5 -16.5t-11.5 -45.5q-32 -58 -76 -108.5t-94 -87.5t-104.5 -58.5t-107.5 -21.5q-66 0 -130.5 6.5t-127 14t-123.5 12t-119 -0.5q-7 0 -3.5 8.5t12.5 18t20 18t19 8.5q73 0 139 41.5
t131 105.5t132 141.5t142 150t161 130.5t189 83q-5 -1 -11.5 -1.5t-17.5 -0.5q-41 0 -93 10t-105.5 22.5t-104.5 22.5t-91 10q-38 0 -63 -4t-44.5 -21.5t-38 -54.5t-44.5 -103q-13 -32 -27 -44t-37 -12q-25 0 -29.5 17.5t10.5 44.5q32 57 73.5 97t90.5 65.5t103 37t110 11.5
q45 0 87.5 -6.5t84 -15t81.5 -15t80 -6.5q45 0 68 7t28 5q5 -1 -3.5 -12.5t-19.5 -23.5q-12 -12 -27.5 -21t-26.5 -10q-60 -6 -118 -48t-118 -104t-125 -136t-139 -144.5t-160.5 -129.5t-188.5 -90q52 10 110.5 6.5t119 -11.5t120 -16.5t113.5 -6.5z" />
    <glyph glyph-name="bracketleft" unicode="[" horiz-adv-x="400" 
d="M167 246l237 525q2 3 4.5 5.5t7.5 2.5q35 0 72 -0.5t75 -0.5q35 0 68.5 0.5t68.5 0.5q5 0 2.5 -5t-7.5 -5q-34 -1 -70 0t-70 1h-115q-7 0 -7 -3l-239 -521l-237 -512q0 -3 5 -3h115q34 0 71 1t71 0q5 0 2 -5t-8 -5q-35 0 -67.5 0.5t-67.5 0.5q-38 0 -76 -0.5t-71 -0.5
q-7 0 -3 8z" />
    <glyph glyph-name="backslash" unicode="\" horiz-adv-x="309" 
d="M136 263q-12 64 -27 136.5t-30.5 146t-31.5 143.5t-31 128q11 2 14.5 2t14.5 -5q10 -54 22.5 -122.5t26.5 -142t28.5 -147.5t26.5 -138q27 -131 56.5 -270.5t61.5 -273.5q-11 -4 -13.5 -3t-13.5 8q-23 131 -50.5 270t-53.5 268z" />
    <glyph glyph-name="bracketright" unicode="]" horiz-adv-x="400" 
d="M-23 -270q-4 -8 -11 -8q-35 0 -71 0.5t-74 0.5q-33 0 -67 -0.5t-69 -0.5q-5 0 -2 5t8 5q34 1 68.5 0t66.5 -1h115q9 0 9 3l235 512l241 521q0 3 -7 3h-115q-34 0 -70 -1t-70 0q-5 0 -2.5 5t7.5 5q35 0 68.5 -0.5t68.5 -0.5q38 0 75 0.5t72 0.5q8 0 2 -8l-243 -525z" />
    <glyph glyph-name="asciicircum" unicode="^" 
d="M436 357q-2 4 -6 0q-14 -16 -32 -34t-37 -34.5t-36 -30.5t-29 -23q-9 -6 -18.5 -12t-20.5 -5q-11 2 -16 7.5t-4 10.5q0 3 3 11t20 19q15 9 36 21t44.5 25.5t46.5 27.5t42 27q6 6 11 -1q16 -21 28 -35.5t21.5 -26.5t19 -22.5t21.5 -22.5q14 -13 17.5 -20.5t2.5 -12.5
q0 -9 -7 -15.5t-15 -5.5q-23 1 -37 27q-12 23 -24.5 55t-30.5 70z" />
    <glyph glyph-name="underscore" unicode="_" horiz-adv-x="678" 
d="M248 -20q31 0 70 0.5t77.5 1.5t72 2t51.5 2q5 -4 3 -12.5t-7 -11.5q-20 1 -53.5 2.5t-71.5 2.5t-76.5 1.5t-68.5 0.5t-68.5 -0.5t-76.5 -1.5t-71.5 -2.5t-53.5 -2.5q-5 3 -3 11.5t7 12.5q18 -1 51.5 -2t71.5 -2t77 -1.5t69 -0.5z" />
    <glyph glyph-name="grave" unicode="`" 
d="M487 529q-21 22 -47 43.5t-50 40t-42.5 32t-23.5 18.5t-9 9.5t-4 9.5q0 8 0.5 13.5t2.5 7.5t7.5 2.5t12.5 0.5q8 0 15 -1t11 -5q4 -5 17.5 -23.5t31.5 -43t40 -51t43 -46.5q3 -3 3 -5q0 -4 -4 -4q-2 0 -4 2z" />
    <glyph glyph-name="a" unicode="a" horiz-adv-x="579" 
d="M303 84q-2 23 8.5 49.5t26 52.5t33 51t30.5 46q-33 -35 -71 -73t-77 -75t-76.5 -71t-68.5 -61q-7 -5 -21.5 -4t-18.5 4q-18 14 -27 41t-9 61.5t7.5 73.5t22.5 75q24 60 67 107.5t91.5 81t95.5 51.5t80 18q18 0 33.5 -2.5t31 -10t32.5 -22t39 -38.5q11 9 32 29.5t38 38.5
q6 6 8 3q1 -2 1 -5q-16 -20 -39.5 -53t-48.5 -71.5t-50 -80.5t-44.5 -81t-31 -72t-10.5 -54q1 -13 11 -25t25 -17q9 4 23.5 12.5t31 20t33.5 25.5t32 30l6 -7q-28 -27 -69 -63.5t-89 -65.5q-4 -2 -12.5 -3t-17.5 -0.5t-17 1.5t-9 3q-16 18 -23.5 41.5t-8.5 38.5zM131 53
q18 5 59 38.5t91 82.5t102.5 105.5t94.5 106.5q-24 31 -43.5 50.5t-36 31t-31 16t-29.5 4.5q-26 0 -55.5 -17.5t-57 -47.5t-51 -70t-38.5 -86q-24 -74 -24.5 -132.5t19.5 -81.5z" />
    <glyph glyph-name="b" unicode="b" horiz-adv-x="615" 
d="M524 516q19 -3 35.5 -26.5t22.5 -47.5q6 -22 4 -47.5t-8 -51.5t-16 -51t-21 -44q-19 -35 -43.5 -64t-51.5 -54t-55 -45t-54 -36q-47 -26 -85 -40t-69 -14q-32 0 -60.5 21t-54.5 56l-39 -64q-8 0 -20.5 -1.5t-23 1t-15 11.5t3.5 30q13 20 37.5 63.5t55.5 98t64.5 115
t64 115t54.5 96.5t36 61q27 45 77 96.5t118.5 95.5t152 73t178.5 29q32 0 65 -1t51 -4q12 -2 11.5 -13t-7.5 -24t-18 -23t-20 -10q-48 0 -113.5 8.5t-138.5 8.5q-36 0 -67 -6.5t-63 -30.5t-68.5 -71.5t-84.5 -129.5q-41 -68 -96 -167t-124 -223q65 64 129.5 122t111.5 98
q16 14 36 29.5t40 29t38 22.5t30 9zM250 36q20 0 40 3.5t43 15.5q15 13 31.5 27t32.5 32.5t32.5 43.5t31.5 60q32 70 39 124t1 80q-5 23 -12.5 31t-18.5 13q-11 0 -33.5 -12t-51.5 -36q-35 -30 -75 -66t-78.5 -73t-72.5 -73t-56 -66q36 -59 72.5 -81.5t74.5 -22.5z" />
    <glyph glyph-name="c" unicode="c" horiz-adv-x="493" 
d="M154 -6q-35 0 -66 20.5t-43 55.5q-4 15 -8 36t-1.5 49t14 64t38.5 81q29 51 85.5 100t124.5 86q29 16 58.5 23.5t62.5 7.5q48 0 71 -18.5t23 -45.5q0 -13 -6 -23t-15 -17.5t-19 -12t-18 -5.5q-9 36 -34 63.5t-74 27.5q-14 0 -23.5 -1.5t-20.5 -4.5q-37 -26 -68.5 -60.5
t-56.5 -76.5q-32 -53 -48 -112.5t-11 -119.5q8 -29 25 -45t37 -21q24 -7 57 -1t61 19q10 4 24.5 13.5t30.5 22.5t32 27.5t28 29.5l9 -5q-31 -37 -66.5 -64.5t-75.5 -49.5q-26 -14 -58.5 -28.5t-68.5 -14.5z" />
    <glyph glyph-name="d" unicode="d" horiz-adv-x="594" 
d="M611 618q30 43 71.5 82t90 71.5t102.5 58.5t110 44q29 7 52 10.5t42.5 5t37.5 2t37 0.5q32 0 64.5 -1t50.5 -4q12 -2 10.5 -13t-10 -24t-20.5 -23t-21 -10q-48 0 -113 9t-138 9q-32 0 -58.5 -4t-51.5 -16.5t-51.5 -35.5t-57.5 -60.5t-69.5 -92t-87.5 -129.5
q-14 -22 -35 -55.5t-44.5 -73t-47 -81t-42.5 -78.5t-31 -66.5t-12 -44.5q0 -13 7.5 -31t25.5 -20q10 4 24.5 12.5t31.5 20t35 25.5t33 30l6 -7q-29 -27 -69.5 -61.5t-88.5 -63.5q-4 -2 -12 -3t-17 -0.5t-16.5 1.5t-8.5 3q-7 7 -13.5 19t-11 24t-6.5 23t-1 18q1 20 15 51
t32.5 65t39.5 68t38 60l8 10q-31 -38 -72.5 -83.5t-87 -91.5t-90.5 -88.5t-83 -75.5q-7 -5 -21.5 -4t-18.5 4q-18 14 -27 41t-9 61.5t7.5 73.5t22.5 75q24 60 67 107.5t91.5 81t95.5 51.5t80 18q32 0 56.5 -12.5t51.5 -41.5q16 25 33 50t31 46.5t25.5 38.5t17.5 25zM131 53
q18 5 57.5 39.5t88.5 84t100 106.5t93 107q-24 31 -42 50t-33 29.5t-28.5 14.5t-28.5 4q-26 0 -55.5 -17.5t-57 -47.5t-51 -70t-38.5 -86q-24 -74 -24.5 -132.5t19.5 -81.5z" />
    <glyph glyph-name="e" unicode="e" horiz-adv-x="486" 
d="M488 467q4 -24 -14 -53t-62.5 -65.5t-117.5 -83.5t-179 -108q-1 -24 0 -46q8 -29 23 -45t35 -21q24 -7 58 0t62 20q10 4 26 15t33.5 25t34.5 30t29 31l9 -5q-31 -37 -73 -69.5t-82 -54.5q-26 -14 -59.5 -28.5t-69.5 -14.5q-15 0 -30.5 6t-29 17t-24.5 25t-17 31
q-4 15 -7 35.5t1 48t16.5 63t39.5 80.5q14 25 35.5 51t46 49.5t51.5 43.5t52 34q29 16 61.5 26t62.5 10q34 0 59.5 -11.5t29.5 -35.5zM409 383q9 23 0.5 43.5t-26.5 35t-42.5 19.5t-46.5 -2q-22 -15 -50 -47t-54.5 -74.5t-47 -92t-26.5 -98.5q74 44 127 76.5t87.5 57
t53.5 44.5t25 38z" />
    <glyph glyph-name="f" unicode="f" horiz-adv-x="395" 
d="M-291 -85q-2 -14 -0.5 -33t4.5 -33q6 -27 24 -51t45 -24q18 0 34 5t35.5 25t46 60.5t66.5 112.5q18 33 47 88.5t62.5 121.5t69.5 135t68 129h-63q-6 2 -6.5 6t3.5 6l105 60q12 23 22.5 40.5t18.5 30.5q42 67 92.5 123t106 96t116 62t123.5 22q42 0 86 -6t71 -17
q7 -3 4 -12.5t-12 -19.5t-21 -18t-22 -8q-21 0 -43 6t-47.5 13.5t-55 13.5t-65.5 6q-33 0 -60.5 -9.5t-56.5 -37t-63.5 -78.5t-81.5 -133l-49 -89q24 0 49.5 0.5t47 1.5t36.5 1.5t18 -0.5q4 -1 -1.5 -11t-15.5 -21.5t-21 -21t-18 -9.5q-4 0 -40.5 0.5t-85.5 1.5
q-66 -125 -126 -241.5t-121 -225.5q-34 -62 -74 -105.5t-79.5 -71t-76 -40.5t-63.5 -13q-49 0 -75 22.5t-26 57.5q0 30 19.5 53.5t48.5 28.5z" />
    <glyph glyph-name="g" unicode="g" horiz-adv-x="571" 
d="M-53 -396q-28 0 -59 4.5t-58.5 13.5t-49.5 24.5t-32 38.5q-15 37 11.5 74t77 76t115.5 80t127 85q-7 0 -12.5 0.5t-7.5 2.5q-18 14 -27 41t-9.5 61.5t7.5 73t23 74.5q24 60 68 108t93.5 81.5t97 52t80.5 18.5q18 0 31.5 -3t27 -12t29 -25.5t38.5 -43.5q15 13 39.5 34.5
t46.5 41.5l7 -4q-24 -29 -46.5 -59t-41.5 -59q-58 -92 -94.5 -168.5t-58 -139.5t-32.5 -113.5t-18.5 -91t-15.5 -72.5t-23 -57q-20 -33 -56.5 -59t-82.5 -43.5t-96.5 -26.5t-98.5 -8zM99 5q-60 -43 -115 -83t-93.5 -78.5t-55 -76t-1.5 -74.5q18 -43 63.5 -61t99.5 -18
t106 28.5t91 84.5q16 25 26 57t18.5 72t19 87t28 101.5t45 116t70.5 130.5l-75.5 -75.5t-81.5 -79.5t-79 -73t-66 -58zM124 51q21 14 62.5 49t91 81.5t100 99t88.5 102.5q-25 31 -43 51.5t-32 32.5t-27 17t-28 5q-26 0 -56.5 -17.5t-60 -48t-54 -71t-38.5 -86.5
q-23 -75 -24.5 -132t21.5 -83z" />
    <glyph glyph-name="h" unicode="h" horiz-adv-x="600" 
d="M516 513q23 -5 34 -22t6.5 -48t-25 -78t-59.5 -113q-14 -24 -27.5 -47t-24.5 -44t-17.5 -39t-5.5 -32q1 -13 7.5 -24t21.5 -16q12 4 27.5 12.5t32.5 20t33.5 25t30.5 27.5l6 -7q-28 -27 -69 -61.5t-89 -63.5q-8 -5 -24.5 -3.5t-20.5 4.5q-9 7 -16 17.5t-12 21.5
t-7.5 21.5t-2.5 18.5q-1 15 8 37.5t23 47.5t30 50.5t29 48.5q31 54 47.5 89t21.5 57.5t1 35t-13 20.5q-23 -5 -63.5 -31.5t-88.5 -68t-98 -96.5t-92 -117q-26 -38 -48 -80t-38 -68q-8 0 -21 -1.5t-23.5 1t-15 11.5t3.5 30q13 20 37.5 63.5t55.5 98t64.5 115t64 115
t54.5 96.5t36 61q27 45 77 96.5t118.5 95.5t152 73t178.5 29q32 0 65 -1t51 -4q12 -2 11.5 -13t-7.5 -24t-18 -23t-20 -10q-48 0 -113.5 8.5t-138.5 8.5q-36 0 -67 -6.5t-63 -30.5t-68.5 -71.5t-84.5 -129.5q-42 -69 -96.5 -168.5t-117.5 -213.5q45 55 98.5 107t105 93.5
t95.5 68t68 30.5z" />
    <glyph glyph-name="i" unicode="i" horiz-adv-x="309" 
d="M292 430q0 -15 -12 -37.5t-29 -47.5t-35.5 -51t-31.5 -47q-15 -24 -29.5 -47t-26.5 -44t-19 -39t-6 -32q1 -13 14.5 -22.5t28.5 -14.5q12 4 27 13t31 20.5t32 25.5t30 28l6 -7q-28 -27 -67.5 -61.5t-87.5 -63.5q-4 -2 -12 -3t-17 -0.5t-16.5 1.5t-9.5 3
q-19 14 -29.5 36.5t-11.5 37.5t8 37.5t22.5 47.5t30 51t30.5 49q20 33 36 57t28 43t20 33.5t11 26.5q4 14 -7.5 28t-22.5 16q-9 -3 -24.5 -12t-33 -21t-35 -25.5t-31.5 -25.5l-7 5q13 13 33.5 30t43.5 34t46 33t42 28q17 10 33 3q9 -4 17.5 -14.5t15 -23.5t11 -26t4.5 -22z
M296 592q36 37 71 75t66.5 74t58 68.5t45.5 59.5q5 6 11.5 6.5t11 -3t5.5 -9t-5 -11.5q-45 -51 -114 -120.5t-144 -145.5z" />
    <glyph glyph-name="j" unicode="j" horiz-adv-x="303" 
d="M190 470q-12 -3 -29.5 -13t-36.5 -22.5t-36.5 -27t-30.5 -27.5l-7 6q13 14 35 32t46 36t48.5 34.5t43.5 28.5q9 5 19.5 4.5t17.5 -3.5q9 -4 14.5 -15.5t8 -26.5t3 -31.5t-1.5 -31.5q0 -10 -12 -34.5t-32.5 -61t-48 -84.5t-60.5 -106q-42 -74 -78.5 -123.5t-71 -83
t-68.5 -56t-70 -41.5q-66 -35 -128.5 -48t-117.5 -13q-54 0 -79 4t-33 13q-3 8 0.5 18t10 20t15 18t15.5 13q10 3 32.5 -0.5t52.5 -9.5t64 -12t66.5 -8.5t60.5 1t46 16.5q27 20 53 51t53 71.5t56 90t62 106.5q20 35 43.5 75t44 77.5t34.5 67.5t16 45q2 19 -4.5 33.5
t-15.5 17.5zM297 592q36 37 71 75t66.5 74t58 68.5t45.5 59.5q5 6 11.5 6.5t11 -3t5.5 -9t-5 -11.5q-45 -51 -114 -120.5t-144 -145.5z" />
    <glyph glyph-name="k" unicode="k" horiz-adv-x="606" 
d="M33 8q-8 0 -21 -1.5t-23.5 1t-15 11.5t3.5 30q13 20 37.5 63.5t55.5 98t64.5 115t64 115t54.5 96.5t36 61q27 45 77 96.5t118.5 95.5t152 73t178.5 29q32 0 65 -1t51 -4q12 -2 11.5 -13t-7.5 -24t-18 -23t-20 -10q-48 0 -113.5 8.5t-138.5 8.5q-36 0 -67 -6.5t-63 -30.5
t-68.5 -71.5t-84.5 -129.5q-31 -52 -76 -133.5t-96 -172.5q48 52 95 95t88 74t74.5 47.5t54.5 16.5q15 -3 30.5 -16t27.5 -30.5t17.5 -36.5t1.5 -35q-3 -14 -10.5 -28t-18 -27.5t-23.5 -25t-26 -18.5q-18 -11 -39.5 -19t-50.5 -14t-67 -12t-89 -13q21 -3 43 -14t36 -31
q8 -11 14 -29t11 -38t10.5 -40t13.5 -34q4 -7 14 -13.5t24 -6.5q12 4 28.5 14t34.5 23.5t35.5 29t31.5 29.5l6 -7q-28 -27 -68 -62t-88 -64q-3 -2 -15 -3t-26 0.5t-27 5.5t-18 12q-12 18 -19 42t-12.5 48.5t-11.5 47t-17 37.5q-17 22 -38 32t-58 7q-33 -60 -65 -117.5
t-61 -108.5zM500 408q1 9 -2.5 22t-11 25t-17.5 21t-21 10q-23 -5 -59 -28.5t-75.5 -57.5t-78.5 -73t-67 -76l-5 -10q105 14 170.5 34t102 42.5t50 46t14.5 44.5z" />
    <glyph glyph-name="l" unicode="l" horiz-adv-x="303" 
d="M294 603q27 45 76.5 96t116 93.5t149.5 71t178 28.5q32 0 65 -1t51 -4q12 -2 11.5 -13t-7.5 -24t-18 -23t-20 -10q-48 0 -113.5 8.5t-138.5 8.5q-36 0 -67 -6.5t-63 -30.5t-68 -71.5t-84 -129.5q-53 -87 -102 -174t-97 -174q-27 -50 -45.5 -90t-16.5 -68q1 -13 9.5 -24
t23.5 -16q12 4 27 12.5t31.5 20t32.5 25t30 27.5l6 -7q-28 -27 -67.5 -61.5t-87.5 -63.5q-4 -2 -11.5 -3t-15 -0.5t-14 1.5t-8.5 3q-9 7 -15.5 17.5t-10.5 22t-6 22t-2 18.5q-1 15 5 36t16 44t23 48t26 48q28 51 58.5 104.5t58.5 101t50.5 84t33.5 53.5z" />
    <glyph glyph-name="m" unicode="m" horiz-adv-x="913" 
d="M454 156q-12 -19 -25 -40.5t-25 -41.5t-22.5 -38.5t-17.5 -31.5q-12 0 -25.5 -1t-23.5 2t-14 12t2 29q18 33 48 80t59 99t50.5 104.5t23.5 96.5q1 14 -2 22.5t-7 13.5q-22 -7 -59 -32t-81.5 -65.5t-91.5 -93.5t-90 -115q-13 -19 -26 -40.5t-25.5 -41.5t-23.5 -38.5
t-19 -31.5q-8 0 -21 -1.5t-24.5 1t-17 11.5t2.5 30q15 20 34.5 49.5t40.5 63.5t41.5 70.5t36 70.5t24.5 63.5t8 50.5q-1 13 -8.5 25t-23.5 17q-21 -5 -54.5 -27t-62.5 -54l-7 7q14 13 32.5 29.5t39.5 33.5t44 33t46 29q18 10 31 1.5t22 -25t14 -36.5t6 -32q1 -20 -6.5 -45
t-20.5 -53t-28.5 -55.5t-29.5 -51.5q43 55 93.5 106.5t99 93t90.5 69t68 35.5q21 -5 29.5 -29.5t4.5 -63.5t-21 -88t-48 -101q42 52 92 99.5t98 86t89.5 64t65.5 32.5q23 -5 33 -21.5t5 -47.5t-26 -78.5t-60 -113.5q-14 -24 -27.5 -47t-24 -44t-17 -39t-5.5 -32
q1 -13 7.5 -24t21.5 -16q12 4 27 12.5t31.5 20t32.5 25t30 27.5l6 -7q-28 -27 -67.5 -61.5t-87.5 -63.5q-8 -5 -24.5 -3.5t-20.5 4.5q-9 7 -16 17.5t-12 21.5t-7.5 21.5t-2.5 18.5q-1 15 8 37.5t22.5 47.5t29.5 50.5t29 48.5q31 54 47.5 87.5t22 54.5t2 32.5t-11.5 19.5
q-23 -7 -62.5 -32.5t-86 -65.5t-94.5 -92.5t-87 -114.5z" />
    <glyph glyph-name="n" unicode="n" horiz-adv-x="620" 
d="M59 4q-8 0 -21 -1.5t-24.5 1t-17 11.5t2.5 30q15 20 34.5 49.5t40.5 63.5t41.5 70.5t36 70.5t24.5 63.5t8 50.5q-1 13 -8.5 25t-23.5 17q-21 -5 -54.5 -27t-62.5 -54l-7 7q14 13 32.5 29.5t39.5 33.5t44 33t46 29q18 10 31 1.5t22 -25t14 -36.5t6 -32q1 -20 -6.5 -45
t-20.5 -53t-28.5 -56t-29.5 -52q43 55 94.5 106.5t101.5 93t93 69.5t69 36q23 -5 34 -22t6.5 -48t-25 -78t-59.5 -113q-14 -24 -27.5 -47t-24.5 -44t-17.5 -39t-5.5 -32q1 -13 7.5 -24t21.5 -16q12 4 27 12.5t31.5 20t32.5 25t30 27.5l6 -7q-28 -27 -67.5 -61.5t-87.5 -63.5
q-8 -5 -24.5 -3.5t-20.5 4.5q-9 7 -16 17.5t-12 21.5t-7.5 21.5t-2.5 18.5q-1 15 8 37.5t23 47.5t30 50.5t29 48.5q31 54 47.5 88t21.5 55t1 32.5t-13 19.5q-22 -7 -60 -32t-83.5 -65.5t-94 -93.5t-91.5 -115q-13 -19 -26 -40.5t-25.5 -41.5t-23.5 -38.5t-19 -31.5z" />
    <glyph glyph-name="o" unicode="o" horiz-adv-x="532" 
d="M441 200q-15 -26 -35.5 -50t-44.5 -45t-50.5 -39t-52.5 -32t-52.5 -27t-55.5 -13q-18 0 -35.5 6t-32.5 17t-26.5 25t-17.5 31q-4 15 -7 35.5t1 48t16.5 63t39.5 80.5q14 25 35.5 51.5t46.5 50.5t52 44.5t52 34.5q29 16 59.5 26t58.5 10h1q34 0 63 -23.5t40 -56.5
q4 -13 5.5 -35.5t-3.5 -53t-18.5 -68t-38.5 -80.5zM171 45q24 -7 54 -2t60 17q14 7 30 26.5t31.5 47.5t30 61.5t25 67.5t16 67t4.5 60q-6 70 -53 86q-8 2 -28.5 7.5t-50.5 -2.5q-25 -15 -57.5 -54.5t-60.5 -91t-46 -110.5t-13 -114q8 -29 23 -45t35 -21z" />
    <glyph glyph-name="p" unicode="p" horiz-adv-x="606" 
d="M525 516q19 -3 35.5 -26.5t22.5 -47.5q6 -22 4 -47.5t-8 -51.5t-16 -51t-21 -44q-19 -35 -44 -64.5t-52 -54.5t-55 -45.5t-54 -36.5q-47 -26 -79.5 -39t-65.5 -13q-28 0 -53 22.5t-43 54.5q-2 -2 -10.5 -17t-21 -37.5t-29 -51t-32.5 -57.5q-39 -69 -87 -154
q3 -5 18.5 -8.5t34 -6t37 -4t27.5 -1.5q8 0 7.5 -4.5t-11.5 -4.5q-8 0 -27 1t-40.5 1.5t-42 1.5t-32.5 1t-40.5 -1.5t-59.5 -3t-57 -2.5t-32 -1q-7 0 -6.5 3.5t6.5 4.5q36 3 61.5 8t47 17t42 34.5t46 61.5t60 98.5t83.5 145.5q36 64 64.5 114t47.5 88t28 66.5t8 48.5
q-1 13 -10.5 24.5t-25.5 16.5q-21 -5 -54 -28t-62 -55l-7 7q14 13 32 30t39 34.5t44 34t46 29.5q18 10 31.5 1.5t23.5 -25t15 -36.5t6 -32q1 -21 -9 -50t-26.5 -60t-36.5 -63t-37 -59q48 55 103 114t106.5 107t94 79.5t66.5 33.5zM261 36q19 0 34.5 3.5t38.5 15.5
q15 13 31.5 27t32.5 32.5t32.5 43.5t31.5 60q32 70 39 124t1 80q-5 23 -12.5 31t-18.5 13q-9 -1 -31 -16.5t-52 -41.5t-64.5 -59.5t-69 -70t-66 -73.5t-54.5 -70q33 -54 61 -76.5t66 -22.5z" />
    <glyph glyph-name="q" unicode="q" horiz-adv-x="572" 
d="M130 -243q-8 0 -16.5 2.5t-8.5 13.5q-1 11 3.5 22.5t18.5 34.5q28 47 59.5 98t63.5 103.5t64.5 104.5t63.5 101q8 14 18 29t26 36q-39 -39 -84.5 -82t-91.5 -83.5t-88 -75.5t-73 -58q-7 -5 -21.5 -4t-18.5 4q-18 14 -27 39.5t-9 58.5t7.5 70t22.5 73q25 62 70 111.5
t97 84.5t105 53.5t93 18.5q18 0 33 -2.5t30 -10.5t31.5 -23t38.5 -39q5 4 14 13t19.5 20t22 22t20.5 20q6 6 8 3q1 -2 1 -5q-14 -20 -32 -48.5t-38.5 -62t-42.5 -69.5t-43 -71q-30 -49 -58.5 -96.5t-59.5 -99t-65.5 -110t-74.5 -130.5q1 -11 7.5 -19t21.5 -13t40 -7t64 -2
q9 0 9.5 -4.5t-10.5 -4.5q-36 0 -73 -2.5t-67 -5.5t-49.5 -5.5t-20.5 -2.5zM108 53q5 -3 27.5 11t55 40t71.5 60.5t79 72.5t77 76t65 71q-24 31 -43 51t-35 32t-30 16.5t-29 4.5q-29 0 -62 -17.5t-65 -48t-59.5 -73t-45.5 -92.5q-26 -75 -26 -128t20 -76z" />
    <glyph glyph-name="r" unicode="r" horiz-adv-x="480" 
d="M59 4q-8 0 -21 -1.5t-24.5 1t-17 11.5t2.5 30q15 20 34.5 49.5t40.5 63.5t41.5 70.5t36 70.5t24.5 63.5t8 50.5q-1 13 -8.5 25t-23.5 17q-21 -5 -54.5 -27t-62.5 -54l-7 7q14 13 32.5 29.5t39.5 33.5t44 33t46 29q18 10 31 1.5t22 -25t14 -36.5t6 -32q2 -20 -6 -45
t-21 -53q30 39 57.5 72t54 58.5t51.5 41.5t50 21q13 1 30.5 1t33.5 -0.5t27.5 -2t12.5 -4.5q-1 -8 -8.5 -20t-17 -23.5t-20 -20.5t-17.5 -10q-21 1 -48.5 7t-65.5 5q-33 -10 -64.5 -44t-68 -90t-81 -132.5t-103.5 -170.5z" />
    <glyph glyph-name="s" unicode="s" horiz-adv-x="397" 
d="M381 401q-61 122 -149 99q-19 -11 -26.5 -27.5t-4.5 -42t16.5 -60.5t36.5 -84q39 -85 36 -151.5t-62 -103.5q-32 -20 -64 -29.5t-72 -9.5q-32 -1 -62 11.5t-45 37.5q-8 13 -8.5 31.5t6.5 35.5t21.5 31t36.5 20l4 -3q-2 -31 9.5 -58.5t33.5 -46.5q53 -47 116 -22
q22 10 28 29.5t0.5 48t-21 66.5t-34.5 86q-42 101 -34.5 157.5t62.5 81.5q25 11 53.5 19.5t60.5 7.5q35 0 62 -8.5t38 -32.5q10 -22 -2 -45.5t-32 -37.5h-4z" />
    <glyph glyph-name="t" unicode="t" horiz-adv-x="376" 
d="M299 153q-17 -15 -42.5 -36t-53 -42.5t-55 -41t-48.5 -31.5q-8 -5 -24 -3.5t-20 4.5q-9 7 -15.5 18t-10.5 23t-6 23t-2 19q-2 31 15 72t43 86q33 57 65 109t62 100h-11q-20 0 -37 -0.5t-21 0.5q-3 1 -4 3.5t5 5.5q54 29 116 68t116 81q5 4 8 2.5t0 -6.5
q-13 -21 -29 -45.5t-36 -56.5q64 0 101.5 3t43.5 1q4 -1 -1.5 -10.5t-15.5 -20t-21.5 -19.5t-18.5 -9q-4 0 -35 0.5t-86 1.5q-38 -60 -71 -114t-63 -111q-27 -49 -37.5 -77.5t-8.5 -56.5q1 -14 7.5 -28t21.5 -19q10 3 30.5 15.5t44 29t47 34.5t40.5 33z" />
    <glyph glyph-name="u" unicode="u" horiz-adv-x="607" 
d="M266 414q0 -10 -7 -28.5t-18.5 -41t-25 -47t-26.5 -47.5q-31 -56 -54.5 -95t-32.5 -65q-2 -18 12 -28t28 -14q19 0 53.5 25t77.5 67t90.5 98t91.5 118q13 19 25.5 39.5t23 40t19 35.5t15.5 27q12 3 27.5 6.5t27.5 2t17.5 -10.5t-2.5 -30q-14 -19 -33.5 -49.5t-41.5 -66
t-43.5 -73.5t-39.5 -73.5t-29.5 -65.5t-12.5 -48q-1 -13 12 -24t28 -16q12 4 27 12.5t31.5 20t32.5 25t30 27.5l6 -7q-28 -27 -67.5 -61.5t-87.5 -63.5q-4 -2 -12.5 -3t-17.5 -0.5t-16.5 1.5t-9.5 3q-9 7 -16 17.5t-11.5 21.5t-7 21.5t-3.5 18.5q-2 15 8 41t25.5 56t34 62
t34.5 59q-43 -55 -90.5 -107.5t-92.5 -94.5t-84 -69.5t-64 -32.5q-8 1 -19.5 5t-23.5 12t-22.5 20t-14.5 29q-2 12 7 32t24 45.5t34 56.5t38 66q26 48 46 87.5t18 67.5q-1 12 -9 22t-24 15q-21 -5 -54.5 -27t-62.5 -54l-7 7q14 13 32.5 29.5t39.5 33.5t44 33t46 29
q18 10 32 1.5t23.5 -25t15 -36.5t6.5 -32z" />
    <glyph glyph-name="v" unicode="v" horiz-adv-x="572" 
d="M211 46q19 16 45.5 39t55.5 49t58 53.5t55 53.5q48 48 66.5 87t18.5 72q0 21 -10 41t-28 25q-19 -5 -50 -24t-60 -43l-4 4q15 15 34.5 30t41 29.5t42.5 27t39 21.5q10 5 21.5 0t21.5 -17t16 -28t5 -32q-1 -21 -16 -46.5t-36.5 -52.5t-47 -53t-47.5 -47
q-54 -52 -120 -111.5t-141 -121.5q-5 -5 -11 -6t-11 -1q-4 0 -12 2.5t-16 7t-14 12t-6 16.5q7 34 16.5 81.5t18 96t14.5 91.5t6 67q-1 48 -15 68.5t-28 21.5q-8 -2 -19.5 -8t-25.5 -15t-28.5 -19.5t-26.5 -21.5l-5 4q13 13 30.5 27.5t36.5 29t38.5 27.5t37.5 23
q35 19 57.5 -12t25.5 -101q1 -18 -4 -55t-12.5 -82.5t-16.5 -93.5t-18 -89q1 -6 7 -16.5t20 -10.5h1z" />
    <glyph glyph-name="w" unicode="w" horiz-adv-x="860" 
d="M431 35q2 25 5.5 55.5t7.5 62t7.5 61t5.5 53.5q-10 -12 -19.5 -23t-21.5 -22q-13 -12 -32 -32t-41 -42.5t-45.5 -46t-44.5 -43.5t-37.5 -34t-25.5 -18q-6 -3 -14 -4t-24 -1q-22 0 -28.5 6.5t-2.5 27.5q4 41 10 91.5t11.5 96.5t9 80.5t2.5 45.5q0 56 -15 82.5t-31 31.5
q-8 -2 -19.5 -8.5t-25 -15.5t-28 -19.5t-26.5 -21.5l-5 5q13 13 30.5 27.5t36.5 28.5t38.5 27t37.5 23q37 20 59.5 -17t23.5 -118q0 -27 -4.5 -69t-10.5 -89.5t-13 -96.5t-12 -89q30 18 63.5 47t64 59t55 57t37.5 42q17 19 27.5 34.5t15.5 31t6.5 34t0.5 45.5
q-1 38 -14 58.5t-29 25.5q-8 -2 -19.5 -8.5t-25 -15.5t-27.5 -19.5t-26 -21.5l-7 4q13 13 30.5 27.5t36.5 28.5t39 27t38 23t33.5 4.5t26.5 -24t17 -48t7 -67.5q0 -14 -4.5 -54t-10.5 -91t-13 -105t-12 -96q30 17 62 44t61 56t52 56.5t35 45.5q38 53 56.5 93t15.5 82
q-5 23 -18 41.5t-30 23.5q-23 -7 -45 -22.5t-57 -44.5l-5 6q15 15 33 30.5t37.5 29.5t38 25t34.5 17q27 10 50.5 -5.5t36.5 -57.5q7 -27 -4.5 -58.5t-33.5 -63.5t-50.5 -63t-54.5 -56l-30.5 -30.5t-39.5 -40t-43 -43t-41.5 -40t-35 -31.5t-23.5 -16q-5 -2 -12 -3.5t-25 -1.5
q-24 0 -30.5 6.5t-2.5 27.5z" />
    <glyph glyph-name="x" unicode="x" horiz-adv-x="513" 
d="M262 442q5 -24 10.5 -68t11.5 -95l38 37q74 72 125 121.5t84 82.5q15 8 25.5 1t2.5 -21q-22 -16 -49 -37.5t-57 -46t-61.5 -51.5t-61.5 -54l-45 -41q7 -55 13.5 -104.5t14.5 -75.5q4 -13 15.5 -25.5t26.5 -17.5q24 9 56.5 33.5t61.5 53.5l7 -6q-29 -27 -68 -61.5
t-87 -63.5q-4 -2 -12.5 -3t-17.5 -0.5t-16.5 1.5t-9.5 3q-9 7 -15.5 17.5t-11 21.5t-7.5 21.5t-4 18.5q-5 22 -10.5 59t-10.5 79q-12 -11 -28 -25.5t-31.5 -29t-28.5 -27t-20 -18.5q-74 -72 -129 -126.5t-88 -87.5q-14 0 -23 4q-8 3 -11.5 9.5t4.5 19.5q22 16 50.5 37.5
t60.5 46.5t65 51.5t64 53.5l114 101l-8 62t-7.5 58t-7 48t-6.5 32t-11.5 25.5t-18.5 16.5q-9 -3 -24.5 -12t-33 -21t-35 -26t-31.5 -26l-6 5q13 13 33 30t42.5 34t45.5 33t42 28q9 5 18 4.5t16 -3.5q17 -8 28.5 -29t16.5 -47z" />
    <glyph glyph-name="y" unicode="y" horiz-adv-x="575" 
d="M263 365q0 -31 -2.5 -74.5t-8 -88.5t-14 -87.5t-19.5 -70.5l105 109q85 88 135 148t53 96q-1 26 -14 41t-27 20q-36 -11 -97 -65l-6 6q11 11 32 28t45 34.5t47.5 32t39.5 19.5q7 1 16.5 -4t17 -15t11.5 -23t0 -27q-13 -28 -37.5 -61.5t-57 -71.5t-71.5 -79.5t-80 -84.5
q-61 -62 -124 -128t-146 -141q-33 -30 -74 -59.5t-87.5 -53t-98.5 -37.5t-108 -14q-13 0 -23.5 4t-15.5 13q-3 5 0 13t9 17t13.5 17t15.5 14h111q43 0 78.5 5.5t65.5 16.5t56 28.5t52 40.5t39 35.5t26 26.5q20 37 32.5 92t20 113.5t10.5 113t3 89.5q0 29 -3.5 55.5
t-16.5 42.5q-10 11 -29 10q-5 -2 -16 -8.5t-24.5 -15.5t-28 -20t-26.5 -22l-6 6q13 12 30.5 26.5t36.5 28.5t38.5 27t37.5 23q5 3 11 4.5t11 1.5q8 0 16.5 -3.5t14.5 -10.5q31 -34 31 -133z" />
    <glyph glyph-name="z" unicode="z" horiz-adv-x="524" 
d="M479 428q2 5 -3 5q-37 -19 -70 -30t-54 -11q-24 0 -46.5 11.5t-43 25.5t-39 25t-34.5 10q-9 -3 -20.5 -12.5t-25 -22t-27 -26.5t-26.5 -26l-8 5q12 13 30 31.5t37.5 37.5t39.5 36.5t38 29.5q4 3 12.5 4t18 1t17.5 -1t12 -2q9 -4 23.5 -16.5t34 -25.5t44.5 -23t54 -10
q19 0 34 2t29 8t28.5 17.5t32.5 30.5q5 5 10.5 3t9 -6.5t3.5 -10t-6 -7.5q-16 -9 -51.5 -33t-82.5 -57.5t-102.5 -74t-112 -82t-110 -81.5t-97.5 -72q-2 -5 2 -5q42 25 79 43.5t59 18.5q19 0 44.5 -12t51 -27t47.5 -27t35 -12q26 7 55.5 33t60.5 53l6 -6q-13 -13 -34 -32.5
t-43.5 -40t-43 -37.5t-31.5 -26q-4 -3 -12.5 -3.5t-18 -0.5t-17.5 1t-10 3q-9 4 -29.5 16t-45.5 25t-52 23t-49 10q-16 0 -30.5 -3.5t-30 -11.5t-32.5 -22t-38 -36q-8 -8 -15.5 -9t-12 2.5t-3 11t11.5 15.5q120 87 226 164q45 33 92 67.5t90 66.5t79 59t60 46z" />
    <glyph glyph-name="braceleft" unicode="{" horiz-adv-x="445" 
d="M284 391q-12 -24 -29.5 -44t-37.5 -35.5t-42 -27t-43 -18.5q10 -5 21.5 -19.5t19 -34t8.5 -42t-9 -44.5q-14 -32 -34 -64t-41.5 -65.5t-43.5 -69t-40 -72.5q-14 -32 -18.5 -57t6 -43t38.5 -27.5t80 -9.5q11 0 10.5 -9.5t-12.5 -9.5q-48 0 -78.5 15t-45.5 40t-14.5 56
t15.5 63q19 40 42 76.5t46 70.5t43 65t34 61q12 24 11.5 45t-9 36.5t-24 24t-33.5 8.5q-6 0 -4 8q2 7 9 7q47 0 86 27t62 76q14 30 22.5 63.5t16.5 70t19 75t30 79.5q15 32 41 56t61 40t77.5 24t89.5 8q10 0 10 -8.5t-11 -8.5q-98 0 -155 -18t-82 -72q-17 -38 -28 -77
t-20.5 -77t-19.5 -74.5t-24 -67.5z" />
    <glyph glyph-name="bar" unicode="|" horiz-adv-x="267" 
d="M139 262q-25 -54 -52 -113.5t-54.5 -119.5t-54 -119.5t-51.5 -114.5q-12 -4 -17 -4t-13 6q29 56 59 116t59.5 120t57.5 119.5t54 113.5l218 481q11 4 16.5 1.5t13.5 -8.5q-26 -48 -57 -108.5t-62.5 -124.5t-61.5 -127.5t-55 -117.5z" />
    <glyph glyph-name="braceright" unicode="}" horiz-adv-x="445" 
d="M120 105q11 24 28.5 43.5t38 35t43 27t43.5 18.5q-10 5 -21.5 19.5t-19.5 34t-9 42.5t10 45q14 31 34 63t41.5 65.5t43.5 68t40 72.5q13 31 17.5 56.5t-6 43.5t-38.5 27.5t-80 9.5q-11 0 -10.5 9.5t12.5 9.5q48 0 78 -15t44.5 -40t13.5 -56t-16 -63q-19 -41 -41.5 -77
t-44.5 -69t-42 -64t-33 -61q-12 -24 -11.5 -45t9 -36.5t24 -24t33.5 -8.5q6 0 4 -8q-2 -7 -9 -7q-47 0 -86 -27t-62 -76q-14 -30 -22.5 -64t-17 -70.5t-19.5 -76t-30 -79.5q-15 -32 -41 -56t-61 -40t-77.5 -24t-89.5 -8q-10 0 -10 8.5t11 8.5q49 0 87.5 4t67.5 14t49 27.5
t32 44.5q17 37 28 76.5t21 78.5t20 75t24 68z" />
    <glyph glyph-name="asciitilde" unicode="~" 
d="M218 229q22 28 37.5 47.5t27.5 31.5t21.5 17.5t19.5 5.5q18 0 40 -10t45 -22t44 -22t36 -10q7 0 12.5 1t12 7t15.5 18t25 34q5 6 9 4t-1 -9q-36 -53 -62.5 -81.5t-52.5 -28.5q-17 0 -38.5 11t-44 23.5t-43.5 23.5t-37 11q-5 0 -8.5 -1.5t-9.5 -7.5t-15 -17.5t-25 -30.5
q-7 -8 -9.5 -5.5t1.5 10.5z" />
    <glyph glyph-name="nonbreakingspace" unicode="&#xa0;" horiz-adv-x="290" 
 />
    <glyph glyph-name="exclamdown" unicode="&#xa1;" horiz-adv-x="305" 
d="M280 499q4 -6 3 -19t-5.5 -26.5t-11.5 -25.5t-15 -16q-5 -3 -17.5 -5t-24.5 -2t-24 3t-14 7q-2 12 0.5 25t7 25t11 21.5t12.5 14.5q9 6 37 6q14 0 25 -1.5t16 -6.5zM-113 -351q-4 -8 -17.5 -9.5t-27.5 0.5t-24.5 7.5t-7.5 11.5q12 27 27.5 58t33 62t34 60t29.5 52
q26 45 52.5 89t55 94.5t60.5 111.5t70 140l9 -2q-38 -79 -66.5 -142t-51 -116t-41.5 -99.5t-37 -92.5q-22 -56 -47 -116.5t-51 -108.5z" />
    <glyph glyph-name="cent" unicode="&#xa2;" horiz-adv-x="529" 
d="M70 -222q-8 -4 -15 -3t-11 8q25 48 52 102.5t56 111.5q-37 6 -68 29t-40 58q-6 24 -7 52t5 58t19 61t35 61q29 51 78.5 92.5t117.5 76.5q24 13 54 20.5t59 10.5q29 60 55.5 115.5t48.5 103.5q11 4 16 1t6 -8q-26 -48 -54 -101t-57 -110h13q52 0 77.5 -18.5t25.5 -45.5
q0 -13 -6 -23t-15 -17.5t-19 -12t-18 -5.5q-7 26 -26 49t-51 35q-24 -49 -48 -97.5t-46 -94.5q-26 -53 -55 -114t-59 -125q3 -2 6 -2t6 -1q12 -3 30 -3t37.5 2.5t38.5 7.5t33 11q10 4 24.5 13.5t30.5 22.5t32 27.5t28 29.5l8 -5q-31 -37 -66 -64.5t-75 -49.5
q-13 -7 -31 -14.5t-38 -14t-40.5 -10.5t-38.5 -4q-2 0 -5 0.5t-5 0.5q-27 -59 -52 -114t-46 -103zM347 488q-14 0 -26.5 -2.5t-23.5 -5.5q-18 -13 -33 -25.5t-28.5 -27t-25.5 -31t-24 -37.5q-40 -69 -60 -126.5t-5 -112.5q7 -27 23.5 -43t35.5 -24l115 237q22 46 46 94.5
t48 98.5q-22 5 -42 5z" />
    <glyph glyph-name="sterling" unicode="&#xa3;" horiz-adv-x="699" 
d="M264 244q62 0 118 2t93 4q5 -4 5 -12.5t-5 -11.5q-41 3 -95 5t-115 2h-34.5t-34.5 -1q-44 -90 -87 -164.5t-81 -123.5q38 -5 86 -12.5t99 -14t101.5 -11.5t92.5 -5q28 0 53 15t38 29q26 23 49.5 55t44.5 67l27 44q4 5 9.5 4.5t1.5 -5.5l-27 -45q-38 -66 -69.5 -113
t-45.5 -70q-5 -7 -14 -16t-20 -17.5t-24.5 -14t-27.5 -5.5q-41 0 -94 13t-106.5 30t-102 35t-78.5 27q-37 -46 -67 -61q-20 -10 -30.5 -12.5t-24.5 -2.5t-25.5 9t-11.5 29q0 26 27 41t62 15q10 0 27.5 -2t39.5 -5q10 19 23 49t27.5 67.5t30 81t32.5 88.5q-26 -1 -50 -2
t-42 -3q-5 3 -5 9.5t5 10.5q17 -2 43 -2h54q16 42 32.5 84.5t33.5 80.5q28 66 62.5 114t70 82t69.5 56t60 36q31 17 56.5 24.5t51.5 7.5q42 0 70 -17.5t28 -49.5q0 -25 -13.5 -38.5t-34.5 -13.5q-23 0 -34.5 13.5t-11.5 36.5t-10.5 35.5t-42.5 12.5q-14 0 -29.5 -5
t-26.5 -12q-20 -13 -39.5 -32t-41.5 -49.5t-47 -76.5t-55 -113q-20 -46 -41 -90t-41 -86h62v0z" />
    <glyph glyph-name="yen" unicode="&#xa5;" horiz-adv-x="615" 
d="M344 331q48 1 89 3.5t72 5.5q5 -5 1 -12t-7 -12q-34 5 -75 6t-89 1l-30 -64q-11 -22 -19 -40.5t-16 -35.5q51 0 94 2.5t75 7.5q5 -4 3 -11.5t-6 -12.5q-35 3 -77.5 4t-92.5 2q-27 -61 -40.5 -94.5t-15 -49.5t7 -19t24.5 -3h18q6 0 4 -4.5t-8 -4.5q-11 0 -26 0.5l-30 1
t-27.5 1t-18.5 0.5q-5 0 -19.5 -0.5t-31.5 -1l-34 -1t-27 -0.5q-6 0 -4 4.5t8 4.5h18q16 0 27.5 3t25 19t32 49.5t47.5 94.5q-47 -1 -83 -2.5t-74 -4.5q-5 2 -2.5 9t5.5 13q40 -5 76.5 -6t81.5 -1l35 76l30 64q-48 -1 -86 -2.5t-77 -6.5q-5 4 -2.5 10.5t6.5 11.5
q41 -3 78 -4t83 -1l-19 178q-5 52 -10 85.5t-12.5 53.5t-19.5 28t-31 8h-8q-8 0 -6 4q3 5 8 5q11 0 25.5 -0.5t28.5 -1t26 -1t18 -0.5t22.5 0.5t36.5 1t39 1t30 0.5q6 0 6 -4.5t-6 -4.5h-31q-19 0 -31.5 -9t-19 -30t-7 -55.5t5.5 -85.5l19 -172l193 180q10 10 25.5 26.5
t30 35.5t25.5 39t14 36t-5 26t-32 10q-6 0 -16.5 -2t-13.5 -2q-6 0 -4 6q1 2 3.5 4t10.5 2q7 0 22.5 -0.5t33 -0.5t33 -0.5t21.5 -0.5q5 0 20 0.5t33.5 0.5t36 0.5t26.5 0.5q6 0 4.5 -4.5t-6.5 -4.5h-7q-21 0 -51 -17t-63 -43.5t-67 -57t-64 -57.5z" />
    <glyph glyph-name="brokenbar" unicode="&#xa6;" horiz-adv-x="267" 
d="M-104 -202q6 12 21.5 42.5t33.5 65t33.5 65.5t20.5 42l102 218q6 6 11.5 4t8.5 -7q-4 -8 -12.5 -25.5t-19.5 -39.5t-23 -46.5t-23 -46t-20 -39t-12 -24.5q-6 -12 -19.5 -42.5t-28.5 -65t-28.5 -65t-18.5 -42.5q-17 -5 -26 6zM148 318q6 12 21 43.5t32 66.5t32 65.5
t20 42.5l93 209q8 7 15 4t11 -9l-107 -210q-5 -11 -19 -42t-29.5 -65.5t-29 -65.5t-18.5 -42q-10 -4 -13 -3t-8 6z" />
    <glyph glyph-name="section" unicode="&#xa7;" horiz-adv-x="585" 
d="M528 86q0 -51 -29 -86t-71 -64q-4 -27 -18.5 -50.5t-36.5 -41t-48.5 -27.5t-53.5 -10q-28 0 -52 6t-42 16t-28 23.5t-10 27.5q0 24 13.5 37t33.5 13q18 0 28.5 -7.5t17.5 -19.5t12.5 -25t13.5 -25t20.5 -19.5t34.5 -7.5q18 0 31.5 6.5t22.5 17t13.5 23.5t3.5 26
q0 36 -24 74t-60 78.5t-77.5 82t-77.5 84.5t-60 86t-24 86q0 26 8 47.5t22 40t33 35t41 31.5q6 24 20 45t34 36.5t45 24t53 8.5q27 0 49.5 -6t39 -16t26 -22.5t9.5 -25.5q0 -22 -12 -32.5t-29 -10.5q-25 0 -35.5 15t-19.5 32.5t-23 32.5t-46 15q-17 0 -30 -6.5t-22 -17
t-13.5 -23.5t-3.5 -26q0 -35 24 -74t59.5 -79.5t77 -82t77 -83.5t59.5 -83t24 -79zM162 514v12t2 11q-55 -41 -55 -101q0 -39 23.5 -80t59.5 -82.5t77 -83t77 -82t59.5 -80t23.5 -76.5q0 -6 -1 -9q31 24 41 46t10 52q0 35 -23.5 74.5t-58.5 80.5t-76.5 82.5t-76.5 82.5
t-58.5 79.5t-23.5 73.5z" />
    <glyph glyph-name="dieresis" unicode="&#xa8;" 
d="M455 648q0 23 15.5 39t38.5 16t39 -16t16 -39t-16 -38.5t-39 -15.5t-38.5 15.5t-15.5 38.5zM237 648q0 23 15.5 39t38.5 16t39 -16t16 -39t-16 -38.5t-39 -15.5t-38.5 15.5t-15.5 38.5z" />
    <glyph glyph-name="copyright" unicode="&#xa9;" horiz-adv-x="823" 
d="M284 465q-15 -23 -21 -53.5t-2.5 -62.5t16.5 -63t37.5 -55t60 -39t84.5 -15q30 0 53 8t41.5 20.5t33.5 27.5t29 30q3 3 5.5 1.5t0.5 -4.5q-16 -20 -37 -41t-47 -38t-57.5 -28.5t-67.5 -11.5q-71 0 -116 33t-66 80t-18 98.5t28 88.5q15 22 35.5 42.5t45 36.5t53.5 25t61 9
q33 0 58.5 -6t44.5 -14.5t31.5 -18.5t18.5 -18q3 -3 -1.5 -9t-12 -11.5t-15 -9.5t-11.5 -4q-7 0 -18 11.5t-27 26t-39 26t-54 11.5q-40 0 -70.5 -16t-56.5 -57zM399 0q73 0 138 26.5t113.5 74t77 113.5t28.5 145q0 74 -25.5 134.5t-69.5 103.5t-103.5 67t-126.5 24
q-73 0 -138 -26.5t-113.5 -74t-77 -113.5t-28.5 -145q0 -74 25.5 -134.5t69.5 -103.5t103 -66.5t127 -23.5v-1zM441 704q73 0 134.5 -23.5t106.5 -67t70.5 -106t25.5 -140.5q0 -77 -32 -146.5t-86 -122t-124.5 -83.5t-146.5 -31q-73 0 -134.5 23.5t-106.5 67t-70.5 106
t-25.5 140.5q0 77 32 146.5t86 122t124 83.5t146 31h1z" />
    <glyph glyph-name="ordfeminine" unicode="&#xaa;" horiz-adv-x="396" 
d="M256 448q-1 15 7.5 31.5t20.5 33t24.5 31.5t18.5 27l28 34q-17 -20 -47 -48.5t-63 -58t-63.5 -56t-48.5 -41.5q-2 -2 -7 -2.5t-10 -0.5t-9.5 1t-5.5 2q-10 10 -14 26t-3 35.5t6.5 41t13.5 42.5q14 34 42 62t60.5 47.5t63.5 30t50 10.5q21 0 38 -5.5t43 -33.5q6 5 16.5 15
t19.5 21q4 4 7 2q2 -1 3 -3q-14 -18 -36.5 -50.5t-43.5 -68.5t-36 -69t-14 -51q0 -8 5.5 -15t14.5 -9q11 5 30.5 19t36.5 33l7 -5q-17 -16 -40.5 -37t-51.5 -38q-2 -2 -9 -2h-14.5t-14 0.5t-7.5 1.5q-9 11 -13 24.5t-5 22.5zM148 435q8 2 34 21.5t58.5 48t65 60.5t54.5 59
q-28 35 -48 43t-37 8q-15 0 -32 -9t-33.5 -25t-30 -38.5t-22.5 -48.5q-13 -41 -15.5 -72t6.5 -48v1z" />
    <glyph glyph-name="guillemotleft" unicode="&#xab;" horiz-adv-x="683" 
d="M281 244q6 -12 20 -28.5t32 -36t38.5 -39.5t38.5 -38l31.5 -31.5t19.5 -20.5t13.5 -18t1.5 -21q-5 -8 -10 -10t-13 -2t-15.5 5t-15.5 18q-11 17 -32 47t-43.5 63t-43 63.5t-30.5 48.5q-2 2 -1 5t4 5q21 12 50.5 30.5t64 40t70.5 44t69.5 43t61 37.5t44.5 27q20 11 32 17
t20 6q10 0 15 -6t0 -15t-12 -17t-24 -17q-11 -6 -38 -19t-63.5 -31t-78 -38t-80 -39.5t-71.5 -36.5t-51 -28q-7 -4 -4 -8zM55 268q6 -11 19 -30t30 -41t35.5 -45t35 -43.5t29.5 -36t18 -22.5q5 -8 13 -18.5t2 -20.5q-5 -8 -10 -10t-13 -2q-17 0 -31 23l-136 246q-2 2 -1 5
t4 5q31 18 71 46.5t81.5 59t79.5 58t64 43.5q21 13 33 18t20 5q10 0 13 -6t-2 -15t-13 -17t-25 -17q-11 -6 -33.5 -18.5t-51 -28t-61 -34t-63.5 -36t-58.5 -33.5t-45.5 -27q-7 -4 -4 -8z" />
    <glyph glyph-name="uni00AD" unicode="&#xad;" horiz-adv-x="538" 
d="M273 251q62 0 113 2t88 4q5 -4 2 -12.5t-8 -11.5q-41 3 -90 5t-110 2t-110 -2t-90 -5q-5 3 -2 11.5t8 12.5q37 -2 88 -4t111 -2z" />
    <glyph glyph-name="registered" unicode="&#xae;" horiz-adv-x="804" 
d="M586 44q-46 -31 -101 -45.5t-104 -14.5q-73 0 -133.5 22.5t-104 64.5t-68 103.5t-24.5 139.5q0 77 33 147.5t88 124.5t126.5 86t147.5 32q73 0 134.5 -21t105.5 -59t68.5 -92.5t24.5 -120.5q0 -63 -19.5 -118t-52 -95.5t-73 -64t-82.5 -23.5q-54 0 -72.5 33.5t-18.5 98.5
q0 39 -2 63t-9.5 37t-22 18t-39.5 5h-26l-30 -60q-27 -52 -41 -81.5t-18 -44.5t1 -18.5t16 -3.5h17q3 0 2.5 -4t-4.5 -4h-18.5t-25.5 0.5t-24 0.5h-14h-14.5t-23.5 -0.5t-22.5 -0.5h-11.5q-3 0 -2.5 4t3.5 4q14 0 19.5 1t10.5 4q9 4 17.5 15t21.5 34q7 13 16 29.5t17.5 33
t16 31.5l12.5 25l40 80q28 54 42 83.5t17 44t-4 17.5t-20 3h-14q-4 0 -2 4t5 4h17.5t23 -0.5t21.5 -0.5h13h14t24 0.5t26.5 0.5h21.5q30 0 58 -8.5t47 -24.5t24.5 -40t-8.5 -55q-10 -21 -29 -34.5t-43.5 -21.5t-52.5 -11.5t-55 -4.5q32 -6 55 -31.5t24 -88.5q0 -32 1.5 -55
t7 -38t16 -22.5t30.5 -7.5q24 0 54.5 18.5t57 53.5t45 85.5t18.5 113.5q0 66 -24.5 120.5t-67 93t-101.5 59.5t-128 21q-73 0 -139 -27.5t-116 -76.5t-79.5 -116t-29.5 -146q0 -74 24.5 -133.5t67 -101t100.5 -64t126 -22.5q51 0 101.5 10.5t90.5 36.5q4 3 5.5 1t-2.5 -5z
M365 371h49q54 0 93 19.5t61 67.5q23 49 5.5 75t-67.5 26h-20q-9 0 -14.5 -2t-12.5 -10.5t-17 -26.5t-27 -51z" />
    <glyph glyph-name="macron" unicode="&#xaf;" 
d="M400 679h48.5t50.5 1q28 1 33.5 1t5.5 -2q0 -5 -13.5 -19.5t-37.5 -37.5q-7 0 -32 1t-54 1q-13 0 -22.5 -0.5t-18.5 -1t-19 -1t-23 -0.5q-28 -1 -33.5 0t-5.5 3q0 5 13.5 19t37.5 37q7 0 24 -0.5t45 -0.5h1z" />
    <glyph glyph-name="degree" unicode="&#xb0;" horiz-adv-x="376" 
d="M127 577q0 27 10 50.5t28 41.5t41.5 28t50.5 10t50.5 -10t41.5 -28t28 -41.5t10 -50.5t-10 -50.5t-28 -41.5t-41.5 -28t-50.5 -10t-50.5 10t-41.5 28t-28 41.5t-10 50.5zM142 577q0 -24 9 -45t25 -36.5t36.5 -25t44.5 -9.5t44.5 9.5t36.5 25t25 36.5t9 45t-9 45t-25 36.5
t-36.5 25t-44.5 9.5t-44.5 -9.5t-36.5 -25t-25 -36.5t-9 -45z" />
    <glyph glyph-name="plusminus" unicode="&#xb1;" horiz-adv-x="558" 
d="M263 526q4 5 12.5 5t11.5 -5q-2 -20 -3 -36t-2 -33t-1.5 -37.5t-0.5 -48.5q28 0 49 0.5t38 1.5t32.5 2t33.5 2q5 -4 5 -12.5t-5 -11.5q-20 1 -36 2.5t-32.5 2.5t-36.5 1.5t-48 0.5q0 -29 0.5 -49t1.5 -37t2 -33t3 -35q-3 -5 -11.5 -5t-12.5 5q1 18 1.5 33.5t1 32.5
t0.5 38v50q-28 0 -48 -0.5t-37 -1.5t-33 -2.5t-35 -2.5q-5 3 -5 11.5t5 12.5q18 -1 33.5 -2t32.5 -2t38 -1.5t49 -0.5v49.5t-0.5 38.5t-1 33t-1.5 34zM272 126q31 0 52.5 0.5t39 1.5t33.5 2t34 2q5 -4 5 -12.5t-5 -11.5q-20 1 -36 2.5t-33 2.5t-38 1.5t-51 0.5t-51 -0.5
t-38 -1.5t-33 -2.5t-36 -2.5q-5 3 -5 11.5t5 12.5q18 -1 34 -2t33 -2t38.5 -1.5t51.5 -0.5z" />
    <glyph glyph-name="twosuperior" unicode="&#xb2;" horiz-adv-x="373" 
d="M246 359q-29 0 -60.5 -0.5t-58 -0.5t-45 -0.5t-20.5 -0.5t-2.5 3.5t1.5 4.5q73 37 133.5 71.5t106 65.5t74.5 58t38 49q17 38 2.5 63.5t-53.5 25.5q-20 0 -34.5 -5t-26 -17t-20 -32.5t-17.5 -51.5q-5 -16 -15.5 -26.5t-29.5 -10.5q-17 0 -22.5 12t5.5 32q13 24 36.5 45
t50.5 36.5t56 24.5t55 9q55 0 78 -27.5t6 -70.5q-9 -19 -37.5 -40t-70.5 -45.5t-94.5 -53t-109.5 -62.5h77q46 0 76 3.5t50 11.5t34 21.5t29 34.5q3 5 6.5 3.5t0.5 -6.5t-13 -19.5t-22.5 -32t-24.5 -34.5t-19 -26q-4 -6 -9.5 -8t-9.5 -3q-4 0 -16 -0.5t-27 -0.5h-30.5h-27.5
z" />
    <glyph glyph-name="threesuperior" unicode="&#xb3;" horiz-adv-x="349" 
d="M184 346q-41 0 -63.5 14.5t-13.5 46.5q4 13 14.5 22.5t24 16t28.5 10t28 6.5q5 1 5.5 -2.5t-3.5 -4.5q-11 -3 -20 -9.5t-12 -17.5q-6 -22 16 -35t54 -13q23 0 37.5 1t28.5 8q14 10 20.5 18t15.5 25q11 21 12.5 41t-5.5 36t-21 26t-35 10q-14 0 -23.5 -6.5t-17.5 -14
t-15.5 -14t-16.5 -6.5q-8 0 -13.5 4t-5.5 12q0 18 27 23q79 13 116 29t49 38q9 16 9.5 31.5t-5.5 28t-18.5 20t-30.5 7.5q-30 0 -48.5 -16.5t-30.5 -54.5q-5 -16 -14 -25.5t-25 -9.5q-14 0 -20.5 10t1.5 25q9 19 30.5 35t48 27.5t54.5 17.5t49 6q22 0 40 -8t28.5 -21.5
t11.5 -31t-10 -36.5q-8 -12 -25 -21t-39.5 -16.5t-49.5 -14t-54 -13.5q15 2 28 4t24 2q24 0 41.5 -8.5t25.5 -22.5t6.5 -33t-14.5 -40q-11 -19 -39 -36.5t-57 -33.5q-28 -15 -61.5 -25.5t-66.5 -10.5z" />
    <glyph glyph-name="acute" unicode="&#xb4;" 
d="M309 529q-2 -2 -4 -2q-4 0 -4 4q0 2 3 5q21 20 43 46.5t40 51t31 43t18 23.5q4 4 11 5t15 1q7 0 12.5 -0.5t7.5 -2.5t2.5 -7.5t0.5 -13.5q0 -5 -4 -9.5t-9 -9.5t-23.5 -18.5t-42.5 -32t-50 -40t-47 -43.5z" />
    <glyph glyph-name="paragraph" unicode="&#xb6;" horiz-adv-x="644" 
d="M334 353h-81q-92 0 -144.5 43t-52.5 118q0 74 47 116t146 42h20h40.5t50 -0.5t50 -0.5h40h20.5q6 0 20 0.5t30.5 0.5t33 0.5t27.5 0.5q6 0 6 -4.5t-6 -4.5h-18q-18 0 -29 -4.5t-16.5 -28.5t-7 -74.5t-1.5 -142.5v-563q0 -8 -5.5 -8t-5.5 8v563q0 92 -1 142t-4.5 73.5
t-11.5 27.5t-22 4h-113v-810q0 -8 -6 -8t-6 8v502z" />
    <glyph glyph-name="periodcentered" unicode="&#xb7;" horiz-adv-x="247" 
d="M70 214q-4 6 -3 19t5.5 26.5t11.5 25.5t15 16q5 3 17.5 5t24.5 2t24 -3t14 -7q1 -12 -1 -25t-6.5 -25t-11 -22t-12.5 -14q-9 -6 -37 -6q-14 0 -25 1.5t-16 6.5z" />
    <glyph glyph-name="cedilla" unicode="&#xb8;" 
d="M283 -276q0 19 11.5 33t29.5 14q15 0 26.5 -8t23.5 -17t25.5 -17t31.5 -8q23 0 37 19t14 42q0 15 -8.5 29t-29 25t-54.5 17t-85 6q-11 0 -5 11q11 15 26 34.5t30 40t28.5 39t22.5 31.5q4 5 8 3.5t1 -5.5q-18 -26 -35 -51t-30 -44q-4 -3 -1 -3h6q40 0 69 -7.5t48 -18.5
t27.5 -25.5t8.5 -27.5q0 -23 -10 -49.5t-28 -49.5t-42.5 -38.5t-53.5 -15.5q-37 0 -64.5 11.5t-27.5 29.5z" />
    <glyph glyph-name="onesuperior" unicode="&#xb9;" horiz-adv-x="221" 
d="M212 630q17 8 35.5 17t36 18.5t33 18.5t25.5 16q5 4 8 5.5t10 1.5q5 0 7 -4t0 -6q-2 -4 -12.5 -23.5t-26 -46.5t-33.5 -58.5t-34.5 -61.5t-31 -55.5t-21.5 -38.5q-13 -23 -4.5 -35t33.5 -12q4 0 3.5 -3.5t-4.5 -3.5h-18t-27.5 0.5t-27 0.5h-16.5h-15.5t-25 -0.5
t-25.5 -0.5h-15q-4 0 -3 3.5t5 3.5q23 0 41.5 9t34.5 34q3 5 13 22.5t23.5 41t28.5 49.5t27.5 49t21.5 39t11 19q7 12 -6 12q-5 0 -15.5 -3.5t-32.5 -14.5q-5 -2 -6 1.5t3 5.5z" />
    <glyph glyph-name="ordmasculine" unicode="&#xba;" horiz-adv-x="330" 
d="M340 515q-17 -30 -46 -53.5t-59 -39.5q-14 -8 -37 -17.5t-39 -9.5q-20 0 -41 13t-28 32q-3 22 6.5 58.5t33.5 75.5q36 59 93 92q9 4 21 9.5t24.5 10.5t24 8t19.5 3h1q20 0 36.5 -13.5t22.5 -32.5q5 -15 1 -50.5t-33 -85.5zM188 429q14 -4 29.5 -1t32.5 10q12 6 25 26
t23 46.5t16 55.5t5 52q-3 37 -30 47q-10 4 -26.5 4t-29.5 -4q-14 -9 -30.5 -29.5t-29.5 -47.5t-21 -58.5t-5 -62.5q5 -17 17.5 -26t23.5 -12z" />
    <glyph glyph-name="guillemotright" unicode="&#xbb;" horiz-adv-x="683" 
d="M405 262q-6 12 -20 28.5t-32 36t-38.5 39.5t-38.5 38t-32 31.5t-19 20.5q-6 7 -13.5 18t-1.5 21q5 8 10 10t13 2t15.5 -5t15.5 -18q11 -17 32 -47t43.5 -63t43 -63.5t30.5 -48.5q2 -2 1 -5t-4 -5q-21 -12 -50.5 -30.5t-64 -40t-70.5 -44t-69.5 -43t-61 -37.5t-44.5 -27
q-20 -11 -32 -17t-20 -6q-10 0 -15 6t0 15t12 17t24 17q11 6 38 19t63.5 31t78 38t80 39.5t71 36.5t51.5 28q7 3 4 8zM631 238q-6 11 -19 30t-30 41t-35.5 45t-35 43.5t-29.5 36t-18 22.5q-5 8 -13 18.5t-2 20.5q5 8 10 10t13 2q17 0 31 -23l136 -246q2 -2 1 -5t-4 -5
q-31 -18 -71 -46.5t-81.5 -59t-79.5 -58t-64 -43.5q-21 -13 -33 -18t-20 -5q-10 0 -13 6t2 15t13 17t25 17q11 6 33.5 18.5t51 28t61 34t63.5 36t58 33.5t46 27q7 3 4 8z" />
    <glyph glyph-name="onequarter" unicode="&#xbc;" horiz-adv-x="636" 
d="M175 -91q-8 0 -21 -0.5t-26.5 -0.5t-25 -0.5t-14.5 -0.5q-4 0 -3 3.5t5 3.5q31 0 50 15t33 39q6 11 16.5 28t22.5 38h-118q-29 0 -55 1q-5 0 -6 4t4 6q21 13 49.5 31t60.5 38t66 42t66 43t60 39.5t49 33.5q7 6 12 3q6 -3 2 -10q-3 -5 -13.5 -23t-25.5 -44.5t-33 -57.5
t-35 -62h49q17 0 28.5 2t21 7t18 14.5t19.5 23.5q3 5 7 3t0 -7q-8 -11 -18 -25t-19 -27l-22 -30q-4 -5 -16 -5h-93q-13 -22 -23 -40t-16 -29q-14 -23 -8 -37t35 -14q3 0 2.5 -3.5t-4.5 -3.5q-5 0 -15.5 0.5t-22.5 0.5t-23.5 0.5t-19.5 0.5zM455 700q17 8 35.5 17t36 18.5
t33 18.5t25.5 16q5 4 8 5.5t10 1.5q5 0 7 -4t0 -6q-2 -4 -12.5 -23.5t-26 -46.5t-33.5 -58.5t-34.5 -61.5t-31 -55.5t-21.5 -38.5q-13 -23 -4.5 -35t33.5 -12q4 0 3.5 -3.5t-4.5 -3.5h-18t-27.5 0.5t-27 0.5h-16.5h-15.5t-25 -0.5t-25.5 -0.5h-15q-4 0 -3 3.5t5 3.5
q23 0 41.5 9t34.5 34q3 5 13 22.5t23.5 41t28.5 49.5t27.5 49t21.5 39t11 19q7 12 -6 12q-5 0 -15.5 -3.5t-32.5 -14.5q-5 -2 -6 1.5t3 5.5zM300 186q4 7 4.5 11.5t-1.5 4.5t-5.5 -1.5t-14.5 -8.5l-169 -110l-5 -4h128zM358 348q19 0 55 0.5t76 1.5t76 2t54 2
q5 -4 1.5 -12.5t-8.5 -11.5q-20 1 -56.5 2.5t-75.5 2.5t-74 1.5t-53 0.5t-53 -0.5t-74.5 -1.5t-76.5 -2.5t-57 -2.5q-5 3 -1.5 11.5t8.5 12.5q18 -1 54 -2t75 -2t75 -1.5t55 -0.5z" />
    <glyph glyph-name="onehalf" unicode="&#xbd;" horiz-adv-x="636" 
d="M170 -96q-29 0 -60.5 -0.5t-58 -0.5t-45 -0.5t-20.5 -0.5t-2.5 3.5t1.5 4.5q73 37 133.5 71.5t106 65.5t74.5 58t38 49q17 38 2.5 63.5t-53.5 25.5q-20 0 -34.5 -5t-26 -17t-20 -32.5t-17.5 -51.5q-5 -16 -15.5 -26.5t-29.5 -10.5q-17 0 -22.5 12t5.5 32q13 24 36.5 45
t50.5 36.5t56 24.5t55 9q55 0 78 -27.5t6 -70.5q-9 -19 -37.5 -40t-70.5 -45.5t-94.5 -53t-109.5 -62.5h77q46 0 76 3.5t50 11.5t34 21.5t29 34.5q3 5 6.5 3.5t0.5 -6.5t-13 -19.5t-22.5 -32t-24.5 -34.5t-19 -26q-4 -6 -9.5 -8t-9.5 -3q-4 0 -16 -0.5t-27 -0.5h-30.5h-27.5
zM455 700q17 8 35.5 17t36 18.5t33 18.5t25.5 16q5 4 8 5.5t10 1.5q5 0 7 -4t0 -6q-2 -4 -12.5 -23.5t-26 -46.5t-33.5 -58.5t-34.5 -61.5t-31 -55.5t-21.5 -38.5q-13 -23 -4.5 -35t33.5 -12q4 0 3.5 -3.5t-4.5 -3.5h-18t-27.5 0.5t-27 0.5h-16.5h-15.5t-25 -0.5t-25.5 -0.5
h-15q-4 0 -3 3.5t5 3.5q23 0 41.5 9t34.5 34q3 5 13 22.5t23.5 41t28.5 49.5t27.5 49t21.5 39t11 19q7 12 -6 12q-5 0 -15.5 -3.5t-32.5 -14.5q-5 -2 -6 1.5t3 5.5zM358 348q19 0 55 0.5t76 1.5t76 2t54 2q5 -4 1.5 -12.5t-8.5 -11.5q-20 1 -56.5 2.5t-75.5 2.5t-74 1.5
t-53 0.5t-53 -0.5t-74.5 -1.5t-76.5 -2.5t-57 -2.5q-5 3 -1.5 11.5t8.5 12.5q18 -1 54 -2t75 -2t75 -1.5t55 -0.5z" />
    <glyph glyph-name="threequarters" unicode="&#xbe;" horiz-adv-x="636" 
d="M175 -91q-8 0 -21 -0.5t-26.5 -0.5t-25 -0.5t-14.5 -0.5q-4 0 -3 3.5t5 3.5q31 0 50 15t33 39q6 11 16.5 28t22.5 38h-118q-29 0 -55 1q-5 0 -6 4t4 6q21 13 49.5 31t60.5 38t66 42t66 43t60 39.5t49 33.5q7 6 12 3q6 -3 2 -10q-3 -5 -13.5 -23t-25.5 -44.5t-33 -57.5
t-35 -62h49q17 0 28.5 2t21 7t18 14.5t19.5 23.5q3 5 7 3t0 -7q-8 -11 -18 -25t-19 -27l-22 -30q-4 -5 -16 -5h-93q-13 -22 -23 -40t-16 -29q-14 -23 -8 -37t35 -14q3 0 2.5 -3.5t-4.5 -3.5q-5 0 -15.5 0.5t-22.5 0.5t-23.5 0.5t-19.5 0.5zM367 419q-41 0 -63.5 14.5
t-13.5 46.5q4 13 14.5 22.5t24 16t28.5 10t28 6.5q5 1 5.5 -2.5t-3.5 -4.5q-11 -3 -20 -9.5t-12 -17.5q-6 -22 16 -35t54 -13q23 0 37.5 1t28.5 8q14 10 20.5 18t15.5 25q11 21 12.5 41t-5.5 36t-21 26t-35 10q-14 0 -23.5 -6.5t-17.5 -14t-15.5 -14t-16.5 -6.5
q-8 0 -13.5 4t-5.5 12q0 18 27 23q79 13 116 29t49 38q9 16 9.5 31.5t-5.5 28t-18.5 20t-30.5 7.5q-30 0 -48.5 -16.5t-30.5 -54.5q-5 -16 -14 -25.5t-25 -9.5q-14 0 -20.5 10t1.5 25q9 19 30.5 35t48 27.5t54.5 17.5t49 6q22 0 40 -8t28.5 -21.5t11.5 -31t-10 -36.5
q-8 -12 -25 -21t-39.5 -16.5t-49.5 -14t-54 -13.5q15 2 28 4t24 2q24 0 41.5 -8.5t25.5 -22.5t6.5 -33t-14.5 -40q-11 -19 -39 -36.5t-57 -33.5q-28 -15 -61.5 -25.5t-66.5 -10.5zM300 186q4 7 4.5 11.5t-1.5 4.5t-5.5 -1.5t-14.5 -8.5l-169 -110l-5 -4h128zM358 348
q19 0 55 0.5t76 1.5t76 2t54 2q5 -4 1.5 -12.5t-8.5 -11.5q-20 1 -56.5 2.5t-75.5 2.5t-74 1.5t-53 0.5t-53 -0.5t-74.5 -1.5t-76.5 -2.5t-57 -2.5q-5 3 -1.5 11.5t8.5 12.5q18 -1 54 -2t75 -2t75 -1.5t55 -0.5z" />
    <glyph glyph-name="questiondown" unicode="&#xbf;" horiz-adv-x="551" 
d="M326 242q-1 13 -8.5 25t-23.5 17q-21 -5 -54.5 -27t-62.5 -54l-7 7q14 13 32.5 29.5t39.5 33.5t44 33t46 29q18 10 32 2t24 -23.5t15.5 -34.5t6.5 -31q1 -26 -7 -48t-21 -42q-19 -30 -55.5 -54t-81 -45.5t-93 -42t-91.5 -43t-76.5 -48.5t-47.5 -58q-16 -36 -11 -70.5
t28 -62t64.5 -44.5t99.5 -17q76 0 130 25t68 80q5 26 0.5 49t-17.5 39.5t-33.5 26t-46.5 9.5q-22 0 -50 -10t-48 -21l-5 6q35 18 79 37t88 19q59 0 90 -37t17 -95q-11 -35 -40 -60.5t-67.5 -42.5t-81.5 -24.5t-83 -6.5q-77 0 -133 18.5t-88.5 50.5t-40 73.5t12.5 88.5
q13 32 46 58t76 48.5t91.5 42.5t92.5 41t79.5 43.5t52.5 49.5q10 16 14.5 30t4.5 31zM412 510q14 0 25 -1.5t16 -6.5q4 -6 3 -19t-5.5 -26.5t-11.5 -25.5t-15 -16q-5 -3 -17.5 -5t-24.5 -2t-24 3t-14 7q-2 12 0.5 25t7 25t11 21.5t12.5 14.5q9 6 37 6z" />
    <glyph glyph-name="Agrave" unicode="&#xc0;" horiz-adv-x="1349" 
d="M1118 783q-8 -39 -16.5 -87t-17.5 -99.5t-18.5 -104t-17.5 -100.5q57 -1 105 -1h83t69 -0.5t52 -1.5q7 0 2 -8t-16 -17t-24 -17.5t-22 -9.5q-21 -4 -39 -3.5t-49 0.5q-34 0 -77 1.5t-93 3.5l-19 -128q-8 -53 -4 -86t6 -44q3 -13 14.5 -20.5t25.5 -12.5q11 4 33 17.5
t46 31t46.5 35.5t35.5 32l6 -7q-14 -13 -37.5 -33.5t-50.5 -43t-55.5 -43.5t-50.5 -34q-4 -2 -11 -3t-14.5 -0.5t-13.5 1.5t-8 3q-18 14 -26 35t-9 35q-1 15 -2.5 27.5t-2 27.5t1 33t5.5 43t9.5 60t13.5 77q-64 3 -132 7t-137 8q-58 -71 -98.5 -120.5t-51.5 -60.5
q-66 -74 -111 -120t-80 -71.5t-66 -35t-68 -9.5q-62 0 -106 31t-68 75t-26 90.5t20 78.5q21 32 55 64.5t77.5 59t97 43t113.5 16.5q51 0 136.5 -0.5t187.5 -2.5l324 389q-39 0 -84 -1.5t-87 -5.5q-40 -5 -75.5 -10.5t-63.5 -10t-47.5 -8t-27.5 -3.5q-7 0 -0.5 9.5t18 21.5
t23 23.5t14.5 16.5q6 3 26 4.5t45 2.5t50.5 1h41.5h182q72 0 134 1t111 2.5t84 2.5t52 1q5 0 15 -0.5t17 -2.5q0 -5 -3 -13.5t-9 -17.5t-14 -17.5t-17 -14.5q-8 -2 -29.5 -1.5t-50 2.5t-61 5t-62.5 5.5t-55 4.5t-39 2h-15zM338 373q-42 0 -75 -8.5t-59 -26.5t-46 -45.5
t-36 -64.5q-17 -37 -13 -80.5t26.5 -81.5t62 -63.5t93.5 -25.5q14 0 26 0.5t25 6t29 17t39 33.5t54.5 56t75.5 85q23 25 62 73.5t91 109.5q-106 6 -199 10.5t-156 4.5zM738 395l249 -3q9 52 19.5 108t20.5 108t19 97t16 77zM1114 897q-21 22 -47 43.5t-50 40t-42.5 32
t-23.5 18.5t-9 9.5t-4 9.5q0 8 0.5 13.5t2.5 7.5t7.5 2.5t12.5 0.5q8 0 15 -1t11 -5q4 -5 17.5 -23.5t31.5 -43t40 -51t43 -46.5q3 -3 3 -5q0 -4 -4 -4q-2 0 -4 2z" />
    <glyph glyph-name="Aacute" unicode="&#xc1;" horiz-adv-x="1349" 
d="M1118 783q-8 -39 -16.5 -87t-17.5 -99.5t-18.5 -104t-17.5 -100.5q57 -1 105 -1h83t69 -0.5t52 -1.5q7 0 2 -8t-16 -17t-24 -17.5t-22 -9.5q-21 -4 -39 -3.5t-49 0.5q-34 0 -77 1.5t-93 3.5l-19 -128q-8 -53 -4 -86t6 -44q3 -13 14.5 -20.5t25.5 -12.5q11 4 33 17.5
t46 31t46.5 35.5t35.5 32l6 -7q-14 -13 -37.5 -33.5t-50.5 -43t-55.5 -43.5t-50.5 -34q-4 -2 -11 -3t-14.5 -0.5t-13.5 1.5t-8 3q-18 14 -26 35t-9 35q-1 15 -2.5 27.5t-2 27.5t1 33t5.5 43t9.5 60t13.5 77q-64 3 -132 7t-137 8q-58 -71 -98.5 -120.5t-51.5 -60.5
q-66 -74 -111 -120t-80 -71.5t-66 -35t-68 -9.5q-62 0 -106 31t-68 75t-26 90.5t20 78.5q21 32 55 64.5t77.5 59t97 43t113.5 16.5q51 0 136.5 -0.5t187.5 -2.5l324 389q-39 0 -84 -1.5t-87 -5.5q-40 -5 -75.5 -10.5t-63.5 -10t-47.5 -8t-27.5 -3.5q-7 0 -0.5 9.5t18 21.5
t23 23.5t14.5 16.5q6 3 26 4.5t45 2.5t50.5 1h41.5h182q72 0 134 1t111 2.5t84 2.5t52 1q5 0 15 -0.5t17 -2.5q0 -5 -3 -13.5t-9 -17.5t-14 -17.5t-17 -14.5q-8 -2 -29.5 -1.5t-50 2.5t-61 5t-62.5 5.5t-55 4.5t-39 2h-15zM338 373q-42 0 -75 -8.5t-59 -26.5t-46 -45.5
t-36 -64.5q-17 -37 -13 -80.5t26.5 -81.5t62 -63.5t93.5 -25.5q14 0 26 0.5t25 6t29 17t39 33.5t54.5 56t75.5 85q23 25 62 73.5t91 109.5q-106 6 -199 10.5t-156 4.5zM738 395l249 -3q9 52 19.5 108t20.5 108t19 97t16 77zM1120 896q-2 -2 -4 -2q-4 0 -4 4q0 2 3 5
q21 20 43 46.5t40 51t31 43t18 23.5q4 4 11 5t15 1q7 0 12.5 -0.5t7.5 -2.5t2.5 -7.5t0.5 -13.5q0 -5 -4 -9.5t-9 -9.5t-23.5 -18.5t-42.5 -32t-50 -40t-47 -43.5z" />
    <glyph glyph-name="Acircumflex" unicode="&#xc2;" horiz-adv-x="1349" 
d="M1118 783q-8 -39 -16.5 -87t-17.5 -99.5t-18.5 -104t-17.5 -100.5q57 -1 105 -1h83t69 -0.5t52 -1.5q7 0 2 -8t-16 -17t-24 -17.5t-22 -9.5q-21 -4 -39 -3.5t-49 0.5q-34 0 -77 1.5t-93 3.5l-19 -128q-8 -53 -4 -86t6 -44q3 -13 14.5 -20.5t25.5 -12.5q11 4 33 17.5
t46 31t46.5 35.5t35.5 32l6 -7q-14 -13 -37.5 -33.5t-50.5 -43t-55.5 -43.5t-50.5 -34q-4 -2 -11 -3t-14.5 -0.5t-13.5 1.5t-8 3q-18 14 -26 35t-9 35q-1 15 -2.5 27.5t-2 27.5t1 33t5.5 43t9.5 60t13.5 77q-64 3 -132 7t-137 8q-58 -71 -98.5 -120.5t-51.5 -60.5
q-66 -74 -111 -120t-80 -71.5t-66 -35t-68 -9.5q-62 0 -106 31t-68 75t-26 90.5t20 78.5q21 32 55 64.5t77.5 59t97 43t113.5 16.5q51 0 136.5 -0.5t187.5 -2.5l324 389q-39 0 -84 -1.5t-87 -5.5q-40 -5 -75.5 -10.5t-63.5 -10t-47.5 -8t-27.5 -3.5q-7 0 -0.5 9.5t18 21.5
t23 23.5t14.5 16.5q6 3 26 4.5t45 2.5t50.5 1h41.5h182q72 0 134 1t111 2.5t84 2.5t52 1q5 0 15 -0.5t17 -2.5q0 -5 -3 -13.5t-9 -17.5t-14 -17.5t-17 -14.5q-8 -2 -29.5 -1.5t-50 2.5t-61 5t-62.5 5.5t-55 4.5t-39 2h-15zM338 373q-42 0 -75 -8.5t-59 -26.5t-46 -45.5
t-36 -64.5q-17 -37 -13 -80.5t26.5 -81.5t62 -63.5t93.5 -25.5q14 0 26 0.5t25 6t29 17t39 33.5t54.5 56t75.5 85q23 25 62 73.5t91 109.5q-106 6 -199 10.5t-156 4.5zM738 395l249 -3q9 52 19.5 108t20.5 108t19 97t16 77zM1176 1042q-2 4 -6 0q-14 -16 -32 -34t-37 -34.5
t-36 -30.5t-29 -23q-9 -6 -18.5 -12t-20.5 -5q-11 2 -16 7.5t-4 10.5q0 3 3 11t20 19q15 9 36 21t44.5 25.5t46.5 27.5t42 27q6 6 11 -1q16 -21 28 -35.5t21.5 -26.5t19 -22.5t21.5 -22.5q14 -13 17.5 -20.5t2.5 -12.5q0 -9 -7 -15.5t-15 -5.5q-23 1 -37 27q-12 23 -24.5 55
t-30.5 70z" />
    <glyph glyph-name="Atilde" unicode="&#xc3;" horiz-adv-x="1349" 
d="M1118 783q-8 -39 -16.5 -87t-17.5 -99.5t-18.5 -104t-17.5 -100.5q57 -1 105 -1h83t69 -0.5t52 -1.5q7 0 2 -8t-16 -17t-24 -17.5t-22 -9.5q-21 -4 -39 -3.5t-49 0.5q-34 0 -77 1.5t-93 3.5l-19 -128q-8 -53 -4 -86t6 -44q3 -13 14.5 -20.5t25.5 -12.5q11 4 33 17.5
t46 31t46.5 35.5t35.5 32l6 -7q-14 -13 -37.5 -33.5t-50.5 -43t-55.5 -43.5t-50.5 -34q-4 -2 -11 -3t-14.5 -0.5t-13.5 1.5t-8 3q-18 14 -26 35t-9 35q-1 15 -2.5 27.5t-2 27.5t1 33t5.5 43t9.5 60t13.5 77q-64 3 -132 7t-137 8q-58 -71 -98.5 -120.5t-51.5 -60.5
q-66 -74 -111 -120t-80 -71.5t-66 -35t-68 -9.5q-62 0 -106 31t-68 75t-26 90.5t20 78.5q21 32 55 64.5t77.5 59t97 43t113.5 16.5q51 0 136.5 -0.5t187.5 -2.5l324 389q-39 0 -84 -1.5t-87 -5.5q-40 -5 -75.5 -10.5t-63.5 -10t-47.5 -8t-27.5 -3.5q-7 0 -0.5 9.5t18 21.5
t23 23.5t14.5 16.5q6 3 26 4.5t45 2.5t50.5 1h41.5h182q72 0 134 1t111 2.5t84 2.5t52 1q5 0 15 -0.5t17 -2.5q0 -5 -3 -13.5t-9 -17.5t-14 -17.5t-17 -14.5q-8 -2 -29.5 -1.5t-50 2.5t-61 5t-62.5 5.5t-55 4.5t-39 2h-15zM338 373q-42 0 -75 -8.5t-59 -26.5t-46 -45.5
t-36 -64.5q-17 -37 -13 -80.5t26.5 -81.5t62 -63.5t93.5 -25.5q14 0 26 0.5t25 6t29 17t39 33.5t54.5 56t75.5 85q23 25 62 73.5t91 109.5q-106 6 -199 10.5t-156 4.5zM738 395l249 -3q9 52 19.5 108t20.5 108t19 97t16 77zM980 916q22 28 37.5 47.5t27.5 31.5t21.5 17.5
t19.5 5.5q18 0 40 -10t45 -22t44 -22t36 -10q7 0 12.5 1t12 7t15.5 18t25 34q5 6 9 4t-1 -9q-36 -53 -62.5 -81.5t-52.5 -28.5q-17 0 -38.5 11t-44 23.5t-43.5 23.5t-37 11q-5 0 -8.5 -1.5t-9.5 -7.5t-15 -17.5t-25 -30.5q-7 -8 -9.5 -5.5t1.5 10.5z" />
    <glyph glyph-name="Adieresis" unicode="&#xc4;" horiz-adv-x="1349" 
d="M1118 783q-8 -39 -16.5 -87t-17.5 -99.5t-18.5 -104t-17.5 -100.5q57 -1 105 -1h83t69 -0.5t52 -1.5q7 0 2 -8t-16 -17t-24 -17.5t-22 -9.5q-21 -4 -39 -3.5t-49 0.5q-34 0 -77 1.5t-93 3.5l-19 -128q-8 -53 -4 -86t6 -44q3 -13 14.5 -20.5t25.5 -12.5q11 4 33 17.5
t46 31t46.5 35.5t35.5 32l6 -7q-14 -13 -37.5 -33.5t-50.5 -43t-55.5 -43.5t-50.5 -34q-4 -2 -11 -3t-14.5 -0.5t-13.5 1.5t-8 3q-18 14 -26 35t-9 35q-1 15 -2.5 27.5t-2 27.5t1 33t5.5 43t9.5 60t13.5 77q-64 3 -132 7t-137 8q-58 -71 -98.5 -120.5t-51.5 -60.5
q-66 -74 -111 -120t-80 -71.5t-66 -35t-68 -9.5q-62 0 -106 31t-68 75t-26 90.5t20 78.5q21 32 55 64.5t77.5 59t97 43t113.5 16.5q51 0 136.5 -0.5t187.5 -2.5l324 389q-39 0 -84 -1.5t-87 -5.5q-40 -5 -75.5 -10.5t-63.5 -10t-47.5 -8t-27.5 -3.5q-7 0 -0.5 9.5t18 21.5
t23 23.5t14.5 16.5q6 3 26 4.5t45 2.5t50.5 1h41.5h182q72 0 134 1t111 2.5t84 2.5t52 1q5 0 15 -0.5t17 -2.5q0 -5 -3 -13.5t-9 -17.5t-14 -17.5t-17 -14.5q-8 -2 -29.5 -1.5t-50 2.5t-61 5t-62.5 5.5t-55 4.5t-39 2h-15zM338 373q-42 0 -75 -8.5t-59 -26.5t-46 -45.5
t-36 -64.5q-17 -37 -13 -80.5t26.5 -81.5t62 -63.5t93.5 -25.5q14 0 26 0.5t25 6t29 17t39 33.5t54.5 56t75.5 85q23 25 62 73.5t91 109.5q-106 6 -199 10.5t-156 4.5zM738 395l249 -3q9 52 19.5 108t20.5 108t19 97t16 77zM1202 958q0 23 15.5 39t38.5 16t39 -16t16 -39
t-16 -38.5t-39 -15.5t-38.5 15.5t-15.5 38.5zM984 958q0 23 15.5 39t38.5 16t39 -16t16 -39t-16 -38.5t-39 -15.5t-38.5 15.5t-15.5 38.5z" />
    <glyph glyph-name="Aring" unicode="&#xc5;" horiz-adv-x="1349" 
d="M1024 892q0 34 23.5 57.5t57.5 23.5t57.5 -23.5t23.5 -57.5q0 -22 -9.5 -39.5t-26.5 -28.5q110 2 186 4.5t105 2.5q5 0 15 -0.5t17 -2.5q0 -5 -3 -13.5t-9 -17.5t-14 -17.5t-17 -14.5q-8 -2 -29.5 -1.5t-50 2.5t-61 5t-62.5 5.5t-55 4.5t-39 2h-15q-8 -39 -16.5 -87
t-17.5 -99.5t-18.5 -104t-17.5 -100.5q57 -1 105 -1h83t69 -0.5t52 -1.5q7 0 2 -8t-16 -17t-24 -17.5t-22 -9.5q-21 -4 -39 -3.5t-49 0.5q-34 0 -77 1.5t-93 3.5l-19 -128q-8 -53 -4 -86t6 -44q3 -13 14.5 -20.5t25.5 -12.5q11 4 33 17.5t46 31t46.5 35.5t35.5 32l6 -7
q-14 -13 -37.5 -33.5t-50.5 -43t-55.5 -43.5t-50.5 -34q-4 -2 -11 -3t-14.5 -0.5t-13.5 1.5t-8 3q-18 14 -26 35t-9 35q-1 15 -2.5 27.5t-2 27.5t1 33t5.5 43t9.5 60t13.5 77q-64 3 -132 7t-137 8q-58 -71 -98.5 -120.5t-51.5 -60.5q-66 -74 -111 -120t-80 -71.5t-66 -35
t-68 -9.5q-62 0 -106 31t-68 75t-26 90.5t20 78.5q21 32 55 64.5t77.5 59t97 43t113.5 16.5q51 0 136.5 -0.5t187.5 -2.5l324 389q-39 0 -84 -1.5t-87 -5.5q-40 -5 -75.5 -10.5t-63.5 -10t-47.5 -8t-27.5 -3.5q-7 0 -0.5 9.5t18 21.5t23 23.5t14.5 16.5q6 3 26 4.5t45 2.5
t50.5 1h41.5h182q-17 11 -26.5 28.5t-9.5 39.5zM338 373q-42 0 -75 -8.5t-59 -26.5t-46 -45.5t-36 -64.5q-17 -37 -13 -80.5t26.5 -81.5t62 -63.5t93.5 -25.5q14 0 26 0.5t25 6t29 17t39 33.5t54.5 56t75.5 85q23 25 62 73.5t91 109.5q-106 6 -199 10.5t-156 4.5zM738 395
l249 -3q9 52 19.5 108t20.5 108t19 97t16 77zM1037 892q0 -28 20 -48t48 -20t48 20t20 48t-20 48t-48 20t-48 -20t-20 -48z" />
    <glyph glyph-name="AE" unicode="&#xc6;" horiz-adv-x="1572" 
d="M1246 782q-7 0 -13 0.5t-11 0.5h-39h-50t-57 -1.5t-61 -4.5q-40 -5 -75.5 -10.5t-63.5 -10t-47.5 -8t-27.5 -3.5q-7 0 -0.5 9.5t18 21.5t23 23.5t14.5 16.5q6 3 26 4.5t45 2.5t50.5 1h41.5h170q48 0 106.5 0.5t120 1.5t120.5 1.5t108 1.5t83 1.5t46 0.5q5 0 15 -0.5
t17 -2.5q0 -5 -3 -13.5t-9 -17.5t-14 -17.5t-17 -14.5q-6 -2 -30.5 -2t-60 1t-80.5 3t-91.5 4l-93 4t-85.5 4q-5 -19 -14.5 -57.5t-22 -86t-26.5 -99t-26 -95.5h170q35 0 69 -0.5t52 -1.5q7 0 2 -8t-16 -17t-24 -17.5t-22 -9.5q-21 -4 -39 -3.5t-49 0.5q-29 0 -70 0.5
t-90 2.5q-23 -64 -56.5 -119.5t-71 -99.5t-75.5 -74.5t-70 -43.5q21 0 64 -0.5t93 0t99.5 2t83.5 5.5q40 4 77 9t67 9t51 6.5t29 2.5q7 0 0 -9.5t-18 -21.5t-23 -24t-15 -17q-5 -3 -27 -4t-49 -2t-54 -1h-43h-82q-72 0 -144 -1.5t-131.5 -3t-99.5 -2.5t-48 -1q-47 0 -60 15
q-3 18 13.5 39t35.5 33q38 -9 69.5 -12.5t58.5 -3.5q53 0 92 20t69 60.5t55 101t49 140.5q-61 2 -128 5t-137 7q-33 -34 -68 -69.5t-65 -65.5t-51.5 -51t-27.5 -26q-69 -70 -123.5 -118t-103 -77t-96 -42t-101.5 -13q-48 0 -85 16t-63.5 41.5t-43 58t-23 65.5t-4 64.5
t13.5 54.5q17 35 51 72t80 67t102 49.5t116 19.5q31 0 84.5 -0.5t121 -1t144.5 -1t157 -1.5q96 100 186.5 185t155.5 153zM338 423q-85 0 -137.5 -46t-78.5 -124q-13 -39 -7 -87t29.5 -90t63 -70.5t93.5 -28.5q40 0 74 6.5t73.5 28.5t89 64.5t120.5 113.5q11 11 35 34.5
t54.5 53.5t63.5 62.5t62 61.5q-81 4 -160.5 7.5t-150 6.5t-128.5 5t-96 2zM1171 448l95 333h-2l-342 -337q65 -1 127.5 -1.5t119.5 -0.5z" />
    <glyph glyph-name="Ccedilla" unicode="&#xc7;" horiz-adv-x="760" 
d="M702 111q-29 -35 -68 -71t-83.5 -65t-92 -47.5t-92.5 -18.5q-42 0 -78.5 8.5t-66.5 24.5q-11 -15 -19.5 -29t-16.5 -25q-4 -3 -1 -3h6q40 0 69 -7.5t48 -18.5t27.5 -25.5t8.5 -27.5q0 -23 -10 -49.5t-28 -49.5t-42.5 -38.5t-53.5 -15.5q-37 0 -64.5 11.5t-27.5 29.5
q0 19 11.5 33t29.5 14q15 0 26.5 -8t23.5 -17t25.5 -17t31.5 -8q23 0 37 19t14 42q0 15 -8.5 29t-29 25t-54.5 17t-85 6q-11 0 -5 11q16 20 37.5 50t41.5 56q-63 35 -99.5 97t-44 138t14.5 159.5t76 162.5q36 52 92.5 109.5t128.5 105.5t156.5 79t177.5 31q51 0 92.5 -10.5
t72.5 -24t51 -27t27 -18.5q5 -4 -1 -12t-16.5 -15.5t-22.5 -13t-18 -5.5q-17 0 -42 14.5t-60 31.5t-80 31.5t-100 14.5q-60 0 -115.5 -21t-105 -56.5t-91.5 -82.5t-75 -98q-40 -63 -60.5 -130t-22.5 -131t14 -120.5t50.5 -99t86.5 -67.5t122 -25q38 0 77.5 14t76 36t67.5 50
t53 55q2 3 7 0.5t0 -7.5z" />
    <glyph glyph-name="Egrave" unicode="&#xc8;" horiz-adv-x="1066" 
d="M342 445q51 0 115 0.5t132 1.5q51 124 110 201t122 112q-55 14 -111 24t-106 10q-69 0 -127 -18t-106.5 -57t-89.5 -100t-77 -147q-7 -30 -27 -43t-46 -13q-30 0 -34 16.5t14 44.5q45 70 105 134t134.5 112t162.5 76.5t190 28.5q72 0 154.5 -15t176.5 -38
q49 -12 81.5 -20.5t52.5 -15t28.5 -11.5t10.5 -9q2 -5 -2 -12.5t-10 -15.5t-13 -14.5t-12 -7.5q-5 0 -23.5 4t-45.5 11t-60.5 16t-69.5 19q-29 8 -65.5 18t-75.5 20q-17 -12 -37 -44t-42 -74.5t-44 -92t-43 -97.5q73 1 135 2t97 1t67 -1.5t48 -5.5q6 -1 2.5 -10t-12 -20
t-19.5 -20.5t-20 -10.5q-21 -4 -41 -3.5t-52 2.5q-35 2 -93.5 9.5t-128.5 15.5q-58 -134 -122 -227t-127 -131q17 0 54.5 -0.5t82.5 -0.5t90.5 2t80.5 6q40 4 78.5 9t70 9t54 6.5t30.5 2.5q7 0 0 -9.5t-18 -21.5t-23 -24t-15 -17q-5 -3 -28 -4t-52 -2t-57.5 -1h-44.5h-182
q-72 0 -142.5 -1.5t-128 -3t-96 -2.5t-46.5 -1q-47 0 -60 15q-3 18 13.5 39t35.5 33q9 3 30.5 -1t49.5 -10t60 -12.5t63 -9t58.5 0.5t45.5 16q27 18 48 51.5t41 78.5t40.5 100.5t44.5 118.5q-60 7 -121 12.5t-117 7.5q-8 0 -10 1.5t0 3t6.5 2.5t7.5 1zM1007 886
q-21 22 -47 43.5t-50 40t-42.5 32t-23.5 18.5t-9 9.5t-4 9.5q0 8 0.5 13.5t2.5 7.5t7.5 2.5t12.5 0.5q8 0 15 -1t11 -5q4 -5 17.5 -23.5t31.5 -43t40 -51t43 -46.5q3 -3 3 -5q0 -4 -4 -4q-2 0 -4 2z" />
    <glyph glyph-name="Eacute" unicode="&#xc9;" horiz-adv-x="1066" 
d="M342 445q51 0 115 0.5t132 1.5q51 124 110 201t122 112q-55 14 -111 24t-106 10q-69 0 -127 -18t-106.5 -57t-89.5 -100t-77 -147q-7 -30 -27 -43t-46 -13q-30 0 -34 16.5t14 44.5q45 70 105 134t134.5 112t162.5 76.5t190 28.5q72 0 154.5 -15t176.5 -38
q49 -12 81.5 -20.5t52.5 -15t28.5 -11.5t10.5 -9q2 -5 -2 -12.5t-10 -15.5t-13 -14.5t-12 -7.5q-5 0 -23.5 4t-45.5 11t-60.5 16t-69.5 19q-29 8 -65.5 18t-75.5 20q-17 -12 -37 -44t-42 -74.5t-44 -92t-43 -97.5q73 1 135 2t97 1t67 -1.5t48 -5.5q6 -1 2.5 -10t-12 -20
t-19.5 -20.5t-20 -10.5q-21 -4 -41 -3.5t-52 2.5q-35 2 -93.5 9.5t-128.5 15.5q-58 -134 -122 -227t-127 -131q17 0 54.5 -0.5t82.5 -0.5t90.5 2t80.5 6q40 4 78.5 9t70 9t54 6.5t30.5 2.5q7 0 0 -9.5t-18 -21.5t-23 -24t-15 -17q-5 -3 -28 -4t-52 -2t-57.5 -1h-44.5h-182
q-72 0 -142.5 -1.5t-128 -3t-96 -2.5t-46.5 -1q-47 0 -60 15q-3 18 13.5 39t35.5 33q9 3 30.5 -1t49.5 -10t60 -12.5t63 -9t58.5 0.5t45.5 16q27 18 48 51.5t41 78.5t40.5 100.5t44.5 118.5q-60 7 -121 12.5t-117 7.5q-8 0 -10 1.5t0 3t6.5 2.5t7.5 1zM950 888q-2 -2 -4 -2
q-4 0 -4 4q0 2 3 5q21 20 43 46.5t40 51t31 43t18 23.5q4 4 11 5t15 1q7 0 12.5 -0.5t7.5 -2.5t2.5 -7.5t0.5 -13.5q0 -5 -4 -9.5t-9 -9.5t-23.5 -18.5t-42.5 -32t-50 -40t-47 -43.5z" />
    <glyph glyph-name="Ecircumflex" unicode="&#xca;" horiz-adv-x="1066" 
d="M342 445q51 0 115 0.5t132 1.5q51 124 110 201t122 112q-55 14 -111 24t-106 10q-69 0 -127 -18t-106.5 -57t-89.5 -100t-77 -147q-7 -30 -27 -43t-46 -13q-30 0 -34 16.5t14 44.5q45 70 105 134t134.5 112t162.5 76.5t190 28.5q72 0 154.5 -15t176.5 -38
q49 -12 81.5 -20.5t52.5 -15t28.5 -11.5t10.5 -9q2 -5 -2 -12.5t-10 -15.5t-13 -14.5t-12 -7.5q-5 0 -23.5 4t-45.5 11t-60.5 16t-69.5 19q-29 8 -65.5 18t-75.5 20q-17 -12 -37 -44t-42 -74.5t-44 -92t-43 -97.5q73 1 135 2t97 1t67 -1.5t48 -5.5q6 -1 2.5 -10t-12 -20
t-19.5 -20.5t-20 -10.5q-21 -4 -41 -3.5t-52 2.5q-35 2 -93.5 9.5t-128.5 15.5q-58 -134 -122 -227t-127 -131q17 0 54.5 -0.5t82.5 -0.5t90.5 2t80.5 6q40 4 78.5 9t70 9t54 6.5t30.5 2.5q7 0 0 -9.5t-18 -21.5t-23 -24t-15 -17q-5 -3 -28 -4t-52 -2t-57.5 -1h-44.5h-182
q-72 0 -142.5 -1.5t-128 -3t-96 -2.5t-46.5 -1q-47 0 -60 15q-3 18 13.5 39t35.5 33q9 3 30.5 -1t49.5 -10t60 -12.5t63 -9t58.5 0.5t45.5 16q27 18 48 51.5t41 78.5t40.5 100.5t44.5 118.5q-60 7 -121 12.5t-117 7.5q-8 0 -10 1.5t0 3t6.5 2.5t7.5 1zM995 1022q-2 4 -6 0
q-14 -16 -32 -34t-37 -34.5t-36 -30.5t-29 -23q-9 -6 -18.5 -12t-20.5 -5q-11 2 -16 7.5t-4 10.5q0 3 3 11t20 19q15 9 36 21t44.5 25.5t46.5 27.5t42 27q6 6 11 -1q16 -21 28 -35.5t21.5 -26.5t19 -22.5t21.5 -22.5q14 -13 17.5 -20.5t2.5 -12.5q0 -9 -7 -15.5t-15 -5.5
q-23 1 -37 27q-12 23 -24.5 55t-30.5 70z" />
    <glyph glyph-name="Edieresis" unicode="&#xcb;" horiz-adv-x="1066" 
d="M342 445q51 0 115 0.5t132 1.5q51 124 110 201t122 112q-55 14 -111 24t-106 10q-69 0 -127 -18t-106.5 -57t-89.5 -100t-77 -147q-7 -30 -27 -43t-46 -13q-30 0 -34 16.5t14 44.5q45 70 105 134t134.5 112t162.5 76.5t190 28.5q72 0 154.5 -15t176.5 -38
q49 -12 81.5 -20.5t52.5 -15t28.5 -11.5t10.5 -9q2 -5 -2 -12.5t-10 -15.5t-13 -14.5t-12 -7.5q-5 0 -23.5 4t-45.5 11t-60.5 16t-69.5 19q-29 8 -65.5 18t-75.5 20q-17 -12 -37 -44t-42 -74.5t-44 -92t-43 -97.5q73 1 135 2t97 1t67 -1.5t48 -5.5q6 -1 2.5 -10t-12 -20
t-19.5 -20.5t-20 -10.5q-21 -4 -41 -3.5t-52 2.5q-35 2 -93.5 9.5t-128.5 15.5q-58 -134 -122 -227t-127 -131q17 0 54.5 -0.5t82.5 -0.5t90.5 2t80.5 6q40 4 78.5 9t70 9t54 6.5t30.5 2.5q7 0 0 -9.5t-18 -21.5t-23 -24t-15 -17q-5 -3 -28 -4t-52 -2t-57.5 -1h-44.5h-182
q-72 0 -142.5 -1.5t-128 -3t-96 -2.5t-46.5 -1q-47 0 -60 15q-3 18 13.5 39t35.5 33q9 3 30.5 -1t49.5 -10t60 -12.5t63 -9t58.5 0.5t45.5 16q27 18 48 51.5t41 78.5t40.5 100.5t44.5 118.5q-60 7 -121 12.5t-117 7.5q-8 0 -10 1.5t0 3t6.5 2.5t7.5 1zM1065 949
q4 22 22.5 35.5t40.5 8.5q23 -4 36 -22.5t8 -40.5q-4 -23 -22.5 -35.5t-40.5 -8.5q-23 4 -35.5 22t-8.5 41zM851 987q4 23 22 36t40 9q23 -4 36 -22.5t9 -41.5q-4 -22 -22.5 -35t-41.5 -8q-22 4 -35 22t-8 40z" />
    <glyph glyph-name="Igrave" unicode="&#xcc;" horiz-adv-x="732" 
d="M464 421q34 73 65.5 132.5t63.5 105.5t67 78.5t75 50.5q-24 2 -57 0.5t-69 -6t-72 -10t-66 -11t-51.5 -9t-28.5 -3.5t-3 8.5t14 20t22.5 22t22.5 14.5q6 3 26 4.5t45 1.5h50.5h42.5q47 0 105.5 1.5t111.5 3t91.5 3t46.5 1.5q48 0 59 -14q2 -10 -12 -25t-33 -27
q-14 -4 -48 3t-75 12.5t-81.5 4.5t-67.5 -20q-28 -19 -46 -51.5t-34.5 -77t-35.5 -100t-48 -121.5q-66 -147 -140.5 -242t-142.5 -131q10 -4 35.5 -2.5t60 6t74 10t76.5 11t67.5 9t48.5 2.5q10 0 8.5 -12t-11.5 -25.5t-27.5 -25t-41.5 -11.5l-139 3q-72 0 -139 -1.5t-120 -3
t-88 -2.5t-43 -1q-46 0 -59 15q0 5 4.5 12.5t12 15t16.5 13t16 7.5q9 3 27 0t41.5 -7t50.5 -8t55 -4q32 0 58 5t47 22q26 21 45.5 54t38.5 77.5t39.5 100t49.5 121.5zM837 896q-21 22 -47 43.5t-50 40t-42.5 32t-23.5 18.5t-9 9.5t-4 9.5q0 8 0.5 13.5t2.5 7.5t7.5 2.5
t12.5 0.5q8 0 15 -1t11 -5q4 -5 17.5 -23.5t31.5 -43t40 -51t43 -46.5q3 -3 3 -5q0 -4 -4 -4q-2 0 -4 2z" />
    <glyph glyph-name="Iacute" unicode="&#xcd;" horiz-adv-x="732" 
d="M464 421q34 73 65.5 132.5t63.5 105.5t67 78.5t75 50.5q-24 2 -57 0.5t-69 -6t-72 -10t-66 -11t-51.5 -9t-28.5 -3.5t-3 8.5t14 20t22.5 22t22.5 14.5q6 3 26 4.5t45 1.5h50.5h42.5q47 0 105.5 1.5t111.5 3t91.5 3t46.5 1.5q48 0 59 -14q2 -10 -12 -25t-33 -27
q-14 -4 -48 3t-75 12.5t-81.5 4.5t-67.5 -20q-28 -19 -46 -51.5t-34.5 -77t-35.5 -100t-48 -121.5q-66 -147 -140.5 -242t-142.5 -131q10 -4 35.5 -2.5t60 6t74 10t76.5 11t67.5 9t48.5 2.5q10 0 8.5 -12t-11.5 -25.5t-27.5 -25t-41.5 -11.5l-139 3q-72 0 -139 -1.5t-120 -3
t-88 -2.5t-43 -1q-46 0 -59 15q0 5 4.5 12.5t12 15t16.5 13t16 7.5q9 3 27 0t41.5 -7t50.5 -8t55 -4q32 0 58 5t47 22q26 21 45.5 54t38.5 77.5t39.5 100t49.5 121.5zM812 895q-2 -2 -4 -2q-4 0 -4 4q0 2 3 5q21 20 43 46.5t40 51t31 43t18 23.5q4 4 11 5t15 1
q7 0 12.5 -0.5t7.5 -2.5t2.5 -7.5t0.5 -13.5q0 -5 -4 -9.5t-9 -9.5t-23.5 -18.5t-42.5 -32t-50 -40t-47 -43.5z" />
    <glyph glyph-name="Icircumflex" unicode="&#xce;" horiz-adv-x="732" 
d="M464 421q34 73 65.5 132.5t63.5 105.5t67 78.5t75 50.5q-24 2 -57 0.5t-69 -6t-72 -10t-66 -11t-51.5 -9t-28.5 -3.5t-3 8.5t14 20t22.5 22t22.5 14.5q6 3 26 4.5t45 1.5h50.5h42.5q47 0 105.5 1.5t111.5 3t91.5 3t46.5 1.5q48 0 59 -14q2 -10 -12 -25t-33 -27
q-14 -4 -48 3t-75 12.5t-81.5 4.5t-67.5 -20q-28 -19 -46 -51.5t-34.5 -77t-35.5 -100t-48 -121.5q-66 -147 -140.5 -242t-142.5 -131q10 -4 35.5 -2.5t60 6t74 10t76.5 11t67.5 9t48.5 2.5q10 0 8.5 -12t-11.5 -25.5t-27.5 -25t-41.5 -11.5l-139 3q-72 0 -139 -1.5t-120 -3
t-88 -2.5t-43 -1q-46 0 -59 15q0 5 4.5 12.5t12 15t16.5 13t16 7.5q9 3 27 0t41.5 -7t50.5 -8t55 -4q32 0 58 5t47 22q26 21 45.5 54t38.5 77.5t39.5 100t49.5 121.5zM823 1042q-2 4 -6 0q-14 -16 -32 -34t-37 -34.5t-36 -30.5t-29 -23q-9 -6 -18.5 -12t-20.5 -5
q-11 2 -16 7.5t-4 10.5q0 3 3 11t20 19q15 9 36 21t44.5 25.5t46.5 27.5t42 27q6 6 11 -1q16 -21 28 -35.5t21.5 -26.5t19 -22.5t21.5 -22.5q14 -13 17.5 -20.5t2.5 -12.5q0 -9 -7 -15.5t-15 -5.5q-23 1 -37 27q-12 23 -24.5 55t-30.5 70z" />
    <glyph glyph-name="Idieresis" unicode="&#xcf;" horiz-adv-x="732" 
d="M464 421q34 73 65.5 132.5t63.5 105.5t67 78.5t75 50.5q-24 2 -57 0.5t-69 -6t-72 -10t-66 -11t-51.5 -9t-28.5 -3.5t-3 8.5t14 20t22.5 22t22.5 14.5q6 3 26 4.5t45 1.5h50.5h42.5q47 0 105.5 1.5t111.5 3t91.5 3t46.5 1.5q48 0 59 -14q2 -10 -12 -25t-33 -27
q-14 -4 -48 3t-75 12.5t-81.5 4.5t-67.5 -20q-28 -19 -46 -51.5t-34.5 -77t-35.5 -100t-48 -121.5q-66 -147 -140.5 -242t-142.5 -131q10 -4 35.5 -2.5t60 6t74 10t76.5 11t67.5 9t48.5 2.5q10 0 8.5 -12t-11.5 -25.5t-27.5 -25t-41.5 -11.5l-139 3q-72 0 -139 -1.5t-120 -3
t-88 -2.5t-43 -1q-46 0 -59 15q0 5 4.5 12.5t12 15t16.5 13t16 7.5q9 3 27 0t41.5 -7t50.5 -8t55 -4q32 0 58 5t47 22q26 21 45.5 54t38.5 77.5t39.5 100t49.5 121.5zM854 962q0 23 15.5 39t38.5 16t39 -16t16 -39t-16 -38.5t-39 -15.5t-38.5 15.5t-15.5 38.5zM636 962
q0 23 15.5 39t38.5 16t39 -16t16 -39t-16 -38.5t-39 -15.5t-38.5 15.5t-15.5 38.5z" />
    <glyph glyph-name="Eth" unicode="&#xd0;" horiz-adv-x="1138" 
d="M441 0q-72 1 -131.5 0.5t-103.5 -1.5t-71.5 -1.5t-35.5 -0.5q-47 0 -60 15q-1 9 3 20.5t11 23t16.5 21.5t18.5 16q9 3 30 -1.5t48 -11.5t58 -15t61 -11.5t56.5 -1.5t44.5 15q22 15 39 38.5t32 54.5t30 69.5t32 84.5q-11 -1 -21.5 -1h-21.5q-25 -1 -30 -0.5t-5 2.5
q0 5 12 17.5t34 33.5q8 0 21 -0.5t30 -0.5l19 48q26 66 55.5 124t60.5 104.5t64 79.5t66 50l7 -2q-18 -9 -40 -47.5t-46 -91.5t-49 -113.5t-47 -112.5q-5 -11 -9 -20t-8 -19h54t56 1q25 1 30 1t5 -2q0 -5 -12 -17.5t-34 -33.5h-20t-29.5 0.5t-34.5 0.5h-34h-4
q-102 -211 -215 -270q13 -1 51 -2t86.5 -0.5t101 2t94.5 4.5q63 4 111.5 16.5t86.5 36t67.5 60.5t55.5 91q28 60 37.5 123t-1 123t-40.5 113t-79.5 93t-119.5 63.5t-160 23.5q-82 0 -148 -14t-118 -46t-92.5 -83.5t-71.5 -126.5q-7 -30 -27 -43t-47 -13q-29 0 -33 16.5
t14 44.5q39 60 103 116t142 98.5t163 67t165 22.5q95 0 168.5 -25.5t126 -68.5t84 -98.5t43 -116.5t2.5 -122t-37 -115q-27 -49 -78 -100t-115 -92.5t-135 -68t-137 -26.5z" />
    <glyph glyph-name="Ntilde" unicode="&#xd1;" horiz-adv-x="947" 
d="M673 57q-13 -21 -24.5 -41t-16.5 -25t-11.5 -4t-7.5 6l-47 382q-12 101 -22 174.5t-20 125.5l-254 -379q-68 -101 -124.5 -184.5t-116.5 -143t-131 -92t-167 -32.5q-30 0 -65.5 5.5t-66 13t-51.5 15t-24 10.5q-3 4 3.5 14.5t17.5 21.5t23.5 20.5t21.5 12.5q7 2 31.5 -6.5
t59.5 -20t79.5 -21t92.5 -9.5q49 0 93.5 24.5t91 74t100 125t121.5 176.5l263 390q-13 65 -28 98t-37 47q-15 9 -34 9t-41 -8q-12 -4 -42.5 -23.5t-65 -43.5t-66.5 -48.5t-48 -37.5l-6 7q16 13 50 40t74 56.5t78.5 56t64.5 40.5q7 4 21 7.5t29 5t29.5 0.5t24.5 -5
q21 -9 37 -40t30 -90t27 -148.5t27 -216.5l35 -302q73 120 147 237.5t144 217.5q63 91 114.5 148.5t97.5 90.5t90 45t92 12q30 0 66 -3.5t69 -8t58 -9t32 -6.5q4 -1 4 -4q0 -5 -8.5 -15t-19.5 -20.5t-22.5 -18.5t-18.5 -8h-6.5t-9.5 1q-17 2 -45.5 8t-63 12t-72 11t-71.5 5
q-30 0 -59.5 -13t-62 -43t-71 -78t-87.5 -118q-84 -119 -158 -239t-147 -241zM747 906q22 28 37.5 47.5t27.5 31.5t21.5 17.5t19.5 5.5q18 0 40 -10t45 -22t44 -22t36 -10q7 0 12.5 1t12 7t15.5 18t25 34q5 6 9 4t-1 -9q-36 -53 -62.5 -81.5t-52.5 -28.5q-17 0 -38.5 11
t-44 23.5t-43.5 23.5t-37 11q-5 0 -8.5 -1.5t-9.5 -7.5t-15 -17.5t-25 -30.5q-7 -8 -9.5 -5.5t1.5 10.5z" />
    <glyph glyph-name="Ograve" unicode="&#xd2;" horiz-adv-x="972" 
d="M466 36q57 -1 108 13.5t94.5 42.5t80.5 67t66 88q36 57 56.5 120t24 124t-11 116t-49 97t-89 66.5t-131.5 24.5q-117 0 -201.5 -56.5t-146.5 -158.5q-36 -58 -57 -120t-24.5 -122t11 -114.5t48.5 -96t89 -66t132 -25.5zM408 -2q-82 0 -140.5 25.5t-96 68.5t-53.5 98.5
t-13.5 116.5t23.5 122t59 115q37 56 93.5 108t121 91.5t132.5 63.5t128 24q84 0 144 -25.5t97.5 -68.5t54.5 -98.5t14.5 -116.5t-23.5 -122t-59 -115q-37 -56 -92.5 -108t-120.5 -91.5t-134.5 -63.5t-134.5 -24zM778 896q-21 22 -47 43.5t-50 40t-42.5 32t-23.5 18.5t-9 9.5
t-4 9.5q0 8 0.5 13.5t2.5 7.5t7.5 2.5t12.5 0.5q8 0 15 -1t11 -5q4 -5 17.5 -23.5t31.5 -43t40 -51t43 -46.5q3 -3 3 -5q0 -4 -4 -4q-2 0 -4 2z" />
    <glyph glyph-name="Oacute" unicode="&#xd3;" horiz-adv-x="972" 
d="M466 36q57 -1 108 13.5t94.5 42.5t80.5 67t66 88q36 57 56.5 120t24 124t-11 116t-49 97t-89 66.5t-131.5 24.5q-117 0 -201.5 -56.5t-146.5 -158.5q-36 -58 -57 -120t-24.5 -122t11 -114.5t48.5 -96t89 -66t132 -25.5zM408 -2q-82 0 -140.5 25.5t-96 68.5t-53.5 98.5
t-13.5 116.5t23.5 122t59 115q37 56 93.5 108t121 91.5t132.5 63.5t128 24q84 0 144 -25.5t97.5 -68.5t54.5 -98.5t14.5 -116.5t-23.5 -122t-59 -115q-37 -56 -92.5 -108t-120.5 -91.5t-134.5 -63.5t-134.5 -24zM753 886q-2 -2 -4 -2q-4 0 -4 4q0 2 3 5q21 20 43 46.5t40 51
t31 43t18 23.5q4 4 11 5t15 1q7 0 12.5 -0.5t7.5 -2.5t2.5 -7.5t0.5 -13.5q0 -5 -4 -9.5t-9 -9.5t-23.5 -18.5t-42.5 -32t-50 -40t-47 -43.5z" />
    <glyph glyph-name="Ocircumflex" unicode="&#xd4;" horiz-adv-x="972" 
d="M466 36q57 -1 108 13.5t94.5 42.5t80.5 67t66 88q36 57 56.5 120t24 124t-11 116t-49 97t-89 66.5t-131.5 24.5q-117 0 -201.5 -56.5t-146.5 -158.5q-36 -58 -57 -120t-24.5 -122t11 -114.5t48.5 -96t89 -66t132 -25.5zM408 -2q-82 0 -140.5 25.5t-96 68.5t-53.5 98.5
t-13.5 116.5t23.5 122t59 115q37 56 93.5 108t121 91.5t132.5 63.5t128 24q84 0 144 -25.5t97.5 -68.5t54.5 -98.5t14.5 -116.5t-23.5 -122t-59 -115q-37 -56 -92.5 -108t-120.5 -91.5t-134.5 -63.5t-134.5 -24zM785 1042q-2 4 -6 0q-14 -16 -32 -34t-37 -34.5t-36 -30.5
t-29 -23q-9 -6 -18.5 -12t-20.5 -5q-11 2 -16 7.5t-4 10.5q0 3 3 11t20 19q15 9 36 21t44.5 25.5t46.5 27.5t42 27q6 6 11 -1q16 -21 28 -35.5t21.5 -26.5t19 -22.5t21.5 -22.5q14 -13 17.5 -20.5t2.5 -12.5q0 -9 -7 -15.5t-15 -5.5q-23 1 -37 27q-12 23 -24.5 55t-30.5 70z
" />
    <glyph glyph-name="Otilde" unicode="&#xd5;" horiz-adv-x="972" 
d="M466 36q57 -1 108 13.5t94.5 42.5t80.5 67t66 88q36 57 56.5 120t24 124t-11 116t-49 97t-89 66.5t-131.5 24.5q-117 0 -201.5 -56.5t-146.5 -158.5q-36 -58 -57 -120t-24.5 -122t11 -114.5t48.5 -96t89 -66t132 -25.5zM408 -2q-82 0 -140.5 25.5t-96 68.5t-53.5 98.5
t-13.5 116.5t23.5 122t59 115q37 56 93.5 108t121 91.5t132.5 63.5t128 24q84 0 144 -25.5t97.5 -68.5t54.5 -98.5t14.5 -116.5t-23.5 -122t-59 -115q-37 -56 -92.5 -108t-120.5 -91.5t-134.5 -63.5t-134.5 -24zM600 926q22 28 37.5 47.5t27.5 31.5t21.5 17.5t19.5 5.5
q18 0 40 -10t45 -22t44 -22t36 -10q7 0 12.5 1t12 7t15.5 18t25 34q5 6 9 4t-1 -9q-36 -53 -62.5 -81.5t-52.5 -28.5q-17 0 -38.5 11t-44 23.5t-43.5 23.5t-37 11q-5 0 -8.5 -1.5t-9.5 -7.5t-15 -17.5t-25 -30.5q-7 -8 -9.5 -5.5t1.5 10.5z" />
    <glyph glyph-name="Odieresis" unicode="&#xd6;" horiz-adv-x="972" 
d="M466 36q57 -1 108 13.5t94.5 42.5t80.5 67t66 88q36 57 56.5 120t24 124t-11 116t-49 97t-89 66.5t-131.5 24.5q-117 0 -201.5 -56.5t-146.5 -158.5q-36 -58 -57 -120t-24.5 -122t11 -114.5t48.5 -96t89 -66t132 -25.5zM408 -2q-82 0 -140.5 25.5t-96 68.5t-53.5 98.5
t-13.5 116.5t23.5 122t59 115q37 56 93.5 108t121 91.5t132.5 63.5t128 24q84 0 144 -25.5t97.5 -68.5t54.5 -98.5t14.5 -116.5t-23.5 -122t-59 -115q-37 -56 -92.5 -108t-120.5 -91.5t-134.5 -63.5t-134.5 -24zM816 959q0 23 15.5 39t38.5 16t39 -16t16 -39t-16 -38.5
t-39 -15.5t-38.5 15.5t-15.5 38.5zM598 959q0 23 15.5 39t38.5 16t39 -16t16 -39t-16 -38.5t-39 -15.5t-38.5 15.5t-15.5 38.5z" />
    <glyph glyph-name="multiply" unicode="&#xd7;" horiz-adv-x="603" 
d="M156 93q-8 1 -14 7.5t-9 11.5q36 29 73 63t79 76q-41 41 -75.5 71.5t-68.5 59.5q-1 5 5 11.5t11 9.5q29 -37 62 -70l74 -74l1 1q44 44 78 82t59 65q7 0 12 -5t8 -10q-34 -24 -69 -60t-79 -80l-1 -1q44 -44 80.5 -76.5t65.5 -55.5q0 -7 -6.5 -12t-11.5 -8
q-24 33 -58.5 66.5t-77.5 77.5q-41 -41 -76.5 -78t-61.5 -72z" />
    <glyph glyph-name="Oslash" unicode="&#xd8;" horiz-adv-x="972" 
d="M408 -2q-51 0 -92.5 10t-74.5 28l-43 -59q-14 -1 -17.5 -0.5t-10.5 8.5l51 62q-57 38 -85.5 97.5t-31.5 127.5t18.5 139t64.5 133q37 56 93.5 108t121 91.5t132.5 63.5t128 24q43 0 79 -7t67 -20l60 81q13 0 15.5 -2t10.5 -10q-32 -36 -66 -78q45 -23 75.5 -57.5t47 -77
t21 -90t-4 -97t-28 -97.5t-49.5 -91q-37 -56 -92.5 -108t-120.5 -91.5t-134.5 -63.5t-134.5 -24zM466 36q57 -1 108 13.5t94.5 42.5t80.5 67t66 88q42 66 63 138.5t18.5 140.5t-29 126t-79.5 95q-32 -40 -65.5 -82t-66 -84t-63.5 -82.5t-58 -76.5q-60 -77 -125 -161.5
t-128 -168.5q34 -26 79.5 -40.5t104.5 -15.5zM772 757q-32 18 -70.5 28t-86.5 10q-117 0 -201.5 -56.5t-146.5 -158.5q-39 -62 -60 -129.5t-22 -131t19 -120t63 -95.5q66 82 131 165t125 159z" />
    <glyph glyph-name="Ugrave" unicode="&#xd9;" horiz-adv-x="928" 
d="M836 424q-47 -77 -82.5 -134t-59 -100t-34.5 -74t-10 -54q1 -8 5 -17t9.5 -17t11.5 -14t12 -7q12 3 39 21.5t57.5 42t59.5 47t44 36.5l5 -7q-15 -13 -44 -38.5t-63.5 -54t-68.5 -54t-58 -38.5q-3 -2 -9.5 -2.5t-13.5 0t-12.5 1.5t-7.5 3q-16 13 -30.5 34t-17.5 50
q-2 34 11.5 71t41.5 86q-35 -39 -83 -83.5t-99.5 -82t-100.5 -62.5t-85 -25q-38 0 -70.5 17t-57 45.5t-39.5 66.5t-17 80t11 83.5t37.5 85t57.5 89t70 95.5q34 45 62.5 83t49.5 69.5t32 56.5t10 45q-2 15 -9 28t-18 27q-12 -3 -41 -21t-62.5 -41t-64 -46t-45.5 -36l-6 8
q14 12 45.5 37t68 52t72 51.5t59.5 37.5q4 2 10.5 2.5t13.5 -0.5t12.5 -2.5t7.5 -2.5q15 -13 22.5 -34.5t12.5 -50.5q3 -23 -10 -53t-37 -67.5t-57.5 -82t-70.5 -95.5q-35 -47 -64.5 -90t-50.5 -82t-32 -74t-9 -66q2 -29 12 -60t29.5 -57.5t48.5 -43.5t69 -17
q19 0 46.5 12.5t58.5 33t64 46.5t63.5 53t56.5 53t44 47q26 43 59.5 95.5t75.5 121.5q55 89 87.5 140.5t50 82.5t22 49.5t3.5 42.5q-2 15 -9 28t-19 27q-12 -3 -41 -21t-62 -40.5t-63.5 -45t-45.5 -35.5l-6 8q14 12 45.5 37t67.5 52t72 51.5t59 37.5q4 2 10.5 2.5t13.5 -0.5
t12.5 -2.5t7.5 -2.5q16 -13 23 -34.5t13 -50.5q1 -23 -5.5 -47t-26 -61.5t-55 -95.5t-91.5 -149zM707 886q-21 22 -47 43.5t-50 40t-42.5 32t-23.5 18.5t-9 9.5t-4 9.5q0 8 0.5 13.5t2.5 7.5t7.5 2.5t12.5 0.5q8 0 15 -1t11 -5q4 -5 17.5 -23.5t31.5 -43t40 -51t43 -46.5
q3 -3 3 -5q0 -4 -4 -4q-2 0 -4 2z" />
    <glyph glyph-name="Uacute" unicode="&#xda;" horiz-adv-x="928" 
d="M836 424q-47 -77 -82.5 -134t-59 -100t-34.5 -74t-10 -54q1 -8 5 -17t9.5 -17t11.5 -14t12 -7q12 3 39 21.5t57.5 42t59.5 47t44 36.5l5 -7q-15 -13 -44 -38.5t-63.5 -54t-68.5 -54t-58 -38.5q-3 -2 -9.5 -2.5t-13.5 0t-12.5 1.5t-7.5 3q-16 13 -30.5 34t-17.5 50
q-2 34 11.5 71t41.5 86q-35 -39 -83 -83.5t-99.5 -82t-100.5 -62.5t-85 -25q-38 0 -70.5 17t-57 45.5t-39.5 66.5t-17 80t11 83.5t37.5 85t57.5 89t70 95.5q34 45 62.5 83t49.5 69.5t32 56.5t10 45q-2 15 -9 28t-18 27q-12 -3 -41 -21t-62.5 -41t-64 -46t-45.5 -36l-6 8
q14 12 45.5 37t68 52t72 51.5t59.5 37.5q4 2 10.5 2.5t13.5 -0.5t12.5 -2.5t7.5 -2.5q15 -13 22.5 -34.5t12.5 -50.5q3 -23 -10 -53t-37 -67.5t-57.5 -82t-70.5 -95.5q-35 -47 -64.5 -90t-50.5 -82t-32 -74t-9 -66q2 -29 12 -60t29.5 -57.5t48.5 -43.5t69 -17
q19 0 46.5 12.5t58.5 33t64 46.5t63.5 53t56.5 53t44 47q26 43 59.5 95.5t75.5 121.5q55 89 87.5 140.5t50 82.5t22 49.5t3.5 42.5q-2 15 -9 28t-19 27q-12 -3 -41 -21t-62 -40.5t-63.5 -45t-45.5 -35.5l-6 8q14 12 45.5 37t67.5 52t72 51.5t59 37.5q4 2 10.5 2.5t13.5 -0.5
t12.5 -2.5t7.5 -2.5q16 -13 23 -34.5t13 -50.5q1 -23 -5.5 -47t-26 -61.5t-55 -95.5t-91.5 -149zM649 886q-2 -2 -4 -2q-4 0 -4 4q0 2 3 5q21 20 43 46.5t40 51t31 43t18 23.5q4 4 11 5t15 1q7 0 12.5 -0.5t7.5 -2.5t2.5 -7.5t0.5 -13.5q0 -5 -4 -9.5t-9 -9.5t-23.5 -18.5
t-42.5 -32t-50 -40t-47 -43.5z" />
    <glyph glyph-name="Ucircumflex" unicode="&#xdb;" horiz-adv-x="928" 
d="M836 424q-47 -77 -82.5 -134t-59 -100t-34.5 -74t-10 -54q1 -8 5 -17t9.5 -17t11.5 -14t12 -7q12 3 39 21.5t57.5 42t59.5 47t44 36.5l5 -7q-15 -13 -44 -38.5t-63.5 -54t-68.5 -54t-58 -38.5q-3 -2 -9.5 -2.5t-13.5 0t-12.5 1.5t-7.5 3q-16 13 -30.5 34t-17.5 50
q-2 34 11.5 71t41.5 86q-35 -39 -83 -83.5t-99.5 -82t-100.5 -62.5t-85 -25q-38 0 -70.5 17t-57 45.5t-39.5 66.5t-17 80t11 83.5t37.5 85t57.5 89t70 95.5q34 45 62.5 83t49.5 69.5t32 56.5t10 45q-2 15 -9 28t-18 27q-12 -3 -41 -21t-62.5 -41t-64 -46t-45.5 -36l-6 8
q14 12 45.5 37t68 52t72 51.5t59.5 37.5q4 2 10.5 2.5t13.5 -0.5t12.5 -2.5t7.5 -2.5q15 -13 22.5 -34.5t12.5 -50.5q3 -23 -10 -53t-37 -67.5t-57.5 -82t-70.5 -95.5q-35 -47 -64.5 -90t-50.5 -82t-32 -74t-9 -66q2 -29 12 -60t29.5 -57.5t48.5 -43.5t69 -17
q19 0 46.5 12.5t58.5 33t64 46.5t63.5 53t56.5 53t44 47q26 43 59.5 95.5t75.5 121.5q55 89 87.5 140.5t50 82.5t22 49.5t3.5 42.5q-2 15 -9 28t-19 27q-12 -3 -41 -21t-62 -40.5t-63.5 -45t-45.5 -35.5l-6 8q14 12 45.5 37t67.5 52t72 51.5t59 37.5q4 2 10.5 2.5t13.5 -0.5
t12.5 -2.5t7.5 -2.5q16 -13 23 -34.5t13 -50.5q1 -23 -5.5 -47t-26 -61.5t-55 -95.5t-91.5 -149zM728 1042q-2 4 -6 0q-14 -16 -32 -34t-37 -34.5t-36 -30.5t-29 -23q-9 -6 -18.5 -12t-20.5 -5q-11 2 -16 7.5t-4 10.5q0 3 3 11t20 19q15 9 36 21t44.5 25.5t46.5 27.5t42 27
q6 6 11 -1q16 -21 28 -35.5t21.5 -26.5t19 -22.5t21.5 -22.5q14 -13 17.5 -20.5t2.5 -12.5q0 -9 -7 -15.5t-15 -5.5q-23 1 -37 27q-12 23 -24.5 55t-30.5 70z" />
    <glyph glyph-name="Udieresis" unicode="&#xdc;" horiz-adv-x="928" 
d="M836 424q-47 -77 -82.5 -134t-59 -100t-34.5 -74t-10 -54q1 -8 5 -17t9.5 -17t11.5 -14t12 -7q12 3 39 21.5t57.5 42t59.5 47t44 36.5l5 -7q-15 -13 -44 -38.5t-63.5 -54t-68.5 -54t-58 -38.5q-3 -2 -9.5 -2.5t-13.5 0t-12.5 1.5t-7.5 3q-16 13 -30.5 34t-17.5 50
q-2 34 11.5 71t41.5 86q-35 -39 -83 -83.5t-99.5 -82t-100.5 -62.5t-85 -25q-38 0 -70.5 17t-57 45.5t-39.5 66.5t-17 80t11 83.5t37.5 85t57.5 89t70 95.5q34 45 62.5 83t49.5 69.5t32 56.5t10 45q-2 15 -9 28t-18 27q-12 -3 -41 -21t-62.5 -41t-64 -46t-45.5 -36l-6 8
q14 12 45.5 37t68 52t72 51.5t59.5 37.5q4 2 10.5 2.5t13.5 -0.5t12.5 -2.5t7.5 -2.5q15 -13 22.5 -34.5t12.5 -50.5q3 -23 -10 -53t-37 -67.5t-57.5 -82t-70.5 -95.5q-35 -47 -64.5 -90t-50.5 -82t-32 -74t-9 -66q2 -29 12 -60t29.5 -57.5t48.5 -43.5t69 -17
q19 0 46.5 12.5t58.5 33t64 46.5t63.5 53t56.5 53t44 47q26 43 59.5 95.5t75.5 121.5q55 89 87.5 140.5t50 82.5t22 49.5t3.5 42.5q-2 15 -9 28t-19 27q-12 -3 -41 -21t-62 -40.5t-63.5 -45t-45.5 -35.5l-6 8q14 12 45.5 37t67.5 52t72 51.5t59 37.5q4 2 10.5 2.5t13.5 -0.5
t12.5 -2.5t7.5 -2.5q16 -13 23 -34.5t13 -50.5q1 -23 -5.5 -47t-26 -61.5t-55 -95.5t-91.5 -149zM527 948q0 23 15.5 39t38.5 16t39 -16t16 -39t-16 -38.5t-39 -15.5t-38.5 15.5t-15.5 38.5zM745 948q0 23 15.5 39t38.5 16t39 -16t16 -39t-16 -38.5t-39 -15.5t-38.5 15.5
t-15.5 38.5z" />
    <glyph glyph-name="Yacute" unicode="&#xdd;" horiz-adv-x="599" 
d="M256 3q-46 0 -92.5 -0.5t-87.5 -1t-74 -1t-53 -0.5q-7 0 -2.5 8.5t14.5 19t22 19t20 8.5q64 0 109.5 9.5t80 29t61 49.5t52 71.5t53.5 95t65 119.5q-16 95 -39.5 176t-55.5 126q-11 15 -30 24t-33 14q-13 -4 -38 -17.5t-53 -31t-54.5 -36t-42.5 -31.5l-5 7q16 13 46 35
t64.5 46t69 47t61.5 37q8 4 18 3t15 -4q13 -8 29 -25t22 -28q23 -41 39.5 -86t28.5 -88.5t19 -84t10 -71.5q91 76 175 144.5t145 122.5q74 66 130 114t88 79q12 12 22.5 11.5t16 -7.5t3.5 -18t-14 -20q-21 -14 -49 -33.5t-59.5 -42t-64 -46.5t-63.5 -48q-38 -30 -80 -64
t-85.5 -70.5t-87.5 -75t-84 -77.5q-30 -55 -53 -97.5t-44.5 -75t-44 -57.5t-52 -46.5t-68 -41.5t-92.5 -42q40 0 91 3.5t100 8t89 8t59 3.5q8 0 5 -9.5t-11.5 -21.5t-20.5 -23t-22 -14q-6 -3 -15 -3.5t-27 -0.5t-48 1t-78 1zM630 871q-2 -2 -4 -2q-4 0 -4 4q0 2 3 5
q21 20 43 46.5t40 51t31 43t18 23.5q4 4 11 5t15 1q7 0 12.5 -0.5t7.5 -2.5t2.5 -7.5t0.5 -13.5q0 -5 -4 -9.5t-9 -9.5t-23.5 -18.5t-42.5 -32t-50 -40t-47 -43.5z" />
    <glyph glyph-name="Thorn" unicode="&#xde;" horiz-adv-x="925" 
d="M464 421q34 73 65.5 132.5t63.5 105.5t67 78.5t75 50.5q-24 2 -57 0.5t-69 -6t-72 -10t-66 -11t-51.5 -9t-28.5 -3.5t-3 8.5t14 20t22.5 22t22.5 14.5q6 3 26 4.5t45 1.5h50.5h42.5q47 0 105.5 1.5t111.5 3t91.5 3t46.5 1.5q48 0 59 -14q2 -10 -12 -25t-33 -27
q-14 -4 -48 3t-75 12.5t-81.5 4.5t-67.5 -20q-28 -19 -46 -51.5t-34.5 -77t-35.5 -100t-48 -121.5q-13 -28 -25.5 -53.5t-25.5 -49.5q28 33 63 71t73 76t76.5 73t73 62.5t62.5 45t45 20.5q20 -6 29.5 -24.5t11 -44.5t-3 -57t-14 -61t-22 -56.5t-25.5 -44.5
q-23 -30 -55.5 -62t-71 -58.5t-81 -44t-84.5 -17.5q-38 0 -70 9t-60 26q-45 -68 -91 -114t-88 -69q10 -4 35.5 -2.5t60 6t74 10t76.5 11t67.5 9t48.5 2.5q10 0 8.5 -12t-11.5 -25.5t-27.5 -25t-41.5 -11.5l-139 3q-72 0 -139 -1.5t-120 -3t-88 -2.5t-43 -1q-46 0 -59 15
q0 5 4.5 12.5t12 15t16.5 13t16 7.5q9 3 27 0t41.5 -7t50.5 -8t55 -4q32 0 58 5t47 22q26 21 45.5 54t38.5 77.5t39.5 100t49.5 121.5zM631 211q23 0 48 12.5t47.5 32t41 42t30.5 43.5q18 32 30 72.5t16 79.5t-1 70t-22 43q-12 -5 -51 -35t-89.5 -77t-104.5 -106t-97 -120
q29 -23 68.5 -40t83.5 -17z" />
    <glyph glyph-name="germandbls" unicode="&#xdf;" horiz-adv-x="635" 
d="M341 -8q-32 -1 -62 11.5t-45 37.5q-8 13 -8.5 31.5t6.5 35.5t21.5 31t36.5 20l4 -3q-2 -31 9.5 -58.5t33.5 -46.5q53 -47 116 -21q22 10 28.5 29.5t1 48.5t-20.5 67t-34 86q-13 33 -12 67t11 67q7 24 22.5 43.5t35.5 36t44 31.5t49 29q48 27 86.5 53.5t55.5 63.5
q12 27 9.5 52t-17.5 44t-41 30.5t-61 11.5q-33 0 -65 -12t-67 -42.5t-74 -84t-86 -135.5q-46 -83 -81.5 -150t-67 -129t-63.5 -123t-71 -131q-34 -62 -74 -105.5t-79.5 -71t-76 -40.5t-63.5 -13q-49 0 -75 22.5t-26 57.5q0 30 19.5 53.5t48.5 28.5q-2 -14 -0.5 -33t4.5 -33
q6 -27 24 -51t45 -24q18 0 34 5t35.5 25t46 60.5t66.5 112.5q21 39 52 99t65 126.5t68 132.5t61 116h-62q-6 2 -6.5 6t3.5 6l110 64q42 64 93.5 117t106 90.5t109.5 58.5t104 21q38 0 66 -13t44 -34t18.5 -47.5t-9.5 -53.5q-12 -26 -34 -44.5t-49.5 -33.5t-59 -28.5
t-61.5 -30.5q-41 -23 -68.5 -43.5t-38.5 -54.5t-1 -72t27 -74q39 -85 36.5 -151t-61.5 -103q-32 -20 -64 -29.5t-72 -9.5z" />
    <glyph glyph-name="agrave" unicode="&#xe0;" horiz-adv-x="579" 
d="M303 84q-2 23 8.5 49.5t26 52.5t33 51t30.5 46q-33 -35 -71 -73t-77 -75t-76.5 -71t-68.5 -61q-7 -5 -21.5 -4t-18.5 4q-18 14 -27 41t-9 61.5t7.5 73.5t22.5 75q24 60 67 107.5t91.5 81t95.5 51.5t80 18q18 0 33.5 -2.5t31 -10t32.5 -22t39 -38.5q11 9 32 29.5t38 38.5
q6 6 8 3q1 -2 1 -5q-16 -20 -39.5 -53t-48.5 -71.5t-50 -80.5t-44.5 -81t-31 -72t-10.5 -54q1 -13 11 -25t25 -17q9 4 23.5 12.5t31 20t33.5 25.5t32 30l6 -7q-28 -27 -69 -63.5t-89 -65.5q-4 -2 -12.5 -3t-17.5 -0.5t-17 1.5t-9 3q-16 18 -23.5 41.5t-8.5 38.5zM131 53
q18 5 59 38.5t91 82.5t102.5 105.5t94.5 106.5q-24 31 -43.5 50.5t-36 31t-31 16t-29.5 4.5q-26 0 -55.5 -17.5t-57 -47.5t-51 -70t-38.5 -86q-24 -74 -24.5 -132.5t19.5 -81.5zM544 580q-21 22 -47 43.5t-50 40t-42.5 32t-23.5 18.5t-9 9.5t-4 9.5q0 8 0.5 13.5t2.5 7.5
t7.5 2.5t12.5 0.5q8 0 15 -1t11 -5q4 -5 17.5 -23.5t31.5 -43t40 -51t43 -46.5q3 -3 3 -5q0 -4 -4 -4q-2 0 -4 2z" />
    <glyph glyph-name="aacute" unicode="&#xe1;" horiz-adv-x="579" 
d="M303 84q-2 23 8.5 49.5t26 52.5t33 51t30.5 46q-33 -35 -71 -73t-77 -75t-76.5 -71t-68.5 -61q-7 -5 -21.5 -4t-18.5 4q-18 14 -27 41t-9 61.5t7.5 73.5t22.5 75q24 60 67 107.5t91.5 81t95.5 51.5t80 18q18 0 33.5 -2.5t31 -10t32.5 -22t39 -38.5q11 9 32 29.5t38 38.5
q6 6 8 3q1 -2 1 -5q-16 -20 -39.5 -53t-48.5 -71.5t-50 -80.5t-44.5 -81t-31 -72t-10.5 -54q1 -13 11 -25t25 -17q9 4 23.5 12.5t31 20t33.5 25.5t32 30l6 -7q-28 -27 -69 -63.5t-89 -65.5q-4 -2 -12.5 -3t-17.5 -0.5t-17 1.5t-9 3q-16 18 -23.5 41.5t-8.5 38.5zM131 53
q18 5 59 38.5t91 82.5t102.5 105.5t94.5 106.5q-24 31 -43.5 50.5t-36 31t-31 16t-29.5 4.5q-26 0 -55.5 -17.5t-57 -47.5t-51 -70t-38.5 -86q-24 -74 -24.5 -132.5t19.5 -81.5zM493 590q-2 -2 -4 -2q-4 0 -4 4q0 2 3 5q21 20 43 46.5t40 51t31 43t18 23.5q4 4 11 5t15 1
q7 0 12.5 -0.5t7.5 -2.5t2.5 -7.5t0.5 -13.5q0 -5 -4 -9.5t-9 -9.5t-23.5 -18.5t-42.5 -32t-50 -40t-47 -43.5z" />
    <glyph glyph-name="acircumflex" unicode="&#xe2;" horiz-adv-x="579" 
d="M303 84q-2 23 8.5 49.5t26 52.5t33 51t30.5 46q-33 -35 -71 -73t-77 -75t-76.5 -71t-68.5 -61q-7 -5 -21.5 -4t-18.5 4q-18 14 -27 41t-9 61.5t7.5 73.5t22.5 75q24 60 67 107.5t91.5 81t95.5 51.5t80 18q18 0 33.5 -2.5t31 -10t32.5 -22t39 -38.5q11 9 32 29.5t38 38.5
q6 6 8 3q1 -2 1 -5q-16 -20 -39.5 -53t-48.5 -71.5t-50 -80.5t-44.5 -81t-31 -72t-10.5 -54q1 -13 11 -25t25 -17q9 4 23.5 12.5t31 20t33.5 25.5t32 30l6 -7q-28 -27 -69 -63.5t-89 -65.5q-4 -2 -12.5 -3t-17.5 -0.5t-17 1.5t-9 3q-16 18 -23.5 41.5t-8.5 38.5zM131 53
q18 5 59 38.5t91 82.5t102.5 105.5t94.5 106.5q-24 31 -43.5 50.5t-36 31t-31 16t-29.5 4.5q-26 0 -55.5 -17.5t-57 -47.5t-51 -70t-38.5 -86q-24 -74 -24.5 -132.5t19.5 -81.5zM560 722q-2 4 -6 0q-14 -16 -32 -34t-37 -34.5t-36 -30.5t-29 -23q-9 -6 -18.5 -12t-20.5 -5
q-11 2 -16 7.5t-4 10.5q0 3 3 11t20 19q15 9 36 21t44.5 25.5t46.5 27.5t42 27q6 6 11 -1q16 -21 28 -35.5t21.5 -26.5t19 -22.5t21.5 -22.5q14 -13 17.5 -20.5t2.5 -12.5q0 -9 -7 -15.5t-15 -5.5q-23 1 -37 27q-12 23 -24.5 55t-30.5 70z" />
    <glyph glyph-name="atilde" unicode="&#xe3;" horiz-adv-x="579" 
d="M303 84q-2 23 8.5 49.5t26 52.5t33 51t30.5 46q-33 -35 -71 -73t-77 -75t-76.5 -71t-68.5 -61q-7 -5 -21.5 -4t-18.5 4q-18 14 -27 41t-9 61.5t7.5 73.5t22.5 75q24 60 67 107.5t91.5 81t95.5 51.5t80 18q18 0 33.5 -2.5t31 -10t32.5 -22t39 -38.5q11 9 32 29.5t38 38.5
q6 6 8 3q1 -2 1 -5q-16 -20 -39.5 -53t-48.5 -71.5t-50 -80.5t-44.5 -81t-31 -72t-10.5 -54q1 -13 11 -25t25 -17q9 4 23.5 12.5t31 20t33.5 25.5t32 30l6 -7q-28 -27 -69 -63.5t-89 -65.5q-4 -2 -12.5 -3t-17.5 -0.5t-17 1.5t-9 3q-16 18 -23.5 41.5t-8.5 38.5zM131 53
q18 5 59 38.5t91 82.5t102.5 105.5t94.5 106.5q-24 31 -43.5 50.5t-36 31t-31 16t-29.5 4.5q-26 0 -55.5 -17.5t-57 -47.5t-51 -70t-38.5 -86q-24 -74 -24.5 -132.5t19.5 -81.5zM358 600q22 28 37.5 47.5t27.5 31.5t21.5 17.5t19.5 5.5q18 0 40 -10t45 -22t44 -22t36 -10
q7 0 12.5 1t12 7t15.5 18t25 34q5 6 9 4t-1 -9q-36 -53 -62.5 -81.5t-52.5 -28.5q-17 0 -38.5 11t-44 23.5t-43.5 23.5t-37 11q-5 0 -8.5 -1.5t-9.5 -7.5t-15 -17.5t-25 -30.5q-7 -8 -9.5 -5.5t1.5 10.5z" />
    <glyph glyph-name="adieresis" unicode="&#xe4;" horiz-adv-x="579" 
d="M303 84q-2 23 8.5 49.5t26 52.5t33 51t30.5 46q-33 -35 -71 -73t-77 -75t-76.5 -71t-68.5 -61q-7 -5 -21.5 -4t-18.5 4q-18 14 -27 41t-9 61.5t7.5 73.5t22.5 75q24 60 67 107.5t91.5 81t95.5 51.5t80 18q18 0 33.5 -2.5t31 -10t32.5 -22t39 -38.5q11 9 32 29.5t38 38.5
q6 6 8 3q1 -2 1 -5q-16 -20 -39.5 -53t-48.5 -71.5t-50 -80.5t-44.5 -81t-31 -72t-10.5 -54q1 -13 11 -25t25 -17q9 4 23.5 12.5t31 20t33.5 25.5t32 30l6 -7q-28 -27 -69 -63.5t-89 -65.5q-4 -2 -12.5 -3t-17.5 -0.5t-17 1.5t-9 3q-16 18 -23.5 41.5t-8.5 38.5zM131 53
q18 5 59 38.5t91 82.5t102.5 105.5t94.5 106.5q-24 31 -43.5 50.5t-36 31t-31 16t-29.5 4.5q-26 0 -55.5 -17.5t-57 -47.5t-51 -70t-38.5 -86q-24 -74 -24.5 -132.5t19.5 -81.5zM588 648q0 23 15.5 39t38.5 16t39 -16t16 -39t-16 -38.5t-39 -15.5t-38.5 15.5t-15.5 38.5z
M370 648q0 23 15.5 39t38.5 16t39 -16t16 -39t-16 -38.5t-39 -15.5t-38.5 15.5t-15.5 38.5z" />
    <glyph glyph-name="aring" unicode="&#xe5;" horiz-adv-x="579" 
d="M303 84q-2 23 8.5 49.5t26 52.5t33 51t30.5 46q-33 -35 -71 -73t-77 -75t-76.5 -71t-68.5 -61q-7 -5 -21.5 -4t-18.5 4q-18 14 -27 41t-9 61.5t7.5 73.5t22.5 75q24 60 67 107.5t91.5 81t95.5 51.5t80 18q18 0 33.5 -2.5t31 -10t32.5 -22t39 -38.5q11 9 32 29.5t38 38.5
q6 6 8 3q1 -2 1 -5q-16 -20 -39.5 -53t-48.5 -71.5t-50 -80.5t-44.5 -81t-31 -72t-10.5 -54q1 -13 11 -25t25 -17q9 4 23.5 12.5t31 20t33.5 25.5t32 30l6 -7q-28 -27 -69 -63.5t-89 -65.5q-4 -2 -12.5 -3t-17.5 -0.5t-17 1.5t-9 3q-16 18 -23.5 41.5t-8.5 38.5zM131 53
q18 5 59 38.5t91 82.5t102.5 105.5t94.5 106.5q-24 31 -43.5 50.5t-36 31t-31 16t-29.5 4.5q-26 0 -55.5 -17.5t-57 -47.5t-51 -70t-38.5 -86q-24 -74 -24.5 -132.5t19.5 -81.5zM459 660q0 34 23.5 57.5t57.5 23.5t57.5 -23.5t23.5 -57.5t-23.5 -57.5t-57.5 -23.5
t-57.5 23.5t-23.5 57.5zM472 660q0 -28 20 -48t48 -20t48 20t20 48t-20 48t-48 20t-48 -20t-20 -48z" />
    <glyph glyph-name="ae" unicode="&#xe6;" horiz-adv-x="816" 
d="M108 3q-7 -5 -21.5 -4t-18.5 4q-18 14 -27 41t-9 61.5t7.5 73.5t22.5 75q24 60 67 107.5t91.5 81t95.5 51.5t80 18q18 0 33 -2.5t31 -10.5t34.5 -23.5t43.5 -42.5q17 14 33.5 25t32.5 20q29 16 61.5 26t62.5 10q34 0 59.5 -11.5t29.5 -35.5t-14 -53t-62.5 -65.5
t-117.5 -83.5t-179 -108q-1 -24 0 -46q8 -29 23 -45t35 -21q24 -7 58 0t62 20q10 4 26 15t33.5 25t34.5 30t29 31l9 -5q-31 -37 -73 -69.5t-82 -54.5q-26 -14 -59.5 -28.5t-69.5 -14.5q-15 0 -30.5 6t-29 17t-24.5 25t-17 31q-4 15 -7 35.5t1 48t16.5 63t39.5 80.5l5 9
q-32 -37 -72.5 -78.5t-83 -82t-84.5 -78t-76 -67.5zM131 53q18 5 59 38.5t91 82.5t102.5 105.5t94.5 106.5q-24 31 -43.5 50.5t-36 31t-31 16t-29.5 4.5q-26 0 -55.5 -17.5t-57 -47.5t-51 -70t-38.5 -86q-24 -74 -24.5 -132.5t19.5 -81.5zM738 383q9 23 0.5 43.5t-26.5 35
t-42.5 19.5t-46.5 -2q-22 -15 -50 -47t-54.5 -74.5t-47 -92t-26.5 -98.5q74 44 127 76.5t87.5 57t53.5 44.5t25 38z" />
    <glyph glyph-name="ccedilla" unicode="&#xe7;" horiz-adv-x="493" 
d="M23 -242q0 19 11.5 33t29.5 14q15 0 26.5 -8t23.5 -17t25.5 -17t31.5 -8q23 0 37 19t14 42q0 15 -8.5 29t-29 25t-54.5 17t-85 6q-11 0 -5 11l73 97q-23 9 -41.5 26.5t-26.5 42.5q-4 15 -8 36t-1.5 49t14 64t38.5 81q29 51 85.5 100t124.5 86q29 16 58.5 23.5t62.5 7.5
q48 0 71 -18.5t23 -45.5q0 -13 -6 -23t-15 -17.5t-19 -12t-18 -5.5q-9 36 -34 63.5t-74 27.5q-14 0 -23.5 -1.5t-20.5 -4.5q-37 -26 -68.5 -60.5t-56.5 -76.5q-32 -53 -48 -112.5t-11 -119.5q8 -29 25 -45t37 -21q24 -7 57 -1t61 19q10 4 24.5 13.5t30.5 22.5t32 27.5
t28 29.5l9 -5q-31 -37 -66.5 -64.5t-75.5 -49.5q-26 -14 -58.5 -28.5t-68.5 -14.5q-15 0 -32 5l-31 -47q-4 -3 -1 -3h6q40 0 69 -7.5t48 -18.5t27.5 -25.5t8.5 -27.5q0 -23 -10 -49.5t-28 -49.5t-42.5 -38.5t-53.5 -15.5q-37 0 -64.5 11.5t-27.5 29.5z" />
    <glyph glyph-name="egrave" unicode="&#xe8;" horiz-adv-x="486" 
d="M488 467q4 -24 -14 -53t-62.5 -65.5t-117.5 -83.5t-179 -108q-1 -24 0 -46q8 -29 23 -45t35 -21q24 -7 58 0t62 20q10 4 26 15t33.5 25t34.5 30t29 31l9 -5q-31 -37 -73 -69.5t-82 -54.5q-26 -14 -59.5 -28.5t-69.5 -14.5q-15 0 -30.5 6t-29 17t-24.5 25t-17 31
q-4 15 -7 35.5t1 48t16.5 63t39.5 80.5q14 25 35.5 51t46 49.5t51.5 43.5t52 34q29 16 61.5 26t62.5 10q34 0 59.5 -11.5t29.5 -35.5zM409 383q9 23 0.5 43.5t-26.5 35t-42.5 19.5t-46.5 -2q-22 -15 -50 -47t-54.5 -74.5t-47 -92t-26.5 -98.5q74 44 127 76.5t87.5 57
t53.5 44.5t25 38zM437 585q-21 22 -47 43.5t-50 40t-42.5 32t-23.5 18.5t-9 9.5t-4 9.5q0 8 0.5 13.5t2.5 7.5t7.5 2.5t12.5 0.5q8 0 15 -1t11 -5q4 -5 17.5 -23.5t31.5 -43t40 -51t43 -46.5q3 -3 3 -5q0 -4 -4 -4q-2 0 -4 2z" />
    <glyph glyph-name="eacute" unicode="&#xe9;" horiz-adv-x="486" 
d="M488 467q4 -24 -14 -53t-62.5 -65.5t-117.5 -83.5t-179 -108q-1 -24 0 -46q8 -29 23 -45t35 -21q24 -7 58 0t62 20q10 4 26 15t33.5 25t34.5 30t29 31l9 -5q-31 -37 -73 -69.5t-82 -54.5q-26 -14 -59.5 -28.5t-69.5 -14.5q-15 0 -30.5 6t-29 17t-24.5 25t-17 31
q-4 15 -7 35.5t1 48t16.5 63t39.5 80.5q14 25 35.5 51t46 49.5t51.5 43.5t52 34q29 16 61.5 26t62.5 10q34 0 59.5 -11.5t29.5 -35.5zM409 383q9 23 0.5 43.5t-26.5 35t-42.5 19.5t-46.5 -2q-22 -15 -50 -47t-54.5 -74.5t-47 -92t-26.5 -98.5q74 44 127 76.5t87.5 57
t53.5 44.5t25 38zM419 590q-2 -2 -4 -2q-4 0 -4 4q0 2 3 5q21 20 43 46.5t40 51t31 43t18 23.5q4 4 11 5t15 1q7 0 12.5 -0.5t7.5 -2.5t2.5 -7.5t0.5 -13.5q0 -5 -4 -9.5t-9 -9.5t-23.5 -18.5t-42.5 -32t-50 -40t-47 -43.5z" />
    <glyph glyph-name="ecircumflex" unicode="&#xea;" horiz-adv-x="486" 
d="M488 467q4 -24 -14 -53t-62.5 -65.5t-117.5 -83.5t-179 -108q-1 -24 0 -46q8 -29 23 -45t35 -21q24 -7 58 0t62 20q10 4 26 15t33.5 25t34.5 30t29 31l9 -5q-31 -37 -73 -69.5t-82 -54.5q-26 -14 -59.5 -28.5t-69.5 -14.5q-15 0 -30.5 6t-29 17t-24.5 25t-17 31
q-4 15 -7 35.5t1 48t16.5 63t39.5 80.5q14 25 35.5 51t46 49.5t51.5 43.5t52 34q29 16 61.5 26t62.5 10q34 0 59.5 -11.5t29.5 -35.5zM409 383q9 23 0.5 43.5t-26.5 35t-42.5 19.5t-46.5 -2q-22 -15 -50 -47t-54.5 -74.5t-47 -92t-26.5 -98.5q74 44 127 76.5t87.5 57
t53.5 44.5t25 38zM449 731q-2 4 -6 0q-14 -16 -32 -34t-37 -34.5t-36 -30.5t-29 -23q-9 -6 -18.5 -12t-20.5 -5q-11 2 -16 7.5t-4 10.5q0 3 3 11t20 19q15 9 36 21t44.5 25.5t46.5 27.5t42 27q6 6 11 -1q16 -21 28 -35.5t21.5 -26.5t19 -22.5t21.5 -22.5q14 -13 17.5 -20.5
t2.5 -12.5q0 -9 -7 -15.5t-15 -5.5q-23 1 -37 27q-12 23 -24.5 55t-30.5 70z" />
    <glyph glyph-name="edieresis" unicode="&#xeb;" horiz-adv-x="486" 
d="M488 467q4 -24 -14 -53t-62.5 -65.5t-117.5 -83.5t-179 -108q-1 -24 0 -46q8 -29 23 -45t35 -21q24 -7 58 0t62 20q10 4 26 15t33.5 25t34.5 30t29 31l9 -5q-31 -37 -73 -69.5t-82 -54.5q-26 -14 -59.5 -28.5t-69.5 -14.5q-15 0 -30.5 6t-29 17t-24.5 25t-17 31
q-4 15 -7 35.5t1 48t16.5 63t39.5 80.5q14 25 35.5 51t46 49.5t51.5 43.5t52 34q29 16 61.5 26t62.5 10q34 0 59.5 -11.5t29.5 -35.5zM409 383q9 23 0.5 43.5t-26.5 35t-42.5 19.5t-46.5 -2q-22 -15 -50 -47t-54.5 -74.5t-47 -92t-26.5 -98.5q74 44 127 76.5t87.5 57
t53.5 44.5t25 38zM481 648q0 23 15.5 39t38.5 16t39 -16t16 -39t-16 -38.5t-39 -15.5t-38.5 15.5t-15.5 38.5zM263 648q0 23 15.5 39t38.5 16t39 -16t16 -39t-16 -38.5t-39 -15.5t-38.5 15.5t-15.5 38.5z" />
    <glyph glyph-name="igrave" unicode="&#xec;" horiz-adv-x="309" 
d="M292 430q0 -15 -12 -37.5t-29 -47.5t-35.5 -51t-31.5 -47q-15 -24 -29.5 -47t-26.5 -44t-19 -39t-6 -32q1 -13 14.5 -22.5t28.5 -14.5q12 4 27 13t31 20.5t32 25.5t30 28l6 -7q-28 -27 -67.5 -61.5t-87.5 -63.5q-4 -2 -12 -3t-17 -0.5t-16.5 1.5t-9.5 3
q-19 14 -29.5 36.5t-11.5 37.5t8 37.5t22.5 47.5t30 51t30.5 49q20 33 36 57t28 43t20 33.5t11 26.5q4 14 -7.5 28t-22.5 16q-9 -3 -24.5 -12t-33 -21t-35 -25.5t-31.5 -25.5l-7 5q13 13 33.5 30t43.5 34t46 33t42 28q17 10 33 3q9 -4 17.5 -14.5t15 -23.5t11 -26t4.5 -22z
M319 579q-21 22 -47 43.5t-50 40t-42.5 32t-23.5 18.5t-9 9.5t-4 9.5q0 8 0.5 13.5t2.5 7.5t7.5 2.5t12.5 0.5q8 0 15 -1t11 -5q4 -5 17.5 -23.5t31.5 -43t40 -51t43 -46.5q3 -3 3 -5q0 -4 -4 -4q-2 0 -4 2z" />
    <glyph glyph-name="iacute" unicode="&#xed;" horiz-adv-x="309" 
d="M292 430q0 -15 -12 -37.5t-29 -47.5t-35.5 -51t-31.5 -47q-15 -24 -29.5 -47t-26.5 -44t-19 -39t-6 -32q1 -13 14.5 -22.5t28.5 -14.5q12 4 27 13t31 20.5t32 25.5t30 28l6 -7q-28 -27 -67.5 -61.5t-87.5 -63.5q-4 -2 -12 -3t-17 -0.5t-16.5 1.5t-9.5 3
q-19 14 -29.5 36.5t-11.5 37.5t8 37.5t22.5 47.5t30 51t30.5 49q20 33 36 57t28 43t20 33.5t11 26.5q4 14 -7.5 28t-22.5 16q-9 -3 -24.5 -12t-33 -21t-35 -25.5t-31.5 -25.5l-7 5q13 13 33.5 30t43.5 34t46 33t42 28q17 10 33 3q9 -4 17.5 -14.5t15 -23.5t11 -26t4.5 -22z
M302 586q-2 -2 -4 -2q-4 0 -4 4q0 2 3 5q21 20 43 46.5t40 51t31 43t18 23.5q4 4 11 5t15 1q7 0 12.5 -0.5t7.5 -2.5t2.5 -7.5t0.5 -13.5q0 -5 -4 -9.5t-9 -9.5t-23.5 -18.5t-42.5 -32t-50 -40t-47 -43.5z" />
    <glyph glyph-name="icircumflex" unicode="&#xee;" horiz-adv-x="309" 
d="M292 430q0 -15 -12 -37.5t-29 -47.5t-35.5 -51t-31.5 -47q-15 -24 -29.5 -47t-26.5 -44t-19 -39t-6 -32q1 -13 14.5 -22.5t28.5 -14.5q12 4 27 13t31 20.5t32 25.5t30 28l6 -7q-28 -27 -67.5 -61.5t-87.5 -63.5q-4 -2 -12 -3t-17 -0.5t-16.5 1.5t-9.5 3
q-19 14 -29.5 36.5t-11.5 37.5t8 37.5t22.5 47.5t30 51t30.5 49q20 33 36 57t28 43t20 33.5t11 26.5q4 14 -7.5 28t-22.5 16q-9 -3 -24.5 -12t-33 -21t-35 -25.5t-31.5 -25.5l-7 5q13 13 33.5 30t43.5 34t46 33t42 28q17 10 33 3q9 -4 17.5 -14.5t15 -23.5t11 -26t4.5 -22z
M347 716q-2 4 -6 0q-14 -16 -32 -34t-37 -34.5t-36 -30.5t-29 -23q-9 -6 -18.5 -12t-20.5 -5q-11 2 -16 7.5t-4 10.5q0 3 3 11t20 19q15 9 36 21t44.5 25.5t46.5 27.5t42 27q6 6 11 -1q16 -21 28 -35.5t21.5 -26.5t19 -22.5t21.5 -22.5q14 -13 17.5 -20.5t2.5 -12.5
q0 -9 -7 -15.5t-15 -5.5q-23 1 -37 27q-12 23 -24.5 55t-30.5 70z" />
    <glyph glyph-name="idieresis" unicode="&#xef;" horiz-adv-x="309" 
d="M292 430q0 -15 -12 -37.5t-29 -47.5t-35.5 -51t-31.5 -47q-15 -24 -29.5 -47t-26.5 -44t-19 -39t-6 -32q1 -13 14.5 -22.5t28.5 -14.5q12 4 27 13t31 20.5t32 25.5t30 28l6 -7q-28 -27 -67.5 -61.5t-87.5 -63.5q-4 -2 -12 -3t-17 -0.5t-16.5 1.5t-9.5 3
q-19 14 -29.5 36.5t-11.5 37.5t8 37.5t22.5 47.5t30 51t30.5 49q20 33 36 57t28 43t20 33.5t11 26.5q4 14 -7.5 28t-22.5 16q-9 -3 -24.5 -12t-33 -21t-35 -25.5t-31.5 -25.5l-7 5q13 13 33.5 30t43.5 34t46 33t42 28q17 10 33 3q9 -4 17.5 -14.5t15 -23.5t11 -26t4.5 -22z
M353 638q0 23 15.5 39t38.5 16t39 -16t16 -39t-16 -38.5t-39 -15.5t-38.5 15.5t-15.5 38.5zM135 638q0 23 15.5 39t38.5 16t39 -16t16 -39t-16 -38.5t-39 -15.5t-38.5 15.5t-15.5 38.5z" />
    <glyph glyph-name="eth" unicode="&#xf0;" horiz-adv-x="534" 
d="M150 -6q-18 0 -35.5 6t-32.5 17t-26.5 25t-17.5 31q-4 15 -7 35.5t1 48t16.5 63t39.5 80.5q14 25 35.5 51.5t46.5 50.5t52 44.5t52 34.5q29 16 60.5 26t51.5 10q54 0 77 -24q5 51 5.5 100t-2.5 93q-47 -17 -86.5 -32t-71.5 -29q-6 1 -9 9.5t1 13.5q32 9 73.5 20.5
t92.5 27.5q-3 42 -8 75.5t-11 53.5q-4 10 -0.5 11.5t7.5 -10.5q11 -31 21 -61.5t18 -59.5q54 17 97.5 36.5t75.5 31.5q6 -2 10 -10t-1 -13q-38 -11 -82 -23.5t-98 -29.5q35 -134 28.5 -251t-69.5 -219q-42 -75 -92.5 -119.5t-102.5 -73.5q-26 -14 -53 -27t-56 -13zM171 45
q24 -7 54 -2t60 17q13 7 29 26.5t32 47t31 60.5t27 66q13 35 24 72.5t16 61.5q-8 39 -28.5 59.5t-45.5 28.5q-18 6 -39 5.5t-41 -6.5q-25 -15 -57.5 -54.5t-60.5 -91t-46 -110.5t-13 -114q8 -29 23 -45t35 -21z" />
    <glyph glyph-name="ntilde" unicode="&#xf1;" horiz-adv-x="620" 
d="M59 4q-8 0 -21 -1.5t-24.5 1t-17 11.5t2.5 30q15 20 34.5 49.5t40.5 63.5t41.5 70.5t36 70.5t24.5 63.5t8 50.5q-1 13 -8.5 25t-23.5 17q-21 -5 -54.5 -27t-62.5 -54l-7 7q14 13 32.5 29.5t39.5 33.5t44 33t46 29q18 10 31 1.5t22 -25t14 -36.5t6 -32q1 -20 -6.5 -45
t-20.5 -53t-28.5 -56t-29.5 -52q43 55 94.5 106.5t101.5 93t93 69.5t69 36q23 -5 34 -22t6.5 -48t-25 -78t-59.5 -113q-14 -24 -27.5 -47t-24.5 -44t-17.5 -39t-5.5 -32q1 -13 7.5 -24t21.5 -16q12 4 27 12.5t31.5 20t32.5 25t30 27.5l6 -7q-28 -27 -67.5 -61.5t-87.5 -63.5
q-8 -5 -24.5 -3.5t-20.5 4.5q-9 7 -16 17.5t-12 21.5t-7.5 21.5t-2.5 18.5q-1 15 8 37.5t23 47.5t30 50.5t29 48.5q31 54 47.5 88t21.5 55t1 32.5t-13 19.5q-22 -7 -60 -32t-83.5 -65.5t-94 -93.5t-91.5 -115q-13 -19 -26 -40.5t-25.5 -41.5t-23.5 -38.5t-19 -31.5zM272 585
q22 28 37.5 47.5t27.5 31.5t21.5 17.5t19.5 5.5q18 0 40 -10t45 -22t44 -22t36 -10q7 0 12.5 1t12 7t15.5 18t25 34q5 6 9 4t-1 -9q-36 -53 -62.5 -81.5t-52.5 -28.5q-17 0 -38.5 11t-44 23.5t-43.5 23.5t-37 11q-5 0 -8.5 -1.5t-9.5 -7.5t-15 -17.5t-25 -30.5
q-7 -8 -9.5 -5.5t1.5 10.5z" />
    <glyph glyph-name="ograve" unicode="&#xf2;" horiz-adv-x="532" 
d="M441 200q-15 -26 -35.5 -50t-44.5 -45t-50.5 -39t-52.5 -32t-52.5 -27t-55.5 -13q-18 0 -35.5 6t-32.5 17t-26.5 25t-17.5 31q-4 15 -7 35.5t1 48t16.5 63t39.5 80.5q14 25 35.5 51.5t46.5 50.5t52 44.5t52 34.5q29 16 59.5 26t58.5 10h1q34 0 63 -23.5t40 -56.5
q4 -13 5.5 -35.5t-3.5 -53t-18.5 -68t-38.5 -80.5zM171 45q24 -7 54 -2t60 17q14 7 30 26.5t31.5 47.5t30 61.5t25 67.5t16 67t4.5 60q-6 70 -53 86q-8 2 -28.5 7.5t-50.5 -2.5q-25 -15 -57.5 -54.5t-60.5 -91t-46 -110.5t-13 -114q8 -29 23 -45t35 -21zM441 586
q-21 22 -47 43.5t-50 40t-42.5 32t-23.5 18.5t-9 9.5t-4 9.5q0 8 0.5 13.5t2.5 7.5t7.5 2.5t12.5 0.5q8 0 15 -1t11 -5q4 -5 17.5 -23.5t31.5 -43t40 -51t43 -46.5q3 -3 3 -5q0 -4 -4 -4q-2 0 -4 2z" />
    <glyph glyph-name="oacute" unicode="&#xf3;" horiz-adv-x="532" 
d="M441 200q-15 -26 -35.5 -50t-44.5 -45t-50.5 -39t-52.5 -32t-52.5 -27t-55.5 -13q-18 0 -35.5 6t-32.5 17t-26.5 25t-17.5 31q-4 15 -7 35.5t1 48t16.5 63t39.5 80.5q14 25 35.5 51.5t46.5 50.5t52 44.5t52 34.5q29 16 59.5 26t58.5 10h1q34 0 63 -23.5t40 -56.5
q4 -13 5.5 -35.5t-3.5 -53t-18.5 -68t-38.5 -80.5zM171 45q24 -7 54 -2t60 17q14 7 30 26.5t31.5 47.5t30 61.5t25 67.5t16 67t4.5 60q-6 70 -53 86q-8 2 -28.5 7.5t-50.5 -2.5q-25 -15 -57.5 -54.5t-60.5 -91t-46 -110.5t-13 -114q8 -29 23 -45t35 -21zM428 590
q-2 -2 -4 -2q-4 0 -4 4q0 2 3 5q21 20 43 46.5t40 51t31 43t18 23.5q4 4 11 5t15 1q7 0 12.5 -0.5t7.5 -2.5t2.5 -7.5t0.5 -13.5q0 -5 -4 -9.5t-9 -9.5t-23.5 -18.5t-42.5 -32t-50 -40t-47 -43.5z" />
    <glyph glyph-name="ocircumflex" unicode="&#xf4;" horiz-adv-x="532" 
d="M441 200q-15 -26 -35.5 -50t-44.5 -45t-50.5 -39t-52.5 -32t-52.5 -27t-55.5 -13q-18 0 -35.5 6t-32.5 17t-26.5 25t-17.5 31q-4 15 -7 35.5t1 48t16.5 63t39.5 80.5q14 25 35.5 51.5t46.5 50.5t52 44.5t52 34.5q29 16 59.5 26t58.5 10h1q34 0 63 -23.5t40 -56.5
q4 -13 5.5 -35.5t-3.5 -53t-18.5 -68t-38.5 -80.5zM171 45q24 -7 54 -2t60 17q14 7 30 26.5t31.5 47.5t30 61.5t25 67.5t16 67t4.5 60q-6 70 -53 86q-8 2 -28.5 7.5t-50.5 -2.5q-25 -15 -57.5 -54.5t-60.5 -91t-46 -110.5t-13 -114q8 -29 23 -45t35 -21zM478 722q-2 4 -6 0
q-14 -16 -32 -34t-37 -34.5t-36 -30.5t-29 -23q-9 -6 -18.5 -12t-20.5 -5q-11 2 -16 7.5t-4 10.5q0 3 3 11t20 19q15 9 36 21t44.5 25.5t46.5 27.5t42 27q6 6 11 -1q16 -21 28 -35.5t21.5 -26.5t19 -22.5t21.5 -22.5q14 -13 17.5 -20.5t2.5 -12.5q0 -9 -7 -15.5t-15 -5.5
q-23 1 -37 27q-12 23 -24.5 55t-30.5 70z" />
    <glyph glyph-name="otilde" unicode="&#xf5;" horiz-adv-x="532" 
d="M441 200q-15 -26 -35.5 -50t-44.5 -45t-50.5 -39t-52.5 -32t-52.5 -27t-55.5 -13q-18 0 -35.5 6t-32.5 17t-26.5 25t-17.5 31q-4 15 -7 35.5t1 48t16.5 63t39.5 80.5q14 25 35.5 51.5t46.5 50.5t52 44.5t52 34.5q29 16 59.5 26t58.5 10h1q34 0 63 -23.5t40 -56.5
q4 -13 5.5 -35.5t-3.5 -53t-18.5 -68t-38.5 -80.5zM171 45q24 -7 54 -2t60 17q14 7 30 26.5t31.5 47.5t30 61.5t25 67.5t16 67t4.5 60q-6 70 -53 86q-8 2 -28.5 7.5t-50.5 -2.5q-25 -15 -57.5 -54.5t-60.5 -91t-46 -110.5t-13 -114q8 -29 23 -45t35 -21zM291 595
q22 28 37.5 47.5t27.5 31.5t21.5 17.5t19.5 5.5q18 0 40 -10t45 -22t44 -22t36 -10q7 0 12.5 1t12 7t15.5 18t25 34q5 6 9 4t-1 -9q-36 -53 -62.5 -81.5t-52.5 -28.5q-17 0 -38.5 11t-44 23.5t-43.5 23.5t-37 11q-5 0 -8.5 -1.5t-9.5 -7.5t-15 -17.5t-25 -30.5
q-7 -8 -9.5 -5.5t1.5 10.5z" />
    <glyph glyph-name="odieresis" unicode="&#xf6;" horiz-adv-x="532" 
d="M441 200q-15 -26 -35.5 -50t-44.5 -45t-50.5 -39t-52.5 -32t-52.5 -27t-55.5 -13q-18 0 -35.5 6t-32.5 17t-26.5 25t-17.5 31q-4 15 -7 35.5t1 48t16.5 63t39.5 80.5q14 25 35.5 51.5t46.5 50.5t52 44.5t52 34.5q29 16 59.5 26t58.5 10h1q34 0 63 -23.5t40 -56.5
q4 -13 5.5 -35.5t-3.5 -53t-18.5 -68t-38.5 -80.5zM171 45q24 -7 54 -2t60 17q14 7 30 26.5t31.5 47.5t30 61.5t25 67.5t16 67t4.5 60q-6 70 -53 86q-8 2 -28.5 7.5t-50.5 -2.5q-25 -15 -57.5 -54.5t-60.5 -91t-46 -110.5t-13 -114q8 -29 23 -45t35 -21zM507 638
q0 23 15.5 39t38.5 16t39 -16t16 -39t-16 -38.5t-39 -15.5t-38.5 15.5t-15.5 38.5zM289 638q0 23 15.5 39t38.5 16t39 -16t16 -39t-16 -38.5t-39 -15.5t-38.5 15.5t-15.5 38.5z" />
    <glyph glyph-name="divide" unicode="&#xf7;" horiz-adv-x="558" 
d="M272 251q31 0 54.5 0.5t43.5 1.5t37.5 2t35.5 2q5 -4 5 -12.5t-5 -11.5q-20 1 -38 2.5t-37 2.5t-42 1.5t-53 0.5t-53 -0.5t-42 -1.5t-37 -2.5t-38 -2.5q-5 3 -5 11.5t5 12.5q18 -1 35.5 -2t37 -2t43 -1.5t53.5 -0.5zM237 109q0 16 10.5 27t27.5 11q15 0 26.5 -11
t11.5 -27t-11.5 -27t-26.5 -11q-17 0 -27.5 11t-10.5 27zM237 383q0 16 10.5 27t27.5 11q15 0 26.5 -11t11.5 -27t-11.5 -27t-26.5 -11q-17 0 -27.5 11t-10.5 27z" />
    <glyph glyph-name="oslash" unicode="&#xf8;" horiz-adv-x="532" 
d="M441 200q-15 -26 -35.5 -50t-44.5 -45t-50.5 -39t-52.5 -32t-52.5 -27t-55.5 -13q-18 0 -36 6l-61 -104q-13 -2 -16.5 -2t-11.5 8q21 32 39 57t33 48q-21 11 -36.5 28t-22.5 38q-4 15 -7 35.5t1 48t16.5 63t39.5 80.5q14 25 35.5 51.5t46.5 50.5t52 44.5t52 34.5
q29 16 59.5 26t58.5 10h1q3 0 6.5 -0.5t7.5 -0.5l57 95q13 1 16 -0.5t11 -7.5l-65 -93q24 -9 43 -28.5t27 -44.5q4 -13 5.5 -35.5t-3.5 -53t-18.5 -68t-38.5 -80.5zM171 45q24 -7 54 -2t60 17q14 7 30 26.5t31.5 47.5t30 61.5t25 67.5t16 67t4.5 60q-5 48 -26 69
q-31 -48 -61 -97.5l-70 -115.5q-20 -31 -36 -56.5t-30 -48t-26.5 -43.5t-25.5 -42q12 -8 24 -11zM252 253q41 66 72 117t59 99q-4 3 -14 7q-8 2 -28.5 7.5t-50.5 -2.5q-25 -15 -57.5 -54.5t-60.5 -91t-46 -110.5t-13 -114q8 -30 22 -44l26 40t27 42.5t29.5 48t34.5 55.5z
" />
    <glyph glyph-name="ugrave" unicode="&#xf9;" horiz-adv-x="607" 
d="M266 414q0 -10 -7 -28.5t-18.5 -41t-25 -47t-26.5 -47.5q-31 -56 -54.5 -95t-32.5 -65q-2 -18 12 -28t28 -14q19 0 53.5 25t77.5 67t90.5 98t91.5 118q13 19 25.5 39.5t23 40t19 35.5t15.5 27q12 3 27.5 6.5t27.5 2t17.5 -10.5t-2.5 -30q-14 -19 -33.5 -49.5t-41.5 -66
t-43.5 -73.5t-39.5 -73.5t-29.5 -65.5t-12.5 -48q-1 -13 12 -24t28 -16q12 4 27 12.5t31.5 20t32.5 25t30 27.5l6 -7q-28 -27 -67.5 -61.5t-87.5 -63.5q-4 -2 -12.5 -3t-17.5 -0.5t-16.5 1.5t-9.5 3q-9 7 -16 17.5t-11.5 21.5t-7 21.5t-3.5 18.5q-2 15 8 41t25.5 56t34 62
t34.5 59q-43 -55 -90.5 -107.5t-92.5 -94.5t-84 -69.5t-64 -32.5q-8 1 -19.5 5t-23.5 12t-22.5 20t-14.5 29q-2 12 7 32t24 45.5t34 56.5t38 66q26 48 46 87.5t18 67.5q-1 12 -9 22t-24 15q-21 -5 -54.5 -27t-62.5 -54l-7 7q14 13 32.5 29.5t39.5 33.5t44 33t46 29
q18 10 32 1.5t23.5 -25t15 -36.5t6.5 -32zM428 565q-21 22 -47 43.5t-50 40t-42.5 32t-23.5 18.5t-9 9.5t-4 9.5q0 8 0.5 13.5t2.5 7.5t7.5 2.5t12.5 0.5q8 0 15 -1t11 -5q4 -5 17.5 -23.5t31.5 -43t40 -51t43 -46.5q3 -3 3 -5q0 -4 -4 -4q-2 0 -4 2z" />
    <glyph glyph-name="uacute" unicode="&#xfa;" horiz-adv-x="607" 
d="M266 414q0 -10 -7 -28.5t-18.5 -41t-25 -47t-26.5 -47.5q-31 -56 -54.5 -95t-32.5 -65q-2 -18 12 -28t28 -14q19 0 53.5 25t77.5 67t90.5 98t91.5 118q13 19 25.5 39.5t23 40t19 35.5t15.5 27q12 3 27.5 6.5t27.5 2t17.5 -10.5t-2.5 -30q-14 -19 -33.5 -49.5t-41.5 -66
t-43.5 -73.5t-39.5 -73.5t-29.5 -65.5t-12.5 -48q-1 -13 12 -24t28 -16q12 4 27 12.5t31.5 20t32.5 25t30 27.5l6 -7q-28 -27 -67.5 -61.5t-87.5 -63.5q-4 -2 -12.5 -3t-17.5 -0.5t-16.5 1.5t-9.5 3q-9 7 -16 17.5t-11.5 21.5t-7 21.5t-3.5 18.5q-2 15 8 41t25.5 56t34 62
t34.5 59q-43 -55 -90.5 -107.5t-92.5 -94.5t-84 -69.5t-64 -32.5q-8 1 -19.5 5t-23.5 12t-22.5 20t-14.5 29q-2 12 7 32t24 45.5t34 56.5t38 66q26 48 46 87.5t18 67.5q-1 12 -9 22t-24 15q-21 -5 -54.5 -27t-62.5 -54l-7 7q14 13 32.5 29.5t39.5 33.5t44 33t46 29
q18 10 32 1.5t23.5 -25t15 -36.5t6.5 -32zM387 565q-2 -2 -4 -2q-4 0 -4 4q0 2 3 5q21 20 43 46.5t40 51t31 43t18 23.5q4 4 11 5t15 1q7 0 12.5 -0.5t7.5 -2.5t2.5 -7.5t0.5 -13.5q0 -5 -4 -9.5t-9 -9.5t-23.5 -18.5t-42.5 -32t-50 -40t-47 -43.5z" />
    <glyph glyph-name="ucircumflex" unicode="&#xfb;" horiz-adv-x="607" 
d="M266 414q0 -10 -7 -28.5t-18.5 -41t-25 -47t-26.5 -47.5q-31 -56 -54.5 -95t-32.5 -65q-2 -18 12 -28t28 -14q19 0 53.5 25t77.5 67t90.5 98t91.5 118q13 19 25.5 39.5t23 40t19 35.5t15.5 27q12 3 27.5 6.5t27.5 2t17.5 -10.5t-2.5 -30q-14 -19 -33.5 -49.5t-41.5 -66
t-43.5 -73.5t-39.5 -73.5t-29.5 -65.5t-12.5 -48q-1 -13 12 -24t28 -16q12 4 27 12.5t31.5 20t32.5 25t30 27.5l6 -7q-28 -27 -67.5 -61.5t-87.5 -63.5q-4 -2 -12.5 -3t-17.5 -0.5t-16.5 1.5t-9.5 3q-9 7 -16 17.5t-11.5 21.5t-7 21.5t-3.5 18.5q-2 15 8 41t25.5 56t34 62
t34.5 59q-43 -55 -90.5 -107.5t-92.5 -94.5t-84 -69.5t-64 -32.5q-8 1 -19.5 5t-23.5 12t-22.5 20t-14.5 29q-2 12 7 32t24 45.5t34 56.5t38 66q26 48 46 87.5t18 67.5q-1 12 -9 22t-24 15q-21 -5 -54.5 -27t-62.5 -54l-7 7q14 13 32.5 29.5t39.5 33.5t44 33t46 29
q18 10 32 1.5t23.5 -25t15 -36.5t6.5 -32zM457 716q-2 4 -6 0q-14 -16 -32 -34t-37 -34.5t-36 -30.5t-29 -23q-9 -6 -18.5 -12t-20.5 -5q-11 2 -16 7.5t-4 10.5q0 3 3 11t20 19q15 9 36 21t44.5 25.5t46.5 27.5t42 27q6 6 11 -1q16 -21 28 -35.5t21.5 -26.5t19 -22.5
t21.5 -22.5q14 -13 17.5 -20.5t2.5 -12.5q0 -9 -7 -15.5t-15 -5.5q-23 1 -37 27q-12 23 -24.5 55t-30.5 70z" />
    <glyph glyph-name="udieresis" unicode="&#xfc;" horiz-adv-x="607" 
d="M266 414q0 -10 -7 -28.5t-18.5 -41t-25 -47t-26.5 -47.5q-31 -56 -54.5 -95t-32.5 -65q-2 -18 12 -28t28 -14q19 0 53.5 25t77.5 67t90.5 98t91.5 118q13 19 25.5 39.5t23 40t19 35.5t15.5 27q12 3 27.5 6.5t27.5 2t17.5 -10.5t-2.5 -30q-14 -19 -33.5 -49.5t-41.5 -66
t-43.5 -73.5t-39.5 -73.5t-29.5 -65.5t-12.5 -48q-1 -13 12 -24t28 -16q12 4 27 12.5t31.5 20t32.5 25t30 27.5l6 -7q-28 -27 -67.5 -61.5t-87.5 -63.5q-4 -2 -12.5 -3t-17.5 -0.5t-16.5 1.5t-9.5 3q-9 7 -16 17.5t-11.5 21.5t-7 21.5t-3.5 18.5q-2 15 8 41t25.5 56t34 62
t34.5 59q-43 -55 -90.5 -107.5t-92.5 -94.5t-84 -69.5t-64 -32.5q-8 1 -19.5 5t-23.5 12t-22.5 20t-14.5 29q-2 12 7 32t24 45.5t34 56.5t38 66q26 48 46 87.5t18 67.5q-1 12 -9 22t-24 15q-21 -5 -54.5 -27t-62.5 -54l-7 7q14 13 32.5 29.5t39.5 33.5t44 33t46 29
q18 10 32 1.5t23.5 -25t15 -36.5t6.5 -32zM263 638q0 23 15.5 39t38.5 16t39 -16t16 -39t-16 -38.5t-39 -15.5t-38.5 15.5t-15.5 38.5zM481 638q0 23 15.5 39t38.5 16t39 -16t16 -39t-16 -38.5t-39 -15.5t-38.5 15.5t-15.5 38.5z" />
    <glyph glyph-name="yacute" unicode="&#xfd;" horiz-adv-x="575" 
d="M263 365q0 -31 -2.5 -74.5t-8 -88.5t-14 -87.5t-19.5 -70.5l105 109q85 88 135 148t53 96q-1 26 -14 41t-27 20q-36 -11 -97 -65l-6 6q11 11 32 28t45 34.5t47.5 32t39.5 19.5q7 1 16.5 -4t17 -15t11.5 -23t0 -27q-13 -28 -37.5 -61.5t-57 -71.5t-71.5 -79.5t-80 -84.5
q-61 -62 -124 -128t-146 -141q-33 -30 -74 -59.5t-87.5 -53t-98.5 -37.5t-108 -14q-13 0 -23.5 4t-15.5 13q-3 5 0 13t9 17t13.5 17t15.5 14h111q43 0 78.5 5.5t65.5 16.5t56 28.5t52 40.5t39 35.5t26 26.5q20 37 32.5 92t20 113.5t10.5 113t3 89.5q0 29 -3.5 55.5
t-16.5 42.5q-10 11 -29 10q-5 -2 -16 -8.5t-24.5 -15.5t-28 -20t-26.5 -22l-6 6q13 12 30.5 26.5t36.5 28.5t38.5 27t37.5 23q5 3 11 4.5t11 1.5q8 0 16.5 -3.5t14.5 -10.5q31 -34 31 -133zM366 586q-2 -2 -4 -2q-4 0 -4 4q0 2 3 5q21 20 43 46.5t40 51t31 43t18 23.5
q4 4 11 5t15 1q7 0 12.5 -0.5t7.5 -2.5t2.5 -7.5t0.5 -13.5q0 -5 -4 -9.5t-9 -9.5t-23.5 -18.5t-42.5 -32t-50 -40t-47 -43.5z" />
    <glyph glyph-name="thorn" unicode="&#xfe;" horiz-adv-x="610" 
d="M-146 -330q-12 0 -40.5 -1.5t-59 -3t-56.5 -3t-32 -1.5q-9 0 -10 5.5t7 6.5q36 4 61.5 8.5t47 16t42.5 33.5t47 61t60.5 98t83.5 145q18 32 43 77.5t54 99t60 111.5t61.5 115.5t58.5 110.5t50.5 96.5t38 74.5l21.5 43l15 34q-46 -38 -98.5 -72t-118.5 -72l-5 6
q43 27 80 51.5t69.5 48.5t61 49t54.5 54q9 10 14 13.5t8 3.5q15 0 19.5 -11t1 -29.5t-12.5 -42.5t-21 -50q-33 -74 -109 -213t-197 -356q32 37 68 76.5t72.5 77t71.5 70.5t66 58.5t55.5 40.5t40.5 16q19 -3 35.5 -26.5t22.5 -47.5q6 -22 4 -47.5t-8 -51.5t-16 -51t-21 -44
q-19 -35 -44 -64.5t-52 -54.5t-55 -45.5t-54 -36.5q-47 -26 -79.5 -39t-65.5 -13q-28 0 -53 22.5t-43 54.5q-2 -2 -11.5 -19.5t-25 -44.5t-34.5 -61t-39 -69q-47 -82 -105 -184q3 -5 18.5 -8t34.5 -5.5t37.5 -3.5t27.5 -1q8 0 7 -5.5t-12 -5.5q-8 0 -27 1t-40.5 1.5t-42 1.5
t-32.5 1zM263 36q19 0 34.5 3.5t38.5 15.5q15 13 31.5 27t32.5 32.5t32.5 43.5t31.5 60q32 70 39 124t1 80q-5 23 -12.5 31t-18.5 13q-9 -1 -31 -16.5t-52 -41.5t-64.5 -59.5t-69 -70t-66 -73.5t-54.5 -70q33 -54 61 -76.5t66 -22.5z" />
    <glyph glyph-name="ydieresis" unicode="&#xff;" horiz-adv-x="575" 
d="M263 365q0 -31 -2.5 -74.5t-8 -88.5t-14 -87.5t-19.5 -70.5l105 109q85 88 135 148t53 96q-1 26 -14 41t-27 20q-36 -11 -97 -65l-6 6q11 11 32 28t45 34.5t47.5 32t39.5 19.5q7 1 16.5 -4t17 -15t11.5 -23t0 -27q-13 -28 -37.5 -61.5t-57 -71.5t-71.5 -79.5t-80 -84.5
q-61 -62 -124 -128t-146 -141q-33 -30 -74 -59.5t-87.5 -53t-98.5 -37.5t-108 -14q-13 0 -23.5 4t-15.5 13q-3 5 0 13t9 17t13.5 17t15.5 14h111q43 0 78.5 5.5t65.5 16.5t56 28.5t52 40.5t39 35.5t26 26.5q20 37 32.5 92t20 113.5t10.5 113t3 89.5q0 29 -3.5 55.5
t-16.5 42.5q-10 11 -29 10q-5 -2 -16 -8.5t-24.5 -15.5t-28 -20t-26.5 -22l-6 6q13 12 30.5 26.5t36.5 28.5t38.5 27t37.5 23q5 3 11 4.5t11 1.5q8 0 16.5 -3.5t14.5 -10.5q31 -34 31 -133zM242 638q0 23 15.5 39t38.5 16t39 -16t16 -39t-16 -38.5t-39 -15.5t-38.5 15.5
t-15.5 38.5zM460 638q0 23 15.5 39t38.5 16t39 -16t16 -39t-16 -38.5t-39 -15.5t-38.5 15.5t-15.5 38.5z" />
    <glyph glyph-name="Amacron" unicode="&#x100;" horiz-adv-x="1349" 
d="M1118 783q-8 -39 -16.5 -87t-17.5 -99.5t-18.5 -104t-17.5 -100.5q57 -1 105 -1h83t69 -0.5t52 -1.5q7 0 2 -8t-16 -17t-24 -17.5t-22 -9.5q-21 -4 -39 -3.5t-49 0.5q-34 0 -77 1.5t-93 3.5l-19 -128q-8 -53 -4 -86t6 -44q3 -13 14.5 -20.5t25.5 -12.5q11 4 33 17.5
t46 31t46.5 35.5t35.5 32l6 -7q-14 -13 -37.5 -33.5t-50.5 -43t-55.5 -43.5t-50.5 -34q-4 -2 -11 -3t-14.5 -0.5t-13.5 1.5t-8 3q-18 14 -26 35t-9 35q-1 15 -2.5 27.5t-2 27.5t1 33t5.5 43t9.5 60t13.5 77q-64 3 -132 7t-137 8q-58 -71 -98.5 -120.5t-51.5 -60.5
q-66 -74 -111 -120t-80 -71.5t-66 -35t-68 -9.5q-62 0 -106 31t-68 75t-26 90.5t20 78.5q21 32 55 64.5t77.5 59t97 43t113.5 16.5q51 0 136.5 -0.5t187.5 -2.5l324 389q-39 0 -84 -1.5t-87 -5.5q-40 -5 -75.5 -10.5t-63.5 -10t-47.5 -8t-27.5 -3.5q-7 0 -0.5 9.5t18 21.5
t23 23.5t14.5 16.5q6 3 26 4.5t45 2.5t50.5 1h41.5h182q72 0 134 1t111 2.5t84 2.5t52 1q5 0 15 -0.5t17 -2.5q0 -5 -3 -13.5t-9 -17.5t-14 -17.5t-17 -14.5q-8 -2 -29.5 -1.5t-50 2.5t-61 5t-62.5 5.5t-55 4.5t-39 2h-15zM338 373q-42 0 -75 -8.5t-59 -26.5t-46 -45.5
t-36 -64.5q-17 -37 -13 -80.5t26.5 -81.5t62 -63.5t93.5 -25.5q14 0 26 0.5t25 6t29 17t39 33.5t54.5 56t75.5 85q23 25 62 73.5t91 109.5q-106 6 -199 10.5t-156 4.5zM738 395l249 -3q9 52 19.5 108t20.5 108t19 97t16 77zM1142 976h48.5t50.5 1q28 1 33.5 1t5.5 -2
q0 -5 -13.5 -19.5t-37.5 -37.5q-7 0 -32 1t-54 1q-13 0 -22.5 -0.5t-18.5 -1t-19 -1t-23 -0.5q-28 -1 -33.5 0t-5.5 3q0 5 13.5 19t37.5 37q7 0 24 -0.5t45 -0.5h1z" />
    <glyph glyph-name="amacron" unicode="&#x101;" horiz-adv-x="579" 
d="M303 84q-2 23 8.5 49.5t26 52.5t33 51t30.5 46q-33 -35 -71 -73t-77 -75t-76.5 -71t-68.5 -61q-7 -5 -21.5 -4t-18.5 4q-18 14 -27 41t-9 61.5t7.5 73.5t22.5 75q24 60 67 107.5t91.5 81t95.5 51.5t80 18q18 0 33.5 -2.5t31 -10t32.5 -22t39 -38.5q11 9 32 29.5t38 38.5
q6 6 8 3q1 -2 1 -5q-16 -20 -39.5 -53t-48.5 -71.5t-50 -80.5t-44.5 -81t-31 -72t-10.5 -54q1 -13 11 -25t25 -17q9 4 23.5 12.5t31 20t33.5 25.5t32 30l6 -7q-28 -27 -69 -63.5t-89 -65.5q-4 -2 -12.5 -3t-17.5 -0.5t-17 1.5t-9 3q-16 18 -23.5 41.5t-8.5 38.5zM131 53
q18 5 59 38.5t91 82.5t102.5 105.5t94.5 106.5q-24 31 -43.5 50.5t-36 31t-31 16t-29.5 4.5q-26 0 -55.5 -17.5t-57 -47.5t-51 -70t-38.5 -86q-24 -74 -24.5 -132.5t19.5 -81.5zM529 660h48.5t50.5 1q28 1 33.5 1t5.5 -2q0 -5 -13.5 -19.5t-37.5 -37.5q-7 0 -32 1t-54 1
q-13 0 -22.5 -0.5t-18.5 -1t-19 -1t-23 -0.5q-28 -1 -33.5 0t-5.5 3q0 5 13.5 19t37.5 37q7 0 24 -0.5t45 -0.5h1z" />
    <glyph glyph-name="Abreve" unicode="&#x102;" horiz-adv-x="1349" 
d="M1118 783q-8 -39 -16.5 -87t-17.5 -99.5t-18.5 -104t-17.5 -100.5q57 -1 105 -1h83t69 -0.5t52 -1.5q7 0 2 -8t-16 -17t-24 -17.5t-22 -9.5q-21 -4 -39 -3.5t-49 0.5q-34 0 -77 1.5t-93 3.5l-19 -128q-8 -53 -4 -86t6 -44q3 -13 14.5 -20.5t25.5 -12.5q11 4 33 17.5
t46 31t46.5 35.5t35.5 32l6 -7q-14 -13 -37.5 -33.5t-50.5 -43t-55.5 -43.5t-50.5 -34q-4 -2 -11 -3t-14.5 -0.5t-13.5 1.5t-8 3q-18 14 -26 35t-9 35q-1 15 -2.5 27.5t-2 27.5t1 33t5.5 43t9.5 60t13.5 77q-64 3 -132 7t-137 8q-58 -71 -98.5 -120.5t-51.5 -60.5
q-66 -74 -111 -120t-80 -71.5t-66 -35t-68 -9.5q-62 0 -106 31t-68 75t-26 90.5t20 78.5q21 32 55 64.5t77.5 59t97 43t113.5 16.5q51 0 136.5 -0.5t187.5 -2.5l324 389q-39 0 -84 -1.5t-87 -5.5q-40 -5 -75.5 -10.5t-63.5 -10t-47.5 -8t-27.5 -3.5q-7 0 -0.5 9.5t18 21.5
t23 23.5t14.5 16.5q6 3 26 4.5t45 2.5t50.5 1h41.5h182q72 0 134 1t111 2.5t84 2.5t52 1q5 0 15 -0.5t17 -2.5q0 -5 -3 -13.5t-9 -17.5t-14 -17.5t-17 -14.5q-8 -2 -29.5 -1.5t-50 2.5t-61 5t-62.5 5.5t-55 4.5t-39 2h-15zM338 373q-42 0 -75 -8.5t-59 -26.5t-46 -45.5
t-36 -64.5q-17 -37 -13 -80.5t26.5 -81.5t62 -63.5t93.5 -25.5q14 0 26 0.5t25 6t29 17t39 33.5t54.5 56t75.5 85q23 25 62 73.5t91 109.5q-106 6 -199 10.5t-156 4.5zM738 395l249 -3q9 52 19.5 108t20.5 108t19 97t16 77zM1141 910q-41 0 -73 22t-58 57q-3 5 -5 7.5
t-2 5.5q0 8 26 16q17 5 23 4.5t12 -8.5q29 -38 54.5 -59.5t57.5 -21.5q46 0 83 82q3 8 12 8q5 0 8.5 -3.5t-0.5 -8.5q-11 -19 -26.5 -37t-33.5 -32t-38 -22.5t-40 -9.5z" />
    <glyph glyph-name="abreve" unicode="&#x103;" horiz-adv-x="579" 
d="M303 84q-2 23 8.5 49.5t26 52.5t33 51t30.5 46q-33 -35 -71 -73t-77 -75t-76.5 -71t-68.5 -61q-7 -5 -21.5 -4t-18.5 4q-18 14 -27 41t-9 61.5t7.5 73.5t22.5 75q24 60 67 107.5t91.5 81t95.5 51.5t80 18q18 0 33.5 -2.5t31 -10t32.5 -22t39 -38.5q11 9 32 29.5t38 38.5
q6 6 8 3q1 -2 1 -5q-16 -20 -39.5 -53t-48.5 -71.5t-50 -80.5t-44.5 -81t-31 -72t-10.5 -54q1 -13 11 -25t25 -17q9 4 23.5 12.5t31 20t33.5 25.5t32 30l6 -7q-28 -27 -69 -63.5t-89 -65.5q-4 -2 -12.5 -3t-17.5 -0.5t-17 1.5t-9 3q-16 18 -23.5 41.5t-8.5 38.5zM131 53
q18 5 59 38.5t91 82.5t102.5 105.5t94.5 106.5q-24 31 -43.5 50.5t-36 31t-31 16t-29.5 4.5q-26 0 -55.5 -17.5t-57 -47.5t-51 -70t-38.5 -86q-24 -74 -24.5 -132.5t19.5 -81.5zM538 594q-41 0 -73 22t-58 57q-3 5 -5 7.5t-2 5.5q0 8 26 16q17 5 23 4.5t12 -8.5
q29 -38 54.5 -59.5t57.5 -21.5q46 0 83 82q3 8 12 8q5 0 8.5 -3.5t-0.5 -8.5q-11 -19 -26.5 -37t-33.5 -32t-38 -22.5t-40 -9.5z" />
    <glyph glyph-name="Aogonek" unicode="&#x104;" horiz-adv-x="1349" 
d="M1116 783q-8 -39 -16.5 -87t-17.5 -99.5t-18.5 -104t-17.5 -100.5q57 -1 105 -1h83t69 -0.5t52 -1.5q7 0 2 -8t-16 -17t-24 -17.5t-22 -9.5q-21 -4 -39 -3.5t-49 0.5q-34 0 -77 1.5t-93 3.5l-19 -128q-8 -53 -4 -86t6 -44q3 -13 14.5 -20.5t25.5 -12.5q12 4 33.5 17.5
t45 31t46 35.5t36.5 32l6 -7q-22 -18 -53.5 -45.5t-61 -59t-52.5 -64.5t-29 -64q-4 -20 10.5 -34t46.5 -14q26 0 47.5 8t34.5 15q2 1 -2.5 -10.5t-11 -25.5t-14.5 -27t-12 -16q-11 -5 -31.5 -10t-43.5 -5q-35 0 -54.5 21.5t-14.5 59.5q3 26 29 64.5t72 89.5q-29 -23 -54 -37
q-4 -2 -11 -3t-14.5 -0.5t-13.5 1.5t-8 3q-18 14 -26 35t-9 35q-1 15 -2.5 27.5t-2 27.5t1 33t5.5 43t9.5 60t13.5 77q-64 3 -132 7t-137 8q-58 -71 -98.5 -120.5t-51.5 -60.5q-66 -74 -111 -120t-80 -71.5t-66 -35t-68 -9.5q-62 0 -106 31t-68 75t-26 90.5t20 78.5
q21 32 55 64.5t77.5 59t97 43t113.5 16.5q51 0 136.5 -0.5t186.5 -2.5l325 389q-39 0 -84 -1.5t-87 -5.5q-40 -5 -75.5 -10.5t-63.5 -10t-47.5 -8t-27.5 -3.5q-7 0 -0.5 9.5t18 21.5t23 23.5t14.5 16.5q6 3 26 4.5t45 2.5t50.5 1h41.5h182q72 0 134 1t111 2.5t84 2.5t52 1
q5 0 15 -0.5t17 -2.5q0 -5 -3 -13.5t-9 -17.5t-14 -17.5t-17 -14.5q-8 -2 -29.5 -1.5t-50 2.5t-61 5t-62.5 5.5t-55 4.5t-39 2h-15zM336 373q-42 0 -75 -8.5t-59 -26.5t-46 -45.5t-36 -64.5q-17 -37 -13 -80.5t26.5 -81.5t62 -63.5t93.5 -25.5q14 0 26 0.5t25 6t29 17
t39 33.5t54.5 56t75.5 85q23 25 62 73.5t91 109.5q-106 6 -199 10.5t-156 4.5zM985 392q9 52 19.5 108t20.5 108t19 97t16 77l-324 -387z" />
    <glyph glyph-name="aogonek" unicode="&#x105;" horiz-adv-x="579" 
d="M444 -124q26 0 47.5 8t34.5 15q2 1 -2.5 -10.5t-11 -25.5t-14.5 -27t-12 -16q-11 -5 -31.5 -10t-43.5 -5q-35 0 -54.5 21.5t-14.5 59.5q3 27 29.5 63t77.5 94q-14 -11 -28.5 -21t-29.5 -19q-4 -2 -12.5 -3t-17.5 -0.5t-17 1.5t-9 3q-16 18 -23.5 41.5t-8.5 38.5
q-2 23 8.5 49.5t26 52.5t33 51t30.5 46q-33 -35 -71 -73t-77 -75t-76.5 -71t-68.5 -61q-7 -5 -21.5 -4t-18.5 4q-18 14 -27 41t-9 61.5t7.5 73.5t22.5 75q24 60 67 107.5t91.5 81t95.5 51.5t80 18q18 0 33.5 -2.5t31 -10t32.5 -22t39 -38.5q11 9 32 29.5t38 38.5q6 6 8 3
q1 -2 1 -5q-16 -20 -39.5 -53t-48.5 -71.5t-50 -80.5t-44.5 -81t-31 -72t-10.5 -54q1 -13 11 -25t25 -17q9 4 23.5 12.5t31 20t33.5 25.5t32 30l6 -7q-13 -12 -28 -26.5t-33 -30.5q-31 -36 -50.5 -61t-30 -41.5t-15 -28t-5.5 -20.5q-3 -20 11 -34t46 -14zM131 53
q18 5 59 38.5t91 82.5t102.5 105.5t94.5 106.5q-24 31 -43.5 50.5t-36 31t-31 16t-29.5 4.5q-26 0 -55.5 -17.5t-57 -47.5t-51 -70t-38.5 -86q-24 -74 -24.5 -132.5t19.5 -81.5z" />
    <glyph glyph-name="Cacute" unicode="&#x106;" horiz-adv-x="760" 
d="M702 111q-29 -35 -68 -71t-83.5 -65t-92 -47.5t-92.5 -18.5q-74 0 -131 26t-94.5 70t-56 103t-16.5 125t24.5 135t67.5 135q36 52 92.5 109.5t128.5 105.5t156.5 79t177.5 31q51 0 92.5 -10.5t72.5 -24t51 -27t27 -18.5q5 -4 -1 -12t-16.5 -15.5t-22.5 -13t-18 -5.5
q-17 0 -42 14.5t-60 31.5t-80 31.5t-100 14.5q-60 0 -115.5 -21t-105 -56.5t-91.5 -82.5t-75 -98q-40 -63 -60.5 -130t-22.5 -131t14 -120.5t50.5 -99t86.5 -67.5t122 -25q38 0 77.5 14t76 36t67.5 50t53 55q2 3 7 0.5t0 -7.5zM800 896q-2 -2 -4 -2q-4 0 -4 4q0 2 3 5
q21 20 43 46.5t40 51t31 43t18 23.5q4 4 11 5t15 1q7 0 12.5 -0.5t7.5 -2.5t2.5 -7.5t0.5 -13.5q0 -5 -4 -9.5t-9 -9.5t-23.5 -18.5t-42.5 -32t-50 -40t-47 -43.5z" />
    <glyph glyph-name="cacute" unicode="&#x107;" horiz-adv-x="493" 
d="M154 -6q-35 0 -66 20.5t-43 55.5q-4 15 -8 36t-1.5 49t14 64t38.5 81q29 51 85.5 100t124.5 86q29 16 58.5 23.5t62.5 7.5q48 0 71 -18.5t23 -45.5q0 -13 -6 -23t-15 -17.5t-19 -12t-18 -5.5q-9 36 -34 63.5t-74 27.5q-14 0 -23.5 -1.5t-20.5 -4.5q-37 -26 -68.5 -60.5
t-56.5 -76.5q-32 -53 -48 -112.5t-11 -119.5q8 -29 25 -45t37 -21q24 -7 57 -1t61 19q10 4 24.5 13.5t30.5 22.5t32 27.5t28 29.5l9 -5q-31 -37 -66.5 -64.5t-75.5 -49.5q-26 -14 -58.5 -28.5t-68.5 -14.5zM443 590q-2 -2 -4 -2q-4 0 -4 4q0 2 3 5q21 20 43 46.5t40 51
t31 43t18 23.5q4 4 11 5t15 1q7 0 12.5 -0.5t7.5 -2.5t2.5 -7.5t0.5 -13.5q0 -5 -4 -9.5t-9 -9.5t-23.5 -18.5t-42.5 -32t-50 -40t-47 -43.5z" />
    <glyph glyph-name="Ccircumflex" unicode="&#x108;" horiz-adv-x="760" 
d="M702 111q-29 -35 -68 -71t-83.5 -65t-92 -47.5t-92.5 -18.5q-74 0 -131 26t-94.5 70t-56 103t-16.5 125t24.5 135t67.5 135q36 52 92.5 109.5t128.5 105.5t156.5 79t177.5 31q51 0 92.5 -10.5t72.5 -24t51 -27t27 -18.5q5 -4 -1 -12t-16.5 -15.5t-22.5 -13t-18 -5.5
q-17 0 -42 14.5t-60 31.5t-80 31.5t-100 14.5q-60 0 -115.5 -21t-105 -56.5t-91.5 -82.5t-75 -98q-40 -63 -60.5 -130t-22.5 -131t14 -120.5t50.5 -99t86.5 -67.5t122 -25q38 0 77.5 14t76 36t67.5 50t53 55q2 3 7 0.5t0 -7.5zM804 1042q-2 4 -6 0q-14 -16 -32 -34
t-37 -34.5t-36 -30.5t-29 -23q-9 -6 -18.5 -12t-20.5 -5q-11 2 -16 7.5t-4 10.5q0 3 3 11t20 19q15 9 36 21t44.5 25.5t46.5 27.5t42 27q6 6 11 -1q16 -21 28 -35.5t21.5 -26.5t19 -22.5t21.5 -22.5q14 -13 17.5 -20.5t2.5 -12.5q0 -9 -7 -15.5t-15 -5.5q-23 1 -37 27
q-12 23 -24.5 55t-30.5 70z" />
    <glyph glyph-name="ccircumflex" unicode="&#x109;" horiz-adv-x="493" 
d="M154 -6q-35 0 -66 20.5t-43 55.5q-4 15 -8 36t-1.5 49t14 64t38.5 81q29 51 85.5 100t124.5 86q29 16 58.5 23.5t62.5 7.5q48 0 71 -18.5t23 -45.5q0 -13 -6 -23t-15 -17.5t-19 -12t-18 -5.5q-9 36 -34 63.5t-74 27.5q-14 0 -23.5 -1.5t-20.5 -4.5q-37 -26 -68.5 -60.5
t-56.5 -76.5q-32 -53 -48 -112.5t-11 -119.5q8 -29 25 -45t37 -21q24 -7 57 -1t61 19q10 4 24.5 13.5t30.5 22.5t32 27.5t28 29.5l9 -5q-31 -37 -66.5 -64.5t-75.5 -49.5q-26 -14 -58.5 -28.5t-68.5 -14.5zM486 731q-2 4 -6 0q-14 -16 -32 -34t-37 -34.5t-36 -30.5t-29 -23
q-9 -6 -18.5 -12t-20.5 -5q-11 2 -16 7.5t-4 10.5q0 3 3 11t20 19q15 9 36 21t44.5 25.5t46.5 27.5t42 27q6 6 11 -1q16 -21 28 -35.5t21.5 -26.5t19 -22.5t21.5 -22.5q14 -13 17.5 -20.5t2.5 -12.5q0 -9 -7 -15.5t-15 -5.5q-23 1 -37 27q-12 23 -24.5 55t-30.5 70z" />
    <glyph glyph-name="Cdotaccent" unicode="&#x10a;" horiz-adv-x="760" 
d="M702 111q-29 -35 -68 -71t-83.5 -65t-92 -47.5t-92.5 -18.5q-74 0 -131 26t-94.5 70t-56 103t-16.5 125t24.5 135t67.5 135q36 52 92.5 109.5t128.5 105.5t156.5 79t177.5 31q51 0 92.5 -10.5t72.5 -24t51 -27t27 -18.5q5 -4 -1 -12t-16.5 -15.5t-22.5 -13t-18 -5.5
q-17 0 -42 14.5t-60 31.5t-80 31.5t-100 14.5q-60 0 -115.5 -21t-105 -56.5t-91.5 -82.5t-75 -98q-40 -63 -60.5 -130t-22.5 -131t14 -120.5t50.5 -99t86.5 -67.5t122 -25q38 0 77.5 14t76 36t67.5 50t53 55q2 3 7 0.5t0 -7.5zM757 961q0 24 16.5 41t40.5 17t41 -17t17 -41
t-17 -40.5t-41 -16.5t-40.5 16.5t-16.5 40.5z" />
    <glyph glyph-name="cdotaccent" unicode="&#x10b;" horiz-adv-x="493" 
d="M154 -6q-35 0 -66 20.5t-43 55.5q-4 15 -8 36t-1.5 49t14 64t38.5 81q29 51 85.5 100t124.5 86q29 16 58.5 23.5t62.5 7.5q48 0 71 -18.5t23 -45.5q0 -13 -6 -23t-15 -17.5t-19 -12t-18 -5.5q-9 36 -34 63.5t-74 27.5q-14 0 -23.5 -1.5t-20.5 -4.5q-37 -26 -68.5 -60.5
t-56.5 -76.5q-32 -53 -48 -112.5t-11 -119.5q8 -29 25 -45t37 -21q24 -7 57 -1t61 19q10 4 24.5 13.5t30.5 22.5t32 27.5t28 29.5l9 -5q-31 -37 -66.5 -64.5t-75.5 -49.5q-26 -14 -58.5 -28.5t-68.5 -14.5zM444 640q0 24 16.5 41t40.5 17t41 -17t17 -41t-17 -40.5t-41 -16.5
t-40.5 16.5t-16.5 40.5z" />
    <glyph glyph-name="Ccaron" unicode="&#x10c;" horiz-adv-x="760" 
d="M702 111q-29 -35 -68 -71t-83.5 -65t-92 -47.5t-92.5 -18.5q-74 0 -131 26t-94.5 70t-56 103t-16.5 125t24.5 135t67.5 135q36 52 92.5 109.5t128.5 105.5t156.5 79t177.5 31q51 0 92.5 -10.5t72.5 -24t51 -27t27 -18.5q5 -4 -1 -12t-16.5 -15.5t-22.5 -13t-18 -5.5
q-17 0 -42 14.5t-60 31.5t-80 31.5t-100 14.5q-60 0 -115.5 -21t-105 -56.5t-91.5 -82.5t-75 -98q-40 -63 -60.5 -130t-22.5 -131t14 -120.5t50.5 -99t86.5 -67.5t122 -25q38 0 77.5 14t76 36t67.5 50t53 55q2 3 7 0.5t0 -7.5zM755 902q2 -4 6 0q13 16 31.5 34t37.5 34.5
t36 30.5t29 23q9 6 18.5 12t20.5 5q11 -2 16 -7.5t4 -10.5q0 -3 -3 -11t-20 -19q-15 -9 -36 -21t-44.5 -25.5t-46.5 -27.5t-42 -27q-7 -5 -12 1q-17 21 -28 35.5t-21 26.5t-19 22.5t-21 22.5q-14 13 -17.5 20.5t-2.5 12.5q0 9 7 15.5t15 5.5q23 -1 37 -27q12 -23 24.5 -55
t30.5 -70z" />
    <glyph glyph-name="ccaron" unicode="&#x10d;" horiz-adv-x="493" 
d="M154 -6q-35 0 -66 20.5t-43 55.5q-4 15 -8 36t-1.5 49t14 64t38.5 81q29 51 85.5 100t124.5 86q29 16 58.5 23.5t62.5 7.5q48 0 71 -18.5t23 -45.5q0 -13 -6 -23t-15 -17.5t-19 -12t-18 -5.5q-9 36 -34 63.5t-74 27.5q-14 0 -23.5 -1.5t-20.5 -4.5q-37 -26 -68.5 -60.5
t-56.5 -76.5q-32 -53 -48 -112.5t-11 -119.5q8 -29 25 -45t37 -21q24 -7 57 -1t61 19q10 4 24.5 13.5t30.5 22.5t32 27.5t28 29.5l9 -5q-31 -37 -66.5 -64.5t-75.5 -49.5q-26 -14 -58.5 -28.5t-68.5 -14.5zM445 591q2 -4 6 0q13 16 31.5 34t37.5 34.5t36 30.5t29 23
q9 6 18.5 12t20.5 5q11 -2 16 -7.5t4 -10.5q0 -3 -3 -11t-20 -19q-15 -9 -36 -21t-44.5 -25.5t-46.5 -27.5t-42 -27q-7 -5 -12 1q-17 21 -28 35.5t-21 26.5t-19 22.5t-21 22.5q-14 13 -17.5 20.5t-2.5 12.5q0 9 7 15.5t15 5.5q23 -1 37 -27q12 -23 24.5 -55t30.5 -70z" />
    <glyph glyph-name="Dcaron" unicode="&#x10e;" horiz-adv-x="1138" 
d="M441 0q-72 1 -131.5 0.5t-103.5 -1.5t-71.5 -1.5t-35.5 -0.5q-47 0 -60 15q-1 9 3 20.5t11 23t16.5 21.5t18.5 16q9 3 30 -1.5t48 -11.5t58 -15t61 -11.5t56.5 -1.5t44.5 15q28 19 48 51t38.5 75.5t38 98.5t46.5 121q26 66 55.5 124t60.5 104.5t64 79.5t66 50l7 -2
q-18 -9 -40 -47.5t-46 -91.5t-49 -113.5t-47 -112.5q-62 -147 -124 -235t-131 -124q13 -1 51 -2t86.5 -0.5t101 2t94.5 4.5q63 4 111.5 16.5t86.5 36t67.5 60.5t55.5 91q28 60 37.5 123t-1 123t-40.5 113t-79.5 93t-119.5 63.5t-160 23.5q-82 0 -148 -14t-118 -46
t-92.5 -83.5t-71.5 -126.5q-7 -30 -27 -43t-47 -13q-29 0 -33 16.5t14 44.5q39 60 103 116t142 98.5t163 67t165 22.5q95 0 168.5 -25.5t126 -68.5t84 -98.5t43 -116.5t2.5 -122t-37 -115q-27 -49 -78 -100t-115 -92.5t-135 -68t-137 -26.5zM913 882q2 -4 6 0q13 16 31.5 34
t37.5 34.5t36 30.5t29 23q9 6 18.5 12t20.5 5q11 -2 16 -7.5t4 -10.5q0 -3 -3 -11t-20 -19q-15 -9 -36 -21t-44.5 -25.5t-46.5 -27.5t-42 -27q-7 -5 -12 1q-17 21 -28 35.5t-21 26.5t-19 22.5t-21 22.5q-14 13 -17.5 20.5t-2.5 12.5q0 9 7 15.5t15 5.5q23 -1 37 -27
q12 -23 24.5 -55t30.5 -70z" />
    <glyph glyph-name="dcaron" unicode="&#x10f;" horiz-adv-x="594" 
d="M611 618q30 43 71.5 82t90 71.5t102.5 58.5t110 44q29 7 52 10.5t42.5 5t37.5 2t37 0.5q32 0 64.5 -1t50.5 -4q12 -2 10.5 -13t-10 -24t-20.5 -23t-21 -10q-48 0 -113 9t-138 9q-32 0 -58.5 -4t-51.5 -16.5t-51.5 -35.5t-57.5 -60.5t-69.5 -92t-87.5 -129.5
q-14 -22 -35 -55.5t-44.5 -73t-47 -81t-42.5 -78.5t-31 -66.5t-12 -44.5q0 -13 7.5 -31t25.5 -20q10 4 24.5 12.5t31.5 20t35 25.5t33 30l6 -7q-29 -27 -69.5 -61.5t-88.5 -63.5q-4 -2 -12 -3t-17 -0.5t-16.5 1.5t-8.5 3q-7 7 -13.5 19t-11 24t-6.5 23t-1 18q1 20 15 51
t32.5 65t39.5 68t38 60l8 10q-31 -38 -72.5 -83.5t-87 -91.5t-90.5 -88.5t-83 -75.5q-7 -5 -21.5 -4t-18.5 4q-18 14 -27 41t-9 61.5t7.5 73.5t22.5 75q24 60 67 107.5t91.5 81t95.5 51.5t80 18q32 0 56.5 -12.5t51.5 -41.5q16 25 33 50t31 46.5t25.5 38.5t17.5 25zM131 53
q18 5 57.5 39.5t88.5 84t100 106.5t93 107q-24 31 -42 50t-33 29.5t-28.5 14.5t-28.5 4q-26 0 -55.5 -17.5t-57 -47.5t-51 -70t-38.5 -86q-24 -74 -24.5 -132.5t19.5 -81.5zM922 704q-7 -11 -23 -22t-28 -11q-16 0 -25 13q-3 6 -2 16.5t5.5 22t11 21.5t12.5 15q5 4 19 6.5
t26 2.5q11 0 23.5 -3t17.5 -10q6 -7 4.5 -24.5t-9.5 -31.5q-12 -23 -30.5 -40.5t-39.5 -31t-42 -23t-37 -15.5q-2 -1 -3 0.5t1 2.5q16 7 33 19t33 26.5t30.5 31.5t24.5 35h-2z" />
    <glyph glyph-name="Dcroat" unicode="&#x110;" horiz-adv-x="1138" 
d="M441 0q-72 1 -131.5 0.5t-103.5 -1.5t-71.5 -1.5t-35.5 -0.5q-47 0 -60 15q-1 9 3 20.5t11 23t16.5 21.5t18.5 16q9 3 30 -1.5t48 -11.5t58 -15t61 -11.5t56.5 -1.5t44.5 15q22 15 39 38.5t32 54.5t30 69.5t32 84.5q-11 -1 -21.5 -1h-21.5q-25 -1 -30 -0.5t-5 2.5
q0 5 12 17.5t34 33.5q8 0 21 -0.5t30 -0.5l19 48q26 66 55.5 124t60.5 104.5t64 79.5t66 50l7 -2q-18 -9 -40 -47.5t-46 -91.5t-49 -113.5t-47 -112.5q-5 -11 -9 -20t-8 -19h54t56 1q25 1 30 1t5 -2q0 -5 -12 -17.5t-34 -33.5h-20t-29.5 0.5t-34.5 0.5h-34h-4
q-102 -211 -215 -270q13 -1 51 -2t86.5 -0.5t101 2t94.5 4.5q63 4 111.5 16.5t86.5 36t67.5 60.5t55.5 91q28 60 37.5 123t-1 123t-40.5 113t-79.5 93t-119.5 63.5t-160 23.5q-82 0 -148 -14t-118 -46t-92.5 -83.5t-71.5 -126.5q-7 -30 -27 -43t-47 -13q-29 0 -33 16.5
t14 44.5q39 60 103 116t142 98.5t163 67t165 22.5q95 0 168.5 -25.5t126 -68.5t84 -98.5t43 -116.5t2.5 -122t-37 -115q-27 -49 -78 -100t-115 -92.5t-135 -68t-137 -26.5z" />
    <glyph glyph-name="dcroat" unicode="&#x111;" horiz-adv-x="594" 
d="M655 673q63 68 149.5 119.5t180.5 81.5q29 7 52 10.5t42.5 5t37.5 2t37 0.5q32 0 64.5 -1t50.5 -4q12 -2 10.5 -13t-10 -24t-20.5 -23t-21 -10q-48 0 -113 9t-138 9q-36 0 -65.5 -5.5t-58.5 -22.5t-60 -49t-71 -85h22.5t22.5 1q25 1 30 1t5 -2q0 -5 -12 -17.5t-34 -33.5
h-28t-42 1q-19 -27 -40 -58t-45 -68q-14 -22 -35 -55.5t-44.5 -73t-47 -81t-42.5 -78.5t-31 -66.5t-12 -44.5q0 -13 7.5 -31t25.5 -20q10 4 24.5 12.5t31.5 20t35 25.5t33 30l6 -7q-29 -27 -69.5 -61.5t-88.5 -63.5q-4 -2 -12 -3t-17 -0.5t-16.5 1.5t-8.5 3q-7 7 -13.5 19
t-11 24t-6.5 23t-1 18q1 20 15 51t32.5 65t39.5 68t38 60l8 10q-31 -38 -72.5 -83.5t-87 -91.5t-90.5 -88.5t-83 -75.5q-7 -5 -21.5 -4t-18.5 4q-18 14 -27 41t-9 61.5t7.5 73.5t22.5 75q24 60 67 107.5t91.5 81t95.5 51.5t80 18q32 0 56.5 -12.5t51.5 -41.5q16 25 33 50
t31 46.5t25.5 38.5t17.5 25l3 5l-92 -2q-25 -1 -30 -0.5t-5 2.5q0 5 12 17.5t34 33.5q14 0 42 -0.5t61 -0.5h19zM131 53q18 5 57.5 39.5t88.5 84t100 106.5t93 107q-24 31 -42 50t-33 29.5t-28.5 14.5t-28.5 4q-26 0 -55.5 -17.5t-57 -47.5t-51 -70t-38.5 -86
q-24 -74 -24.5 -132.5t19.5 -81.5z" />
    <glyph glyph-name="Emacron" unicode="&#x112;" horiz-adv-x="1066" 
d="M342 445q51 0 115 0.5t132 1.5q51 124 110 201t122 112q-55 14 -111 24t-106 10q-69 0 -127 -18t-106.5 -57t-89.5 -100t-77 -147q-7 -30 -27 -43t-46 -13q-30 0 -34 16.5t14 44.5q45 70 105 134t134.5 112t162.5 76.5t190 28.5q72 0 154.5 -15t176.5 -38
q49 -12 81.5 -20.5t52.5 -15t28.5 -11.5t10.5 -9q2 -5 -2 -12.5t-10 -15.5t-13 -14.5t-12 -7.5q-5 0 -23.5 4t-45.5 11t-60.5 16t-69.5 19q-29 8 -65.5 18t-75.5 20q-17 -12 -37 -44t-42 -74.5t-44 -92t-43 -97.5q73 1 135 2t97 1t67 -1.5t48 -5.5q6 -1 2.5 -10t-12 -20
t-19.5 -20.5t-20 -10.5q-21 -4 -41 -3.5t-52 2.5q-35 2 -93.5 9.5t-128.5 15.5q-58 -134 -122 -227t-127 -131q17 0 54.5 -0.5t82.5 -0.5t90.5 2t80.5 6q40 4 78.5 9t70 9t54 6.5t30.5 2.5q7 0 0 -9.5t-18 -21.5t-23 -24t-15 -17q-5 -3 -28 -4t-52 -2t-57.5 -1h-44.5h-182
q-72 0 -142.5 -1.5t-128 -3t-96 -2.5t-46.5 -1q-47 0 -60 15q-3 18 13.5 39t35.5 33q9 3 30.5 -1t49.5 -10t60 -12.5t63 -9t58.5 0.5t45.5 16q27 18 48 51.5t41 78.5t40.5 100.5t44.5 118.5q-60 7 -121 12.5t-117 7.5q-8 0 -10 1.5t0 3t6.5 2.5t7.5 1zM1043 944
q24 -5 47.5 -9t49.5 -8q28 -4 33.5 -4.5t5.5 -2.5q-2 -5 -17.5 -17t-42.5 -31q-7 2 -31.5 7t-52.5 10q-13 2 -22.5 3.5t-18.5 2.5t-19 2t-23 3q-28 4 -33.5 5.5t-4.5 3.5q1 5 16.5 16.5t42.5 30.5q7 -1 24 -4t45 -8h1z" />
    <glyph glyph-name="emacron" unicode="&#x113;" horiz-adv-x="486" 
d="M488 467q4 -24 -14 -53t-62.5 -65.5t-117.5 -83.5t-179 -108q-1 -24 0 -46q8 -29 23 -45t35 -21q24 -7 58 0t62 20q10 4 26 15t33.5 25t34.5 30t29 31l9 -5q-31 -37 -73 -69.5t-82 -54.5q-26 -14 -59.5 -28.5t-69.5 -14.5q-15 0 -30.5 6t-29 17t-24.5 25t-17 31
q-4 15 -7 35.5t1 48t16.5 63t39.5 80.5q14 25 35.5 51t46 49.5t51.5 43.5t52 34q29 16 61.5 26t62.5 10q34 0 59.5 -11.5t29.5 -35.5zM409 383q9 23 0.5 43.5t-26.5 35t-42.5 19.5t-46.5 -2q-22 -15 -50 -47t-54.5 -74.5t-47 -92t-26.5 -98.5q74 44 127 76.5t87.5 57
t53.5 44.5t25 38zM435 660h48.5t50.5 1q28 1 33.5 1t5.5 -2q0 -5 -13.5 -19.5t-37.5 -37.5q-7 0 -32 1t-54 1q-13 0 -22.5 -0.5t-18.5 -1t-19 -1t-23 -0.5q-28 -1 -33.5 0t-5.5 3q0 5 13.5 19t37.5 37q7 0 24 -0.5t45 -0.5h1z" />
    <glyph glyph-name="Ebreve" unicode="&#x114;" horiz-adv-x="1066" 
d="M342 445q51 0 115 0.5t132 1.5q51 124 110 201t122 112q-55 14 -111 24t-106 10q-69 0 -127 -18t-106.5 -57t-89.5 -100t-77 -147q-7 -30 -27 -43t-46 -13q-30 0 -34 16.5t14 44.5q45 70 105 134t134.5 112t162.5 76.5t190 28.5q72 0 154.5 -15t176.5 -38
q49 -12 81.5 -20.5t52.5 -15t28.5 -11.5t10.5 -9q2 -5 -2 -12.5t-10 -15.5t-13 -14.5t-12 -7.5q-5 0 -23.5 4t-45.5 11t-60.5 16t-69.5 19q-29 8 -65.5 18t-75.5 20q-17 -12 -37 -44t-42 -74.5t-44 -92t-43 -97.5q73 1 135 2t97 1t67 -1.5t48 -5.5q6 -1 2.5 -10t-12 -20
t-19.5 -20.5t-20 -10.5q-21 -4 -41 -3.5t-52 2.5q-35 2 -93.5 9.5t-128.5 15.5q-58 -134 -122 -227t-127 -131q17 0 54.5 -0.5t82.5 -0.5t90.5 2t80.5 6q40 4 78.5 9t70 9t54 6.5t30.5 2.5q7 0 0 -9.5t-18 -21.5t-23 -24t-15 -17q-5 -3 -28 -4t-52 -2t-57.5 -1h-44.5h-182
q-72 0 -142.5 -1.5t-128 -3t-96 -2.5t-46.5 -1q-47 0 -60 15q-3 18 13.5 39t35.5 33q9 3 30.5 -1t49.5 -10t60 -12.5t63 -9t58.5 0.5t45.5 16q27 18 48 51.5t41 78.5t40.5 100.5t44.5 118.5q-60 7 -121 12.5t-117 7.5q-8 0 -10 1.5t0 3t6.5 2.5t7.5 1zM965 890q-41 0 -73 22
t-58 57q-3 5 -5 7.5t-2 5.5q0 8 26 16q17 5 23 4.5t12 -8.5q29 -38 54.5 -59.5t57.5 -21.5q46 0 83 82q3 8 12 8q5 0 8.5 -3.5t-0.5 -8.5q-11 -19 -26.5 -37t-33.5 -32t-38 -22.5t-40 -9.5z" />
    <glyph glyph-name="ebreve" unicode="&#x115;" horiz-adv-x="486" 
d="M488 467q4 -24 -14 -53t-62.5 -65.5t-117.5 -83.5t-179 -108q-1 -24 0 -46q8 -29 23 -45t35 -21q24 -7 58 0t62 20q10 4 26 15t33.5 25t34.5 30t29 31l9 -5q-31 -37 -73 -69.5t-82 -54.5q-26 -14 -59.5 -28.5t-69.5 -14.5q-15 0 -30.5 6t-29 17t-24.5 25t-17 31
q-4 15 -7 35.5t1 48t16.5 63t39.5 80.5q14 25 35.5 51t46 49.5t51.5 43.5t52 34q29 16 61.5 26t62.5 10q34 0 59.5 -11.5t29.5 -35.5zM409 383q9 23 0.5 43.5t-26.5 35t-42.5 19.5t-46.5 -2q-22 -15 -50 -47t-54.5 -74.5t-47 -92t-26.5 -98.5q74 44 127 76.5t87.5 57
t53.5 44.5t25 38zM449 598q-41 0 -73 22t-58 57q-3 5 -5 7.5t-2 5.5q0 8 26 16q17 5 23 4.5t12 -8.5q29 -38 54.5 -59.5t57.5 -21.5q46 0 83 82q3 8 12 8q5 0 8.5 -3.5t-0.5 -8.5q-11 -19 -26.5 -37t-33.5 -32t-38 -22.5t-40 -9.5z" />
    <glyph glyph-name="Edotaccent" unicode="&#x116;" horiz-adv-x="1066" 
d="M342 445q51 0 115 0.5t132 1.5q51 124 110 201t122 112q-55 14 -111 24t-106 10q-69 0 -127 -18t-106.5 -57t-89.5 -100t-77 -147q-7 -30 -27 -43t-46 -13q-30 0 -34 16.5t14 44.5q45 70 105 134t134.5 112t162.5 76.5t190 28.5q72 0 154.5 -15t176.5 -38
q49 -12 81.5 -20.5t52.5 -15t28.5 -11.5t10.5 -9q2 -5 -2 -12.5t-10 -15.5t-13 -14.5t-12 -7.5q-5 0 -23.5 4t-45.5 11t-60.5 16t-69.5 19q-29 8 -65.5 18t-75.5 20q-17 -12 -37 -44t-42 -74.5t-44 -92t-43 -97.5q73 1 135 2t97 1t67 -1.5t48 -5.5q6 -1 2.5 -10t-12 -20
t-19.5 -20.5t-20 -10.5q-21 -4 -41 -3.5t-52 2.5q-35 2 -93.5 9.5t-128.5 15.5q-58 -134 -122 -227t-127 -131q17 0 54.5 -0.5t82.5 -0.5t90.5 2t80.5 6q40 4 78.5 9t70 9t54 6.5t30.5 2.5q7 0 0 -9.5t-18 -21.5t-23 -24t-15 -17q-5 -3 -28 -4t-52 -2t-57.5 -1h-44.5h-182
q-72 0 -142.5 -1.5t-128 -3t-96 -2.5t-46.5 -1q-47 0 -60 15q-3 18 13.5 39t35.5 33q9 3 30.5 -1t49.5 -10t60 -12.5t63 -9t58.5 0.5t45.5 16q27 18 48 51.5t41 78.5t40.5 100.5t44.5 118.5q-60 7 -121 12.5t-117 7.5q-8 0 -10 1.5t0 3t6.5 2.5t7.5 1zM939 941q0 24 16.5 41
t40.5 17t41 -17t17 -41t-17 -40.5t-41 -16.5t-40.5 16.5t-16.5 40.5z" />
    <glyph glyph-name="edotaccent" unicode="&#x117;" horiz-adv-x="486" 
d="M488 467q4 -24 -14 -53t-62.5 -65.5t-117.5 -83.5t-179 -108q-1 -24 0 -46q8 -29 23 -45t35 -21q24 -7 58 0t62 20q10 4 26 15t33.5 25t34.5 30t29 31l9 -5q-31 -37 -73 -69.5t-82 -54.5q-26 -14 -59.5 -28.5t-69.5 -14.5q-15 0 -30.5 6t-29 17t-24.5 25t-17 31
q-4 15 -7 35.5t1 48t16.5 63t39.5 80.5q14 25 35.5 51t46 49.5t51.5 43.5t52 34q29 16 61.5 26t62.5 10q34 0 59.5 -11.5t29.5 -35.5zM409 383q9 23 0.5 43.5t-26.5 35t-42.5 19.5t-46.5 -2q-22 -15 -50 -47t-54.5 -74.5t-47 -92t-26.5 -98.5q74 44 127 76.5t87.5 57
t53.5 44.5t25 38zM396 650q0 24 16.5 41t40.5 17t41 -17t17 -41t-17 -40.5t-41 -16.5t-40.5 16.5t-16.5 40.5z" />
    <glyph glyph-name="Eogonek" unicode="&#x118;" horiz-adv-x="1066" 
d="M342 445q51 0 115 0.5t132 1.5q51 124 110 201t122 112q-55 14 -111 24t-106 10q-69 0 -127 -18t-106.5 -57t-89.5 -100t-77 -147q-7 -30 -27 -43t-46 -13q-30 0 -34 16.5t14 44.5q45 70 105 134t134.5 112t162.5 76.5t190 28.5q72 0 154.5 -15t176.5 -38
q49 -12 81.5 -20.5t52.5 -15t28.5 -11.5t10.5 -9q2 -5 -2 -12.5t-10 -15.5t-13 -14.5t-12 -7.5q-5 0 -23.5 4t-45.5 11t-60.5 16t-69.5 19q-29 8 -65.5 18t-75.5 20q-17 -12 -37 -44t-42 -74.5t-44 -92t-43 -97.5q73 1 135 2t97 1t67 -1.5t48 -5.5q6 -1 2.5 -10t-12 -20
t-19.5 -20.5t-20 -10.5q-21 -4 -41 -3.5t-52 2.5q-35 2 -93.5 9.5t-128.5 15.5q-58 -134 -122 -227t-127 -131q17 0 54.5 -0.5t82.5 -0.5t90.5 2t80.5 6q40 4 78.5 9t70 9t54 6.5t30.5 2.5h8l2 -5q-32 -37 -51.5 -62t-31 -42.5t-16.5 -29.5t-6 -21q-3 -20 11 -34t46 -14
q26 0 47.5 8t34.5 15q2 1 -2.5 -10.5t-11 -25.5t-14.5 -27t-12 -16q-11 -5 -31.5 -10t-43.5 -5q-35 0 -54.5 21.5t-14.5 59.5q3 23 22.5 52.5t55.5 71.5q-12 -2 -35.5 -3t-50 -1.5t-51.5 -0.5h-39h-182q-72 0 -142.5 -1.5t-128 -3t-96 -2.5t-46.5 -1q-47 0 -60 15
q-3 18 13.5 39t35.5 33q9 3 30.5 -1t49.5 -10t60 -12.5t63 -9t58.5 0.5t45.5 16q27 18 48 51.5t41 78.5t40.5 100.5t44.5 118.5q-60 7 -121 12.5t-117 7.5q-8 0 -10 1.5t0 3t6.5 2.5t7.5 1z" />
    <glyph glyph-name="eogonek" unicode="&#x119;" horiz-adv-x="486" 
d="M286 -124q26 0 47.5 8t34.5 15q2 1 -2.5 -10.5t-11 -25.5t-14.5 -27t-12 -16q-11 -5 -31.5 -10t-43.5 -5q-35 0 -54.5 21.5t-14.5 59.5q3 29 32.5 67.5t86.5 102.5q-8 -5 -16.5 -9.5t-16.5 -9.5q-26 -14 -59.5 -28.5t-69.5 -14.5q-15 0 -30.5 6t-29 17t-24.5 25t-17 31
q-4 15 -7 35.5t1 48t16.5 63t39.5 80.5q14 25 35.5 51t46 49.5t51.5 43.5t52 34q29 16 61.5 26t62.5 10q34 0 59.5 -11.5t29.5 -35.5t-14 -53t-62.5 -65.5t-117.5 -83.5t-179 -108q-1 -24 0 -46q8 -29 23 -45t35 -21q24 -7 58 0t62 20q10 4 26 15t33.5 25t34.5 30t29 31
l9 -5q-20 -23 -44.5 -45.5t-50.5 -41.5q-31 -36 -50.5 -60.5t-30 -41t-15 -28t-5.5 -20.5q-3 -20 11 -34t46 -14zM409 383q9 23 0.5 43.5t-26.5 35t-42.5 19.5t-46.5 -2q-22 -15 -50 -47t-54.5 -74.5t-47 -92t-26.5 -98.5q74 44 127 76.5t87.5 57t53.5 44.5t25 38z" />
    <glyph glyph-name="Ecaron" unicode="&#x11a;" horiz-adv-x="1066" 
d="M342 445q51 0 115 0.5t132 1.5q51 124 110 201t122 112q-55 14 -111 24t-106 10q-69 0 -127 -18t-106.5 -57t-89.5 -100t-77 -147q-7 -30 -27 -43t-46 -13q-30 0 -34 16.5t14 44.5q45 70 105 134t134.5 112t162.5 76.5t190 28.5q72 0 154.5 -15t176.5 -38
q49 -12 81.5 -20.5t52.5 -15t28.5 -11.5t10.5 -9q2 -5 -2 -12.5t-10 -15.5t-13 -14.5t-12 -7.5q-5 0 -23.5 4t-45.5 11t-60.5 16t-69.5 19q-29 8 -65.5 18t-75.5 20q-17 -12 -37 -44t-42 -74.5t-44 -92t-43 -97.5q73 1 135 2t97 1t67 -1.5t48 -5.5q6 -1 2.5 -10t-12 -20
t-19.5 -20.5t-20 -10.5q-21 -4 -41 -3.5t-52 2.5q-35 2 -93.5 9.5t-128.5 15.5q-58 -134 -122 -227t-127 -131q17 0 54.5 -0.5t82.5 -0.5t90.5 2t80.5 6q40 4 78.5 9t70 9t54 6.5t30.5 2.5q7 0 0 -9.5t-18 -21.5t-23 -24t-15 -17q-5 -3 -28 -4t-52 -2t-57.5 -1h-44.5h-182
q-72 0 -142.5 -1.5t-128 -3t-96 -2.5t-46.5 -1q-47 0 -60 15q-3 18 13.5 39t35.5 33q9 3 30.5 -1t49.5 -10t60 -12.5t63 -9t58.5 0.5t45.5 16q27 18 48 51.5t41 78.5t40.5 100.5t44.5 118.5q-60 7 -121 12.5t-117 7.5q-8 0 -10 1.5t0 3t6.5 2.5t7.5 1zM956 882q2 -4 6 0
q13 16 31.5 34t37.5 34.5t36 30.5t29 23q9 6 18.5 12t20.5 5q11 -2 16 -7.5t4 -10.5q0 -3 -3 -11t-20 -19q-15 -9 -36 -21t-44.5 -25.5t-46.5 -27.5t-42 -27q-7 -5 -12 1q-17 21 -28 35.5t-21 26.5t-19 22.5t-21 22.5q-14 13 -17.5 20.5t-2.5 12.5q0 9 7 15.5t15 5.5
q23 -1 37 -27q12 -23 24.5 -55t30.5 -70z" />
    <glyph glyph-name="ecaron" unicode="&#x11b;" horiz-adv-x="486" 
d="M488 467q4 -24 -14 -53t-62.5 -65.5t-117.5 -83.5t-179 -108q-1 -24 0 -46q8 -29 23 -45t35 -21q24 -7 58 0t62 20q10 4 26 15t33.5 25t34.5 30t29 31l9 -5q-31 -37 -73 -69.5t-82 -54.5q-26 -14 -59.5 -28.5t-69.5 -14.5q-15 0 -30.5 6t-29 17t-24.5 25t-17 31
q-4 15 -7 35.5t1 48t16.5 63t39.5 80.5q14 25 35.5 51t46 49.5t51.5 43.5t52 34q29 16 61.5 26t62.5 10q34 0 59.5 -11.5t29.5 -35.5zM409 383q9 23 0.5 43.5t-26.5 35t-42.5 19.5t-46.5 -2q-22 -15 -50 -47t-54.5 -74.5t-47 -92t-26.5 -98.5q74 44 127 76.5t87.5 57
t53.5 44.5t25 38zM403 591q2 -4 6 0q13 16 31.5 34t37.5 34.5t36 30.5t29 23q9 6 18.5 12t20.5 5q11 -2 16 -7.5t4 -10.5q0 -3 -3 -11t-20 -19q-15 -9 -36 -21t-44.5 -25.5t-46.5 -27.5t-42 -27q-7 -5 -12 1q-17 21 -28 35.5t-21 26.5t-19 22.5t-21 22.5q-14 13 -17.5 20.5
t-2.5 12.5q0 9 7 15.5t15 5.5q23 -1 37 -27q12 -23 24.5 -55t30.5 -70z" />
    <glyph glyph-name="Gcircumflex" unicode="&#x11c;" horiz-adv-x="1016" 
d="M397 -2q-79 0 -136 25.5t-92.5 68.5t-51 99t-13 116.5t23.5 122.5t58 116q33 48 85.5 98t122.5 91t156.5 67t187.5 26q36 0 70.5 -2.5t71.5 -9t77 -17t87 -25.5q5 -2 5 -6q0 -6 -8 -15.5t-19 -18.5t-22 -15.5t-17 -6.5q-10 0 -29 6q-35 11 -73.5 24.5t-78.5 25t-81.5 19
t-81.5 7.5q-69 0 -127 -19t-105.5 -49.5t-83.5 -69t-61 -78.5q-36 -58 -56.5 -119.5t-23.5 -121t12 -113t50 -94t90 -64.5t132 -25q57 -1 115 16t111.5 56t100.5 102.5t83 155.5q-20 3 -54.5 7t-85.5 5q-48 0 -97.5 -4.5t-91.5 -10t-73 -10.5t-41 -5q-7 0 -2.5 9t14.5 20.5
t22.5 22t22.5 14.5q5 3 25 4t45.5 1h51h41.5q48 0 90.5 1t76 1.5t56 1.5t30.5 1q9 0 20.5 -7t21.5 -17t16 -21t5 -19q-36 -51 -75.5 -117.5t-75 -133.5t-65 -127t-46.5 -98q-6 -12 -22 -24.5t-37.5 -24t-46.5 -21.5t-48 -18.5t-42.5 -15.5t-30.5 -11q-8 -2 -9 2t6 7
q34 13 67.5 30.5t59.5 55.5q9 14 29.5 47t46 75t53 88t49.5 87q-45 -37 -95 -68t-100 -53t-99 -34.5t-91 -12.5zM851 1042q-2 4 -6 0q-14 -16 -32 -34t-37 -34.5t-36 -30.5t-29 -23q-9 -6 -18.5 -12t-20.5 -5q-11 2 -16 7.5t-4 10.5q0 3 3 11t20 19q15 9 36 21t44.5 25.5
t46.5 27.5t42 27q6 6 11 -1q16 -21 28 -35.5t21.5 -26.5t19 -22.5t21.5 -22.5q14 -13 17.5 -20.5t2.5 -12.5q0 -9 -7 -15.5t-15 -5.5q-23 1 -37 27q-12 23 -24.5 55t-30.5 70z" />
    </font>
</defs>
</svg>
