<svg xmlns="http://www.w3.org/2000/svg" viewBox="0 0 1776.11 1777.39"><defs><style>.cls-1,.cls-2,.cls-3{fill:none;stroke:#fff;stroke-miterlimit:10;}.cls-1,.cls-2{stroke-width:1.55px;}.cls-1{opacity:0.74;}.cls-3{stroke-width:0.37px;}.cls-4{font-size:10.94px;font-family:AdobeMyungjoStd-Medium-KSCpc-EUC-H, Adobe Myungjo Std;letter-spacing:-0.21em;}.cls-12,.cls-25,.cls-4,.cls-9{fill:#fff;}.cls-5{font-size:9.66px;font-family:AppleSDGothicNeo-Medium-KSCpc-EUC-H, Apple SD Gothic Neo;letter-spacing:-0.05em;}.cls-6,.cls-7{font-size:13.39px;}.cls-6{font-family:AppleGaramondLight, Apple Garamond Light;letter-spacing:-0.05em;}.cls-7{font-family:SeatonDisplay-Regular, Seaton Display;letter-spacing:-0.05em;}.cls-8{font-size:10.62px;font-family:KozGoPr6N-Regular-83pv-RKSJ-H, Kozuka Gothic Pr6N;letter-spacing:-0.05em;}.cls-9{font-size:20.11px;font-family:FlatironITCStd, Flatiron ITC Std;}.cls-10{letter-spacing:-0.06em;}.cls-11{letter-spacing:-0.04em;}.cls-12{font-size:18.4px;font-family:TN_web_use_only, TN web use only;}.cls-13{letter-spacing:-0.02em;}.cls-14{letter-spacing:0em;}.cls-15{letter-spacing:-0.02em;}.cls-16{letter-spacing:-0.01em;}.cls-17{letter-spacing:-0.02em;}.cls-18{letter-spacing:-0.01em;}.cls-19{letter-spacing:-0.02em;}.cls-20{letter-spacing:0em;}.cls-21{letter-spacing:0.01em;}.cls-22{letter-spacing:-0.06em;}.cls-23{letter-spacing:0.01em;}.cls-24{letter-spacing:-0.03em;}</style></defs><g id="Ebene_2" data-name="Ebene 2"><g id="Ebene_2-2" data-name="Ebene 2"><path class="cls-1" d="M273.35,11.6S254.75,31,349.41,188.77c0,0,94.81,137.33,95.77,175.65,0,0,252.49,51.91,263.75,106,21.14,116.13,136,4.75,161.09,4.32,0,0,72.26-29.12,114.93-28.74l85.14,20.29c-24.12-44.2,124.62,129.57,34.88-5.08,0,0,68.91,31.65,37.19,5.08-62.55-52.4,117.28,11.63,153,16.61l14.93,3.95,108.58,39.74h0S1576,636.11,1436.28,843.35l56.26-75.15s128.54-44.77,211.93,184.16c0,0-56.36,163-134.75,156.22l-656.31-484-96.92-142s-173.54-92.11-160-43.81l78.89,181.28L980,952.36l98,98.22s103.67,139.74,124,182.56l275,463.05s-2.27,43.87-76.63,0c0,0-380.11-16.8-524.74-149.78h-228s-83.4-105.93-11.28-275c0,0-117.19-19.22-173.53-66l72.11-400.58L697.05,617.86S539.29,480.38,525.76,473.62,249.19,361.77,249.19,361.77Z"/><rect class="cls-2" x="1240.51" y="883.49" width="96.36" height="3.37" transform="matrix(0.5, -0.87, 0.87, 0.5, -118.73, 1565.93)"/><path class="cls-2" d="M1568.74,1110s-29,36.72-1.55,56.74c0,0,60.23,14.4,49.29-24.65C1616.48,1142.11,1615.73,1115.07,1568.74,1110Z"/><path class="cls-2" d="M484.64,283.25C425.28,231.09,397.45,177,397.19,176.5l1.5-.76c.28.53,27.95,54.31,87.05,106.24Z"/><path class="cls-2" d="M459,287.2c-54.95-47-60.68-76.46-60.9-77.69l1.67-.29c0,.29,5.93,30.19,60.33,76.7Z"/><path class="cls-2" d="M464.4,280c-50-32.12-66.1-83.2-66.26-83.71l1.62-.49c.16.5,16.12,51,65.55,82.79Z"/><path class="cls-2" d="M1590.1,1170.1c-11.95,0-28.37-2.45-52.38-9.74l.47-1.57c69,21,76.7,1.29,76.78,1.09,3.11-10.11,2.57-19.08-1.61-26.6-7.45-13.38-24.1-17.91-24.26-18-51.59-9-101.63-54-102.12-54.47l1.25-1.39c.5.45,50.06,45.41,100.8,54.23.88.23,17.42,4.22,25.57,18.87,4.66,8.36,4.82,17.67,1.42,28.74C1615.81,1161.94,1610.23,1169.19,1590.1,1170.1Z"/><path class="cls-2" d="M450.82,1187.21s-38,61.7,37.19,48.18Z"/><path class="cls-2" d="M491.39,1258.1l11,17.85s-27.32,22-37.77,11C464.61,1286.94,453.22,1274,491.39,1258.1Z"/><path class="cls-2" d="M531.11,1263.28s26.75,45.66,41.26-6.75Z"/><path class="cls-2" d="M584.36,1252.29s36,34.42,27-11Z"/><path class="cls-2" d="M906.89,664.38c-188.35,0-281.52-74.38-282.5-75.17l1.08-1.31c1,.83,104.22,83,313,74.1l.07,1.69C927.71,664.15,917.15,664.38,906.89,664.38Z"/><path class="cls-2" d="M494.21,561.52c50.4,12.29-92.4,42.82-92.4,42.82L417.58,699,528,578.89,430.54,746.32,577.6,588.56,442.38,793.66l182.55-205.1L440.11,829.71l9,347.08c-42.83,38.3-9,65.36-9,65.36,27.05,18,58.6-4.51,58.6-4.51-76.62,47.33-36,58.6-36,58.6,51.83,0,58.6-33.8,58.6-33.8,9,38.31,31.55,27,31.55,27,29.29-4.51,25-36.06,25-36.06,18.28,31.55,29.06,15.77,29.06,15.77,29.29-11.27,13.52-22.54,13.52-22.54L582.1,1138.48c-18-99.17,27-356.1,27-356.1,36.05-4.51,83.4-58.6,83.4-58.6C753.39,690,791.7,841,791.7,841c33.81,51.83,51.84,22.53,51.84,22.53l161.71-123.39L726.84,417.93l301.51,339.66c90.15,27,247.91,180.3,247.91,180.3,40.56,33.81,94.66,142,94.66,142,42.82,96.91,180.3,92.41,180.3,92.41,33.82,45.07,49.57,119.44,49.57,119.44,29.3,83.4,108.18,60.85,108.18,60.85,22.54-27-13.51-39.06-13.51-39.06-49.59-46.58,10.19-61.9,10.19-61.9,58.59,4.5,61.22-25.25,61.22-25.25.77-38.35-26.35-29.3-26.35-29.3-47.32,4.52-48.09-15.83-48.09-15.83-.3-27.07,36.83-33.75,36.83-33.75,92.39-24.8-11.27-36.06-11.27-36.06-58.59,0,2.25-36,2.25-36,124-29.3,0-47.33,0-47.33-65.36,9-135.21,4.5-135.21,4.5-117.2-4.5-243.41-160-243.41-160C1296.54,836.47,1265,768.2,1265,768.2c-27-52.5-114.93-109.77-114.93-109.77-49.58-47.33,74.36-169,74.36-169l-99.16,99.16,83.4-112.69L1114,534.47l83.38-72.12-99.17,51.84,71-68.18L848,426.29c-214.1-2.26-317.77-64.52-317.77-64.52-148.74-64.5-130.71-158.6-130.71-158.6C392.79,20.62,313.91,9.35,313.91,9.35S160.64-43,97.54,111.16c0,0,62,22.14,40.57,63.34,0,0-78.88-9.4-24.8,57,0,0-62-50.83-74.36-15.9,0,0-6.77,14.65,4.5,21.42,0,0,10.15,28.67-5.63,22.79,0,0-54.09-11.52-31.55,48.2C6.27,308,55.53,454.48,494.21,561.52Z"/><polyline class="cls-2" points="1210.77 460.47 1125.83 588.56 791.14 416.38"/><polyline class="cls-2" points="1172.4 451.62 1111.17 546.87 850.89 416.69"/><path class="cls-2" d="M727.41,417.93l413.46,224.94,110.66-171S1052.46,405.06,727.41,417.93Z"/><path class="cls-2" d="M730.85,418.52l410.07,223.09,109.65-169.43C1236,467.55,1071.71,417,810.46,417,784.18,417,757.42,417.5,730.85,418.52Zm410.64,225.33-.69-.38L724.65,417.07l3.06-.12c27.61-1.09,55.44-1.65,82.75-1.65,272.74,0,440,55.07,441.68,55.62l1,.35Z"/><polygon class="cls-2" points="1126.45 589.51 1125.77 589.17 791.08 417 791.85 415.48 1125.88 587.32 1210.4 459.86 1211.82 460.81 1126.45 589.51"/><polygon class="cls-2" points="1111.82 547.83 1111.13 547.48 850.84 417.31 851.59 415.8 1111.2 545.63 1172.01 451.03 1173.44 451.93 1111.82 547.83"/><path class="cls-2" d="M1109.48,1084.39s54.08,89.51-47.33,212.66c0,0-83.39,87.08-20.28,193,0,0,76.63,87.9,63.11,155.51,0,0-110.44,0-171.29-38.3,0,0-81.13,193.81-153.25,166.76,0,0-49.58-13.52-27.05-60.85,0,0-130.72,7.2-126.21-34.71,0,0,4.51-32.9,72.12-28.39,0,0-4.5-24.79,2.25-27,0,0-65.36,9.25-65.36-29.18,0,0,9-40.69,60.86-47.45,0,0-2.27-49.59,33.8-51.84,0,0-9-40.59,18-40.57,0,0,174,20.29,150.09-60.84,0,0-93.74-207.35-87-268.2Z"/><path class="cls-2" d="M993.1,1533.71c-19.43,0-28.3-11.68-31.89-18.77-2,6.92-5.39,12-10.22,15-8.22,5.14-17.41,2.47-17.79,2.35a24.38,24.38,0,0,1-18.92-12.42c-20-34.54,18.45-127.88,20.11-131.84,22-46.18-53.15-224.51-53.91-226.32l-.85-2,2.15-.33c45.86-6.9,80,44.71,80.36,45.23a111.27,111.27,0,0,0,39.49,31.17c4.08-10.34,8.86-18.06,14.47-22l2,2.76c-5.19,3.67-9.63,10.88-13.44,20.6,37.21,15.92,72.33,5.85,72.83,5.71l1,3.23c-.51.16-36.64,10.55-75-5.79-21.69,60.28-21.79,203.49-21.77,213.25,26.45,39.38,29,59.86,26.38,70.13-1.74,6.93-5.79,9.16-6,9.24l-.53.18A56.5,56.5,0,0,1,993.1,1533.71Zm-32.74-32.86,2,8c.27,1.05,6.78,25.57,38.33,20.9.69-.48,3-2.41,4.14-7.22,2.28-9.66-.43-29.23-26.27-67.58l-.29-.42V1454c0-7.29-.55-152.63,22.15-215.1-14-6.49-28.24-16.67-41-32.34-.44-.63-32.42-48.81-75-44.15,8.82,21.1,74.59,181.68,53,227-.37.87-39.48,95.67-20.27,128.77,3.66,6.33,9.13,9.87,16.68,10.82.37.08,8.44,2.4,15.35-2,5.12-3.22,8.42-9.29,9.83-18Z"/><path class="cls-2" d="M1012.27,1635.72s17.65-73.48,76.59-73.51c0,0,26.26,45,16.12,83.36C1105,1645.57,1053.72,1646.88,1012.27,1635.72Z"/><path class="cls-2" d="M753.39,1697.41s56.74-89.44,99.17-51.79c0,0,6.76,120.35-99.17,109.74C753.39,1755.36,734,1724.46,753.39,1697.41Z"/><path class="cls-2" d="M697.05,1546.41s29.3,38.31,4.5,76.63c0,0-68.46,11.54-65.36-29.18C636.19,1593.86,643,1551.2,697.05,1546.41Z"/><path class="cls-2" d="M699.3,1650.08s27,36.87,24.78,63.5c0,0-101.41,2.3-96.9-35.11C627.18,1678.47,631.4,1643.32,699.3,1650.08Z"/><rect class="cls-2" x="706.2" y="1606.87" width="45.95" height="3.39" transform="translate(-860.43 838.93) rotate(-39.78)"/><polygon class="cls-2" points="748.25 1679.39 745.41 1677.55 781.27 1622.35 784.11 1624.17 748.25 1679.39"/><path class="cls-2" d="M675.05,790.1s-96.17,199.63,67.31,244L805.23,1161l401.16-56.35s33.8,2.26-9-49.58c0,0-254.68-358.35-358.35-311,0,0-42.82-59.42-123.95-68C715.08,676.05,688.56,729.25,675.05,790.1Z"/><path class="cls-2" d="M627.06,741.93S617.84,679.82,698,628c0,0,95.11,41.56,240.47,34.86l66.78,77.28s33.83,85.61-77.56,89.79c0,0-74,12.2-88.66-85.85,0,0,16.8,103.61-112.19,99.13C726.84,843.2,636,844.59,627.06,741.93Z"/><path class="cls-2" d="M680.17,394.27C412.64,175.78,360.94,49.07,360.46,47.82l1.56-.61c.49,1.25,52.12,127.62,319.21,345.75Z"/><path class="cls-2" d="M671.83,394.34C461.35,272.65,390,123.55,389.31,122.06l1.54-.71c.69,1.48,71.84,150.12,281.83,271.53Z"/><path class="cls-2" d="M622.83,382.53C479.55,305.13,397,167.05,396.17,165.66l1.45-.86c.83,1.38,83.16,139.07,226,216.23Z"/><path class="cls-2" d="M596.6,327.57c-124.24-73.84-210-218.75-210.81-220.21l1.45-.85c.86,1.45,86.37,146,210.22,219.61Z"/><path class="cls-2" d="M538.26,274.21C469.39,229.3,382.18,93.69,381.31,92.33l1.42-.91c.87,1.36,87.89,136.66,156.45,181.38Z"/><path class="cls-2" d="M524.72,293.74C456,246.61,393.83,144,393.22,142.94l1.45-.87c.62,1,62.61,103.35,131,150.27Z"/><path class="cls-2" d="M505,305.31c-74.18-45.3-106.79-118-107.12-118.76l1.55-.68c.32.72,32.75,73,106.45,118Z"/><path class="cls-2" d="M488.76,318.25C414.2,269.3,398,217.65,397.88,217.13l1.62-.48c.16.51,16.19,51.61,90.18,100.19Z"/><path class="cls-2" d="M535.55,357.76C446.07,317,403.9,246.53,403.49,245.83l1.45-.86c.42.7,42.34,70.71,131.31,111.25Z"/><path class="cls-2" d="M505,283.32c-41.91-27.38-109.2-126-109.87-127l1.39-.95c.68,1,67.78,99.37,109.41,126.57Z"/><path class="cls-2" d="M500.73,345.56c-44.44-21.8-72.49-54.75-72.77-55.08l1.3-1.09c.28.32,28.11,33,72.22,54.66Z"/><path class="cls-2" d="M265.09,108A25.44,25.44,0,1,1,239.66,82.6,25.44,25.44,0,0,1,265.09,108Z"/><path class="cls-2" d="M231.9,91.87s-5.25,26.64,17.34,32.33C249.24,124.2,257.36,99.23,231.9,91.87Z"/><path class="cls-2" d="M244.86,108a3.95,3.95,0,1,1-3.93-4.22A4.08,4.08,0,0,1,244.86,108Z"/><polygon class="cls-2" points="54.87 369.3 63.05 529.58 169.62 446.57 54.87 369.3"/><path class="cls-2" d="M328.05,279.88a14.84,14.84,0,0,1-2.52-3.59c-.16-.32-4-7.84-1.06-10.74,2.11-2.13,7.25-1.12,15.24,3,.94-.13,8.16-1.27,10.11-4.9a4.32,4.32,0,0,0,.09-3.79c-.09-.15-2.44-4.52-1.18-8.52.75-2.37,2.6-4.08,5.51-5.1.4-.48,3.47-4.3,1.38-6.42-.95-.94-3.34-2-9.49-1.46-.28,0-5.92-.11-8.3-2.51-1.47-1.49-1.41-3.45.19-5.84l.06-.09.11,0c.69-.13,16.7-2.93,23.47,3.9,4.82,4.88,3.64,13.32-3.56,25.09-.55.94-13.68,23-24.39,23.38a7.43,7.43,0,0,1-5.66-2.38Zm28-40.47c2.67,2.7-1.16,7.16-1.33,7.34l0,.06-.06,0c-2.8,1-4.56,2.57-5.25,4.78-1.19,3.75,1.11,8,1.12,8.05a5,5,0,0,1-.07,4.36c-2.19,4.09-10.26,5.14-10.61,5.18h-.1l-.1,0c-7.78-4-12.7-5.07-14.64-3.12-2.61,2.61,1.11,9.95,1.15,10a13.65,13.65,0,0,0,2.37,3.4h0a6.71,6.71,0,0,0,5.12,2.15c10.41-.34,23.81-22.89,23.94-23.11,7-11.51,8.28-19.68,3.7-24.3C355,228,340,230.27,338.5,230.51c-1.34,2.07-1.44,3.73-.25,4.92,2.17,2.19,7.7,2.29,7.76,2.29C351.13,237.3,354.5,237.86,356,239.41Z"/><polyline class="cls-3" points="1420.5 370.96 1420.5 369.74 1420.5 365.55 1420.5 322.75 1420.5 303.21 1420.5 268.93 1420.5 267.02 1420.5 210.96 1420.5 208.82 1420.5 206.53 1420.5 205.26"/><text class="cls-4" transform="translate(1258.63 383.1) scale(0.98 1)">スハカキマニリラ<tspan class="cls-5" x="69.08" y="0"> </tspan><tspan class="cls-6" x="71.13" y="0">· </tspan><tspan class="cls-7" x="75.18" y="0">CVN</tspan><tspan class="cls-6" x="102.87" y="0" xml:space="preserve"> · </tspan><tspan class="cls-8" x="108.94" y="0">謄寫抄本</tspan><tspan class="cls-6" x="149.3" y="0"> </tspan></text><text class="cls-9" transform="translate(886.52 201.23)">e<tspan class="cls-10" x="28.82" y="0">xa</tspan><tspan x="89.51" y="0">mining p</tspan><tspan class="cls-11" x="263.11" y="0">os</tspan><tspan x="322.72" y="0">sibilities®</tspan></text><text class="cls-12" transform="translate(852.85 273.36)">Cultu<tspan class="cls-13" x="45.29" y="0">r</tspan><tspan x="51.9" y="0">e </tspan><tspan class="cls-14" x="67.41" y="0">t</tspan><tspan x="73.77" y="0">ends </tspan><tspan class="cls-14" x="120.35" y="0">t</tspan><tspan x="126.72" y="0">o a</tspan><tspan class="cls-15" x="152.88" y="0">r</tspan><tspan x="159.49" y="0">gue th</tspan><tspan class="cls-16" x="213.28" y="0">a</tspan><tspan x="223.43" y="0">t it </tspan><tspan class="cls-17" x="250.2" y="0">f</tspan><tspan x="256.36" y="0">orbids only th</tspan><tspan class="cls-16" x="371.73" y="0">a</tspan><tspan x="381.88" y="0">t which is unn</tspan><tspan class="cls-18" x="497.82" y="0">a</tspan><tspan x="507.98" y="0">tu</tspan><tspan class="cls-13" x="524.81" y="0">r</tspan><tspan x="531.42" y="0">al. </tspan><tspan x="-14.77" y="22.08">But f</tspan><tspan class="cls-19" x="26.11" y="22.08">r</tspan><tspan class="cls-20" x="32.71" y="22.08">om a biologi</tspan><tspan class="cls-21" x="135.47" y="22.08">c</tspan><tspan x="145.96" y="22.08">al perspecti</tspan><tspan class="cls-18" x="245.93" y="22.08">ve</tspan><tspan x="265.25" y="22.08">, n</tspan><tspan class="cls-16" x="284.62" y="22.08">o</tspan><tspan x="295.36" y="22.08">thing is unn</tspan><tspan class="cls-16" x="392.68" y="22.08">a</tspan><tspan x="402.84" y="22.08">tu</tspan><tspan class="cls-13" x="419.67" y="22.08">r</tspan><tspan x="426.28" y="22.08">al. Wh</tspan><tspan class="cls-16" x="477.92" y="22.08">a</tspan><tspan class="cls-14" x="488.07" y="22.08">t</tspan><tspan class="cls-18" x="494.44" y="22.08">ev</tspan><tspan x="513.75" y="22.08">er is </tspan><tspan x="8.52" y="44.15">possible is </tspan><tspan class="cls-16" x="102.86" y="44.15">b</tspan><tspan x="113.6" y="44.15">y d</tspan><tspan class="cls-18" x="139.01" y="44.15">e</tspan><tspan x="149.44" y="44.15">finition al</tspan><tspan class="cls-21" x="225.69" y="44.15">s</tspan><tspan x="235.48" y="44.15">o n</tspan><tspan class="cls-18" x="261.81" y="44.15">a</tspan><tspan x="271.96" y="44.15">tu</tspan><tspan class="cls-15" x="288.79" y="44.15">r</tspan><tspan x="295.4" y="44.15">al. A truly unn</tspan><tspan class="cls-16" x="410.32" y="44.15">a</tspan><tspan x="420.48" y="44.15">tu</tspan><tspan class="cls-13" x="437.31" y="44.15">r</tspan><tspan x="443.92" y="44.15">al beh</tspan><tspan class="cls-14" x="495.37" y="44.15">a</tspan><tspan x="505.62" y="44.15">viou</tspan><tspan class="cls-22" x="540.06" y="44.15">r</tspan><tspan x="545.93" y="44.15">, </tspan><tspan x="-8.96" y="66.23">one th</tspan><tspan class="cls-16" x="44.94" y="66.23">a</tspan><tspan x="55.1" y="66.23">t goes again</tspan><tspan class="cls-18" x="159.63" y="66.23">s</tspan><tspan x="169.05" y="66.23">t the l</tspan><tspan class="cls-14" x="217.05" y="66.23">aw</tspan><tspan x="241.57" y="66.23">s </tspan><tspan class="cls-16" x="256.07" y="66.23">o</tspan><tspan x="266.81" y="66.23">f n</tspan><tspan class="cls-16" x="288.65" y="66.23">a</tspan><tspan x="298.8" y="66.23">tu</tspan><tspan class="cls-13" x="315.64" y="66.23">r</tspan><tspan class="cls-16" x="322.24" y="66.23">e</tspan><tspan x="332.67" y="66.23">, simply </tspan><tspan class="cls-23" x="400.46" y="66.23">c</tspan><tspan x="410.95" y="66.23">ann</tspan><tspan class="cls-16" x="442.3" y="66.23">o</tspan><tspan x="453.04" y="66.23">t </tspan><tspan class="cls-24" x="464.39" y="66.23">e</tspan><tspan x="474.55" y="66.23">xi</tspan><tspan class="cls-16" x="488.84" y="66.23">s</tspan><tspan class="cls-23" x="498.26" y="66.23">t</tspan><tspan x="504.9" y="66.23">, </tspan><tspan class="cls-21" x="513.77" y="66.23">s</tspan><tspan x="523.56" y="66.23">o it </tspan><tspan class="cls-16" x="319.61" y="88.31">w</tspan><tspan x="333.8" y="88.31">ould need no p</tspan><tspan class="cls-13" x="460.02" y="88.31">r</tspan><tspan x="466.62" y="88.31">ohibition.” </tspan></text><path class="cls-25" d="M734.27,814.8c-.21,0-.38.07-.57.09-17.35,2.39-34.06,8.56-49.93,18v-16a160.64,160.64,0,0,1,18.05-2.55c4.58-.42,9.21-.61,13.85-.61s9.34.19,14,.61c1.37.11,2.71.25,4.06.4Z"/><polygon class="cls-25" points="544.55 1203.18 544.55 1211.7 535.09 1216.12 531.83 1209.11 544.55 1203.18"/><polygon class="cls-25" points="683.77 1138.25 683.77 1146.36 579.8 1194.85 550.44 1208.55 547.35 1201.87 683.77 1138.25"/><polygon class="cls-25" points="683.77 1137.84 683.77 1146.36 579.8 1194.85 550.44 1208.55 547.35 1201.87 547.18 1201.54 579.78 1186.34 579.8 1186.32 683.77 1137.84"/><polygon class="cls-25" points="476.45 1280.16 475.38 1280.16 475.38 1278.62 476.45 1280.16"/><path class="cls-25" d="M544.55,1170v17.43q-.15-6.36-.15-12.8c0-2.21,0-4.42,0-6.61C544.47,1168.66,544.5,1169.32,544.55,1170Z"/><polygon class="cls-25" points="544.55 1203.18 544.55 1211.7 535.09 1216.12 531.83 1209.11 544.55 1203.18"/><path class="cls-25" d="M544.55,1161.81v25.6q-.15-6.36-.15-12.8c0-2.21,0-4.42,0-6.61v-.06C544.47,1165.89,544.5,1163.85,544.55,1161.81Z"/><path class="cls-25" d="M734.27,814.8c-.21,0-.38.07-.57.09-17.35,2.39-34.06,8.56-49.93,18v-16a160.64,160.64,0,0,1,18.05-2.55c4.58-.42,9.21-.61,13.85-.61s9.34.19,14,.61c1.37.11,2.71.25,4.06.4Z"/><polygon class="cls-25" points="382.65 1047.09 336.1 1079.69 331.65 1073.37 378.22 1040.77 382.65 1047.09"/><path class="cls-25" d="M721.91,1531.59H652.49l-176-251.43-1.07-1.54-98.74-141-4.92-7,61.79-10.88,4.89,7,37,52.8v-13.64c0-1.37.06-2.75.16-4.11,3.88-167.54,83.83-306,189.56-340,3.88-1.25,7.78-2.36,11.75-3.31,2.3-.57,4.6-1.08,6.92-1.55v16c-2.32,1.41-4.64,2.85-6.92,4.39q-6,4-11.75,8.6C596,901,547.36,1021.16,544.55,1161.77v0c-.1,1.35-.15,2.71-.15,4.07,0,.69,0,1.38,0,2.06v.06c0,2.19,0,4.4,0,6.61q0,6.44.15,12.8v15.77l-12.72,5.93,3.26,7,9.46-4.42v66.61Z"/><path class="cls-25" d="M490.2,971.74l-46.74,32.78-5-5.93v0L302.72,836.77c-2.5,1.65-5,3.36-7.4,5.16-.91.68-1.82,1.34-2.71,2.05s-1.82,1.4-2.71,2.1c-69.11,55.08-117.75,175.24-120.56,315.85v0q-.14,6.35-.13,12.79t.13,12.8v344H100.18V1174.76c0-4.29,0-8.58.15-12.83,3.73-161.08,77.8-295.31,177.47-335.6,2.89-1.19,5.79-2.26,8.72-3.28,1.12-.4,2.24-.78,3.38-1.14a1.29,1.29,0,0,1,.26-.08,164,164,0,0,1,50.31-7.94,156.44,156.44,0,0,1,18,1h.08l.1.11L485.27,965.88Z"/><polygon class="cls-25" points="443.46 1004.52 433.29 1011.65 392.04 1040.51 387.6 1034.19 428.3 1005.69 438.46 998.59 443.46 1004.52"/><polygon class="cls-25" points="392.04 1040.51 382.65 1047.09 336.1 1079.7 335.38 1080.2 330.94 1073.86 331.64 1073.38 378.22 1040.77 387.6 1034.19 392.04 1040.51"/><polygon class="cls-25" points="387.6 1034.19 392.04 1040.51 382.65 1047.09 336.1 1079.7 335.38 1080.2 226.9 1156.15 213.38 1165.62 208.97 1159.32 208.95 1159.28 330.94 1073.86 331.64 1073.38 378.22 1040.77 387.6 1034.19"/><polygon class="cls-25" points="490.2 971.74 485.27 965.88 485.31 965.86 490.2 971.74"/><path class="cls-25" d="M359.06,815l-.37.06-.1-.11Z"/><polygon class="cls-25" points="376.64 1137.6 375.68 1137.78 210.27 1166.95 208.93 1159.32 208.97 1159.32 226.9 1156.15 370.79 1130.78 371.72 1130.59 376.64 1137.6"/><path class="cls-25" d="M100,1175.68h.16c-.1,4.26-.16,8.55-.16,12.84Z"/><rect class="cls-25" x="991.78" y="857.8" width="55.19" height="7.72"/><rect class="cls-25" x="861.36" y="857.8" width="130.42" height="7.72"/><rect class="cls-25" x="991.78" y="857.8" width="55.19" height="7.72"/><rect class="cls-25" x="991.78" y="813.73" width="69.17" height="7.73"/><rect class="cls-25" x="991.78" y="813.73" width="69.17" height="7.73"/><polygon class="cls-25" points="1432.41 863.75 1124.24 821.46 1067.9 813.73 1382.39 813.73 1432.41 863.75"/><polygon class="cls-25" points="1124.24 821.46 1060.95 821.46 1060.95 813.73 1067.9 813.73 1124.24 821.46"/><path class="cls-25" d="M1414,1330.18,1250.51,1525l0,0-.37,0-2,.22c-.67.07-1.35.14-2,.19-2.31.21-4.62.36-7,.46s-4.67.15-7,.15-4.64-.05-7-.15-4.61-.25-6.9-.46c-1-.09-2.11-.18-3.16-.29q-3.16-.33-6.3-.78c-1-.15-2.09-.32-3.12-.49s-2.08-.35-3.13-.55l-2.49-.47-.24,0c-.5-.11-1-.21-1.52-.33l-.26,0c-.56-.11-1.12-.23-1.68-.37-1-.23-2-.46-3.07-.72-.24-.06-.49-.11-.72-.18l-.55-.14c-.6-.14-1.2-.29-1.78-.46-.89-.22-1.76-.45-2.62-.7s-1.88-.53-2.81-.82-1.87-.57-2.8-.87a4.19,4.19,0,0,1-.47-.14c-28.35-9.12-54.84-25.73-78.51-48.42l-46.47,55.39-.33.38h-3.48l-.58.06c-4.62.42-9.27.61-14,.61-1,0-2,0-3,0s-1.76,0-2.66,0c-1.83,0-3.65,0-5.47-.1l-2.73-.11-2.72-.16c-1.21-.08-2.41-.19-3.61-.3s-2.64-.25-4-.39-2.62-.32-3.93-.5l-2-.28-3.9-.64q-2.94-.53-5.83-1.14c-1.29-.28-2.58-.57-3.86-.87-2.56-.62-5.1-1.29-7.64-2h0q-2.34-.67-4.69-1.42a1.62,1.62,0,0,1-.27-.08c-1.13-.38-2.26-.74-3.37-1.16-2.93-1-5.83-2.08-8.72-3.28-99.68-40.28-173.74-174.5-177.47-335.58h0c-.1-3.69-.16-7.4-.16-11.11v-70.74l-51.56,24-56.85,26.52L544.56,1211.7h0v-8.52h0l2.79-1.31,3.09,6.68,29.37-13.7,104-48.49V832.93c15.87-9.48,32.58-15.65,49.93-18,.19,0,.36-.07.57-.09l-.57-.06c-1.35-.15-2.69-.29-4.06-.4-4.63-.42-9.27-.61-14-.61h25v297.61L769,1098.13l.56-.27,22.67-10.57V857.8h69.17v298.08c-.1,3.66-.14,7.36-.14,11.09s0,7.42.14,11.09v0h0c.13,6.63.38,13.22.7,19.75.14,2.73.29,5.45.47,8.14,8.24,128.48,54.9,236.57,119.38,288,.9.71,1.8,1.41,2.72,2.11s1.78,1.37,2.71,2q3.64,2.69,7.4,5.15,1.89,1.24,3.81,2.44l67.16-80c-43.36-62.5-71.16-149.18-73.71-245.63h-.07c-.09-2.08-.15-4.2-.15-6.33V1045l69.17,12.26,156.26,27.7L1060.85,974.9l-69.07-48.64v-60.5H1047v-8H991.78V821.46H1061v144l174.25,122.66,15,10.52-18-3.16L1061,1065.15V1167.4c-.1,2.08-.14,4.2-.14,6.29,0,1.48,0,3,.07,4.4h.07c1.52,76.5,16.62,147,41.21,204.16a358.35,358.35,0,0,0,28.69,54.23c15.09,23.25,32.13,42.68,50.65,57.46q5.77,4.59,11.75,8.6c.41.28.8.55,1.22.8h0l172.75-205.9Z"/><rect class="cls-25" x="991.78" y="857.8" width="55.19" height="0.19"/><polygon class="cls-25" points="1485.05 268.93 1485.05 268.93 1485.13 269.04 1485.13 269.04 1485.05 268.93"/><polygon class="cls-25" points="1478.63 259.75 1478.63 259.75 1479.71 261.29 1479.71 261.29 1478.63 259.75"/><polygon class="cls-25" points="1468.4 242.94 1467.43 243.75 1467.43 243.74 1468.4 242.94"/><polygon class="cls-25" points="1485.05 268.93 1485.05 268.93 1485.13 269.04 1485.13 269.04 1485.05 268.93"/><polygon class="cls-25" points="1478.63 259.75 1478.63 259.75 1479.71 261.29 1479.71 261.29 1478.63 259.75"/><path class="cls-25" d="M1560.15,205v11.38l-64.57,45.21,0,.16,4.78,27.11-1.25.22h0l-14-20-.08-.11h0l-5.34-7.64h0l-1.08-1.53-4.67-6.68-1.16-1.66h0l-28.48,23.9c7.68,12.26,29.52,21.11,55.26,21.11v0h0q1,0,2.1,0t2.1,0h56.38v11.34h-58.48c-.7,0-1.41,0-2.1,0v0c-27.28,0-50.27-13-57.28-30.78a30.88,30.88,0,0,1-2.19-10.33l1.26-1.06,26.07-21.87,1-.81,5.37,7.66,1.17,1.67,4.73,6.76,1.08,1.54,5.34,7.63.08.12,12.45,17.77-4.16-23.58,0-.15-1.78-10.13,1.14-.8Z"/><polygon class="cls-25" points="1468.4 242.94 1467.43 243.75 1467.43 243.74 1468.4 242.94"/><polygon class="cls-25" points="1485.05 308.58 1485.05 308.58 1485.13 308.47 1485.13 308.47 1485.05 308.58"/><polygon class="cls-25" points="1478.63 317.75 1478.63 317.75 1479.71 316.21 1479.71 316.21 1478.63 317.75"/><polygon class="cls-25" points="1468.4 334.57 1467.43 333.76 1467.43 333.77 1468.4 334.57"/><polygon class="cls-25" points="1485.05 308.58 1485.05 308.58 1485.13 308.47 1485.13 308.47 1485.05 308.58"/><polygon class="cls-25" points="1478.63 317.75 1478.63 317.75 1479.71 316.21 1479.71 316.21 1478.63 317.75"/><path class="cls-25" d="M1560.15,372.55V361.17L1495.58,316l0-.16,4.78-27.11-1.25-.22h0l-14,20-.08.11h0l-5.34,7.63h0l-1.08,1.54-4.67,6.67-1.16,1.67h0l-28.48-23.9c7.68-12.26,29.52-21.11,55.26-21.11v0h0l2.1,0,2.1,0h56.38V269.72h-58.48l-2.1,0v0c-27.28,0-50.27,13-57.28,30.77a30.94,30.94,0,0,0-2.19,10.34l1.26,1.05,26.07,21.88,1,.81,5.37-7.66,1.17-1.67,4.73-6.76,1.08-1.54,5.34-7.63.08-.12,12.45-17.77L1494.46,315l0,.15-1.78,10.13,1.14.8Z"/><polygon class="cls-25" points="1468.4 334.57 1467.43 333.76 1467.43 333.77 1468.4 334.57"/><path class="cls-25" d="M884.83,212.3v39.12h38.53V212.3Zm19.27,37.45a17.89,17.89,0,1,1,17.61-17.89A17.76,17.76,0,0,1,904.1,249.75Z"/><path class="cls-25" d="M928.18,212.3v39.12H966.7V212.3Zm19.26,37.45a17.89,17.89,0,1,1,17.62-17.89A17.76,17.76,0,0,1,947.44,249.75Z"/><path class="cls-25" d="M971.52,212.3v39.12h38.53V212.3Zm19.27,37.45a17.89,17.89,0,1,1,17.61-17.89A17.76,17.76,0,0,1,990.79,249.75Z"/><path class="cls-25" d="M1014.87,212.3v39.12h38.52V212.3Zm19.26,37.45a17.89,17.89,0,1,1,17.62-17.89A17.76,17.76,0,0,1,1034.13,249.75Z"/><path class="cls-25" d="M1058.21,212.3v39.12h38.53V212.3Zm19.26,37.45a17.89,17.89,0,1,1,17.62-17.89A17.76,17.76,0,0,1,1077.47,249.75Z"/><path class="cls-25" d="M1101.56,212.3v39.12h38.52V212.3Zm19.26,37.45a17.89,17.89,0,1,1,17.62-17.89A17.76,17.76,0,0,1,1120.82,249.75Z"/><path class="cls-25" d="M1144.9,212.3v39.12h38.53V212.3Zm19.26,37.45a17.89,17.89,0,1,1,17.62-17.89A17.76,17.76,0,0,1,1164.16,249.75Z"/><path class="cls-25" d="M1188.25,212.3v39.12h38.52V212.3Zm19.26,37.45a17.89,17.89,0,1,1,17.62-17.89A17.76,17.76,0,0,1,1207.51,249.75Z"/><path class="cls-25" d="M1231.59,212.3v39.12h38.52V212.3Zm19.26,37.45a17.89,17.89,0,1,1,17.62-17.89A17.75,17.75,0,0,1,1250.85,249.75Z"/><path class="cls-25" d="M1274.94,212.3v39.12h38.52V212.3Zm19.26,37.45a17.89,17.89,0,1,1,17.62-17.89A17.76,17.76,0,0,1,1294.2,249.75Z"/><path class="cls-25" d="M1318.28,212.3v39.12h38.52V212.3Zm19.26,37.45a17.89,17.89,0,1,1,17.62-17.89A17.75,17.75,0,0,1,1337.54,249.75Z"/><path class="cls-25" d="M1361.63,212.3v39.12h38.52V212.3Zm19.26,37.45a17.89,17.89,0,1,1,17.61-17.89A17.76,17.76,0,0,1,1380.89,249.75Z"/></g></g></svg>