<?xml version="1.0" standalone="no"?>
<!DOCTYPE svg PUBLIC "-//W3C//DTD SVG 1.1//EN" "http://www.w3.org/Graphics/SVG/1.1/DTD/svg11.dtd" >
<svg xmlns="http://www.w3.org/2000/svg" xmlns:xlink="http://www.w3.org/1999/xlink" version="1.1">
<metadata>
Created by FontForge 20170731 at Tue May 21 20:05:46 2019
 By Aleksey,,,
Copyright (c) 2018 by Baptiste Bernazeau et Margot Le've^que. All rights reserved.
</metadata>
<defs>
<font id="Signal-Regular" horiz-adv-x="0" >
  <font-face 
    font-family="Signal"
    font-weight="400"
    font-stretch="normal"
    units-per-em="1000"
    panose-1="0 0 5 0 0 0 0 0 0 0"
    ascent="800"
    descent="-200"
    x-height="500"
    cap-height="700"
    bbox="-375 -311 1086 973"
    underline-thickness="50"
    underline-position="-200"
    unicode-range="U+0020-25CA"
  />
<missing-glyph horiz-adv-x="524" 
d="M429 -311h-332v1047h332v-1047zM176 666v-35h68v-38h-69v-35h174v35h-69v38h69v35h-173zM175 531v-109h174v35h-69v74h-105zM244 457h-35v38h35v-38zM175 394v-35h69v-39h-69v-34h105v73h69v35h-174zM314 331v-69h-139v-36h174v105h-35zM244 203v-59h36v25h34v-50h-105
v84h-34v-118h174v118h-105zM175 22v-118h174v118h-174zM314 -62h-105v49h105v-49zM175 -120v-35h73l-73 -49v-35h174v35h-107l73 49h34v35h-174z" />
    <glyph glyph-name=".notdef" horiz-adv-x="524" 
d="M429 -311h-332v1047h332v-1047zM176 666v-35h68v-38h-69v-35h174v35h-69v38h69v35h-173zM175 531v-109h174v35h-69v74h-105zM244 457h-35v38h35v-38zM175 394v-35h69v-39h-69v-34h105v73h69v35h-174zM314 331v-69h-139v-36h174v105h-35zM244 203v-59h36v25h34v-50h-105
v84h-34v-118h174v118h-105zM175 22v-118h174v118h-174zM314 -62h-105v49h105v-49zM175 -120v-35h73l-73 -49v-35h174v35h-107l73 49h34v35h-174z" />
    <glyph glyph-name=".null" 
 />
    <glyph glyph-name="nonmarkingreturn" horiz-adv-x="333" 
 />
    <glyph glyph-name="space" unicode=" " horiz-adv-x="220" 
 />
    <glyph glyph-name="exclam" unicode="!" horiz-adv-x="217" 
d="M108 224q-19 0 -41 -5l-22 481h127l-23 -481q-22 5 -41 5zM53 5q-23 21 -23 54q0 32 23 54.5t56 22.5q32 0 55 -22.5t23 -54.5q0 -33 -22.5 -54t-55.5 -21t-56 21z" />
    <glyph glyph-name="quotedbl" unicode="&#x22;" horiz-adv-x="420" 
d="M180 700q0 -70 -19.5 -140.5t-54.5 -130.5h-76q44 132 44 271h106zM390 700q-1 -70 -20 -140.5t-54 -130.5h-76q44 132 44 271h106z" />
    <glyph glyph-name="numbersign" unicode="#" horiz-adv-x="636" 
d="M492 434l-33 -174h97q-15 -37 -14 -66h-95l-36 -194h-80l36 194h-130l-36 -194h-80l36 194h-127q17 31 14 66h125l33 174h-121q13 27 13 66h120l37 200h80l-37 -200h130l37 200h80l-37 -200h102q-15 -34 -14 -66h-100zM412 434h-130l-33 -174h130z" />
    <glyph glyph-name="dollar" unicode="$" horiz-adv-x="481" 
d="M409.5 47q-51.5 -54 -133.5 -62v-66h-65v67q-92 9 -180 61q0 65 -11 112q52 -41 98 -62.5t93 -27.5v258q-52 30 -85.5 56t-56.5 66t-23 96q0 76 43.5 120t121.5 50v60h64v-61q74 -7 149 -46q0 -55 12 -106q-83 58 -161 70v-234q60 -31 97 -56.5t63 -65t26 -94.5
q0 -81 -51.5 -135zM157 482.5q19 -25.5 54 -47.5v198q-35 -7 -54 -31t-19 -62q0 -32 19 -57.5zM340.5 100q22.5 27 22.5 73q0 37 -22.5 64.5t-64.5 53.5v-223q42 5 64.5 32z" />
    <glyph glyph-name="ampersand" unicode="&#x26;" horiz-adv-x="729" 
d="M560 0l-50 51q-100 -68 -218 -68q-80 0 -139.5 28t-91 78t-31.5 113q0 75 42.5 120t119.5 84q-59 91 -59 157q0 73 47 113.5t126 40.5q75 0 119 -38.5t44 -103.5q0 -47 -21 -80.5t-54 -55.5t-83 -45q60 -73 212 -224q70 65 141 180q-4 -37 -4 -80q0 -38 4 -70
q-41 -52 -80 -89l115 -111h-139zM272 445q53 27 82 55.5t29 68.5q0 34 -22.5 53t-58.5 19q-39 0 -58.5 -21t-19.5 -57q0 -47 48 -118zM448 114q-82 84 -131 137t-87 102q-49 -27 -75 -60t-26 -82q0 -69 49 -104.5t114 -35.5q83 0 156 43z" />
    <glyph glyph-name="quotesingle" unicode="'" horiz-adv-x="210" 
d="M180 700q-1 -69 -20.5 -139.5t-53.5 -131.5h-76q44 132 44 271h106z" />
    <glyph glyph-name="parenleft" unicode="(" horiz-adv-x="291" 
d="M158.5 542q-37.5 -98 -37.5 -191t37.5 -190.5t102.5 -175.5h-90q-66 71 -103.5 169.5t-37.5 195.5t37.5 196.5t103.5 170.5h90q-65 -77 -102.5 -175z" />
    <glyph glyph-name="parenright" unicode=")" horiz-adv-x="291" 
d="M120 717q66 -71 103.5 -170.5t37.5 -196.5t-37.5 -195.5t-103.5 -169.5h-90q65 78 102.5 175.5t37.5 190.5t-37.5 191t-102.5 175h90z" />
    <glyph glyph-name="asterisk" unicode="*" horiz-adv-x="453" 
d="M279 549l100 -109l-79 -57l-73 134l-73 -134l-79 57l100 109l-145 27l30 93l137 -63l-17 147h97l-19 -146l135 62l30 -93z" />
    <glyph glyph-name="comma" unicode="," horiz-adv-x="195" 
d="M165 124q0 -70 -19.5 -140.5t-54.5 -130.5h-76q44 132 44 271h106z" />
    <glyph glyph-name="hyphen" unicode="-" horiz-adv-x="264" 
d="M234 234h-204v80h204v-80z" />
    <glyph glyph-name="period" unicode="." horiz-adv-x="217" 
d="M53 5q-23 21 -23 54q0 32 23 54.5t56 22.5q32 0 55 -22.5t23 -54.5q0 -33 -22.5 -54t-55.5 -21t-56 21z" />
    <glyph glyph-name="slash" unicode="/" horiz-adv-x="385" 
d="M273 717h82l-243 -734h-82z" />
    <glyph glyph-name="zero" unicode="0" horiz-adv-x="645" 
d="M114 79q-74 96 -74 273q0 173 74.5 268.5t207.5 95.5q88 0 151.5 -43t97.5 -125t34 -197q0 -176 -74 -272t-208 -96q-135 0 -209 96zM457 131q51 62 51 220q0 136 -51.5 206.5t-134.5 70.5q-87 0 -136.5 -68t-49.5 -209q0 -159 51 -220.5t136 -61.5q83 0 134 62z" />
    <glyph glyph-name="one" unicode="1" horiz-adv-x="321" 
d="M154 0v590l-114 -35q5 20 5 46q0 27 -5 46l201 53h10v-700h-97z" />
    <glyph glyph-name="two" unicode="2" horiz-adv-x="526" 
d="M475 0h-435v78q117 102 178.5 162.5t100 126.5t38.5 137q0 119 -117 119q-95 0 -180 -81q5 33 5 56q0 24 -5 51q41 31 87.5 49.5t111.5 18.5q90 0 142 -54t52 -147q0 -91 -39 -167t-96 -135t-148 -136l316 4z" />
    <glyph glyph-name="three" unicode="3" horiz-adv-x="515" 
d="M44 87q0 27 -4 50q97 -67 193 -67q71 0 108 33.5t37 92.5q0 67 -57.5 98t-144.5 31h-23q3 21 3 41q0 21 -3 40h19q86 0 136.5 29t50.5 94q0 46 -31 70t-88 24q-95 0 -180 -81q4 24 4 54q0 29 -4 53q41 31 87.5 49.5t111.5 18.5q88 0 141 -46.5t53 -123.5
q0 -134 -119 -180q65 -20 103 -63t38 -105q0 -103 -66 -159.5t-178 -56.5q-99 0 -191 53q4 23 4 51z" />
    <glyph glyph-name="four" unicode="4" horiz-adv-x="608" 
d="M467 152v-152h-97v152h-330v77l271 471q34 -2 78 -2q46 0 78 2l-2 -466h103l-1 -82h-100zM370 234v381l-233 -381h233z" />
    <glyph glyph-name="five" unicode="5" horiz-adv-x="509" 
d="M164 620l-17 -206q54 17 116 17q56 0 103 -22t75 -68.5t28 -114.5q0 -119 -68 -181t-180 -62q-55 0 -98 12.5t-83 32.5v99q45 -26 87 -40.5t93 -14.5q69 0 109 38.5t40 102.5q0 61 -39.5 95.5t-110.5 34.5q-47 0 -82 -5t-79 -15l20 377h356q2 -44 12 -84z" />
    <glyph glyph-name="six" unicode="6" horiz-adv-x="543" 
d="M408 433q45 -27 70 -76t25 -113q0 -131 -58 -196.5t-167 -65.5q-137 0 -187.5 91t-50.5 253q0 167 60 279t201 112q49 0 85.5 -9.5t74.5 -29.5q-7 -38 -7 -62q0 -6 2 -36q-34 21 -69 32.5t-80 11.5q-168 0 -179 -268q26 54 72 79t106 25q57 0 102 -27zM382.5 104
q33.5 40 33.5 111q0 78 -35 121t-98 43q-62 0 -100 -42.5t-38 -119.5q0 -71 36.5 -112t102.5 -41q65 0 98.5 40z" />
    <glyph glyph-name="seven" unicode="7" horiz-adv-x="516" 
d="M249 0h-116l247 618l-340 -12q12 44 9 94h427v-63z" />
    <glyph glyph-name="eight" unicode="8" horiz-adv-x="559" 
d="M478 294.5q41 -44.5 41 -113.5q0 -90 -62.5 -143.5t-177.5 -53.5q-72 0 -126 24t-83.5 67.5t-29.5 99.5q0 60 37 105.5t112 88.5q-53 31 -83.5 73t-30.5 103q0 52 27.5 91t73.5 59.5t102 20.5q96 0 152.5 -43t56.5 -124q0 -59 -36.5 -104t-85.5 -68q72 -38 113 -82.5z
M195.5 607q-28.5 -24 -28.5 -65t33 -70t97 -61q50 24 72 57.5t22 70.5q0 92 -115 92q-52 0 -80.5 -24zM385 93.5q36 30.5 36 90.5q0 34 -21.5 59.5t-51 42t-89.5 45.5q-62 -28 -88.5 -62t-26.5 -85q0 -56 36 -88.5t101 -32.5q68 0 104 30.5z" />
    <glyph glyph-name="nine" unicode="9" horiz-adv-x="543" 
d="M452.5 626q50.5 -91 50.5 -253q0 -167 -60 -279t-201 -112q-49 0 -85.5 9.5t-74.5 29.5q7 38 7 62q0 6 -2 36q34 -21 69 -32.5t80 -11.5q168 0 179 268q-26 -54 -72 -79t-106 -25q-57 0 -102 27t-70 76t-25 113q0 131 58 196.5t167 65.5q137 0 187.5 -91zM360 362.5
q38 42.5 38 119.5q0 71 -36.5 112t-102.5 41q-65 0 -98.5 -40t-33.5 -111q0 -78 35 -121t98 -43q62 0 100 42.5z" />
    <glyph glyph-name="colon" unicode=":" horiz-adv-x="217" 
d="M53 386q-23 21 -23 54q0 32 23 54.5t56 22.5q32 0 55 -22.5t23 -54.5q0 -33 -22.5 -54t-55.5 -21t-56 21zM53 5q-23 21 -23 54q0 32 23 54.5t56 22.5q32 0 55 -22.5t23 -54.5q0 -33 -22.5 -54t-55.5 -21t-56 21z" />
    <glyph glyph-name="semicolon" unicode=";" horiz-adv-x="217" 
d="M53 386q-23 21 -23 54q0 32 23 54.5t56 22.5q32 0 55 -22.5t23 -54.5q0 -33 -22.5 -54t-55.5 -21t-56 21zM165 124q0 -70 -19.5 -140.5t-54.5 -130.5h-76q44 132 44 271h106z" />
    <glyph glyph-name="question" unicode="?" horiz-adv-x="449" 
d="M329 692q44 -25 68 -69.5t24 -100.5q0 -78 -47 -137t-129 -89l-2 -87q-22 5 -41 5t-41 -5l-2 133q70 13 118 56.5t48 111.5q0 55 -31.5 84t-85.5 29q-95 0 -180 -81v107q41 31 87.5 49.5t111.5 18.5q58 0 102 -25zM258 113.5q23 -22.5 23 -54.5q0 -33 -22.5 -54
t-55.5 -21t-56 21t-23 54q0 32 23 54.5t56 22.5q32 0 55 -22.5z" />
    <glyph glyph-name="at" unicode="@" horiz-adv-x="818" 
d="M326 327q55 38 165 59v5q0 43 -15 61t-51 18q-65 0 -151 -74v84q38 30 79 47.5t93 17.5q55 0 89.5 -30t34.5 -102v-143q0 -32 12 -47.5t33 -15.5q35 0 52 42.5t17 115.5q0 128 -68.5 199t-189.5 71q-138 0 -213 -74t-75 -216q0 -134 82 -212.5t235 -78.5q88 0 202 22
q-6 -25 -6 -51q0 -15 3 -32q-100 -17 -198 -17q-184 0 -295 91t-111 278q0 121 49 204.5t134 125.5t193 42q103 0 180 -40.5t119.5 -119t42.5 -187.5q0 -119 -45 -179t-126 -60q-42 0 -69.5 22.5t-34.5 63.5q-41 -83 -131 -83q-40 0 -65.5 25t-25.5 66q0 64 55 102zM491 263
v79q-66 -17 -101 -39.5t-35 -55.5q0 -45 44 -45q48 0 92 61z" />
    <glyph glyph-name="A" unicode="A" horiz-adv-x="648" 
d="M438 237h-234l-85 -237h-97l259 700h81l265 -700h-105zM411 312l-90 253l-90 -253h180z" />
    <glyph glyph-name="B" unicode="B" horiz-adv-x="644" 
d="M567 327q44 -44 44 -119q0 -98 -68 -153t-192 -55h-261v700h231q104 0 163 -45t59 -124q0 -55 -29.5 -93t-86.5 -58q96 -9 140 -53zM187 405h91q79 0 121 31t42 88q0 49 -36.5 72t-117.5 24l-77 1h-23v-216zM467 114.5q42 34.5 42 99.5q0 58 -36.5 84.5t-117.5 26.5h-168
v-245h159q79 0 121 34.5z" />
    <glyph glyph-name="C" unicode="C" horiz-adv-x="682" 
d="M87 543q44 83 124.5 128t186.5 45q67 0 120.5 -18t108.5 -51q-2 -18 -2 -27q0 -39 13 -89q-61 54 -116.5 77t-122.5 23q-76 0 -133.5 -34.5t-89 -99t-31.5 -150.5q0 -83 31.5 -146t89.5 -97.5t133 -34.5q68 0 123 23.5t115 79.5q-11 -70 -10 -117q-57 -36 -106 -53.5
t-123 -17.5q-106 0 -186.5 45t-124.5 127.5t-44 192.5q0 111 44 194z" />
    <glyph glyph-name="D" unicode="D" horiz-adv-x="715" 
d="M503 660q81 -40 125 -115.5t44 -180.5q0 -177 -89.5 -270.5t-253.5 -93.5h-239v700h223q109 0 190 -40zM507.5 152.5q60.5 66.5 60.5 199.5q0 134 -62 198t-187 64h-132v-528h143q117 0 177.5 66.5z" />
    <glyph glyph-name="E" unicode="E" horiz-adv-x="632" 
d="M606 82q-9 -30 -9 -59q0 -16 1 -23h-508v700h457q0 -35 12 -80h-372v-211h299v-75h-299v-252h419z" />
    <glyph glyph-name="F" unicode="F" horiz-adv-x="545" 
d="M187 409h296v-75h-296v-334h-97v700h413q0 -35 12 -80h-328v-211z" />
    <glyph glyph-name="G" unicode="G" horiz-adv-x="693" 
d="M530 295l97 8v-248q-57 -36 -106 -53.5t-123 -17.5q-106 0 -186.5 45t-124.5 127.5t-44 192.5q0 111 44 194t124.5 128t186.5 45q67 0 120.5 -18t108.5 -51q-2 -18 -2 -27q0 -39 13 -89q-61 54 -116.5 77t-122.5 23q-76 0 -133.5 -34.5t-89 -99t-31.5 -150.5
q0 -83 31.5 -146t89.5 -97.5t133 -34.5q76 0 131 30v196z" />
    <glyph glyph-name="H" unicode="H" horiz-adv-x="747" 
d="M657 700v-700h-97v313h-373v-313h-97v700h97v-302h373v302h97z" />
    <glyph glyph-name="I" unicode="I" horiz-adv-x="257" 
d="M80 0v700h97v-700h-97z" />
    <glyph glyph-name="J" unicode="J" horiz-adv-x="287" 
d="M-115 -185q0 21 -5 49q29 -15 50 -21t45 -6q52 0 86 33.5t34 85.5v744h97v-723q0 -111 -53.5 -169.5t-156.5 -58.5q-61 0 -102 22q5 23 5 44z" />
    <glyph glyph-name="K" unicode="K" horiz-adv-x="703" 
d="M685 0h-124l-216 269q-27 34 -52 46t-66 12h-40v-327h-97v700h97v-313l334 313h129l-348 -318q46 -7 73 -23t57 -52z" />
    <glyph glyph-name="L" unicode="L" horiz-adv-x="586" 
d="M557 23q0 -16 1 -23h-468v700h97v-618h379q-9 -30 -9 -59z" />
    <glyph glyph-name="M" unicode="M" horiz-adv-x="923" 
d="M833 0h-97v518l-236 -518h-81l-237 517v-517h-92v700h110l261 -578l262 578h110v-700z" />
    <glyph glyph-name="N" unicode="N" horiz-adv-x="797" 
d="M707 700v-700h-109l-416 559v-559h-92v700h103l422 -566v566h92z" />
    <glyph glyph-name="O" unicode="O" horiz-adv-x="780" 
d="M695 161q-42 -86 -119.5 -131.5t-181.5 -45.5q-86 0 -166 37.5t-132.5 122.5t-52.5 220q0 100 44 180.5t120.5 126t170.5 45.5q105 0 186.5 -44t127 -124t45.5 -184q0 -117 -42 -203zM568 558q-65 72 -184 72q-111 0 -174 -72t-63 -201q0 -88 30.5 -153t86.5 -99.5
t131 -34.5q111 0 174.5 74.5t63.5 207.5q0 134 -65 206z" />
    <glyph glyph-name="P" unicode="P" horiz-adv-x="574" 
d="M90 700h232q106 0 164 -49t58 -139q0 -104 -67.5 -160.5t-192.5 -56.5h-97v-295h-97v700zM279 375q79 0 121 34.5t42 98.5q0 58 -36.5 84.5t-117.5 27.5l-101 1v-246h92z" />
    <glyph glyph-name="Q" unicode="Q" horiz-adv-x="803" 
d="M767 -123q0 -25 5 -53q-67 -39 -151 -39q-201 0 -304 207q-117 23 -195.5 113.5t-78.5 258.5q0 100 44 180.5t120.5 126t170.5 45.5q105 0 186.5 -44t127 -124t45.5 -184q0 -113 -39.5 -197.5t-112.5 -131.5t-171 -51q33 -51 91.5 -79.5t117.5 -28.5q46 0 80 11.5
t69 37.5q-5 -21 -5 -48zM177.5 204q30.5 -65 86.5 -99.5t131 -34.5q111 0 174.5 74.5t63.5 207.5q0 135 -64.5 206.5t-184.5 71.5q-111 0 -174 -72t-63 -201q0 -88 30.5 -153z" />
    <glyph glyph-name="R" unicode="R" horiz-adv-x="682" 
d="M90 700h226q107 0 167.5 -46.5t60.5 -129.5q0 -74 -41.5 -124.5t-120.5 -72.5q32 -11 56 -30.5t49 -53.5l181 -243h-124l-170 236q-23 33 -51.5 45.5t-72.5 12.5h-63v-294h-97v700zM289 375q153 0 153 135q0 62 -33.5 85.5t-110.5 24.5l-111 1v-246h102z" />
    <glyph glyph-name="S" unicode="S" horiz-adv-x="555" 
d="M167 88q59 -22 123 -22q57 0 88.5 27.5t31.5 79.5q0 33 -19.5 58t-48 43t-79.5 44q-63 32 -101.5 57.5t-66 66t-28.5 98.5q-1 84 52.5 130t150.5 46q56 0 105.5 -12t100.5 -39q-1 -7 -1 -20q0 -39 13 -83q-112 73 -215 73q-51 0 -79 -25t-28 -70q0 -32 20 -57t49.5 -42.5
t82.5 -43.5q64 -31 103 -56t67 -64.5t28 -94.5q0 -58 -29.5 -103t-82 -70t-118.5 -25q-118 0 -235 63q2 62 -12 112q69 -49 128 -71z" />
    <glyph glyph-name="T" unicode="T" horiz-adv-x="682" 
d="M389 620v-620h-97v620h-273q10 24 10 51q0 14 -3 29h629q-2 -16 -2 -23q0 -25 10 -57h-274z" />
    <glyph glyph-name="U" unicode="U" horiz-adv-x="714" 
d="M570.5 59q-70.5 -75 -206.5 -75q-140 0 -216 75.5t-76 215.5v425h97l-1 -417q0 -99 53 -159t141 -60q89 0 138.5 57.5t50.5 161.5l3 417h87v-422q0 -144 -70.5 -219z" />
    <glyph glyph-name="V" unicode="V" horiz-adv-x="648" 
d="M626 700l-259 -700h-81l-265 700h105l201 -565l202 565h97z" />
    <glyph glyph-name="W" unicode="W" horiz-adv-x="1108" 
d="M1086 700l-249 -700h-81l-202 552l-196 -552h-81l-255 700h106l191 -563l192 563h96l191 -563l192 563h96z" />
    <glyph glyph-name="X" unicode="X" horiz-adv-x="673" 
d="M541 -3l-204 293l-201 -292h-114l259 374l-230 330h112l173 -250l173 250h112l-228 -331l259 -374h-111z" />
    <glyph glyph-name="Y" unicode="Y" horiz-adv-x="650" 
d="M127 700l203 -348l194 347h110l-261 -427h1v-272h-97v272h1l-262 428h111z" />
    <glyph glyph-name="Z" unicode="Z" horiz-adv-x="653" 
d="M625 672l-440 -593h415q-12 -38 -10 -79h-566v28l445 593l-398 -1q10 33 10 80h544v-28z" />
    <glyph glyph-name="bracketleft" unicode="[" horiz-adv-x="339" 
d="M309 60v-77h-279v717h279v-77h-188v-563h188z" />
    <glyph glyph-name="backslash" unicode="\" horiz-adv-x="385" 
d="M273 -17l-243 734h82l243 -734h-82z" />
    <glyph glyph-name="bracketright" unicode="]" horiz-adv-x="339" 
d="M218 623h-188v77h279v-717h-279v77h188v563z" />
    <glyph glyph-name="underscore" unicode="_" horiz-adv-x="421" 
d="M391 -97h-361v80h361v-80z" />
    <glyph glyph-name="grave" unicode="`" horiz-adv-x="233" 
d="M138 569l85 1l-89 167h-124z" />
    <glyph glyph-name="a" unicode="a" horiz-adv-x="512" 
d="M488 83v-73q-46 -19 -90 -19q-41 0 -67 22.5t-30 63.5q-60 -86 -153 -86q-46 0 -76 29.5t-30 77.5q0 74 63 119.5t195 78.5v46q0 49 -16.5 69t-57.5 20q-72 0 -168 -82q3 26 3 48q0 24 -3 45q42 33 88 53t104 20q62 0 101.5 -34t39.5 -114v-228q0 -71 47 -71q26 0 50 15z
M246.5 88.5q26.5 17.5 53.5 55.5v91q-78 -20 -118.5 -46.5t-40.5 -65.5q0 -52 51 -52q28 0 54.5 17.5z" />
    <glyph glyph-name="b" unicode="b" horiz-adv-x="592" 
d="M493.5 453.5q54.5 -62.5 54.5 -199.5q0 -82 -30.5 -143.5t-82 -94t-114.5 -32.5q-49 0 -88.5 14.5t-77.5 41.5l-9 -40h-68v726l91 10v-309q71 89 184 89q86 0 140.5 -62.5zM411.5 106q40.5 47 40.5 152q0 84 -36 131t-95 47q-46 0 -85.5 -22.5t-66.5 -60.5v-239
q28 -26 66 -40.5t80 -14.5q56 0 96.5 47z" />
    <glyph glyph-name="c" unicode="c" horiz-adv-x="496" 
d="M291 434q-65 0 -109.5 -43.5t-44.5 -134.5q0 -62 22 -105.5t58.5 -64.5t80.5 -21q49 0 83.5 13.5t72.5 47.5q-5 -27 -5 -49q0 -21 5 -49q-35 -21 -76.5 -32.5t-84.5 -11.5q-79 0 -135.5 34.5t-86.5 95.5t-30 139q0 79 33.5 139t89.5 92t121 32q85 0 156 -34
q-5 -27 -5 -48t5 -48q-70 48 -150 48z" />
    <glyph glyph-name="d" unicode="d" horiz-adv-x="592" 
d="M514 736v-736h-91v73q-71 -89 -184 -89q-86 0 -140.5 62.5t-54.5 199.5q0 82 30.5 143.5t82 94t114.5 32.5q78 0 152 -47v257zM356.5 86.5q39.5 22.5 66.5 60.5v239q-28 26 -66 40.5t-80 14.5q-56 0 -96.5 -47t-40.5 -152q0 -84 36 -131t95 -47q46 0 85.5 22.5z" />
    <glyph glyph-name="e" unicode="e" horiz-adv-x="511" 
d="M138 270v-11q0 -101 43.5 -147.5t105.5 -46.5q43 0 83 17t82 60q-4 -34 -4 -50t4 -48q-34 -27 -80 -43.5t-97 -16.5q-71 0 -124 35t-81 97.5t-28 143.5q0 74 29 132t80 91t114 33t109 -31t69.5 -80t23.5 -102v-33h-329zM192.5 411.5q-30.5 -22.5 -44.5 -71.5h216
q0 44 -26 69t-72 25q-43 0 -73.5 -22.5z" />
    <glyph glyph-name="f" unicode="f" horiz-adv-x="361" 
d="M196 566v-66h142v-71h-142v-429h-91v429h-82v71h82v68q0 102 48 143t121 41q60 0 117 -25q-5 -23 -5 -44q0 -20 5 -47q-61 29 -118 29q-77 0 -77 -99z" />
    <glyph glyph-name="g" unicode="g" horiz-adv-x="574" 
d="M541 447q0 -11 2 -31l-171 44q63 -55 63 -149q0 -50 -21 -94t-63 -71t-101 -27q-34 0 -61 10q-24 -14 -36.5 -28t-12.5 -32q0 -23 24.5 -33t69.5 -10h76q211 0 211 -125q0 -71 -68 -113t-207 -42q-117 0 -174.5 29t-57.5 81q0 69 89 103q-28 12 -43.5 33.5t-15.5 52.5
q0 38 26 63.5t73 42.5q-39 27 -61.5 70t-22.5 90q0 57 24.5 102t69 69.5t103.5 24.5l293 -1q-8 -30 -8 -59zM316.5 216.5q25.5 33.5 25.5 98.5t-25.5 98.5t-66.5 33.5t-66.5 -33.5t-25.5 -98.5t25.5 -98.5t66.5 -33.5t66.5 33.5zM179 -52q-34 -11 -52 -25t-18 -40
q0 -31 42 -46.5t113 -15.5q79 0 121.5 18t42.5 50q0 31 -29.5 44t-94.5 14z" />
    <glyph glyph-name="h" unicode="h" horiz-adv-x="551" 
d="M442.5 481q39.5 -34 39.5 -114v-367h-91v348q0 49 -16.5 69t-57.5 20q-64 0 -148 -65v-372h-91v726l91 10v-303q37 37 79 59.5t93 22.5q62 0 101.5 -34z" />
    <glyph glyph-name="i" unicode="i" horiz-adv-x="245" 
d="M74.5 608.5q-19.5 18.5 -19.5 46.5t19.5 47t48.5 19q28 0 47.5 -19t19.5 -47t-19.5 -46.5t-47.5 -18.5q-29 0 -48.5 18.5zM77 500q17 -4 46 -4t45 4v-500h-91v500z" />
    <glyph glyph-name="j" unicode="j" horiz-adv-x="247" 
d="M73.5 702q19.5 19 48.5 19q28 0 47.5 -19t19.5 -47t-19.5 -46.5t-47.5 -18.5q-29 0 -48.5 18.5t-19.5 46.5t19.5 47zM-44 -201q0 21 -6 45q24 -9 51 -9q43 0 60 24t17 85v556q17 -4 46 -4t45 4v-568q0 -101 -47 -142.5t-114 -41.5q-33 0 -58 7q6 21 6 44z" />
    <glyph glyph-name="k" unicode="k" horiz-adv-x="545" 
d="M408 -1l-239 254v-253h-91v726l91 10v-449l214 213h105l-222 -225l262 -276h-120z" />
    <glyph glyph-name="l" unicode="l" horiz-adv-x="247" 
d="M169 0h-91v726l91 10v-736z" />
    <glyph glyph-name="m" unicode="m" horiz-adv-x="863" 
d="M754.5 481q39.5 -34 39.5 -114v-367h-91v348q0 49 -16.5 69t-57.5 20q-68 0 -148 -67v-370h-91v348q0 49 -16.5 69t-57.5 20q-68 0 -148 -67v-370h-91v500h91v-67q37 37 79 59.5t93 22.5q49 0 85 -20.5t49 -68.5q39 40 82.5 64.5t96.5 24.5q62 0 101.5 -34z" />
    <glyph glyph-name="n" unicode="n" horiz-adv-x="550" 
d="M441.5 481q39.5 -34 39.5 -114v-367h-91v348q0 49 -16.5 69t-57.5 20q-68 0 -148 -67v-370h-91v500h91v-67q37 37 79 59.5t93 22.5q62 0 101.5 -34z" />
    <glyph glyph-name="o" unicode="o" horiz-adv-x="575" 
d="M159.5 17q-56.5 33 -87.5 94t-31 143q0 81 33.5 140.5t90 90.5t125.5 31q61 0 117.5 -31t92 -90.5t35.5 -139.5q0 -81 -32.5 -142.5t-88.5 -95t-124 -33.5q-74 0 -130.5 33zM399 117q39 50 39 139q0 84 -39 130.5t-109 46.5q-73 0 -113 -45t-40 -131q0 -83 41 -136.5
t111 -53.5q71 0 110 50z" />
    <glyph glyph-name="p" unicode="p" horiz-adv-x="595" 
d="M490.5 453.5q54.5 -62.5 54.5 -199.5q0 -82 -30.5 -143.5t-82 -94t-114.5 -32.5q-78 0 -152 47v-257l-91 -10v736h91v-73q71 89 184 89q86 0 140.5 -62.5zM408.5 106q40.5 47 40.5 152q0 84 -36 131t-95 47q-46 0 -85.5 -22.5t-66.5 -60.5v-239q28 -26 66 -40.5t80 -14.5
q56 0 96.5 47z" />
    <glyph glyph-name="q" unicode="q" horiz-adv-x="592" 
d="M514 500v-726l-91 -10v309q-71 -89 -184 -89q-86 0 -140.5 62.5t-54.5 199.5q0 82 30.5 143.5t82 94t114.5 32.5q49 0 88.5 -14.5t77.5 -41.5l9 40h68zM356.5 86.5q39.5 22.5 66.5 60.5v239q-28 26 -66 40.5t-80 14.5q-56 0 -96.5 -47t-40.5 -152q0 -84 36 -131t95 -47
q46 0 85.5 22.5z" />
    <glyph glyph-name="r" unicode="r" horiz-adv-x="381" 
d="M352 465q0 -16 4 -46q-24 6 -45 6q-91 0 -143 -63v-362h-91v500h91v-79q31 42 68 68t78 26q24 0 42 -5q-4 -30 -4 -45z" />
    <glyph glyph-name="s" unicode="s" horiz-adv-x="408" 
d="M126 78q39 -18 81 -18q35 0 54.5 16t19.5 45q0 30 -22 49.5t-67 43.5q-43 24 -70 43.5t-46.5 51.5t-19.5 78q0 60 38 94.5t105 34.5q74 0 142 -34q-5 -23 -5 -44t5 -51q-31 26 -67.5 40t-70.5 14q-28 0 -44 -13.5t-16 -38.5q0 -23 12.5 -39.5t29.5 -27t52 -28.5
q40 -21 67 -40.5t45.5 -50.5t18.5 -75t-22.5 -76.5t-59.5 -50t-80 -17.5q-80 0 -160 48q5 27 5 49q0 24 -5 54q41 -39 80 -57z" />
    <glyph glyph-name="t" unicode="t" horiz-adv-x="381" 
d="M346 79q-4 -16 -4 -35q0 -20 4 -36q-50 -20 -107 -20q-60 0 -99 34t-39 114v293h-81v44q45 17 76 50t45 75h51v-98h139v-71l-139 1v-269q0 -57 16 -80t54 -23q42 0 84 21z" />
    <glyph glyph-name="u" unicode="u" horiz-adv-x="550" 
d="M473 500v-500h-91v67q-37 -37 -79 -59.5t-93 -22.5q-63 0 -102 33.5t-39 113.5v368h91v-349q0 -49 16.5 -69t57.5 -20q67 0 148 68v370h91z" />
    <glyph glyph-name="v" unicode="v" horiz-adv-x="505" 
d="M482 500l-183 -500h-90l-187 500h109l128 -377l121 377h102z" />
    <glyph glyph-name="w" unicode="w" horiz-adv-x="829" 
d="M806 500l-183 -500h-90l-117 355l-117 -355h-90l-187 500h109l125 -379l119 379h90l116 -378l128 378h97z" />
    <glyph glyph-name="x" unicode="x" horiz-adv-x="519" 
d="M386 -1l-130 190l-133 -189h-100l184 260l-164 240h108l112 -162l115 162h98l-165 -233l185 -268h-110z" />
    <glyph glyph-name="y" unicode="y" horiz-adv-x="506" 
d="M302 5v-73q0 -101 -47 -142.5t-114 -41.5q-33 0 -58 7q5 23 5 43q0 19 -5 46q24 -9 51 -9q43 0 60 24t17 85v56h-1l-187 500h101l133 -385l124 385h102z" />
    <glyph glyph-name="z" unicode="z" horiz-adv-x="484" 
d="M450 480l-275 -401h270q-13 -42 -10 -79h-410v20l278 403h-242q13 42 10 78l379 -1v-20z" />
    <glyph glyph-name="braceleft" unicode="{" horiz-adv-x="328" 
d="M296 26q0 -15 2 -43q-67 0 -103.5 16.5t-50.5 47.5t-15 81l-1 77q-1 55 -26.5 82t-71.5 25v76q47 -2 72.5 25t25.5 82l1 77q1 50 15 81t50.5 47.5t103.5 16.5q-2 -28 -2 -43q0 -13 2 -41q-50 2 -66.5 -20t-16.5 -79q0 -23 1 -36q3 -68 -26 -104t-89 -44q60 -8 89 -44
t26 -104q-1 -13 -1 -36q0 -57 16.5 -79t66.5 -20q-2 -26 -2 -41z" />
    <glyph glyph-name="bar" unicode="|" horiz-adv-x="187" 
d="M50 -311v1028h87v-1028h-87z" />
    <glyph glyph-name="braceright" unicode="}" horiz-adv-x="328" 
d="M96.5 87q16.5 22 16.5 79q0 23 -1 36q-3 68 26 104t89 44q-60 8 -89 44t-26 104q1 13 1 36q0 57 -16.5 79t-66.5 20q2 14 2 41q0 29 -2 43q67 0 103.5 -16.5t50.5 -47.5t15 -81l1 -77q0 -55 25.5 -82t72.5 -25v-76q-46 2 -71.5 -25t-26.5 -82l-1 -77q-1 -50 -15 -81
t-50.5 -47.5t-103.5 -16.5q2 14 2 43q0 28 -2 41q50 -2 66.5 20z" />
    <glyph glyph-name="exclamdown" unicode="&#xa1;" horiz-adv-x="217" 
d="M164.5 479q22.5 -21 22.5 -54q0 -32 -23 -54.5t-55 -22.5q-33 0 -56 22.5t-23 54.5q0 33 23 54t56 21t55.5 -21zM172 -216h-127l22 481q17 -4 41 -4t41 4z" />
    <glyph glyph-name="cent" unicode="&#xa2;" horiz-adv-x="508" 
d="M458 177q0 -21 5 -49q-62 -39 -147 -44v-84h-65v88q-95 16 -148 88t-53 177q0 70 27 125.5t72.5 89.5t101.5 44v88h64v-85q73 -3 135 -33q-5 -27 -5 -48t5 -48q-64 44 -135 48l1 -369q46 1 78.5 15t68.5 46q-5 -27 -5 -49zM175 238.5q29 -46.5 76 -63.5v352
q-47 -14 -76 -56t-29 -115q0 -71 29 -117.5z" />
    <glyph glyph-name="sterling" unicode="&#xa3;" horiz-adv-x="600" 
 />
    <glyph glyph-name="currency" unicode="&#xa4;" horiz-adv-x="600" 
 />
    <glyph glyph-name="yen" unicode="&#xa5;" horiz-adv-x="600" 
d="M383 306h150v-65h-170v-61h170v-65h-170v-115h-97v115h-171v64h171v62h-170v64h150l-241 395h111l203 -348l194 347h110z" />
    <glyph glyph-name="brokenbar" unicode="&#xa6;" horiz-adv-x="187" 
d="M137 717v-367h-87v367h87zM50 56h87v-367h-87v367z" />
    <glyph glyph-name="section" unicode="&#xa7;" horiz-adv-x="600" 
 />
    <glyph glyph-name="dieresis" unicode="&#xa8;" horiz-adv-x="385" 
d="M29.5 608.5q-19.5 18.5 -19.5 46.5t19.5 47t48.5 19q28 0 47.5 -19t19.5 -47t-19.5 -46.5t-47.5 -18.5q-29 0 -48.5 18.5zM259.5 608.5q-19.5 18.5 -19.5 46.5t19.5 47t48.5 19q28 0 47.5 -19t19.5 -47t-19.5 -46.5t-47.5 -18.5q-29 0 -48.5 18.5z" />
    <glyph glyph-name="copyright" unicode="&#xa9;" horiz-adv-x="838" 
d="M608.5 674q85.5 -43 136 -126t50.5 -198t-50.5 -198t-136 -126t-189.5 -43t-189.5 43t-136 126t-50.5 198t50.5 198t136 126t189.5 43t189.5 -43zM630 137q77 74 77 213q0 138 -77 212t-211 74t-211 -74t-77 -212q0 -139 77 -213t211 -74t211 74zM426 491q-50 0 -84 -33
t-34 -103t36 -108.5t87 -38.5q37 0 63.5 10.5t56.5 36.5q-4 -20 -4 -32q0 -23 10 -52q-59 -34 -130 -34q-63 0 -108.5 27.5t-69.5 76.5t-24 111q0 64 27 112t71.5 73.5t97.5 25.5q68 0 125 -27q-9 -28 -9 -50q0 -17 4 -32q-54 37 -115 37z" />
    <glyph glyph-name="guillemotleft" unicode="&#xab;" horiz-adv-x="502" 
d="M197 81l-167 182l164 186h95l-176 -184l179 -184h-95zM377 81l-167 182l164 186h95l-176 -184l179 -184h-95z" />
    <glyph glyph-name="registered" unicode="&#xae;" horiz-adv-x="838" 
d="M608.5 674q85.5 -43 136 -126t50.5 -198t-50.5 -198t-136 -126t-189.5 -43t-189.5 43t-136 126t-50.5 198t50.5 198t136 126t189.5 43t189.5 -43zM630 137q77 74 77 213q0 138 -77 212t-211 74t-211 -74t-77 -212q0 -139 77 -213t211 -74t211 74zM278 570h140
q65 0 102.5 -29.5t37.5 -81.5q0 -40 -20.5 -70t-58.5 -46q27 -11 44 -42l86 -155h-86l-70 138q-10 18 -23 25.5t-35 7.5h-44v-171h-73v424zM402 381q80 0 80 69q0 32 -16.5 44t-58.5 12h-56v-125h51z" />
    <glyph glyph-name="degree" unicode="&#xb0;" horiz-adv-x="298" 
d="M64 518.5q-34 30.5 -34 84.5t34 84.5t86 30.5q51 0 84.5 -30.5t33.5 -84.5t-33.5 -84.5t-84.5 -30.5q-52 0 -86 30.5zM200 546.5q20 20.5 20 56.5t-20 56.5t-50 20.5q-32 0 -52 -20.5t-20 -56.5t20 -56.5t52 -20.5q30 0 50 20.5z" />
    <glyph glyph-name="acute" unicode="&#xb4;" horiz-adv-x="233" 
d="M99 737l-89 -167l85 -1l128 168h-124z" />
    <glyph glyph-name="paragraph" unicode="&#xb6;" horiz-adv-x="600" 
 />
    <glyph glyph-name="periodcentered" unicode="&#xb7;" horiz-adv-x="217" 
d="M53 199q-23 21 -23 54q0 32 23 54.5t56 22.5q32 0 55 -22.5t23 -54.5q0 -33 -22.5 -54t-55.5 -21t-56 21z" />
    <glyph glyph-name="cedilla" unicode="&#xb8;" horiz-adv-x="238" 
d="M110 -160q58 0 58 33q0 21 -24.5 29t-58.5 8q-22 0 -36 -2l25 92h42l-7 -49q59 -2 89 -21.5t30 -58.5t-36.5 -59t-83.5 -20q-42 0 -96 20q1 6 1 21q0 16 -3 37q54 -30 100 -30z" />
    <glyph glyph-name="guillemotright" unicode="&#xbb;" horiz-adv-x="502" 
d="M209 265l-176 184h95l164 -186l-167 -182h-95zM389 265l-176 184h95l164 -186l-167 -182h-95z" />
    <glyph glyph-name="questiondown" unicode="&#xbf;" horiz-adv-x="489" 
d="M201 370.5q-23 22.5 -23 54.5q0 33 22.5 54t55.5 21t56 -21t23 -54q0 -32 -23 -54.5t-56 -22.5q-32 0 -55 22.5zM431 -58v-107q-41 -31 -87.5 -49.5t-111.5 -18.5q-58 0 -102 25t-68 69.5t-24 100.5q0 78 47 137t129 89l2 87q17 -4 41 -4t41 4l2 -133q-70 -13 -118 -56.5
t-48 -111.5q0 -55 31.5 -84t85.5 -29q95 0 180 81z" />
    <glyph glyph-name="Agrave" unicode="&#xc0;" horiz-adv-x="648" 
d="M438 237h-234l-85 -237h-97l259 700h81l265 -700h-105zM411 312l-90 253l-90 -253h180zM322 769l85 1l-89 167h-124z" />
    <glyph glyph-name="Aacute" unicode="&#xc1;" horiz-adv-x="648" 
d="M438 237h-234l-85 -237h-97l259 700h81l265 -700h-105zM411 312l-90 253l-90 -253h180zM326 937l-89 -167l85 -1l128 168h-124z" />
    <glyph glyph-name="Acircumflex" unicode="&#xc2;" horiz-adv-x="648" 
d="M438 237h-234l-85 -237h-97l259 700h81l265 -700h-105zM411 312l-90 253l-90 -253h180zM256 775h-80l98 161h95l99 -161h-81l-65 81z" />
    <glyph glyph-name="Atilde" unicode="&#xc3;" horiz-adv-x="648" 
d="M438 237h-234l-85 -237h-97l259 700h81l265 -700h-105zM411 312l-90 253l-90 -253h180zM480 941q1 -63 -23.5 -99t-67.5 -36q-29 0 -45.5 11.5t-34.5 32.5q-10 13 -16.5 18.5t-15.5 5.5q-14 0 -20 -15t-5 -48h-72q-1 64 23.5 99.5t68.5 35.5q29 0 45 -11.5t34 -32.5
q10 -13 16.5 -18.5t15.5 -5.5q14 0 20 15t5 48h72z" />
    <glyph glyph-name="Adieresis" unicode="&#xc4;" horiz-adv-x="648" 
d="M438 237h-234l-85 -237h-97l259 700h81l265 -700h-105zM411 312l-90 253l-90 -253h180zM161.5 808.5q-19.5 18.5 -19.5 46.5t19.5 47t48.5 19q28 0 47.5 -19t19.5 -47t-19.5 -46.5t-47.5 -18.5q-29 0 -48.5 18.5zM391.5 808.5q-19.5 18.5 -19.5 46.5t19.5 47t48.5 19
q28 0 47.5 -19t19.5 -47t-19.5 -46.5t-47.5 -18.5q-29 0 -48.5 18.5z" />
    <glyph glyph-name="Aring" unicode="&#xc5;" horiz-adv-x="648" 
d="M438 237h-234l-85 -237h-97l259 700h81l265 -700h-105zM411 312l-90 253l-90 -253h180zM254 781q-26 27 -26 68q0 38 26.5 63.5t65.5 25.5q41 0 68.5 -27t27.5 -68q0 -39 -28 -64t-68 -25t-66 27zM288 879q-13 -13 -13 -32t13 -32.5t33 -13.5t33.5 13t13.5 33t-13 32.5
t-34 12.5q-20 0 -33 -13z" />
    <glyph glyph-name="AE" unicode="&#xc6;" horiz-adv-x="958" 
d="M898 82l-8 -82h-448v237h-198l-123 -237h-107l365 698l63 1v1h407l-8 -80h-302v-211h239v-75h-239v-252h359zM442 312v307l-159 -307h159z" />
    <glyph glyph-name="Ccedilla" unicode="&#xc7;" horiz-adv-x="682" 
d="M522 92.5q55 23.5 115 79.5q-11 -70 -10 -117q-57 -36 -106 -53.5t-123 -17.5h-19l-5 -33q59 -2 89 -21.5t30 -58.5t-36.5 -59t-83.5 -20q-42 0 -96 20q1 6 1 21q0 16 -3 37q54 -30 100 -30q58 0 58 33q0 21 -24.5 29t-58.5 8q-22 0 -36 -2l22 80q-89 12 -155 59.5
t-102 125t-36 176.5q0 111 44 194t124.5 128t186.5 45q67 0 120.5 -18t108.5 -51q-2 -18 -2 -27q0 -39 13 -89q-61 54 -116.5 77t-122.5 23q-76 0 -133.5 -34.5t-89 -99t-31.5 -150.5q0 -83 31.5 -146t89.5 -97.5t133 -34.5q68 0 123 23.5z" />
    <glyph glyph-name="Egrave" unicode="&#xc8;" horiz-adv-x="632" 
d="M606 82q-9 -30 -9 -59q0 -16 1 -23h-508v700h457q0 -35 12 -80h-372v-211h299v-75h-299v-252h419zM328 769l85 1l-89 167h-124z" />
    <glyph glyph-name="Eacute" unicode="&#xc9;" horiz-adv-x="632" 
d="M606 82q-9 -30 -9 -59q0 -16 1 -23h-508v700h457q0 -35 12 -80h-372v-211h299v-75h-299v-252h419zM332 937l-89 -167l85 -1l128 168h-124z" />
    <glyph glyph-name="Ecircumflex" unicode="&#xca;" horiz-adv-x="632" 
d="M606 82q-9 -30 -9 -59q0 -16 1 -23h-508v700h457q0 -35 12 -80h-372v-211h299v-75h-299v-252h419zM262 775h-80l98 161h95l99 -161h-81l-65 81z" />
    <glyph glyph-name="Edieresis" unicode="&#xcb;" horiz-adv-x="632" 
d="M606 82q-9 -30 -9 -59q0 -16 1 -23h-508v700h457q0 -35 12 -80h-372v-211h299v-75h-299v-252h419zM167.5 808.5q-19.5 18.5 -19.5 46.5t19.5 47t48.5 19q28 0 47.5 -19t19.5 -47t-19.5 -46.5t-47.5 -18.5q-29 0 -48.5 18.5zM397.5 808.5q-19.5 18.5 -19.5 46.5t19.5 47
t48.5 19q28 0 47.5 -19t19.5 -47t-19.5 -46.5t-47.5 -18.5q-29 0 -48.5 18.5z" />
    <glyph glyph-name="Igrave" unicode="&#xcc;" horiz-adv-x="257" 
d="M80 0v700h97v-700h-97zM127 779l85 1l-89 167h-124z" />
    <glyph glyph-name="Iacute" unicode="&#xcd;" horiz-adv-x="257" 
d="M80 0v700h97v-700h-97zM131 947l-89 -167l85 -1l128 168h-124z" />
    <glyph glyph-name="Icircumflex" unicode="&#xce;" horiz-adv-x="257" 
d="M80 0v700h97v-700h-97zM61 785h-80l98 161h95l99 -161h-81l-65 81z" />
    <glyph glyph-name="Idieresis" unicode="&#xcf;" horiz-adv-x="257" 
d="M80 0v700h97v-700h-97zM-33.5 818.5q-19.5 18.5 -19.5 46.5t19.5 47t48.5 19q28 0 47.5 -19t19.5 -47t-19.5 -46.5t-47.5 -18.5q-29 0 -48.5 18.5zM196.5 818.5q-19.5 18.5 -19.5 46.5t19.5 47t48.5 19q28 0 47.5 -19t19.5 -47t-19.5 -46.5t-47.5 -18.5q-29 0 -48.5 18.5
z" />
    <glyph glyph-name="Ntilde" unicode="&#xd1;" horiz-adv-x="797" 
d="M707 700v-700h-109l-416 559v-559h-92v700h103l422 -566v566h92zM560 941q1 -63 -23.5 -99t-67.5 -36q-29 0 -45.5 11.5t-34.5 32.5q-10 13 -16.5 18.5t-15.5 5.5q-14 0 -20 -15t-5 -48h-72q-1 64 23.5 99.5t68.5 35.5q29 0 45 -11.5t34 -32.5q10 -13 16.5 -18.5
t15.5 -5.5q14 0 20 15t5 48h72z" />
    <glyph glyph-name="Ograve" unicode="&#xd2;" horiz-adv-x="780" 
d="M695 161q-42 -86 -119.5 -131.5t-181.5 -45.5q-86 0 -166 37.5t-132.5 122.5t-52.5 220q0 100 44 180.5t120.5 126t170.5 45.5q105 0 186.5 -44t127 -124t45.5 -184q0 -117 -42 -203zM568 558q-65 72 -184 72q-111 0 -174 -72t-63 -201q0 -88 30.5 -153t86.5 -99.5
t131 -34.5q111 0 174.5 74.5t63.5 207.5q0 134 -65 206zM377 769l85 1l-89 167h-124z" />
    <glyph glyph-name="Oacute" unicode="&#xd3;" horiz-adv-x="780" 
d="M695 161q-42 -86 -119.5 -131.5t-181.5 -45.5q-86 0 -166 37.5t-132.5 122.5t-52.5 220q0 100 44 180.5t120.5 126t170.5 45.5q105 0 186.5 -44t127 -124t45.5 -184q0 -117 -42 -203zM568 558q-65 72 -184 72q-111 0 -174 -72t-63 -201q0 -88 30.5 -153t86.5 -99.5
t131 -34.5q111 0 174.5 74.5t63.5 207.5q0 134 -65 206zM381 937l-89 -167l85 -1l128 168h-124z" />
    <glyph glyph-name="Ocircumflex" unicode="&#xd4;" horiz-adv-x="780" 
d="M695 161q-42 -86 -119.5 -131.5t-181.5 -45.5q-86 0 -166 37.5t-132.5 122.5t-52.5 220q0 100 44 180.5t120.5 126t170.5 45.5q105 0 186.5 -44t127 -124t45.5 -184q0 -117 -42 -203zM568 558q-65 72 -184 72q-111 0 -174 -72t-63 -201q0 -88 30.5 -153t86.5 -99.5
t131 -34.5q111 0 174.5 74.5t63.5 207.5q0 134 -65 206zM311 775h-80l98 161h95l99 -161h-81l-65 81z" />
    <glyph glyph-name="Otilde" unicode="&#xd5;" horiz-adv-x="780" 
d="M695 161q-42 -86 -119.5 -131.5t-181.5 -45.5q-86 0 -166 37.5t-132.5 122.5t-52.5 220q0 100 44 180.5t120.5 126t170.5 45.5q105 0 186.5 -44t127 -124t45.5 -184q0 -117 -42 -203zM568 558q-65 72 -184 72q-111 0 -174 -72t-63 -201q0 -88 30.5 -153t86.5 -99.5
t131 -34.5q111 0 174.5 74.5t63.5 207.5q0 134 -65 206zM535 941q1 -63 -23.5 -99t-67.5 -36q-29 0 -45.5 11.5t-34.5 32.5q-10 13 -16.5 18.5t-15.5 5.5q-14 0 -20 -15t-5 -48h-72q-1 64 23.5 99.5t68.5 35.5q29 0 45 -11.5t34 -32.5q10 -13 16.5 -18.5t15.5 -5.5
q14 0 20 15t5 48h72z" />
    <glyph glyph-name="Odieresis" unicode="&#xd6;" horiz-adv-x="780" 
d="M695 161q-42 -86 -119.5 -131.5t-181.5 -45.5q-86 0 -166 37.5t-132.5 122.5t-52.5 220q0 100 44 180.5t120.5 126t170.5 45.5q105 0 186.5 -44t127 -124t45.5 -184q0 -117 -42 -203zM568 558q-65 72 -184 72q-111 0 -174 -72t-63 -201q0 -88 30.5 -153t86.5 -99.5
t131 -34.5q111 0 174.5 74.5t63.5 207.5q0 134 -65 206zM216.5 808.5q-19.5 18.5 -19.5 46.5t19.5 47t48.5 19q28 0 47.5 -19t19.5 -47t-19.5 -46.5t-47.5 -18.5q-29 0 -48.5 18.5zM446.5 808.5q-19.5 18.5 -19.5 46.5t19.5 47t48.5 19q28 0 47.5 -19t19.5 -47t-19.5 -46.5
t-47.5 -18.5q-29 0 -48.5 18.5z" />
    <glyph glyph-name="Ugrave" unicode="&#xd9;" horiz-adv-x="714" 
d="M570.5 59q-70.5 -75 -206.5 -75q-140 0 -216 75.5t-76 215.5v425h97l-1 -417q0 -99 53 -159t141 -60q89 0 138.5 57.5t50.5 161.5l3 417h87v-422q0 -144 -70.5 -219zM359 769l85 1l-89 167h-124z" />
    <glyph glyph-name="Uacute" unicode="&#xda;" horiz-adv-x="714" 
d="M570.5 59q-70.5 -75 -206.5 -75q-140 0 -216 75.5t-76 215.5v425h97l-1 -417q0 -99 53 -159t141 -60q89 0 138.5 57.5t50.5 161.5l3 417h87v-422q0 -144 -70.5 -219zM363 937l-89 -167l85 -1l128 168h-124z" />
    <glyph glyph-name="Ucircumflex" unicode="&#xdb;" horiz-adv-x="714" 
d="M570.5 59q-70.5 -75 -206.5 -75q-140 0 -216 75.5t-76 215.5v425h97l-1 -417q0 -99 53 -159t141 -60q89 0 138.5 57.5t50.5 161.5l3 417h87v-422q0 -144 -70.5 -219zM293 775h-80l98 161h95l99 -161h-81l-65 81z" />
    <glyph glyph-name="Udieresis" unicode="&#xdc;" horiz-adv-x="714" 
d="M570.5 59q-70.5 -75 -206.5 -75q-140 0 -216 75.5t-76 215.5v425h97l-1 -417q0 -99 53 -159t141 -60q89 0 138.5 57.5t50.5 161.5l3 417h87v-422q0 -144 -70.5 -219zM198.5 808.5q-19.5 18.5 -19.5 46.5t19.5 47t48.5 19q28 0 47.5 -19t19.5 -47t-19.5 -46.5t-47.5 -18.5
q-29 0 -48.5 18.5zM428.5 808.5q-19.5 18.5 -19.5 46.5t19.5 47t48.5 19q28 0 47.5 -19t19.5 -47t-19.5 -46.5t-47.5 -18.5q-29 0 -48.5 18.5z" />
    <glyph glyph-name="Yacute" unicode="&#xdd;" horiz-adv-x="650" 
d="M127 700l203 -348l194 347h110l-261 -427h1v-272h-97v272h1l-262 428h111zM363 973l-89 -167l85 -1l128 168h-124z" />
    <glyph glyph-name="agrave" unicode="&#xe0;" horiz-adv-x="512" 
d="M488 83v-73q-46 -19 -90 -19q-41 0 -67 22.5t-30 63.5q-60 -86 -153 -86q-46 0 -76 29.5t-30 77.5q0 74 63 119.5t195 78.5v46q0 49 -16.5 69t-57.5 20q-72 0 -168 -82q3 26 3 48q0 24 -3 45q42 33 88 53t104 20q62 0 101.5 -34t39.5 -114v-228q0 -71 47 -71q26 0 50 15z
M246.5 88.5q26.5 17.5 53.5 55.5v91q-78 -20 -118.5 -46.5t-40.5 -65.5q0 -52 51 -52q28 0 54.5 17.5zM249 569l85 1l-89 167h-124z" />
    <glyph glyph-name="aacute" unicode="&#xe1;" horiz-adv-x="512" 
d="M488 83v-73q-46 -19 -90 -19q-41 0 -67 22.5t-30 63.5q-60 -86 -153 -86q-46 0 -76 29.5t-30 77.5q0 74 63 119.5t195 78.5v46q0 49 -16.5 69t-57.5 20q-72 0 -168 -82q3 26 3 48q0 24 -3 45q42 33 88 53t104 20q62 0 101.5 -34t39.5 -114v-228q0 -71 47 -71q26 0 50 15z
M246.5 88.5q26.5 17.5 53.5 55.5v91q-78 -20 -118.5 -46.5t-40.5 -65.5q0 -52 51 -52q28 0 54.5 17.5zM253 737l-89 -167l85 -1l128 168h-124z" />
    <glyph glyph-name="acircumflex" unicode="&#xe2;" horiz-adv-x="512" 
d="M488 83v-73q-46 -19 -90 -19q-41 0 -67 22.5t-30 63.5q-60 -86 -153 -86q-46 0 -76 29.5t-30 77.5q0 74 63 119.5t195 78.5v46q0 49 -16.5 69t-57.5 20q-72 0 -168 -82q3 26 3 48q0 24 -3 45q42 33 88 53t104 20q62 0 101.5 -34t39.5 -114v-228q0 -71 47 -71q26 0 50 15z
M246.5 88.5q26.5 17.5 53.5 55.5v91q-78 -20 -118.5 -46.5t-40.5 -65.5q0 -52 51 -52q28 0 54.5 17.5zM183 575h-80l98 161h95l99 -161h-81l-65 81z" />
    <glyph glyph-name="atilde" unicode="&#xe3;" horiz-adv-x="512" 
d="M488 83v-73q-46 -19 -90 -19q-41 0 -67 22.5t-30 63.5q-60 -86 -153 -86q-46 0 -76 29.5t-30 77.5q0 74 63 119.5t195 78.5v46q0 49 -16.5 69t-57.5 20q-72 0 -168 -82q3 26 3 48q0 24 -3 45q42 33 88 53t104 20q62 0 101.5 -34t39.5 -114v-228q0 -71 47 -71q26 0 50 15z
M246.5 88.5q26.5 17.5 53.5 55.5v91q-78 -20 -118.5 -46.5t-40.5 -65.5q0 -52 51 -52q28 0 54.5 17.5zM407 741q1 -63 -23.5 -99t-67.5 -36q-29 0 -45.5 11.5t-34.5 32.5q-10 13 -16.5 18.5t-15.5 5.5q-14 0 -20 -15t-5 -48h-72q-1 64 23.5 99.5t68.5 35.5q29 0 45 -11.5
t34 -32.5q10 -13 16.5 -18.5t15.5 -5.5q14 0 20 15t5 48h72z" />
    <glyph glyph-name="adieresis" unicode="&#xe4;" horiz-adv-x="512" 
d="M488 83v-73q-46 -19 -90 -19q-41 0 -67 22.5t-30 63.5q-60 -86 -153 -86q-46 0 -76 29.5t-30 77.5q0 74 63 119.5t195 78.5v46q0 49 -16.5 69t-57.5 20q-72 0 -168 -82q3 26 3 48q0 24 -3 45q42 33 88 53t104 20q62 0 101.5 -34t39.5 -114v-228q0 -71 47 -71q26 0 50 15z
M246.5 88.5q26.5 17.5 53.5 55.5v91q-78 -20 -118.5 -46.5t-40.5 -65.5q0 -52 51 -52q28 0 54.5 17.5zM88.5 608.5q-19.5 18.5 -19.5 46.5t19.5 47t48.5 19q28 0 47.5 -19t19.5 -47t-19.5 -46.5t-47.5 -18.5q-29 0 -48.5 18.5zM318.5 608.5q-19.5 18.5 -19.5 46.5t19.5 47
t48.5 19q28 0 47.5 -19t19.5 -47t-19.5 -46.5t-47.5 -18.5q-29 0 -48.5 18.5z" />
    <glyph glyph-name="aring" unicode="&#xe5;" horiz-adv-x="512" 
d="M488 83v-73q-46 -19 -90 -19q-41 0 -67 22.5t-30 63.5q-60 -86 -153 -86q-46 0 -76 29.5t-30 77.5q0 74 63 119.5t195 78.5v46q0 49 -16.5 69t-57.5 20q-72 0 -168 -82q3 26 3 48q0 24 -3 45q42 33 88 53t104 20q62 0 101.5 -34t39.5 -114v-228q0 -71 47 -71q26 0 50 15z
M246.5 88.5q26.5 17.5 53.5 55.5v91q-78 -20 -118.5 -46.5t-40.5 -65.5q0 -52 51 -52q28 0 54.5 17.5zM181 581q-26 27 -26 68q0 38 26.5 63.5t65.5 25.5q41 0 68.5 -27t27.5 -68q0 -39 -28 -64t-68 -25t-66 27zM215 679q-13 -13 -13 -32t13 -32.5t33 -13.5t33.5 13t13.5 33
t-13 32.5t-34 12.5q-20 0 -33 -13z" />
    <glyph glyph-name="ae" unicode="&#xe6;" horiz-adv-x="730" 
d="M383 270v-11q0 -101 44.5 -147.5t107.5 -46.5q41 0 80.5 17t81.5 60v-98q-39 -31 -75.5 -45.5t-101.5 -14.5q-69 0 -119 30t-72 69q-33 -47 -79.5 -73.5t-117.5 -26.5q-46 0 -76 29.5t-30 77.5q0 74 63 119.5t195 78.5v46q0 49 -16.5 69t-57.5 20q-72 0 -168 -82v93
q42 33 88 53t104 20q87 0 121 -58q30 32 70 49.5t85 17.5q63 0 109 -31t69.5 -80t23.5 -102v-33h-329zM437.5 411.5q-30.5 -22.5 -44.5 -71.5h216q0 44 -26 69t-72 25q-43 0 -73.5 -22.5zM230.5 80.5q26.5 17.5 53.5 55.5v91q-78 -20 -118.5 -46.5t-40.5 -65.5q0 -52 51 -52
q28 0 54.5 17.5z" />
    <glyph glyph-name="ccedilla" unicode="&#xe7;" horiz-adv-x="496" 
d="M280 -16l-5 -33q59 -2 89 -21.5t30 -58.5t-36.5 -59t-83.5 -20q-42 0 -96 20q1 6 1 21q0 16 -3 37q54 -30 100 -30q58 0 58 33q0 21 -24.5 29t-58.5 8q-22 0 -36 -2l22 81q-93 18 -144.5 89.5t-51.5 174.5q0 79 33.5 139t89.5 92t121 32q85 0 156 -34q-5 -27 -5 -48
t5 -48q-70 48 -150 48q-65 0 -109.5 -43.5t-44.5 -134.5q0 -62 22 -105.5t58.5 -64.5t80.5 -21q49 0 83.5 13.5t72.5 47.5q-5 -27 -5 -49q0 -21 5 -49q-35 -21 -76.5 -32.5t-84.5 -11.5h-13z" />
    <glyph glyph-name="egrave" unicode="&#xe8;" horiz-adv-x="511" 
d="M138 270v-11q0 -101 43.5 -147.5t105.5 -46.5q43 0 83 17t82 60q-4 -34 -4 -50t4 -48q-34 -27 -80 -43.5t-97 -16.5q-71 0 -124 35t-81 97.5t-28 143.5q0 74 29 132t80 91t114 33t109 -31t69.5 -80t23.5 -102v-33h-329zM192.5 411.5q-30.5 -22.5 -44.5 -71.5h216
q0 44 -26 69t-72 25q-43 0 -73.5 -22.5zM265 569l85 1l-89 167h-124z" />
    <glyph glyph-name="eacute" unicode="&#xe9;" horiz-adv-x="511" 
d="M138 270v-11q0 -101 43.5 -147.5t105.5 -46.5q43 0 83 17t82 60q-4 -34 -4 -50t4 -48q-34 -27 -80 -43.5t-97 -16.5q-71 0 -124 35t-81 97.5t-28 143.5q0 74 29 132t80 91t114 33t109 -31t69.5 -80t23.5 -102v-33h-329zM192.5 411.5q-30.5 -22.5 -44.5 -71.5h216
q0 44 -26 69t-72 25q-43 0 -73.5 -22.5zM269 737l-89 -167l85 -1l128 168h-124z" />
    <glyph glyph-name="ecircumflex" unicode="&#xea;" horiz-adv-x="511" 
d="M138 270v-11q0 -101 43.5 -147.5t105.5 -46.5q43 0 83 17t82 60q-4 -34 -4 -50t4 -48q-34 -27 -80 -43.5t-97 -16.5q-71 0 -124 35t-81 97.5t-28 143.5q0 74 29 132t80 91t114 33t109 -31t69.5 -80t23.5 -102v-33h-329zM192.5 411.5q-30.5 -22.5 -44.5 -71.5h216
q0 44 -26 69t-72 25q-43 0 -73.5 -22.5zM199 575h-80l98 161h95l99 -161h-81l-65 81z" />
    <glyph glyph-name="edieresis" unicode="&#xeb;" horiz-adv-x="511" 
d="M138 270v-11q0 -101 43.5 -147.5t105.5 -46.5q43 0 83 17t82 60q-4 -34 -4 -50t4 -48q-34 -27 -80 -43.5t-97 -16.5q-71 0 -124 35t-81 97.5t-28 143.5q0 74 29 132t80 91t114 33t109 -31t69.5 -80t23.5 -102v-33h-329zM192.5 411.5q-30.5 -22.5 -44.5 -71.5h216
q0 44 -26 69t-72 25q-43 0 -73.5 -22.5zM104.5 608.5q-19.5 18.5 -19.5 46.5t19.5 47t48.5 19q28 0 47.5 -19t19.5 -47t-19.5 -46.5t-47.5 -18.5q-29 0 -48.5 18.5zM334.5 608.5q-19.5 18.5 -19.5 46.5t19.5 47t48.5 19q28 0 47.5 -19t19.5 -47t-19.5 -46.5t-47.5 -18.5
q-29 0 -48.5 18.5z" />
    <glyph glyph-name="igrave" unicode="&#xec;" horiz-adv-x="191" 
d="M50 500q17 -4 46 -4t45 4v-500h-91v500zM92 569l85 1l-89 167h-124z" />
    <glyph glyph-name="iacute" unicode="&#xed;" horiz-adv-x="191" 
d="M50 500q17 -4 46 -4t45 4v-500h-91v500zM96 737l-89 -167l85 -1l128 168h-124z" />
    <glyph glyph-name="icircumflex" unicode="&#xee;" horiz-adv-x="191" 
d="M50 500q17 -4 46 -4t45 4v-500h-91v500zM26 575h-80l98 161h95l99 -161h-81l-65 81z" />
    <glyph glyph-name="idieresis" unicode="&#xef;" horiz-adv-x="191" 
d="M50 500q17 -4 46 -4t45 4v-500h-91v500zM-68.5 608.5q-19.5 18.5 -19.5 46.5t19.5 47t48.5 19q28 0 47.5 -19t19.5 -47t-19.5 -46.5t-47.5 -18.5q-29 0 -48.5 18.5zM161.5 608.5q-19.5 18.5 -19.5 46.5t19.5 47t48.5 19q28 0 47.5 -19t19.5 -47t-19.5 -46.5t-47.5 -18.5
q-29 0 -48.5 18.5z" />
    <glyph glyph-name="ntilde" unicode="&#xf1;" horiz-adv-x="550" 
d="M441.5 481q39.5 -34 39.5 -114v-367h-91v348q0 49 -16.5 69t-57.5 20q-68 0 -148 -67v-370h-91v500h91v-67q37 37 79 59.5t93 22.5q62 0 101.5 -34zM438 741q1 -63 -23.5 -99t-67.5 -36q-29 0 -45.5 11.5t-34.5 32.5q-10 13 -16.5 18.5t-15.5 5.5q-14 0 -20 -15t-5 -48
h-72q-1 64 23.5 99.5t68.5 35.5q29 0 45 -11.5t34 -32.5q10 -13 16.5 -18.5t15.5 -5.5q14 0 20 15t5 48h72z" />
    <glyph glyph-name="ograve" unicode="&#xf2;" horiz-adv-x="575" 
d="M159.5 17q-56.5 33 -87.5 94t-31 143q0 81 33.5 140.5t90 90.5t125.5 31q61 0 117.5 -31t92 -90.5t35.5 -139.5q0 -81 -32.5 -142.5t-88.5 -95t-124 -33.5q-74 0 -130.5 33zM399 117q39 50 39 139q0 84 -39 130.5t-109 46.5q-73 0 -113 -45t-40 -131q0 -83 41 -136.5
t111 -53.5q71 0 110 50zM290 569l85 1l-89 167h-124z" />
    <glyph glyph-name="oacute" unicode="&#xf3;" horiz-adv-x="575" 
d="M159.5 17q-56.5 33 -87.5 94t-31 143q0 81 33.5 140.5t90 90.5t125.5 31q61 0 117.5 -31t92 -90.5t35.5 -139.5q0 -81 -32.5 -142.5t-88.5 -95t-124 -33.5q-74 0 -130.5 33zM399 117q39 50 39 139q0 84 -39 130.5t-109 46.5q-73 0 -113 -45t-40 -131q0 -83 41 -136.5
t111 -53.5q71 0 110 50zM294 737l-89 -167l85 -1l128 168h-124z" />
    <glyph glyph-name="ocircumflex" unicode="&#xf4;" horiz-adv-x="575" 
d="M159.5 17q-56.5 33 -87.5 94t-31 143q0 81 33.5 140.5t90 90.5t125.5 31q61 0 117.5 -31t92 -90.5t35.5 -139.5q0 -81 -32.5 -142.5t-88.5 -95t-124 -33.5q-74 0 -130.5 33zM399 117q39 50 39 139q0 84 -39 130.5t-109 46.5q-73 0 -113 -45t-40 -131q0 -83 41 -136.5
t111 -53.5q71 0 110 50zM224 575h-80l98 161h95l99 -161h-81l-65 81z" />
    <glyph glyph-name="otilde" unicode="&#xf5;" horiz-adv-x="575" 
d="M159.5 17q-56.5 33 -87.5 94t-31 143q0 81 33.5 140.5t90 90.5t125.5 31q61 0 117.5 -31t92 -90.5t35.5 -139.5q0 -81 -32.5 -142.5t-88.5 -95t-124 -33.5q-74 0 -130.5 33zM399 117q39 50 39 139q0 84 -39 130.5t-109 46.5q-73 0 -113 -45t-40 -131q0 -83 41 -136.5
t111 -53.5q71 0 110 50zM448 741q1 -63 -23.5 -99t-67.5 -36q-29 0 -45.5 11.5t-34.5 32.5q-10 13 -16.5 18.5t-15.5 5.5q-14 0 -20 -15t-5 -48h-72q-1 64 23.5 99.5t68.5 35.5q29 0 45 -11.5t34 -32.5q10 -13 16.5 -18.5t15.5 -5.5q14 0 20 15t5 48h72z" />
    <glyph glyph-name="odieresis" unicode="&#xf6;" horiz-adv-x="575" 
d="M159.5 17q-56.5 33 -87.5 94t-31 143q0 81 33.5 140.5t90 90.5t125.5 31q61 0 117.5 -31t92 -90.5t35.5 -139.5q0 -81 -32.5 -142.5t-88.5 -95t-124 -33.5q-74 0 -130.5 33zM399 117q39 50 39 139q0 84 -39 130.5t-109 46.5q-73 0 -113 -45t-40 -131q0 -83 41 -136.5
t111 -53.5q71 0 110 50zM129.5 608.5q-19.5 18.5 -19.5 46.5t19.5 47t48.5 19q28 0 47.5 -19t19.5 -47t-19.5 -46.5t-47.5 -18.5q-29 0 -48.5 18.5zM359.5 608.5q-19.5 18.5 -19.5 46.5t19.5 47t48.5 19q28 0 47.5 -19t19.5 -47t-19.5 -46.5t-47.5 -18.5q-29 0 -48.5 18.5z
" />
    <glyph glyph-name="ugrave" unicode="&#xf9;" horiz-adv-x="550" 
d="M473 500v-500h-91v67q-37 -37 -79 -59.5t-93 -22.5q-63 0 -102 33.5t-39 113.5v368h91v-349q0 -49 16.5 -69t57.5 -20q67 0 148 68v370h91zM272 569l85 1l-89 167h-124z" />
    <glyph glyph-name="uacute" unicode="&#xfa;" horiz-adv-x="550" 
d="M473 500v-500h-91v67q-37 -37 -79 -59.5t-93 -22.5q-63 0 -102 33.5t-39 113.5v368h91v-349q0 -49 16.5 -69t57.5 -20q67 0 148 68v370h91zM276 737l-89 -167l85 -1l128 168h-124z" />
    <glyph glyph-name="ucircumflex" unicode="&#xfb;" horiz-adv-x="550" 
d="M473 500v-500h-91v67q-37 -37 -79 -59.5t-93 -22.5q-63 0 -102 33.5t-39 113.5v368h91v-349q0 -49 16.5 -69t57.5 -20q67 0 148 68v370h91zM206 575h-80l98 161h95l99 -161h-81l-65 81z" />
    <glyph glyph-name="udieresis" unicode="&#xfc;" horiz-adv-x="550" 
d="M473 500v-500h-91v67q-37 -37 -79 -59.5t-93 -22.5q-63 0 -102 33.5t-39 113.5v368h91v-349q0 -49 16.5 -69t57.5 -20q67 0 148 68v370h91zM111.5 608.5q-19.5 18.5 -19.5 46.5t19.5 47t48.5 19q28 0 47.5 -19t19.5 -47t-19.5 -46.5t-47.5 -18.5q-29 0 -48.5 18.5z
M341.5 608.5q-19.5 18.5 -19.5 46.5t19.5 47t48.5 19q28 0 47.5 -19t19.5 -47t-19.5 -46.5t-47.5 -18.5q-29 0 -48.5 18.5z" />
    <glyph glyph-name="yacute" unicode="&#xfd;" horiz-adv-x="506" 
d="M302 5v-73q0 -101 -47 -142.5t-114 -41.5q-33 0 -58 7q5 23 5 43q0 19 -5 46q24 -9 51 -9q43 0 60 24t17 85v56h-1l-187 500h101l133 -385l124 385h102zM259 737l-89 -167l85 -1l128 168h-124z" />
    <glyph glyph-name="ydieresis" unicode="&#xff;" horiz-adv-x="506" 
d="M302 5v-73q0 -101 -47 -142.5t-114 -41.5q-33 0 -58 7q5 23 5 43q0 19 -5 46q24 -9 51 -9q43 0 60 24t17 85v56h-1l-187 500h101l133 -385l124 385h102zM94.5 608.5q-19.5 18.5 -19.5 46.5t19.5 47t48.5 19q28 0 47.5 -19t19.5 -47t-19.5 -46.5t-47.5 -18.5
q-29 0 -48.5 18.5zM324.5 608.5q-19.5 18.5 -19.5 46.5t19.5 47t48.5 19q28 0 47.5 -19t19.5 -47t-19.5 -46.5t-47.5 -18.5q-29 0 -48.5 18.5z" />
    <glyph glyph-name="dotlessi" unicode="&#x131;" horiz-adv-x="191" 
d="M50 500q17 -4 46 -4t45 4v-500h-91v500z" />
    <glyph glyph-name="OE" unicode="&#x152;" horiz-adv-x="985" 
d="M925 82l-8 -82h-513q-109 0 -190 40t-125 115.5t-44 180.5q0 177 89.5 270.5t253.5 93.5h488l-8 -80h-301v-211h238v-75h-238v-252h358zM469 86v528h-82q-117 0 -177.5 -66.5t-60.5 -199.5q0 -134 62 -198t187 -64h71z" />
    <glyph glyph-name="oe" unicode="&#x153;" horiz-adv-x="880" 
d="M521 270v-11q0 -101 44.5 -147.5t107.5 -46.5q41 0 80.5 17t81.5 60v-98q-34 -27 -80 -43.5t-97 -16.5q-63 0 -111.5 28t-79.5 78q-33 -51 -85 -78.5t-113 -27.5q-74 0 -130.5 33t-87.5 95.5t-31 147.5q0 78 33.5 136.5t90.5 89t125 30.5q56 0 109.5 -27t88.5 -75
q29 48 76.5 75t104.5 27q63 0 109 -31t69.5 -80t23.5 -102v-33h-329zM575.5 411.5q-30.5 -22.5 -44.5 -71.5h216q0 44 -26 69t-72 25q-43 0 -73.5 -22.5zM378.5 118q38.5 51 38.5 144q0 80 -39 125.5t-109 45.5q-73 0 -113 -44t-40 -126q0 -87 40.5 -141.5t111.5 -54.5
q72 0 110.5 51z" />
    <glyph glyph-name="Scaron" unicode="&#x160;" horiz-adv-x="555" 
d="M167 88q59 -22 123 -22q57 0 88.5 27.5t31.5 79.5q0 33 -19.5 58t-48 43t-79.5 44q-63 32 -101.5 57.5t-66 66t-28.5 98.5q-1 84 52.5 130t150.5 46q56 0 105.5 -12t100.5 -39q-1 -7 -1 -20q0 -39 13 -83q-112 73 -215 73q-51 0 -79 -25t-28 -70q0 -32 20 -57t49.5 -42.5
t82.5 -43.5q64 -31 103 -56t67 -64.5t28 -94.5q0 -58 -29.5 -103t-82 -70t-118.5 -25q-118 0 -235 63q2 62 -12 112q69 -49 128 -71zM339 936h81l-99 -161h-95l-98 161h80l66 -81z" />
    <glyph glyph-name="scaron" unicode="&#x161;" horiz-adv-x="408" 
d="M126 78q39 -18 81 -18q35 0 54.5 16t19.5 45q0 30 -22 49.5t-67 43.5q-43 24 -70 43.5t-46.5 51.5t-19.5 78q0 60 38 94.5t105 34.5q74 0 142 -34q-5 -23 -5 -44t5 -51q-31 26 -67.5 40t-70.5 14q-28 0 -44 -13.5t-16 -38.5q0 -23 12.5 -39.5t29.5 -27t52 -28.5
q40 -21 67 -40.5t45.5 -50.5t18.5 -75t-22.5 -76.5t-59.5 -50t-80 -17.5q-80 0 -160 48q5 27 5 49q0 24 -5 54q41 -39 80 -57zM268 736h81l-99 -161h-95l-98 161h80l66 -81z" />
    <glyph glyph-name="Wcircumflex" unicode="&#x174;" horiz-adv-x="1108" 
d="M1086 700l-249 -700h-81l-202 552l-196 -552h-81l-255 700h106l191 -563l192 563h96l191 -563l192 563h96zM488 775h-80l98 161h95l99 -161h-81l-65 81z" />
    <glyph glyph-name="wcircumflex" unicode="&#x175;" horiz-adv-x="829" 
d="M806 500l-183 -500h-90l-117 355l-117 -355h-90l-187 500h109l125 -379l119 379h90l116 -378l128 378h97zM354 575h-80l98 161h95l99 -161h-81l-65 81z" />
    <glyph glyph-name="Ycircumflex" unicode="&#x176;" horiz-adv-x="650" 
d="M127 700l203 -348l194 347h110l-261 -427h1v-272h-97v272h1l-262 428h111zM293 811h-80l98 161h95l99 -161h-81l-65 81z" />
    <glyph glyph-name="ycircumflex" unicode="&#x177;" horiz-adv-x="506" 
d="M302 5v-73q0 -101 -47 -142.5t-114 -41.5q-33 0 -58 7q5 23 5 43q0 19 -5 46q24 -9 51 -9q43 0 60 24t17 85v56h-1l-187 500h101l133 -385l124 385h102zM189 575h-80l98 161h95l99 -161h-81l-65 81z" />
    <glyph glyph-name="Ydieresis" unicode="&#x178;" horiz-adv-x="650" 
d="M127 700l203 -348l194 347h110l-261 -427h1v-272h-97v272h1l-262 428h111zM198.5 844.5q-19.5 18.5 -19.5 46.5t19.5 47t48.5 19q28 0 47.5 -19t19.5 -47t-19.5 -46.5t-47.5 -18.5q-29 0 -48.5 18.5zM428.5 844.5q-19.5 18.5 -19.5 46.5t19.5 47t48.5 19q28 0 47.5 -19
t19.5 -47t-19.5 -46.5t-47.5 -18.5q-29 0 -48.5 18.5z" />
    <glyph glyph-name="Zcaron" unicode="&#x17d;" horiz-adv-x="653" 
d="M625 672l-440 -593h415q-12 -38 -10 -79h-566v28l445 593l-398 -1q10 33 10 80h544v-28zM383 936h81l-99 -161h-95l-98 161h80l66 -81z" />
    <glyph glyph-name="zcaron" unicode="&#x17e;" horiz-adv-x="484" 
d="M450 480l-275 -401h270q-13 -42 -10 -79h-410v20l278 403h-242q13 42 10 78l379 -1v-20zM304 736h81l-99 -161h-95l-98 161h80l66 -81z" />
    <glyph glyph-name="circumflex" unicode="&#x2c6;" horiz-adv-x="312" 
d="M90 575h-80l98 161h95l99 -161h-81l-65 81z" />
    <glyph glyph-name="caron" unicode="&#x2c7;" horiz-adv-x="312" 
d="M221 736h81l-99 -161h-95l-98 161h80l66 -81z" />
    <glyph glyph-name="ring" unicode="&#x2da;" horiz-adv-x="208" 
d="M36 581q-26 27 -26 68q0 38 26.5 63.5t65.5 25.5q41 0 68.5 -27t27.5 -68q0 -39 -28 -64t-68 -25t-66 27zM70 679q-13 -13 -13 -32t13.5 -32.5t32.5 -13.5q20 0 33.5 13t13.5 33t-13 32.5t-34 12.5q-20 0 -33 -13z" />
    <glyph glyph-name="tilde" unicode="&#x2dc;" horiz-adv-x="320" 
d="M310 741q1 -63 -23.5 -99t-67.5 -36q-29 0 -45.5 11.5t-34.5 32.5q-10 13 -16.5 18.5t-15.5 5.5q-14 0 -20 -15t-5 -48h-72q-1 64 23.5 99.5t68.5 35.5q29 0 45 -11.5t34 -32.5q10 -13 16.5 -18.5t15.5 -5.5q14 0 20 15t5 48h72z" />
    <glyph glyph-name="gravecomb" unicode="&#x300;" 
d="M-95 569l85 1l-89 167h-124z" />
    <glyph glyph-name="acutecomb" unicode="&#x301;" 
d="M-134 737l-89 -167l85 -1l128 168h-124z" />
    <glyph glyph-name="uni0302" unicode="&#x302;" 
d="M-222 575h-80l98 161h95l99 -161h-81l-65 81z" />
    <glyph glyph-name="tildecomb" unicode="&#x303;" 
d="M-10 741q1 -63 -23.5 -99t-67.5 -36q-29 0 -45.5 11.5t-34.5 32.5q-10 13 -16.5 18.5t-15.5 5.5q-14 0 -20 -15t-5 -48h-72q-1 64 23.5 99.5t68.5 35.5q29 0 45 -11.5t34 -32.5q10 -13 16.5 -18.5t15.5 -5.5q14 0 20 15t5 48h72z" />
    <glyph glyph-name="uni0307" unicode="&#x307;" 
 />
    <glyph glyph-name="uni0308" unicode="&#x308;" 
d="M-355.5 608.5q-19.5 18.5 -19.5 46.5t19.5 47t48.5 19q28 0 47.5 -19t19.5 -47t-19.5 -46.5t-47.5 -18.5q-29 0 -48.5 18.5zM-125.5 608.5q-19.5 18.5 -19.5 46.5t19.5 47t48.5 19q28 0 47.5 -19t19.5 -47t-19.5 -46.5t-47.5 -18.5q-29 0 -48.5 18.5z" />
    <glyph glyph-name="uni030A" unicode="&#x30a;" 
d="M-172 581q-26 27 -26 68q0 38 26.5 63.5t65.5 25.5q41 0 68.5 -27t27.5 -68q0 -39 -28 -64t-68 -25t-66 27zM-138 679q-13 -13 -13 -32t13 -32.5t33 -13.5t33.5 13t13.5 33t-13 32.5t-34 12.5q-20 0 -33 -13z" />
    <glyph glyph-name="uni030C" unicode="&#x30c;" 
d="M-91 736h81l-99 -161h-95l-98 161h80l66 -81z" />
    <glyph glyph-name="uni0327" unicode="&#x327;" 
d="M-128 -160q58 0 58 33q0 21 -24.5 29t-58.5 8q-22 0 -36 -2l25 92h42l-7 -49q59 -2 89 -21.5t30 -58.5t-36.5 -59t-83.5 -20q-42 0 -96 20q1 6 1 21q0 16 -3 37q54 -30 100 -30z" />
    <glyph glyph-name="Wgrave" unicode="&#x1e80;" horiz-adv-x="1108" 
d="M1086 700l-249 -700h-81l-202 552l-196 -552h-81l-255 700h106l191 -563l192 563h96l191 -563l192 563h96zM554 769l85 1l-89 167h-124z" />
    <glyph glyph-name="wgrave" unicode="&#x1e81;" horiz-adv-x="829" 
d="M806 500l-183 -500h-90l-117 355l-117 -355h-90l-187 500h109l125 -379l119 379h90l116 -378l128 378h97zM420 569l85 1l-89 167h-124z" />
    <glyph glyph-name="Wacute" unicode="&#x1e82;" horiz-adv-x="1108" 
d="M1086 700l-249 -700h-81l-202 552l-196 -552h-81l-255 700h106l191 -563l192 563h96l191 -563l192 563h96zM558 937l-89 -167l85 -1l128 168h-124z" />
    <glyph glyph-name="wacute" unicode="&#x1e83;" horiz-adv-x="829" 
d="M806 500l-183 -500h-90l-117 355l-117 -355h-90l-187 500h109l125 -379l119 379h90l116 -378l128 378h97zM424 737l-89 -167l85 -1l128 168h-124z" />
    <glyph glyph-name="Wdieresis" unicode="&#x1e84;" horiz-adv-x="1108" 
d="M1086 700l-249 -700h-81l-202 552l-196 -552h-81l-255 700h106l191 -563l192 563h96l191 -563l192 563h96zM393.5 808.5q-19.5 18.5 -19.5 46.5t19.5 47t48.5 19q28 0 47.5 -19t19.5 -47t-19.5 -46.5t-47.5 -18.5q-29 0 -48.5 18.5zM623.5 808.5q-19.5 18.5 -19.5 46.5
t19.5 47t48.5 19q28 0 47.5 -19t19.5 -47t-19.5 -46.5t-47.5 -18.5q-29 0 -48.5 18.5z" />
    <glyph glyph-name="wdieresis" unicode="&#x1e85;" horiz-adv-x="829" 
d="M806 500l-183 -500h-90l-117 355l-117 -355h-90l-187 500h109l125 -379l119 379h90l116 -378l128 378h97zM259.5 608.5q-19.5 18.5 -19.5 46.5t19.5 47t48.5 19q28 0 47.5 -19t19.5 -47t-19.5 -46.5t-47.5 -18.5q-29 0 -48.5 18.5zM489.5 608.5q-19.5 18.5 -19.5 46.5
t19.5 47t48.5 19q28 0 47.5 -19t19.5 -47t-19.5 -46.5t-47.5 -18.5q-29 0 -48.5 18.5z" />
    <glyph glyph-name="Ygrave" unicode="&#x1ef2;" horiz-adv-x="650" 
d="M127 700l203 -348l194 347h110l-261 -427h1v-272h-97v272h1l-262 428h111zM359 805l85 1l-89 167h-124z" />
    <glyph glyph-name="ygrave" unicode="&#x1ef3;" horiz-adv-x="506" 
d="M302 5v-73q0 -101 -47 -142.5t-114 -41.5q-33 0 -58 7q5 23 5 43q0 19 -5 46q24 -9 51 -9q43 0 60 24t17 85v56h-1l-187 500h101l133 -385l124 385h102zM255 569l85 1l-89 167h-124z" />
    <glyph glyph-name="endash" unicode="&#x2013;" horiz-adv-x="421" 
d="M391 234h-361v80h361v-80z" />
    <glyph glyph-name="emdash" unicode="&#x2014;" horiz-adv-x="782" 
d="M752 234h-722v80h722v-80z" />
    <glyph glyph-name="quoteleft" unicode="&#x2018;" horiz-adv-x="210" 
d="M30 429q1 69 20.5 139.5t53.5 131.5h76q-44 -132 -44 -271h-106z" />
    <glyph glyph-name="quoteright" unicode="&#x2019;" horiz-adv-x="210" 
d="M180 700q-1 -69 -20.5 -139.5t-53.5 -131.5h-76q44 132 44 271h106z" />
    <glyph glyph-name="quotesinglbase" unicode="&#x201a;" horiz-adv-x="210" 
d="M180 124q0 -70 -19.5 -140.5t-54.5 -130.5h-76q44 132 44 271h106z" />
    <glyph glyph-name="quotedblleft" unicode="&#x201c;" horiz-adv-x="420" 
d="M30 429q1 69 20.5 139.5t53.5 131.5h76q-44 -132 -44 -271h-106zM240 429q0 70 19.5 140.5t54.5 130.5h76q-44 -132 -44 -271h-106z" />
    <glyph glyph-name="quotedblright" unicode="&#x201d;" horiz-adv-x="420" 
d="M180 700q0 -70 -19.5 -140.5t-54.5 -130.5h-76q44 132 44 271h106zM390 700q-1 -69 -20.5 -139.5t-53.5 -131.5h-76q44 132 44 271h106z" />
    <glyph glyph-name="quotedblbase" unicode="&#x201e;" horiz-adv-x="394" 
d="M180 124q0 -70 -19.5 -140.5t-54.5 -130.5h-76q44 132 44 271h106zM364 124q0 -70 -19.5 -140.5t-54.5 -130.5h-76q44 132 44 271h106z" />
    <glyph glyph-name="dagger" unicode="&#x2020;" horiz-adv-x="524" 
d="M310 420v-420h-97v420h-173q10 24 10 51q0 14 -3 29h166v200h97v-200h166q-2 -16 -2 -23q0 -25 10 -57h-174z" />
    <glyph glyph-name="daggerdbl" unicode="&#x2021;" horiz-adv-x="525" 
d="M474 257q0 -25 10 -57h-173v-200h-97v200h-174q10 24 10 51q0 14 -3 29h167v140h-173q10 24 10 51q0 14 -3 29h166v200h97v-200h166q-2 -16 -2 -23q0 -25 10 -57h-174v-140h165q-2 -16 -2 -23z" />
    <glyph glyph-name="bullet" unicode="&#x2022;" horiz-adv-x="285" 
d="M62.5 166q-32.5 31 -32.5 78q0 46 33 78t80 32t79.5 -32t32.5 -78q0 -47 -32.5 -78t-79.5 -31q-48 0 -80.5 31z" />
    <glyph glyph-name="ellipsis" unicode="&#x2026;" horiz-adv-x="729" 
d="M53 5q-23 21 -23 54q0 32 23 54.5t56 22.5q32 0 55 -22.5t23 -54.5q0 -33 -22.5 -54t-55.5 -21t-56 21zM313 5q-23 21 -23 54q0 32 23 54.5t56 22.5q32 0 55 -22.5t23 -54.5q0 -33 -22.5 -54t-55.5 -21t-56 21zM565 5q-23 21 -23 54q0 32 23 54.5t56 22.5q32 0 55 -22.5
t23 -54.5q0 -33 -22.5 -54t-55.5 -21t-56 21z" />
    <glyph glyph-name="guilsinglleft" unicode="&#x2039;" horiz-adv-x="322" 
d="M197 81l-167 182l164 186h95l-176 -184l179 -184h-95z" />
    <glyph glyph-name="guilsinglright" unicode="&#x203a;" horiz-adv-x="322" 
d="M209 265l-176 184h95l164 -186l-167 -182h-95z" />
    <glyph glyph-name="Euro" unicode="&#x20ac;" horiz-adv-x="671" 
d="M538.5 86.5q53.5 17.5 109.5 61.5q-9 -72 -8 -113q-52 -25 -104 -38t-115 -13q-130 0 -216.5 72t-110.5 199h-98v64h91q-1 10 -1 30q0 22 1 32h-90v64h98q24 127 110 199t216 72q61 0 114 -12.5t105 -36.5q-2 -18 -2 -27q0 -39 13 -89q-62 42 -116 61t-113 19
q-86 0 -144 -49t-79 -137l355 1l-29 -65h-336q-1 -11 -1 -34q0 -19 1 -28l308 1l-30 -65h-269q20 -88 79 -137t145 -49q63 0 116.5 17.5z" />
    <glyph glyph-name="trademark" unicode="&#x2122;" horiz-adv-x="607" 
d="M273 661h-97v-226h-45v226h-101l4 39h243zM577 435h-46v176l-77 -176h-36l-78 181v-181h-44v265h51l90 -213l89 213h51v-265z" />
    <glyph glyph-name="lozenge" unicode="&#x25ca;" horiz-adv-x="600" 
 />
    <glyph glyph-name="a.001" horiz-adv-x="405" 
d="M335.5 481q39.5 -34 39.5 -114v-367h-91v75q-61 -84 -152 -84q-46 0 -76 29.5t-30 77.5q0 74 63 119.5t195 78.5v46q0 49 -16.5 69t-57.5 20q-72 0 -168 -82v93q42 33 88 53t104 20q62 0 101.5 -34zM230.5 88.5q26.5 17.5 53.5 55.5v91q-78 -20 -118.5 -46.5t-40.5 -65.5
q0 -52 51 -52q28 0 54.5 17.5z" />
    <glyph glyph-name="c.001" horiz-adv-x="470" 
d="M277 434q-65 0 -109.5 -42.5t-44.5 -129.5q0 -66 23.5 -110.5t59.5 -65.5t75 -21q47 0 83.5 13t75.5 48v-98q-35 -21 -76.5 -32.5t-84.5 -11.5q-79 0 -135.5 34.5t-86.5 95.5t-30 139q0 79 33.5 139t89.5 92t121 32q85 0 156 -34v-98q-68 50 -150 50z" />
    <glyph glyph-name="h.001" horiz-adv-x="464" 
d="M424 0h-91v423h-202v-423h-91v726l91 10v-236h293v-500z" />
    <glyph glyph-name="m.001" horiz-adv-x="757" 
d="M717 0h-91v423h-202v-423h-91v423h-202v-423h-91v500h677v-500z" />
    <glyph glyph-name="n.001" horiz-adv-x="464" 
d="M424 0h-91v423h-202v-423h-91v500h384v-500z" />
    <glyph glyph-name="r.001" horiz-adv-x="312" 
d="M309 423h-178v-423h-91v500h269v-77z" />
    <glyph glyph-name="s.001" horiz-adv-x="397" 
d="M92 78q39 -18 81 -18q35 0 54.5 16t19.5 45q0 30 -22 49.5t-67 43.5q-43 24 -70 43.5t-46.5 51.5t-19.5 78q0 60 38 94.5t105 34.5q74 0 142 -34v-95q-31 26 -67.5 40t-70.5 14q-28 0 -44 -13.5t-16 -38.5q0 -23 12.5 -39.5t29.5 -27t52 -28.5q40 -21 67 -40.5
t45.5 -50.5t18.5 -75t-22.5 -76.5t-59.5 -50t-80 -17.5q-80 0 -160 48v103q41 -39 80 -57z" />
    <glyph glyph-name="u.001" horiz-adv-x="464" 
d="M424 500v-500h-384v500h91v-423h202v423h91z" />
    <glyph glyph-name="a.002" horiz-adv-x="563" 
d="M528 500v-500h-91v73q-71 -89 -184 -89q-86 0 -140.5 62.5t-54.5 199.5q0 82 30.5 143.5t82 94t114.5 32.5q78 0 152 -47v31h91zM370.5 86.5q39.5 22.5 66.5 60.5v239q-28 26 -66 40.5t-80 14.5q-56 0 -96.5 -47t-40.5 -152q0 -84 36 -131t95 -47q46 0 85.5 22.5z" />
    <glyph glyph-name="f_f_i" horiz-adv-x="872" 
d="M503 500h142v-71h-142v-429h-91v429h-224v-429h-91v429h-82v71h82v68q0 102 48 143t121 41q60 0 117 -25v-91q-61 29 -118 29q-77 0 -77 -99v-66h224v68q0 102 48 143t121 41q95 0 157 -25v-91q-27 13 -69 21t-78 8q-48 0 -68 -25.5t-20 -73.5v-66zM774 496q29 0 45 4
v-500h-91v500q17 -4 46 -4z" />
    <glyph glyph-name="f_f_l" horiz-adv-x="901" 
d="M780.5 710.5q45.5 -41.5 45.5 -117.5v-593h-91v556q0 55 -24 82t-84 27q-67 0 -92 -24.5t-25 -74.5v-66h142v-71h-142v-429h-91v429h-231v-429h-91v429h-82v71h82v68q0 102 48 143t121 41q60 0 117 -25v-91q-61 29 -118 29q-77 0 -77 -99v-66h231v68q0 104 53 144t152 40
q111 0 156.5 -41.5z" />
    <glyph glyph-name="f_i" horiz-adv-x="557" 
d="M188 500h142v-71h-142v-429h-91v429h-82v71h82v68q0 102 48 143t121 41q95 0 157 -25v-91q-27 13 -69 21t-78 8q-48 0 -68 -25.5t-20 -73.5v-66zM459 496q29 0 45 4v-500h-91v500q17 -4 46 -4z" />
    <glyph glyph-name="f_l" horiz-adv-x="577" 
d="M456.5 710.5q45.5 -41.5 45.5 -117.5v-593h-91v556q0 55 -24 82t-84 27q-67 0 -92 -24.5t-25 -74.5v-66h142v-71h-142v-429h-91v429h-80v71h80v68q0 104 53 144t152 40q111 0 156.5 -41.5z" />
    <glyph glyph-name="zero.osf" horiz-adv-x="594" 
d="M161.5 16.5q-58.5 32.5 -90 92.5t-31.5 141q0 84 34 144t93 91t132 31q66 0 124.5 -31t94.5 -91.5t36 -142.5q0 -80 -33 -140.5t-91.5 -93.5t-130.5 -33q-79 0 -137.5 32.5zM416.5 116q40.5 49 40.5 136q0 88 -40.5 134.5t-117.5 46.5q-80 0 -121.5 -45.5t-41.5 -134.5
q0 -81 42.5 -133.5t119.5 -52.5q78 0 118.5 49z" />
    <glyph glyph-name="one.osf" horiz-adv-x="321" 
d="M154 0v390l-114 -35q5 20 5 46q0 27 -5 46l201 53h10v-500h-97z" />
    <glyph glyph-name="two.osf" horiz-adv-x="526" 
d="M475 0h-435v78q120 62 184 101t97 77.5t33 83.5q0 40 -28.5 61.5t-79.5 21.5q-97 0 -186 -69q5 33 5 56q0 24 -5 51q51 27 93 41.5t104 14.5q86 0 141 -45t55 -124q0 -89 -71 -154.5t-181 -115.5l285 4z" />
    <glyph glyph-name="three.osf" horiz-adv-x="515" 
d="M44 -114q0 28 -4 51q97 -67 193 -67q71 0 108 33.5t37 92.5q0 67 -57.5 98t-144.5 31h-23q3 21 3 41q0 21 -3 40h19q86 0 136.5 29t50.5 94q0 46 -31 70t-88 24q-95 0 -180 -81q4 24 4 54q0 29 -4 53q41 31 87.5 49.5t111.5 18.5q88 0 141 -46.5t53 -123.5
q0 -134 -119 -180q65 -20 103 -63t38 -105q0 -103 -66 -159.5t-178 -56.5q-99 0 -191 53q4 23 4 50z" />
    <glyph glyph-name="four.osf" horiz-adv-x="608" 
d="M467 -48v-152h-97v152h-330v77l271 471q34 -2 78 -2q46 0 78 2l-2 -466h103l-1 -82h-100zM370 34v381l-233 -381h233z" />
    <glyph glyph-name="five.osf" horiz-adv-x="509" 
d="M164 420l-17 -206q54 17 116 17q56 0 103 -22t75 -68.5t28 -114.5q0 -119 -68 -181t-180 -62q-55 0 -98 12.5t-83 32.5v99q45 -26 87 -40.5t93 -14.5q69 0 109 38.5t40 102.5q0 61 -39.5 95.5t-110.5 34.5q-47 0 -82 -5t-79 -15l20 377h356q2 -44 12 -84z" />
    <glyph glyph-name="six.osf" horiz-adv-x="543" 
d="M408 433q45 -27 70 -76t25 -113q0 -131 -58 -196.5t-167 -65.5q-137 0 -187.5 91t-50.5 253q0 167 60 279t201 112q49 0 85.5 -9.5t74.5 -29.5q-7 -38 -7 -62q0 -6 2 -36q-34 21 -69 32.5t-80 11.5q-168 0 -179 -268q26 54 72 79t106 25q57 0 102 -27zM382.5 104
q33.5 40 33.5 111q0 78 -35 121t-98 43q-62 0 -100 -42.5t-38 -119.5q0 -71 36.5 -112t102.5 -41q65 0 98.5 40z" />
    <glyph glyph-name="seven.osf" horiz-adv-x="516" 
d="M249 -200h-116l247 618l-340 -12q12 44 9 94h427v-63z" />
    <glyph glyph-name="eight.osf" horiz-adv-x="559" 
d="M478 294.5q41 -44.5 41 -113.5q0 -90 -62.5 -143.5t-177.5 -53.5q-72 0 -126 24t-83.5 67.5t-29.5 99.5q0 60 37 105.5t112 88.5q-53 31 -83.5 73t-30.5 103q0 52 27.5 91t73.5 59.5t102 20.5q96 0 152.5 -43t56.5 -124q0 -59 -36.5 -104t-85.5 -68q72 -38 113 -82.5z
M195.5 607q-28.5 -24 -28.5 -65t33 -70t97 -61q50 24 72 57.5t22 70.5q0 92 -115 92q-52 0 -80.5 -24zM385 93.5q36 30.5 36 90.5q0 34 -21.5 59.5t-51 42t-89.5 45.5q-62 -28 -88.5 -62t-26.5 -85q0 -56 36 -88.5t101 -32.5q68 0 104 30.5z" />
    <glyph glyph-name="nine.osf" horiz-adv-x="543" 
d="M452.5 426q50.5 -91 50.5 -253q0 -167 -60 -279t-201 -112q-49 0 -85.5 9.5t-74.5 29.5q7 38 7 62q0 6 -2 36q34 -21 69 -32.5t80 -11.5q168 0 179 268q-26 -54 -72 -79t-106 -25q-57 0 -102 27t-70 76t-25 113q0 131 58 196.5t167 65.5q137 0 187.5 -91zM360 162.5
q38 42.5 38 119.5q0 71 -36.5 112t-102.5 41q-65 0 -98.5 -40t-33.5 -111q0 -78 35 -121t98 -43q62 0 100 42.5z" />
    <glyph glyph-name="ampersand.001" horiz-adv-x="729" 
d="M560 0l-50 51q-100 -68 -218 -68q-80 0 -139.5 28t-91 78t-31.5 113q0 76 44 126.5t122 98.5q-63 101 -63 172q0 75 46.5 114.5t126.5 39.5q75 0 119 -39.5t44 -102.5q0 -46 -20.5 -81.5t-53 -61t-81.5 -54.5q78 -103 212 -242q69 65 138 178q-4 -37 -4 -80q0 -38 4 -70
q-41 -52 -79 -88q74 -74 114 -112h-139zM274 473q51 31 78 60.5t27 68.5q0 31 -21.5 49t-55.5 18q-38 0 -56 -20.5t-18 -56.5q0 -45 46 -119zM450 115q-137 144 -215 252q-51 -33 -78.5 -69t-27.5 -87q0 -69 49 -104.5t114 -35.5q81 0 158 44z" />
    <glyph glyph-name="Trademark" horiz-adv-x="600" 
 />
    </font>
</defs>
</svg>
